<svg width="42" height="42" viewBox="0 0 42 42" fill="none" xmlns="http://www.w3.org/2000/svg">
<path d="M36.89 12.251C36.5876 11.7271 36.1546 11.2905 35.6332 10.9838C35.1118 10.6771 34.5198 10.5108 33.915 10.501H11.515L10.5 6.54603C10.3974 6.16424 10.1687 5.82843 9.85088 5.59328C9.53311 5.35813 9.14508 5.23749 8.75 5.25103H5.25C4.78587 5.25103 4.34075 5.4354 4.01256 5.76359C3.68437 6.09178 3.5 6.5369 3.5 7.00103C3.5 7.46516 3.68437 7.91027 4.01256 8.23846C4.34075 8.56665 4.78587 8.75103 5.25 8.75103H7.42L12.25 26.706C12.3525 27.0878 12.5813 27.4236 12.8991 27.6588C13.2169 27.8939 13.6049 28.0146 14 28.001H29.75C30.0732 28 30.3898 27.9096 30.6647 27.7397C30.9396 27.5698 31.1621 27.3271 31.3075 27.0385L37.0475 15.5585C37.2963 15.0371 37.4121 14.4621 37.3846 13.885C37.3571 13.3078 37.1872 12.7465 36.89 12.251Z" fill="white"/>
<path d="M13.125 36.75C14.5747 36.75 15.75 35.5747 15.75 34.125C15.75 32.6753 14.5747 31.5 13.125 31.5C11.6753 31.5 10.5 32.6753 10.5 34.125C10.5 35.5747 11.6753 36.75 13.125 36.75Z" fill="white"/>
<path d="M30.625 36.75C32.0747 36.75 33.25 35.5747 33.25 34.125C33.25 32.6753 32.0747 31.5 30.625 31.5C29.1753 31.5 28 32.6753 28 34.125C28 35.5747 29.1753 36.75 30.625 36.75Z" fill="white"/>
</svg>
