<svg width="32" height="32" viewBox="0 0 32 32" fill="none" xmlns="http://www.w3.org/2000/svg">
<path d="M24.64 7.64L28.72 9.98C29.2 10.26 29.36 10.86 29.1 11.34L19 29.22M18 31H2C1.73478 31 1.48043 30.8946 1.29289 30.7071C1.10536 30.5196 1 30.2652 1 30V4C1 3.73478 1.10536 3.48043 1.29289 3.29289C1.48043 3.10536 1.73478 3 2 3H18C18.2652 3 18.5196 3.10536 18.7071 3.29289C18.8946 3.48043 19 3.73478 19 4V30C19 30.2652 18.8946 30.5196 18.7071 30.7071C18.5196 30.8946 18.2652 31 18 31Z" stroke="white" stroke-width="2" stroke-miterlimit="10" stroke-linecap="round" stroke-linejoin="round"/>
<path d="M19 4.23828L24.14 5.61828C24.68 5.75828 25 6.31828 24.84 6.85828L19 27.1983M10 18.0203C9.71198 18.3288 9.36363 18.5747 8.97658 18.743C8.58953 18.9112 8.17203 18.9981 7.75 18.9983C6.21 18.9983 5 17.8663 5 16.4263C5 14.6603 8.02 12.2443 10 10.9983C12.02 12.2443 15 14.6603 15 16.4263C15 17.8663 13.79 18.9983 12.25 18.9983C11.38 18.9983 10.546 18.6203 10 18.0203ZM10 18.0203V22.9983M8 22.9983H12" stroke="white" stroke-width="2" stroke-miterlimit="10" stroke-linecap="round" stroke-linejoin="round"/>
</svg>
