<svg width="42" height="42" viewBox="0 0 42 42" fill="none" xmlns="http://www.w3.org/2000/svg">
<path d="M38.9648 26.8242H3.03516V31.8281H38.9648V26.8242Z" fill="white"/>
<path d="M14.5448 17.5143C15.3797 17.5143 16.1888 17.2248 16.8342 16.6951C17.4795 16.1655 17.9213 15.4284 18.0841 14.6096C18.247 13.7907 18.1209 12.9407 17.7273 12.2044C17.3338 11.4681 16.6971 10.8911 15.9257 10.5716C15.1544 10.2521 14.2961 10.2099 13.4972 10.4523C12.6982 10.6946 12.0081 11.2065 11.5442 11.9007C11.0804 12.5949 10.8716 13.4284 10.9534 14.2593C11.0353 15.0902 11.4026 15.867 11.993 16.4573C12.3273 16.7935 12.725 17.06 13.1631 17.2414C13.6011 17.4229 14.0707 17.5156 14.5448 17.5143Z" fill="white"/>
<path d="M3.03516 25.6758H38.9648V3.36328H3.03516V25.6758ZM9.84375 9.17987V9.1793C10.9922 7.93464 12.7204 7.22088 14.5594 7.22088C16.0648 7.22697 17.5243 7.74 18.7024 8.67723C19.8804 9.61445 20.7085 10.9212 21.0528 12.3867H33.6328C33.9499 12.3867 34.207 12.6028 34.207 12.9199V14.8887C34.207 15.2058 33.9499 15.5039 33.6328 15.5039H32.6878L32.674 18.8007C32.6736 18.8751 32.6581 18.9486 32.6285 19.0168C32.5989 19.0851 32.5558 19.1466 32.5018 19.1978C32.4476 19.2505 32.3833 19.2917 32.3129 19.3191C32.2424 19.3464 32.1672 19.3594 32.0916 19.3571L30.1605 19.3272C30.0866 19.3283 30.0132 19.3147 29.9445 19.2871C29.8759 19.2596 29.8134 19.2187 29.7608 19.1668C29.7081 19.1149 29.6663 19.053 29.6377 18.9848C29.6092 18.9166 29.5945 18.8434 29.5945 18.7694L29.6082 15.5039H28.5469V17.5957C28.5469 17.9128 28.2898 18.2109 27.9727 18.2109H26.0039C25.6868 18.2109 25.4297 17.9128 25.4297 17.5957V15.5039H21.0582C20.6692 17.093 19.7114 18.4845 18.3659 19.4151C17.0204 20.3458 15.3805 20.7511 13.7564 20.5544C12.1323 20.3577 10.6365 19.5727 9.55208 18.3477C8.46763 17.1228 7.86967 15.5429 7.87131 13.9069C7.87131 12.1394 8.61328 10.4598 9.84375 9.17987Z" fill="white"/>
<path d="M14.5486 19.4394C15.275 19.4438 15.9951 19.304 16.6671 19.0282C17.3392 18.7524 17.9498 18.3461 18.4638 17.8327C19.3169 16.9796 19.8391 15.9806 20.0152 14.8236C20.0367 14.6899 20.1063 14.5688 20.2108 14.4827C20.3153 14.3966 20.4475 14.3516 20.5828 14.356H26.0037C26.3208 14.356 26.5779 14.5721 26.5779 14.8892V17.0633H27.3982V14.8895C27.3982 14.5723 27.6553 14.3562 27.9724 14.3562H30.1846C30.259 14.3525 30.3333 14.3638 30.4031 14.3893C30.473 14.4148 30.5371 14.4541 30.5915 14.5048C30.6447 14.5564 30.6869 14.6181 30.7157 14.6864C30.7444 14.7547 30.7591 14.828 30.7589 14.9021L30.7451 18.1902L31.5277 18.1984L31.5415 14.9085C31.5422 14.8343 31.5577 14.7609 31.587 14.6928C31.6164 14.6246 31.6591 14.563 31.7125 14.5116C31.766 14.4601 31.8292 14.4198 31.8985 14.3931C31.9677 14.3664 32.0416 14.3537 32.1157 14.3559H33.0584V13.5359H20.5829C20.4446 13.5315 20.3122 13.4788 20.2087 13.387C20.1052 13.2951 20.037 13.17 20.0161 13.0332C19.8264 11.8821 19.2832 10.8184 18.4618 9.98989C17.9506 9.47625 17.3426 9.06907 16.6729 8.79188C16.0033 8.5147 15.2854 8.37301 14.5607 8.37502C13.0559 8.37502 11.6035 8.97237 10.6756 9.97717C10.6662 9.98726 10.6565 9.99571 10.6467 10.0051C9.87123 10.7765 9.3424 11.7609 9.12732 12.8334C8.91223 13.9059 9.02058 15.018 9.43862 16.0288C9.85666 17.0396 10.5655 17.9035 11.4753 18.5107C12.3851 19.118 13.4548 19.4413 14.5486 19.4396V19.4394ZM11.1806 10.5433C11.9589 9.765 12.9829 9.28066 14.0782 9.17276C15.1735 9.06486 16.2724 9.3401 17.1875 9.95155C18.1026 10.563 18.7774 11.4729 19.097 12.5261C19.4165 13.5793 19.3609 14.7107 18.9397 15.7276C18.5185 16.7444 17.7578 17.5838 16.7871 18.1026C15.8165 18.6214 14.6959 18.7876 13.6165 18.5729C12.537 18.3582 11.5654 17.7758 10.8672 16.925C10.1689 16.0742 9.78732 15.0077 9.78733 13.907C9.78561 13.2821 9.90786 12.663 10.147 12.0856C10.3862 11.5082 10.7375 10.984 11.1806 10.5433ZM30.313 38.7195C30.4653 38.7195 30.6114 38.659 30.7191 38.5513C30.8267 38.4437 30.8872 38.2976 30.8872 38.1453C30.8872 37.993 30.8267 37.847 30.7191 37.7393C30.6114 37.6316 30.4653 37.5711 30.313 37.5711H26.7877L25.4863 32.9773H16.5132L15.2118 37.5711H11.6865C11.5342 37.5711 11.3882 37.6316 11.2805 37.7393C11.1728 37.847 11.1123 37.993 11.1123 38.1453C11.1123 38.2976 11.1728 38.4437 11.2805 38.5513C11.3882 38.659 11.5342 38.7195 11.6865 38.7195H30.313Z" fill="white"/>
</svg>
