<svg width="32" height="32" viewBox="0 0 32 32" fill="none" xmlns="http://www.w3.org/2000/svg">
<g clip-path="url(#clip0_11851_2462)">
<path d="M25.3333 4.00195H6.66667C5.2 4.00195 4 5.20195 4 6.66862V25.3353C4 26.802 5.2 28.002 6.66667 28.002H25.3333C26.8 28.002 28 26.802 28 25.3353V6.66862C28 5.20195 26.8 4.00195 25.3333 4.00195ZM25.3333 25.3353H6.66667V6.66862H25.3333V25.3353Z" fill="white"/>
<path d="M10 24.002C11.1046 24.002 12 23.1065 12 22.002C12 20.8974 11.1046 20.002 10 20.002C8.89543 20.002 8 20.8974 8 22.002C8 23.1065 8.89543 24.002 10 24.002Z" fill="white"/>
<path d="M10 12.002C11.1046 12.002 12 11.1065 12 10.002C12 8.89738 11.1046 8.00195 10 8.00195C8.89543 8.00195 8 8.89738 8 10.002C8 11.1065 8.89543 12.002 10 12.002Z" fill="white"/>
<path d="M16 18.002C17.1046 18.002 18 17.1065 18 16.002C18 14.8974 17.1046 14.002 16 14.002C14.8954 14.002 14 14.8974 14 16.002C14 17.1065 14.8954 18.002 16 18.002Z" fill="white"/>
<path d="M22 24.002C23.1046 24.002 24 23.1065 24 22.002C24 20.8974 23.1046 20.002 22 20.002C20.8954 20.002 20 20.8974 20 22.002C20 23.1065 20.8954 24.002 22 24.002Z" fill="white"/>
<path d="M22 12.002C23.1046 12.002 24 11.1065 24 10.002C24 8.89738 23.1046 8.00195 22 8.00195C20.8954 8.00195 20 8.89738 20 10.002C20 11.1065 20.8954 12.002 22 12.002Z" fill="white"/>
</g>
<defs>
<clipPath id="clip0_11851_2462">
<rect width="32" height="32" fill="white"/>
</clipPath>
</defs>
</svg>
