<svg width="16" height="16" viewBox="0 0 16 16" fill="none" xmlns="http://www.w3.org/2000/svg">
<g clip-path="url(#clip0_11931_3963)">
<path d="M9.91737 1.78102C9.7247 1.44242 9.4458 1.16088 9.10902 0.965032C8.77225 0.769185 8.38962 0.666016 8.00004 0.666016C7.61046 0.666016 7.22783 0.769185 6.89105 0.965032C6.55428 1.16088 6.27537 1.44242 6.0827 1.78102L0.276038 12.1264C0.0916496 12.451 -0.00367367 12.8186 -0.00027859 13.192C0.00311649 13.5653 0.105109 13.9311 0.295371 14.2524C0.488427 14.5838 0.765655 14.8583 1.09897 15.0481C1.43228 15.2378 1.80983 15.3361 2.19337 15.333H13.8067C14.1902 15.3361 14.5678 15.2378 14.9011 15.0481C15.2344 14.8583 15.5116 14.5838 15.7047 14.2524C15.895 13.9311 15.997 13.5653 16.0004 13.192C16.0037 12.8186 15.9084 12.451 15.724 12.1264L9.91737 1.78102ZM8.00004 12.6664C7.86818 12.6664 7.73929 12.6273 7.62966 12.554C7.52002 12.4807 7.43458 12.3766 7.38412 12.2548C7.33366 12.133 7.32046 11.9989 7.34618 11.8696C7.3719 11.7403 7.4354 11.6215 7.52863 11.5283C7.62187 11.435 7.74066 11.3716 7.86998 11.3458C7.9993 11.3201 8.13334 11.3333 8.25516 11.3838C8.37698 11.4342 8.4811 11.5197 8.55435 11.6293C8.62761 11.7389 8.6667 11.8678 8.6667 11.9997C8.6667 12.1765 8.59647 12.3461 8.47144 12.4711C8.34642 12.5961 8.17685 12.6664 8.00004 12.6664ZM8.6667 9.33302C8.6667 9.50983 8.59647 9.6794 8.47144 9.80443C8.34642 9.92945 8.17685 9.99969 8.00004 9.99969C7.82323 9.99969 7.65366 9.92945 7.52863 9.80443C7.40361 9.6794 7.33337 9.50983 7.33337 9.33302V5.33302C7.33337 5.15621 7.40361 4.98664 7.52863 4.86162C7.65366 4.73659 7.82323 4.66635 8.00004 4.66635C8.17685 4.66635 8.34642 4.73659 8.47144 4.86162C8.59647 4.98664 8.6667 5.15621 8.6667 5.33302V9.33302Z" fill="#FF3232"/>
</g>
<defs>
<clipPath id="clip0_11931_3963">
<rect width="16" height="16" fill="white"/>
</clipPath>
</defs>
</svg>
