<svg width="44" height="44" viewBox="0 0 44 44" fill="none" xmlns="http://www.w3.org/2000/svg">
<path d="M31.2573 8.45988H27.0466V3.83008L31.2573 8.45988Z" fill="#D3DDE9"/>
<path d="M15.3823 15.401C15.6016 15.8477 15.3068 16.3894 14.8447 16.3894H8.02707C7.56501 16.3894 7.27015 15.8477 7.4895 15.401L10.8965 8.42271C11.1284 7.95024 11.7433 7.95024 11.9735 8.42271L15.3823 15.401ZM11.9717 11.4809C11.9896 11.4196 11.9986 11.3563 11.9986 11.2951C11.9986 10.9669 11.7559 10.6803 11.4359 10.6803C11.0565 10.6803 10.7868 11.0835 10.9001 11.4809L11.4359 13.3668L11.9717 11.4809ZM11.8943 14.543C11.8943 14.2643 11.6894 14.0389 11.4359 14.0389C11.1824 14.0389 10.9774 14.2643 10.9774 14.543C10.9774 14.8198 11.1824 15.0471 11.4359 15.0471C11.6894 15.0471 11.8943 14.8198 11.8943 14.543Z" fill="white"/>
<path d="M27.0466 3.83008V8.45988H31.2573" stroke="white" stroke-width="0.46475" stroke-linecap="round" stroke-linejoin="round"/>
<path d="M38.8804 39.12H12.7425V22.9534V19.9961H31.2573H38.8804V39.12Z" stroke="white" stroke-width="0.46475" stroke-linecap="round" stroke-linejoin="round"/>
<path d="M12.7425 22.954H5.11938V3.83008H27.0466L31.2573 8.45988V19.9967" stroke="white" stroke-width="0.46475" stroke-linecap="round" stroke-linejoin="round"/>
<path d="M38.8804 19.9961L27.8772 29.5422L25.8114 31.3352L23.7457 29.5422L12.7425 19.9961" stroke="white" stroke-width="0.46475" stroke-linecap="round" stroke-linejoin="round"/>
<path d="M38.8803 39.1208L27.8772 29.543L27.8754 29.541" stroke="white" stroke-width="0.46475" stroke-linecap="round" stroke-linejoin="round"/>
<path d="M23.7475 29.541L23.7457 29.543L12.7425 39.1208" stroke="white" stroke-width="0.46475" stroke-linecap="round" stroke-linejoin="round"/>
<path d="M10.8961 8.42271L7.48907 15.401C7.26972 15.8477 7.56458 16.3894 8.02664 16.3894H14.8443C15.3063 16.3894 15.6012 15.8477 15.3818 15.401L11.973 8.42271C11.7429 7.95024 11.128 7.95024 10.8961 8.42271Z" stroke="white" stroke-width="0.46475" stroke-linecap="round" stroke-linejoin="round"/>
<path d="M17.5303 8.64453H21.9082" stroke="white" stroke-width="0.46475" stroke-linecap="round" stroke-linejoin="round"/>
<path d="M17.5303 10.4375H26.4695" stroke="white" stroke-width="0.46475" stroke-linecap="round" stroke-linejoin="round"/>
<path d="M17.5303 12.2305H26.4695" stroke="white" stroke-width="0.46475" stroke-linecap="round" stroke-linejoin="round"/>
<path d="M17.5303 14.0215H26.4695" stroke="white" stroke-width="0.46475" stroke-linecap="round" stroke-linejoin="round"/>
<path d="M17.5303 15.8145H26.4695" stroke="white" stroke-width="0.46475" stroke-linecap="round" stroke-linejoin="round"/>
</svg>
