<svg width="29" height="27" viewBox="0 0 29 27" fill="none" xmlns="http://www.w3.org/2000/svg">
<path d="M15.1899 24.2935H4.11693C2.56103 24.2935 1.29736 23.0298 1.29736 21.4739V5.03832C1.29736 3.48242 2.56103 2.21875 4.11693 2.21875H15.1899C16.7457 2.21875 18.0094 3.48242 18.0094 5.03832V21.4818C18.0094 23.0377 16.7457 24.2935 15.1899 24.2935Z" fill="#E6E7E8"/>
<path d="M15.1899 24.9762H4.11695C2.18986 24.9762 0.618164 23.4045 0.618164 21.4774V5.04176C0.618164 3.11466 2.18986 1.54297 4.11695 1.54297H15.1899C17.117 1.54297 18.6887 3.11466 18.6887 5.04176V21.4853C18.6887 23.4124 17.117 24.9762 15.1899 24.9762ZM4.11695 2.90142C2.94016 2.90142 1.98451 3.85707 1.98451 5.03386V21.4774C1.98451 22.6542 2.94016 23.6098 4.11695 23.6098H15.1899C16.3667 23.6098 17.3223 22.6542 17.3223 21.4774V5.04176C17.3223 3.86497 16.3667 2.90931 15.1899 2.90931H4.11695V2.90142Z" fill="black"/>
<path d="M5.05669 8.58608C4.36167 8.58608 3.79302 8.01743 3.79302 7.32241V6.73007H3.38232V6.13772H4.88293V6.73007H4.45645C4.45645 6.73007 4.44855 6.80905 4.45645 7.26713C4.45645 7.59884 4.73287 7.87527 5.06459 7.87527C5.27783 7.87527 5.47528 7.7647 5.58585 7.58304C5.67273 7.44088 5.67273 7.28292 5.67273 7.14076V5.91658V4.47125H5.10408V3.87891H7.14965V4.47125H6.53361V7.14866C6.53361 7.33821 6.52571 7.49617 6.50201 7.61464C6.37565 8.27806 5.75961 8.58608 5.24624 8.58608H5.11987C5.10408 8.58608 5.08828 8.58608 5.08038 8.58608C5.05669 8.58608 5.05669 8.58608 5.05669 8.58608Z" fill="black"/>
<path d="M14.5974 14.8914C15.1424 14.3149 15.4583 13.5014 15.4109 12.6168C15.332 11.0925 14.1394 9.86831 12.6861 9.78933C11.2329 9.71035 10.0087 10.7608 9.71651 12.1666C9.43219 10.7608 8.20011 9.71825 6.75478 9.78933C5.30946 9.86041 4.12477 11.0688 4.02999 12.5773C3.97471 13.3829 4.22744 14.1253 4.66972 14.6861L8.87933 20.8702C9.29792 21.4388 10.1193 21.4388 10.53 20.8702L14.5974 14.8914Z" fill="black"/>
<path d="M18.3254 25.5351L7.94749 21.6651C6.48637 21.1202 5.75186 19.5011 6.28892 18.04L12.0307 2.63109C12.5757 1.16996 14.1948 0.435455 15.6559 0.972516L26.0338 4.84251C27.4949 5.38747 28.2294 7.00655 27.6924 8.46767L21.9506 23.8766C21.4056 25.3377 19.7786 26.0801 18.3254 25.5351Z" fill="#E6E7E8"/>
<path d="M19.3048 26.3976C18.8862 26.3976 18.4755 26.3265 18.0806 26.1764L7.70272 22.3064C6.82605 21.9826 6.13103 21.335 5.74403 20.482C5.35703 19.629 5.32544 18.6813 5.64925 17.8046L11.3911 2.3957C11.8965 1.03726 13.2155 0.121094 14.6687 0.121094C15.0873 0.121094 15.498 0.192175 15.8929 0.342236L26.2708 4.21223C27.1475 4.53605 27.8425 5.18368 28.2295 6.03666C28.6165 6.88964 28.6481 7.83739 28.3243 8.71406L22.5825 24.123C22.077 25.4814 20.758 26.3976 19.3048 26.3976ZM14.6766 1.48744C13.792 1.48744 12.9864 2.04819 12.6784 2.87748L6.92872 18.2864C6.73127 18.8234 6.74707 19.4 6.98401 19.9212C7.22094 20.4425 7.64743 20.8374 8.18449 21.0349L18.5624 24.9049C18.8072 24.9917 19.0521 25.0391 19.3048 25.0391C20.1894 25.0391 20.995 24.4784 21.303 23.6491L27.0448 8.24018C27.2422 7.70312 27.2264 7.12657 26.9895 6.60531C26.7526 6.08404 26.3261 5.68915 25.789 5.4917L15.419 1.6217C15.1742 1.53483 14.9293 1.48744 14.6766 1.48744Z" fill="black"/>
<path d="M20.8135 15.3582C20.8135 15.3582 19.4235 12.4754 18.9654 9.90859C18.8627 9.31625 18.1519 9.04772 17.678 9.42682C15.6561 11.0696 12.7181 12.3333 12.7181 12.3333C11.6993 12.7519 10.949 13.8181 11.1464 15.2397C11.2017 15.6346 11.3755 16.0137 11.644 16.3138C12.7813 17.5933 14.432 17.5222 15.4271 16.6218C15.0717 17.3564 14.3925 18.5489 13.4447 19.2677C13.1525 19.4888 13.2157 19.939 13.5553 20.0654L14.3372 20.3576L15.1191 20.6498C15.4587 20.7762 15.7983 20.476 15.7272 20.1206C15.4824 18.9596 15.7509 17.617 15.9642 16.8272C16.1221 18.154 17.3226 19.2914 19.0207 19.0702C19.4156 19.0149 19.7947 18.8491 20.0948 18.5805C21.1768 17.6407 21.3111 16.3454 20.8135 15.3582ZM15.277 7.65768L15.5298 6.97056L15.9563 7.12851L15.9405 5.79376L14.819 5.37517L13.9502 6.38611L14.4636 6.57566L14.2108 7.26278L12.4654 6.61515L12.7181 5.92803L13.2157 6.11758L14.0844 5.10664L13.7606 4.98817L14.0134 4.30105L14.5978 4.51429L16.051 2.83203L16.6434 3.05317L16.6671 5.28829L17.2752 5.51733L17.0225 6.20445L16.6829 6.07809L16.6987 7.41284L17.2752 7.62609L17.0225 8.31321L15.277 7.65768ZM15.9326 5.01186L15.9247 4.1036L15.3323 4.79072L15.9326 5.01186Z" fill="black"/>
<path d="M16.5877 7.48255L16.5719 5.91086L16.9589 6.05303L17.1406 5.57125L16.564 5.35801L16.5404 3.12289L16.0902 2.95703L14.6369 4.63929L14.0841 4.43395L13.9024 4.91572L14.2736 5.05789L13.2548 6.24258L12.7888 6.06882L12.6072 6.5506L14.1473 7.12715L14.3289 6.64537L13.7761 6.44003L14.7949 5.25533L16.0586 5.72131L16.0744 7.293L15.6005 7.11925L15.4188 7.60102L16.9589 8.17757L17.1406 7.6958L16.5877 7.48255ZM15.1503 4.82884L16.0349 3.80211L16.0507 5.16056L15.1503 4.82884Z" fill="black"/>
</svg>
