<svg width="32" height="32" viewBox="0 0 32 32" fill="none" xmlns="http://www.w3.org/2000/svg">
<g clip-path="url(#clip0_12249_4860)">
<path d="M3.51959 6.72008C6.39959 7.52008 8.47959 9.76008 9.27959 12.4801C9.43959 12.8001 9.75959 12.8001 9.91959 12.4801C10.7196 9.60008 12.9596 7.52008 15.6796 6.72008C15.9996 6.56008 15.9996 6.24008 15.6796 6.08008C12.9596 5.28008 10.7196 3.04008 9.91959 0.320078C9.75959 7.81193e-05 9.43959 7.81193e-05 9.27959 0.320078C8.47959 3.04008 6.23959 5.28008 3.51959 6.08008C3.03959 6.24008 3.03959 6.56008 3.51959 6.72008ZM31.6796 15.5201C27.3596 14.4001 23.9996 11.0401 22.8796 6.72008C22.7196 6.24008 22.0796 6.24008 21.9196 6.72008C20.7996 11.0401 17.4396 14.4001 13.1196 15.5201C12.6396 15.6801 12.6396 16.3201 13.1196 16.4801C17.2796 17.6001 20.6396 20.9601 21.9196 25.2801C22.0796 25.7601 22.7196 25.7601 22.8796 25.2801C23.9996 21.1201 27.3596 17.7601 31.6796 16.4801C32.1596 16.3201 32.1596 15.6801 31.6796 15.5201ZM12.4796 25.2801C9.59959 24.4801 7.51959 22.2401 6.71959 19.5201C6.55959 19.2001 6.23959 19.2001 6.07959 19.5201C5.27959 22.4001 3.03959 24.4801 0.31959 25.2801C-0.000410162 25.4401 -0.000410162 25.7601 0.31959 25.9201C3.19959 26.7201 5.27959 28.9601 6.07959 31.6801C6.23959 32.0001 6.55959 32.0001 6.71959 31.6801C7.51959 28.8001 9.75959 26.7201 12.4796 25.9201C12.9596 25.7601 12.9596 25.4401 12.4796 25.2801Z" fill="white"/>
</g>
<defs>
<clipPath id="clip0_12249_4860">
<rect width="32" height="32" fill="white"/>
</clipPath>
</defs>
</svg>
