<svg width="42" height="42" viewBox="0 0 42 42" fill="none" xmlns="http://www.w3.org/2000/svg">
<path d="M1.79688 34.0758L8.60842 38.0067V30.1419L1.79688 26.2109V34.0758Z" fill="white"/>
<path d="M17.4921 26.2109L10.6809 30.1419V38.0067L17.4921 34.0758V26.2109Z" fill="white"/>
<path d="M9.64455 20.4844L2.83301 24.4153L9.64455 28.3492L16.4558 24.4153L9.64455 20.4844Z" fill="white"/>
<path d="M24.5081 34.0758L31.3193 38.0067V30.1419L24.5081 26.2109V34.0758Z" fill="white"/>
<path d="M33.3916 30.1419V38.0067L40.2031 34.0758V26.2109L33.3916 30.1419Z" fill="white"/>
<path d="M32.3554 20.4844L25.5442 24.4153L32.3554 28.3492L39.167 24.4153L32.3554 20.4844Z" fill="white"/>
<path d="M19.9638 10.511L13.1526 6.58008V14.4449L19.9638 18.3758V10.511Z" fill="white"/>
<path d="M22.0361 18.3758L28.8474 14.4449V6.58008L22.0361 10.511V18.3758Z" fill="white"/>
<path d="M27.8112 4.78445L20.9999 0.853516L14.1887 4.78445L20.9999 8.71834L27.8112 4.78445Z" fill="white"/>
<path d="M7.63234 15.1866L10.4934 13.5348V10.5254L5.67769 13.3057C5.47959 13.4201 5.31508 13.5846 5.20071 13.7827C5.08634 13.9808 5.02613 14.2055 5.02612 14.4343V20.1027L7.63234 18.5987V15.1866ZM34.3676 18.5987L36.9738 20.1027V14.4343C36.9738 14.2055 36.9136 13.9808 36.7992 13.7827C36.6848 13.5846 36.5203 13.4201 36.3222 13.3057L31.5065 10.5254V13.5348L34.3675 15.1866L34.3676 18.5987ZM20.9999 38.3399L18.2323 36.742L15.6255 38.2464L20.3484 40.9732C20.5465 41.0875 20.7712 41.1477 20.9999 41.1477C21.2287 41.1477 21.4534 41.0875 21.6515 40.9732L26.3744 38.2464L23.7676 36.742L20.9999 38.3399Z" fill="white"/>
</svg>
