<svg width="32" height="32" viewBox="0 0 32 32" fill="none" xmlns="http://www.w3.org/2000/svg">
<path d="M9.80452 14.0996C9.54383 13.8392 9.12196 13.8392 8.86152 14.0996C8.60139 14.3598 8.60139 14.7823 8.86152 15.0423C9.12196 15.3028 9.54383 15.3028 9.80452 15.0423C10.0646 14.7822 10.0646 14.3598 9.80452 14.0996ZM3.80452 19.728C4.06464 19.467 4.06464 19.0454 3.80452 18.7856C3.54439 18.5246 3.12189 18.5246 2.86183 18.7856C2.60139 19.0454 2.60139 19.467 2.86183 19.728C3.12189 19.9884 3.54439 19.9884 3.80452 19.728ZM7.13758 24.3751C7.39827 24.1154 7.39827 23.6925 7.13758 23.4328C6.87714 23.1723 6.45527 23.1723 6.19514 23.4328C5.93446 23.6925 5.93446 24.1154 6.19514 24.3751C6.45527 24.6361 6.87714 24.6361 7.13758 24.3751ZM11.5279 23.4516C11.2678 23.7121 11.2678 24.1343 11.5279 24.3948C11.7883 24.6545 12.2105 24.6545 12.4709 24.3948C12.731 24.1343 12.731 23.7121 12.4709 23.4516C12.2105 23.1919 11.7883 23.1919 11.5279 23.4516ZM13.1946 21.1184C12.9341 21.3794 12.9341 21.8009 13.1946 22.0607C13.4553 22.3217 13.8771 22.3217 14.1373 22.0607C14.398 21.8009 14.398 21.3794 14.1373 21.1184C13.8771 20.8579 13.4553 20.8579 13.1946 21.1184Z" fill="white"/>
<path d="M31.9459 12.8439L27.8049 3.16588C27.6977 2.91344 27.4446 2.75319 27.1713 2.76207L17.8717 3.05926C17.7045 3.06462 17.5455 3.13265 17.4262 3.24982L10.7893 9.77007C10.6935 9.86409 10.6284 9.9848 10.6024 10.1164C10.5764 10.248 10.5907 10.3845 10.6434 10.5078L10.9333 11.1858L9.57544 10.6549C9.4195 10.5946 9.24668 10.5946 9.09075 10.6549L0.42375 14.0397C0.298853 14.0884 0.191576 14.1737 0.115966 14.2844C0.0403563 14.3951 -6.31668e-05 14.5261 7.40973e-08 14.6601V25.1872C7.40973e-08 25.4618 0.167938 25.7074 0.42375 25.8073L9.09075 29.1921C9.16825 29.2221 9.25069 29.2375 9.33281 29.2375C9.41525 29.2375 9.49738 29.2221 9.5755 29.1921L18.2419 25.8073C18.3669 25.7588 18.4743 25.6736 18.5501 25.5629C18.6259 25.4523 18.6665 25.3213 18.6665 25.1872V20.4861L24.7174 20.2925C24.8846 20.2866 25.0436 20.2187 25.1634 20.1019L31.8001 13.5817C31.9956 13.3893 32.0544 13.0964 31.9459 12.8439ZM18.1744 4.38344L25.5071 4.14907L20.2743 9.29063L12.9415 9.52501L18.1744 4.38344ZM12.2531 10.881L20.1217 10.6295L23.6989 18.9911L15.8306 19.2429L12.2531 10.881ZM8.66644 27.5952L1.33306 24.7306V15.6362L8.66638 18.4996L8.66644 27.5952ZM9.33275 17.3286L2.49881 14.6601L9.33275 11.9919L11.6689 12.9039L12.9563 15.9141L9.33275 17.3286ZM17.3324 24.7306L9.99975 27.5952V18.4996L13.4811 17.1399L14.7838 20.1859C14.8352 20.3058 14.9207 20.408 15.0297 20.4799C15.1387 20.5518 15.2663 20.5902 15.3968 20.5903C15.4039 20.5903 15.4109 20.5903 15.4183 20.5891L17.3324 20.529V24.7306ZM24.925 18.4666L21.3484 10.1052L26.9637 4.58776L30.5403 12.9499L24.925 18.4666Z" fill="white"/>
<path d="M18.941 7.37319C19.2829 7.51044 19.6713 7.34438 19.808 7.00282C19.9447 6.66088 19.7792 6.27269 19.4372 6.13607C19.0953 5.99882 18.7074 6.16488 18.5708 6.5065C18.433 6.84838 18.6002 7.23657 18.941 7.37319ZM16.1275 13.6529C16.2644 13.3113 16.0984 12.9231 15.7565 12.7861C15.4146 12.6492 15.0267 12.8149 14.8897 13.1569C14.7525 13.4985 14.9185 13.8869 15.2605 14.0236C15.6021 14.1609 15.9905 13.9948 16.1275 13.6529ZM20.4231 17.6163C20.765 17.7529 21.1529 17.5868 21.2895 17.2455C21.4274 16.9036 21.2614 16.5154 20.9194 16.3784C20.5775 16.2411 20.189 16.4073 20.0524 16.7492C19.9158 17.0911 20.0818 17.4783 20.4231 17.6163ZM18.8502 13.9384C19.1922 14.0754 19.5793 13.9093 19.7166 13.5674C19.8533 13.2258 19.6872 12.8379 19.3454 12.7006C19.0047 12.564 18.6155 12.7301 18.4789 13.0719C18.3423 13.4133 18.5083 13.8015 18.8502 13.9384ZM16.8337 17.7013C17.1756 17.8381 17.5641 17.6719 17.7007 17.33C17.8374 16.9887 17.6713 16.6009 17.3294 16.4637C16.9881 16.3268 16.5997 16.4928 16.463 16.8343C16.3257 17.1756 16.4917 17.5648 16.8337 17.7013ZM26.7896 8.06619C26.4477 7.9295 26.0592 8.09532 25.9225 8.43719C25.7859 8.77913 25.952 9.16663 26.2933 9.30394C26.6352 9.44063 27.0231 9.2745 27.1603 8.93288C27.2975 8.59163 27.1315 8.20344 26.7896 8.06619ZM27.8668 12.9816C28.2087 13.1183 28.596 12.9523 28.7338 12.6106C28.8705 12.2687 28.7044 11.8805 28.3625 11.7439C28.0212 11.6066 27.6333 11.7727 27.4955 12.1143C27.3588 12.4562 27.5249 12.8444 27.8668 12.9816ZM24.2498 10.6033C23.9078 10.466 23.5193 10.6321 23.3821 10.9737C23.2454 11.3156 23.4115 11.7038 23.7534 11.841C24.0953 11.9776 24.4825 11.8116 24.6198 11.47C24.7571 11.1281 24.5911 10.7399 24.2498 10.6033ZM25.8227 14.281C25.4807 14.1438 25.0923 14.3098 24.9556 14.6514C24.819 14.9933 24.985 15.3814 25.3269 15.5181C25.6682 15.6554 26.0561 15.4893 26.1928 15.1474C26.3307 14.8058 26.1646 14.4176 25.8227 14.281ZM26.3061 11.1741C25.9642 11.0374 25.5769 11.2032 25.4391 11.5451C25.3024 11.887 25.4685 12.2751 25.8098 12.4118C26.1518 12.5491 26.5402 12.383 26.6775 12.0411C26.8141 11.6995 26.648 11.3113 26.3061 11.1741Z" fill="white"/>
</svg>
