<svg width="56" height="56" viewBox="0 0 56 56" fill="none" xmlns="http://www.w3.org/2000/svg">
<path d="M40.0645 42.5077V44.797C40.0645 46.3468 38.811 47.6002 37.2612 47.6002H19.1935C17.6437 47.6002 16.3903 46.3468 16.3903 44.797V7.55914C16.3903 6.01367 17.6437 4.75586 19.1935 4.75586H37.2612C38.811 4.75586 40.0645 6.01367 40.0645 7.55914V42.5088V42.5077Z" fill="white"/>
<path d="M31.1796 18.7012H25.2742C24.8081 18.7012 24.4303 19.079 24.4303 19.545V24.6066C24.4303 25.0726 24.8081 25.4504 25.2742 25.4504H31.1796C31.6456 25.4504 32.0234 25.0726 32.0234 24.6066V19.545C32.0234 19.079 31.6456 18.7012 31.1796 18.7012Z" fill="#1656A2"/>
<path d="M31.3141 19.441H29.8989V18.1323C29.8989 17.4405 29.3014 16.8761 28.5641 16.8761H27.8844C27.1489 16.8761 26.5514 17.4405 26.5514 18.1323V19.441H25.1362V18.1323C25.1362 16.6595 26.3697 15.4609 27.8844 15.4609H28.5641C30.0789 15.4609 31.3124 16.6595 31.3124 18.1323V19.441H31.3141Z" fill="#1656A2"/>
<path d="M29.1038 21.2401C29.1038 20.7544 28.7107 20.3613 28.225 20.3613C27.7393 20.3613 27.3462 20.7544 27.3462 21.2401C27.3462 21.6001 27.5628 21.9076 27.8703 22.0438V23.7718H28.5779V22.0438C28.8872 21.9076 29.1021 21.6001 29.1021 21.2401H29.1038Z" fill="white"/>
<path opacity="0.12" d="M35.7376 26.8164H20.7161C20.2715 26.8164 19.9111 27.1768 19.9111 27.6214V30.0353C19.9111 30.4799 20.2715 30.8403 20.7161 30.8403H35.7376C36.1822 30.8403 36.5426 30.4799 36.5426 30.0353V27.6214C36.5426 27.1768 36.1822 26.8164 35.7376 26.8164Z" fill="black"/>
<path opacity="0.12" d="M35.7376 32.207H20.7161C20.2715 32.207 19.9111 32.5674 19.9111 33.012V35.4259C19.9111 35.8705 20.2715 36.2309 20.7161 36.2309H35.7376C36.1822 36.2309 36.5426 35.8705 36.5426 35.4259V33.012C36.5426 32.5674 36.1822 32.207 35.7376 32.207Z" fill="black"/>
<path opacity="0.12" d="M35.7376 37.5957H20.7161C20.2715 37.5957 19.9111 37.9561 19.9111 38.4007V40.8146C19.9111 41.2592 20.2715 41.6196 20.7161 41.6196H35.7376C36.1822 41.6196 36.5426 41.2592 36.5426 40.8146V38.4007C36.5426 37.9561 36.1822 37.5957 35.7376 37.5957Z" fill="black"/>
<path d="M40.0645 42.5077V44.797C40.0645 46.3468 38.811 47.6002 37.2612 47.6002H19.1935C17.6437 47.6002 16.3903 46.3468 16.3903 44.797V7.55914C16.3903 6.01367 17.6437 4.75586 19.1935 4.75586H37.2612C38.811 4.75586 40.0645 6.01367 40.0645 7.55914V42.5088V42.5077Z" stroke="#1656A2" stroke-width="0.65625" stroke-miterlimit="10" stroke-linecap="round"/>
<path d="M25.4509 7.93359H30.4591" stroke="#1656A2" stroke-width="0.65625" stroke-miterlimit="10" stroke-linecap="round"/>
<path d="M24.436 45.2656H31.4775" stroke="#1656A2" stroke-width="0.65625" stroke-miterlimit="10" stroke-linecap="round"/>
</svg>
