<svg width="42" height="42" viewBox="0 0 42 42" fill="none" xmlns="http://www.w3.org/2000/svg">
<path d="M41.804 21.5429C41.7365 21.4058 41.6506 21.2786 41.5485 21.1649C41.5135 21.1246 41.4837 21.0826 41.4453 21.0459C41.3071 20.9111 41.1474 20.8005 40.9728 20.7186L40.9325 20.7011L40.929 20.6994L32.375 16.8091V7.4361C32.371 7.2274 32.3295 7.02112 32.2525 6.8271C32.2315 6.7711 32.2052 6.72035 32.179 6.6661C32.1115 6.52901 32.0256 6.40182 31.9235 6.2881C31.8885 6.24785 31.8588 6.20585 31.8203 6.1691C31.6821 6.0344 31.5224 5.92378 31.3477 5.84185L31.3075 5.82435L31.304 5.8226L21.7245 1.4686C21.4971 1.36572 21.2504 1.3125 21.0009 1.3125C20.7513 1.3125 20.5046 1.36572 20.2773 1.4686L10.696 5.8226L10.6925 5.82435L10.6505 5.8436C10.4761 5.92596 10.3164 6.03652 10.178 6.17085C10.1412 6.20585 10.1115 6.2496 10.0765 6.2881C9.97499 6.40289 9.88909 6.53058 9.821 6.66785C9.79475 6.72035 9.7685 6.7711 9.7475 6.8271C9.67049 7.02112 9.629 7.2274 9.625 7.4361V16.8091L1.071 20.6976L1.0675 20.6994L1.02725 20.7169C0.852823 20.7992 0.693179 20.9098 0.55475 21.0441C0.51625 21.0809 0.4865 21.1229 0.4515 21.1631C0.349995 21.2779 0.264086 21.4056 0.196 21.5429C0.16975 21.5971 0.1435 21.6461 0.1225 21.7039C0.0453309 21.8972 0.00382751 22.1029 0 22.3111L0 32.8111C0 33.4989 0.40075 34.1201 1.0255 34.4036L10.6505 38.7786C10.6575 38.7821 10.6645 38.7804 10.6698 38.7821C10.8868 38.8784 11.123 38.9361 11.375 38.9361C11.627 38.9361 11.8632 38.8784 12.0785 38.7839C12.0855 38.7804 12.0925 38.7821 12.0977 38.7804L21 34.7326L29.9005 38.7786C29.9075 38.7821 29.9145 38.7804 29.9198 38.7821C30.1367 38.8784 30.373 38.9344 30.6233 38.9344C30.8735 38.9344 31.1115 38.8766 31.3267 38.7821C31.3337 38.7786 31.3408 38.7804 31.346 38.7786L40.971 34.4036C41.2778 34.2656 41.5381 34.0419 41.7207 33.7593C41.9033 33.4768 42.0003 33.1475 42 32.8111V22.3111C41.996 22.1024 41.9545 21.8961 41.8775 21.7021C41.8565 21.6461 41.8302 21.5954 41.804 21.5429ZM11.375 24.7629L5.97975 22.3111L11.375 19.8594L16.7703 22.3111L11.375 24.7629ZM19.25 31.6841L13.125 34.4684V27.8131L19.25 25.0289V31.6841ZM15.6047 7.4361L21 4.98435L26.3953 7.4361L21 9.88785L15.6047 7.4361ZM22.75 12.9381L28.875 10.1539V16.8109L22.75 19.5934V12.9381ZM30.625 24.7629L25.2297 22.3111L30.625 19.8594L36.0202 22.3111L30.625 24.7629ZM38.5 31.6841L32.375 34.4684V27.8131L38.5 25.0289V31.6841Z" fill="white"/>
</svg>
