<svg width="42" height="42" viewBox="0 0 42 42" fill="none" xmlns="http://www.w3.org/2000/svg">
<path d="M8.12 26.7225V35.1575C8.12461 35.5815 8.29627 35.9865 8.5977 36.2846C8.89914 36.5828 9.30602 36.75 9.73 36.75H19.565V26.7225H8.12ZM22.435 36.75H32.27C32.694 36.75 33.1009 36.5828 33.4023 36.2846C33.7037 35.9865 33.8754 35.5815 33.88 35.1575V26.7225H22.435V36.75ZM35.175 12.4075H31.955C32.2848 11.7376 32.4583 11.0017 32.4625 10.255C32.4579 8.92599 31.9267 7.65298 30.9853 6.71486C30.0439 5.77674 28.769 5.24999 27.44 5.25C26.0516 5.31584 24.7102 5.77308 23.5706 6.56891C22.4311 7.36475 21.5399 8.4667 21 9.7475C20.4601 8.4667 19.5689 7.36475 18.4294 6.56891C17.2898 5.77308 15.9484 5.31584 14.56 5.25C13.231 5.24999 11.9561 5.77674 11.0147 6.71486C10.0733 7.65298 9.54213 8.92599 9.5375 10.255C9.54165 11.0017 9.71517 11.7376 10.045 12.4075H6.825C5.95 12.4075 5.25 13.44 5.25 14.7V21.5775C5.25 22.8375 5.95 23.87 6.825 23.87H19.565V12.4075H22.435V23.87H35.175C36.05 23.87 36.75 22.8375 36.75 21.5775V14.7C36.75 13.44 36.05 12.4075 35.175 12.4075ZM14.56 12.4075C14.2622 12.4344 13.9621 12.399 13.6787 12.3035C13.3953 12.208 13.135 12.0546 12.9142 11.8529C12.6935 11.6512 12.5172 11.4057 12.3965 11.1321C12.2759 10.8585 12.2136 10.5628 12.2136 10.2637C12.2136 9.96473 12.2759 9.669 12.3965 9.39539C12.5172 9.12179 12.6935 8.87632 12.9142 8.67463C13.135 8.47294 13.3953 8.31946 13.6787 8.22397C13.9621 8.12847 14.2622 8.09307 14.56 8.12C17.01 8.12 18.3925 10.64 19.075 12.4075H14.56ZM27.44 12.4075H22.925C23.6075 10.6575 24.99 8.12 27.44 8.12C27.7378 8.09307 28.0379 8.12847 28.3213 8.22397C28.6047 8.31946 28.865 8.47294 29.0858 8.67463C29.3065 8.87632 29.4828 9.12179 29.6035 9.39539C29.7241 9.669 29.7864 9.96473 29.7864 10.2637C29.7864 10.5628 29.7241 10.8585 29.6035 11.1321C29.4828 11.4057 29.3065 11.6512 29.0858 11.8529C28.865 12.0546 28.6047 12.208 28.3213 12.3035C28.0379 12.399 27.7378 12.4344 27.44 12.4075Z" fill="white"/>
</svg>
