<svg width="32" height="32" viewBox="0 0 32 32" fill="none" xmlns="http://www.w3.org/2000/svg">
<path d="M4.04688 14.0001C4.15389 11.7635 4.43244 9.53842 4.88008 7.34448C5.00465 6.73762 5.30454 6.18066 5.7426 5.7426C6.18066 5.30454 6.73762 5.00465 7.34448 4.88008C9.53842 4.43244 11.7635 4.15389 14.0001 4.04688M14.0001 27.9533C11.7634 27.8469 9.5382 27.5691 7.34408 27.1221C6.73703 26.9973 6.17996 26.6971 5.74196 26.2586C5.30395 25.8202 5.00427 25.2628 4.88008 24.6557C4.43244 22.4617 4.15389 20.2367 4.04688 18.0001M27.9533 14.0001C27.8469 11.7634 27.5691 9.5382 27.1221 7.34408C26.9973 6.73703 26.6971 6.17996 26.2586 5.74196C25.8202 5.30395 25.2628 5.00427 24.6557 4.88008C22.4617 4.43244 20.2367 4.15389 18.0001 4.04688M18.0001 27.9533C20.2367 27.8469 22.4619 27.5691 24.6561 27.1221C25.2636 26.9977 25.8211 26.6977 26.2596 26.2592C26.6981 25.8207 26.9981 25.2632 27.1225 24.6557C27.5693 22.4617 27.8471 20.2366 27.9533 18.0001" stroke="white" stroke-width="1.6" stroke-linecap="round" stroke-linejoin="round"/>
<path d="M16 6C17.1046 6 18 5.10457 18 4C18 2.89543 17.1046 2 16 2C14.8954 2 14 2.89543 14 4C14 5.10457 14.8954 6 16 6Z" stroke="white" stroke-width="1.6" stroke-linecap="round" stroke-linejoin="round"/>
<path d="M4 18C5.10457 18 6 17.1046 6 16C6 14.8954 5.10457 14 4 14C2.89543 14 2 14.8954 2 16C2 17.1046 2.89543 18 4 18Z" stroke="white" stroke-width="1.6" stroke-linecap="round" stroke-linejoin="round"/>
<path d="M16 30C17.1046 30 18 29.1046 18 28C18 26.8954 17.1046 26 16 26C14.8954 26 14 26.8954 14 28C14 29.1046 14.8954 30 16 30Z" stroke="white" stroke-width="1.6" stroke-linecap="round" stroke-linejoin="round"/>
<path d="M28 18C29.1046 18 30 17.1046 30 16C30 14.8954 29.1046 14 28 14C26.8954 14 26 14.8954 26 16C26 17.1046 26.8954 18 28 18Z" stroke="white" stroke-width="1.6" stroke-linecap="round" stroke-linejoin="round"/>
<path d="M16.0001 11.1992L13.2593 15.0756C13.0684 15.3457 12.9658 15.6684 12.9658 15.9992C12.9658 16.33 13.0684 16.6527 13.2593 16.9228L16.0001 20.7992L18.7409 16.9228C18.9319 16.6527 19.0344 16.33 19.0344 15.9992C19.0344 15.6684 18.9319 15.3457 18.7409 15.0756L16.0001 11.1992Z" stroke="white" stroke-width="1.6" stroke-linecap="round" stroke-linejoin="round"/>
</svg>
