<svg width="48" height="48" viewBox="0 0 48 48" fill="none" xmlns="http://www.w3.org/2000/svg">
<g clip-path="url(#clip0_11939_3231)">
<path d="M41.35 10.5H6.65C4.63416 10.5 3 12.1342 3 14.15V35.35C3 37.3658 4.63416 39 6.65 39H41.35C43.3658 39 45 37.3658 45 35.35V14.15C45 12.1342 43.3658 10.5 41.35 10.5Z" fill="#78C927"/>
<path d="M37.4199 22.32C36.5762 21.4773 35.4324 21.004 34.2399 21.004C33.0474 21.004 31.9037 21.4773 31.0599 22.32L29.9999 23.38L28.9399 22.32C28.3108 21.6901 27.509 21.261 26.6359 21.0869C25.7629 20.9128 24.8578 21.0016 24.0352 21.342C23.2126 21.6824 22.5095 22.2592 22.0148 22.9994C21.52 23.7395 21.256 24.6097 21.256 25.5C21.256 26.3903 21.52 27.2605 22.0148 28.0007C22.5095 28.7408 23.2126 29.3176 24.0352 29.658C24.8578 29.9984 25.7629 30.0872 26.6359 29.9131C27.509 29.739 28.3108 29.3099 28.9399 28.68L29.9999 27.62L31.0599 28.68C31.913 29.4749 33.0413 29.9076 34.2071 29.8871C35.3729 29.8665 36.4852 29.3942 37.3097 28.5697C38.1341 27.7453 38.6064 26.6329 38.627 25.4671C38.6476 24.3013 38.2148 23.1731 37.4199 22.32ZM26.8199 26.56C26.5338 26.8315 26.1544 26.9829 25.7599 26.9829C25.3655 26.9829 24.9861 26.8315 24.6999 26.56C24.435 26.2757 24.2907 25.8996 24.2976 25.511C24.3044 25.1224 24.4619 24.7516 24.7367 24.4768C25.0115 24.2019 25.3823 24.0445 25.7709 24.0377C26.1595 24.0308 26.5356 24.175 26.8199 24.44L27.8799 25.5L26.8199 26.56ZM35.2999 26.56C35.0138 26.8315 34.6344 26.9829 34.2399 26.9829C33.8455 26.9829 33.4661 26.8315 33.1799 26.56L32.1199 25.5L33.1799 24.44C33.4661 24.1685 33.8455 24.0171 34.2399 24.0171C34.6344 24.0171 35.0138 24.1685 35.2999 24.44C35.5808 24.7213 35.7386 25.1025 35.7386 25.5C35.7386 25.8975 35.5808 26.2788 35.2999 26.56Z" fill="#FF5A2C"/>
<path d="M2.92004 24H44.92L45.08 18H3.08004L2.92004 24Z" fill="#FF5A2C"/>
<path d="M2.92004 22.5H44.92L45.08 16.5H3.08004L2.92004 22.5Z" fill="#3B6610"/>
<path d="M31.5 10.5H28.5V39H31.5V10.5Z" fill="white"/>
<path d="M31.5 16.5H28.5V22.5H31.5V16.5Z" fill="#7CBE39"/>
<path d="M26.8199 25.06C26.5338 25.3315 26.1544 25.4829 25.7599 25.4829C25.3655 25.4829 24.9861 25.3315 24.6999 25.06C24.435 24.7757 24.2907 24.3996 24.2976 24.011C24.3044 23.6224 24.4619 23.2516 24.7367 22.9768C25.0115 22.7019 25.3823 22.5445 25.7709 22.5377C26.1595 22.5308 26.5356 22.675 26.8199 22.94L27.8799 24L29.9999 21.88L28.9399 20.82C28.3108 20.1901 27.509 19.761 26.6359 19.5869C25.7629 19.4128 24.8578 19.5016 24.0352 19.842C23.2126 20.1824 22.5095 20.7592 22.0148 21.4994C21.52 22.2395 21.256 23.1097 21.256 24C21.256 24.8903 21.52 25.7605 22.0148 26.5007C22.5095 27.2408 23.2126 27.8176 24.0352 28.158C24.8578 28.4984 25.7629 28.5872 26.6359 28.4131C27.509 28.239 28.3108 27.8099 28.9399 27.18L29.9999 26.12L27.8799 24L26.8199 25.06Z" fill="white"/>
<path d="M37.42 20.8199C36.5762 19.9772 35.4325 19.5039 34.24 19.5039C33.0475 19.5039 31.9038 19.9772 31.06 20.8199L30 21.8799L32.12 23.9999L33.18 22.9399C33.4661 22.6684 33.8456 22.5171 34.24 22.5171C34.6345 22.5171 35.0139 22.6684 35.3 22.9399C35.5809 23.2212 35.7387 23.6024 35.7387 23.9999C35.7387 24.3974 35.5809 24.7787 35.3 25.0599C35.0139 25.3314 34.6345 25.4828 34.24 25.4828C33.8456 25.4828 33.4661 25.3314 33.18 25.0599L32.12 23.9999L30 26.1199L31.06 27.1799C31.913 27.9748 33.0413 28.4076 34.2071 28.387C35.3729 28.3664 36.4853 27.8942 37.3097 27.0697C38.1342 26.2452 38.6065 25.1329 38.627 23.9671C38.6476 22.8013 38.2149 21.673 37.42 20.8199Z" fill="white"/>
<path d="M32.12 24.0009L30 21.8809L27.88 24.0009L30 26.1209L32.12 24.0009Z" fill="url(#paint0_linear_11939_3231)"/>
<path d="M32.12 24.0009L30 21.8809L27.88 24.0009L30 26.1209L32.12 24.0009Z" fill="#7CBE39"/>
</g>
<defs>
<linearGradient id="paint0_linear_11939_3231" x1="21.92" y1="24.0009" x2="55.45" y2="24.0009" gradientUnits="userSpaceOnUse">
<stop stop-color="white"/>
<stop offset="0.52" stop-color="#CCE2E6"/>
<stop offset="1" stop-color="#8FA1BB"/>
</linearGradient>
<clipPath id="clip0_11939_3231">
<rect width="48" height="48" fill="white"/>
</clipPath>
</defs>
</svg>
