<svg width="32" height="32" viewBox="0 0 32 32" fill="none" xmlns="http://www.w3.org/2000/svg">
<path d="M16 2C17.0609 2 18.0783 2.42143 18.8284 3.17157C19.5786 3.92172 20 4.93913 20 6V14H12V6C12 4.93913 12.4214 3.92172 13.1716 3.17157C13.9217 2.42143 14.9391 2 16 2ZM22 14V6C22 4.4087 21.3679 2.88258 20.2426 1.75736C19.1174 0.632141 17.5913 0 16 0C14.4087 0 12.8826 0.632141 11.7574 1.75736C10.6321 2.88258 10 4.4087 10 6V14C8.93913 14 7.92172 14.4214 7.17157 15.1716C6.42143 15.9217 6 16.9391 6 18V28C6 29.0609 6.42143 30.0783 7.17157 30.8284C7.92172 31.5786 8.93913 32 10 32H22C23.0609 32 24.0783 31.5786 24.8284 30.8284C25.5786 30.0783 26 29.0609 26 28V18C26 16.9391 25.5786 15.9217 24.8284 15.1716C24.0783 14.4214 23.0609 14 22 14ZM10 16H22C22.5304 16 23.0391 16.2107 23.4142 16.5858C23.7893 16.9609 24 17.4696 24 18V28C24 28.5304 23.7893 29.0391 23.4142 29.4142C23.0391 29.7893 22.5304 30 22 30H10C9.46957 30 8.96086 29.7893 8.58579 29.4142C8.21071 29.0391 8 28.5304 8 28V18C8 17.4696 8.21071 16.9609 8.58579 16.5858C8.96086 16.2107 9.46957 16 10 16Z" fill="white"/>
</svg>
