<svg width="44" height="44" viewBox="0 0 44 44" fill="none" xmlns="http://www.w3.org/2000/svg">
<path d="M12.7599 34.7122C12.7599 29.8447 16.7062 25.8984 21.5737 25.8984C26.4412 25.8984 30.3874 29.8447 30.3874 34.7122" stroke="white" stroke-width="0.6875" stroke-miterlimit="10"/>
<path d="M21.5806 25.8984V34.3891" stroke="white" stroke-width="0.6875" stroke-miterlimit="10"/>
<path d="M25.8981 34.3891C25.8981 34.3891 25.8981 34.0316 25.8981 34.0109C25.8981 29.5284 23.9663 25.8984 21.5738 25.8984C19.1813 25.8984 17.2494 29.5284 17.2494 34.0109C17.2494 34.0316 17.2494 34.3684 17.2494 34.3891" stroke="white" stroke-width="0.6875" stroke-miterlimit="10"/>
<path d="M28.2906 28.9434C28.2906 28.9434 26.5787 31.5215 21.5806 31.5215C16.5825 31.5215 14.8706 28.9434 14.8706 28.9434" stroke="white" stroke-width="0.6875" stroke-miterlimit="10"/>
<path d="M11.4882 14.9746H7.78943C7.4113 14.9746 7.10193 15.284 7.10193 15.6621V19.3952" stroke="white" stroke-width="0.6875" stroke-miterlimit="10" stroke-linecap="round"/>
<path d="M7.10193 34.5559V19.3965" stroke="white" stroke-width="0.6875" stroke-miterlimit="10" stroke-linecap="round"/>
<path d="M35.6262 34.5477V15.6621C35.6262 15.284 35.3169 14.9746 34.9387 14.9746H31.8381M20.1025 34.5546H4.25562C4.25562 35.1802 4.50999 35.744 4.91562 36.1565C5.32812 36.5621 5.89186 36.8165 6.51749 36.8165H20.1025H36.4719C37.0975 36.8165 37.6612 36.5621 38.0737 36.1565C38.4794 35.744 38.7337 35.1802 38.7337 34.5546H20.1025Z" stroke="white" stroke-width="0.6875" stroke-miterlimit="10" stroke-linecap="round"/>
<path d="M31.8313 28.7313V9.34375H11.4882V28.7313" stroke="white" stroke-width="0.6875" stroke-miterlimit="10" stroke-linecap="round"/>
<path d="M11.6738 12.1211H31.8451" stroke="white" stroke-width="0.6875" stroke-miterlimit="10" stroke-linecap="round"/>
<path d="M13.8394 11.3048C14.128 11.3048 14.3619 11.0708 14.3619 10.7823C14.3619 10.4937 14.128 10.2598 13.8394 10.2598C13.5508 10.2598 13.3169 10.4937 13.3169 10.7823C13.3169 11.0708 13.5508 11.3048 13.8394 11.3048Z" fill="white"/>
<path d="M16.0945 11.3048C16.383 11.3048 16.617 11.0708 16.617 10.7823C16.617 10.4937 16.383 10.2598 16.0945 10.2598C15.8059 10.2598 15.572 10.4937 15.572 10.7823C15.572 11.0708 15.8059 11.3048 16.0945 11.3048Z" fill="white"/>
<path d="M18.3425 11.3048C18.6311 11.3048 18.865 11.0708 18.865 10.7823C18.865 10.4937 18.6311 10.2598 18.3425 10.2598C18.0539 10.2598 17.82 10.4937 17.82 10.7823C17.82 11.0708 18.0539 11.3048 18.3425 11.3048Z" fill="white"/>
<path d="M29.3356 14.6309H13.8463V19.794H29.3356V14.6309Z" stroke="white" stroke-width="0.6875" stroke-miterlimit="10"/>
<path d="M13.8463 21.541H29.3288" stroke="white" stroke-width="0.6875" stroke-linecap="square" stroke-linejoin="bevel"/>
<path d="M13.8463 23.2168H24.09" stroke="white" stroke-width="0.6875" stroke-linecap="square" stroke-linejoin="bevel"/>
<path d="M16.3005 18.5001L15.5374 16.0801H16.1562L16.6099 17.6682L17.0293 16.0801H17.648L18.0537 17.6682L18.5143 16.0801H19.1468L18.3699 18.5001H17.758L17.3387 16.9463L16.9262 18.5001H16.3074H16.3005ZM20.4874 18.5001L19.7243 16.0801H20.343L20.7968 17.6682L21.2162 16.0801H21.8349L22.2405 17.6682L22.7012 16.0801H23.3337L22.5568 18.5001H21.9449L21.5255 16.9463L21.113 18.5001H20.4943H20.4874ZM24.6743 18.5001L23.9112 16.0801H24.5299L24.9837 17.6682L25.403 16.0801H26.0218L26.4274 17.6682L26.888 16.0801H27.5205L26.7437 18.5001H26.1318L25.7124 16.9463L25.2999 18.5001H24.6812H24.6743Z" fill="white"/>
</svg>
