<svg width="44" height="44" viewBox="0 0 44 44" fill="none" xmlns="http://www.w3.org/2000/svg">
<path d="M29.5282 34.6141H38.5619C38.94 34.6141 39.2494 34.3047 39.2494 33.9266V8.86719C39.2494 8.48906 38.94 8.17969 38.5619 8.17969H9.12317C8.74504 8.17969 8.43567 8.48906 8.43567 8.86719V33.9266C8.43567 34.3047 8.74504 34.6141 9.12317 34.6141H19.2157" stroke="white" stroke-width="0.6875" stroke-miterlimit="10" stroke-linecap="round"/>
<path d="M35.5644 8.18008V5.87695C35.5644 5.49883 35.255 5.18945 34.8769 5.18945H5.43127C5.05315 5.18945 4.74377 5.49883 4.74377 5.87695V30.9363C4.74377 31.3145 5.05315 31.6238 5.43127 31.6238H8.42877" stroke="white" stroke-width="0.6875" stroke-miterlimit="10" stroke-linecap="round"/>
<path d="M8.76562 11.6172H39.2562" stroke="white" stroke-width="0.6875" stroke-miterlimit="10" stroke-linecap="round"/>
<path d="M26.2478 38.4076C28.8267 37.3214 30.0368 34.3502 28.9506 31.7712C27.8644 29.1923 24.8932 27.9822 22.3142 29.0684C19.7353 30.1546 18.5252 33.1258 19.6114 35.7047C20.6976 38.2837 23.6688 39.4938 26.2478 38.4076Z" stroke="white" stroke-width="0.6875" stroke-miterlimit="10" stroke-linecap="round"/>
<path d="M24.2825 31.1836V36.1473" stroke="white" stroke-width="0.6875" stroke-miterlimit="10" stroke-linecap="round"/>
<path d="M26.7644 33.6641H21.8007" stroke="white" stroke-width="0.6875" stroke-miterlimit="10" stroke-linecap="round"/>
<path d="M15.3588 17.8728L16.6925 16.2434C17.1806 15.6453 18.0606 15.5559 18.6588 16.0509L19.1263 16.4359C19.7244 16.9241 19.8138 17.8041 19.3188 18.4022L17.0019 21.2278C16.5138 21.8259 15.6338 21.9153 15.0356 21.4203L14.8225 21.2484" stroke="white" stroke-width="0.6875" stroke-linecap="square" stroke-linejoin="round"/>
<path d="M15.3175 23.2996L13.9838 24.929C13.4956 25.5271 12.6156 25.6165 12.0175 25.1215L11.55 24.7365C10.9519 24.2484 10.8625 23.3684 11.3575 22.7702L13.6744 19.9446C14.1625 19.3465 15.0425 19.2571 15.6406 19.7521L15.8538 19.924" stroke="white" stroke-width="0.6875" stroke-linecap="square" stroke-linejoin="round"/>
<path d="M24.1313 17.1465H35.255" stroke="white" stroke-width="0.6875" stroke-linejoin="round"/>
<path d="M21.9244 20.0176H35.2551" stroke="white" stroke-width="0.6875" stroke-linejoin="round"/>
<path d="M18.7756 22.8926H35.255" stroke="white" stroke-width="0.6875" stroke-linejoin="round"/>
<path d="M16.4037 25.7578H35.255" stroke="white" stroke-width="0.6875" stroke-linejoin="round"/>
<path d="M11.3644 10.6146C11.7137 10.6146 11.9969 10.3314 11.9969 9.98211C11.9969 9.63279 11.7137 9.34961 11.3644 9.34961C11.0151 9.34961 10.7319 9.63279 10.7319 9.98211C10.7319 10.3314 11.0151 10.6146 11.3644 10.6146Z" fill="white"/>
<path d="M14.0594 10.6146C14.4087 10.6146 14.6919 10.3314 14.6919 9.98211C14.6919 9.63279 14.4087 9.34961 14.0594 9.34961C13.7101 9.34961 13.4269 9.63279 13.4269 9.98211C13.4269 10.3314 13.7101 10.6146 14.0594 10.6146Z" fill="white"/>
<path d="M16.7613 10.6146C17.1106 10.6146 17.3938 10.3314 17.3938 9.98211C17.3938 9.63279 17.1106 9.34961 16.7613 9.34961C16.412 9.34961 16.1288 9.63279 16.1288 9.98211C16.1288 10.3314 16.412 10.6146 16.7613 10.6146Z" fill="white"/>
</svg>
