<svg width="33" height="32" viewBox="0 0 33 32" fill="none" xmlns="http://www.w3.org/2000/svg">
<g clip-path="url(#clip0_11720_13304)">
<path d="M16.5 30C12.787 30 9.22601 28.525 6.6005 25.8995C3.975 23.274 2.5 19.713 2.5 16C2.5 12.287 3.975 8.72601 6.6005 6.1005C9.22601 3.475 12.787 2 16.5 2C20.213 2 23.774 3.475 26.3995 6.1005C29.025 8.72601 30.5 12.287 30.5 16C30.5 19.713 29.025 23.274 26.3995 25.8995C23.774 28.525 20.213 30 16.5 30ZM16.5 32C20.7435 32 24.8131 30.3143 27.8137 27.3137C30.8143 24.3131 32.5 20.2435 32.5 16C32.5 11.7565 30.8143 7.68687 27.8137 4.68629C24.8131 1.68571 20.7435 0 16.5 0C12.2565 0 8.18687 1.68571 5.18629 4.68629C2.18571 7.68687 0.5 11.7565 0.5 16C0.5 20.2435 2.18571 24.3131 5.18629 27.3137C8.18687 30.3143 12.2565 32 16.5 32Z" fill="white"/>
<path d="M11.0099 11.572C11.0072 11.6366 11.0177 11.7011 11.0408 11.7614C11.0639 11.8218 11.0991 11.8768 11.1443 11.9231C11.1894 11.9694 11.2435 12.0059 11.3033 12.0305C11.3631 12.0551 11.4273 12.0671 11.4919 12.066H13.1419C13.4179 12.066 13.6379 11.84 13.6739 11.566C13.8539 10.254 14.7539 9.298 16.3579 9.298C17.7299 9.298 18.9859 9.984 18.9859 11.634C18.9859 12.904 18.2379 13.488 17.0559 14.376C15.7099 15.354 14.6439 16.496 14.7199 18.35L14.7259 18.784C14.728 18.9152 14.7817 19.0403 14.8752 19.1324C14.9687 19.2244 15.0947 19.276 15.2259 19.276H16.8479C16.9806 19.276 17.1077 19.2233 17.2015 19.1296C17.2953 19.0358 17.3479 18.9086 17.3479 18.776V18.566C17.3479 17.13 17.8939 16.712 19.3679 15.594C20.5859 14.668 21.8559 13.64 21.8559 11.482C21.8559 8.46 19.3039 7 16.5099 7C13.9759 7 11.1999 8.18 11.0099 11.572ZM14.1239 23.098C14.1239 24.164 14.9739 24.952 16.1439 24.952C17.3619 24.952 18.1999 24.164 18.1999 23.098C18.1999 21.994 17.3599 21.218 16.1419 21.218C14.9739 21.218 14.1239 21.994 14.1239 23.098Z" fill="white"/>
</g>
<defs>
<clipPath id="clip0_11720_13304">
<rect width="32" height="32" fill="white" transform="translate(0.5)"/>
</clipPath>
</defs>
</svg>
