<svg width="56" height="56" viewBox="0 0 56 56" fill="none" xmlns="http://www.w3.org/2000/svg">
<path d="M37.3406 42.5077V44.797C37.3406 46.3468 36.0872 47.6002 34.5373 47.6002H16.4697C14.9198 47.6002 13.6664 46.3468 13.6664 44.797V7.55914C13.6664 6.01367 14.9198 4.75586 16.4697 4.75586H34.5373C36.0872 4.75586 37.3406 6.01367 37.3406 7.55914V42.5088V42.5077Z" fill="white"/>
<path opacity="0.12" d="M33.3375 15.459H18.3159C17.8713 15.459 17.5109 15.8194 17.5109 16.264V18.6779C17.5109 19.1225 17.8713 19.4829 18.3159 19.4829H33.3375C33.7821 19.4829 34.1425 19.1225 34.1425 18.6779V16.264C34.1425 15.8194 33.7821 15.459 33.3375 15.459Z" fill="black"/>
<path opacity="0.12" d="M32.69 34.1621H17.6684C17.2238 34.1621 16.8634 34.5225 16.8634 34.9671V37.381C16.8634 37.8256 17.2238 38.186 17.6684 38.186H32.69C33.1346 38.186 33.495 37.8256 33.495 37.381V34.9671C33.495 34.5225 33.1346 34.1621 32.69 34.1621Z" fill="black"/>
<path d="M37.3406 42.5077V44.797C37.3406 46.3468 36.0872 47.6002 34.5373 47.6002H16.4697C14.9198 47.6002 13.6664 46.3468 13.6664 44.797V7.55914C13.6664 6.01367 14.9198 4.75586 16.4697 4.75586H34.5373C36.0872 4.75586 37.3406 6.01367 37.3406 7.55914V42.5088V42.5077Z" stroke="#1656A2" stroke-width="0.65625" stroke-miterlimit="10" stroke-linecap="round"/>
<path d="M22.727 7.93359H27.7353" stroke="#1656A2" stroke-width="0.65625" stroke-miterlimit="10" stroke-linecap="round"/>
<path d="M21.7121 45.2637H28.7537" stroke="#1656A2" stroke-width="0.65625" stroke-miterlimit="10" stroke-linecap="round"/>
<path opacity="0.12" d="M33.6732 33.3024L29.6045 36.4393C29.436 36.5684 29.1976 36.424 29.2348 36.2151L29.8604 32.6823H17.5273C16.7846 32.6823 16.1765 32.0741 16.1765 31.3315V23.427C16.1765 22.6843 16.7846 22.0762 17.5273 22.0762H45.1204C45.8685 22.0762 46.4712 22.6832 46.4712 23.427V31.3315C46.4712 32.0752 45.8685 32.6823 45.1204 32.6823H34.4793L33.6732 33.3024Z" fill="black"/>
<path d="M35.2231 31.9732L30.6797 35.4765L31.4103 31.3541H19.0772C18.3334 31.3541 17.7264 30.7471 17.7264 30.0034V22.0988C17.7264 21.3551 18.3334 20.748 19.0772 20.748H46.6703C47.4184 20.748 48.0211 21.3551 48.0211 22.0988V30.0034C48.0211 30.7471 47.4184 31.3541 46.6703 31.3541H36.0292L35.2231 31.9743V31.9732Z" fill="#1656A2"/>
<path d="M35.2231 31.9732L30.6797 35.4765L31.4103 31.3541H19.0772C18.3334 31.3541 17.7264 30.7471 17.7264 30.0034V22.0988C17.7264 21.3551 18.3334 20.748 19.0772 20.748H46.6703C47.4184 20.748 48.0211 21.3551 48.0211 22.0988V30.0034C48.0211 30.7471 47.4184 31.3541 46.6703 31.3541H36.0292L35.2231 31.9743V31.9732Z" stroke="#1656A2" stroke-width="0.65625" stroke-miterlimit="10" stroke-linecap="round"/>
<path d="M25.2525 24.8867H21.5556C21.2639 24.8867 21.0273 25.1232 21.0273 25.415V28.5836C21.0273 28.8754 21.2639 29.1119 21.5556 29.1119H25.2525C25.5443 29.1119 25.7808 28.8754 25.7808 28.5836V25.415C25.7808 25.1232 25.5443 24.8867 25.2525 24.8867Z" fill="white"/>
<path d="M25.3367 25.349H24.4508V24.5298C24.4508 24.0966 24.0767 23.7434 23.6152 23.7434H23.1897C22.7292 23.7434 22.3552 24.0966 22.3552 24.5298V25.349H21.4692V24.5298C21.4692 23.6077 22.2414 22.8574 23.1897 22.8574H23.6152C24.5635 22.8574 25.3356 23.6077 25.3356 24.5298V25.349H25.3367Z" fill="white"/>
<path d="M23.953 26.4759C23.953 26.1719 23.7069 25.9258 23.4029 25.9258C23.0988 25.9258 22.8527 26.1719 22.8527 26.4759C22.8527 26.7012 22.9883 26.8938 23.1808 26.9791V28.0608H23.6238V26.9791C23.8174 26.8938 23.9519 26.7012 23.9519 26.4759H23.953Z" fill="#1656A2"/>
<path d="M29.6516 27.2038L29.0851 26.3682L28.5076 27.2038L27.8612 26.727L28.4977 25.9701L27.5921 25.7721L27.8305 24.9857L28.7165 25.3138L28.6771 24.4082H29.4832L29.4033 25.3237L30.3484 24.9857L30.5682 25.7721L29.6418 25.9701L30.2991 26.727L29.6516 27.2038Z" fill="white"/>
<path d="M33.3232 27.2038L32.7566 26.3682L32.1791 27.2038L31.5327 26.727L32.1693 25.9701L31.2637 25.7721L31.5021 24.9857L32.388 25.3138L32.3487 24.4082H33.1548L33.0749 25.3237L34.0199 24.9857L34.2387 25.7721L33.3134 25.9701L33.9707 26.727L33.3232 27.2038Z" fill="white"/>
<path d="M36.995 27.2038L36.4285 26.3682L35.851 27.2038L35.2045 26.727L35.8411 25.9701L34.9355 25.7721L35.1739 24.9857L36.0599 25.3138L36.0205 24.4082H36.8255L36.7467 25.3237L37.6917 24.9857L37.9105 25.7721L36.9852 25.9701L37.6425 26.727L36.995 27.2038Z" fill="white"/>
<path d="M40.6666 27.2038L40.099 26.3682L39.5226 27.2038L38.8751 26.727L39.5127 25.9701L38.6071 25.7721L38.8456 24.9857L39.7315 25.3138L39.691 24.4082H40.4971L40.4184 25.3237L41.3634 24.9857L41.5821 25.7721L40.6568 25.9701L41.3131 26.727L40.6666 27.2038Z" fill="white"/>
<path d="M44.3385 27.2038L43.7708 26.3682L43.1944 27.2038L42.5469 26.727L43.1846 25.9701L42.2789 25.7721L42.5174 24.9857L43.4033 25.3138L43.3628 24.4082H44.1689L44.0891 25.3237L45.0352 24.9857L45.2539 25.7721L44.3286 25.9701L44.9849 26.727L44.3385 27.2038Z" fill="white"/>
</svg>
