<svg width="33" height="33" viewBox="0 0 33 33" fill="none" xmlns="http://www.w3.org/2000/svg">
<g opacity="0.9" clip-path="url(#clip0_11931_4100)">
<path d="M26.3545 28.7773H3.68778C3.31978 28.7773 3.02112 28.4793 3.02112 28.1107V15.444C3.02112 13.9733 4.21712 12.7773 5.68778 12.7773H18.0411C18.2398 12.7773 18.4278 12.866 18.5551 13.0187C18.7491 13.2533 18.9331 13.4513 19.1178 13.6247C20.1918 14.6433 21.5998 15.278 23.0818 15.414C24.0998 15.506 25.1631 15.3647 26.1098 14.9907C26.3145 14.9087 26.5471 14.9353 26.7298 15.0593C26.9118 15.1833 27.0211 15.39 27.0211 15.6107V28.1107C27.0211 28.4793 26.7231 28.7773 26.3545 28.7773ZM4.35445 27.444H25.6878V16.5273C24.8111 16.754 23.8678 16.824 22.9611 16.742C21.1805 16.5787 19.4911 15.8167 18.2018 14.5947C18.0471 14.4487 17.8918 14.2887 17.7345 14.1107H5.68778C4.95245 14.1107 4.35445 14.7087 4.35445 15.444V27.444Z" fill="white"/>
<path d="M28.3545 27.4427H1.68778C1.31978 27.4427 1.02112 27.7407 1.02112 28.1094C1.02112 30.682 3.11445 32.776 5.68779 32.776H24.3545C26.9271 32.776 29.0211 30.682 29.0211 28.1094C29.0211 27.7407 28.7231 27.4427 28.3545 27.4427ZM21.6878 18.1094H8.35445C7.61912 18.1094 7.02112 18.7074 7.02112 19.4427V24.776C7.02112 25.5114 7.61912 26.1094 8.35445 26.1094H21.6878C22.4231 26.1094 23.0211 25.5114 23.0211 24.776V19.4427C23.0211 18.7074 22.4231 18.1094 21.6878 18.1094ZM12.1591 22.3047C12.4198 22.5654 12.4198 22.9867 12.1591 23.2474C12.0291 23.3774 11.8585 23.4427 11.6878 23.4427C11.5171 23.4427 11.3465 23.3774 11.2165 23.2474L11.0211 23.052L10.8258 23.2474C10.6958 23.3774 10.5251 23.4427 10.3545 23.4427C10.1838 23.4427 10.0131 23.3774 9.88312 23.2474C9.62245 22.9867 9.62245 22.5654 9.88312 22.3047L10.0785 22.1094L9.88312 21.914C9.62245 21.6534 9.62245 21.232 9.88312 20.9714C10.1438 20.7107 10.5651 20.7107 10.8258 20.9714L11.0211 21.1667L11.2165 20.9714C11.4771 20.7107 11.8985 20.7107 12.1591 20.9714C12.4198 21.232 12.4198 21.6534 12.1591 21.914L11.9638 22.1094L12.1591 22.3047ZM16.1591 22.3047C16.4198 22.5654 16.4198 22.9867 16.1591 23.2474C16.0291 23.3774 15.8585 23.4427 15.6878 23.4427C15.5171 23.4427 15.3465 23.3774 15.2165 23.2474L15.0211 23.052L14.8258 23.2474C14.6958 23.3774 14.5251 23.4427 14.3545 23.4427C14.1838 23.4427 14.0131 23.3774 13.8831 23.2474C13.6225 22.9867 13.6225 22.5654 13.8831 22.3047L14.0785 22.1094L13.8831 21.914C13.6225 21.6534 13.6225 21.232 13.8831 20.9714C14.1438 20.7107 14.5651 20.7107 14.8258 20.9714L15.0211 21.1667L15.2165 20.9714C15.4771 20.7107 15.8985 20.7107 16.1591 20.9714C16.4198 21.232 16.4198 21.6534 16.1591 21.914L15.9638 22.1094L16.1591 22.3047ZM20.1591 22.3047C20.4198 22.5654 20.4198 22.9867 20.1591 23.2474C20.0291 23.3774 19.8585 23.4427 19.6878 23.4427C19.5171 23.4427 19.3465 23.3774 19.2165 23.2474L19.0211 23.052L18.8258 23.2474C18.6958 23.3774 18.5251 23.4427 18.3545 23.4427C18.1838 23.4427 18.0131 23.3774 17.8831 23.2474C17.6225 22.9867 17.6225 22.5654 17.8831 22.3047L18.0785 22.1094L17.8831 21.914C17.6225 21.6534 17.6225 21.232 17.8831 20.9714C18.1438 20.7107 18.5651 20.7107 18.8258 20.9714L19.0211 21.1667L19.2165 20.9714C19.4771 20.7107 19.8985 20.7107 20.1591 20.9714C20.4198 21.232 20.4198 21.6534 20.1591 21.914L19.9638 22.1094L20.1591 22.3047Z" fill="white"/>
<path d="M23.6878 6.11068C24.056 6.11068 24.3545 5.8122 24.3545 5.44401C24.3545 5.07582 24.056 4.77734 23.6878 4.77734C23.3196 4.77734 23.0211 5.07582 23.0211 5.44401C23.0211 5.8122 23.3196 6.11068 23.6878 6.11068Z" fill="white"/>
<path d="M23.6877 0.777344C23.4411 0.777344 23.2011 0.791344 22.9617 0.813344C18.8144 1.18268 15.6877 4.60668 15.6877 8.77734C15.6877 10.634 16.3411 12.4427 17.5277 13.8693C17.7584 14.1473 17.9797 14.3847 18.2024 14.594C19.4917 15.816 21.1811 16.578 22.9617 16.7413C23.2011 16.7633 23.4411 16.7773 23.6877 16.7773C24.7017 16.7773 25.6817 16.5933 26.5917 16.2333C27.0004 16.0773 27.3924 15.8873 27.7524 15.6713C30.1797 14.2407 31.6877 11.5987 31.6877 8.77734C31.6877 4.36601 28.0991 0.777344 23.6877 0.777344ZM26.3131 11.922C26.1244 12.9967 25.2417 13.88 24.1657 14.0687C24.0084 14.0967 23.8491 14.11 23.6924 14.11C23.0657 14.11 22.4571 13.8933 21.9737 13.4867C21.3684 12.9787 21.0211 12.234 21.0211 11.444C21.0211 11.076 21.3191 10.7773 21.6877 10.7773C22.0564 10.7773 22.3544 11.076 22.3544 11.444C22.3544 11.8387 22.5284 12.2113 22.8311 12.466C23.1377 12.724 23.5284 12.826 23.9351 12.756C24.4591 12.664 24.9071 12.216 24.9991 11.692C25.1104 11.0613 24.7804 10.4533 24.1971 10.212C23.4824 9.91601 23.0211 9.20134 23.0211 8.39068V7.32134C22.2471 7.04534 21.6877 6.31201 21.6877 5.44401C21.6877 4.34134 22.5851 3.44401 23.6877 3.44401C24.7904 3.44401 25.6877 4.34134 25.6877 5.44401C25.6877 6.31201 25.1284 7.04534 24.3544 7.32134V8.39134C24.3544 8.65601 24.4957 8.89201 24.7057 8.97934C25.8717 9.46068 26.5324 10.6713 26.3131 11.922Z" fill="white"/>
</g>
<defs>
<clipPath id="clip0_11931_4100">
<rect width="32" height="32" fill="white" transform="translate(0.354492 0.777344)"/>
</clipPath>
</defs>
</svg>
