<svg width="32" height="32" viewBox="0 0 32 32" fill="none" xmlns="http://www.w3.org/2000/svg">
<path d="M26 11.396C25.4363 11.8092 24.8302 12.1612 24.192 12.446C22.044 13.422 19.146 14 16 14C12.854 14 9.956 13.422 7.808 12.446C7.16975 12.1612 6.56367 11.8092 6 11.396V14C6 14.748 6.712 15.75 8.636 16.626C10.468 17.458 13.072 18 16 18C17.332 18 18.596 17.888 19.752 17.688C18.892 18.308 18.144 19.074 17.548 19.952C17.0326 19.9842 16.5164 20.0002 16 20C12.854 20 9.956 19.422 7.808 18.446C7.16975 18.1612 6.56367 17.8092 6 17.396V20C6 20.748 6.712 21.75 8.636 22.626C10.468 23.458 13.072 24 16 24H16.054C15.9957 24.5313 15.9843 25.0667 16.02 25.6C16.0063 25.7329 15.9996 25.8664 16 26C12.854 26 9.956 25.422 7.808 24.446C7.16973 24.1613 6.56363 23.8093 6 23.396V26C6 26.748 6.712 27.75 8.636 28.626C10.468 29.458 13.072 30 16 30C16 30.726 16.194 31.408 16.532 31.994C16.356 32 16.178 32 16 32C12.854 32 9.956 31.422 7.808 30.446C5.75 29.51 4 28.014 4 26V8C4 5.986 5.75 4.49 7.808 3.554C9.956 2.578 12.854 2 16 2C19.146 2 22.044 2.578 24.192 3.554C26.25 4.49 28 5.986 28 8V16.512C26.8759 16.1151 25.6841 15.9458 24.494 16.014C25.574 15.308 26 14.578 26 14V11.396ZM8.636 5.376C6.712 6.248 6 7.25 6 8C6 8.748 6.712 9.75 8.636 10.626C10.468 11.458 13.072 12 16 12C18.928 12 21.532 11.46 23.364 10.626C25.288 9.75 26 8.746 26 8C26 7.252 25.288 6.25 23.364 5.374C21.532 4.542 18.928 4 16 4C13.072 4 10.468 4.542 8.636 5.376Z" fill="white"/>
<path d="M18 26C18 25.4696 18.2107 24.9609 18.5858 24.5858C18.9609 24.2107 19.4696 24 20 24V22C20 20.9391 20.4214 19.9217 21.1716 19.1716C21.9217 18.4214 22.9391 18 24 18C25.0609 18 26.0783 18.4214 26.8284 19.1716C27.5786 19.9217 28 20.9391 28 22V24C28.5304 24 29.0391 24.2107 29.4142 24.5858C29.7893 24.9609 30 25.4696 30 26V30C30 30.5304 29.7893 31.0391 29.4142 31.4142C29.0391 31.7893 28.5304 32 28 32H20C19.4696 32 18.9609 31.7893 18.5858 31.4142C18.2107 31.0391 18 30.5304 18 30V26ZM24 20C23.4696 20 22.9609 20.2107 22.5858 20.5858C22.2107 20.9609 22 21.4696 22 22V24H26V22C26 21.4696 25.7893 20.9609 25.4142 20.5858C25.0391 20.2107 24.5304 20 24 20Z" fill="white"/>
</svg>
