<svg width="42" height="42" viewBox="0 0 42 42" fill="none" xmlns="http://www.w3.org/2000/svg">
<path d="M36.8551 33.1438L29.3826 25.6713C29.1648 25.4646 28.8974 25.3173 28.6063 25.2438C28.3151 25.1702 28.0099 25.1728 27.7201 25.2513L25.4451 22.9588L26.0576 22.3463C27.6864 19.8027 28.3181 16.747 27.8313 13.766C27.3446 10.785 25.7736 8.08898 23.4202 6.19565C21.0668 4.30231 18.0969 3.34518 15.0808 3.50807C12.0648 3.67097 9.2152 4.9424 7.07941 7.07819C4.94362 9.21398 3.67219 12.0635 3.50929 15.0796C3.3464 18.0957 4.30353 21.0656 6.19687 23.419C8.09021 25.7724 10.7863 27.3433 13.7672 27.8301C16.7482 28.3169 19.8039 27.6852 22.3476 26.0563L22.9601 25.4438L25.2526 27.7188C25.174 28.0087 25.1714 28.3139 25.245 28.6051C25.3186 28.8962 25.4658 29.1636 25.6726 29.3813L33.1451 36.8538C33.473 37.1798 33.9165 37.3627 34.3788 37.3627C34.8411 37.3627 35.2847 37.1798 35.6126 36.8538L36.8551 35.6113C37.181 35.2835 37.364 34.8399 37.364 34.3776C37.364 33.9153 37.181 33.4717 36.8551 33.1438ZM15.7501 12.2488C15.2859 12.2488 14.8408 12.0645 14.5126 11.7363C14.1844 11.4081 14.0001 10.963 14.0001 10.4988C14.0001 10.0347 14.1844 9.5896 14.5126 9.26141C14.8408 8.93322 15.2859 8.74885 15.7501 8.74885C17.6066 8.74885 19.3871 9.48635 20.6998 10.7991C22.0126 12.1119 22.7501 13.8923 22.7501 15.7488C22.7501 16.213 22.5657 16.6581 22.2375 16.9863C21.9093 17.3145 21.4642 17.4988 21.0001 17.4988C20.5359 17.4988 20.0908 17.3145 19.7626 16.9863C19.4344 16.6581 19.2501 16.213 19.2501 15.7488C19.2501 14.8206 18.8813 13.9304 18.2249 13.274C17.5686 12.6176 16.6783 12.2488 15.7501 12.2488Z" fill="white"/>
</svg>
