<svg width="32" height="32" viewBox="0 0 32 32" fill="none" xmlns="http://www.w3.org/2000/svg">
<g clip-path="url(#clip0_11720_13278)">
<path d="M16 8.286C16.5683 8.286 17.1134 8.06022 17.5153 7.65833C17.9172 7.25644 18.143 6.71136 18.143 6.143C18.143 5.57464 17.9172 5.02956 17.5153 4.62767C17.1134 4.22578 16.5683 4 16 4C15.4316 4 14.8865 4.22578 14.4846 4.62767C14.0828 5.02956 13.857 5.57464 13.857 6.143C13.857 6.71136 14.0828 7.25644 14.4846 7.65833C14.8865 8.06022 15.4316 8.286 16 8.286ZM6.66397 11.226L13.144 11.858V16.858L12.498 26.028C12.4871 26.2165 12.5462 26.4023 12.6639 26.5499C12.7817 26.6975 12.9498 26.7964 13.136 26.8276C13.3221 26.8589 13.5133 26.8203 13.6728 26.7192C13.8322 26.6181 13.9488 26.4617 14 26.28L15.652 18.246C15.742 17.886 16.254 17.886 16.344 18.246L18 26.278C18.0494 26.4616 18.1653 26.6203 18.3253 26.7232C18.4852 26.8261 18.6777 26.8658 18.8653 26.8346C19.0529 26.8035 19.2222 26.7036 19.3402 26.5545C19.4583 26.4054 19.5166 26.2177 19.504 26.028L18.86 16.86V11.86L25.338 11.228C25.5268 11.2006 25.6985 11.1032 25.8188 10.9552C25.9391 10.8071 25.9994 10.6191 25.9875 10.4287C25.9757 10.2382 25.8926 10.0592 25.7549 9.92718C25.6171 9.79514 25.4347 9.71976 25.244 9.716H6.75797C6.56719 9.71976 6.38481 9.79514 6.24705 9.92718C6.10929 10.0592 6.02624 10.2382 6.0144 10.4287C6.00256 10.6191 6.0628 10.8071 6.18314 10.9552C6.30348 11.1032 6.47513 11.1986 6.66397 11.226Z" fill="white"/>
<path d="M16 0C11.7565 0 7.68687 1.68571 4.68629 4.68629C1.68571 7.68687 0 11.7565 0 16C0 20.2435 1.68571 24.3131 4.68629 27.3137C7.68687 30.3143 11.7565 32 16 32C20.2435 32 24.3131 30.3143 27.3137 27.3137C30.3143 24.3131 32 20.2435 32 16C32 11.7565 30.3143 7.68687 27.3137 4.68629C24.3131 1.68571 20.2435 0 16 0ZM2 16C2 12.287 3.475 8.72601 6.1005 6.1005C8.72601 3.475 12.287 2 16 2C19.713 2 23.274 3.475 25.8995 6.1005C28.525 8.72601 30 12.287 30 16C30 19.713 28.525 23.274 25.8995 25.8995C23.274 28.525 19.713 30 16 30C12.287 30 8.72601 28.525 6.1005 25.8995C3.475 23.274 2 19.713 2 16Z" fill="white"/>
</g>
<defs>
<clipPath id="clip0_11720_13278">
<rect width="32" height="32" fill="white"/>
</clipPath>
</defs>
</svg>
