<svg width="42" height="42" viewBox="0 0 42 42" fill="none" xmlns="http://www.w3.org/2000/svg">
<path d="M35.4427 28.6973H6.55782C6.22083 28.6973 5.95605 28.968 5.95605 29.299V35.4425C5.95605 35.7734 6.22083 36.0443 6.55782 36.0443H35.4427C35.7743 36.0443 36.0445 35.7734 36.0445 35.4425V29.299C36.0445 28.968 35.7743 28.6973 35.4427 28.6973ZM10.769 33.574C10.1047 33.574 9.56549 33.0348 9.56549 32.3704C9.56549 31.7061 10.1047 31.1669 10.769 31.1669C11.4333 31.1669 11.9726 31.7061 11.9726 32.3704C11.9726 33.0348 11.4333 33.574 10.769 33.574ZM15.7589 33.574C15.0939 33.574 14.5554 33.0348 14.5554 32.3704C14.5554 31.7061 15.0939 31.1669 15.7589 31.1669C16.4232 31.1669 16.9624 31.7061 16.9624 32.3704C16.9624 33.0348 16.4232 33.574 15.7589 33.574ZM32.4327 32.9722H20.7674C20.4352 32.9722 20.1656 32.7026 20.1656 32.3704C20.1656 32.0383 20.4352 31.7687 20.7674 31.7687H32.4327C32.7655 31.7687 33.0345 32.0383 33.0345 32.3704C33.0345 32.7026 32.7655 32.9722 32.4327 32.9722Z" fill="white"/>
<path d="M32.3856 12.743H31.5071V10.4443C31.5071 7.97099 29.4911 5.95508 27.0179 5.95508C24.5386 5.95508 22.5287 7.97099 22.5287 10.4443V12.743H21.6501C21.3191 12.743 21.0483 13.0138 21.0483 13.3448V20.2471C21.0483 20.5781 21.3191 20.8489 21.6501 20.8489H32.3856C32.7172 20.8489 32.9874 20.5781 32.9874 20.2471V13.3448C32.9874 13.0138 32.7172 12.743 32.3856 12.743ZM23.7322 10.4443C23.7322 8.63296 25.2065 7.15862 27.0179 7.15862C28.8298 7.15862 30.3035 8.63296 30.3035 10.4443V12.743H23.7322V10.4443Z" fill="white"/>
<path d="M35.4427 20.2734H34.191C34.179 21.2543 33.3732 22.0547 32.3857 22.0547H21.6502C20.6633 22.0547 19.8575 21.2543 19.8449 20.2734H6.55782C6.2208 20.2734 5.95605 20.5442 5.95605 20.8752V27.0193C5.95605 27.3502 6.2208 27.621 6.55782 27.621H35.4427C35.7743 27.621 36.0445 27.3502 36.0445 27.0193V20.8752C36.0445 20.5442 35.7743 20.2734 35.4427 20.2734ZM10.7702 25.1478C10.1028 25.1478 9.56667 24.6122 9.56667 23.9442C9.56667 23.2823 10.1028 22.7407 10.7702 22.7407C11.4327 22.7407 11.9737 23.2823 11.9737 23.9442C11.9737 24.6122 11.4327 25.1478 10.7702 25.1478ZM15.7589 25.1478C15.0915 25.1478 14.5553 24.6122 14.5553 23.9442C14.5553 23.2823 15.0915 22.7407 15.7589 22.7407C16.4214 22.7407 16.9624 23.2823 16.9624 23.9442C16.9624 24.6122 16.4214 25.1478 15.7589 25.1478ZM32.4339 24.546H20.7656C20.4352 24.546 20.1638 24.2812 20.1638 23.9442C20.1638 23.6132 20.4352 23.3424 20.7656 23.3424H32.4339C32.7654 23.3424 33.0357 23.6132 33.0357 23.9442C33.0357 24.2812 32.7654 24.546 32.4339 24.546Z" fill="white"/>
</svg>
