<svg width="42" height="42" viewBox="0 0 42 42" fill="none" xmlns="http://www.w3.org/2000/svg">
<path d="M19.2238 13.7279C18.7316 14.0052 18.3217 14.4079 18.0358 14.8952C17.7499 15.3824 17.5983 15.9367 17.5963 16.5016C17.6005 16.7432 17.6299 16.9836 17.6838 17.2191C17.7129 17.3413 17.7151 17.4684 17.6904 17.5915C17.6656 17.7146 17.6145 17.8309 17.5405 17.9324C17.4665 18.0339 17.3713 18.1181 17.2616 18.1792C17.1519 18.2404 17.0303 18.277 16.905 18.2866C16.3385 18.334 15.7951 18.5328 15.3317 18.8622C14.8684 19.1916 14.5021 19.6396 14.2713 20.1591C14.032 20.7593 13.9577 21.4126 14.0562 22.0511C14.1547 22.6897 14.4223 23.2902 14.8313 23.7904C15.267 24.1393 15.7752 24.3863 16.3187 24.5135C16.8622 24.6406 17.4273 24.6447 17.9725 24.5254C18.2849 24.4431 18.614 24.4495 18.923 24.5436C19.232 24.6378 19.5087 24.8161 19.7221 25.0586C19.9355 25.301 20.0772 25.5981 20.1314 25.9166C20.1856 26.235 20.15 26.5622 20.0288 26.8616L19.3025 28.6729H22.6975L21.9713 26.8616C21.8501 26.5622 21.8145 26.235 21.8687 25.9166C21.9229 25.5981 22.0646 25.301 22.278 25.0586C22.4914 24.8161 22.7681 24.6378 23.0771 24.5436C23.3861 24.4495 23.7152 24.4431 24.0275 24.5254C24.5728 24.6447 25.1379 24.6406 25.6814 24.5135C26.2249 24.3863 26.7331 24.1393 27.1688 23.7904C27.596 23.2764 27.8695 22.6523 27.9578 21.9898C28.046 21.3272 27.9454 20.6533 27.6675 20.0454C27.4104 19.5129 27.0076 19.0642 26.5058 18.7513C26.0041 18.4385 25.4239 18.2743 24.8325 18.2779H24.7188C24.5879 18.2772 24.4589 18.2471 24.3412 18.1899C24.2235 18.1327 24.1201 18.0499 24.0387 17.9475C23.9573 17.845 23.8998 17.7256 23.8706 17.5981C23.8415 17.4705 23.8413 17.338 23.87 17.2104C24.0363 16.4666 24.0975 15.3204 22.68 13.8679C22.1687 13.5387 21.5786 13.3521 20.971 13.3275C20.3633 13.3029 19.7601 13.4411 19.2238 13.7279ZM21.875 7.90914C24.7472 8.09398 27.4768 9.22647 29.6363 11.1291L31.4913 9.26539L32.7338 8.02289C29.7464 5.30808 25.9071 3.71792 21.875 3.52539V7.90914Z" fill="white"/>
<path d="M21.0001 9.62414C20.7078 9.62104 20.4156 9.63565 20.1251 9.66789C17.7172 9.84548 15.4295 10.79 13.5976 12.3629C13.1605 12.7475 12.7484 13.1596 12.3639 13.5966C10.791 15.4285 9.84646 17.7162 9.66887 20.1241C9.61053 20.706 9.61053 21.2923 9.66887 21.8741C9.84646 24.2821 10.791 26.5698 12.3639 28.4016C12.7484 28.8387 13.1605 29.2508 13.5976 29.6354C15.4309 31.2074 17.7173 32.1544 20.1251 32.3391C20.4139 32.3654 20.7026 32.3741 21.0001 32.3741C21.2976 32.3741 21.5864 32.3654 21.8751 32.3391C24.283 32.1544 26.5694 31.2074 28.4026 29.6354L29.6364 28.4016C31.2084 26.5684 32.1554 24.282 32.3401 21.8741C32.3664 21.5854 32.3751 21.2966 32.3751 20.9991C32.3751 20.7016 32.3664 20.4129 32.3401 20.1241C32.1554 17.7163 31.2084 15.4299 29.6364 13.5966C29.2518 13.1596 28.8397 12.7475 28.4026 12.3629C26.5707 10.79 24.2831 9.84548 21.8751 9.66789C21.5846 9.63565 21.2924 9.62104 21.0001 9.62414ZM23.8351 12.5554C24.4112 13.0614 24.8747 13.6827 25.1957 14.379C25.5167 15.0753 25.6882 15.8312 25.6989 16.5979C26.4576 16.7334 27.1737 17.0456 27.7894 17.5092C28.405 17.9728 28.9028 18.5749 29.2426 19.2666C29.668 20.1873 29.8231 21.2098 29.6898 22.2151C29.5566 23.2205 29.1406 24.1673 28.4901 24.9454C28.4415 25.0072 28.3857 25.063 28.3239 25.1116C27.6727 25.6471 26.9069 26.0251 26.0859 26.2163C25.2649 26.4075 24.4108 26.4068 23.5901 26.2141L24.7976 29.2241C24.8502 29.3563 24.8699 29.4992 24.8548 29.6406C24.8397 29.7821 24.7904 29.9177 24.7111 30.0357C24.6319 30.1538 24.525 30.2508 24.3998 30.3182C24.2746 30.3857 24.1348 30.4216 23.9926 30.4229H18.0076C17.8654 30.4216 17.7256 30.3857 17.6004 30.3182C17.4753 30.2508 17.3684 30.1538 17.2891 30.0357C17.2098 29.9177 17.1605 29.7821 17.1454 29.6406C17.1304 29.4992 17.15 29.3563 17.2026 29.2241L18.4014 26.2141C17.5821 26.4063 16.7294 26.4068 15.9099 26.2156C15.0904 26.0244 14.326 25.6466 13.6764 25.1116C13.6146 25.063 13.5588 25.0072 13.5101 24.9454C12.8806 24.1941 12.4694 23.2844 12.3213 22.3154C12.1731 21.3465 12.2938 20.3555 12.6701 19.4504C12.967 18.7869 13.4063 18.1968 13.9567 17.722C14.5071 17.2472 15.1552 16.8993 15.8551 16.7029C15.8551 16.6329 15.8464 16.5716 15.8464 16.5016C15.8471 15.6263 16.081 14.7669 16.5239 14.0119C16.9668 13.2568 17.6027 12.6333 18.3664 12.2054C19.1879 11.7542 20.1174 11.5368 21.0538 11.5769C21.9902 11.617 22.8977 11.9131 23.6776 12.4329C23.7357 12.4659 23.7888 12.5072 23.8351 12.5554ZM8.02387 32.7329L9.26637 31.4904L11.1301 29.6354C9.22745 27.4759 8.09496 24.7463 7.91012 21.8741H3.52637C3.71889 25.9062 5.30906 29.7455 8.02387 32.7329ZM38.4739 21.8741H34.0901C33.9053 24.7463 32.7728 27.4759 30.8701 29.6354L32.7339 31.4904L33.9764 32.7329C36.6869 29.7428 38.2764 25.9051 38.4739 21.8741ZM33.9764 9.26539L32.7339 10.5079L30.8701 12.3629C32.7728 14.5223 33.9053 17.252 34.0901 20.1241H38.4739C38.2813 16.0921 36.6912 12.2528 33.9764 9.26539ZM11.1301 12.3629L9.26637 10.5079L8.02387 9.26539C5.30906 12.2528 3.71889 16.0921 3.52637 20.1241H7.91012C8.09496 17.252 9.22745 14.5223 11.1301 12.3629ZM29.6364 30.8691C27.4769 32.7718 24.7473 33.9043 21.8751 34.0891V38.4729C25.9072 38.2804 29.7465 36.6902 32.7339 33.9754L31.4914 32.7329L29.6364 30.8691ZM20.1251 34.0891C17.253 33.9043 14.5233 32.7718 12.3639 30.8691L10.5089 32.7329L9.26637 33.9754C12.2538 36.6902 16.093 38.2804 20.1251 38.4729V34.0891ZM10.5089 9.26539L12.3639 11.1291C14.5233 9.22647 17.253 8.09398 20.1251 7.90914V3.52539C16.093 3.71792 12.2538 5.30808 9.26637 8.02289L10.5089 9.26539Z" fill="white"/>
</svg>
