<svg width="342" height="190" viewBox="0 0 342 190" fill="none" xmlns="http://www.w3.org/2000/svg">
<path d="M341.199 13.6442C341.199 6.52925 335.416 0.746094 328.301 0.746094H13.7299C6.61495 0.746094 0.831787 6.52925 0.831787 13.6442V23.6598H341.199V13.6442Z" fill="#E1E1E1"/>
<path d="M0.831787 23.6621V176.195C0.831787 183.31 6.61495 189.093 13.7299 189.093H328.301C335.416 189.093 341.199 183.31 341.199 176.195V23.6621H0.831787Z" fill="#F2F2F2"/>
<rect x="15.0258" y="83.8281" width="311.487" height="39.8921" rx="10.946" fill="#D13333"/>
<g clip-path="url(#clip0_11931_4015)">
<path d="M42.6018 96.7778C42.385 96.3969 42.0713 96.0802 41.6924 95.8598C41.3135 95.6395 40.8831 95.5234 40.4448 95.5234C40.0065 95.5234 39.5761 95.6395 39.1972 95.8598C38.8183 96.0802 38.5045 96.3969 38.2878 96.7778L31.7553 108.416C31.5479 108.782 31.4406 109.195 31.4444 109.615C31.4483 110.035 31.563 110.447 31.777 110.808C31.9942 111.181 32.3061 111.49 32.6811 111.703C33.0561 111.917 33.4808 112.027 33.9123 112.024H46.9773C47.4088 112.027 47.8335 111.917 48.2085 111.703C48.5835 111.49 48.8954 111.181 49.1125 110.808C49.3266 110.447 49.4413 110.035 49.4451 109.615C49.449 109.195 49.3417 108.782 49.1343 108.416L42.6018 96.7778ZM40.4448 109.024C40.2965 109.024 40.1514 108.98 40.0281 108.897C39.9048 108.815 39.8086 108.698 39.7519 108.561C39.6951 108.424 39.6803 108.273 39.7092 108.127C39.7381 107.982 39.8096 107.848 39.9145 107.743C40.0193 107.639 40.153 107.567 40.2985 107.538C40.444 107.509 40.5948 107.524 40.7318 107.581C40.8688 107.638 40.986 107.734 41.0684 107.857C41.1508 107.98 41.1948 108.125 41.1948 108.274C41.1948 108.473 41.1158 108.663 40.9751 108.804C40.8345 108.945 40.6437 109.024 40.4448 109.024ZM41.1948 105.274C41.1948 105.473 41.1158 105.663 40.9751 105.804C40.8345 105.945 40.6437 106.024 40.4448 106.024C40.2459 106.024 40.0551 105.945 39.9145 105.804C39.7738 105.663 39.6948 105.473 39.6948 105.274V100.774C39.6948 100.575 39.7738 100.384 39.9145 100.243C40.0551 100.103 40.2459 100.024 40.4448 100.024C40.6437 100.024 40.8345 100.103 40.9751 100.243C41.1158 100.384 41.1948 100.575 41.1948 100.774V105.274Z" fill="white"/>
</g>
<path d="M54.1881 109.273V98.4733H55.8519V102.166C56.4065 101.494 57.3114 101.1 58.3476 101.1C60.1428 101.1 61.5439 102.283 61.5439 104.53V109.273H59.8946V104.778C59.8946 103.304 59.0919 102.545 57.8806 102.545C56.6546 102.545 55.8519 103.304 55.8519 104.778V109.273H54.1881ZM63.9288 107.04V102.589H62.9802V101.232H63.9288V99.2323H65.6072V101.232H67.5629V102.589H65.6072V107.04C65.6072 107.639 65.8407 107.887 66.5413 107.887H67.5629V109.273H66.2494C64.8191 109.273 63.9288 108.675 63.9288 107.04ZM69.3591 107.04V102.589H68.4104V101.232H69.3591V99.2323H71.0375V101.232H72.9932V102.589H71.0375V107.04C71.0375 107.639 71.271 107.887 71.9716 107.887H72.9932V109.273H71.6797C70.2494 109.273 69.3591 108.675 69.3591 107.04ZM76.1905 102.414C76.7013 101.743 77.6791 101.1 78.9926 101.1C81.1089 101.1 82.7727 102.735 82.7727 105.216C82.7727 107.697 81.1089 109.405 78.9926 109.405C77.6645 109.405 76.7159 108.733 76.1905 108.106V113.097H74.5267V101.232H76.1905V102.414ZM81.0797 105.216C81.0797 103.479 79.8829 102.545 78.6278 102.545C77.3872 102.545 76.1905 103.523 76.1905 105.245C76.1905 106.982 77.3872 107.96 78.6278 107.96C79.8829 107.96 81.0797 106.953 81.0797 105.216ZM90.4164 107.026C90.4164 108.383 89.2343 109.405 87.3369 109.405C85.4104 109.405 84.0531 108.266 83.9802 106.807H85.7023C85.7607 107.464 86.3883 108.004 87.3078 108.004C88.271 108.004 88.7818 107.595 88.7818 107.04C88.7818 105.464 84.1115 106.369 84.1115 103.421C84.1115 102.137 85.3083 101.1 87.2056 101.1C89.0299 101.1 90.2267 102.078 90.3143 103.684H88.6505C88.5921 102.983 88.0521 102.501 87.1472 102.501C86.2569 102.501 85.7899 102.866 85.7899 103.406C85.7899 105.026 90.3289 104.121 90.4164 107.026ZM93.9364 108.31C93.9364 108.909 93.4694 109.376 92.8856 109.376C92.2872 109.376 91.8201 108.909 91.8201 108.31C91.8201 107.712 92.2872 107.245 92.8856 107.245C93.4694 107.245 93.9364 107.712 93.9364 108.31ZM93.9364 102.18C93.9364 102.779 93.4694 103.246 92.8856 103.246C92.2872 103.246 91.8201 102.779 91.8201 102.18C91.8201 101.582 92.2872 101.115 92.8856 101.115C93.4694 101.115 93.9364 101.582 93.9364 102.18ZM95.5873 111.828L99.5425 95.496H101.192L97.2219 111.828H95.5873ZM103.084 111.828L107.039 95.496H108.689L104.719 111.828H103.084ZM112.347 109.273L109.837 101.232H111.53L113.208 107.697L114.916 101.232H116.653L118.287 107.668L119.951 101.232H121.586L119.09 109.273H117.338L115.718 103.333L114.098 109.273H112.347ZM124.391 109.273L121.88 101.232H123.573L125.252 107.697L126.959 101.232H128.696L130.331 107.668L131.994 101.232H133.629L131.133 109.273H129.382L127.762 103.333L126.142 109.273H124.391ZM136.434 109.273L133.924 101.232H135.617L137.295 107.697L139.003 101.232H140.74L142.374 107.668L144.038 101.232H145.673L143.177 109.273H141.425L139.805 103.333L138.185 109.273H136.434ZM148.638 108.31C148.638 108.909 148.171 109.376 147.587 109.376C146.989 109.376 146.522 108.909 146.522 108.31C146.522 107.712 146.989 107.245 147.587 107.245C148.171 107.245 148.638 107.712 148.638 108.31ZM150.699 107.04V102.589H149.75V101.232H150.699V99.2323H152.377V101.232H154.333V102.589H152.377V107.04C152.377 107.639 152.611 107.887 153.311 107.887H154.333V109.273H153.02C151.589 109.273 150.699 108.675 150.699 107.04ZM157.53 105.041V109.273H155.867V101.232H157.53V102.399C157.997 101.597 158.8 101.1 159.939 101.1V102.823H159.515C158.289 102.823 157.53 103.333 157.53 105.041ZM160.519 101.232H162.3L164.577 107.785L166.853 101.232H168.619L165.554 109.273H163.57L160.519 101.232ZM175.875 107.026C175.875 108.383 174.693 109.405 172.796 109.405C170.869 109.405 169.512 108.266 169.439 106.807H171.161C171.22 107.464 171.847 108.004 172.767 108.004C173.73 108.004 174.241 107.595 174.241 107.04C174.241 105.464 169.57 106.369 169.57 103.421C169.57 102.137 170.767 101.1 172.665 101.1C174.489 101.1 175.686 102.078 175.773 103.684H174.109C174.051 102.983 173.511 102.501 172.606 102.501C171.716 102.501 171.249 102.866 171.249 103.406C171.249 105.026 175.788 104.121 175.875 107.026ZM177.936 107.04V102.589H176.987V101.232H177.936V99.2323H179.614V101.232H181.57V102.589H179.614V107.04C179.614 107.639 179.848 107.887 180.548 107.887H181.57V109.273H180.256C178.826 109.273 177.936 108.675 177.936 107.04ZM186.489 102.501C185.366 102.501 184.461 103.26 184.286 104.53H188.737C188.708 103.29 187.73 102.501 186.489 102.501ZM190.255 106.88C189.802 108.281 188.533 109.405 186.562 109.405C184.256 109.405 182.549 107.77 182.549 105.245C182.549 102.72 184.183 101.1 186.562 101.1C188.854 101.1 190.474 102.691 190.474 105.056C190.474 105.333 190.459 105.596 190.415 105.873H184.271C184.388 107.201 185.336 108.004 186.562 108.004C187.584 108.004 188.153 107.507 188.46 106.88H190.255ZM191.556 105.216C191.556 102.735 193.235 101.1 195.366 101.1C196.417 101.1 197.526 101.597 198.139 102.356V98.4733H199.817V109.273H198.139V108.062C197.628 108.792 196.665 109.405 195.351 109.405C193.235 109.405 191.556 107.697 191.556 105.216ZM198.139 105.245C198.139 103.523 196.957 102.545 195.701 102.545C194.461 102.545 193.264 103.479 193.264 105.216C193.264 106.953 194.461 107.96 195.701 107.96C196.957 107.96 198.139 106.982 198.139 105.245ZM201.448 105.216C201.448 102.735 203.126 101.1 205.242 101.1C206.556 101.1 207.534 101.713 208.03 102.399V101.232H209.708V109.405C209.708 111.594 208.293 113.243 205.782 113.243C203.637 113.243 202.046 112.178 201.842 110.397H203.491C203.739 111.229 204.629 111.798 205.782 111.798C207.067 111.798 208.03 111.01 208.03 109.405V108.062C207.519 108.748 206.556 109.405 205.242 109.405C203.126 109.405 201.448 107.697 201.448 105.216ZM208.03 105.245C208.03 103.523 206.848 102.545 205.593 102.545C204.352 102.545 203.155 103.479 203.155 105.216C203.155 106.953 204.352 107.96 205.593 107.96C206.848 107.96 208.03 106.982 208.03 105.245ZM211.339 105.216C211.339 102.735 213.018 101.1 215.134 101.1C216.491 101.1 217.425 101.743 217.921 102.399V101.232H219.6V109.273H217.921V108.077C217.411 108.763 216.447 109.405 215.105 109.405C213.018 109.405 211.339 107.697 211.339 105.216ZM217.921 105.245C217.921 103.523 216.739 102.545 215.484 102.545C214.244 102.545 213.047 103.479 213.047 105.216C213.047 106.953 214.244 107.96 215.484 107.96C216.739 107.96 217.921 106.982 217.921 105.245ZM233.184 109.273V104.778C233.184 103.304 232.381 102.545 231.17 102.545C229.944 102.545 229.141 103.304 229.141 104.778V109.273H227.492V104.778C227.492 103.304 226.689 102.545 225.478 102.545C224.252 102.545 223.449 103.304 223.449 104.778V109.273H221.785V101.232H223.449V102.151C223.989 101.494 224.865 101.1 225.828 101.1C227.098 101.1 228.163 101.64 228.718 102.691C229.214 101.713 230.352 101.1 231.52 101.1C233.403 101.1 234.833 102.283 234.833 104.53V109.273H233.184ZM238.614 102.429C239.139 101.699 240.146 101.1 241.416 101.1C243.547 101.1 245.196 102.735 245.196 105.216C245.196 107.697 243.532 109.405 241.416 109.405C240.088 109.405 239.139 108.806 238.614 108.106V109.273H236.95V98.4733H238.614V102.429ZM243.503 105.216C243.503 103.479 242.306 102.545 241.051 102.545C239.811 102.545 238.614 103.523 238.614 105.245C238.614 106.982 239.811 107.96 241.051 107.96C242.306 107.96 243.503 106.953 243.503 105.216ZM246.841 109.273V98.4733H248.505V109.273H246.841ZM250.69 109.273V101.232H252.353V109.273H250.69ZM251.536 100.166C250.938 100.166 250.471 99.6993 250.471 99.1009C250.471 98.5025 250.938 98.0355 251.536 98.0355C252.12 98.0355 252.587 98.5025 252.587 99.1009C252.587 99.6993 252.12 100.166 251.536 100.166ZM260.244 109.273V104.778C260.244 103.304 259.442 102.545 258.23 102.545C257.004 102.545 256.202 103.304 256.202 104.778V109.273H254.538V101.232H256.202V102.151C256.742 101.494 257.632 101.1 258.595 101.1C260.478 101.1 261.893 102.283 261.893 104.53V109.273H260.244ZM263.461 105.216C263.461 102.735 265.14 101.1 267.256 101.1C268.569 101.1 269.547 101.713 270.043 102.399V101.232H271.722V109.405C271.722 111.594 270.306 113.243 267.796 113.243C265.65 113.243 264.06 112.178 263.855 110.397H265.504C265.753 111.229 266.643 111.798 267.796 111.798C269.08 111.798 270.043 111.01 270.043 109.405V108.062C269.533 108.748 268.569 109.405 267.256 109.405C265.14 109.405 263.461 107.697 263.461 105.216ZM270.043 105.245C270.043 103.523 268.861 102.545 267.606 102.545C266.366 102.545 265.169 103.479 265.169 105.216C265.169 106.953 266.366 107.96 267.606 107.96C268.861 107.96 270.043 106.982 270.043 105.245ZM275.629 108.31C275.629 108.909 275.162 109.376 274.578 109.376C273.98 109.376 273.513 108.909 273.513 108.31C273.513 107.712 273.98 107.245 274.578 107.245C275.162 107.245 275.629 107.712 275.629 108.31ZM276.873 105.245C276.873 102.735 278.508 101.1 280.813 101.1C282.784 101.1 284.068 102.078 284.521 103.771H282.725C282.448 102.998 281.806 102.501 280.813 102.501C279.471 102.501 278.581 103.494 278.581 105.245C278.581 107.011 279.471 108.004 280.813 108.004C281.806 108.004 282.419 107.566 282.725 106.734H284.521C284.068 108.31 282.784 109.405 280.813 109.405C278.508 109.405 276.873 107.77 276.873 105.245ZM293.841 105.245C293.841 107.77 291.973 109.405 289.667 109.405C287.375 109.405 285.639 107.77 285.639 105.245C285.639 102.72 287.448 101.1 289.74 101.1C292.031 101.1 293.841 102.72 293.841 105.245ZM287.332 105.245C287.332 107.07 288.412 107.96 289.667 107.96C290.907 107.96 292.133 107.07 292.133 105.245C292.133 103.421 290.951 102.545 289.711 102.545C288.455 102.545 287.332 103.421 287.332 105.245ZM306.884 109.273V104.778C306.884 103.304 306.081 102.545 304.87 102.545C303.644 102.545 302.841 103.304 302.841 104.778V109.273H301.192V104.778C301.192 103.304 300.389 102.545 299.178 102.545C297.952 102.545 297.149 103.304 297.149 104.778V109.273H295.486V101.232H297.149V102.151C297.689 101.494 298.565 101.1 299.528 101.1C300.798 101.1 301.864 101.64 302.418 102.691C302.914 101.713 304.053 101.1 305.22 101.1C307.103 101.1 308.533 102.283 308.533 104.53V109.273H306.884Z" fill="white"/>
<path d="M25.6793 12.127C25.6793 15.3743 23.034 18.0196 19.7867 18.0196C16.5393 18.0196 13.894 15.3743 13.894 12.127C13.894 8.87967 16.5393 6.23438 19.7867 6.23438C23.034 6.23438 25.6793 8.87967 25.6793 12.127Z" fill="#ED534F"/>
<path d="M46.8964 12.127C46.8964 15.3743 44.2512 18.0196 41.0038 18.0196C37.7565 18.0196 35.1112 15.3743 35.1112 12.127C35.1112 8.87967 37.7565 6.23438 41.0038 6.23438C44.2512 6.23438 46.8964 8.87967 46.8964 12.127Z" fill="#EDBB1A"/>
<path d="M68.1318 12.127C68.1318 15.3743 65.4865 18.0196 62.2392 18.0196C58.9919 18.0196 56.3466 15.3743 56.3466 12.127C56.3466 8.87967 58.9919 6.23438 62.2392 6.23438C65.4865 6.23438 68.1318 8.87967 68.1318 12.127Z" fill="#4CAF50"/>
<defs>
<clipPath id="clip0_11931_4015">
<rect width="18" height="18" fill="white" transform="translate(31.4448 94.7734)"/>
</clipPath>
</defs>
</svg>
