<svg width="402" height="289" viewBox="0 0 402 289" fill="none" xmlns="http://www.w3.org/2000/svg">
<path d="M188.04 211.927L184.697 209.892L164.957 210.494L163.574 203.803L168.606 196.775L174.338 179.873L213.45 165.739L253.429 161.557L310.752 134.828L344.906 108.742L349.507 115.157L340.953 131.787L336.616 139.262L323.534 161.557L303.285 200.837L303.134 205.197L302.528 208.642L295.977 214.089L292.611 210.835L286.526 209.298L264.254 212.742L259.466 217.133L255.518 212.979L240.3 211.026H197.647L197.15 212.334L193.496 217.133L188.04 211.927Z" fill="#F3CF7A"/>
<path d="M156.406 219.101L147.394 211.926V225.198L154.321 234.761L156.406 219.101Z" fill="#F3CF7A"/>
<path d="M164.956 210.493L157.377 197.128L178.123 172.716L213.45 165.738L217.31 182.276L177.005 208.64L164.956 210.493Z" fill="#F3CF7A"/>
<path d="M177.005 154.715L139.155 166.162L135.765 181.814L118.571 219.874L110.138 247.563L115.317 247.384L122.819 239.525L153.568 202.832L184.557 177.795L181.016 191.121L206.061 183.056L223.608 165.738L207.098 155.957L177.005 154.715Z" fill="#ED8B7B"/>
<path d="M218.917 97.3142L238.04 76.96L234.752 60.9857L224.811 33.2695L192.7 37.3815L189.209 49.2671L198.881 69.5669L208.045 93.2604L218.917 97.3142Z" fill="#014441"/>
<path d="M195.379 117.065L203.04 89.0384L230.216 82.5151L239.17 69.9772L252.877 68.1406L270.874 77.1412L288.79 96.9052L290.63 117.065L280.236 138.258L259.086 148.536L231.14 156.407L223.666 158.9L221.763 161.556L217.014 164.771L213.698 163.878L209.089 160.989L209.687 143.974L197.231 136.581L197.744 122.567L195.379 117.065Z" fill="#9D8221"/>
<path d="M193.5 289C271.096 289 334 281.389 334 272C334 262.611 271.096 255 193.5 255C115.904 255 53 262.611 53 272C53 281.389 115.904 289 193.5 289Z" fill="#0D2746"/>
<path d="M253.428 68.1374C253.234 68.4286 253.04 68.7276 252.803 69.0266C250.536 72.0863 247.42 74.4126 243.842 75.7169C242.805 76.0938 241.742 76.3923 240.661 76.6099C239.797 76.7855 238.921 76.9023 238.041 76.9594C229.156 77.4875 226.753 70.1798 226.097 62.9266C225.759 59.1601 225.891 55.4131 225.825 52.7767C225.705 47.69 225.771 43.9003 224.738 42.7083C224.573 42.5181 224.367 42.368 224.136 42.2695C223.889 42.159 223.62 42.1084 223.35 42.1219C223.08 42.1354 222.817 42.2126 222.583 42.3472C221.247 43.1009 219.851 43.7413 218.409 44.2614C215.955 45.1469 213.371 45.6142 210.763 45.6438C210.437 45.6438 210.119 45.6438 209.804 45.6438C206.457 45.5234 203.173 44.6894 200.174 43.1975C199.55 42.8843 198.839 42.7905 198.154 42.9314C197.47 43.0723 196.854 43.4396 196.404 43.9741C195.347 45.2223 194.09 46.2865 192.684 47.1231C192.684 47.1231 193.674 50.0936 195.53 54.2949L192.956 54.7686C192.804 54.7973 192.661 54.8619 192.539 54.957C192.416 55.0521 192.319 55.175 192.253 55.3154C192.188 55.4558 192.157 55.6098 192.163 55.7646C192.169 55.9193 192.212 56.0704 192.288 56.2053C194.428 59.929 197.278 61.3928 198.726 60.9075C199.01 61.4355 199.297 61.9714 199.596 62.5072C200.493 64.1186 201.467 65.7494 202.52 67.3492C203.921 69.4845 206.075 71.0143 208.552 71.6344C211.03 72.2545 213.65 71.9196 215.892 70.6963C216.529 72.296 217.636 74.917 218.552 77.072C217.932 79.595 217.653 82.1901 217.725 84.7873C217.772 87.5287 218.657 92.2464 218.89 97.3252C219.36 107.095 217.449 118.184 202.559 119.035C201.687 119.091 200.813 119.071 199.945 118.976C197.969 118.751 196.47 118.091 195.352 117.078C193.022 114.961 192.362 111.296 192.49 106.792C192.812 95.6051 198.054 79.2231 195.037 68.3898C192.948 60.9036 185.144 56.7955 185.544 49.1617C185.979 40.8406 193.309 30.9819 200.077 27.3553C202.131 26.2525 204.135 25.7245 205.878 25.9807C207.576 24.4514 209.688 23.4599 211.949 23.1316C214.21 22.8033 216.517 23.153 218.579 24.1363C232.849 30.6286 236.635 57.0595 247.728 66.2969C249.173 67.48 250.979 68.1347 252.846 68.153H253.366L253.428 68.1374Z" fill="#16449E"/>
<path d="M288.79 96.9047C285.487 96.0985 282.062 95.922 278.694 96.3844C269.83 97.7318 264.537 104.049 261.524 109.676C260.308 111.955 259.317 114.348 258.565 116.82C252.267 109.303 246.963 101.11 244.117 93.2587V93.2354C243.768 92.2698 243.456 91.3095 243.181 90.3543C241.341 83.9164 242.179 79.1366 243.861 75.7157C245.584 75.0866 247.21 74.2187 248.691 73.1375C250.264 71.9781 251.656 70.5924 252.823 69.0255C253.044 68.7265 253.254 68.4275 253.448 68.1363C257.331 68.0004 265.174 68.9789 273.383 77.331C278.378 82.4274 282.891 87.9751 286.864 93.9032C287.509 94.8791 288.15 95.8796 288.79 96.9047Z" fill="#9D8221"/>
<path d="M303.285 134.823C303.287 134.806 303.287 134.789 303.285 134.771" stroke="black" stroke-miterlimit="10"/>
<path d="M213.706 163.879H180.414L177.005 154.715C184.364 153.612 191.623 151.924 198.714 149.667C198.439 145.303 197.852 140.834 197.231 136.562C196.117 128.797 194.901 121.679 195.379 117.047C196.497 118.06 197.996 118.72 199.972 118.946C200.685 122.095 202.329 124.956 204.69 127.158C207.909 130.105 211.415 131.515 213.372 136.908C215.077 141.637 215.601 149.395 213.706 163.879Z" fill="#ED8B7B"/>
<path d="M209.703 58.8444C208.418 60.65 205.432 60.5684 203.937 59.8113C202.267 58.9764 200.155 56.3166 198.889 54.5305C198.687 54.247 198.501 53.9869 198.353 53.7539L207.144 52.1309C207.144 52.1309 207.575 52.6745 208.095 53.4705C209.136 55.0625 210.553 57.6407 209.703 58.8444Z" fill="#01252A"/>
<path d="M208.581 58.5146C207.618 59.8698 205.382 59.8077 204.252 59.2408C203.001 58.6156 201.413 56.6043 200.462 55.2763C200.307 55.0627 200.171 54.888 200.074 54.7016L206.675 53.4785C206.675 53.4785 207.001 53.8901 207.393 54.4881C208.158 55.6762 209.222 57.6099 208.581 58.5146Z" fill="#EFA08D"/>
<path d="M238.041 76.9684C235.226 82.7927 232.341 89.9179 228.011 94.1347C227.059 95.0863 225.983 95.9052 224.812 96.5693C222.397 97.8856 220.385 97.804 218.918 97.3226C218.673 92.2437 217.788 87.526 217.753 84.7847C217.681 82.1874 217.959 79.5924 218.58 77.0693C218.354 76.5296 218.11 75.9627 217.869 75.3919C217.174 73.7456 216.464 72.0604 215.986 70.8644C215.963 70.8062 215.939 70.748 215.92 70.6936L216.207 70.5344C217.84 69.5749 219.417 68.5222 220.929 67.3815C222.748 66.0114 224.479 64.5264 226.109 62.9355C226.753 70.181 229.157 77.4887 238.041 76.9684Z" fill="#EFA08D"/>
<path d="M226.097 62.9266C223.114 65.8489 219.79 68.4004 216.195 70.5254L215.908 70.6846C213.666 71.908 211.046 72.2429 208.568 71.6228C206.09 71.0026 203.937 69.4729 202.535 67.3376C201.134 65.2059 199.864 63.0159 198.742 60.8958C199.022 60.8019 199.265 60.6193 199.433 60.3757C199.601 60.132 199.686 59.8403 199.674 59.5446C199.755 57.8943 198.897 55.9995 198.175 54.7065L198.881 54.5317C200.155 56.2985 202.267 58.9777 203.929 59.8125C205.432 60.5697 208.41 60.6512 209.695 58.8457C210.546 57.642 209.128 55.0637 208.08 53.4795L221.239 46.2107L224.128 42.2695C224.36 42.368 224.565 42.5181 224.73 42.7083C225.763 43.9004 225.697 47.6901 225.817 52.7767C225.891 55.4132 225.743 59.1602 226.097 62.9266Z" fill="#EFA08D"/>
<path d="M199.674 59.5442C199.686 59.8399 199.601 60.1316 199.433 60.3752C199.265 60.6189 199.022 60.8015 198.742 60.8954C197.293 61.3808 194.443 59.9169 192.304 56.1893C192.228 56.0553 192.184 55.905 192.178 55.7509C192.172 55.5968 192.202 55.4435 192.267 55.3036C192.332 55.1638 192.43 55.0415 192.552 54.947C192.673 54.8525 192.816 54.7885 192.968 54.7604L195.546 54.2828L197.693 53.8945C197.833 54.1236 198 54.3993 198.175 54.7138C198.901 55.9991 199.755 57.8939 199.674 59.5442Z" fill="#01252A"/>
<path d="M198.877 59.2621C198.886 59.4646 198.833 59.6649 198.725 59.8367C198.618 60.0085 198.461 60.1439 198.275 60.2251C196.998 57.8954 195.849 55.4025 195.849 55.4025L197.425 55.1113C197.526 55.2783 197.65 55.4996 197.778 55.7132C198.31 56.6606 198.951 58.0546 198.877 59.2621Z" fill="#EFA08D"/>
<path d="M218.424 44.261L207.136 52.1394L198.345 53.7625L197.693 53.8867L195.546 54.275C193.69 50.0737 192.7 47.1033 192.7 47.1033C194.105 46.2666 195.362 45.2024 196.42 43.9542C196.869 43.4198 197.486 43.0524 198.17 42.9115C198.854 42.7706 199.566 42.8644 200.19 43.1776C202.997 44.5861 206.061 45.4086 209.195 45.5948C212.33 45.7811 215.47 45.3272 218.424 44.261Z" fill="#EFA08D"/>
<path d="M224.136 42.2698L221.247 46.2109L210.18 52.3265L208.088 53.4914C207.567 52.7148 207.136 52.1518 207.136 52.1518L208.375 51.2859L218.424 44.2734C219.866 43.7532 221.263 43.1129 222.598 42.3591C222.829 42.2251 223.089 42.1473 223.356 42.1318C223.623 42.1163 223.89 42.1635 224.136 42.2698Z" fill="#01252A"/>
<path d="M198.882 54.5325L198.175 54.7072C198 54.3927 197.833 54.117 197.693 53.8879L198.346 53.7637C198.497 53.9889 198.68 54.249 198.882 54.5325Z" fill="#01252A"/>
<path d="M180.414 163.877L165.376 163.749L144.366 163.555L133.676 163.466L116.246 117.492C116.096 117.098 116.042 116.673 116.088 116.254C116.134 115.835 116.279 115.432 116.51 115.08C116.742 114.727 117.053 114.434 117.42 114.225C117.786 114.016 118.197 113.897 118.618 113.877L138.106 112.957L141.011 112.821L157.785 112.044C158.736 111.999 159.676 112.256 160.47 112.781C161.265 113.305 161.872 114.068 162.204 114.96L176.994 154.729L180.414 163.877Z" fill="#1A54C4"/>
<path d="M180.414 163.878V166.791L161.287 166.499L139.155 166.162L135.175 166.099C134.775 166.092 134.393 165.928 134.113 165.643C133.833 165.358 133.676 164.974 133.676 164.574V163.482L180.414 163.878Z" fill="#1A54C4"/>
<path d="M133.676 163.482V164.515L177.258 164.884C177.755 164.888 178.231 165.089 178.582 165.442C178.932 165.796 179.129 166.273 179.129 166.771L180.414 166.791V163.878L133.676 163.482Z" fill="#1A54C4"/>
<path d="M122.819 239.528L113.915 255.238L110.145 259.964L107.815 255.242L110.145 247.562C108.751 243.058 112.914 238.324 114.859 237.078C117.154 235.626 120.128 236.833 122.819 239.528Z" fill="#ED8B7B"/>
<path d="M161.287 166.5L158.515 170.076C151.246 179.391 134.779 200.386 118.575 219.859C124.035 202.067 129.944 183.037 132.08 177.096C133.583 172.914 135.21 170.192 136.697 168.422C137.403 167.549 138.232 166.782 139.158 166.146L161.287 166.5Z" fill="#ED8B7B"/>
<path d="M217.014 163.879C215.818 164.487 214.654 165.106 213.52 165.735C213.495 165.745 213.471 165.758 213.45 165.774C213.448 165.762 213.448 165.75 213.45 165.739L180.414 166.791V163.879H217.014Z" fill="#1A54C4"/>
<path d="M213.45 165.738C213.448 165.75 213.448 165.762 213.45 165.773C212.031 166.55 210.664 167.326 209.349 168.103C190.323 179.406 181.004 191.105 181.004 191.105L170.132 193.621C170.192 195.96 169.962 198.297 169.449 200.58C169.022 202.534 168.368 204.431 167.499 206.233C166.778 207.728 165.927 209.158 164.956 210.504C162.665 213.696 159.737 216.515 156.414 219.113C153.531 221.319 150.522 223.354 147.401 225.209C141.965 228.505 136.118 231.592 130.53 234.881C128.03 236.357 125.44 237.925 122.827 239.541C118.555 242.181 114.218 244.938 110.145 247.574C98.4303 255.162 88.8511 261.751 88.8511 261.751L82.2852 262.939L84.6149 257.367C92.3496 250.607 105.373 235.743 118.575 219.858C134.782 200.37 151.249 179.375 158.495 170.06L161.267 166.484L180.414 166.775L213.45 165.738Z" fill="#EFA08D"/>
<path d="M302.527 208.641C300.823 209.417 298.311 210.101 294.692 210.582C294.019 210.673 293.325 210.758 292.611 210.839C285.136 211.724 275.409 212.361 264.265 212.745C261.444 212.838 258.532 212.917 255.529 212.982C237.896 213.37 217.535 213.157 197.161 212.337C194.119 212.216 191.083 212.086 188.052 211.949C182.806 211.689 177.568 211.39 172.438 211.048C169.93 210.883 167.44 210.705 164.968 210.516C165.939 209.169 166.79 207.74 167.511 206.245C169.243 206.338 171.557 206.459 174.349 206.598C176.492 206.703 178.911 206.82 181.567 206.94L183.346 207.014C188.984 207.262 195.561 207.523 202.686 207.755L204.387 207.821C210.316 208.012 216.587 208.175 222.986 208.295C223.666 208.295 224.345 208.322 225.029 208.33C227.019 208.364 229.02 208.394 231.032 208.419C234.138 208.458 237.213 208.485 240.288 208.489C244.171 208.489 248.054 208.489 251.836 208.447L254.496 208.412C260.215 208.326 265.729 208.167 270.858 207.915C271.821 207.868 272.761 207.818 273.697 207.763C276.726 207.589 279.607 207.375 282.29 207.13C294.544 205.997 302.788 204.024 303.257 200.856C303.285 200.832 309.311 205.538 302.527 208.641Z" fill="#F3CF7A"/>
<path d="M278.368 135.879C278.368 135.879 252.706 149.675 229.944 156.124L227.044 153.887C226.213 153.247 225.215 152.858 224.169 152.768C223.124 152.678 222.074 152.89 221.146 153.379L215.648 156.287C215.394 156.421 215.193 156.635 215.075 156.896C214.958 157.158 214.932 157.451 215.001 157.729C215.07 158.007 215.23 158.254 215.455 158.43C215.681 158.607 215.959 158.703 216.245 158.702H218.315C218.668 158.703 219.015 158.797 219.319 158.976C219.623 159.155 219.875 159.412 220.047 159.72C220.45 160.47 221.043 161.102 221.767 161.552C220.136 162.329 218.553 163.106 217.018 163.882H213.706C217.779 132.819 210.724 132.706 204.698 127.181C203.804 126.361 203.011 125.436 202.337 124.428C201.237 122.761 200.441 120.913 199.984 118.969C200.852 119.064 201.726 119.083 202.597 119.027C217.488 118.176 219.398 107.087 218.929 97.3174C220.396 97.7989 222.423 97.8805 224.823 96.5642C225.994 95.9001 227.07 95.0812 228.022 94.1296C232.344 89.9089 235.225 82.7915 238.04 76.9671C238.921 76.91 239.796 76.7933 240.661 76.6177C241.742 76.4001 242.805 76.1015 243.841 75.7246C242.16 79.1454 241.321 83.9253 243.162 90.3632C245.655 99.0764 251.475 108.384 258.554 116.829C264.458 123.869 271.101 130.255 278.368 135.879Z" fill="#9D8221"/>
<path d="M296.614 138.531C290.133 141.451 281.824 143.602 270.874 146.332C263.431 148.188 254.768 150.308 244.633 153.127C239.714 154.494 235.082 156.051 230.74 157.728C227.595 158.948 224.603 160.222 221.763 161.553C221.04 161.103 220.446 160.471 220.043 159.72C219.871 159.412 219.619 159.156 219.315 158.977C219.011 158.798 218.664 158.704 218.311 158.703H216.242C216.074 158.706 215.908 158.675 215.753 158.613C215.598 158.551 215.456 158.459 215.337 158.342C215.217 158.225 215.122 158.085 215.057 157.931C214.992 157.777 214.957 157.612 214.956 157.445C214.945 157.205 215.004 156.967 215.126 156.76C215.248 156.553 215.428 156.386 215.644 156.28L221.146 153.372C222.074 152.883 223.124 152.671 224.169 152.761C225.215 152.851 226.213 153.24 227.044 153.88L229.944 156.117C245.608 151.687 262.631 143.754 271.748 139.261C275.875 137.219 278.349 135.879 278.349 135.879C276.275 134.291 274.159 132.548 272.047 130.676C267.206 126.399 262.69 121.768 258.534 116.822C259.286 114.35 260.277 111.957 261.493 109.677C264.506 104.051 269.799 97.7336 278.663 96.3862C282.031 95.9238 285.456 96.1003 288.759 96.9065C294.753 106.396 299.169 116.795 301.836 127.698C302.357 129.829 302.121 132.075 301.169 134.051C300.216 136.028 298.606 137.611 296.614 138.531Z" fill="#EFA08D"/>
<path d="M300.194 153.519C238.557 185.623 181.866 191.043 181.024 191.125L181.296 190.799C181.31 190.78 181.326 190.762 181.342 190.744C183.284 188.446 193.845 176.548 213.446 165.789C213.468 165.773 213.491 165.76 213.516 165.75C214.65 165.124 215.815 164.505 217.011 163.894C218.546 163.118 220.129 162.341 221.759 161.564C229.137 158.129 236.787 155.311 244.63 153.138C269.667 146.18 285.723 143.431 296.61 138.543C298.608 137.628 300.225 136.047 301.183 134.07C302.142 132.093 302.382 129.844 301.864 127.709C299.197 116.806 294.78 106.408 288.786 96.9179C288.144 95.8824 287.497 94.8819 286.845 93.9164L288.056 93.897C290.172 93.8737 293.209 93.8698 296.8 93.9591C305.032 94.1571 316.145 94.8366 325.534 96.8363C333.331 98.4943 339.955 101.061 342.793 105.025C343.634 106.183 344.339 107.434 344.894 108.753C349.775 120.561 338.041 133.805 300.194 153.519Z" fill="#FFA900"/>
<path d="M350.272 123.592C348.796 127.265 344.393 132.771 336.616 139.26C333.634 141.749 330.158 144.381 326.155 147.115C306.508 160.542 274.221 176.326 226.33 188.817C223.451 189.568 220.517 190.306 217.527 191.031C215.756 191.46 213.965 191.88 212.153 192.289C210.683 192.63 209.198 192.968 207.699 193.302C198.21 195.422 188.183 197.397 177.618 199.227C174.931 199.686 172.213 200.136 169.464 200.579C169.978 198.296 170.207 195.959 170.148 193.62L181.02 191.104C181.765 191.034 238.518 185.633 300.194 153.502C338.041 133.789 349.775 120.544 344.906 108.725C348.462 109.715 354.547 112.961 350.272 123.592Z" fill="#F3CF7A"/>
<path d="M350.346 123.406C354.469 112.922 348.443 109.707 344.91 108.74C345.369 109.84 345.683 110.995 345.842 112.177C348.831 113.532 352.074 116.572 350.346 123.406Z" fill="#EBB44E"/>
<path d="M336.616 139.26C335.956 142.409 335.179 145.453 334.309 148.392C324.552 181.436 303.285 200.831 303.285 200.831C302.804 204.011 294.56 205.972 282.317 207.106C288.051 203.84 293.339 199.848 298.051 195.228C298.939 194.366 299.803 193.488 300.645 192.595C303.714 189.329 306.551 185.854 309.137 182.193C309.688 181.416 310.226 180.64 310.752 179.863C312.724 176.924 314.491 173.992 316.056 171.138C316.436 170.445 316.808 169.754 317.17 169.065C319.155 165.274 320.949 161.386 322.544 157.416C322.808 156.768 323.053 156.143 323.286 155.529C323.367 155.316 323.445 155.106 323.527 154.896C324.75 151.65 325.604 148.975 326.148 147.13C330.159 144.381 333.634 141.749 336.616 139.26Z" fill="#F3CF7A"/>
<path d="M231.043 208.4C221.592 208.287 212.203 208.054 203.576 207.774C194.948 207.495 187.163 207.176 180.771 206.889C175.013 206.629 170.423 206.392 167.5 206.233C168.375 204.437 169.037 202.545 169.472 200.595C173.849 199.896 178.132 199.171 182.321 198.42C194.844 196.176 206.58 193.717 217.527 191.043C220.082 194.518 226.659 203.379 231.043 208.4Z" fill="#FFA900"/>
<path d="M231.043 208.4C221.592 208.287 212.203 208.054 203.576 207.774C222.159 206.089 217.628 191.354 217.531 191.039C220.082 194.518 226.66 203.379 231.043 208.4Z" fill="#FF9100"/>
<path d="M326.155 147.115C323.258 156.92 311.454 190.631 282.305 207.11C270.808 208.178 255.774 208.519 240.3 208.469C234.185 201.697 228.776 192.98 226.322 188.818C258.224 180.497 283.195 170.716 302.124 161.14C310.43 156.991 318.457 152.306 326.155 147.115Z" fill="#FFA900"/>
<path d="M326.155 147.115C323.259 156.92 311.455 190.631 282.306 207.11C270.808 208.178 255.774 208.519 240.3 208.469C288.017 199.771 302.132 161.144 302.132 161.144C310.435 156.993 318.46 152.307 326.155 147.115Z" fill="#FF9100"/>
<path d="M240.3 208.47C237.225 208.47 234.13 208.439 231.043 208.4C230.5 207.779 229.921 207.099 229.327 206.377C229.117 206.125 228.904 205.864 228.694 205.6C226.923 203.434 225.005 200.98 223.223 198.646C223.021 198.378 222.835 198.118 222.621 197.869C221.996 197.042 221.39 196.243 220.823 195.481C219.464 193.672 218.307 192.103 217.527 191.039C220.519 190.312 223.453 189.574 226.329 188.826C227.021 189.991 227.945 191.544 229.047 193.284C229.409 193.855 229.789 194.449 230.185 195.054L230.729 195.878C232.22 198.13 233.928 200.584 235.777 203.014C235.982 203.278 236.188 203.546 236.398 203.791C237.656 205.41 238.945 206.987 240.3 208.47Z" fill="#F3CF7A"/>
<path d="M219.185 280.249C180.076 280.249 151.529 273.904 156.639 263.863C156.639 263.863 158.192 266.282 166.525 268.74C172.05 270.375 180.558 272.025 193.573 273.011C196.125 273.206 198.85 273.369 201.766 273.505C210.251 273.893 220.307 274.017 232.216 273.741C237.675 273.617 242.591 273.435 247.01 273.209C249.599 273.077 252.016 272.931 254.263 272.771C264.891 271.994 272.02 270.957 276.784 269.843C279.782 269.144 281.832 268.418 283.245 267.723C283.478 267.61 283.692 267.494 283.89 267.381L284.037 267.296L284.309 267.125C284.391 267.074 284.468 267.024 284.542 266.97C284.616 266.915 284.709 266.853 284.787 266.795L284.946 266.671C285.156 266.5 285.35 266.311 285.528 266.108C285.575 266.049 285.622 265.995 285.664 265.937C285.742 265.835 285.81 265.727 285.87 265.614C285.889 265.582 285.906 265.548 285.921 265.514L285.979 265.381C286.033 265.242 286.069 265.096 286.084 264.947C286.087 264.891 286.087 264.835 286.084 264.78C286.088 264.718 286.088 264.655 286.084 264.593C286.086 264.556 286.086 264.518 286.084 264.481C286.06 264.363 286.021 264.25 285.967 264.143L285.944 264.092C285.91 264.027 285.87 263.966 285.823 263.91C286.573 264.558 303.696 280.249 219.185 280.249Z" fill="#F3CF7A"/>
<path d="M166.525 268.741C158.204 266.283 156.628 263.864 156.628 263.864L148.765 230.979L147.382 225.198C150.503 223.343 153.512 221.308 156.395 219.102L157.792 225.854L166.525 268.741Z" fill="#F3CF7A"/>
<path d="M201.766 273.493C198.85 273.357 196.124 273.194 193.573 273L188.634 218.496L188.04 211.926C191.069 212.076 194.105 212.205 197.149 212.314L197.646 218.915L201.766 273.493Z" fill="#F3CF7A"/>
<path d="M264.254 212.74L263.31 218.409L254.263 272.77C252.006 272.93 249.588 273.077 247.01 273.209L254.679 218.941L255.517 212.989C258.515 212.908 261.427 212.826 264.254 212.74Z" fill="#F3CF7A"/>
<path d="M300.986 213.723L285.777 263.863C285.785 263.873 285.793 263.883 285.8 263.894C285.847 263.951 285.887 264.012 285.921 264.077L285.944 264.127C285.998 264.234 286.037 264.348 286.06 264.465C286.062 264.503 286.062 264.54 286.06 264.578C286.064 264.64 286.064 264.702 286.06 264.764C286.064 264.82 286.064 264.875 286.06 264.931C286.045 265.08 286.01 265.226 285.955 265.366L285.897 265.498C285.883 265.533 285.866 265.566 285.847 265.599C285.787 265.712 285.718 265.82 285.641 265.921C285.598 265.979 285.552 266.034 285.505 266.092C285.327 266.296 285.132 266.484 284.923 266.655L284.763 266.779C284.686 266.838 284.608 266.896 284.519 266.954C284.429 267.012 284.367 267.059 284.286 267.109L284.014 267.28L283.866 267.366C283.668 267.478 283.455 267.591 283.222 267.707C281.82 268.402 279.758 269.128 276.761 269.827L291.376 215.366L292.591 210.831C293.306 210.748 294 210.662 294.673 210.574C298.291 210.097 300.804 209.409 302.508 208.633L300.986 213.723Z" fill="#F3CF7A"/>
<path d="M212.153 192.289C198.951 198.319 188.829 203.841 183.319 206.986L181.541 206.912C186.181 204.217 195.383 199.096 207.7 193.302C209.204 192.979 210.688 192.641 212.153 192.289Z" fill="#9D8221"/>
<path d="M223.223 198.648C214.094 202.278 207.785 205.742 204.387 207.819L202.667 207.761C205.653 205.866 212.332 201.987 222.613 197.879C222.823 198.112 223.025 198.38 223.223 198.648Z" fill="#9D8221"/>
<path d="M323.29 155.51C323.057 156.123 322.812 156.748 322.548 157.397C305.999 171.026 265.435 185.827 241.116 192.638C237.392 193.679 233.933 194.766 230.733 195.869L230.189 195.045C233.474 193.908 237.031 192.79 240.856 191.718C265.811 184.729 307.941 169.321 323.29 155.51Z" fill="#9D8221"/>
<path d="M317.17 169.061C316.808 169.749 316.437 170.44 316.056 171.134C309.692 175.704 299.647 181.536 283.968 187.908C266.475 195.029 254.912 198.365 245.62 201.044C242.285 202.007 239.268 202.877 236.406 203.797C236.196 203.533 235.99 203.265 235.785 203.02C238.755 202.05 241.881 201.149 245.356 200.147C254.625 197.468 266.161 194.144 283.61 187.042C300.641 180.1 311 173.767 317.17 169.061Z" fill="#9D8221"/>
<path d="M229.327 206.376C227.902 206.963 226.481 207.599 225.056 208.318C224.373 208.318 223.693 208.318 223.014 208.283C224.955 207.269 226.827 206.4 228.71 205.611C228.904 205.879 229.118 206.124 229.327 206.376Z" fill="#9D8221"/>
<path d="M310.752 179.863C310.234 180.64 309.696 181.416 309.137 182.193C295.383 191.574 264.891 204.194 254.508 208.375L251.848 208.41C259.039 205.556 297.538 189.959 310.752 179.863Z" fill="#9D8221"/>
<path d="M300.637 192.596C299.798 193.489 298.934 194.366 298.043 195.228C291.71 198.905 282.492 203.969 273.717 207.739C272.781 207.793 271.841 207.844 270.878 207.89C281.84 203.46 294.044 196.521 300.637 192.596Z" fill="#9D8221"/>
<path d="M88.8438 261.738L88.7467 263.679L88.7001 264.638C88.6536 265.675 88.2122 266.655 87.4664 267.377C86.7207 268.099 85.727 268.508 84.6891 268.521C83.9901 268.521 83.2951 268.521 82.604 268.521C77.932 268.352 73.286 267.748 68.7264 266.715C68.3244 266.611 67.9665 266.38 67.7052 266.058C67.4439 265.735 67.2931 265.337 67.2748 264.922C67.2566 264.507 67.3719 264.097 67.6038 263.752C67.8357 263.408 68.1721 263.147 68.5634 263.007C76.0923 260.631 84.6075 257.396 84.6075 257.396L88.8438 261.738Z" fill="#384B61"/>
<path d="M116.991 260.282C116.962 261.267 116.569 262.206 115.888 262.919C115.682 263.136 115.473 263.354 115.267 263.563C111.68 267.152 107.734 270.362 103.49 273.142C103.148 273.377 102.739 273.493 102.325 273.472C101.952 273.446 101.594 273.311 101.296 273.084C100.924 272.821 100.66 272.433 100.553 271.99C100.445 271.548 100.501 271.081 100.71 270.677C104.228 263.606 107.82 255.238 107.82 255.238H113.916L115.43 256.85L115.896 257.347C116.36 257.839 116.694 258.44 116.867 259.094C116.968 259.481 117.01 259.882 116.991 260.282Z" fill="#384B61"/>
<path d="M198.276 60.2249L198.198 60.256C197.134 60.6093 195.041 59.5376 193.473 56.8002C193.416 56.7021 193.384 56.5918 193.379 56.4787C193.374 56.3656 193.396 56.2529 193.443 56.1501C193.491 56.0474 193.562 55.9575 193.652 55.8882C193.742 55.8189 193.846 55.7721 193.958 55.7518L195.849 55.4023C195.849 55.4023 197.01 57.8874 198.276 60.2249Z" fill="#16449E"/>
<path d="M252.873 68.1412C237.994 77.6738 230.026 47.2124 228.139 42.8558C226.252 38.4991 223.309 37.874 212.134 40.1843C200.959 42.4947 200.749 34.0959 202.326 29.1646C202.885 27.4173 201.774 27.0679 200.104 27.3436C202.159 26.2408 204.162 25.7127 205.906 25.969C207.603 24.4397 209.715 23.4482 211.976 23.1199C214.237 22.7916 216.544 23.1412 218.607 24.1246C232.876 30.6168 236.662 57.0478 247.756 66.2852C249.2 67.4683 251.006 68.123 252.873 68.1412Z" fill="#16449E"/>
<path d="M202.586 119.023C201.714 119.08 200.84 119.06 199.972 118.965C197.996 118.74 196.497 118.08 195.379 117.066C193.049 114.95 192.389 111.285 192.517 106.781C196.295 104.385 203.945 113.844 210.821 109.305C218.909 103.962 216.389 77.1075 209.963 79.0179C203.537 80.9283 199.611 62.5 199.611 62.5C200.508 64.1114 201.483 65.7422 202.535 67.342C203.936 69.4773 206.09 71.007 208.568 71.6272C211.045 72.2473 213.666 71.9124 215.908 70.689C216.545 72.2888 217.651 74.9098 218.568 77.0648C217.947 79.5878 217.669 82.1829 217.74 84.7801C217.787 87.5214 218.672 92.2392 218.905 97.318C219.387 107.084 217.476 118.173 202.586 119.023Z" fill="#16449E"/>
<path d="M209.823 45.6311C206.476 45.5107 203.193 44.6767 200.194 43.1849C199.569 42.8716 198.858 42.7778 198.174 42.9187C197.49 43.0596 196.873 43.427 196.423 43.9614C195.366 45.2096 194.109 46.2738 192.704 47.1105L192.284 46.1164C192.035 45.5168 192.032 44.8429 192.277 44.2414C192.522 43.6399 192.995 43.1597 193.593 42.9053C194.433 42.5242 195.217 42.029 195.923 41.4337C199.468 38.5254 204.55 45.1613 209.823 45.6311Z" fill="#16449E"/>
<path d="M218.424 44.2611L208.375 51.2736C205.136 49.1489 202.353 46.3992 200.19 43.1855C203.189 44.6774 206.472 45.5114 209.82 45.6318H210.779C213.386 45.6059 215.97 45.1426 218.424 44.2611Z" fill="#ED8B7B"/>
<path d="M238.041 76.9672C227.704 78.2136 224.59 72.8863 223.344 68.1336C222.179 63.6954 225.328 56.0617 215.636 54.2445C213.734 53.8779 211.896 53.2343 210.181 52.3341L221.247 46.2185L224.136 42.2773C224.367 42.3758 224.573 42.5259 224.738 42.7161C225.771 43.9082 225.705 47.6979 225.825 52.7845C225.891 55.421 225.759 59.168 226.097 62.9344C226.753 70.1799 229.156 77.4875 238.041 76.9672Z" fill="#ED8B7B"/>
<path d="M219.387 71.3748L217.857 75.3819C217.162 73.7356 216.452 72.0504 215.974 70.8545L216.195 70.5244C216.584 70.2876 217.007 70.0391 217.43 69.775C217.667 69.6254 217.944 69.5539 218.223 69.5708C218.502 69.5877 218.769 69.692 218.986 69.869C219.202 70.0461 219.358 70.2868 219.43 70.5571C219.502 70.8273 219.487 71.1134 219.387 71.3748Z" fill="#ED8B7B"/>
<path d="M202.329 124.424C201.23 122.757 200.433 120.909 199.976 118.965C200.844 119.06 201.718 119.079 202.589 119.023C217.48 118.173 219.391 107.083 218.921 97.3138C220.388 97.7953 222.415 97.8769 224.815 96.5605C227.114 106.905 219.2 128.42 202.329 124.424Z" fill="#846715"/>
<path d="M224.811 96.5605C222.396 97.8768 220.385 97.7953 218.917 97.3138C218.672 92.2349 217.787 87.5172 217.752 84.7759C217.681 82.1786 217.959 79.5836 218.579 77.0605C218.23 82.8026 219.92 88.4833 223.351 93.1008C224.078 94.1375 224.575 95.3168 224.811 96.5605Z" fill="#ED8B7B"/>
<path d="M278.368 135.879C278.368 135.879 275.876 137.218 271.767 139.261C251.576 124.012 244.346 94.1878 244.125 93.2598C246.971 101.111 252.279 109.304 258.573 116.821C264.472 123.863 271.108 130.252 278.368 135.879Z" fill="#846715"/>
<path d="M296.614 138.531C290.133 141.451 281.824 143.602 270.874 146.332C298.901 137.374 292.723 130.23 281.3 102.067C280.471 100.037 279.599 98.1439 278.683 96.3862C282.051 95.9238 285.476 96.1003 288.778 96.9065C294.772 106.396 299.189 116.795 301.856 127.698C302.375 129.831 302.136 132.079 301.18 134.056C300.224 136.032 298.609 137.615 296.614 138.531Z" fill="#ED8B7B"/>
<path d="M288.79 96.9047C285.488 96.0985 282.063 95.922 278.695 96.3844C266.933 73.8014 248.684 73.1375 248.684 73.1375C250.256 71.9781 251.648 70.5924 252.815 69.0255C253.036 68.7265 253.246 68.4275 253.44 68.1363C257.323 68.0004 265.167 68.9789 273.375 77.331C278.37 82.4274 282.883 87.9751 286.856 93.9032C287.506 94.8791 288.151 95.8796 288.79 96.9047Z" fill="#846715"/>
<path d="M280.019 134.92L278.368 135.879C276.295 134.291 274.179 132.547 272.066 130.676L279.393 131.724C279.748 131.775 280.078 131.934 280.337 132.181C280.596 132.427 280.773 132.749 280.842 133.1C280.91 133.451 280.868 133.815 280.72 134.141C280.573 134.467 280.328 134.739 280.019 134.92Z" fill="#ED8B7B"/>
<path d="M230.741 157.731C227.595 158.95 224.603 160.225 221.763 161.555C221.04 161.105 220.447 160.473 220.043 159.723C219.871 159.415 219.62 159.158 219.315 158.979C219.011 158.8 218.664 158.706 218.311 158.705H216.242C216.075 158.708 215.909 158.677 215.753 158.615C215.598 158.553 215.456 158.461 215.337 158.344C215.217 158.227 215.122 158.088 215.057 157.934C214.992 157.78 214.958 157.614 214.957 157.447C215.208 157.735 215.53 157.952 215.891 158.077C216.252 158.202 216.639 158.23 217.015 158.158C218.521 157.944 220.28 157.327 220.956 158.597C221.534 159.684 224.237 161.152 226.986 158.705C228.391 157.455 229.747 157.44 230.741 157.731Z" fill="#ED8B7B"/>
<path d="M181.016 191.125L170.144 193.641L170.404 190.391C170.444 189.895 170.605 189.416 170.875 188.997C171.144 188.578 171.512 188.233 171.947 187.99C172.381 187.748 172.869 187.616 173.367 187.608C173.865 187.599 174.357 187.714 174.8 187.941L181.016 191.125Z" fill="#ED8B7B"/>
<path d="M213.45 165.738C213.448 165.75 213.448 165.762 213.45 165.773C212.031 166.55 210.665 167.326 209.35 168.103L182.464 171.648C180.302 171.933 178.115 171.969 175.945 171.757L158.499 170.06L161.271 166.484L180.418 166.775L213.45 165.738Z" fill="#ED8B7B"/>
<path d="M161.287 166.5L139.155 166.162C138.229 166.798 137.399 167.564 136.693 168.437L142.203 168.853C143.269 168.933 144.295 169.292 145.179 169.894C146.063 170.496 146.772 171.32 147.237 172.283C147.701 173.246 147.905 174.314 147.826 175.381C147.747 176.447 147.389 177.474 146.788 178.358L118.575 219.859L158.414 170.053H158.499L161.287 166.5Z" fill="#E06855"/>
<path d="M213.372 136.927C212.337 136.689 211.335 136.498 210.367 136.353C206.006 135.7 201.567 135.777 197.231 136.582C196.454 131.223 195.651 126.172 195.375 122.037C195.24 120.383 195.24 118.72 195.375 117.066C196.493 118.08 197.992 118.74 199.968 118.965C200.681 122.114 202.325 124.976 204.686 127.177C207.909 130.125 211.415 131.534 213.372 136.927Z" fill="#846715"/>
<path d="M213.372 136.927C212.337 136.689 211.335 136.498 210.367 136.353C208.968 134.422 207.137 132.845 205.02 131.748C200.921 129.53 197.566 126.154 195.375 122.04C195.24 120.386 195.24 118.724 195.375 117.07C196.493 118.084 197.992 118.744 199.968 118.969C200.681 122.118 202.325 124.98 204.686 127.181C207.909 130.125 211.415 131.534 213.372 136.927Z" fill="#6B510E"/>
<path d="M289.652 148.577C276.388 151.323 238.223 154.46 221.763 161.554C229.141 158.119 236.79 155.3 244.634 153.128C269.67 146.17 285.726 143.421 296.614 138.532C298.611 137.618 300.228 136.036 301.187 134.06C302.146 132.083 302.386 129.834 301.868 127.699C299.2 116.796 294.784 106.398 288.79 96.9076C288.148 95.8722 287.501 94.8717 286.848 93.9061L288.06 93.8867C295.166 101.552 308.748 117.068 309.466 126.996C310.39 139.6 302.92 145.84 289.652 148.577Z" fill="#FF9100"/>
<path d="M300.194 153.521C238.556 185.624 181.866 191.045 181.023 191.126C181.103 191.009 181.194 190.9 181.295 190.8C181.31 190.781 181.325 190.763 181.342 190.746C183.105 188.917 193.379 180.868 245.297 169.079C325.223 150.927 335.264 120.244 334.992 108.758C334.868 103.384 330.333 99.4783 325.537 96.8418C333.334 98.4998 339.958 101.066 342.797 105.031C343.638 106.189 344.343 107.439 344.898 108.758C349.774 120.562 338.04 133.807 300.194 153.521Z" fill="#FF9100"/>
<path d="M182.321 198.42C182.064 201.285 181.544 204.119 180.767 206.889C175.009 206.628 170.419 206.392 167.496 206.232C168.371 204.436 169.033 202.544 169.468 200.594C173.851 199.895 178.135 199.171 182.321 198.42Z" fill="#FF9100"/>
<path d="M226.33 188.82C227.021 189.985 227.945 191.538 229.048 193.278C226.353 194.023 223.611 194.756 220.82 195.476C219.461 193.666 218.304 192.097 217.523 191.034C220.521 190.319 223.457 189.581 226.33 188.82Z" fill="#EBB44E"/>
<path d="M336.616 139.262C335.956 142.411 335.179 145.455 334.309 148.394C331.424 150.227 327.829 152.421 323.534 154.875C324.757 151.629 325.612 148.953 326.155 147.109C330.158 144.383 333.634 141.751 336.616 139.262Z" fill="#EBB44E"/>
<path d="M197.15 212.333L197.647 218.934C194.525 218.802 191.521 218.656 188.635 218.496L188.041 211.926C191.069 212.079 194.106 212.214 197.15 212.333Z" fill="#EBB44E"/>
<path d="M255.517 212.979C258.515 212.917 261.427 212.838 264.254 212.742L263.31 218.411C260.432 218.613 257.555 218.787 254.679 218.932L255.517 212.979Z" fill="#EBB44E"/>
<path d="M302.528 208.643L300.975 213.725C297.829 214.331 294.632 214.88 291.384 215.372L292.599 210.836C293.314 210.754 294.007 210.668 294.68 210.58C298.311 210.103 300.823 209.423 302.528 208.643Z" fill="#EBB44E"/>
<path d="M156.406 219.102L157.793 225.854C154.903 227.755 151.894 229.467 148.784 230.979L147.402 225.198C150.52 223.343 153.526 221.308 156.406 219.102Z" fill="#EBB44E"/>
<path d="M174.338 206.588C173.857 208.13 173.217 209.617 172.427 211.026C169.919 210.86 167.429 210.683 164.957 210.494C165.927 209.147 166.778 207.718 167.5 206.223C169.232 206.327 171.546 206.448 174.338 206.588Z" fill="#EBB44E"/>
<path d="M300.194 153.52C238.518 185.651 181.765 191.052 181.02 191.126L170.148 193.642C170.148 194.046 170.148 194.446 170.148 194.842V195.067C170.148 195.456 170.125 195.844 170.101 196.232C170.011 197.708 169.801 199.174 169.472 200.616C172.229 200.173 174.947 199.723 177.626 199.265L177.65 199.203C178.332 197.625 179.408 196.249 180.776 195.207C182.143 194.165 183.756 193.493 185.458 193.254C201.102 191.056 248.792 182.619 299.278 156.32C328.862 140.909 342.491 129.454 344.708 119.537C340.763 128.798 327.056 139.53 300.194 153.52Z" fill="#EBB44E"/>
<path d="M180.414 163.877L165.376 163.749L144.365 163.555C134.635 148.625 148.947 137.869 149.025 126.279C149.075 118.964 143.426 115.019 138.114 112.957L141.018 112.821L157.792 112.044C158.743 111.999 159.684 112.256 160.478 112.781C161.272 113.305 161.879 114.068 162.211 114.96L177.001 154.729L180.414 163.877Z" fill="#1A54C4"/>
<path d="M106.538 257.912H107.703C107.93 257.914 108.153 257.975 108.35 258.088C108.547 258.2 108.712 258.362 108.829 258.557C108.945 258.752 109.01 258.973 109.017 259.2C109.024 259.427 108.973 259.652 108.868 259.854L104.596 268.101C104.473 268.339 104.281 268.534 104.044 268.66C103.808 268.786 103.539 268.838 103.272 268.808L102.496 268.726C102.29 268.696 102.094 268.619 101.924 268.5C101.754 268.38 101.614 268.222 101.516 268.039C101.418 267.856 101.365 267.652 101.36 267.444C101.356 267.236 101.4 267.03 101.49 266.843L105.35 258.689C105.453 258.459 105.62 258.264 105.83 258.127C106.041 257.989 106.286 257.914 106.538 257.912Z" fill="#384B61"/>
<path d="M116.991 260.284C116.961 261.269 116.569 262.208 115.888 262.921C115.682 263.138 115.473 263.355 115.267 263.565C114.762 263.158 114.357 262.64 114.084 262.051C113.811 261.462 113.677 260.819 113.692 260.17C113.707 259.521 113.87 258.885 114.17 258.309C114.47 257.734 114.899 257.235 115.422 256.852L115.888 257.349C116.352 257.841 116.686 258.442 116.859 259.096C116.963 259.483 117.007 259.884 116.991 260.284Z" fill="#384B61"/>
<path d="M88.7463 263.667L88.6997 264.626C88.6532 265.663 88.2118 266.643 87.466 267.365C86.7202 268.087 85.7265 268.496 84.6886 268.509C83.9897 268.509 83.2947 268.509 82.6035 268.509C82.6087 267.193 83.135 265.933 84.0672 265.004C84.9995 264.076 86.2617 263.554 87.5775 263.554C87.9702 263.544 88.3627 263.582 88.7463 263.667Z" fill="#384B61"/>
<path d="M81.8658 257.955L82.6967 258.767C82.8597 258.925 82.9791 259.123 83.0435 259.341C83.1079 259.559 83.115 259.79 83.0643 260.011C83.0136 260.233 82.9067 260.438 82.7539 260.606C82.6011 260.774 82.4076 260.9 82.192 260.972L73.3855 263.9C73.1316 263.985 72.8578 263.991 72.6006 263.917C72.3433 263.842 72.1146 263.692 71.945 263.484L71.4557 262.89C71.3219 262.727 71.229 262.535 71.1848 262.328C71.1405 262.122 71.1461 261.908 71.2012 261.705C71.2563 261.501 71.3592 261.314 71.5014 261.158C71.6436 261.002 71.821 260.882 72.0188 260.809L80.4796 257.66C80.7149 257.573 80.97 257.555 81.2154 257.607C81.4607 257.659 81.6862 257.78 81.8658 257.955Z" fill="#384B61"/>
<g filter="url(#filter0_d_14998_5321)">
<path d="M169.797 13.2126C169.797 9.81141 167.032 7.04688 163.631 7.04688H13.256C9.85487 7.04688 7.09033 9.81141 7.09033 13.2126V18.0004H169.797V13.2126Z" fill="#D13333"/>
<path d="M7 18.002V90.9176C7 94.3188 9.76453 97.0833 13.1657 97.0833H163.541C166.942 97.0833 169.706 94.3188 169.706 90.9176V18.002H7Z" fill="#F2F2F2"/>
<rect x="44.1626" y="24.9277" width="88.8372" height="26.9848" rx="7.35949" fill="#D13333"/>
<path fill-rule="evenodd" clip-rule="evenodd" d="M58.2881 36.375C58.2881 34.6815 59.661 33.3086 61.3546 33.3086C62.6128 33.3086 63.6929 34.0663 64.1656 35.1483C64.2786 35.4069 64.1606 35.7082 63.9019 35.8212C63.6433 35.9342 63.342 35.8162 63.229 35.5575C62.913 34.8344 62.1921 34.3307 61.3546 34.3307C60.2255 34.3307 59.3103 35.246 59.3103 36.375V36.887C59.4317 36.8861 59.5609 36.8861 59.698 36.8861H63.0111C63.4225 36.8861 63.762 36.8861 64.0386 36.9087C64.3259 36.9322 64.59 36.9826 64.8381 37.1089C65.2227 37.3049 65.5354 37.6177 65.7314 38.0023C65.8578 38.2504 65.9082 38.5145 65.9317 38.8017C65.9542 39.0783 65.9542 39.4178 65.9542 39.8293V40.587C65.9542 40.9984 65.9542 41.3379 65.9317 41.6145C65.9082 41.9018 65.8578 42.1658 65.7314 42.4139C65.5354 42.7986 65.2227 43.1113 64.8381 43.3073C64.59 43.4337 64.3259 43.4841 64.0386 43.5075C63.762 43.5301 63.4225 43.5301 63.0111 43.5301H59.698C59.2866 43.5301 58.9471 43.5301 58.6705 43.5075C58.3832 43.4841 58.1191 43.4337 57.8711 43.3073C57.4864 43.1113 57.1737 42.7986 56.9777 42.4139C56.8513 42.1658 56.8009 41.9018 56.7775 41.6145C56.7549 41.3379 56.7549 40.9984 56.7549 40.587V39.8293C56.7549 39.4178 56.7549 39.0783 56.7775 38.8017C56.8009 38.5145 56.8513 38.2504 56.9777 38.0023C57.1737 37.6177 57.4864 37.3049 57.8711 37.1089C58.005 37.0407 58.1437 36.9946 58.2881 36.9629V36.375ZM61.8656 39.697C61.8656 39.4148 61.6368 39.186 61.3546 39.186C61.0723 39.186 60.8435 39.4148 60.8435 39.697V40.7192C60.8435 41.0015 61.0723 41.2303 61.3546 41.2303C61.6368 41.2303 61.8656 41.0015 61.8656 40.7192V39.697Z" fill="white"/>
<path d="M70.6671 38.9275V34.6001H71.7857V38.9471C71.7857 40.0069 72.3843 40.5073 73.3263 40.5073C74.2781 40.5073 74.8767 40.0069 74.8767 38.9471V34.6001H75.9953V38.9275C75.9953 40.6643 74.7393 41.4886 73.3165 41.4886C71.8838 41.4886 70.6671 40.6643 70.6671 38.9275ZM81.4848 39.9088C81.4848 40.8214 80.69 41.5082 79.4143 41.5082C78.1191 41.5082 77.2065 40.7428 77.1574 39.7616H78.3153C78.3546 40.2032 78.7765 40.5662 79.3947 40.5662C80.0424 40.5662 80.3858 40.2915 80.3858 39.9186C80.3858 38.8588 77.2457 39.4672 77.2457 37.485C77.2457 36.6215 78.0504 35.9248 79.326 35.9248C80.5526 35.9248 81.3572 36.5823 81.4161 37.6617H80.2975C80.2582 37.1907 79.8952 36.8669 79.2868 36.8669C78.6882 36.8669 78.3742 37.1122 78.3742 37.4752C78.3742 38.5644 81.4259 37.9561 81.4848 39.9088ZM84.9701 36.8669C84.2145 36.8669 83.6061 37.3771 83.4884 38.2308H86.4812C86.4616 37.3967 85.8041 36.8669 84.9701 36.8669ZM87.5017 39.8106C87.1975 40.7527 86.3438 41.5082 85.0191 41.5082C83.4687 41.5082 82.3207 40.4092 82.3207 38.7116C82.3207 37.014 83.4197 35.9248 85.0191 35.9248C86.5597 35.9248 87.6489 36.9944 87.6489 38.5841C87.6489 38.7705 87.6391 38.9471 87.6097 39.1336H83.4785C83.557 40.0265 84.1949 40.5662 85.0191 40.5662C85.706 40.5662 86.0887 40.2326 86.2948 39.8106H87.5017ZM89.8684 38.5743V41.4199H88.7498V36.0132H89.8684V36.7982C90.1824 36.2585 90.7221 35.9248 91.4875 35.9248V37.0827H91.2029C90.3787 37.0827 89.8684 37.4262 89.8684 38.5743ZM96.3525 41.4199V38.3976C96.3525 37.4065 95.8128 36.8963 94.9984 36.8963C94.1741 36.8963 93.6344 37.4065 93.6344 38.3976V41.4199H92.5158V36.0132H93.6344V36.6313C93.9975 36.1898 94.5961 35.9248 95.2437 35.9248C96.5095 35.9248 97.4613 36.7197 97.4613 38.2308V41.4199H96.3525ZM98.5154 38.692C98.5154 37.0239 99.6438 35.9248 101.067 35.9248C101.979 35.9248 102.607 36.3566 102.941 36.7982V36.0132H104.069V41.4199H102.941V40.6153C102.597 41.0765 101.95 41.5082 101.047 41.5082C99.6438 41.5082 98.5154 40.3602 98.5154 38.692ZM102.941 38.7116C102.941 37.5537 102.146 36.8963 101.302 36.8963C100.468 36.8963 99.6634 37.5243 99.6634 38.692C99.6634 39.8597 100.468 40.5368 101.302 40.5368C102.146 40.5368 102.941 39.8793 102.941 38.7116ZM113.202 41.4199V38.3976C113.202 37.4065 112.663 36.8963 111.848 36.8963C111.024 36.8963 110.484 37.4065 110.484 38.3976V41.4199H109.375V38.3976C109.375 37.4065 108.836 36.8963 108.021 36.8963C107.197 36.8963 106.657 37.4065 106.657 38.3976V41.4199H105.539V36.0132H106.657V36.6313C107.02 36.1898 107.609 35.9248 108.257 35.9248C109.11 35.9248 109.827 36.2879 110.2 36.9944C110.533 36.337 111.299 35.9248 112.084 35.9248C113.349 35.9248 114.311 36.7197 114.311 38.2308V41.4199H113.202ZM118.011 36.8669C117.256 36.8669 116.647 37.3771 116.529 38.2308H119.522C119.503 37.3967 118.845 36.8669 118.011 36.8669ZM120.543 39.8106C120.239 40.7527 119.385 41.5082 118.06 41.5082C116.51 41.5082 115.362 40.4092 115.362 38.7116C115.362 37.014 116.461 35.9248 118.06 35.9248C119.601 35.9248 120.69 36.9944 120.69 38.5841C120.69 38.7705 120.68 38.9471 120.651 39.1336H116.52C116.598 40.0265 117.236 40.5662 118.06 40.5662C118.747 40.5662 119.13 40.2326 119.336 39.8106H120.543Z" fill="white"/>
<rect x="44.1626" y="58.6836" width="88.8372" height="26.9848" rx="7.35949" fill="#D13333"/>
<path fill-rule="evenodd" clip-rule="evenodd" d="M58.2681 70.1309C58.2681 68.4374 59.641 67.0645 61.3345 67.0645C62.5928 67.0645 63.6729 67.8222 64.1456 68.9041C64.2586 69.1628 64.1406 69.4641 63.8819 69.5771C63.6232 69.6901 63.322 69.572 63.209 69.3134C62.893 68.5903 62.172 68.0866 61.3345 68.0866C60.2055 68.0866 59.2902 69.0019 59.2902 70.1309V70.6428C59.4117 70.642 59.5408 70.642 59.6779 70.642H62.9911C63.4025 70.642 63.742 70.642 64.0186 70.6646C64.3059 70.688 64.57 70.7384 64.818 70.8648C65.2027 71.0608 65.5154 71.3735 65.7114 71.7582C65.8378 72.0062 65.8882 72.2703 65.9116 72.5576C65.9342 72.8342 65.9342 73.1737 65.9342 73.5851V74.3428C65.9342 74.7543 65.9342 75.0938 65.9116 75.3704C65.8882 75.6576 65.8378 75.9217 65.7114 76.1698C65.5154 76.5544 65.2027 76.8671 64.818 77.0631C64.57 77.1895 64.3059 77.2399 64.0186 77.2634C63.742 77.286 63.4025 77.286 62.9911 77.286H59.678C59.2666 77.286 58.9271 77.286 58.6505 77.2634C58.3632 77.2399 58.0991 77.1895 57.8511 77.0631C57.4664 76.8671 57.1537 76.5544 56.9577 76.1698C56.8313 75.9217 56.7809 75.6576 56.7575 75.3704C56.7349 75.0938 56.7349 74.7543 56.7349 74.3428V73.5851C56.7349 73.1737 56.7349 72.8342 56.7575 72.5576C56.7809 72.2703 56.8313 72.0062 56.9577 71.7582C57.1537 71.3735 57.4664 71.0608 57.8511 70.8648C57.985 70.7965 58.1237 70.7505 58.2681 70.7188V70.1309ZM61.8456 73.4529C61.8456 73.1706 61.6168 72.9418 61.3345 72.9418C61.0523 72.9418 60.8235 73.1706 60.8235 73.4529V74.475C60.8235 74.7573 61.0523 74.9861 61.3345 74.9861C61.6168 74.9861 61.8456 74.7573 61.8456 74.475V73.4529Z" fill="white"/>
<path d="M71.7755 71.496H73.0119C73.8852 71.496 74.2777 71.0741 74.2777 70.3872C74.2777 69.6807 73.8852 69.2686 73.0119 69.2686H71.7755V71.496ZM75.4258 70.3872C75.4258 71.3587 74.788 72.4086 73.0119 72.4086H71.7755V75.1758H70.6568V68.356H73.0119C74.631 68.356 75.4258 69.2784 75.4258 70.3872ZM76.1198 72.4479C76.1198 70.7797 77.2483 69.6807 78.6711 69.6807C79.5837 69.6807 80.2117 70.1125 80.5453 70.554V69.769H81.6738V75.1758H80.5453V74.3711C80.2019 74.8323 79.5542 75.2641 78.6515 75.2641C77.2483 75.2641 76.1198 74.116 76.1198 72.4479ZM80.5453 72.4675C80.5453 71.3096 79.7505 70.6521 78.9066 70.6521C78.0725 70.6521 77.2679 71.2802 77.2679 72.4479C77.2679 73.6156 78.0725 74.2926 78.9066 74.2926C79.7505 74.2926 80.5453 73.6352 80.5453 72.4675ZM87.1761 73.6646C87.1761 74.5772 86.3812 75.2641 85.1056 75.2641C83.8103 75.2641 82.8977 74.4987 82.8487 73.5174H84.0066C84.0458 73.959 84.4678 74.3221 85.086 74.3221C85.7336 74.3221 86.077 74.0473 86.077 73.6744C86.077 72.6147 82.937 73.2231 82.937 71.2409C82.937 70.3774 83.7416 69.6807 85.0173 69.6807C86.2439 69.6807 87.0485 70.3381 87.1074 71.4175H85.9887C85.9495 70.9465 85.5864 70.6227 84.978 70.6227C84.3795 70.6227 84.0655 70.868 84.0655 71.2311C84.0655 72.3203 87.1172 71.7119 87.1761 73.6646ZM92.4178 73.6646C92.4178 74.5772 91.623 75.2641 90.3473 75.2641C89.052 75.2641 88.1395 74.4987 88.0904 73.5174H89.2483C89.2875 73.959 89.7095 74.3221 90.3277 74.3221C90.9753 74.3221 91.3188 74.0473 91.3188 73.6744C91.3188 72.6147 88.1787 73.2231 88.1787 71.2409C88.1787 70.3774 88.9834 69.6807 90.259 69.6807C91.4856 69.6807 92.2902 70.3381 92.3491 71.4175H91.2305C91.1912 70.9465 90.8281 70.6227 90.2197 70.6227C89.6212 70.6227 89.3072 70.868 89.3072 71.2311C89.3072 72.3203 92.3589 71.7119 92.4178 73.6646ZM94.6765 75.1758L92.9887 69.769H94.1269L95.2554 74.116L96.4035 69.769H97.5712L98.6702 74.0964L99.7888 69.769H100.888L99.2099 75.1758H98.0324L96.9432 71.182L95.854 75.1758H94.6765ZM106.876 72.4675C106.876 74.1651 105.619 75.2641 104.069 75.2641C102.528 75.2641 101.361 74.1651 101.361 72.4675C101.361 70.7699 102.578 69.6807 104.118 69.6807C105.659 69.6807 106.876 70.7699 106.876 72.4675ZM102.499 72.4675C102.499 73.6941 103.225 74.2926 104.069 74.2926C104.903 74.2926 105.727 73.6941 105.727 72.4675C105.727 71.2409 104.933 70.6521 104.099 70.6521C103.255 70.6521 102.499 71.2409 102.499 72.4675ZM109.1 72.3301V75.1758H107.981V69.769H109.1V70.554C109.414 70.0143 109.954 69.6807 110.719 69.6807V70.8386H110.435C109.61 70.8386 109.1 71.182 109.1 72.3301ZM111.374 72.4479C111.374 70.7797 112.503 69.6807 113.936 69.6807C114.642 69.6807 115.388 70.0143 115.8 70.5246V67.9144H116.928V75.1758H115.8V74.3613C115.457 74.852 114.809 75.2641 113.926 75.2641C112.503 75.2641 111.374 74.116 111.374 72.4479ZM115.8 72.4675C115.8 71.3096 115.005 70.6521 114.161 70.6521C113.327 70.6521 112.523 71.2802 112.523 72.4479C112.523 73.6156 113.327 74.2926 114.161 74.2926C115.005 74.2926 115.8 73.6352 115.8 72.4675Z" fill="white"/>
<path d="M18.9682 12.4887C18.9682 14.0411 17.7037 15.3056 16.1513 15.3056C14.599 15.3056 13.3345 14.0411 13.3345 12.4887C13.3345 10.9364 14.599 9.67188 16.1513 9.67188C17.7037 9.67188 18.9682 10.9364 18.9682 12.4887Z" fill="#ED534F"/>
<path d="M29.1108 12.4887C29.1108 14.0411 27.8462 15.3056 26.2939 15.3056C24.7416 15.3056 23.4771 14.0411 23.4771 12.4887C23.4771 10.9364 24.7416 9.67188 26.2939 9.67188C27.8462 9.67188 29.1108 10.9364 29.1108 12.4887Z" fill="#FFD54F"/>
<path d="M39.2616 12.4887C39.2616 14.0411 37.9971 15.3056 36.4448 15.3056C34.8925 15.3056 33.6279 14.0411 33.6279 12.4887C33.6279 10.9364 34.8925 9.67188 36.4448 9.67188C37.9971 9.67188 39.2616 10.9364 39.2616 12.4887Z" fill="#4CAF50"/>
</g>
<defs>
<filter id="filter0_d_14998_5321" x="4.38372" y="4.4306" width="180.239" height="107.479" filterUnits="userSpaceOnUse" color-interpolation-filters="sRGB">
<feFlood flood-opacity="0" result="BackgroundImageFix"/>
<feColorMatrix in="SourceAlpha" type="matrix" values="0 0 0 0 0 0 0 0 0 0 0 0 0 0 0 0 0 0 127 0" result="hardAlpha"/>
<feOffset dx="6.10465" dy="6.10465"/>
<feGaussianBlur stdDeviation="4.36047"/>
<feColorMatrix type="matrix" values="0 0 0 0 0.0941176 0 0 0 0 0.0509804 0 0 0 0 0.137255 0 0 0 0.25 0"/>
<feBlend mode="normal" in2="BackgroundImageFix" result="effect1_dropShadow_14998_5321"/>
<feBlend mode="normal" in="SourceGraphic" in2="effect1_dropShadow_14998_5321" result="shape"/>
</filter>
</defs>
</svg>
