<svg width="592" height="358" viewBox="0 0 592 358" fill="none" xmlns="http://www.w3.org/2000/svg">
<circle cx="179" cy="179" r="179" fill="#499DFF"/>
<circle cx="413" cy="179" r="179" fill="#78C927"/>
<mask id="mask0_11852_4700" style="mask-type:alpha" maskUnits="userSpaceOnUse" x="234" y="0" width="358" height="358">
<circle cx="413" cy="179" r="179" fill="#78C927"/>
</mask>
<g mask="url(#mask0_11852_4700)">
<circle cx="179" cy="179" r="179" fill="#E6B830"/>
</g>
<path d="M391.783 167.16C390.631 167.16 389.682 166.904 388.935 166.392C388.199 165.88 387.661 165.203 387.319 164.36C386.989 163.517 386.823 162.584 386.823 161.56C386.823 160.536 386.989 159.603 387.319 158.76C387.661 157.917 388.199 157.24 388.935 156.728C389.682 156.216 390.631 155.96 391.783 155.96C392.775 155.96 393.618 156.147 394.311 156.52C395.005 156.893 395.533 157.405 395.895 158.056C396.258 158.707 396.455 159.443 396.487 160.264H394.167C394.029 159.475 393.789 158.92 393.447 158.6C393.106 158.28 392.551 158.12 391.783 158.12C391.175 158.12 390.679 158.216 390.295 158.408C389.922 158.6 389.634 158.947 389.431 159.448C389.239 159.949 389.143 160.653 389.143 161.56C389.143 162.456 389.239 163.155 389.431 163.656C389.634 164.157 389.922 164.509 390.295 164.712C390.679 164.904 391.175 165 391.783 165C392.551 165 393.106 164.84 393.447 164.52C393.789 164.189 394.029 163.635 394.167 162.856H396.487C396.455 163.677 396.258 164.413 395.895 165.064C395.533 165.715 395.005 166.227 394.311 166.6C393.618 166.973 392.775 167.16 391.783 167.16ZM403.516 160.792H400.444V167H398.124V158.632H403.516V160.792ZM413.252 158.632V169.56H406.212V167.4H410.932V165.432C410.687 165.699 410.372 165.907 409.988 166.056C409.604 166.205 409.177 166.28 408.708 166.28C406.319 166.28 405.124 165.053 405.124 162.6V158.632H407.444V162.472C407.444 163.027 407.588 163.443 407.876 163.72C408.164 163.987 408.601 164.12 409.188 164.12C409.775 164.12 410.212 163.987 410.5 163.72C410.788 163.443 410.932 163.027 410.932 162.472V158.632H413.252ZM419.643 158.472C420.421 158.472 421.077 158.669 421.611 159.064C422.144 159.448 422.544 159.971 422.811 160.632C423.077 161.283 423.211 162.013 423.211 162.824C423.211 163.635 423.077 164.371 422.811 165.032C422.544 165.683 422.144 166.2 421.611 166.584C421.077 166.968 420.421 167.16 419.643 167.16C418.619 167.16 417.845 166.765 417.323 165.976V169.56H415.003V158.632H417.323V159.656C417.845 158.867 418.619 158.472 419.643 158.472ZM419.115 165C419.712 165 420.155 164.824 420.443 164.472C420.741 164.12 420.891 163.571 420.891 162.824C420.891 162.077 420.741 161.528 420.443 161.176C420.155 160.813 419.712 160.632 419.115 160.632C418.507 160.632 418.053 160.813 417.755 161.176C417.467 161.528 417.323 162.077 417.323 162.824C417.323 163.571 417.467 164.12 417.755 164.472C418.053 164.824 418.507 165 419.115 165ZM427.611 164.84H429.851V167H425.291V160.792H424.011V158.632H425.291V155.8H427.611V158.632H429.851V160.792H427.611V164.84ZM435.106 167.16C434.242 167.16 433.501 166.979 432.882 166.616C432.274 166.243 431.816 165.731 431.506 165.08C431.197 164.429 431.042 163.677 431.042 162.824C431.042 161.971 431.197 161.219 431.506 160.568C431.816 159.907 432.274 159.395 432.882 159.032C433.501 158.659 434.242 158.472 435.106 158.472C435.97 158.472 436.706 158.659 437.314 159.032C437.933 159.395 438.397 159.907 438.706 160.568C439.016 161.219 439.17 161.971 439.17 162.824C439.17 163.677 439.016 164.429 438.706 165.08C438.397 165.731 437.933 166.243 437.314 166.616C436.706 166.979 435.97 167.16 435.106 167.16ZM435.106 165C435.757 165 436.21 164.84 436.466 164.52C436.722 164.189 436.85 163.624 436.85 162.824C436.85 162.024 436.717 161.459 436.45 161.128C436.194 160.797 435.746 160.632 435.106 160.632C434.466 160.632 434.013 160.797 433.746 161.128C433.49 161.459 433.362 162.024 433.362 162.824C433.362 163.624 433.49 164.189 433.746 164.52C434.013 164.84 434.466 165 435.106 165ZM381.972 183.16C380.969 183.16 380.116 182.925 379.412 182.456C378.719 181.976 378.191 181.315 377.828 180.472C377.476 179.629 377.3 178.659 377.3 177.56C377.3 175.864 377.721 174.509 378.564 173.496C379.407 172.472 380.655 171.96 382.308 171.96C383.204 171.96 383.993 172.125 384.676 172.456C385.369 172.776 385.919 173.224 386.324 173.8C386.729 174.376 386.959 175.037 387.012 175.784H384.692C384.564 175.24 384.308 174.829 383.924 174.552C383.54 174.264 383.001 174.12 382.308 174.12C381.391 174.12 380.713 174.381 380.276 174.904C379.839 175.427 379.62 176.312 379.62 177.56C379.62 178.808 379.855 179.693 380.324 180.216C380.793 180.739 381.529 181 382.532 181C383.215 181 383.785 180.813 384.244 180.44C384.703 180.056 384.996 179.539 385.124 178.888H381.652V177.096H387.444V183H385.124V181.48H384.868C384.665 181.917 384.335 182.307 383.876 182.648C383.428 182.989 382.793 183.16 381.972 183.16ZM391.789 183.16C391.17 183.16 390.642 183.027 390.205 182.76C389.778 182.493 389.458 182.147 389.245 181.72C389.032 181.293 388.925 180.84 388.925 180.36C388.925 179.88 389.032 179.427 389.245 179C389.458 178.573 389.778 178.227 390.205 177.96C390.642 177.693 391.17 177.56 391.789 177.56C392.376 177.56 392.845 177.645 393.197 177.816C393.549 177.976 393.821 178.211 394.013 178.52V176.68H389.741V174.632H396.333V180.792H397.421V183H394.013V182.2C393.821 182.509 393.549 182.749 393.197 182.92C392.845 183.08 392.376 183.16 391.789 183.16ZM392.637 181.288C393.128 181.288 393.48 181.203 393.693 181.032C393.906 180.861 394.013 180.637 394.013 180.36C394.013 180.083 393.906 179.859 393.693 179.688C393.48 179.517 393.128 179.432 392.637 179.432C392.146 179.432 391.789 179.517 391.565 179.688C391.352 179.859 391.245 180.083 391.245 180.36C391.245 180.637 391.352 180.861 391.565 181.032C391.789 181.203 392.146 181.288 392.637 181.288ZM403.89 176.792H401.362V183H399.042V174.632H411.042V183H408.722V176.792H406.21V183H403.89V176.792ZM417.51 174.472C418.289 174.472 418.945 174.669 419.478 175.064C420.011 175.448 420.411 175.971 420.678 176.632C420.945 177.283 421.078 178.013 421.078 178.824C421.078 179.635 420.945 180.371 420.678 181.032C420.411 181.683 420.011 182.2 419.478 182.584C418.945 182.968 418.289 183.16 417.51 183.16C416.486 183.16 415.713 182.765 415.19 181.976V183H412.87V171.8H415.19V175.656C415.713 174.867 416.486 174.472 417.51 174.472ZM416.982 181C417.579 181 418.022 180.824 418.31 180.472C418.609 180.12 418.758 179.571 418.758 178.824C418.758 178.077 418.609 177.528 418.31 177.176C418.022 176.813 417.579 176.632 416.982 176.632C416.374 176.632 415.921 176.813 415.622 177.176C415.334 177.528 415.19 178.077 415.19 178.824C415.19 179.571 415.334 180.12 415.622 180.472C415.921 180.824 416.374 181 416.982 181ZM422.386 171.8H424.706V183H422.386V171.8ZM426.542 171.8H428.862V173.4H426.542V171.8ZM426.542 174.632H428.862V183H426.542V174.632ZM436.388 176.792H433.108V183H430.788V174.632H438.708V183H436.388V176.792ZM448.383 174.632V185.56H441.583V183.4H446.063V181.32C445.786 181.619 445.466 181.853 445.103 182.024C444.74 182.195 444.287 182.28 443.743 182.28C443.007 182.28 442.367 182.104 441.823 181.752C441.29 181.4 440.879 180.931 440.591 180.344C440.314 179.747 440.175 179.091 440.175 178.376C440.175 177.661 440.314 177.011 440.591 176.424C440.879 175.827 441.29 175.352 441.823 175C442.367 174.648 443.007 174.472 443.743 174.472C444.298 174.472 444.756 174.563 445.119 174.744C445.482 174.915 445.796 175.16 446.063 175.48V174.632H448.383ZM444.287 180.12C444.927 180.12 445.38 179.976 445.647 179.688C445.924 179.389 446.063 178.952 446.063 178.376C446.063 177.811 445.924 177.379 445.647 177.08C445.37 176.781 444.916 176.632 444.287 176.632C443.647 176.632 443.188 176.787 442.911 177.096C442.634 177.395 442.495 177.821 442.495 178.376C442.495 178.931 442.634 179.363 442.911 179.672C443.188 179.971 443.647 180.12 444.287 180.12Z" fill="white"/>
<path d="M271.225 175.16C270.414 175.16 269.513 175.027 268.521 174.76C267.54 174.483 266.782 174.141 266.249 173.736V171.432C266.974 171.923 267.796 172.307 268.713 172.584C269.63 172.861 270.468 173 271.225 173C271.982 173 272.526 172.925 272.857 172.776C273.188 172.627 273.353 172.339 273.353 171.912C273.353 171.645 273.262 171.432 273.081 171.272C272.9 171.112 272.612 170.973 272.217 170.856C271.833 170.739 271.23 170.584 270.409 170.392C269.428 170.168 268.654 169.928 268.089 169.672C267.524 169.416 267.102 169.096 266.825 168.712C266.548 168.317 266.409 167.821 266.409 167.224C266.409 166.104 266.782 165.283 267.529 164.76C268.276 164.227 269.316 163.96 270.649 163.96C271.3 163.96 272.02 164.045 272.809 164.216C273.609 164.387 274.276 164.605 274.809 164.872V167.048C274.02 166.76 273.225 166.536 272.425 166.376C271.625 166.205 270.964 166.12 270.441 166.12C269.897 166.12 269.476 166.184 269.177 166.312C268.878 166.44 268.729 166.685 268.729 167.048C268.729 167.357 268.905 167.597 269.257 167.768C269.62 167.939 270.228 168.12 271.081 168.312C272.286 168.589 273.188 168.84 273.785 169.064C274.393 169.288 274.857 169.603 275.177 170.008C275.508 170.413 275.673 170.979 275.673 171.704C275.673 172.877 275.268 173.747 274.457 174.312C273.657 174.877 272.58 175.16 271.225 175.16ZM277.222 163.8H279.542V166.632H285.142V175H282.822V168.792H279.542V175H277.222V163.8ZM289.469 175.16C288.85 175.16 288.322 175.027 287.885 174.76C287.458 174.493 287.138 174.147 286.925 173.72C286.711 173.293 286.605 172.84 286.605 172.36C286.605 171.88 286.711 171.427 286.925 171C287.138 170.573 287.458 170.227 287.885 169.96C288.322 169.693 288.85 169.56 289.469 169.56C290.055 169.56 290.525 169.645 290.877 169.816C291.229 169.976 291.501 170.211 291.693 170.52V168.68H287.421V166.632H294.013V172.792H295.101V175H291.693V174.2C291.501 174.509 291.229 174.749 290.877 174.92C290.525 175.08 290.055 175.16 289.469 175.16ZM290.317 173.288C290.807 173.288 291.159 173.203 291.373 173.032C291.586 172.861 291.693 172.637 291.693 172.36C291.693 172.083 291.586 171.859 291.373 171.688C291.159 171.517 290.807 171.432 290.317 171.432C289.826 171.432 289.469 171.517 289.245 171.688C289.031 171.859 288.925 172.083 288.925 172.36C288.925 172.637 289.031 172.861 289.245 173.032C289.469 173.203 289.826 173.288 290.317 173.288ZM301.954 168.792H298.882V175H296.562V166.632H301.954V168.792ZM307.143 175.16C305.49 175.16 304.359 174.728 303.751 173.864C303.143 173 302.839 171.992 302.839 170.84C302.839 169.528 303.138 168.472 303.735 167.672C304.332 166.872 305.276 166.472 306.567 166.472C307.836 166.472 308.764 166.856 309.351 167.624C309.938 168.381 310.231 169.395 310.231 170.664V171.592H305.239C305.324 172.083 305.522 172.44 305.831 172.664C306.151 172.888 306.668 173 307.383 173C308.162 173 308.93 172.925 309.687 172.776V174.904C309.132 175.021 308.674 175.091 308.311 175.112C307.948 175.144 307.559 175.16 307.143 175.16ZM307.895 170.04C307.863 169.539 307.74 169.181 307.527 168.968C307.314 168.744 306.983 168.632 306.535 168.632C306.108 168.632 305.783 168.749 305.559 168.984C305.346 169.208 305.218 169.56 305.175 170.04H307.895ZM317.274 163.8H319.594V175H317.274V173.976C316.751 174.765 315.978 175.16 314.954 175.16C314.175 175.16 313.519 174.968 312.986 174.584C312.453 174.2 312.053 173.683 311.786 173.032C311.519 172.371 311.386 171.635 311.386 170.824C311.386 170.013 311.519 169.283 311.786 168.632C312.053 167.971 312.453 167.448 312.986 167.064C313.519 166.669 314.175 166.472 314.954 166.472C315.978 166.472 316.751 166.867 317.274 167.656V163.8ZM315.498 173C316.095 173 316.538 172.824 316.826 172.472C317.125 172.12 317.274 171.571 317.274 170.824C317.274 170.077 317.125 169.528 316.826 169.176C316.538 168.813 316.095 168.632 315.498 168.632C314.89 168.632 314.437 168.813 314.138 169.176C313.85 169.528 313.706 170.077 313.706 170.824C313.706 171.571 313.85 172.12 314.138 172.472C314.437 172.824 314.89 173 315.498 173Z" fill="white"/>
<path d="M106.818 157.28H103.842V166H101.522V157.28H98.5303V155.12H106.818V157.28ZM112.563 159.792H109.491V166H107.171V157.632H112.563V159.792ZM116.234 166.16C115.616 166.16 115.088 166.027 114.65 165.76C114.224 165.493 113.904 165.147 113.69 164.72C113.477 164.293 113.37 163.84 113.37 163.36C113.37 162.88 113.477 162.427 113.69 162C113.904 161.573 114.224 161.227 114.65 160.96C115.088 160.693 115.616 160.56 116.234 160.56C116.821 160.56 117.29 160.645 117.642 160.816C117.994 160.976 118.266 161.211 118.458 161.52V159.68H114.186V157.632H120.778V163.792H121.866V166H118.458V165.2C118.266 165.509 117.994 165.749 117.642 165.92C117.29 166.08 116.821 166.16 116.234 166.16ZM117.082 164.288C117.573 164.288 117.925 164.203 118.138 164.032C118.352 163.861 118.458 163.637 118.458 163.36C118.458 163.083 118.352 162.859 118.138 162.688C117.925 162.517 117.573 162.432 117.082 162.432C116.592 162.432 116.234 162.517 116.01 162.688C115.797 162.859 115.69 163.083 115.69 163.36C115.69 163.637 115.797 163.861 116.01 164.032C116.234 164.203 116.592 164.288 117.082 164.288ZM128.743 154.8H131.063V166H128.743V164.976C128.22 165.765 127.447 166.16 126.423 166.16C125.644 166.16 124.988 165.968 124.455 165.584C123.921 165.2 123.521 164.683 123.255 164.032C122.988 163.371 122.855 162.635 122.855 161.824C122.855 161.013 122.988 160.283 123.255 159.632C123.521 158.971 123.921 158.448 124.455 158.064C124.988 157.669 125.644 157.472 126.423 157.472C127.447 157.472 128.22 157.867 128.743 158.656V154.8ZM126.967 164C127.564 164 128.007 163.824 128.295 163.472C128.593 163.12 128.743 162.571 128.743 161.824C128.743 161.077 128.593 160.528 128.295 160.176C128.007 159.813 127.564 159.632 126.967 159.632C126.359 159.632 125.905 159.813 125.607 160.176C125.319 160.528 125.175 161.077 125.175 161.824C125.175 162.571 125.319 163.12 125.607 163.472C125.905 163.824 126.359 164 126.967 164ZM132.893 154.8H135.213V156.4H132.893V154.8ZM132.893 157.632H135.213V166H132.893V157.632ZM140.095 163.84H142.335V166H137.775V159.792H136.495V157.632H137.775V154.8H140.095V157.632H142.335V159.792H140.095V163.84ZM144.409 154.8H146.729V156.4H144.409V154.8ZM144.409 157.632H146.729V166H144.409V157.632ZM152.262 166.16C151.398 166.16 150.657 165.979 150.038 165.616C149.43 165.243 148.972 164.731 148.662 164.08C148.353 163.429 148.198 162.677 148.198 161.824C148.198 160.971 148.353 160.219 148.662 159.568C148.972 158.907 149.43 158.395 150.038 158.032C150.657 157.659 151.398 157.472 152.262 157.472C153.126 157.472 153.862 157.659 154.47 158.032C155.089 158.395 155.553 158.907 155.862 159.568C156.172 160.219 156.326 160.971 156.326 161.824C156.326 162.677 156.172 163.429 155.862 164.08C155.553 164.731 155.089 165.243 154.47 165.616C153.862 165.979 153.126 166.16 152.262 166.16ZM152.262 164C152.913 164 153.366 163.84 153.622 163.52C153.878 163.189 154.006 162.624 154.006 161.824C154.006 161.024 153.873 160.459 153.606 160.128C153.35 159.797 152.902 159.632 152.262 159.632C151.622 159.632 151.169 159.797 150.902 160.128C150.646 160.459 150.518 161.024 150.518 161.824C150.518 162.624 150.646 163.189 150.902 163.52C151.169 163.84 151.622 164 152.262 164ZM163.24 159.792H159.96V166H157.64V157.632H165.56V166H163.24V159.792ZM169.891 166.16C169.272 166.16 168.744 166.027 168.307 165.76C167.88 165.493 167.56 165.147 167.347 164.72C167.133 164.293 167.027 163.84 167.027 163.36C167.027 162.88 167.133 162.427 167.347 162C167.56 161.573 167.88 161.227 168.307 160.96C168.744 160.693 169.272 160.56 169.891 160.56C170.477 160.56 170.947 160.645 171.299 160.816C171.651 160.976 171.923 161.211 172.115 161.52V159.68H167.843V157.632H174.435V163.792H175.523V166H172.115V165.2C171.923 165.509 171.651 165.749 171.299 165.92C170.947 166.08 170.477 166.16 169.891 166.16ZM170.739 164.288C171.229 164.288 171.581 164.203 171.795 164.032C172.008 163.861 172.115 163.637 172.115 163.36C172.115 163.083 172.008 162.859 171.795 162.688C171.581 162.517 171.229 162.432 170.739 162.432C170.248 162.432 169.891 162.517 169.667 162.688C169.453 162.859 169.347 163.083 169.347 163.36C169.347 163.637 169.453 163.861 169.667 164.032C169.891 164.203 170.248 164.288 170.739 164.288ZM176.987 154.8H179.307V166H176.987V154.8ZM107.972 182.16C106.969 182.16 106.116 181.925 105.412 181.456C104.719 180.976 104.191 180.315 103.828 179.472C103.476 178.629 103.3 177.659 103.3 176.56C103.3 174.864 103.721 173.509 104.564 172.496C105.407 171.472 106.655 170.96 108.308 170.96C109.204 170.96 109.993 171.125 110.676 171.456C111.369 171.776 111.919 172.224 112.324 172.8C112.729 173.376 112.959 174.037 113.012 174.784H110.692C110.564 174.24 110.308 173.829 109.924 173.552C109.54 173.264 109.001 173.12 108.308 173.12C107.391 173.12 106.713 173.381 106.276 173.904C105.839 174.427 105.62 175.312 105.62 176.56C105.62 177.808 105.855 178.693 106.324 179.216C106.793 179.739 107.529 180 108.532 180C109.215 180 109.785 179.813 110.244 179.44C110.703 179.056 110.996 178.539 111.124 177.888H107.652V176.096H113.444V182H111.124V180.48H110.868C110.665 180.917 110.335 181.307 109.876 181.648C109.428 181.989 108.793 182.16 107.972 182.16ZM117.789 182.16C117.17 182.16 116.642 182.027 116.205 181.76C115.778 181.493 115.458 181.147 115.245 180.72C115.032 180.293 114.925 179.84 114.925 179.36C114.925 178.88 115.032 178.427 115.245 178C115.458 177.573 115.778 177.227 116.205 176.96C116.642 176.693 117.17 176.56 117.789 176.56C118.376 176.56 118.845 176.645 119.197 176.816C119.549 176.976 119.821 177.211 120.013 177.52V175.68H115.741V173.632H122.333V179.792H123.421V182H120.013V181.2C119.821 181.509 119.549 181.749 119.197 181.92C118.845 182.08 118.376 182.16 117.789 182.16ZM118.637 180.288C119.128 180.288 119.48 180.203 119.693 180.032C119.906 179.861 120.013 179.637 120.013 179.36C120.013 179.083 119.906 178.859 119.693 178.688C119.48 178.517 119.128 178.432 118.637 178.432C118.146 178.432 117.789 178.517 117.565 178.688C117.352 178.859 117.245 179.083 117.245 179.36C117.245 179.637 117.352 179.861 117.565 180.032C117.789 180.203 118.146 180.288 118.637 180.288ZM129.89 175.792H127.362V182H125.042V173.632H137.042V182H134.722V175.792H132.21V182H129.89V175.792ZM143.51 173.472C144.289 173.472 144.945 173.669 145.478 174.064C146.011 174.448 146.411 174.971 146.678 175.632C146.945 176.283 147.078 177.013 147.078 177.824C147.078 178.635 146.945 179.371 146.678 180.032C146.411 180.683 146.011 181.2 145.478 181.584C144.945 181.968 144.289 182.16 143.51 182.16C142.486 182.16 141.713 181.765 141.19 180.976V182H138.87V170.8H141.19V174.656C141.713 173.867 142.486 173.472 143.51 173.472ZM142.982 180C143.579 180 144.022 179.824 144.31 179.472C144.609 179.12 144.758 178.571 144.758 177.824C144.758 177.077 144.609 176.528 144.31 176.176C144.022 175.813 143.579 175.632 142.982 175.632C142.374 175.632 141.921 175.813 141.622 176.176C141.334 176.528 141.19 177.077 141.19 177.824C141.19 178.571 141.334 179.12 141.622 179.472C141.921 179.824 142.374 180 142.982 180ZM148.386 170.8H150.706V182H148.386V170.8ZM152.542 170.8H154.862V172.4H152.542V170.8ZM152.542 173.632H154.862V182H152.542V173.632ZM162.388 175.792H159.108V182H156.788V173.632H164.708V182H162.388V175.792ZM174.383 173.632V184.56H167.583V182.4H172.063V180.32C171.786 180.619 171.466 180.853 171.103 181.024C170.74 181.195 170.287 181.28 169.743 181.28C169.007 181.28 168.367 181.104 167.823 180.752C167.29 180.4 166.879 179.931 166.591 179.344C166.314 178.747 166.175 178.091 166.175 177.376C166.175 176.661 166.314 176.011 166.591 175.424C166.879 174.827 167.29 174.352 167.823 174C168.367 173.648 169.007 173.472 169.743 173.472C170.298 173.472 170.756 173.563 171.119 173.744C171.482 173.915 171.796 174.16 172.063 174.48V173.632H174.383ZM170.287 179.12C170.927 179.12 171.38 178.976 171.647 178.688C171.924 178.389 172.063 177.952 172.063 177.376C172.063 176.811 171.924 176.379 171.647 176.08C171.37 175.781 170.916 175.632 170.287 175.632C169.647 175.632 169.188 175.787 168.911 176.096C168.634 176.395 168.495 176.821 168.495 177.376C168.495 177.931 168.634 178.363 168.911 178.672C169.188 178.971 169.647 179.12 170.287 179.12Z" fill="white"/>
</svg>
