<svg width="19" height="18" viewBox="0 0 19 18" fill="none" xmlns="http://www.w3.org/2000/svg">
<g clip-path="url(#clip0_12248_4846)">
<path d="M18.1924 9C18.1924 11.3869 17.2442 13.6761 15.5563 15.364C13.8685 17.0518 11.5793 18 9.19238 18C6.80543 18 4.51625 17.0518 2.82842 15.364C1.14059 13.6761 0.192383 11.3869 0.192383 9C0.192383 6.61305 1.14059 4.32387 2.82842 2.63604C4.51625 0.948212 6.80543 0 9.19238 0C11.5793 0 13.8685 0.948212 15.5563 2.63604C17.2442 4.32387 18.1924 6.61305 18.1924 9ZM13.7261 5.59125C13.6458 5.51117 13.5501 5.44812 13.4448 5.40587C13.3395 5.36361 13.2268 5.34303 13.1134 5.34534C12.9999 5.34765 12.8882 5.37281 12.7847 5.41931C12.6812 5.46582 12.5882 5.53271 12.5111 5.616L8.60401 10.5941L6.24938 8.23837C6.08944 8.08933 5.87788 8.0082 5.6593 8.01205C5.44071 8.01591 5.23215 8.10446 5.07756 8.25905C4.92297 8.41364 4.83442 8.6222 4.83056 8.84079C4.8267 9.05938 4.90784 9.27093 5.05688 9.43088L8.03363 12.4087C8.11382 12.4888 8.20932 12.5519 8.31441 12.5942C8.41951 12.6366 8.53206 12.6573 8.64535 12.6552C8.75863 12.6531 8.87034 12.6282 8.97379 12.582C9.07725 12.5358 9.17034 12.4692 9.24751 12.3863L13.7385 6.7725C13.8916 6.61331 13.9762 6.40043 13.9741 6.17958C13.972 5.95872 13.8834 5.74749 13.7273 5.59125H13.7261Z" fill="#25FF72"/>
</g>
<defs>
<clipPath id="clip0_12248_4846">
<rect width="18" height="18" fill="white" transform="translate(0.192383)"/>
</clipPath>
</defs>
</svg>
