<svg width="42" height="42" viewBox="0 0 42 42" fill="none" xmlns="http://www.w3.org/2000/svg">
<g clip-path="url(#clip0_12028_6695)">
<path d="M8.08528 24.2257C7.79681 22.887 7.81178 21.5007 8.12909 20.1685C8.44641 18.8364 9.05801 17.5921 9.919 16.5272C10.78 15.4623 11.8685 14.6037 13.1047 14.0145C14.3409 13.4252 15.6933 13.1202 17.0628 13.122H18.3753V17.0595C18.3753 17.5845 18.6903 18.057 19.189 18.267C19.6878 18.477 20.239 18.372 20.6065 17.9782L28.4815 10.1032C29.0065 9.60447 29.0065 8.76447 28.4815 8.26572L20.6065 0.390723C20.4298 0.200854 20.1982 0.0709519 19.9441 0.0191801C19.6899 -0.0325918 19.4259 -0.00364495 19.189 0.101973C18.6903 0.311973 18.3753 0.784473 18.3753 1.30947V5.24697H17.0628C6.93028 5.24697 -1.20722 14.172 0.157778 24.567C0.680153 28.6305 2.66728 32.1348 5.55215 34.731C5.80514 34.9479 6.1312 35.0605 6.46415 35.0459C6.79711 35.0313 7.11203 34.8905 7.34503 34.6522L10.9938 31.0035C11.1195 30.8813 11.2188 30.7347 11.2858 30.5727C11.3528 30.4107 11.3859 30.2367 11.3832 30.0614C11.3805 29.8862 11.342 29.7133 11.2701 29.5534C11.1981 29.3936 11.0943 29.2501 10.9649 29.1318C9.48857 27.8602 8.47581 26.1347 8.08528 24.2257ZM36.4484 7.26297C36.1954 7.04602 35.8694 6.93343 35.5364 6.94806C35.2034 6.96268 34.8885 7.10342 34.6555 7.34172L31.0068 10.9905C30.8811 11.1127 30.7817 11.2593 30.7148 11.4213C30.6478 11.5833 30.6146 11.7572 30.6173 11.9325C30.62 12.1078 30.6585 12.2807 30.7305 12.4405C30.8024 12.6004 30.9063 12.7438 31.0357 12.8621C32.51 14.1354 33.5223 15.8602 33.9153 17.7682C34.2037 19.1069 34.1888 20.4933 33.8715 21.8254C33.5541 23.1576 32.9425 24.4018 32.0816 25.4667C31.2206 26.5316 30.132 27.3902 28.8958 27.9795C27.6597 28.5687 26.3072 28.8737 24.9378 28.872H23.6253V24.9345C23.6253 24.4095 23.3103 23.937 22.8115 23.727C22.3128 23.517 21.7615 23.622 21.394 24.0157L13.519 31.8907C12.994 32.3895 12.994 33.2295 13.519 33.7282L21.394 41.6032C21.7615 41.997 22.3128 42.102 22.8115 41.892C23.3103 41.682 23.6253 41.2095 23.6253 40.6845V36.747H24.9378C35.0703 36.747 43.2078 27.822 41.8428 17.427C41.3204 13.3635 39.3333 9.85647 36.4484 7.26297Z" fill="white"/>
</g>
<defs>
<clipPath id="clip0_12028_6695">
<rect width="42" height="42" fill="white"/>
</clipPath>
</defs>
</svg>
