<svg width="32" height="32" viewBox="0 0 32 32" fill="none" xmlns="http://www.w3.org/2000/svg">
<g clip-path="url(#clip0_11676_33344)">
<path d="M28.2333 11.2273H18.0999V3.61398C18.0999 1.80065 16.6266 0.333984 14.8199 0.333984H3.61325C2.74388 0.335746 1.91063 0.681882 1.29589 1.29662C0.68115 1.91136 0.335014 2.74462 0.333252 3.61398V21.7873C0.333252 23.6007 1.80659 25.0673 3.61325 25.0673H11.2199V28.2273C11.2199 30.1207 12.7599 31.6607 14.6533 31.6607H28.2266C30.1199 31.6607 31.6599 30.1207 31.6599 28.2273V14.6607C31.6608 14.2101 31.5728 13.7638 31.401 13.3473C31.2292 12.9308 30.9769 12.5522 30.6586 12.2333C30.3403 11.9144 29.9623 11.6614 29.5461 11.4888C29.1299 11.3162 28.6838 11.2273 28.2333 11.2273ZM3.61325 23.074C3.27378 23.074 2.9482 22.9391 2.70816 22.6991C2.46811 22.459 2.33325 22.1335 2.33325 21.794V3.61398C2.33325 2.90732 2.90659 2.33398 3.61325 2.33398H14.8133C15.5199 2.33398 16.0933 2.90732 16.0933 3.61398V11.2207H14.9333C14.9333 11.194 14.9399 11.1607 14.9399 11.134C14.9399 9.16065 13.3333 7.55398 11.3599 7.55398C10.5733 7.55398 9.82659 7.80732 9.21325 8.26732C8.59412 7.80278 7.84061 7.55239 7.06659 7.55398C5.09325 7.55398 3.48659 9.16065 3.48659 11.134C3.48659 14.034 7.76659 17.3007 8.62659 17.9273C8.79901 18.0534 9.00739 18.1209 9.22102 18.1197C9.43465 18.1185 9.64225 18.0487 9.81325 17.9207C9.85325 17.894 10.4466 17.4473 11.2266 16.754V23.074H3.61325ZM12.7666 11.8007C12.0599 12.2673 11.5266 12.9807 11.3199 13.8473C11.3199 13.854 11.3199 13.8673 11.3133 13.874L11.2266 13.974C10.5066 14.7473 9.71992 15.4273 9.20659 15.854C7.49992 14.4873 5.49325 12.3873 5.49325 11.1407C5.49325 10.2673 6.19992 9.56065 7.07325 9.56065C7.59992 9.56065 8.09325 9.82065 8.38659 10.2607C8.75992 10.814 9.67325 10.814 10.0466 10.2607C10.3399 9.82065 10.8333 9.56065 11.3599 9.56065C12.2333 9.56065 12.9399 10.2673 12.9399 11.1407C12.9399 11.3207 12.8733 11.554 12.7666 11.8007ZM29.6666 28.234C29.6666 29.0273 29.0199 29.6673 28.2333 29.6673H14.6599C13.8666 29.6673 13.2266 29.0207 13.2266 28.234V14.6607C13.2266 14.5473 13.2399 14.434 13.2666 14.3207C13.4199 13.674 13.9933 13.2273 14.6599 13.2273H28.2333C29.0266 13.2273 29.6666 13.874 29.6666 14.6607V28.234Z" fill="white"/>
<path d="M16.7666 14.6602C15.5999 14.6602 14.6599 15.6068 14.6599 16.7668C14.6599 17.9268 15.6066 18.8735 16.7666 18.8735C17.9332 18.8735 18.8732 17.9268 18.8732 16.7668C18.8732 15.6068 17.9266 14.6602 16.7666 14.6602Z" fill="white"/>
<path d="M26.1267 18.8735C27.2902 18.8735 28.2334 17.9303 28.2334 16.7668C28.2334 15.6033 27.2902 14.6602 26.1267 14.6602C24.9632 14.6602 24.02 15.6033 24.02 16.7668C24.02 17.9303 24.9632 18.8735 26.1267 18.8735Z" fill="white"/>
<path d="M16.7666 24.0195C16.2079 24.0195 15.672 24.2415 15.2769 24.6366C14.8819 25.0316 14.6599 25.5675 14.6599 26.1262C14.6599 26.6849 14.8819 27.2208 15.2769 27.6158C15.672 28.0109 16.2079 28.2329 16.7666 28.2329C17.3253 28.2329 17.8611 28.0109 18.2562 27.6158C18.6513 27.2208 18.8732 26.6849 18.8732 26.1262C18.8732 25.5675 18.6513 25.0316 18.2562 24.6366C17.8611 24.2415 17.3253 24.0195 16.7666 24.0195Z" fill="white"/>
<path d="M26.1267 28.2329C27.2902 28.2329 28.2334 27.2897 28.2334 26.1262C28.2334 24.9627 27.2902 24.0195 26.1267 24.0195C24.9632 24.0195 24.02 24.9627 24.02 26.1262C24.02 27.2897 24.9632 28.2329 26.1267 28.2329Z" fill="white"/>
<path d="M21.4468 23.5532C22.6102 23.5532 23.5534 22.61 23.5534 21.4465C23.5534 20.283 22.6102 19.3398 21.4468 19.3398C20.2833 19.3398 19.3401 20.283 19.3401 21.4465C19.3401 22.61 20.2833 23.5532 21.4468 23.5532Z" fill="white"/>
</g>
<defs>
<clipPath id="clip0_11676_33344">
<rect width="32" height="32" fill="white"/>
</clipPath>
</defs>
</svg>
