<svg width="56" height="56" viewBox="0 0 56 56" fill="none" xmlns="http://www.w3.org/2000/svg">
<path d="M35.9811 13.416H41.6391C42.1411 13.416 42.548 13.8229 42.548 14.3249V19.9807M19.9106 13.416H14.2527C13.7506 13.416 13.3438 13.8229 13.3438 14.3249V19.9807M20.0025 43.1124H14.4244C13.9223 43.1124 13.5155 42.7055 13.5155 42.2035V35.9352M42.548 35.9626V42.2035C42.548 42.7055 42.1411 43.1124 41.6391 43.1124H35.9811" stroke="white" stroke-width="0.765625" stroke-linecap="round" stroke-linejoin="round"/>
<path d="M27.9288 4.88281L35.981 8.50094V17.4194L27.9288 20.8866L27.7878 20.8209L20.0024 17.3439V8.55125C22.4732 7.32078 25.1037 6.09687 27.9288 4.88281Z" stroke="white" stroke-width="0.765625" stroke-linecap="round" stroke-linejoin="round"/>
<path d="M27.9288 11.9922V20.5027" stroke="white" stroke-width="0.765625" stroke-linecap="round" stroke-linejoin="round"/>
<path d="M20.0024 8.55227L27.9288 11.9943L35.981 8.50195" stroke="white" stroke-width="0.765625" stroke-linecap="round" stroke-linejoin="round"/>
<path d="M27.9288 35.1074L35.981 38.7255V47.644L27.9288 51.1112L27.7878 51.0455L20.0024 47.5685V38.7759C22.4732 37.5454 25.1037 36.3215 27.9288 35.1074Z" stroke="white" stroke-width="0.765625" stroke-linecap="round" stroke-linejoin="round"/>
<path d="M27.9288 42.2168V50.7273" stroke="white" stroke-width="0.765625" stroke-linecap="round" stroke-linejoin="round"/>
<path d="M20.0024 38.7769L27.9288 42.2178L35.981 38.7266" stroke="white" stroke-width="0.765625" stroke-linecap="round" stroke-linejoin="round"/>
<path d="M13.3897 19.998L21.4419 23.6162V32.5346L13.3897 36.0018L13.2486 35.9362L5.46332 32.4591V23.6665C7.9341 22.436 10.5646 21.2121 13.3897 19.998Z" stroke="white" stroke-width="0.765625" stroke-linecap="round" stroke-linejoin="round"/>
<path d="M13.3897 27.1094V35.6198" stroke="white" stroke-width="0.765625" stroke-linecap="round" stroke-linejoin="round"/>
<path d="M5.46332 23.6675L13.3897 27.1095L21.4419 23.6172" stroke="white" stroke-width="0.765625" stroke-linecap="round" stroke-linejoin="round"/>
<path d="M42.4846 20.082L50.5368 23.7002V32.6186L42.4846 36.0858L42.3435 36.0202L34.5582 32.5431V23.7505C37.0289 22.52 39.6594 21.2961 42.4846 20.082Z" stroke="white" stroke-width="0.765625" stroke-linecap="round" stroke-linejoin="round"/>
<path d="M42.4846 27.1934V35.7038" stroke="white" stroke-width="0.765625" stroke-linecap="round" stroke-linejoin="round"/>
<path d="M34.5582 23.7515L42.4846 27.1935L50.5368 23.7012" stroke="white" stroke-width="0.765625" stroke-linecap="round" stroke-linejoin="round"/>
</svg>
