<svg width="28" height="28" viewBox="0 0 28 28" fill="none" xmlns="http://www.w3.org/2000/svg">
<path d="M12.25 10.5C12.25 10.0359 12.4344 9.59075 12.7626 9.26256C13.0908 8.93437 13.5359 8.75 14 8.75C14.4641 8.75 14.9092 8.93437 15.2374 9.26256C15.5656 9.59075 15.75 10.0359 15.75 10.5V12.25H12.25V10.5ZM10.5 14.525C10.5 14.4515 10.535 14.3377 10.6838 14.2188C10.8834 14.0708 11.1266 13.9939 11.375 14H16.625C16.8733 13.9943 17.1165 14.0712 17.3163 14.2188C17.465 14.3377 17.5 14.4515 17.5 14.525V18.725C17.5 18.7985 17.465 18.9122 17.3163 19.0312C17.1166 19.1792 16.8734 19.2561 16.625 19.25H11.375C11.1266 19.2561 10.8834 19.1792 10.6838 19.0312C10.535 18.9122 10.5 18.7985 10.5 18.725V14.525Z" fill="#051426"/>
<path d="M21 0H7C6.07174 0 5.1815 0.368749 4.52513 1.02513C3.86875 1.6815 3.5 2.57174 3.5 3.5V24.5C3.5 25.4283 3.86875 26.3185 4.52513 26.9749C5.1815 27.6313 6.07174 28 7 28H21C21.9283 28 22.8185 27.6313 23.4749 26.9749C24.1313 26.3185 24.5 25.4283 24.5 24.5V3.5C24.5 2.57174 24.1313 1.6815 23.4749 1.02513C22.8185 0.368749 21.9283 0 21 0ZM17.5 10.5V12.383C18.445 12.6735 19.25 13.4278 19.25 14.525V18.725C19.25 20.153 17.8833 21 16.625 21H11.375C10.1168 21 8.75 20.153 8.75 18.725V14.525C8.75 13.4278 9.555 12.6735 10.5 12.383V10.5C10.5 9.57174 10.8687 8.6815 11.5251 8.02513C12.1815 7.36875 13.0717 7 14 7C14.9283 7 15.8185 7.36875 16.4749 8.02513C17.1313 8.6815 17.5 9.57174 17.5 10.5Z" fill="#051426"/>
</svg>
