<svg width="42" height="42" viewBox="0 0 42 42" fill="none" xmlns="http://www.w3.org/2000/svg">
<path d="M39.5063 11.55L21.3938 0.2625C21.0657 0.065625 20.6063 0 20.2126 0.065625C19.8188 0.13125 19.4907 0.39375 19.2282 0.7875L16.8657 4.65937C16.6032 5.11875 16.9313 5.70937 17.4563 5.70937H24.6095C26.2501 5.70937 27.5626 7.02187 27.5626 8.6625V31.0406C27.5626 31.7625 28.4813 32.025 28.8751 31.4344L39.9657 13.7156C40.4251 12.9281 40.2282 12.0094 39.5063 11.55ZM24.6751 7.0875H3.34697C2.49385 7.0875 1.77197 7.80937 1.77197 8.6625V40.425C1.77197 41.2781 2.49385 42 3.34697 42H24.6095C25.4626 42 26.1845 41.2781 26.1845 40.425V8.6625C26.1845 7.80937 25.5282 7.0875 24.6751 7.0875ZM17.6532 30.5812H17.2595C16.7345 30.5156 16.3407 31.1062 16.5376 31.5656C16.8657 32.2875 17.2595 32.9438 17.7845 33.6C17.9157 33.7969 17.9813 34.125 17.8501 34.3219C17.7188 34.5844 17.522 34.7156 17.2595 34.7156H10.7626C10.5001 34.7156 10.2376 34.5844 10.1063 34.3219C9.9751 34.0594 10.0407 33.7969 10.172 33.6C10.6313 32.9438 11.0907 32.2875 11.4188 31.5656C11.6157 31.1062 11.222 30.5812 10.697 30.5812H10.3032C7.94072 30.5812 5.7751 28.9406 5.31572 26.6437C4.26572 21.7219 10.2376 16.6031 12.6657 14.7656C13.3876 14.175 14.5032 14.175 15.2907 14.7656C17.7188 16.6031 23.6907 21.7219 22.6407 26.6437C22.1157 29.0062 20.0157 30.6469 17.6532 30.5812ZM14.4376 15.8813C14.1751 15.6844 13.7813 15.6844 13.5188 15.8813C11.9438 17.1281 6.75947 21.3281 6.62822 25.3312C6.5626 27.3 8.1376 29.0719 10.1063 29.2031C10.9595 29.2687 11.8782 29.0063 12.5345 28.4813C12.797 28.2844 13.0595 28.2844 13.322 28.4156C13.5845 28.5469 13.7157 28.875 13.6501 29.1375C13.3876 30.2531 13.0595 31.3031 12.6001 32.2875C12.4032 32.7469 12.7313 33.2719 13.2563 33.2719H14.7657C15.2907 33.2719 15.6188 32.7469 15.422 32.2875C14.9626 31.3031 14.5688 30.2531 14.372 29.1375C14.3063 28.875 14.4376 28.5469 14.7001 28.4156C14.9626 28.2844 15.2907 28.2844 15.4876 28.4156C16.1438 28.875 16.9313 29.1375 17.7188 29.1375C19.7532 29.1375 21.3938 27.4969 21.4595 25.4625C21.3938 21.525 16.0782 17.1281 14.4376 15.8813Z" fill="white"/>
</svg>
