<svg width="33" height="32" viewBox="0 0 33 32" fill="none" xmlns="http://www.w3.org/2000/svg">
<g clip-path="url(#clip0_11852_4614)">
<path d="M28.9355 16.0003C28.9355 16.6097 28.8948 17.2191 28.8136 17.8253C28.8323 17.6878 28.8511 17.5472 28.8698 17.4097C28.7073 18.6003 28.3917 19.766 27.9292 20.8722C27.9823 20.7472 28.0355 20.6222 28.0855 20.5003C27.623 21.5941 27.023 22.6222 26.298 23.5628C26.3792 23.4566 26.4605 23.3535 26.5417 23.2472C25.8292 24.1628 25.0073 24.9878 24.0917 25.6972C24.198 25.616 24.3011 25.5347 24.4073 25.4535C23.4698 26.1753 22.448 26.7753 21.3573 27.2378C21.4823 27.1847 21.6073 27.1316 21.7292 27.0816C20.6136 27.5503 19.4417 27.8691 18.2417 28.0316C18.3792 28.0128 18.5198 27.9941 18.6573 27.9753C17.4511 28.1347 16.2261 28.1347 15.0198 27.9753C15.1573 27.9941 15.298 28.0128 15.4355 28.0316C14.2355 27.8691 13.0636 27.5503 11.948 27.0816C12.073 27.1347 12.198 27.1878 12.3198 27.2378C11.2323 26.7753 10.2073 26.1753 9.26983 25.4535C9.37608 25.5347 9.47921 25.616 9.58546 25.6972C8.66983 24.9847 7.84796 24.1628 7.13546 23.2472C7.21671 23.3535 7.29796 23.4566 7.37921 23.5628C6.65421 22.6222 6.05421 21.5941 5.59171 20.5003C5.64483 20.6253 5.69796 20.7503 5.74796 20.8722C5.28546 19.7628 4.96983 18.6003 4.80733 17.4097C4.82608 17.5472 4.84483 17.6878 4.86358 17.8253C4.70421 16.6128 4.70421 15.3878 4.86358 14.1753C4.84483 14.3128 4.82608 14.4535 4.80733 14.591C4.96983 13.391 5.28858 12.216 5.76046 11.1003C5.70733 11.2253 5.65421 11.3503 5.60421 11.4722C6.06046 10.3941 6.65421 9.38159 7.36671 8.45346C7.28546 8.55971 7.20421 8.66284 7.12296 8.76909C7.84171 7.83784 8.67921 7.00346 9.60733 6.28471C9.50108 6.36596 9.39796 6.44721 9.29171 6.52846C10.2198 5.81596 11.2323 5.22221 12.3105 4.76596C12.1855 4.81909 12.0605 4.87221 11.9386 4.92221C13.0542 4.45346 14.2292 4.13159 15.4292 3.96909C15.2917 3.98784 15.1511 4.00659 15.0136 4.02534C16.223 3.86596 17.4511 3.86596 18.6636 4.02534C18.5261 4.00659 18.3855 3.98784 18.248 3.96909C19.448 4.13159 20.623 4.45034 21.7386 4.92221C21.6136 4.86909 21.4886 4.81596 21.3667 4.76596C22.4448 5.22221 23.4573 5.81596 24.3855 6.52846C24.2792 6.44721 24.1761 6.36596 24.0698 6.28471C25.0011 7.00346 25.8355 7.84096 26.5542 8.76909C26.473 8.66284 26.3917 8.55971 26.3105 8.45346C27.023 9.38159 27.6167 10.3941 28.073 11.4722C28.0198 11.3472 27.9667 11.2222 27.9167 11.1003C28.3855 12.216 28.7073 13.391 28.8698 14.591C28.8511 14.4535 28.8323 14.3128 28.8136 14.1753C28.8948 14.7816 28.9355 15.391 28.9355 16.0003C28.9355 16.4003 29.1105 16.8222 29.3917 17.1066C29.6636 17.3785 30.1073 17.5816 30.498 17.5628C30.9011 17.5441 31.3198 17.4128 31.6042 17.1066C31.8855 16.8003 32.0636 16.4253 32.0605 16.0003C32.0573 13.0972 31.2198 10.1816 29.6292 7.74721C28.0855 5.38784 25.898 3.41596 23.3261 2.23471C21.998 1.62534 20.6167 1.17221 19.1667 0.969087C18.3636 0.856587 17.5636 0.775337 16.7542 0.781587C15.948 0.787837 15.1448 0.872212 14.348 0.994087C11.5136 1.42846 8.85108 2.75971 6.70733 4.65034C4.58233 6.52534 3.01046 9.04721 2.21983 11.766C1.80108 13.2035 1.60108 14.7285 1.62296 16.2253C1.65108 18.0378 1.99483 19.8753 2.67921 21.5566C3.02921 22.4191 3.42608 23.2566 3.92296 24.0441C4.36671 24.7472 4.87296 25.4191 5.41671 26.0472C6.41671 27.2003 7.62296 28.2003 8.92608 28.9972C11.6386 30.6597 14.923 31.4472 18.0948 31.1597C18.9511 31.0816 19.8105 30.9503 20.6417 30.7378C21.4761 30.5253 22.273 30.2222 23.0636 29.8785C24.4792 29.266 25.7698 28.4003 26.9292 27.3878C28.0917 26.3722 29.0948 25.1503 29.8917 23.8316C30.8042 22.3222 31.4636 20.6222 31.7823 18.8847C31.9573 17.9347 32.0605 16.966 32.0605 15.9972C32.0605 15.5972 31.8855 15.1753 31.6042 14.891C31.3323 14.6191 30.8886 14.416 30.498 14.4347C30.0948 14.4535 29.6761 14.5847 29.3917 14.891C29.1136 15.2003 28.9355 15.5753 28.9355 16.0003Z" fill="white"/>
<path d="M9.59187 17.2379L10.945 18.591L13.1044 20.7504L13.6012 21.2473C14.1981 21.8442 15.2137 21.8442 15.8106 21.2473L16.6356 20.4223L18.6169 18.441L21.0012 16.0567L23.0731 13.9848C23.4075 13.6504 23.7481 13.3192 24.0794 12.9785C24.0825 12.9723 24.0887 12.9692 24.095 12.9629C24.3794 12.6785 24.5512 12.2598 24.5512 11.8567C24.5512 11.4723 24.3825 11.016 24.095 10.7504C23.7981 10.4785 23.4075 10.2754 22.9887 10.2942C22.5731 10.3129 22.1825 10.4535 21.8825 10.7504L21.0575 11.5754L19.0762 13.5567L16.6919 15.941L14.62 18.0129C14.2856 18.3473 13.9419 18.6785 13.6137 19.0192C13.6106 19.0254 13.6044 19.0285 13.5981 19.0348H15.8075L14.4544 17.6817L12.295 15.5223L11.7981 15.0254C11.5137 14.741 11.095 14.5692 10.6919 14.5692C10.3075 14.5692 9.85125 14.7379 9.58562 15.0254C9.31375 15.3223 9.11062 15.7129 9.12937 16.1317C9.15437 16.5473 9.295 16.9379 9.59187 17.2379Z" fill="white"/>
</g>
<defs>
<clipPath id="clip0_11852_4614">
<rect width="32" height="32" fill="white" transform="translate(0.841797)"/>
</clipPath>
</defs>
</svg>
