<svg width="32" height="32" viewBox="0 0 32 32" fill="none" xmlns="http://www.w3.org/2000/svg">
<path d="M28 6C28.5304 6 29.0391 6.21071 29.4142 6.58579C29.7893 6.96086 30 7.46957 30 8V24C30 24.5304 29.7893 25.0391 29.4142 25.4142C29.0391 25.7893 28.5304 26 28 26H4C3.46957 26 2.96086 25.7893 2.58579 25.4142C2.21071 25.0391 2 24.5304 2 24V8C2 7.46957 2.21071 6.96086 2.58579 6.58579C2.96086 6.21071 3.46957 6 4 6H28ZM4 4C2.93913 4 1.92172 4.42143 1.17157 5.17157C0.421427 5.92172 0 6.93913 0 8L0 24C0 25.0609 0.421427 26.0783 1.17157 26.8284C1.92172 27.5786 2.93913 28 4 28H28C29.0609 28 30.0783 27.5786 30.8284 26.8284C31.5786 26.0783 32 25.0609 32 24V8C32 6.93913 31.5786 5.92172 30.8284 5.17157C30.0783 4.42143 29.0609 4 28 4H4Z" fill="white"/>
<path d="M4 11C4 10.7348 4.10536 10.4804 4.29289 10.2929C4.48043 10.1054 4.73478 10 5 10H9C9.26522 10 9.51957 10.1054 9.70711 10.2929C9.89464 10.4804 10 10.7348 10 11V13C10 13.2652 9.89464 13.5196 9.70711 13.7071C9.51957 13.8946 9.26522 14 9 14H5C4.73478 14 4.48043 13.8946 4.29289 13.7071C4.10536 13.5196 4 13.2652 4 13V11ZM4 17C4 16.7348 4.10536 16.4804 4.29289 16.2929C4.48043 16.1054 4.73478 16 5 16H15C15.2652 16 15.5196 16.1054 15.7071 16.2929C15.8946 16.4804 16 16.7348 16 17C16 17.2652 15.8946 17.5196 15.7071 17.7071C15.5196 17.8946 15.2652 18 15 18H5C4.73478 18 4.48043 17.8946 4.29289 17.7071C4.10536 17.5196 4 17.2652 4 17ZM4 21C4 20.7348 4.10536 20.4804 4.29289 20.2929C4.48043 20.1054 4.73478 20 5 20H7C7.26522 20 7.51957 20.1054 7.70711 20.2929C7.89464 20.4804 8 20.7348 8 21C8 21.2652 7.89464 21.5196 7.70711 21.7071C7.51957 21.8946 7.26522 22 7 22H5C4.73478 22 4.48043 21.8946 4.29289 21.7071C4.10536 21.5196 4 21.2652 4 21ZM10 21C10 20.7348 10.1054 20.4804 10.2929 20.2929C10.4804 20.1054 10.7348 20 11 20H13C13.2652 20 13.5196 20.1054 13.7071 20.2929C13.8946 20.4804 14 20.7348 14 21C14 21.2652 13.8946 21.5196 13.7071 21.7071C13.5196 21.8946 13.2652 22 13 22H11C10.7348 22 10.4804 21.8946 10.2929 21.7071C10.1054 21.5196 10 21.2652 10 21ZM16 21C16 20.7348 16.1054 20.4804 16.2929 20.2929C16.4804 20.1054 16.7348 20 17 20H19C19.2652 20 19.5196 20.1054 19.7071 20.2929C19.8946 20.4804 20 20.7348 20 21C20 21.2652 19.8946 21.5196 19.7071 21.7071C19.5196 21.8946 19.2652 22 19 22H17C16.7348 22 16.4804 21.8946 16.2929 21.7071C16.1054 21.5196 16 21.2652 16 21ZM22 21C22 20.7348 22.1054 20.4804 22.2929 20.2929C22.4804 20.1054 22.7348 20 23 20H25C25.2652 20 25.5196 20.1054 25.7071 20.2929C25.8946 20.4804 26 20.7348 26 21C26 21.2652 25.8946 21.5196 25.7071 21.7071C25.5196 21.8946 25.2652 22 25 22H23C22.7348 22 22.4804 21.8946 22.2929 21.7071C22.1054 21.5196 22 21.2652 22 21Z" fill="white"/>
</svg>
