<svg width="32" height="32" viewBox="0 0 32 32" fill="none" xmlns="http://www.w3.org/2000/svg">
<path d="M28.575 23.3498H28.475V6.68475C28.475 5.66475 27.645 4.82975 26.62 4.82975H18.48L17.935 4.68475C17.7111 4.62447 17.4775 4.6089 17.2476 4.63893C17.0177 4.66895 16.7959 4.74399 16.595 4.85975C16.54 4.88975 16.505 4.94475 16.455 4.97975L16.215 4.08975C16.1558 3.86472 16.0524 3.65374 15.9108 3.46916C15.7691 3.28458 15.5921 3.1301 15.39 3.01475C14.98 2.77975 14.505 2.71475 14.05 2.83975L8.32499 4.37475C8.02999 4.45475 7.78499 4.62475 7.57499 4.82975H5.36999C4.34999 4.82975 3.51499 5.65975 3.51499 6.68475V23.3498H3.41499C2.62999 23.3498 1.98999 23.9898 1.98999 24.7698V26.3848C1.98999 27.9448 3.27499 29.2148 4.85499 29.2148H27.17C28.73 29.2148 30 27.9448 30 26.3848V24.7698C30 23.9848 29.36 23.3498 28.575 23.3498ZM26.62 5.82975C27.09 5.82975 27.475 6.21475 27.475 6.68475V19.9748H26.61V7.19475C26.61 6.91975 26.385 6.69475 26.11 6.69475H24.435C24.225 6.47975 23.975 6.29975 23.665 6.21975L22.215 5.82975H26.62ZM9.54999 15.7398C9.67209 16.1921 9.9685 16.5777 10.3743 16.812C10.7801 17.0463 11.2622 17.1102 11.715 16.9898L13.515 16.5048C13.75 16.8848 14.12 17.1748 14.565 17.2948L20.29 18.8298C20.7428 18.9502 21.2249 18.8863 21.6307 18.652C22.0365 18.4177 22.3329 18.0321 22.455 17.5798L24.92 8.38475C24.98 8.15475 24.995 7.91975 24.965 7.69475H25.62V19.9698H6.38499V7.69475H7.38999L9.54499 15.7348L9.54999 15.7398ZM17.1 5.72975C17.275 5.62475 17.485 5.59975 17.685 5.65475L23.41 7.18975C23.82 7.29975 24.065 7.71975 23.955 8.12975L21.49 17.3248C21.38 17.7348 20.955 17.9748 20.55 17.8698L14.825 16.3348C14.745 16.3148 14.685 16.2598 14.615 16.2148L17.44 15.4598C17.665 15.4006 17.876 15.2972 18.0606 15.1555C18.2452 15.0139 18.3996 14.8368 18.515 14.6348C18.665 14.3798 18.715 14.0948 18.725 13.8098C18.785 13.8198 18.835 13.8548 18.895 13.8548C19.105 13.8548 19.32 13.7998 19.515 13.6898L20.59 13.0698C20.88 12.9048 21.085 12.6348 21.17 12.3148C21.2548 11.9956 21.2098 11.6559 21.045 11.3698L20.425 10.2948C20.26 10.0048 19.99 9.79975 19.67 9.71475C19.3508 9.62996 19.0111 9.6749 18.725 9.83975L17.895 10.3198L16.775 6.14475C16.835 5.97475 16.945 5.82475 17.105 5.73475L17.1 5.72975ZM18.675 12.7298L18.415 12.2748L18.16 11.3148L19.225 10.6998C19.28 10.6648 19.345 10.6598 19.41 10.6748C19.47 10.6898 19.525 10.7298 19.555 10.7898L20.175 11.8648C20.21 11.9198 20.215 11.9848 20.2 12.0498C20.185 12.1098 20.145 12.1648 20.085 12.1948L19.01 12.8148C18.89 12.8848 18.745 12.8448 18.68 12.7248L18.675 12.7298ZM8.58999 5.34475L14.315 3.80975C14.515 3.75475 14.72 3.78475 14.9 3.88475C15.075 3.98475 15.205 4.15475 15.255 4.34975L17.125 11.3348L17.715 13.5448C17.77 13.7448 17.74 13.9498 17.64 14.1298C17.54 14.3048 17.37 14.4348 17.175 14.4848L11.45 16.0198C11.04 16.1298 10.62 15.8848 10.51 15.4748L8.04499 6.27975C7.98999 6.07975 8.01999 5.87475 8.11999 5.69475C8.21999 5.51975 8.38999 5.38975 8.58499 5.33975L8.58999 5.34475ZM5.37499 5.83475H7.04499C7.00999 6.06975 7.01999 6.30975 7.08499 6.54475L7.12499 6.69975H5.88999C5.61499 6.69975 5.38999 6.92475 5.38999 7.19975V19.9748H4.52499V6.68475C4.52499 6.21475 4.90999 5.82975 5.37999 5.82975L5.37499 5.83475ZM4.51999 20.9748H27.48V23.3498H4.51999V20.9748ZM10.685 24.3498H21.305V24.8498C21.305 25.0848 21.115 25.2698 20.88 25.2698H11.11C10.875 25.2698 10.685 25.0798 10.685 24.8498V24.3498ZM28.995 26.3848C28.995 27.3948 28.175 28.2148 27.165 28.2148H4.86499C3.83499 28.2148 2.99999 27.3948 2.99999 26.3848V24.7698C2.99999 24.5348 3.18999 24.3498 3.42499 24.3498H9.68999V24.8498C9.68999 25.6348 10.33 26.2698 11.115 26.2698H20.89C21.675 26.2698 22.315 25.6298 22.315 24.8498V24.3498H28.58C28.815 24.3498 29.005 24.5398 29.005 24.7698V26.3848H28.995Z" fill="white"/>
<path d="M13.76 22.6598H18.235C18.51 22.6598 18.735 22.4348 18.735 22.1598C18.735 21.8848 18.51 21.6598 18.235 21.6598H13.76C13.485 21.6598 13.26 21.8848 13.26 22.1598C13.26 22.4348 13.485 22.6598 13.76 22.6598ZM11.415 11.2198L12.49 11.8398C12.68 11.9498 12.895 12.0098 13.11 12.0098C13.215 12.0098 13.325 11.9948 13.43 11.9648C13.75 11.8798 14.02 11.6748 14.185 11.3848L14.805 10.3098C15.15 9.71477 14.945 8.95477 14.35 8.60977L13.275 7.98977C12.9889 7.82604 12.6497 7.782 12.3313 7.86722C12.0129 7.95244 11.741 8.16003 11.575 8.44477L10.955 9.51977C10.7901 9.80589 10.7452 10.1456 10.83 10.4648C10.915 10.7848 11.12 11.0548 11.41 11.2198H11.415ZM11.825 10.0198L12.445 8.94477C12.48 8.88977 12.53 8.84977 12.595 8.82977C12.615 8.82477 12.635 8.81977 12.655 8.81977C12.695 8.81977 12.74 8.82977 12.775 8.85477L13.85 9.47477C13.97 9.54477 14.005 9.68977 13.94 9.80977L13.32 10.8848C13.285 10.9398 13.235 10.9798 13.175 10.9998C13.115 11.0198 13.05 11.0098 12.99 10.9748L11.915 10.3548C11.8583 10.322 11.817 10.268 11.8 10.2048C11.7916 10.1738 11.7895 10.1415 11.7938 10.1097C11.7981 10.078 11.8087 10.0474 11.825 10.0198ZM9.04499 6.64477C9.16499 6.64477 9.27999 6.57977 9.33999 6.47477C9.43499 6.31477 9.37499 6.10477 9.21499 6.00977C9.13666 5.96509 9.04385 5.95316 8.95676 5.97657C8.86967 5.99998 8.79536 6.05684 8.74999 6.13477C8.65499 6.29477 8.71499 6.50477 8.87499 6.59977C8.92499 6.62977 8.98499 6.64477 9.04499 6.64477ZM9.98999 6.39477C10.11 6.39477 10.225 6.32977 10.285 6.22477C10.3297 6.14644 10.3416 6.05363 10.3182 5.96654C10.2948 5.87946 10.2379 5.80514 10.16 5.75977C10.0817 5.71509 9.98885 5.70316 9.90176 5.72657C9.81468 5.74998 9.74036 5.80684 9.69499 5.88477C9.59999 6.04477 9.65999 6.25477 9.81999 6.34977C9.86999 6.37977 9.92999 6.39477 9.98999 6.39477ZM15.78 14.1198C15.9 14.1198 16.015 14.0548 16.075 13.9498C16.17 13.7898 16.11 13.5798 15.95 13.4848C15.8717 13.4401 15.7788 13.4282 15.6918 13.4516C15.6047 13.475 15.5304 13.5318 15.485 13.6098C15.4403 13.6881 15.4284 13.7809 15.4518 13.868C15.4752 13.9551 15.5321 14.0294 15.61 14.0748C15.66 14.1048 15.72 14.1198 15.78 14.1198ZM16.725 13.8648C16.845 13.8648 16.96 13.7998 17.02 13.6948C17.115 13.5348 17.055 13.3248 16.895 13.2298C16.8166 13.1854 16.7239 13.1736 16.6369 13.197C16.5499 13.2204 16.4755 13.277 16.43 13.3548C16.335 13.5148 16.395 13.7248 16.555 13.8198C16.605 13.8498 16.665 13.8648 16.725 13.8648ZM17.93 6.70977C17.93 6.64977 17.915 6.58977 17.885 6.53977C17.8396 6.46184 17.7653 6.40498 17.6782 6.38157C17.5911 6.35816 17.4983 6.37009 17.42 6.41477C17.3421 6.46014 17.2852 6.53446 17.2618 6.62154C17.2384 6.70863 17.2503 6.80144 17.295 6.87977C17.3404 6.9577 17.4147 7.01456 17.5018 7.03797C17.5888 7.06138 17.6817 7.04945 17.76 7.00477C17.865 6.94477 17.93 6.82977 17.93 6.70977ZM18.71 7.25977C18.7879 7.2144 18.8448 7.14008 18.8682 7.053C18.8916 6.96591 18.8797 6.8731 18.835 6.79477C18.7896 6.71684 18.7153 6.65998 18.6282 6.63657C18.5411 6.61316 18.4483 6.62509 18.37 6.66977C18.2921 6.71514 18.2352 6.78946 18.2118 6.87654C18.1884 6.96363 18.2003 7.05644 18.245 7.13477C18.34 7.29477 18.55 7.35477 18.71 7.25977ZM19.52 16.2598C19.4421 16.3051 19.3852 16.3795 19.3618 16.4665C19.3384 16.5536 19.3503 16.6464 19.395 16.7248C19.49 16.8848 19.7 16.9448 19.86 16.8498C19.9379 16.8044 19.9948 16.7301 20.0182 16.643C20.0416 16.5559 20.0297 16.4631 19.985 16.3848C19.9394 16.307 19.8651 16.2504 19.7781 16.227C19.6911 16.2036 19.5984 16.2154 19.52 16.2598ZM20.635 16.4648C20.575 16.4648 20.515 16.4798 20.465 16.5098C20.3871 16.5551 20.3302 16.6295 20.3068 16.7165C20.2834 16.8036 20.2953 16.8964 20.34 16.9748C20.3854 17.0527 20.4597 17.1096 20.5468 17.133C20.6338 17.1564 20.7267 17.1444 20.805 17.0998C20.965 17.0048 21.025 16.7948 20.93 16.6348C20.8999 16.5831 20.8569 16.5403 20.8051 16.5105C20.7534 16.4806 20.6947 16.4649 20.635 16.4648Z" fill="white"/>
</svg>
