<svg width="42" height="42" viewBox="0 0 42 42" fill="none" xmlns="http://www.w3.org/2000/svg">
<g clip-path="url(#clip0_12249_4851)">
<path d="M38.5485 14.9256C37.3203 8.94618 29.9763 5.94186 24.6295 8.61124C22.7794 9.65592 20.5487 10.1524 18.5551 9.1659C13.4393 6.06012 5.88059 7.88963 3.82629 13.7408C3.63193 13.4629 0.327511 27.9995 0.151321 28.3195C-0.764371 33.0695 3.41525 35.1842 7.59096 34.1238C10.9657 33.494 14.0555 31.6943 16.2903 29.0695C17.3552 27.8245 18.9601 27.0896 20.7149 27.0746C22.6563 26.9431 24.4514 27.6505 25.8895 29.2794C28.0943 31.7842 31.1241 33.494 34.4089 34.124C35.3877 34.2818 36.3365 34.3716 37.2736 34.364C40.2966 34.4069 42.6679 31.2126 41.8482 28.3195L38.5485 14.9256ZM25.5446 18.3453C25.5714 16.386 28.4964 16.3992 28.5294 18.3453C28.4914 20.3096 25.5757 20.3224 25.5446 18.3453ZM30.1342 13.7406C32.1046 13.7785 32.1043 16.7029 30.1342 16.7404C28.1819 16.7073 28.1821 13.7735 30.1342 13.7406ZM31.6341 21.45C31.5962 23.4144 28.6804 23.4271 28.6493 21.45C28.6761 19.4908 31.6011 19.504 31.6341 21.45ZM33.2539 19.8452C31.2956 19.8384 31.2833 16.8603 33.254 16.8604C35.2132 16.8873 35.2 19.8122 33.2539 19.8452ZM12.6456 21.45C12.6486 22.431 11.143 22.4341 11.1457 21.45V19.0952H8.79086C8.37094 19.0952 8.04093 18.7653 8.04093 18.3453C8.04093 17.9403 8.37094 17.5953 8.79086 17.5953H11.1457V15.2405C11.1457 14.8206 11.4757 14.4906 11.8956 14.4906C12.3156 14.4906 12.6456 14.8206 12.6456 15.2405V17.5953H15.0004C15.4204 17.5953 15.7503 17.9403 15.7503 18.3453C15.7503 18.7653 15.4204 19.0952 15.0004 19.0952H12.6456V21.45Z" fill="white"/>
</g>
<defs>
<clipPath id="clip0_12249_4851">
<rect width="42" height="42" fill="white"/>
</clipPath>
</defs>
</svg>
