<svg width="42" height="42" viewBox="0 0 42 42" fill="none" xmlns="http://www.w3.org/2000/svg">
<path d="M34.3 6.29766C33.95 5.94766 33.425 5.77266 32.9 5.94766C29.05 6.82266 25.2 5.94766 22.05 3.67266C21.525 3.32266 20.65 3.32266 20.125 3.67266C16.8 5.94766 12.95 6.82266 9.1 5.94766C8.225 5.77266 7.175 6.47266 7 7.34766C7 7.52266 7 7.52266 7 7.69766V20.8227C7 25.8977 9.45 30.6227 13.65 33.5977L20.125 38.1477C20.65 38.4977 21.525 38.4977 22.225 38.1477L28.7 33.5977C32.9 30.6227 35.35 25.8977 35.35 20.8227V7.69766C35 7.17266 34.825 6.64766 34.3 6.29766ZM26.25 19.2477L20.3 25.1977C19.6 25.8977 18.55 25.8977 17.85 25.1977L15.05 22.3977C14.35 21.6977 14.35 20.6477 15.05 19.9477C15.75 19.2477 16.8 19.2477 17.5 19.9477L19.075 21.5227L23.8 16.7977C24.5 16.0977 25.55 16.0977 26.25 16.7977C26.95 17.4977 26.95 18.5477 26.25 19.2477Z" fill="white"/>
</svg>
