<svg width="30" height="30" viewBox="0 0 30 30" fill="none" xmlns="http://www.w3.org/2000/svg">
<path d="M10.7499 2.25C9.19159 2.25 7.91659 3.525 7.91659 5.08333V5.225L7.06659 5.08333C6.21659 4.94167 5.36659 5.225 4.65825 5.79167C3.94992 6.35833 3.66659 7.06667 3.66659 7.91667C3.66659 8.34167 3.80825 8.76667 3.94992 9.19167L2.95825 9.9C1.68325 10.6083 0.833252 12.025 0.833252 13.5833C0.833252 15.2833 1.82492 16.8417 3.52492 17.55L2.95825 18.4C2.53325 19.1083 2.24992 19.8167 2.24992 20.6667C2.24992 23.075 4.09159 24.9167 6.49992 24.9167C7.06659 24.9167 7.49159 24.775 7.49159 24.775L8.05825 26.05C8.62492 27.0417 9.61659 27.75 10.7499 27.75C12.3083 27.75 13.5833 26.475 13.5833 24.9167V22.7917C13.5833 21.6583 12.8749 20.525 11.7416 20.1C11.0333 19.8167 10.6083 19.1083 10.8916 18.2583C11.1749 17.55 11.8833 17.125 12.7333 17.4083C13.0166 17.55 13.4416 17.6917 13.7249 17.8333V15.5667C13.7249 14.4333 13.0166 13.3 11.8833 12.875C11.1749 12.5917 10.7499 11.8833 11.0333 11.0333C11.3166 10.325 12.0249 9.9 12.8749 10.1833C13.0166 10.4667 13.2999 10.6083 13.5833 10.75V5.08333C13.5833 3.525 12.3083 2.25 10.7499 2.25ZM29.1666 13.5833C29.1666 12.025 28.3166 10.6083 27.0416 9.9L26.0499 9.19167C26.1916 8.76667 26.3333 8.34167 26.3333 7.91667C26.3333 7.06667 25.9083 6.35833 25.3416 5.79167C24.7749 5.225 23.7833 4.94167 22.9333 5.08333L22.0833 5.225V5.08333C22.0833 3.525 20.8083 2.25 19.2499 2.25C17.6916 2.25 16.4166 3.525 16.4166 5.08333V10.75C16.6999 10.6083 16.9833 10.4667 17.4083 10.325C18.1166 10.0417 18.9666 10.4667 19.2499 11.175C19.5333 11.8833 19.1083 12.7333 18.3999 13.0167C17.2666 13.4417 16.5583 14.4333 16.5583 15.7083V17.8333C16.8416 17.6917 17.1249 17.55 17.5499 17.4083C18.2583 17.125 19.1083 17.55 19.3916 18.2583C19.6749 18.9667 19.2499 19.8167 18.5416 20.1C17.4083 20.525 16.6999 21.5167 16.6999 22.7917V24.9167C16.6999 26.475 17.9749 27.75 19.5333 27.75C20.6666 27.75 21.6583 27.0417 22.0833 26.1917L22.6499 24.9167C22.6499 24.9167 23.0749 25.0583 23.6416 25.0583C26.0499 25.0583 27.8916 23.2167 27.8916 20.8083C27.8916 19.9583 27.6083 19.25 27.1833 18.5417L26.6166 17.6917C28.1749 16.8417 29.1666 15.2833 29.1666 13.5833Z" fill="black"/>
</svg>
