<svg width="56" height="56" viewBox="0 0 56 56" fill="none" xmlns="http://www.w3.org/2000/svg">
<path opacity="0.12" d="M34.6243 8.95178V18.9813H21.7302V8.95178C21.7302 8.16052 22.3731 7.51953 23.1625 7.51953H33.192C33.9871 7.51953 34.6243 8.16243 34.6243 8.95178Z" fill="#161619"/>
<path d="M21.7188 34.3796C21.7188 36.7362 22.8353 38.9978 24.7126 40.4262L28.1782 43.0682L31.6437 40.4262C33.5173 38.9978 34.6376 36.7362 34.6376 34.3796V28.9378C31.541 28.622 29.3822 27.3876 28.1763 26.4746C26.9685 27.3876 24.8134 28.622 21.715 28.9378V34.3796H21.7188ZM38.9267 20.4147V47.6445C38.9267 48.4358 38.2838 49.0767 37.4945 49.0767H18.8657C18.0745 49.0767 17.4335 48.4339 17.4335 47.6445V20.4147C17.4335 19.6234 18.0764 18.9824 18.8657 18.9824H37.4945C38.2857 18.9824 38.9267 19.6253 38.9267 20.4147Z" fill="white"/>
<path d="M34.6394 28.9339V34.3756C34.6394 36.7323 33.5191 38.9938 31.6456 40.4223L28.18 43.0642L24.7145 40.4223C22.8371 38.9938 21.7206 36.7323 21.7206 34.3756V28.9339C24.8172 28.6181 26.9722 27.3837 28.1819 26.4707C29.3859 27.3837 31.5448 28.6181 34.6432 28.9339H34.6394Z" fill="#1656A2"/>
<path d="M34.6243 18.9813H37.4926C38.2838 18.9813 38.9248 19.6242 38.9248 20.4136V47.6434C38.9248 48.4347 38.2819 49.0757 37.4926 49.0757H18.8657C18.0745 49.0757 17.4335 48.4328 17.4335 47.6434V20.4136C17.4335 19.6223 18.0764 18.9813 18.8657 18.9813H21.7302M34.6243 18.9813V8.95178C34.6243 8.16243 33.9871 7.51953 33.192 7.51953H23.1625C22.3731 7.51953 21.7302 8.16052 21.7302 8.95178V18.9813M34.6243 18.9813H21.7302" stroke="white" stroke-width="1.14123" stroke-miterlimit="10" stroke-linecap="round"/>
<path d="M26.029 14.6808V11.8145" stroke="white" stroke-width="1.14123" stroke-miterlimit="10" stroke-linecap="round"/>
<path d="M30.3274 14.6808V11.8145" stroke="white" stroke-width="1.14123" stroke-miterlimit="10" stroke-linecap="round"/>
<path d="M28.1801 26.4746C29.3841 27.3876 31.543 28.622 34.6414 28.9378V34.3796C34.6414 36.7362 33.5211 38.9977 31.6476 40.4262L28.182 43.0681L24.7165 40.4262C22.8392 38.9977 21.7227 36.7362 21.7227 34.3796V28.9378C24.8192 28.622 26.9742 27.3876 28.1839 26.4746H28.1801Z" stroke="#1656A2" stroke-width="1.14123" stroke-miterlimit="10" stroke-linecap="round"/>
<path d="M25.3517 34.5132L27.016 36.3753L31.0028 32.6777" stroke="white" stroke-width="1.12602" stroke-linecap="round" stroke-linejoin="round"/>
</svg>
