<svg width="32" height="32" viewBox="0 0 32 32" fill="none" xmlns="http://www.w3.org/2000/svg">
<path d="M21.3333 10.6684V6.00259C21.3333 4.8936 21.3333 4.33911 21.0997 3.99835C20.8956 3.70063 20.5795 3.49838 20.2237 3.43783C19.8164 3.36852 19.3129 3.60088 18.306 4.06562L6.47868 9.52438C5.58068 9.93884 5.13167 10.1461 4.80281 10.4675C4.51208 10.7516 4.29016 11.0985 4.154 11.4815C4 11.9148 4 12.4093 4 13.3984V20.0017M22 19.335H22.0133M4 14.935V23.735C4 25.2285 4 25.9753 4.29065 26.5457C4.54631 27.0474 4.95425 27.4554 5.45603 27.711C6.02645 28.0017 6.77319 28.0017 8.26667 28.0017H23.7333C25.2268 28.0017 25.9736 28.0017 26.544 27.711C27.0457 27.4554 27.4537 27.0474 27.7093 26.5457C28 25.9753 28 25.2285 28 23.735V14.935C28 13.4416 28 12.6948 27.7093 12.1244C27.4537 11.6226 27.0457 11.2147 26.544 10.959C25.9736 10.6684 25.2268 10.6684 23.7333 10.6684H8.26667C6.7732 10.6684 6.02645 10.6684 5.45603 10.959C4.95427 11.2147 4.54631 11.6226 4.29065 12.1244C4 12.6948 4 13.4416 4 14.935ZM22.6667 19.335C22.6667 19.7033 22.3681 20.0017 22 20.0017C21.6319 20.0017 21.3333 19.7033 21.3333 19.335C21.3333 18.9669 21.6319 18.6684 22 18.6684C22.3681 18.6684 22.6667 18.9669 22.6667 19.335Z" stroke="white" stroke-width="2.66667" stroke-linecap="round" stroke-linejoin="round"/>
</svg>
