<svg width="42" height="42" viewBox="0 0 42 42" fill="none" xmlns="http://www.w3.org/2000/svg">
<g clip-path="url(#clip0_11960_9288)">
<path d="M26.5059 16.9177L16.8066 12.2869C16.1549 11.9758 15.2962 11.8203 14.4375 11.8203C13.5788 11.8203 12.7201 11.9758 12.0684 12.2869L2.36906 16.9177C1.06575 17.5399 0 19.23 0 20.6738V31.8284C0 33.2721 1.02703 35.0371 2.28244 35.7501L12.1551 41.3591C12.7828 41.7158 13.61 41.894 14.4375 41.894C15.265 41.894 16.0922 41.7158 16.7199 41.3591L26.5926 35.7501C27.848 35.0371 28.875 33.2721 28.875 31.8284V20.6738C28.875 19.23 27.8092 17.5402 26.5059 16.9177ZM14.4375 17.281C15.706 17.281 16.7344 17.8683 16.7344 18.5935C16.7344 19.318 15.706 19.906 14.4375 19.906C13.169 19.906 12.1406 19.318 12.1406 18.5935C12.1406 17.8683 13.169 17.281 14.4375 17.281ZM5.18044 34.0216C5.04284 34.09 4.89114 34.1253 4.73747 34.1246C4.06678 34.1246 3.31537 33.4913 2.90423 32.5053C2.39892 31.2939 2.59875 30.0083 3.35048 29.6339C3.48818 29.5654 3.64 29.5301 3.79378 29.5309C4.4648 29.5309 5.2162 30.1641 5.62702 31.1498C6.13233 32.3616 5.93217 33.6469 5.18044 34.0216ZM5.18044 26.8028C5.04284 26.8712 4.89114 26.9065 4.73747 26.9059C4.06678 26.9059 3.31537 26.2726 2.90423 25.2866C2.39892 24.0751 2.59875 22.7895 3.35048 22.4151C3.48818 22.3467 3.64 22.3114 3.79378 22.3121C4.4648 22.3121 5.2162 22.9454 5.62702 23.9311C6.13233 25.1428 5.93217 26.4281 5.18044 26.8028ZM11.7429 37.631C11.6053 37.6994 11.4536 37.7347 11.3 37.734C10.6293 37.734 9.87788 37.1007 9.46673 36.1147C8.96142 34.9032 9.16125 33.6177 9.91298 33.2433C10.0507 33.1748 10.2025 33.1395 10.3563 33.1402C11.0273 33.1402 11.7787 33.7735 12.1895 34.7592C12.6948 35.971 12.495 37.2562 11.7433 37.631H11.7429ZM11.7429 30.4122C11.6053 30.4806 11.4536 30.5159 11.3 30.5152C10.6293 30.5152 9.87788 29.882 9.46673 28.8959C8.96142 27.6845 9.16125 26.3989 9.91298 26.0245C10.0507 25.956 10.2025 25.9207 10.3563 25.9215C11.0273 25.9215 11.7787 26.5548 12.1895 27.5405C12.6948 28.7522 12.495 30.0375 11.7433 30.4122H11.7429ZM19.4083 36.115C18.9971 37.1007 18.2457 37.734 17.575 37.734C17.4215 37.734 17.2722 37.7005 17.1321 37.631C16.38 37.2562 16.1798 35.9706 16.6855 34.7592C17.0963 33.7735 17.8477 33.1402 18.5187 33.1402C18.6725 33.1395 18.8243 33.1748 18.962 33.2433C19.7138 33.6177 19.9136 34.9036 19.4083 36.115ZM19.4083 28.8963C18.9971 29.882 18.2457 30.5152 17.575 30.5152C17.4215 30.5152 17.2722 30.4818 17.1321 30.4122C16.38 30.0375 16.1798 28.7519 16.6855 27.5405C17.0963 26.5548 17.8477 25.9215 18.5187 25.9215C18.6725 25.9207 18.8243 25.956 18.962 26.0245C19.7138 26.3989 19.9136 27.6848 19.4083 28.8963ZM25.9708 32.5056C25.5596 33.4913 24.8082 34.1246 24.1375 34.1246C23.984 34.1246 23.8347 34.0911 23.6946 34.0216C22.9425 33.6469 22.7423 32.3613 23.248 31.1498C23.6588 30.1641 24.4102 29.5309 25.0812 29.5309C25.235 29.5301 25.3868 29.5654 25.5245 29.6339C26.2763 30.0083 26.4761 31.2942 25.9708 32.5056ZM25.9708 25.2869C25.5596 26.2726 24.8082 26.9059 24.1375 26.9059C23.984 26.9059 23.8347 26.8724 23.6946 26.8028C22.9425 26.4281 22.7423 25.1425 23.248 23.9311C23.6588 22.9454 24.4102 22.3121 25.0812 22.3121C25.235 22.3114 25.3868 22.3466 25.5245 22.4151C26.2763 22.7895 26.4761 24.0755 25.9708 25.2869ZM26.9364 19.7842L15.0938 26.3087V40.0309C15.0938 40.2049 15.0246 40.3718 14.9015 40.4949C14.7785 40.618 14.6115 40.6871 14.4375 40.6871C14.2635 40.6871 14.0965 40.618 13.9735 40.4949C13.8504 40.3718 13.7812 40.2049 13.7812 40.0309V26.3582L1.84373 19.6874C1.69368 19.6017 1.58348 19.4603 1.53705 19.2939C1.49062 19.1275 1.51171 18.9494 1.59573 18.7984C1.67976 18.6475 1.81994 18.5357 1.98586 18.4874C2.15178 18.4392 2.33003 18.4583 2.48194 18.5406L14.3929 25.1963L26.3015 18.6355C26.4535 18.5552 26.6309 18.5377 26.7956 18.5868C26.9604 18.636 27.0992 18.7478 27.1824 18.8982C27.2656 19.0486 27.2864 19.2257 27.2404 19.3913C27.1944 19.5569 27.0853 19.6979 26.9364 19.7839V19.7842Z" fill="white"/>
<path d="M38.1733 7.17591C37.6923 5.81484 36.1845 4.30744 34.8231 3.82575L24.625 0.219C24.2506 0.0861094 23.8316 0.0234375 23.4005 0.0234375C22.2622 0.0234375 21.034 0.459188 20.2938 1.19944L12.3561 9.13711C11.838 9.65522 11.4495 10.4188 11.2415 11.2273L11.5033 11.1023C12.3062 10.7187 13.3483 10.5077 14.4374 10.5077C14.5348 10.5077 14.6316 10.5113 14.7284 10.5146C15.1133 10.0962 15.5602 9.84323 15.973 9.84323C16.0829 9.84323 16.1902 9.86063 16.2929 9.89738C16.69 10.0385 16.9426 10.4348 17.0283 10.9556C17.1464 11.0015 17.2619 11.0498 17.3718 11.1023L21.5134 13.0795C21.9593 12.3097 22.6093 11.812 23.1918 11.812C23.3017 11.812 23.409 11.8294 23.512 11.8661C24.2224 12.1181 24.4731 13.1865 24.1246 14.3264L25.8335 15.1421L26.1708 14.8015L22.6074 2.07028C22.561 1.90302 22.5828 1.72419 22.6679 1.57294C22.7531 1.42168 22.8947 1.31033 23.0617 1.26325C23.2288 1.21616 23.4077 1.23719 23.5593 1.32172C23.7109 1.40624 23.8229 1.54739 23.8707 1.71427L27.4695 14.5715L40.2418 18.214C40.3939 18.2575 40.5252 18.3545 40.6115 18.4871C40.6978 18.6198 40.7333 18.7791 40.7114 18.9358C40.6895 19.0925 40.6117 19.236 40.4924 19.3399C40.3731 19.4438 40.2202 19.5011 40.062 19.5013C40.0085 19.5013 29.6066 16.5435 27.422 15.9221C28.1563 16.3601 28.8063 17.0285 29.2913 17.8012C29.7034 17.9158 30.0132 18.1474 30.1333 18.487C30.2383 18.7823 30.1858 19.1134 30.0118 19.4366C30.1237 19.8497 30.1874 20.2668 30.1874 20.6733V30.8705C31.2013 30.7241 32.2201 30.2851 32.8623 29.6433L40.7999 21.7053C41.8211 20.6845 42.2621 18.7358 41.781 17.3744L38.1733 7.17591ZM22.0614 7.64086C21.6447 8.56027 20.8299 9.18698 20.1205 9.18698C20.0106 9.18698 19.9036 9.17189 19.8006 9.14072C19.0328 8.90709 18.8011 7.85709 19.2825 6.79528C19.6989 5.8762 20.5136 5.24948 21.223 5.24948C21.3329 5.24948 21.4402 5.26458 21.5433 5.29575C22.3111 5.52938 22.5427 6.57938 22.0614 7.64086ZM33.5366 12.2087C33.361 12.3846 33.1143 12.4682 32.8295 12.4682C32.2405 12.4682 31.4874 12.1119 30.8512 11.476C29.9075 10.5323 29.5797 9.32972 30.1185 8.79061C30.295 8.61441 30.5418 8.53073 30.8272 8.53073C31.4159 8.53073 32.1689 8.88708 32.8045 9.52266C33.7485 10.4667 34.0767 11.6689 33.5366 12.2087ZM35.6024 22.7172C35.1654 22.8872 34.73 22.9682 34.3375 22.9682C33.6179 22.9682 33.0427 22.6959 32.8665 22.1994C32.5942 21.4316 33.3774 20.419 34.6161 19.938C35.0532 19.768 35.4889 19.687 35.8813 19.687C36.6006 19.687 37.1761 19.9593 37.352 20.4564C37.6243 21.2239 36.8414 22.2362 35.6024 22.7172Z" fill="white"/>
</g>
<defs>
<clipPath id="clip0_11960_9288">
<rect width="42" height="42" fill="white"/>
</clipPath>
</defs>
</svg>
