<svg width="31" height="31" viewBox="0 0 31 31" fill="none" xmlns="http://www.w3.org/2000/svg">
<path d="M21.2688 19.5137C19.7905 19.5137 18.4311 19.8535 17.3691 20.4199C16.1995 21.043 14.7976 21.043 13.628 20.4199C12.566 19.8535 11.2066 19.5137 9.72829 19.5137C6.32135 19.5137 3.56012 21.3177 3.56012 23.5408C3.56012 25.764 6.32418 27.568 9.73112 27.568C11.2094 27.568 12.5688 27.2281 13.6308 26.6617C14.8005 26.0387 16.2023 26.0387 17.3719 26.6617C18.434 27.2281 19.7933 27.568 21.2716 27.568C24.6786 27.568 27.4398 25.764 27.4398 23.5408C27.4398 21.3177 24.6757 19.5137 21.2688 19.5137ZM9.73112 25.274C8.11686 25.274 6.80563 24.498 6.80563 23.5408C6.80563 22.5836 8.11403 21.8076 9.73112 21.8076C11.3482 21.8076 12.6566 22.5836 12.6566 23.5408C12.6566 24.498 11.3454 25.274 9.73112 25.274ZM21.2688 25.274C19.6546 25.274 18.3433 24.498 18.3433 23.5408C18.3433 22.5836 19.6517 21.8076 21.2688 21.8076C22.8859 21.8076 24.1943 22.5836 24.1943 23.5408C24.1943 24.498 22.8831 25.274 21.2688 25.274Z" fill="#EEEEEE"/>
<path d="M21.2689 19.2292C20.1502 19.232 19.0174 19.4133 17.9752 19.8296C17.491 20.0222 17.0435 20.3054 16.5422 20.4526C16.0494 20.5971 15.5312 20.6396 15.0214 20.5744C14.7609 20.5404 14.5032 20.4753 14.2539 20.3875C14.0104 20.3026 13.7895 20.1779 13.5601 20.0675C13.0843 19.8353 12.5859 19.654 12.0761 19.5209C10.9999 19.2434 9.86429 19.1641 8.7598 19.2802C7.00677 19.4614 5.10648 20.1213 3.99349 21.5656C3.54036 22.1519 3.25999 22.8712 3.28265 23.6189C3.30531 24.375 3.62249 25.0717 4.09827 25.6494C5.25941 27.0569 7.20501 27.68 8.9637 27.8216C10.0739 27.9122 11.2123 27.8131 12.2828 27.5044C12.7841 27.36 13.2741 27.1674 13.7357 26.9267C14.1973 26.6859 14.6957 26.5245 15.2197 26.4877C15.7464 26.4509 16.2703 26.5217 16.7688 26.7001C17.0095 26.7879 17.2304 26.9125 17.4598 27.023C17.6977 27.1362 17.9412 27.241 18.1876 27.3288C19.2355 27.7111 20.3683 27.8697 21.4813 27.8471C23.3079 27.8074 25.3045 27.2665 26.6327 25.944C27.1567 25.42 27.5673 24.7517 27.6806 24.0125C27.7939 23.2734 27.6296 22.5342 27.2388 21.897C26.3156 20.396 24.4832 19.62 22.8095 19.3538C22.2997 19.2717 21.7843 19.232 21.2689 19.2292C20.9035 19.2292 20.9035 19.7956 21.2689 19.7956C22.9851 19.7984 24.8826 20.2516 26.1598 21.4637C26.6611 21.9395 27.0066 22.4945 27.1284 23.1714C27.1737 23.4291 27.1567 23.8001 27.0944 24.0692C27.0151 24.4062 26.899 24.6695 26.7064 24.9641C26.3156 25.5645 25.7067 26.0459 25.0638 26.3943C24.2737 26.8219 23.3901 27.0796 22.5008 27.2042C21.4671 27.3458 20.3966 27.309 19.3771 27.0881C18.8956 26.9833 18.4142 26.8389 17.9611 26.6378C17.4825 26.4282 17.0407 26.1677 16.5281 26.0402C15.4774 25.7797 14.3984 25.9411 13.444 26.4396C12.5547 26.904 11.555 27.1646 10.5581 27.2495C8.73148 27.4109 6.73773 27.0683 5.23958 25.9581C4.95355 25.7457 4.68734 25.4908 4.46361 25.2105C4.28236 24.9839 4.09261 24.6554 3.99915 24.3948C3.88021 24.0635 3.8349 23.7944 3.84622 23.4489C3.85755 23.1601 3.93685 22.8174 4.05013 22.5568C4.69017 21.1182 6.32142 20.3365 7.79974 20.0052C8.80228 19.7815 9.84447 19.7418 10.864 19.8664C11.3766 19.9287 11.8864 20.042 12.3763 20.2006C12.6057 20.2742 12.8323 20.3564 13.0532 20.4555C13.2741 20.5546 13.4836 20.6735 13.7017 20.7727C14.6787 21.2201 15.8031 21.2994 16.8254 20.9596C17.2984 20.8038 17.7232 20.5348 18.1848 20.3535C18.6634 20.1666 19.159 20.0307 19.6631 19.9372C20.1927 19.8409 20.728 19.7984 21.2632 19.7956C21.6342 19.7956 21.6342 19.2292 21.2689 19.2292Z" fill="#EEEEEE"/>
<path d="M9.73115 24.9918C9.19307 24.9889 8.65215 24.9068 8.15371 24.6972C7.79688 24.55 7.43155 24.3121 7.23897 24.0091C7.21631 23.9722 7.19366 23.9326 7.17383 23.8929C7.16533 23.8759 7.15684 23.859 7.14834 23.8391C7.16533 23.8759 7.14551 23.8306 7.14551 23.8278C7.11153 23.7287 7.09737 23.6607 7.0917 23.5984C7.08604 23.5021 7.0917 23.4455 7.10586 23.3917C7.11436 23.3549 7.12285 23.318 7.13701 23.2812C7.15684 23.2189 7.14551 23.2472 7.17383 23.1878C7.34658 22.8451 7.67793 22.61 8.04043 22.4344C8.97217 21.9898 10.1531 21.9813 11.1189 22.3127C11.5182 22.4486 11.909 22.661 12.1695 22.9924C12.2545 23.1028 12.3253 23.2387 12.3593 23.3888C12.3734 23.4483 12.3791 23.4965 12.3734 23.5956C12.3734 23.6154 12.3706 23.6324 12.3678 23.6522C12.3734 23.6069 12.3678 23.6522 12.3649 23.6607C12.3536 23.7117 12.3395 23.7627 12.3253 23.8108C12.3111 23.8561 12.3168 23.842 12.2856 23.9014C12.2602 23.9496 12.2318 23.9977 12.2007 24.043C12.1554 24.1082 12.0931 24.1761 12.0194 24.2498C11.8552 24.4084 11.6541 24.5301 11.4417 24.6349C10.9121 24.8926 10.3117 24.9889 9.73115 24.9918C9.36582 24.9946 9.36582 25.561 9.73115 25.5582C10.3712 25.5553 11.0112 25.4421 11.6003 25.1843C12.0478 24.9889 12.4811 24.6859 12.7359 24.2583C12.9738 23.8561 12.9965 23.3803 12.8039 22.9555C12.6 22.5081 12.1752 22.1767 11.7419 21.9643C10.6487 21.4262 9.25537 21.3753 8.11407 21.7944C7.2503 22.1116 6.23926 22.9017 6.5876 23.9496C6.76035 24.4735 7.20498 24.8558 7.6836 25.0994C8.31231 25.4194 9.02598 25.5525 9.72832 25.5553C10.0965 25.5582 10.0965 24.9918 9.73115 24.9918ZM21.2689 24.9918C20.7308 24.9889 20.1898 24.9068 19.6914 24.6972C19.3346 24.55 18.9692 24.3121 18.7767 24.0091C18.754 23.9722 18.7314 23.9326 18.7115 23.8929C18.703 23.8759 18.6945 23.859 18.686 23.8391C18.703 23.8759 18.6832 23.8306 18.6832 23.8278C18.6492 23.7287 18.6351 23.6607 18.6294 23.5984C18.6237 23.5021 18.6294 23.4455 18.6436 23.3917C18.6521 23.3549 18.6605 23.318 18.6747 23.2812C18.6945 23.2189 18.6832 23.2472 18.7115 23.1878C18.8843 22.8451 19.2156 22.61 19.5781 22.4344C20.5099 21.9898 21.6908 21.9813 22.6565 22.3127C23.0559 22.4486 23.4467 22.661 23.7072 22.9924C23.7922 23.1028 23.863 23.2387 23.897 23.3888C23.9111 23.4483 23.9168 23.4965 23.9111 23.5956C23.9111 23.6154 23.9083 23.6324 23.9055 23.6522C23.9111 23.6069 23.9055 23.6522 23.9026 23.6607C23.8913 23.7117 23.8772 23.7627 23.863 23.8108C23.8488 23.8561 23.8545 23.842 23.8233 23.9014C23.7979 23.9496 23.7695 23.9977 23.7384 24.043C23.6931 24.1082 23.6308 24.1761 23.5571 24.2498C23.3929 24.4084 23.1918 24.5301 22.9794 24.6349C22.4498 24.8926 21.8494 24.9889 21.2689 24.9918C20.9035 24.9946 20.9035 25.561 21.2689 25.5582C21.9089 25.5553 22.5489 25.4421 23.138 25.1843C23.5855 24.9889 24.0188 24.6859 24.2736 24.2583C24.5115 23.8561 24.5342 23.3803 24.3416 22.9555C24.1377 22.5081 23.7129 22.1767 23.2796 21.9643C22.1864 21.4262 20.7931 21.3753 19.6518 21.7944C18.788 22.1116 17.777 22.9017 18.1253 23.9496C18.2981 24.4735 18.7427 24.8558 19.2213 25.0994C19.85 25.4194 20.5637 25.5525 21.266 25.5553C21.6342 25.5582 21.6342 24.9918 21.2689 24.9918Z" fill="#EEEEEE"/>
<path d="M26.1484 14.0801V14.3378H4.85156V14.0801C4.85156 8.22344 9.64336 3.43164 15.5 3.43164C18.4283 3.43164 21.0904 4.62959 23.019 6.56104C24.9477 8.49248 26.1484 11.1518 26.1484 14.0801Z" fill="#EEEEEE"/>
<path d="M25.8652 14.0803C25.8652 14.1652 25.8652 14.2502 25.8652 14.3352C25.9586 14.2417 26.0549 14.1454 26.1484 14.052C25.9586 14.052 25.7689 14.052 25.5791 14.052C25.0637 14.052 24.5483 14.052 24.0328 14.052C23.2654 14.052 22.5007 14.052 21.7332 14.052C20.8015 14.052 19.8698 14.052 18.9409 14.052C17.9213 14.052 16.9018 14.052 15.8823 14.052C14.8514 14.052 13.8234 14.052 12.7925 14.052C11.8296 14.052 10.8639 14.052 9.90101 14.052C9.09105 14.052 8.27826 14.052 7.4683 14.052C6.8849 14.052 6.3015 14.052 5.7181 14.052C5.4434 14.052 5.16302 14.035 4.88832 14.052C4.87699 14.052 4.86566 14.052 4.8515 14.052C4.94496 14.1454 5.04125 14.2417 5.1347 14.3352C5.1347 13.3949 5.21683 12.4745 5.44623 11.5626C5.68695 10.6054 6.06644 9.6878 6.56771 8.83819C7.56176 7.15313 9.02875 5.76827 10.7676 4.86485C12.6283 3.89913 14.7721 3.52813 16.848 3.80001C19.1731 4.10303 21.3537 5.22735 22.9737 6.91807C24.5936 8.60596 25.6244 10.8348 25.8255 13.1684C25.851 13.4714 25.8652 13.7773 25.8652 14.0803C25.8652 14.4456 26.4316 14.4456 26.4316 14.0803C26.4259 11.5654 25.5452 9.12423 23.9592 7.17579C22.4243 5.28965 20.2464 3.93594 17.8703 3.40919C15.6472 2.91641 13.3079 3.13731 11.2151 4.03223C9.31478 4.84503 7.66937 6.20723 6.49408 7.90645C5.29047 9.64532 4.61927 11.7297 4.57113 13.8424C4.5683 14.0066 4.5683 14.1709 4.5683 14.338C4.5683 14.4909 4.69857 14.6212 4.8515 14.6212C5.04125 14.6212 5.23099 14.6212 5.42074 14.6212C5.93617 14.6212 6.4516 14.6212 6.96703 14.6212C7.73451 14.6212 8.49916 14.6212 9.26664 14.6212C10.1984 14.6212 11.1301 14.6212 12.059 14.6212C13.0786 14.6212 14.0981 14.6212 15.1176 14.6212C16.1485 14.6212 17.1765 14.6212 18.2074 14.6212C19.1703 14.6212 20.136 14.6212 21.0989 14.6212C21.9088 14.6212 22.7216 14.6212 23.5316 14.6212C24.115 14.6212 24.6984 14.6212 25.2818 14.6212C25.5593 14.6212 25.8369 14.6269 26.1116 14.6212C26.1229 14.6212 26.1342 14.6212 26.1484 14.6212C26.3013 14.6212 26.4316 14.4909 26.4316 14.338C26.4316 14.253 26.4316 14.1681 26.4316 14.0831C26.4316 13.7149 25.8652 13.7149 25.8652 14.0803Z" fill="#EEEEEE"/>
<path d="M27.9552 15.8286C27.9552 16.2393 27.7881 16.6074 27.5162 16.8793C27.2472 17.1483 26.8734 17.3154 26.4627 17.3154H4.53713C3.71868 17.3154 3.04749 16.6471 3.04749 15.8286C3.04749 15.418 3.21458 15.0498 3.48645 14.7779C3.75549 14.5089 4.12932 14.3418 4.53997 14.3418H26.4684C27.284 14.339 27.9552 15.0073 27.9552 15.8286Z" fill="#EEEEEE"/>
<path d="M27.672 15.8245C27.6606 16.4929 27.1197 17.0196 26.4542 17.0253C26.3664 17.0253 26.2758 17.0253 26.188 17.0253C25.7009 17.0253 25.2138 17.0253 24.7266 17.0253C23.9167 17.0253 23.1039 17.0253 22.2939 17.0253C21.2631 17.0253 20.235 17.0253 19.2042 17.0253C18.0657 17.0253 16.9272 17.0253 15.7888 17.0253C14.6361 17.0253 13.4863 17.0253 12.3337 17.0253C11.2802 17.0253 10.2238 17.0253 9.1703 17.0253C8.31785 17.0253 7.46541 17.0253 6.61297 17.0253C6.06639 17.0253 5.52264 17.0253 4.97606 17.0253C4.53426 17.0253 4.10379 17.0479 3.74412 16.7223C3.12391 16.1615 3.24569 15.1505 3.98768 14.754C4.19725 14.6436 4.42098 14.6181 4.65037 14.6181C5.04403 14.6181 5.43485 14.6181 5.8285 14.6181C6.57049 14.6181 7.31248 14.6181 8.05448 14.6181C9.04002 14.6181 10.0284 14.6181 11.0139 14.6181C12.1354 14.6181 13.2569 14.6181 14.3756 14.6181C15.5339 14.6181 16.695 14.6181 17.8533 14.6181C18.9408 14.6181 20.0283 14.6181 21.1186 14.6181C22.0306 14.6181 22.9425 14.6181 23.8544 14.6181C24.4831 14.6181 25.1146 14.6181 25.7433 14.6181C25.9869 14.6181 26.2276 14.6152 26.4712 14.6181C27.1254 14.6266 27.6606 15.1618 27.672 15.8245C27.6776 16.1898 28.244 16.1898 28.2384 15.8245C28.227 14.9268 27.553 14.1706 26.6609 14.063C26.542 14.0488 26.4259 14.0488 26.3069 14.0488C25.8708 14.0488 25.4347 14.0488 24.9985 14.0488C24.2084 14.0488 23.4182 14.0488 22.6281 14.0488C21.6001 14.0488 20.5749 14.0488 19.5469 14.0488C18.3857 14.0488 17.2274 14.0488 16.0663 14.0488C14.8938 14.0488 13.7214 14.0488 12.5461 14.0488C11.4614 14.0488 10.3767 14.0488 9.29207 14.0488C8.41698 14.0488 7.53905 14.0488 6.66395 14.0488C6.10037 14.0488 5.5368 14.0488 4.97606 14.0488C4.84862 14.0488 4.72117 14.0488 4.59373 14.0488C4.12362 14.0488 3.67899 14.2018 3.33065 14.5218C2.61131 15.1788 2.58866 16.3229 3.24569 17.0281C3.58836 17.3963 4.07264 17.586 4.57391 17.586C4.90809 17.586 5.24227 17.586 5.57928 17.586C6.29295 17.586 7.00946 17.586 7.72313 17.586C8.70301 17.586 9.68006 17.586 10.6599 17.586C11.7984 17.586 12.9369 17.586 14.0754 17.586C15.2535 17.586 16.4345 17.586 17.6126 17.586C18.7284 17.586 19.8471 17.586 20.9629 17.586C21.8974 17.586 22.8348 17.586 23.7694 17.586C24.418 17.586 25.0693 17.586 25.7179 17.586C25.9671 17.586 26.2135 17.5889 26.4627 17.586C27.4341 17.5747 28.2214 16.7902 28.2355 15.8188C28.244 15.4592 27.6776 15.4592 27.672 15.8245Z" fill="#EEEEEE"/>
</svg>
