<svg width="32" height="32" viewBox="0 0 32 32" fill="none" xmlns="http://www.w3.org/2000/svg">
<g clip-path="url(#clip0_11676_33330)">
<path d="M27.2048 31.999H3.35415C1.58748 31.999 0.150146 30.6063 0.150146 28.895V12.563C0.150146 10.8517 1.58748 9.45898 3.35415 9.45898H22.5568C22.7336 9.45898 22.9032 9.52922 23.0282 9.65425C23.1532 9.77927 23.2235 9.94884 23.2235 10.1257C23.2235 10.3025 23.1532 10.472 23.0282 10.5971C22.9032 10.7221 22.7336 10.7923 22.5568 10.7923H3.35415C2.32281 10.7923 1.48348 11.5863 1.48348 12.563V28.895C1.48348 29.8717 2.32281 30.6657 3.35415 30.6657H27.2041C28.2355 30.6657 29.0741 29.8717 29.0741 28.895V12.563C29.0741 11.7297 28.4481 11.0003 27.5841 10.8297C27.4983 10.8126 27.4166 10.7788 27.3437 10.7302C27.2709 10.6816 27.2084 10.6192 27.1597 10.5464C27.111 10.4736 27.0771 10.392 27.06 10.3061C27.0428 10.2203 27.0428 10.1319 27.0598 10.046C27.0768 9.9601 27.1106 9.87841 27.1592 9.80558C27.2078 9.73275 27.2703 9.6702 27.3431 9.62152C27.4158 9.57283 27.4975 9.53895 27.5833 9.52181C27.6692 9.50468 27.7576 9.50462 27.8435 9.52165C29.3295 9.81498 30.4081 11.0943 30.4081 12.563V28.895C30.4075 30.6063 28.9708 31.999 27.2048 31.999Z" fill="white"/>
<path d="M26.644 12.9028L21.0247 10.0128L25.9767 1.12084C26.5073 0.165503 27.7653 -0.267163 28.672 0.20217L30.8567 1.32617C31.075 1.43838 31.2682 1.59391 31.4244 1.78326C31.5806 1.97262 31.6966 2.19183 31.7653 2.4275C31.9247 2.9555 31.8553 3.5475 31.574 4.05084L26.644 12.9028ZM22.8607 9.4575L26.106 11.1268L30.4093 3.40017C30.516 3.21017 30.5447 2.99617 30.4893 2.81284C30.4716 2.74887 30.4411 2.68917 30.3996 2.63736C30.3581 2.58556 30.3066 2.54274 30.248 2.5115L28.062 1.38684C27.77 1.2375 27.334 1.42284 27.142 1.76817L22.8607 9.4575Z" fill="white"/>
<path d="M19.6306 22.4092C19.2699 22.4092 18.9106 22.3225 18.5906 22.1585L17.5172 21.6065C17.2554 21.474 17.0232 21.2898 16.8346 21.0649C16.6459 20.8401 16.5049 20.5794 16.4199 20.2985C16.3364 20.0261 16.309 19.7397 16.3394 19.4564C16.3698 19.1732 16.4572 18.899 16.5966 18.6505L21.6659 9.55052L21.9272 8.97852L26.9846 11.5765L26.6612 12.1752L21.6012 21.2705C21.2106 21.9732 20.4566 22.4092 19.6306 22.4092ZM22.5092 10.7772L17.7626 19.2998C17.7109 19.3923 17.6784 19.4942 17.6671 19.5995C17.6557 19.7047 17.6658 19.8112 17.6966 19.9125C17.7632 20.1319 17.9159 20.3125 18.1272 20.4212L19.2006 20.9732C19.6319 21.1972 20.2112 21.0278 20.4352 20.6245L25.1592 12.1398L22.5092 10.7772Z" fill="white"/>
<path d="M16.1088 26.0004C16.0133 26.0003 15.9189 25.9797 15.832 25.94C15.7451 25.9003 15.6678 25.8424 15.6052 25.7702C15.5427 25.698 15.4963 25.6133 15.4693 25.5216C15.4423 25.43 15.4353 25.3337 15.4488 25.2391L16.2708 19.5064C16.2967 19.3319 16.3904 19.1745 16.5315 19.0686C16.6727 18.9626 16.8499 18.9166 17.0248 18.9404C17.3895 18.9931 17.6428 19.3311 17.5908 19.6951L17.0188 23.6811L20.1808 20.9871C20.2474 20.9303 20.3245 20.8872 20.4077 20.8602C20.491 20.8333 20.5787 20.823 20.6659 20.8299C20.7531 20.8368 20.8381 20.8609 20.9161 20.9007C20.994 20.9404 21.0633 20.9952 21.1201 21.0618C21.1769 21.1283 21.22 21.2055 21.247 21.2887C21.2739 21.3719 21.2843 21.4597 21.2773 21.5469C21.2704 21.6341 21.2463 21.7191 21.2066 21.7971C21.1668 21.875 21.112 21.9443 21.0455 22.0011L16.5408 25.8398C16.4209 25.9438 16.2675 26.0008 16.1088 26.0004ZM25.6294 8.89843C25.5134 8.89832 25.3994 8.86791 25.2987 8.81021C25.198 8.75251 25.1141 8.66952 25.0553 8.56945C24.9965 8.46938 24.9648 8.3557 24.9635 8.23965C24.9621 8.12359 24.991 8.00919 25.0474 7.90776L28.0061 2.59643C28.0921 2.44189 28.236 2.32786 28.4061 2.27941C28.5762 2.23097 28.7586 2.25208 28.9131 2.33809C29.0676 2.42411 29.1817 2.568 29.2301 2.73809C29.2786 2.90819 29.2575 3.09056 29.1714 3.24509L26.2128 8.55643C26.1549 8.66027 26.0703 8.74674 25.9677 8.80687C25.8651 8.86701 25.7483 8.89862 25.6294 8.89843ZM12.3568 15.7358H4.55412C4.37731 15.7358 4.20774 15.6655 4.08271 15.5405C3.95769 15.4155 3.88745 15.2459 3.88745 15.0691C3.88745 14.8923 3.95769 14.7227 4.08271 14.5977C4.20774 14.4727 4.37731 14.4024 4.55412 14.4024H12.3568C12.5336 14.4024 12.7032 14.4727 12.8282 14.5977C12.9532 14.7227 13.0235 14.8923 13.0235 15.0691C13.0235 15.2459 12.9532 15.4155 12.8282 15.5405C12.7032 15.6655 12.5336 15.7358 12.3568 15.7358ZM12.3568 21.9024H4.55412C4.37731 21.9024 4.20774 21.8322 4.08271 21.7072C3.95769 21.5821 3.88745 21.4126 3.88745 21.2358C3.88745 21.059 3.95769 20.8894 4.08271 20.7644C4.20774 20.6393 4.37731 20.5691 4.55412 20.5691H12.3568C12.5336 20.5691 12.7032 20.6393 12.8282 20.7644C12.9532 20.8894 13.0235 21.059 13.0235 21.2358C13.0235 21.4126 12.9532 21.5821 12.8282 21.7072C12.7032 21.8322 12.5336 21.9024 12.3568 21.9024ZM12.3568 28.0678H4.55412C4.37731 28.0678 4.20774 27.9975 4.08271 27.8725C3.95769 27.7475 3.88745 27.5779 3.88745 27.4011C3.88745 27.2243 3.95769 27.0547 4.08271 26.9297C4.20774 26.8047 4.37731 26.7344 4.55412 26.7344H12.3568C12.5336 26.7344 12.7032 26.8047 12.8282 26.9297C12.9532 27.0547 13.0235 27.2243 13.0235 27.4011C13.0235 27.5779 12.9532 27.7475 12.8282 27.8725C12.7032 27.9975 12.5336 28.0678 12.3568 28.0678Z" fill="white"/>
</g>
<defs>
<clipPath id="clip0_11676_33330">
<rect width="32" height="32" fill="white"/>
</clipPath>
</defs>
</svg>
