<svg width="42" height="42" viewBox="0 0 42 42" fill="none" xmlns="http://www.w3.org/2000/svg">
<path d="M7.48145 33.0746H17.5877C18.1127 33.0746 18.3752 32.6809 18.3752 32.2871V25.4621C18.3752 24.9371 17.9814 24.6746 17.5877 24.6746H9.97519V22.9684C9.97519 22.0496 10.7627 21.2621 11.6814 21.2621H13.3877C14.3064 21.2621 15.0939 22.0496 15.0939 22.9684C15.0939 23.4934 15.4877 23.7559 15.8814 23.7559C16.4064 23.7559 16.6689 23.3621 16.6689 22.9684C16.6689 21.1309 15.0939 19.5559 13.2564 19.5559H11.6814C9.84395 19.5559 8.26895 21.1309 8.26895 22.9684V24.6746H7.48145C6.95644 24.5434 6.5627 24.9371 6.5627 25.4621V32.2871C6.5627 32.6809 6.95644 33.0746 7.48145 33.0746ZM11.6814 27.9559H13.3877C13.9127 27.9559 14.1752 28.3496 14.1752 28.7434C14.1752 29.2684 13.7814 29.5309 13.3877 29.5309H11.6814C11.1564 29.5309 10.8939 29.1371 10.8939 28.7434C10.8939 28.3496 11.1564 27.9559 11.6814 27.9559ZM39.7689 4.06836H5.64395C5.2502 4.06836 4.85645 4.46211 4.85645 4.98711V12.5996H40.6877V4.98711C40.6877 4.46211 40.2939 4.06836 39.7689 4.06836ZM9.97519 10.8934C9.97519 11.4184 9.58145 11.8121 9.1877 11.8121C8.6627 11.8121 8.26895 11.4184 8.26895 10.8934V7.48086C8.26895 6.95586 8.6627 6.69336 9.05645 6.69336C9.58145 6.69336 9.84395 7.08711 9.84395 7.48086V10.8934H9.97519ZM13.3877 10.8934C13.3877 11.4184 12.9939 11.8121 12.6002 11.8121C12.2064 11.8121 11.6814 11.4184 11.6814 10.8934V7.48086C11.6814 6.95586 12.0752 6.69336 12.4689 6.69336C12.8627 6.69336 13.2564 7.08711 13.2564 7.48086V10.8934H13.3877ZM16.8002 10.8934C16.8002 11.4184 16.4064 11.6809 16.0127 11.6809C15.4877 11.6809 15.2252 11.2871 15.2252 10.8934V7.48086C15.2252 6.95586 15.6189 6.69336 16.0127 6.69336C16.5377 6.69336 16.8002 7.08711 16.8002 7.48086V10.8934ZM34.5189 12.0746C32.9439 12.0746 31.6314 10.7621 31.6314 9.18711C31.6314 7.61211 32.9439 6.29961 34.5189 6.29961C36.0939 6.29961 37.4064 7.61211 37.4064 9.18711C37.4064 10.7621 36.0939 12.0746 34.5189 12.0746Z" fill="white"/>
<path d="M34.5187 10.3684C35.171 10.3684 35.6999 9.8395 35.6999 9.18711C35.6999 8.53472 35.171 8.00586 34.5187 8.00586C33.8663 8.00586 33.3374 8.53472 33.3374 9.18711C33.3374 9.8395 33.8663 10.3684 34.5187 10.3684Z" fill="white"/>
<path d="M34.5187 18.8996C35.171 18.8996 35.6999 18.3707 35.6999 17.7184C35.6999 17.066 35.171 16.5371 34.5187 16.5371C33.8663 16.5371 33.3374 17.066 33.3374 17.7184C33.3374 18.3707 33.8663 18.8996 34.5187 18.8996Z" fill="white"/>
<path d="M34.5187 27.4309C35.171 27.4309 35.6999 26.902 35.6999 26.2496C35.6999 25.5972 35.171 25.0684 34.5187 25.0684C33.8663 25.0684 33.3374 25.5972 33.3374 26.2496C33.3374 26.902 33.8663 27.4309 34.5187 27.4309Z" fill="white"/>
<path d="M4.85625 18.9C2.625 21 1.3125 23.8875 1.3125 26.9062C1.3125 32.9438 6.3 37.9312 12.3375 37.9312C17.0625 37.9312 21 35.4375 22.575 31.3687H39.9C40.425 31.3687 40.6875 30.975 40.6875 30.5812V22.9688H22.4438L21.525 21.2625H40.6875V14.4375H4.85625V18.9ZM34.5187 23.3625C36.0938 23.3625 37.4062 24.675 37.4062 26.25C37.4062 27.825 36.0938 29.1375 34.5187 29.1375C32.9437 29.1375 31.6313 27.825 31.6313 26.25C31.6313 24.675 32.9437 23.3625 34.5187 23.3625ZM34.5187 14.8313C36.0938 14.8313 37.4062 16.1437 37.4062 17.7188C37.4062 19.2938 36.0938 20.6062 34.5187 20.6062C32.9437 20.6062 31.6313 19.2938 31.6313 17.7188C31.6313 16.1437 32.9437 14.8313 34.5187 14.8313ZM6.3 19.8188C8.00625 18.375 10.1062 17.5875 12.3375 17.5875C15.75 17.5875 18.7688 19.425 20.475 22.3125C21.2625 23.625 21.6562 25.2 21.6562 26.775C21.6562 27.9562 21 30.45 21 30.5812C19.6875 33.9937 16.4062 36.0938 12.3375 36.0938C7.21875 36.0938 3.01875 31.8937 3.01875 26.775C3.01875 24.15 4.2 21.6563 6.3 19.8188Z" fill="white"/>
</svg>
