<svg width="28" height="28" viewBox="0 0 28 28" fill="none" xmlns="http://www.w3.org/2000/svg">
<path fill-rule="evenodd" clip-rule="evenodd" d="M21 15.75C18.1005 15.75 15.75 18.1005 15.75 21C15.75 23.8995 18.1005 26.25 21 26.25C22.0272 26.25 22.9857 25.9549 23.795 25.445L24.8417 26.4916C25.2973 26.9472 26.036 26.9472 26.4916 26.4916C26.9472 26.036 26.9472 25.2973 26.4916 24.8417L25.445 23.795C25.9549 22.9857 26.25 22.0272 26.25 21C26.25 18.1005 23.8995 15.75 21 15.75ZM18.0833 21C18.0833 19.3892 19.3892 18.0833 21 18.0833C22.6108 18.0833 23.9167 19.3892 23.9167 21C23.9167 22.6108 22.6108 23.9167 21 23.9167C19.3892 23.9167 18.0833 22.6108 18.0833 21Z" fill="#051426"/>
<path d="M10.2185 1.16602H17.7815C18.7207 1.166 19.4957 1.16599 20.1271 1.21757C20.7829 1.27116 21.3857 1.38614 21.952 1.67466C22.83 2.12206 23.5439 2.83597 23.9913 3.71406C24.2798 4.28028 24.3949 4.88311 24.4484 5.53889C24.5 6.17028 24.5 6.94536 24.5 7.88448V12.7313C24.5 13.2449 24.5 13.5015 24.4127 13.6426C24.3276 13.7802 24.2322 13.8522 24.0767 13.8967C23.9171 13.9422 23.6356 13.8623 23.0725 13.7027C22.4138 13.516 21.7185 13.416 21 13.416C16.8118 13.416 13.4167 16.8111 13.4167 20.9993C13.4167 22.4175 13.806 23.7449 14.4836 24.8801C14.9746 25.703 15.2202 26.1144 15.2021 26.3044C15.1838 26.4978 15.123 26.6049 14.9664 26.7197C14.8124 26.8327 14.399 26.8327 13.5722 26.8327H10.2185C9.27934 26.8327 8.50426 26.8327 7.87288 26.7811C7.21709 26.7276 6.61427 26.6125 6.04805 26.324C5.16996 25.8766 4.45605 25.1627 4.00864 24.2847C3.72013 23.7184 3.60514 23.1156 3.55156 22.4598C3.49998 21.8284 3.49999 21.0534 3.5 20.1142V7.8845C3.49999 6.94538 3.49998 6.17028 3.55156 5.53889C3.60514 4.88311 3.72013 4.28028 4.00864 3.71406C4.45605 2.83597 5.16996 2.12206 6.04805 1.67466C6.61427 1.38614 7.21709 1.27116 7.87288 1.21757C8.50426 1.16599 9.27936 1.166 10.2185 1.16602Z" fill="#051426"/>
</svg>
