<svg width="33" height="33" viewBox="0 0 33 33" fill="none" xmlns="http://www.w3.org/2000/svg">
<path fill-rule="evenodd" clip-rule="evenodd" d="M23.0745 20.231C23.3397 20.231 23.5941 20.1257 23.7816 19.9381C23.9691 19.7506 24.0745 19.4962 24.0745 19.231V16.763C24.0745 16.4978 23.9691 16.2435 23.7816 16.0559C23.5941 15.8684 23.3397 15.763 23.0745 15.763H15.4878C15.2743 15.0515 14.8376 14.4275 14.2421 13.9832C13.6466 13.539 12.9241 13.2982 12.1812 13.2964C11.2619 13.2974 10.3807 13.6629 9.73055 14.3128C9.08044 14.9627 8.71457 15.8438 8.71316 16.763C8.71386 17.6825 9.07924 18.5641 9.72914 19.2145C10.379 19.8649 11.2604 20.2309 12.1798 20.2324C12.9228 20.23 13.6454 19.9887 14.2406 19.544C14.8359 19.0993 15.2722 18.4749 15.4852 17.763H18.3012V19.2324C18.3012 19.4976 18.4065 19.7519 18.594 19.9395C18.7816 20.127 19.0359 20.2324 19.3012 20.2324C19.5664 20.2324 19.8207 20.127 20.0083 19.9395C20.1958 19.7519 20.3012 19.4976 20.3012 19.2324V17.763H22.0745V19.2324C22.0745 19.7844 22.5225 20.2324 23.0745 20.2324V20.231ZM10.6172 3.42969H22.1758C26.6918 3.42969 29.7278 6.59902 29.7278 11.3177V22.207C29.7278 26.927 26.6918 30.0964 22.1732 30.0964H10.6158C6.09582 30.0964 3.06116 26.9257 3.06116 22.207V11.3177C3.06116 6.59902 6.09849 3.42969 10.6172 3.42969ZM10.7132 16.763C10.7132 15.9524 11.3732 15.2937 12.1825 15.2937C12.9918 15.2937 13.6518 15.9524 13.6518 16.763C13.6357 17.1419 13.4738 17.4999 13.2 17.7622C12.9262 18.0246 12.5617 18.1711 12.1825 18.1711C11.8033 18.1711 11.4387 18.0246 11.1649 17.7622C10.8912 17.4999 10.7293 17.1419 10.7132 16.763Z" fill="#EEEEEE"/>
</svg>
