<svg width="32" height="32" viewBox="0 0 32 32" fill="none" xmlns="http://www.w3.org/2000/svg">
<path d="M10.676 3.18C8.77119 3.70497 6.8793 4.2758 5.00201 4.892C4.83059 4.94753 4.67821 5.05009 4.56223 5.18799C4.44625 5.32589 4.37133 5.4936 4.34601 5.672C3.23801 13.986 5.79801 20.052 8.85201 24.048C10.145 25.7568 11.6868 27.2622 13.426 28.514C14.118 29.002 14.73 29.354 15.212 29.58C15.452 29.694 15.648 29.77 15.798 29.816C15.8636 29.839 15.9312 29.8558 16 29.866C16.068 29.855 16.1349 29.8382 16.2 29.816C16.352 29.77 16.548 29.694 16.788 29.58C17.268 29.354 17.882 29 18.574 28.514C20.3132 27.2621 21.855 25.7568 23.148 24.048C26.202 20.054 28.762 13.986 27.654 5.672C27.6289 5.49351 27.5541 5.3257 27.4381 5.18776C27.3221 5.04982 27.1696 4.94732 26.998 4.892C25.696 4.466 23.498 3.772 21.324 3.182C19.104 2.58 17.062 2.134 16 2.134C14.94 2.134 12.896 2.578 10.676 3.18ZM10.144 1.12C12.314 0.53 14.62 0 16 0C17.38 0 19.686 0.53 21.856 1.12C24.076 1.72 26.314 2.43 27.63 2.86C28.1802 3.0417 28.668 3.37493 29.0374 3.8214C29.4067 4.26787 29.6426 4.80948 29.718 5.384C30.91 14.338 28.144 20.974 24.788 25.364C23.3649 27.242 21.668 28.8957 19.754 30.27C19.0922 30.7456 18.391 31.1637 17.658 31.52C17.098 31.784 16.496 32 16 32C15.504 32 14.904 31.784 14.342 31.52C13.609 31.1638 12.9078 30.7456 12.246 30.27C10.3321 28.8957 8.63517 27.2419 7.21201 25.364C3.85601 20.974 1.09001 14.338 2.28201 5.384C2.35739 4.80948 2.5933 4.26787 2.96264 3.8214C3.33199 3.37493 3.81979 3.0417 4.37001 2.86C6.28039 2.23362 8.20562 1.65345 10.144 1.12Z" fill="white"/>
<path d="M19 12.9984C19.0003 13.6191 18.8081 14.2246 18.4499 14.7314C18.0917 15.2383 17.5852 15.6215 17 15.8284L17.77 19.8084C17.798 19.9532 17.7937 20.1023 17.7573 20.2452C17.7209 20.3881 17.6534 20.5212 17.5595 20.6349C17.4657 20.7486 17.3478 20.8402 17.2145 20.903C17.0811 20.9659 16.9354 20.9985 16.788 20.9984H15.212C15.0647 20.9982 14.9193 20.9654 14.7862 20.9024C14.6531 20.8394 14.5355 20.7478 14.4419 20.6341C14.3482 20.5205 14.2809 20.3875 14.2446 20.2447C14.2083 20.102 14.204 19.953 14.232 19.8084L15 15.8284C14.4815 15.6451 14.0234 15.3228 13.6757 14.8968C13.328 14.4707 13.1041 13.9573 13.0285 13.4125C12.9529 12.8678 13.0284 12.3128 13.2469 11.8082C13.4654 11.3035 13.8184 10.8686 14.2673 10.551C14.7162 10.2333 15.2438 10.0452 15.7925 10.0072C16.3411 9.96914 16.8896 10.0826 17.3781 10.3352C17.8665 10.5878 18.2762 10.9699 18.5622 11.4395C18.8483 11.9092 18.9997 12.4485 19 12.9984Z" fill="white"/>
</svg>
