<svg width="42" height="42" viewBox="0 0 42 42" fill="none" xmlns="http://www.w3.org/2000/svg">
<path d="M24.5 30.625V32.375H17.5V30.625H0.875V32.375C0.875 33.3033 1.24375 34.1935 1.90013 34.8499C2.5565 35.5063 3.44674 35.875 4.375 35.875H37.625C38.5533 35.875 39.4435 35.5063 40.0999 34.8499C40.7562 34.1935 41.125 33.3033 41.125 32.375V30.625H24.5Z" fill="white"/>
<path d="M21 19.25C21.9665 19.25 22.75 18.4665 22.75 17.5C22.75 16.5335 21.9665 15.75 21 15.75C20.0335 15.75 19.25 16.5335 19.25 17.5C19.25 18.4665 20.0335 19.25 21 19.25Z" fill="white"/>
<path d="M26.0312 16.0038C25.5063 14.1663 24.955 14.77 26.5738 13.1688L25.375 11.9263C24.7362 12.5738 24.2725 13.2738 23.5375 12.88C22.8025 12.4863 21.875 12.495 21.875 11.6287V10.5H20.125C20.125 11.375 20.3 12.25 19.5038 12.4688C17.6663 12.9938 18.27 13.545 16.6687 11.9263L15.4262 13.1688C16.0737 13.8075 16.7737 14.2712 16.38 15.0062C15.9862 15.7412 15.995 16.625 15.1288 16.625H14V18.375C14.875 18.375 15.75 18.2 15.9688 18.9962C16.4938 20.8337 17.045 20.23 15.4262 21.8313L16.6687 23.0738C17.3075 22.4263 17.7712 21.7263 18.5062 22.12C19.2412 22.5138 20.125 22.505 20.125 23.3712V24.5H21.875C21.875 23.625 21.7 22.75 22.4962 22.5312C24.3337 22.0063 23.73 21.455 25.3313 23.0738L26.5738 21.875C25.9263 21.2362 25.2263 20.7725 25.62 20.0375C26.0138 19.3025 26.005 18.375 26.8712 18.375H28V16.625C27.125 16.625 26.25 16.8 26.0312 16.0038ZM21 21C20.3078 21 19.6311 20.7947 19.0555 20.4101C18.4799 20.0256 18.0313 19.4789 17.7664 18.8394C17.5015 18.1999 17.4322 17.4961 17.5673 16.8172C17.7023 16.1383 18.0356 15.5146 18.5251 15.0251C19.0146 14.5356 19.6383 14.2023 20.3172 14.0673C20.9961 13.9322 21.6999 14.0015 22.3394 14.2664C22.9789 14.5313 23.5256 14.9799 23.9101 15.5555C24.2947 16.1311 24.5 16.8078 24.5 17.5C24.5 18.4283 24.1313 19.3185 23.4749 19.9749C22.8185 20.6313 21.9283 21 21 21Z" fill="white"/>
<path d="M39.375 9.625C39.375 8.69674 39.0062 7.8065 38.3499 7.15013C37.6935 6.49375 36.8033 6.125 35.875 6.125H6.125C5.19674 6.125 4.3065 6.49375 3.65013 7.15013C2.99375 7.8065 2.625 8.69674 2.625 9.625V28.875H39.375V9.625ZM29.75 19.25C29.75 19.4821 29.6578 19.7046 29.4937 19.8687C29.3296 20.0328 29.1071 20.125 28.875 20.125C27.02 20.125 27.125 19.8975 28.4288 21.21C28.5108 21.2913 28.5759 21.3881 28.6203 21.4947C28.6647 21.6014 28.6876 21.7157 28.6876 21.8313C28.6876 21.9468 28.6647 22.0611 28.6203 22.1678C28.5759 22.2744 28.5108 22.3712 28.4288 22.4525L25.9525 24.9287C25.8712 25.0108 25.7744 25.0759 25.6678 25.1203C25.5611 25.1647 25.4468 25.1876 25.3313 25.1876C25.2157 25.1876 25.1014 25.1647 24.9947 25.1203C24.8881 25.0759 24.7913 25.0108 24.71 24.9287C23.38 23.625 23.625 23.5375 23.625 25.375C23.625 25.6071 23.5328 25.8296 23.3687 25.9937C23.2046 26.1578 22.9821 26.25 22.75 26.25H19.25C19.0179 26.25 18.7954 26.1578 18.6313 25.9937C18.4672 25.8296 18.375 25.6071 18.375 25.375C18.375 23.52 18.6025 23.625 17.29 24.9287C17.2087 25.0108 17.1119 25.0759 17.0053 25.1203C16.8986 25.1647 16.7843 25.1876 16.6687 25.1876C16.5532 25.1876 16.4389 25.1647 16.3322 25.1203C16.2256 25.0759 16.1288 25.0108 16.0475 24.9287L13.5712 22.4525C13.4892 22.3712 13.4241 22.2744 13.3797 22.1678C13.3353 22.0611 13.3124 21.9468 13.3124 21.8313C13.3124 21.7157 13.3353 21.6014 13.3797 21.4947C13.4241 21.3881 13.4892 21.2913 13.5712 21.21C14.875 19.88 14.9625 20.125 13.125 20.125C12.8929 20.125 12.6704 20.0328 12.5063 19.8687C12.3422 19.7046 12.25 19.4821 12.25 19.25V15.75C12.25 15.5179 12.3422 15.2954 12.5063 15.1313C12.6704 14.9672 12.8929 14.875 13.125 14.875C14.98 14.875 14.875 15.1025 13.5712 13.79C13.4892 13.7087 13.4241 13.6119 13.3797 13.5053C13.3353 13.3986 13.3124 13.2843 13.3124 13.1688C13.3124 13.0532 13.3353 12.9389 13.3797 12.8322C13.4241 12.7256 13.4892 12.6288 13.5712 12.5475L16.0475 10.0713C16.1288 9.98924 16.2256 9.92414 16.3322 9.87972C16.4389 9.8353 16.5532 9.81243 16.6687 9.81243C16.7843 9.81243 16.8986 9.8353 17.0053 9.87972C17.1119 9.92414 17.2087 9.98924 17.29 10.0713C18.62 11.375 18.375 11.4625 18.375 9.625C18.375 9.39294 18.4672 9.17038 18.6313 9.00628C18.7954 8.84219 19.0179 8.75 19.25 8.75H22.75C22.9821 8.75 23.2046 8.84219 23.3687 9.00628C23.5328 9.17038 23.625 9.39294 23.625 9.625C23.625 11.48 23.3975 11.375 24.71 10.0713C24.7913 9.98924 24.8881 9.92414 24.9947 9.87972C25.1014 9.8353 25.2157 9.81243 25.3313 9.81243C25.4468 9.81243 25.5611 9.8353 25.6678 9.87972C25.7744 9.92414 25.8712 9.98924 25.9525 10.0713L28.4288 12.5475C28.5108 12.6288 28.5759 12.7256 28.6203 12.8322C28.6647 12.9389 28.6876 13.0532 28.6876 13.1688C28.6876 13.2843 28.6647 13.3986 28.6203 13.5053C28.5759 13.6119 28.5108 13.7087 28.4288 13.79C27.125 15.12 27.0375 14.875 28.875 14.875C29.1071 14.875 29.3296 14.9672 29.4937 15.1313C29.6578 15.2954 29.75 15.5179 29.75 15.75V19.25Z" fill="white"/>
</svg>
