<svg width="32" height="32" viewBox="0 0 32 32" fill="none" xmlns="http://www.w3.org/2000/svg">
<path opacity="0.12" d="M12.0002 14.6673C14.5775 14.6673 16.6668 12.578 16.6668 10.0007C16.6668 7.42332 14.5775 5.33398 12.0002 5.33398C9.42283 5.33398 7.3335 7.42332 7.3335 10.0007C7.3335 12.578 9.42283 14.6673 12.0002 14.6673Z" fill="white"/>
<path d="M25.3332 12.002L21.3332 8.00195M21.3332 8.00195L25.3332 4.00195M21.3332 8.00195H29.3332M21.3332 28.002V26.402C21.3332 24.1617 21.3332 23.0417 20.8972 22.186C20.5137 21.4333 19.9018 20.8214 19.1492 20.438C18.2934 20.002 17.1734 20.002 14.9332 20.002H9.0665C6.82629 20.002 5.70618 20.002 4.85054 20.438C4.09789 20.8214 3.48597 21.4333 3.10248 22.186C2.6665 23.0417 2.6665 24.1617 2.6665 26.402V28.002M16.6665 10.002C16.6665 12.5793 14.5772 14.6686 11.9998 14.6686C9.4225 14.6686 7.33317 12.5793 7.33317 10.002C7.33317 7.42462 9.4225 5.33529 11.9998 5.33529C14.5772 5.33529 16.6665 7.42462 16.6665 10.002Z" stroke="white" stroke-width="2.66667" stroke-linecap="round" stroke-linejoin="round"/>
</svg>
