<svg width="44" height="44" viewBox="0 0 44 44" fill="none" xmlns="http://www.w3.org/2000/svg">
<path d="M28.5424 6.05718V16.355H25.8652V7.22658C25.8652 6.43831 25.2275 5.80062 24.4393 5.80062H14.4557C13.6692 5.80062 13.0297 6.43831 13.0297 7.22658V16.355H10.3525V6.05718C10.3525 4.37652 11.7153 3.01562 13.396 3.01562H25.5008C27.1815 3.01562 28.5424 4.37652 28.5424 6.05718Z" fill="white"/>
<path d="M32.1807 27.1953C34.2908 27.1953 35.9994 28.9057 35.9994 31.0159C35.9994 33.1241 34.2908 34.8345 32.1807 34.8345C30.0724 34.8345 28.362 33.1241 28.362 31.0159C28.362 28.9057 30.0724 27.1953 32.1807 27.1953Z" fill="white"/>
<path d="M12.3809 30.9062L9.5289 34.5446H6.76068V34.4367L9.5289 30.9062H12.3809Z" fill="white"/>
<path d="M18.003 30.9062H18.0885L15.2346 34.5446H12.3809L15.2346 30.9062H18.003Z" fill="white"/>
<path d="M23.7086 30.9062L20.8567 34.5446H18.0029L20.8567 30.9062H23.7086Z" fill="white"/>
<path d="M39.5894 23.1367V31.9026C39.5894 34.6058 38.3066 37.1974 36.1556 38.8353L32.1807 41.8639L28.2059 38.8353C26.7743 37.744 25.7276 36.2325 25.1885 34.5444C24.9152 33.6966 24.772 32.8061 24.772 31.9026V23.1367H39.5894Z" stroke="white" stroke-width="0.46475" stroke-linecap="round" stroke-linejoin="round"/>
<path d="M35.9994 31.0159C35.9994 33.1241 34.2908 34.8345 32.1807 34.8345C30.0724 34.8345 28.362 33.1241 28.362 31.0159C28.362 28.9057 30.0724 27.1953 32.1807 27.1953C34.2908 27.1953 35.9994 28.9057 35.9994 31.0159Z" stroke="white" stroke-width="0.46475" stroke-linecap="round" stroke-linejoin="round"/>
<path d="M30.6656 31.1453L31.5895 32.0693L33.6978 29.9629" stroke="#00152E" stroke-linecap="round" stroke-linejoin="round"/>
<path d="M10.3525 16.355V6.05718C10.3525 4.37652 11.7153 3.01562 13.396 3.01562H25.5008C27.1815 3.01562 28.5424 4.37652 28.5424 6.05718V16.355" stroke="white" stroke-width="0.46475" stroke-linecap="round" stroke-linejoin="round"/>
<path d="M25.8652 16.3571V7.2287C25.8652 6.44042 25.2275 5.80273 24.4392 5.80273H14.4556C13.6692 5.80273 13.0297 6.44042 13.0297 7.2287V16.3571M25.1885 34.5469H6.71418C6.04488 34.5469 5.50201 34.0041 5.50201 33.3329V17.5692C5.50201 16.9 6.04488 16.3571 6.71418 16.3571H32.1807C32.85 16.3571 33.3929 16.9 33.3929 17.5692V23.1392" stroke="white" stroke-width="0.46475" stroke-linecap="round" stroke-linejoin="round"/>
<path d="M5.50201 30.9062H9.52887H12.3809H15.2346H18.0029H18.0884H20.8566H23.7086H24.6456" stroke="white" stroke-width="0.46475" stroke-linecap="round" stroke-linejoin="round"/>
<path d="M6.76068 34.4367L9.5289 30.9062" stroke="white" stroke-width="0.46475" stroke-linecap="round" stroke-linejoin="round"/>
<path d="M9.52887 34.5446L12.3809 30.9062" stroke="white" stroke-width="0.46475" stroke-linecap="round" stroke-linejoin="round"/>
<path d="M12.3809 34.5446L15.2346 30.9062" stroke="white" stroke-width="0.46475" stroke-linecap="round" stroke-linejoin="round"/>
<path d="M15.2346 34.5446L18.0884 30.9062" stroke="white" stroke-width="0.46475" stroke-linecap="round" stroke-linejoin="round"/>
<path d="M15.2346 34.4367L18.0029 30.9062" stroke="white" stroke-width="0.46475" stroke-linecap="round" stroke-linejoin="round"/>
<path d="M18.0029 34.5446L20.8567 30.9062" stroke="white" stroke-width="0.46475" stroke-linecap="round" stroke-linejoin="round"/>
<path d="M20.8566 34.5446L23.7085 30.9062" stroke="white" stroke-width="0.46475" stroke-linecap="round" stroke-linejoin="round"/>
</svg>
