<svg width="42" height="42" viewBox="0 0 42 42" fill="none" xmlns="http://www.w3.org/2000/svg">
<path d="M33.6002 12.6012H7.3502V11.5512L30.4502 9.70319V11.5512H33.6002V8.40119C33.6002 6.09119 31.7291 4.46999 29.4443 4.79549L8.3582 7.80689C6.0713 8.13449 4.2002 10.2912 4.2002 12.6012V33.6012C4.2002 34.7151 4.64269 35.7834 5.43035 36.571C6.218 37.3587 7.28629 37.8012 8.4002 37.8012H33.6002C34.7141 37.8012 35.7824 37.3587 36.57 36.571C37.3577 35.7834 37.8002 34.7151 37.8002 33.6012V16.8012C37.8002 15.6873 37.3577 14.619 36.57 13.8313C35.7824 13.0437 34.7141 12.6012 33.6002 12.6012ZM30.4502 27.3138C30.0364 27.3137 29.6267 27.232 29.2444 27.0735C28.8622 26.9151 28.5149 26.6828 28.2224 26.3901C27.9299 26.0974 27.6979 25.75 27.5397 25.3676C27.3814 24.9853 27.3001 24.5755 27.3002 24.1617C27.3003 23.7479 27.382 23.3382 27.5405 22.9559C27.6989 22.5737 27.9312 22.2264 28.2239 21.9339C28.5166 21.6414 28.864 21.4094 29.2464 21.2512C29.6287 21.0929 30.0385 21.0116 30.4523 21.0117C31.288 21.012 32.0894 21.3442 32.6801 21.9354C33.2709 22.5265 33.6026 23.3281 33.6023 24.1638C33.602 24.9995 33.2698 25.8009 32.6786 26.3916C32.0875 26.9824 31.2859 27.3141 30.4502 27.3138Z" fill="white"/>
</svg>
