<svg width="32" height="32" viewBox="0 0 32 32" fill="none" xmlns="http://www.w3.org/2000/svg">
<g clip-path="url(#clip0_11676_33316)">
<path fill-rule="evenodd" clip-rule="evenodd" d="M8.268 25C8.614 24.402 9.26 24 10 24C10.74 24 11.386 24.402 11.732 25H29C29.552 25 30 25.448 30 26C30 26.552 29.552 27 29 27H11.732C11.386 27.598 10.74 28 10 28C9.26 28 8.614 27.598 8.268 27H3C2.448 27 2 26.552 2 26C2 25.448 2.448 25 3 25H8.268ZM30 7C30 5.343 28.657 4 27 4C22.157 4 9.843 4 5 4C3.343 4 2 5.343 2 7C2 10.074 2 15.926 2 19C2 20.657 3.343 22 5 22C9.843 22 22.157 22 27 22C28.657 22 30 20.657 30 19V7ZM28 7C28 6.448 27.552 6 27 6C22.157 6 9.843 6 5 6C4.448 6 4 6.448 4 7C4 10.074 4 15.926 4 19C4 19.552 4.448 20 5 20C9.843 20 22.157 20 27 20C27.552 20 28 19.552 28 19V7ZM18.6 13.8C18.852 13.611 19 13.315 19 13C19 12.685 18.852 12.389 18.6 12.2L14.6 9.2C14.297 8.973 13.892 8.936 13.553 9.106C13.214 9.275 13 9.621 13 10V16C13 16.379 13.214 16.725 13.553 16.894C13.892 17.064 14.297 17.027 14.6 16.8L18.6 13.8ZM15 14L16.333 13L15 12V14Z" fill="white"/>
</g>
<defs>
<clipPath id="clip0_11676_33316">
<rect width="32" height="32" fill="white"/>
</clipPath>
</defs>
</svg>
