<svg width="32" height="32" viewBox="0 0 32 32" fill="none" xmlns="http://www.w3.org/2000/svg">
<path d="M16.08 23.12C15.9668 23.12 15.853 23.0871 15.7544 23.0214L8.12777 17.935C7.96467 17.8265 7.8667 17.6429 7.8667 17.4469V3.76C7.8667 2.78965 8.65635 2 9.6267 2H22.5334C23.5037 2 24.2934 2.78965 24.2934 3.76V17.4469C24.2934 17.6429 24.1954 17.8259 24.0323 17.935L16.4056 23.0214C16.3071 23.0871 16.1933 23.12 16.08 23.12ZM9.04003 17.1331L16.08 21.8282L23.12 17.1331V3.76C23.12 3.43616 22.8566 3.17333 22.5334 3.17333H9.6267C9.30345 3.17333 9.04003 3.43616 9.04003 3.76V17.1331Z" fill="white"/>
<path d="M26.917 14.9737C26.7264 14.8722 26.4946 14.8834 26.3151 15.003L16.0801 21.826L5.84515 15.003C5.66504 14.8828 5.43331 14.8716 5.24323 14.9737C5.05256 15.0764 4.93347 15.2747 4.93347 15.4911V29.5711C4.93347 29.8956 5.1963 30.1578 5.52014 30.1578H26.6401C26.964 30.1578 27.2268 29.8956 27.2268 29.5711V15.4911C27.2268 15.2747 27.1077 15.0764 26.917 14.9737Z" fill="white"/>
<path d="M8.45347 18.0339C8.33966 18.0339 8.22643 18.0004 8.12846 17.9353L5.19513 15.9817C5.04846 15.8843 4.95401 15.7259 4.93641 15.5517C4.91881 15.3775 4.98099 15.2032 5.10537 15.0788L8.0387 12.1455C8.20649 11.9771 8.45758 11.9267 8.67817 12.0182C8.89699 12.1086 9.04014 12.3233 9.04014 12.5603V17.4472C9.04014 17.6637 8.92105 17.862 8.73038 17.9647C8.64355 18.011 8.54851 18.0339 8.45347 18.0339ZM6.44121 15.4021L7.86681 16.3519V13.9765L6.44121 15.4021ZM23.7068 18.0339C23.6118 18.0339 23.5167 18.011 23.4299 17.9647C23.2392 17.862 23.1201 17.6637 23.1201 17.4472V12.5603C23.1201 12.3233 23.2633 12.1086 23.4821 12.0182C23.7015 11.9267 23.9532 11.9771 24.1216 12.1455L27.0549 15.0788C27.1793 15.2032 27.2415 15.3769 27.2239 15.5517C27.2063 15.7265 27.1118 15.8843 26.9652 15.9817L24.0318 17.9353C23.9338 18.0004 23.8206 18.0339 23.7068 18.0339ZM24.2935 13.9765V16.3519L25.7191 15.4021L24.2935 13.9765ZM20.7735 10.8003H11.3868C11.063 10.8003 10.8001 10.538 10.8001 10.2136C10.8001 9.88919 11.063 9.62695 11.3868 9.62695H20.7735C21.0973 9.62695 21.3601 9.88919 21.3601 10.2136C21.3601 10.538 21.0973 10.8003 20.7735 10.8003Z" fill="white"/>
<path d="M16.0801 5.51758C13.4923 5.51758 11.3867 7.62313 11.3867 10.2109C11.3867 10.5353 11.6495 10.7976 11.9734 10.7976H20.1867C20.5106 10.7976 20.7734 10.5353 20.7734 10.2109C20.7734 7.62313 18.6678 5.51758 16.0801 5.51758Z" fill="white"/>
<path d="M16.0801 18.427C15.3573 18.427 14.6462 18.2351 14.0244 17.872C12.9649 17.2659 12.238 16.2199 12.0338 15.0038C11.9945 14.7908 11.9734 14.5573 11.9734 14.3203V10.2136C11.9734 9.88919 12.2362 9.62695 12.5601 9.62695H19.6001C19.9239 9.62695 20.1867 9.88919 20.1867 10.2136V14.3203C20.1867 14.5591 20.1656 14.7931 20.1239 15.0155C19.9221 16.2199 19.1953 17.2659 18.1316 17.8749C17.5139 18.2351 16.8028 18.427 16.0801 18.427ZM13.1467 10.8003V14.3203C13.1467 14.4857 13.1608 14.6471 13.1895 14.7996C13.3368 15.6767 13.8548 16.4229 14.6116 16.8559C15.5186 17.385 16.6462 17.3821 17.545 16.8588C18.3059 16.4229 18.8239 15.6767 18.9694 14.8102C18.9993 14.6482 19.0134 14.4869 19.0134 14.3203V10.8003H13.1467Z" fill="white"/>
<path d="M19.6001 11.9727H17.2534C16.8011 11.9727 16.3922 12.1492 16.0801 12.4303C15.7679 12.1487 15.359 11.9727 14.9067 11.9727H12.5601C12.2362 11.9727 11.9734 12.2349 11.9734 12.5593V14.3193C11.9734 14.5563 11.9945 14.7898 12.0362 15.0133C12.0878 15.2908 12.3301 15.4927 12.6129 15.4927H14.9067C15.3543 15.4927 15.7685 15.3237 16.0812 15.0327C16.401 15.3266 16.811 15.4927 17.2534 15.4927H19.5473C19.8294 15.4927 20.0717 15.2914 20.1239 15.0145C20.1656 14.7922 20.1867 14.5581 20.1867 14.3193V12.5593C20.1867 12.2349 19.9239 11.9727 19.6001 11.9727Z" fill="white"/>
</svg>
