<svg width="32" height="32" viewBox="0 0 32 32" fill="none" xmlns="http://www.w3.org/2000/svg">
<path d="M26.5152 24.0344L24.4224 18.0424C24.6782 17.4998 24.7848 16.899 24.7312 16.3016C24.7099 16.0588 24.738 15.8143 24.8139 15.5827C24.8898 15.3511 25.0119 15.1374 25.1728 14.9544C25.7127 14.3342 26.0095 13.5394 26.0083 12.7172C26.0071 11.8949 25.708 11.101 25.1664 10.4824C25.007 10.2993 24.8864 10.0858 24.8119 9.85479C24.7374 9.62378 24.7105 9.38006 24.7328 9.13836C24.8059 8.31961 24.5797 7.50212 24.096 6.83749C23.6123 6.17285 22.904 5.70617 22.1024 5.52396C21.8656 5.46979 21.6423 5.36812 21.4459 5.22511C21.2495 5.08209 21.0842 4.90072 20.96 4.69196C20.5384 3.98605 19.8749 3.45706 19.0929 3.20313C18.3108 2.94921 17.4632 2.98759 16.7072 3.31116C16.4838 3.40712 16.2432 3.45661 16 3.45661C15.7569 3.45661 15.5162 3.40712 15.2928 3.31116C14.537 2.98748 13.6894 2.94922 12.9074 3.20348C12.1255 3.45774 11.4625 3.98724 11.0416 4.69356C10.9168 4.90277 10.7507 5.08441 10.5535 5.22743C10.3563 5.37046 10.1321 5.47189 9.89443 5.52556C9.09392 5.70943 8.3871 6.177 7.9047 6.84176C7.42231 7.50652 7.19699 8.3235 7.27043 9.14156C7.31526 9.61207 7.17138 10.0811 6.87043 10.4456L6.86402 10.4504L6.82883 10.4888C6.28876 11.1087 5.99165 11.9034 5.99253 12.7257C5.99342 13.5479 6.29223 14.3419 6.83362 14.9608C6.99329 15.1437 7.11418 15.3571 7.18899 15.5882C7.26379 15.8192 7.29095 16.0629 7.26883 16.3048C7.21488 16.9017 7.32149 17.5021 7.57763 18.044L5.48163 24.0424C5.3696 24.3678 5.34255 24.7164 5.40303 25.0552C5.46351 25.394 5.60952 25.7118 5.82723 25.9784C6.03931 26.239 6.31412 26.4415 6.62588 26.5669C6.93764 26.6923 7.27614 26.7364 7.60963 26.6952L10.2016 26.4072C10.2638 26.4009 10.3266 26.4087 10.3853 26.4301C10.444 26.4514 10.4972 26.4857 10.5408 26.5304L12.3952 28.3688C12.5817 28.5567 12.8036 28.7059 13.0479 28.8078C13.2923 28.9096 13.5545 28.9622 13.8192 28.9624C13.9721 28.9623 14.1245 28.9451 14.2736 28.9112C14.6039 28.8362 14.9095 28.6783 15.1618 28.4524C15.414 28.2265 15.6045 27.94 15.7152 27.62L16 26.804L16.2832 27.6168C16.3939 27.9377 16.5847 28.225 16.8376 28.4515C17.0904 28.6781 17.3969 28.8363 17.728 28.9112C17.8771 28.9451 18.0295 28.9622 18.1824 28.9624C18.4466 28.9621 18.7081 28.9097 18.9519 28.8081C19.1957 28.7065 19.4171 28.5578 19.6032 28.3704L21.4624 26.5288C21.5046 26.4871 21.555 26.4547 21.6103 26.4335C21.6657 26.4122 21.7248 26.4028 21.784 26.4056L24.3808 26.6936C24.716 26.7385 25.057 26.6962 25.371 26.5706C25.6849 26.445 25.9611 26.2404 26.1728 25.9768C26.3908 25.7091 26.5367 25.3901 26.5966 25.0501C26.6566 24.7101 26.6285 24.3605 26.5152 24.0344ZM8.03203 11.5432L8.03682 11.5384C8.33957 11.1916 8.56895 10.7872 8.71112 10.3494C8.85329 9.91164 8.9053 9.44959 8.86403 8.99116C8.82533 8.55922 8.94459 8.12791 9.19968 7.7772C9.45476 7.4265 9.82837 7.18019 10.2512 7.08396C10.7003 6.98188 11.124 6.78972 11.4967 6.51909C11.8693 6.24847 12.1832 5.90503 12.4192 5.50956C12.6413 5.13681 12.9912 4.85747 13.4039 4.72354C13.8165 4.58961 14.2638 4.61023 14.6624 4.78156C15.0858 4.96322 15.5417 5.0569 16.0024 5.0569C16.4631 5.0569 16.919 4.96322 17.3424 4.78156C17.7412 4.61162 18.188 4.59172 18.6003 4.72553C19.0127 4.85935 19.3626 5.13783 19.5856 5.50956C19.8216 5.90526 20.1354 6.24897 20.508 6.51987C20.8807 6.79076 21.3044 6.98321 21.7536 7.08556C22.1771 7.18222 22.551 7.42938 22.8059 7.78107C23.0607 8.13277 23.1792 8.56506 23.1392 8.99756C23.0986 9.45608 23.1514 9.91806 23.2944 10.3556C23.4374 10.7931 23.6677 11.1971 23.9712 11.5432C24.2563 11.8709 24.4127 12.2908 24.4115 12.7252C24.4104 13.1595 24.2516 13.5786 23.9648 13.9048C23.6626 14.2517 23.4338 14.6563 23.2922 15.0941C23.1506 15.5318 23.0991 15.9937 23.1408 16.452C23.1794 16.8841 23.06 17.3156 22.8046 17.6664C22.5492 18.0171 22.1752 18.2633 21.752 18.3592C21.3029 18.4611 20.8791 18.6533 20.5065 18.9239C20.1338 19.1945 19.82 19.538 19.584 19.9336C19.3623 20.3062 19.0126 20.5855 18.6002 20.7194C18.1878 20.8534 17.7408 20.8328 17.3424 20.6616L17.3136 20.652L17.3056 20.6472H17.2944C16.8766 20.474 16.4284 20.3861 15.9762 20.3886C15.5239 20.3911 15.0767 20.4839 14.6608 20.6616C14.262 20.8327 13.8146 20.8531 13.4019 20.7189C12.9892 20.5847 12.6394 20.305 12.4176 19.932C12.1815 19.5365 11.8676 19.1931 11.495 18.9225C11.1224 18.6519 10.6987 18.4597 10.2496 18.3576C9.82618 18.2609 9.45225 18.0137 9.19738 17.662C8.94251 17.3103 8.82405 16.8781 8.86403 16.4456C8.90484 15.9868 8.85215 15.5245 8.70914 15.0867C8.56614 14.6488 8.33578 14.2446 8.03203 13.8984C7.74752 13.572 7.59077 13.1537 7.59077 12.7208C7.59077 12.2878 7.74752 11.8695 8.03203 11.5432ZM14.2048 27.0952C14.1824 27.159 14.144 27.216 14.0933 27.2608C14.0426 27.3056 13.9813 27.3367 13.9152 27.3512C13.8454 27.3671 13.7726 27.3647 13.7039 27.3443C13.6352 27.3238 13.573 27.2859 13.5232 27.2344L11.6704 25.3976C11.4579 25.187 11.2017 25.0258 10.92 24.9251C10.6382 24.8245 10.3379 24.787 10.04 24.8152L7.42083 25.1048C7.35506 25.1153 7.28768 25.1079 7.22575 25.0834C7.16382 25.0589 7.10962 25.0182 7.06883 24.9656C7.02307 24.9106 6.99226 24.8448 6.97937 24.7744C6.96648 24.7041 6.97194 24.6316 6.99523 24.564L8.78402 19.444C9.12347 19.6683 9.50077 19.8293 9.89762 19.9192C10.1347 19.9731 10.3584 20.0747 10.555 20.2177C10.7517 20.3608 10.9172 20.5422 11.0416 20.7512C11.4633 21.4567 12.1265 21.9853 12.9083 22.2389C13.6901 22.4925 14.5373 22.454 15.2928 22.1304C15.5124 22.0369 15.7486 21.9885 15.9872 21.988L14.2048 27.0952ZM24.9328 24.9672C24.8899 25.0205 24.8333 25.0614 24.7691 25.0853C24.7049 25.1092 24.6354 25.1154 24.568 25.1032L21.944 24.8152C21.6493 24.7882 21.3523 24.8262 21.0739 24.9266C20.7955 25.0269 20.5425 25.1872 20.3328 25.396L18.4752 27.236C18.4256 27.2867 18.3639 27.324 18.2958 27.3441C18.2278 27.3643 18.1557 27.3667 18.0864 27.3512C18.0197 27.3365 17.9579 27.305 17.907 27.2596C17.856 27.2142 17.8175 27.1565 17.7952 27.092L16.848 24.3784L17.5552 22.3576C17.7154 22.3853 17.8775 22.4013 18.04 22.4056C18.6284 22.4066 19.2069 22.2546 19.7189 21.9646C20.2308 21.6745 20.6585 21.2564 20.96 20.7512C21.0849 20.542 21.2509 20.3603 21.4481 20.2173C21.6453 20.0743 21.8696 19.9728 22.1072 19.9192C22.503 19.8298 22.8792 19.6693 23.2176 19.4456L25.0048 24.5576C25.0296 24.6261 25.0361 24.6999 25.0237 24.7717C25.0114 24.8435 24.979 24.9108 24.9328 24.9672ZM16 19.0632C17.2548 19.0632 18.4813 18.6911 19.5246 17.994C20.5678 17.2969 21.381 16.3061 21.8611 15.1469C22.3413 13.9877 22.4669 12.7121 22.2221 11.4815C21.9773 10.2509 21.3731 9.1205 20.4859 8.23327C19.5987 7.34605 18.4683 6.74184 17.2377 6.49706C16.0071 6.25227 14.7315 6.3779 13.5723 6.85807C12.4131 7.33823 11.4223 8.15136 10.7252 9.19462C10.0281 10.2379 9.65602 11.4644 9.65602 12.7192C9.65772 14.4013 10.3266 16.0141 11.5159 17.2037C12.7052 18.3934 14.3179 19.0626 16 19.0648V19.0632ZM16 7.97516C16.9383 7.97516 17.8555 8.25339 18.6356 8.77467C19.4158 9.29594 20.0238 10.0369 20.3829 10.9037C20.742 11.7706 20.8359 12.7244 20.6529 13.6447C20.4698 14.5649 20.018 15.4102 19.3545 16.0737C18.6911 16.7371 17.8458 17.189 16.9255 17.372C16.0053 17.5551 15.0514 17.4611 14.1846 17.102C13.3177 16.743 12.5768 16.1349 12.0555 15.3548C11.5343 14.5746 11.256 13.6574 11.256 12.7192C11.2577 11.4616 11.7581 10.2561 12.6475 9.36708C13.5368 8.47803 14.7425 7.97643 16 7.97516ZM14.144 13.0568C14.0077 12.9573 13.9063 12.8173 13.8543 12.6568C13.8023 12.4963 13.8024 12.3234 13.8546 12.1629C13.9068 12.0025 14.0084 11.8626 14.1448 11.7634C14.2813 11.6641 14.4457 11.6106 14.6144 11.6104H15.0912L15.24 11.156C15.3055 11.0091 15.4121 10.8843 15.547 10.7967C15.6818 10.7091 15.8392 10.6625 16 10.6625C16.1608 10.6625 16.3182 10.7091 16.4531 10.7967C16.588 10.8843 16.6946 11.0091 16.76 11.156L16.9088 11.6104H17.3856C17.5544 11.6106 17.7187 11.6641 17.8552 11.7634C17.9917 11.8626 18.0933 12.0025 18.1455 12.1629C18.1976 12.3234 18.1978 12.4963 18.1458 12.6568C18.0938 12.8173 17.9924 12.9573 17.856 13.0568L17.4704 13.3384L17.6176 13.7928C17.6701 13.9536 17.6702 14.1269 17.618 14.2878C17.5658 14.4486 17.4639 14.5888 17.327 14.6882C17.1902 14.7876 17.0253 14.841 16.8562 14.8408C16.687 14.8406 16.5223 14.7868 16.3856 14.6872L16.0016 14.4056L15.6144 14.6872C15.4778 14.7868 15.313 14.8406 15.1439 14.8408C14.9747 14.841 14.8099 14.7876 14.673 14.6882C14.5361 14.5888 14.4343 14.4486 14.3821 14.2878C14.3298 14.1269 14.33 13.9536 14.3824 13.7928L14.5312 13.3384L14.144 13.0568Z" fill="white"/>
</svg>
