<svg width="33" height="32" viewBox="0 0 33 32" fill="none" xmlns="http://www.w3.org/2000/svg">
<g clip-path="url(#clip0_11852_4603)">
<path fill-rule="evenodd" clip-rule="evenodd" d="M2.5 25V6.998C2.5 5.342 3.842 4 5.498 4C9.851 4 20.149 4 24.502 4C26.158 4 27.5 5.342 27.5 6.998V13C28.292 13.011 29.049 13.33 29.61 13.89C30.18 14.46 30.5 15.233 30.5 16.04V19.96C30.5 20.767 30.18 21.54 29.61 22.11C29.049 22.67 28.292 22.989 27.5 23V25C27.5 25.796 27.184 26.559 26.621 27.121C26.059 27.684 25.296 28 24.5 28C20.146 28 9.854 28 5.5 28C4.704 28 3.941 27.684 3.379 27.121C2.816 26.559 2.5 25.796 2.5 25ZM25.5 9.83C25.188 9.94 24.852 10 24.502 10C20.149 10 9.851 10 5.498 10C5.148 10 4.812 9.94 4.5 9.83V25C4.5 25.265 4.605 25.52 4.793 25.707C4.98 25.895 5.235 26 5.5 26C9.854 26 20.146 26 24.5 26C24.765 26 25.02 25.895 25.207 25.707C25.395 25.52 25.5 25.265 25.5 25V23H19.54C18.733 23 17.96 22.68 17.39 22.11C16.82 21.54 16.5 20.767 16.5 19.96V16.04C16.5 15.233 16.82 14.46 17.39 13.89C17.96 13.32 18.733 13 19.54 13H25.5V9.83ZM28.5 16.04V19.96C28.5 20.236 28.39 20.501 28.196 20.696C28.001 20.89 27.736 21 27.46 21H19.54C19.264 21 18.999 20.89 18.804 20.696C18.61 20.501 18.5 20.236 18.5 19.96V16.04C18.5 15.764 18.61 15.499 18.804 15.304C18.999 15.11 19.264 15 19.54 15H27.46C27.736 15 28.001 15.11 28.196 15.304C28.39 15.499 28.5 15.764 28.5 16.04ZM25.5 6.998C25.5 6.447 25.053 6 24.502 6C20.149 6 9.851 6 5.498 6C4.947 6 4.5 6.447 4.5 6.998C4.5 6.999 4.5 7.001 4.5 7.002C4.5 7.553 4.947 8 5.498 8C9.851 8 20.149 8 24.502 8C25.053 8 25.5 7.553 25.5 7.002V6.998Z" fill="white"/>
</g>
<defs>
<clipPath id="clip0_11852_4603">
<rect width="32" height="32" fill="white" transform="translate(0.5)"/>
</clipPath>
</defs>
</svg>
