<svg width="32" height="32" viewBox="0 0 32 32" fill="none" xmlns="http://www.w3.org/2000/svg">
<g clip-path="url(#clip0_11676_33335)">
<path d="M31.8957 1.35741C31.8261 0.661759 31.3044 0.14002 30.6087 0.0704544C21.8087 -0.625198 15.5131 3.65306 11.5827 9.00958C9.42613 8.31393 7.09569 8.55741 4.97395 9.74002C2.92178 10.8878 1.21743 12.8357 0.104389 15.2009C-0.13909 15.7574 -0.0347418 16.3835 0.417432 16.8009C0.834823 17.2183 1.49569 17.2878 2.01743 17.0096C4.24352 15.827 6.74787 16.0705 8.24352 17.5661L14.3653 23.6878L14.4 23.7226C15.8957 25.2183 16.1392 27.7226 14.9566 29.9487C14.6783 30.4705 14.7826 31.1313 15.1653 31.5487C15.4435 31.827 15.7913 31.9661 16.174 31.9661C16.3827 31.9661 16.5913 31.9313 16.7653 31.827C19.1305 30.7139 21.0783 28.9748 22.2261 26.9574C23.4435 24.8357 23.687 22.5052 22.9566 20.3139C24.5218 19.1661 25.9479 17.9139 27.1305 16.5226C30.8174 12.3139 32.4174 7.20089 31.8957 1.35741ZM4.66091 13.4965C6.15656 12.0357 8.03482 11.1313 10.0174 11.4791C9.46091 12.4531 9.00874 13.427 8.59134 14.4009C7.40874 13.74 6.05221 13.427 4.66091 13.4965ZM18.5392 27.34C18.574 25.9139 18.2609 24.5574 17.6348 23.3748C18.6435 22.9574 19.6174 22.4705 20.5566 21.9487C20.9044 23.9313 20.0348 25.8444 18.5392 27.34ZM15.7566 21.1139L10.8522 16.2096C13.3218 9.63567 19.4435 2.60959 29.2174 2.7835C29.5305 14.4357 19.9305 19.4792 15.7566 21.1139ZM24.7653 7.23567C25.1826 7.65306 25.4261 8.24437 25.4261 8.83567C25.4261 9.42698 25.1826 10.0183 24.7653 10.4357C24.3479 10.8531 23.7566 11.0965 23.1653 11.0965C22.574 11.0965 21.9827 10.8878 21.5653 10.4357C21.1479 9.9835 20.9044 9.42698 20.9044 8.83567C20.9044 8.24437 21.1479 7.65306 21.5653 7.23567C21.9827 6.81828 22.574 6.5748 23.1653 6.5748C23.7566 6.5748 24.3479 6.81828 24.7653 7.23567ZM5.18265 21.7052C3.58265 23.3052 3.51308 26.5052 3.51308 27.1313C3.51308 27.8965 4.13917 28.5226 4.90439 28.5226H4.93917C5.66961 28.5226 8.73048 28.4183 10.2957 26.8531C11.2696 25.8791 11.4783 24.8705 11.4783 24.2096C11.4783 23.2705 11.0957 22.3661 10.3653 21.6357C8.62613 19.8618 6.43482 20.4183 5.18265 21.7052ZM8.34787 24.8705C8.00004 25.2183 7.23482 25.4618 6.43482 25.5661C6.57395 24.7661 6.81743 24.0009 7.13048 23.6878C7.37395 23.4444 7.58265 23.3052 7.82613 23.3052C8.00004 23.3052 8.20874 23.4096 8.41743 23.6183C8.62613 23.827 8.73048 24.0357 8.73048 24.2096C8.69569 24.4183 8.52178 24.6965 8.34787 24.8705Z" fill="white"/>
</g>
<defs>
<clipPath id="clip0_11676_33335">
<rect width="32" height="32" fill="white"/>
</clipPath>
</defs>
</svg>
