<svg width="22" height="22" viewBox="0 0 22 22" fill="none" xmlns="http://www.w3.org/2000/svg">
<path fill-rule="evenodd" clip-rule="evenodd" d="M5.5 7.33203C5.5 4.29446 7.96243 1.83203 11 1.83203C14.0376 1.83203 16.5 4.29446 16.5 7.33203V8.38649C16.7591 8.44326 17.0077 8.52593 17.248 8.64835C17.9379 8.99988 18.4988 9.56081 18.8503 10.2507C19.077 10.6956 19.1674 11.1693 19.2095 11.6845C19.25 12.1806 19.25 12.7896 19.25 13.5275V14.8866C19.25 15.6245 19.25 16.2334 19.2095 16.7295C19.1674 17.2448 19.077 17.7184 18.8503 18.1634C18.4988 18.8532 17.9379 19.4142 17.248 19.7657C16.8031 19.9924 16.3294 20.0828 15.8142 20.1248C15.3181 20.1654 14.7091 20.1654 13.9712 20.1654H8.02884C7.29094 20.1654 6.68193 20.1654 6.18583 20.1248C5.67057 20.0828 5.19693 19.9924 4.75204 19.7657C4.06211 19.4142 3.50118 18.8532 3.14965 18.1634C2.92296 17.7184 2.83261 17.2448 2.79052 16.7295C2.74998 16.2334 2.74999 15.6245 2.75 14.8866V13.5275C2.74999 12.7896 2.74998 12.1806 2.79052 11.6845C2.83261 11.1693 2.92296 10.6956 3.14965 10.2507C3.50118 9.56081 4.06211 8.99988 4.75204 8.64835C4.9923 8.52593 5.24094 8.44327 5.5 8.38649V7.33203ZM14.6667 7.33203V8.25019H7.33333V7.33203C7.33333 5.30699 8.97496 3.66536 11 3.66536C13.025 3.66536 14.6667 5.30699 14.6667 7.33203ZM11.9167 13.2904C11.9167 12.7841 11.5063 12.3737 11 12.3737C10.4937 12.3737 10.0833 12.7841 10.0833 13.2904V15.1237C10.0833 15.63 10.4937 16.0404 11 16.0404C11.5063 16.0404 11.9167 15.63 11.9167 15.1237V13.2904Z" fill="#45D640"/>
</svg>
