<svg width="42" height="42" viewBox="0 0 42 42" fill="none" xmlns="http://www.w3.org/2000/svg">
<g clip-path="url(#clip0_11981_2947)">
<path d="M33.25 5.25H31.5V3.5C31.5 2.5375 30.7125 1.75 29.75 1.75C28.7875 1.75 28 2.5375 28 3.5V5.25H14V3.5C14 2.5375 13.2125 1.75 12.25 1.75C11.2875 1.75 10.5 2.5375 10.5 3.5V5.25H8.75C6.8075 5.25 5.2675 6.825 5.2675 8.75L5.25 33.25C5.25 35.175 6.8075 36.75 8.75 36.75H33.25C35.175 36.75 36.75 35.175 36.75 33.25V8.75C36.75 6.825 35.175 5.25 33.25 5.25ZM31.5 33.25H10.5C9.5375 33.25 8.75 32.4625 8.75 31.5V14H33.25V31.5C33.25 32.4625 32.4625 33.25 31.5 33.25ZM14 17.5H19.25C20.2125 17.5 21 18.2875 21 19.25V24.5C21 25.4625 20.2125 26.25 19.25 26.25H14C13.0375 26.25 12.25 25.4625 12.25 24.5V19.25C12.25 18.2875 13.0375 17.5 14 17.5Z" fill="white"/>
</g>
<defs>
<clipPath id="clip0_11981_2947">
<rect width="42" height="42" fill="white"/>
</clipPath>
</defs>
</svg>
