<svg width="33" height="32" viewBox="0 0 33 32" fill="none" xmlns="http://www.w3.org/2000/svg">
<g clip-path="url(#clip0_11852_4625)">
<path d="M9.77098 21.3333C9.62965 21.3333 9.48832 21.304 9.35632 21.244L2.02298 17.9107C1.66698 17.748 1.43765 17.392 1.43765 17C1.43765 16.608 1.66698 16.252 2.02298 16.0893L9.35632 12.756C9.61898 12.636 9.92165 12.636 10.1843 12.756L17.5177 16.0893C17.875 16.252 18.1043 16.608 18.1043 17C18.1043 17.392 17.875 17.748 17.519 17.9107L10.1857 21.244C10.0537 21.304 9.91232 21.3333 9.77098 21.3333ZM4.85365 17L9.77098 19.2347L14.6883 17L9.77098 14.7653L4.85365 17ZM9.77098 29.3333C9.62965 29.3333 9.48832 29.304 9.35632 29.244L2.02298 25.9107C1.52032 25.6827 1.29898 25.0893 1.52698 24.5867C1.75498 24.084 2.34698 23.8627 2.85098 24.0907L9.76965 27.236L16.6883 24.0907C17.1937 23.86 17.7843 24.0854 18.0123 24.5867C18.2403 25.0893 18.019 25.6827 17.5163 25.9107L10.183 29.244C10.0537 29.304 9.91232 29.3333 9.77098 29.3333Z" fill="white"/>
<path d="M9.771 29.3346C9.219 29.3346 8.771 28.8866 8.771 28.3346V20.3347C8.771 19.7826 9.219 19.3347 9.771 19.3347C10.323 19.3347 10.771 19.7826 10.771 20.3347V28.3346C10.771 28.8866 10.323 29.3346 9.771 29.3346ZM17.1043 26.0013C16.5523 26.0013 16.1043 25.5533 16.1043 25.0013V17.0013C16.1043 16.4493 16.5523 16.0013 17.1043 16.0013C17.6563 16.0013 18.1043 16.4493 18.1043 17.0013V25.0013C18.1043 25.5533 17.6563 26.0013 17.1043 26.0013ZM17.1043 10.0013C16.963 10.0013 16.8217 9.97198 16.6897 9.91198L9.35633 6.57865C9.00033 6.41598 8.771 6.05998 8.771 5.66798C8.771 5.27598 9.00033 4.91998 9.35633 4.75732L16.6897 1.42398C16.9523 1.30398 17.255 1.30398 17.5177 1.42398L24.851 4.75732C25.2083 4.91998 25.4377 5.27598 25.4377 5.66798C25.4377 6.05998 25.2083 6.41598 24.8523 6.57865L17.519 9.91198C17.387 9.97198 17.2457 10.0013 17.1043 10.0013ZM12.187 5.66798L17.1043 7.90265L22.0217 5.66798L17.1043 3.43332L12.187 5.66798Z" fill="white"/>
<path d="M17.1043 17.9993C16.5523 17.9993 16.1043 17.5513 16.1043 16.9993V8.99935C16.1043 8.44735 16.5523 7.99935 17.1043 7.99935C17.6563 7.99935 18.1043 8.44735 18.1043 8.99935V16.9993C18.1043 17.5513 17.6563 17.9993 17.1043 17.9993ZM9.771 14.666C9.219 14.666 8.771 14.218 8.771 13.666V5.66602C8.771 5.11402 9.219 4.66602 9.771 4.66602C10.323 4.66602 10.771 5.11402 10.771 5.66602V13.666C10.771 14.218 10.323 14.666 9.771 14.666ZM24.4377 14.666C23.8857 14.666 23.4377 14.218 23.4377 13.666V5.66602C23.4377 5.11402 23.8857 4.66602 24.4377 4.66602C24.9897 4.66602 25.4377 5.11402 25.4377 5.66602V13.666C25.4377 14.218 24.9897 14.666 24.4377 14.666Z" fill="white"/>
<path d="M24.4377 21.3333C24.2964 21.3333 24.1551 21.304 24.0231 21.244L16.6897 17.9107C16.3324 17.748 16.1044 17.392 16.1044 17C16.1044 16.608 16.3337 16.252 16.6897 16.0893L24.0231 12.756C24.2857 12.636 24.5884 12.636 24.8511 12.756L32.1844 16.0893C32.5417 16.252 32.7711 16.608 32.7711 17C32.7711 17.392 32.5417 17.748 32.1857 17.9107L24.8524 21.244C24.7204 21.304 24.5791 21.3333 24.4377 21.3333ZM19.5204 17L24.4377 19.2347L29.3551 17L24.4377 14.7653L19.5204 17ZM24.4377 29.3333C24.2964 29.3333 24.1551 29.304 24.0231 29.244L16.6897 25.9107C16.1871 25.6827 15.9657 25.0893 16.1937 24.5867C16.4217 24.084 17.0151 23.8627 17.5177 24.0907L24.4364 27.236L31.3551 24.0907C31.8604 23.86 32.4511 24.0854 32.6791 24.5867C32.9071 25.0893 32.6857 25.6827 32.1831 25.9107L24.8497 29.244C24.7204 29.304 24.5791 29.3333 24.4377 29.3333Z" fill="white"/>
<path d="M24.4377 29.3333C23.8857 29.3333 23.4377 28.8853 23.4377 28.3333V20.3333C23.4377 19.7813 23.8857 19.3333 24.4377 19.3333C24.9897 19.3333 25.4377 19.7813 25.4377 20.3333V28.3333C25.4377 28.8853 24.9897 29.3333 24.4377 29.3333ZM31.7711 26C31.2191 26 30.7711 25.552 30.7711 25V17C30.7711 16.448 31.2191 16 31.7711 16C32.3231 16 32.7711 16.448 32.7711 17V25C32.7711 25.552 32.3231 26 31.7711 26ZM2.43774 26C1.88574 26 1.43774 25.552 1.43774 25V17C1.43774 16.448 1.88574 16 2.43774 16C2.98974 16 3.43774 16.448 3.43774 17V25C3.43774 25.552 2.98974 26 2.43774 26Z" fill="white"/>
</g>
<defs>
<clipPath id="clip0_11852_4625">
<rect width="32" height="32" fill="white" transform="translate(0.770996)"/>
</clipPath>
</defs>
</svg>
