<svg width="266" height="148" viewBox="0 0 266 148" fill="none" xmlns="http://www.w3.org/2000/svg">
<path d="M265.141 10.5097C265.141 4.97299 260.64 0.472656 255.104 0.472656H10.3108C4.77414 0.472656 0.273804 4.97299 0.273804 10.5097V18.3036H265.141V10.5097Z" fill="#D13333"/>
<path d="M0.273804 18.3047V137.003C0.273804 142.54 4.77414 147.04 10.3108 147.04H255.104C260.64 147.04 265.141 142.54 265.141 137.003V18.3047H0.273804Z" fill="#F2F2F2"/>
<rect x="17.7206" y="65.0312" width="229.59" height="31.2326" rx="8.51799" fill="#D13333"/>
<path fill-rule="evenodd" clip-rule="evenodd" d="M34.0467 78.2835C34.0467 76.3234 35.6357 74.7344 37.5958 74.7344C39.0521 74.7344 40.3023 75.6114 40.8494 76.8637C40.9802 77.163 40.8436 77.5117 40.5442 77.6425C40.2448 77.7733 39.8961 77.6367 39.7653 77.3373C39.3996 76.5004 38.5652 75.9174 37.5958 75.9174C36.2891 75.9174 35.2297 76.9768 35.2297 78.2835V78.876C35.3703 78.8751 35.5198 78.8751 35.6784 78.8751H39.5132C39.9893 78.8751 40.3823 78.8751 40.7024 78.9012C41.0349 78.9284 41.3406 78.9867 41.6277 79.133C42.0729 79.3598 42.4348 79.7218 42.6617 80.167C42.808 80.4541 42.8663 80.7597 42.8934 81.0922C42.9196 81.4124 42.9196 81.8053 42.9196 82.2815V83.1585C42.9196 83.6347 42.9196 84.0276 42.8934 84.3477C42.8663 84.6802 42.808 84.9859 42.6617 85.273C42.4348 85.7182 42.0729 86.0802 41.6277 86.307C41.3406 86.4533 41.0349 86.5116 40.7024 86.5388C40.3823 86.5649 39.9893 86.5649 39.5132 86.5649H35.6785C35.2024 86.5649 34.8094 86.5649 34.4892 86.5388C34.1567 86.5116 33.8511 86.4533 33.564 86.307C33.1188 86.0802 32.7568 85.7182 32.53 85.273C32.3837 84.9859 32.3254 84.6802 32.2982 84.3477C32.2721 84.0276 32.2721 83.6347 32.2721 83.1585V82.2815C32.2721 81.8053 32.2721 81.4124 32.2982 81.0922C32.3254 80.7597 32.3837 80.4541 32.53 80.167C32.7568 79.7218 33.1188 79.3598 33.564 79.133C33.7191 79.054 33.8795 79.0006 34.0467 78.964V78.2835ZM38.1874 82.1285C38.1874 81.8018 37.9225 81.5369 37.5958 81.5369C37.2691 81.5369 37.0043 81.8018 37.0043 82.1285V83.3115C37.0043 83.6382 37.2691 83.903 37.5958 83.903C37.9225 83.903 38.1874 83.6382 38.1874 83.3115V82.1285Z" fill="white"/>
<path d="M49.5501 81.4702V85.1484H48.3442V76.8886H49.5339V79.9618H49.6106C49.7558 79.6284 49.9776 79.3636 50.276 79.1673C50.5745 78.971 50.9644 78.8729 51.4457 78.8729C51.8705 78.8729 52.2415 78.9603 52.5588 79.135C52.8788 79.3098 53.1261 79.5706 53.3009 79.9175C53.4784 80.2616 53.5671 80.6918 53.5671 81.2081V85.1484H52.3612V81.3533C52.3612 80.8989 52.2442 80.5466 52.0103 80.2966C51.7764 80.0438 51.451 79.9175 51.0343 79.9175C50.7493 79.9175 50.4938 79.978 50.268 80.0989C50.0448 80.2199 49.8687 80.3974 49.7396 80.6313C49.6133 80.8626 49.5501 81.1422 49.5501 81.4702ZM58.0681 78.9535V79.9215H54.6843V78.9535H58.0681ZM55.5917 77.4693H56.7976V83.3295C56.7976 83.5634 56.8326 83.7395 56.9025 83.8578C56.9724 83.9735 57.0625 84.0528 57.1727 84.0958C57.2856 84.1361 57.408 84.1563 57.5397 84.1563C57.6365 84.1563 57.7212 84.1496 57.7938 84.1361C57.8664 84.1227 57.9229 84.1119 57.9632 84.1039L58.181 85.1C58.1111 85.1269 58.0116 85.1538 57.8825 85.1807C57.7535 85.2103 57.5922 85.2264 57.3986 85.2291C57.0813 85.2345 56.7855 85.178 56.5113 85.0597C56.237 84.9414 56.0152 84.7586 55.8458 84.5112C55.6764 84.2638 55.5917 83.9533 55.5917 83.5795V77.4693ZM62.2938 78.9535V79.9215H58.91V78.9535H62.2938ZM59.8174 77.4693H61.0233V83.3295C61.0233 83.5634 61.0583 83.7395 61.1282 83.8578C61.1981 83.9735 61.2882 84.0528 61.3984 84.0958C61.5114 84.1361 61.6337 84.1563 61.7654 84.1563C61.8622 84.1563 61.9469 84.1496 62.0195 84.1361C62.0921 84.1227 62.1486 84.1119 62.1889 84.1039L62.4067 85.1C62.3368 85.1269 62.2373 85.1538 62.1083 85.1807C61.9792 85.2103 61.8179 85.2264 61.6243 85.2291C61.307 85.2345 61.0112 85.178 60.737 85.0597C60.4627 84.9414 60.2409 84.7586 60.0715 84.5112C59.9021 84.2638 59.8174 83.9533 59.8174 83.5795V77.4693ZM63.6277 87.4715V78.9535H64.8054V79.9578H64.9062C64.9762 79.8287 65.077 79.6795 65.2087 79.5101C65.3405 79.3407 65.5233 79.1928 65.7572 79.0665C65.9912 78.9374 66.3004 78.8729 66.6849 78.8729C67.185 78.8729 67.6313 78.9992 68.0239 79.252C68.4164 79.5047 68.7243 79.8691 68.9475 80.345C69.1733 80.8209 69.2862 81.3936 69.2862 82.0631C69.2862 82.7326 69.1747 83.3066 68.9515 83.7852C68.7283 84.2611 68.4218 84.6282 68.0319 84.8863C67.6421 85.1417 67.1971 85.2694 66.697 85.2694C66.3205 85.2694 66.0127 85.2062 65.7734 85.0799C65.5368 84.9535 65.3512 84.8056 65.2168 84.6362C65.0824 84.4668 64.9788 84.3163 64.9062 84.1845H64.8337V87.4715H63.6277ZM64.8095 82.051C64.8095 82.4866 64.8726 82.8684 64.999 83.1964C65.1254 83.5244 65.3082 83.7812 65.5475 83.9667C65.7868 84.1496 66.0799 84.241 66.4267 84.241C66.787 84.241 67.0882 84.1455 67.3302 83.9546C67.5722 83.761 67.755 83.4989 67.8787 83.1682C68.005 82.8374 68.0682 82.4651 68.0682 82.051C68.0682 81.6423 68.0064 81.2753 67.8827 80.9499C67.7617 80.6246 67.5789 80.3678 67.3342 80.1796C67.0922 79.9914 66.7897 79.8973 66.4267 79.8973C66.0772 79.8973 65.7814 79.9874 65.5394 80.1675C65.3001 80.3477 65.1187 80.5991 64.995 80.9217C64.8713 81.2444 64.8095 81.6208 64.8095 82.051ZM75.2795 80.466L74.1865 80.6596C74.1408 80.5197 74.0682 80.3866 73.9687 80.2603C73.8719 80.1339 73.7402 80.0304 73.5735 79.9497C73.4068 79.8691 73.1984 79.8287 72.9483 79.8287C72.6068 79.8287 72.3218 79.9054 72.0933 80.0586C71.8648 80.2092 71.7505 80.4041 71.7505 80.6434C71.7505 80.8505 71.8271 81.0172 71.9804 81.1435C72.1336 81.2699 72.381 81.3734 72.7225 81.4541L73.7066 81.6799C74.2766 81.8117 74.7014 82.0147 74.981 82.2889C75.2607 82.5632 75.4005 82.9195 75.4005 83.3577C75.4005 83.7288 75.2929 84.0595 75.0778 84.3499C74.8654 84.6376 74.5683 84.8634 74.1865 85.0274C73.8074 85.1915 73.3678 85.2735 72.8677 85.2735C72.174 85.2735 71.608 85.1256 71.1697 84.8298C70.7314 84.5314 70.4626 84.1079 70.3631 83.5594L71.5287 83.3819C71.6013 83.6858 71.7505 83.9156 71.9763 84.0716C72.2022 84.2248 72.4966 84.3015 72.8596 84.3015C73.2548 84.3015 73.5708 84.2195 73.8074 84.0555C74.044 83.8888 74.1623 83.6858 74.1623 83.4465C74.1623 83.2529 74.0897 83.0902 73.9445 82.9584C73.802 82.8267 73.5829 82.7272 73.2871 82.66L72.2385 82.4301C71.6604 82.2984 71.2329 82.0886 70.956 81.8009C70.6817 81.5132 70.5446 81.1489 70.5446 80.708C70.5446 80.3423 70.6467 80.0223 70.8511 79.7481C71.0554 79.4738 71.3378 79.2601 71.698 79.1068C72.0583 78.9509 72.4711 78.8729 72.9362 78.8729C73.6057 78.8729 74.1327 79.0181 74.5172 79.3085C74.9017 79.5962 75.1558 79.982 75.2795 80.466ZM77.5209 85.2251C77.3004 85.2251 77.1109 85.1471 76.9522 84.9911C76.7936 84.8325 76.7143 84.6416 76.7143 84.4184C76.7143 84.198 76.7936 84.0097 76.9522 83.8538C77.1109 83.6952 77.3004 83.6158 77.5209 83.6158C77.7414 83.6158 77.9309 83.6952 78.0896 83.8538C78.2482 84.0097 78.3275 84.198 78.3275 84.4184C78.3275 84.5663 78.2899 84.7021 78.2146 84.8258C78.142 84.9468 78.0452 85.0436 77.9242 85.1162C77.8032 85.1888 77.6688 85.2251 77.5209 85.2251ZM77.5209 80.716C77.3004 80.716 77.1109 80.6367 76.9522 80.4781C76.7936 80.3194 76.7143 80.1299 76.7143 79.9094C76.7143 79.6889 76.7936 79.5007 76.9522 79.3448C77.1109 79.1861 77.3004 79.1068 77.5209 79.1068C77.7414 79.1068 77.9309 79.1861 78.0896 79.3448C78.2482 79.5007 78.3275 79.6889 78.3275 79.9094C78.3275 80.0573 78.2899 80.1931 78.2146 80.3167C78.142 80.4377 78.0452 80.5345 77.9242 80.6071C77.8032 80.6797 77.6688 80.716 77.5209 80.716ZM83.0886 76.5014L80.4268 86.3906H79.3499L82.0118 76.5014H83.0886ZM87.2589 76.5014L84.597 86.3906H83.5202L86.1821 76.5014H87.2589ZM89.6264 85.1484L87.8034 78.9535H89.0496L90.2636 83.5029H90.3241L91.5421 78.9535H92.7883L93.9983 83.4828H94.0588L95.2647 78.9535H96.5109L94.692 85.1484H93.4619L92.2035 80.6757H92.1108L90.8524 85.1484H89.6264ZM98.9984 85.1484L97.1754 78.9535H98.4216L99.6356 83.5029H99.6961L100.914 78.9535H102.16L103.37 83.4828H103.431L104.637 78.9535H105.883L104.064 85.1484H102.834L101.576 80.6757H101.483L100.224 85.1484H98.9984ZM108.37 85.1484L106.547 78.9535H107.794L109.008 83.5029H109.068L110.286 78.9535H111.532L112.742 83.4828H112.803L114.009 78.9535H115.255L113.436 85.1484H112.206L110.948 80.6757H110.855L109.596 85.1484H108.37ZM116.351 85.2251C116.13 85.2251 115.941 85.1471 115.782 84.9911C115.624 84.8325 115.544 84.6416 115.544 84.4184C115.544 84.198 115.624 84.0097 115.782 83.8538C115.941 83.6952 116.13 83.6158 116.351 83.6158C116.571 83.6158 116.761 83.6952 116.92 83.8538C117.078 84.0097 117.158 84.198 117.158 84.4184C117.158 84.5663 117.12 84.7021 117.045 84.8258C116.972 84.9468 116.875 85.0436 116.754 85.1162C116.633 85.1888 116.499 85.2251 116.351 85.2251ZM121.665 78.9535V79.9215H118.281V78.9535H121.665ZM119.188 77.4693H120.394V83.3295C120.394 83.5634 120.429 83.7395 120.499 83.8578C120.569 83.9735 120.659 84.0528 120.769 84.0958C120.882 84.1361 121.004 84.1563 121.136 84.1563C121.233 84.1563 121.318 84.1496 121.39 84.1361C121.463 84.1227 121.519 84.1119 121.56 84.1039L121.778 85.1C121.708 85.1269 121.608 85.1538 121.479 85.1807C121.35 85.2103 121.189 85.2264 120.995 85.2291C120.678 85.2345 120.382 85.178 120.108 85.0597C119.834 84.9414 119.612 84.7586 119.442 84.5112C119.273 84.2638 119.188 83.9533 119.188 83.5795V77.4693ZM122.999 85.1484V78.9535H124.164V79.9376H124.229C124.342 79.6042 124.541 79.3421 124.826 79.1512C125.113 78.9576 125.439 78.8608 125.802 78.8608C125.877 78.8608 125.966 78.8635 126.068 78.8688C126.173 78.8742 126.255 78.8809 126.314 78.889V80.0425C126.265 80.029 126.179 80.0143 126.056 79.9981C125.932 79.9793 125.808 79.9699 125.685 79.9699C125.4 79.9699 125.146 80.0304 124.922 80.1514C124.702 80.2697 124.527 80.435 124.398 80.6475C124.269 80.8572 124.204 81.0965 124.204 81.3654V85.1484H122.999ZM132.845 78.9535L130.599 85.1484H129.308L127.058 78.9535H128.353L129.921 83.7207H129.986L131.551 78.9535H132.845ZM138.621 80.466L137.528 80.6596C137.482 80.5197 137.41 80.3866 137.31 80.2603C137.213 80.1339 137.082 80.0304 136.915 79.9497C136.748 79.8691 136.54 79.8287 136.29 79.8287C135.948 79.8287 135.663 79.9054 135.435 80.0586C135.206 80.2092 135.092 80.4041 135.092 80.6434C135.092 80.8505 135.169 81.0172 135.322 81.1435C135.475 81.2699 135.722 81.3734 136.064 81.4541L137.048 81.6799C137.618 81.8117 138.043 82.0147 138.322 82.2889C138.602 82.5632 138.742 82.9195 138.742 83.3577C138.742 83.7288 138.634 84.0595 138.419 84.3499C138.207 84.6376 137.91 84.8634 137.528 85.0274C137.149 85.1915 136.709 85.2735 136.209 85.2735C135.515 85.2735 134.949 85.1256 134.511 84.8298C134.073 84.5314 133.804 84.1079 133.705 83.5594L134.87 83.3819C134.943 83.6858 135.092 83.9156 135.318 84.0716C135.544 84.2248 135.838 84.3015 136.201 84.3015C136.596 84.3015 136.912 84.2195 137.149 84.0555C137.385 83.8888 137.504 83.6858 137.504 83.4465C137.504 83.2529 137.431 83.0902 137.286 82.9584C137.143 82.8267 136.924 82.7272 136.629 82.66L135.58 82.4301C135.002 82.2984 134.574 82.0886 134.297 81.8009C134.023 81.5132 133.886 81.1489 133.886 80.708C133.886 80.3423 133.988 80.0223 134.193 79.7481C134.397 79.4738 134.679 79.2601 135.039 79.1068C135.4 78.9509 135.812 78.8729 136.278 78.8729C136.947 78.8729 137.474 79.0181 137.859 79.3085C138.243 79.5962 138.497 79.982 138.621 80.466ZM142.96 78.9535V79.9215H139.576V78.9535H142.96ZM140.483 77.4693H141.689V83.3295C141.689 83.5634 141.724 83.7395 141.794 83.8578C141.864 83.9735 141.954 84.0528 142.064 84.0958C142.177 84.1361 142.299 84.1563 142.431 84.1563C142.528 84.1563 142.613 84.1496 142.685 84.1361C142.758 84.1227 142.814 84.1119 142.855 84.1039L143.072 85.1C143.003 85.1269 142.903 85.1538 142.774 85.1807C142.645 85.2103 142.484 85.2264 142.29 85.2291C141.973 85.2345 141.677 85.178 141.403 85.0597C141.129 84.9414 140.907 84.7586 140.737 84.5112C140.568 84.2638 140.483 83.9533 140.483 83.5795V77.4693ZM146.897 85.2735C146.287 85.2735 145.761 85.1431 145.32 84.8823C144.882 84.6188 144.543 84.249 144.304 83.7731C144.067 83.2945 143.949 82.7339 143.949 82.0913C143.949 81.4568 144.067 80.8975 144.304 80.4135C144.543 79.9296 144.876 79.5518 145.304 79.2802C145.734 79.0087 146.237 78.8729 146.812 78.8729C147.162 78.8729 147.501 78.9307 147.829 79.0463C148.157 79.1619 148.451 79.3434 148.712 79.5908C148.973 79.8381 149.178 80.1594 149.329 80.5547C149.479 80.9473 149.555 81.4245 149.555 81.9865V82.414H144.63V81.5105H148.373C148.373 81.1933 148.309 80.9123 148.179 80.6676C148.05 80.4203 147.869 80.2253 147.635 80.0828C147.404 79.9403 147.132 79.8691 146.82 79.8691C146.481 79.8691 146.186 79.9524 145.933 80.1191C145.683 80.2831 145.489 80.4982 145.352 80.7644C145.218 81.0279 145.151 81.3143 145.151 81.6235V82.3293C145.151 82.7433 145.223 83.0956 145.368 83.386C145.516 83.6763 145.722 83.8982 145.985 84.0514C146.249 84.202 146.557 84.2773 146.909 84.2773C147.138 84.2773 147.346 84.245 147.534 84.1805C147.722 84.1133 147.885 84.0138 148.022 83.882C148.159 83.7503 148.264 83.5876 148.337 83.394L149.478 83.5997C149.387 83.9358 149.223 84.2302 148.986 84.483C148.752 84.733 148.458 84.928 148.103 85.0678C147.751 85.2049 147.349 85.2735 146.897 85.2735ZM153.212 85.2694C152.712 85.2694 152.265 85.1417 151.873 84.8863C151.483 84.6282 151.176 84.2611 150.953 83.7852C150.733 83.3066 150.623 82.7326 150.623 82.0631C150.623 81.3936 150.734 80.8209 150.957 80.345C151.183 79.8691 151.492 79.5047 151.885 79.252C152.277 78.9992 152.722 78.8729 153.22 78.8729C153.604 78.8729 153.914 78.9374 154.147 79.0665C154.384 79.1928 154.567 79.3407 154.696 79.5101C154.828 79.6795 154.93 79.8287 155.002 79.9578H155.075V76.8886H156.281V85.1484H155.103V84.1845H155.002C154.93 84.3163 154.825 84.4668 154.688 84.6362C154.553 84.8056 154.368 84.9535 154.131 85.0799C153.895 85.2062 153.588 85.2694 153.212 85.2694ZM153.478 84.241C153.825 84.241 154.118 84.1496 154.357 83.9667C154.599 83.7812 154.782 83.5244 154.906 83.1964C155.032 82.8684 155.095 82.4866 155.095 82.051C155.095 81.6208 155.033 81.2444 154.91 80.9217C154.786 80.5991 154.605 80.3477 154.365 80.1675C154.126 79.9874 153.83 79.8973 153.478 79.8973C153.115 79.8973 152.813 79.9914 152.571 80.1796C152.329 80.3678 152.146 80.6246 152.022 80.9499C151.901 81.2753 151.841 81.6423 151.841 82.051C151.841 82.4651 151.902 82.8374 152.026 83.1682C152.15 83.4989 152.333 83.761 152.575 83.9546C152.819 84.1455 153.12 84.241 153.478 84.241ZM160.599 87.6006C160.107 87.6006 159.684 87.5361 159.329 87.407C158.977 87.2779 158.689 87.1072 158.466 86.8948C158.243 86.6824 158.076 86.4498 157.966 86.1971L159.002 85.7695C159.075 85.8878 159.172 86.0129 159.293 86.1446C159.416 86.2791 159.583 86.3933 159.793 86.4874C160.005 86.5815 160.278 86.6286 160.612 86.6286C161.069 86.6286 161.446 86.517 161.745 86.2938C162.043 86.0734 162.193 85.7211 162.193 85.2372V84.0192H162.116C162.043 84.1509 161.938 84.2974 161.801 84.4588C161.667 84.6201 161.481 84.7599 161.245 84.8782C161.008 84.9965 160.7 85.0557 160.321 85.0557C159.832 85.0557 159.391 84.9414 158.998 84.7129C158.608 84.4816 158.299 84.1415 158.071 83.6925C157.845 83.2408 157.732 82.6855 157.732 82.0268C157.732 81.368 157.844 80.8034 158.067 80.3329C158.293 79.8623 158.602 79.502 158.994 79.252C159.387 78.9992 159.832 78.8729 160.329 78.8729C160.714 78.8729 161.024 78.9374 161.261 79.0665C161.498 79.1928 161.682 79.3407 161.813 79.5101C161.948 79.6795 162.051 79.8287 162.124 79.9578H162.213V78.9535H163.394V85.2856C163.394 85.8179 163.271 86.2549 163.023 86.5963C162.776 86.9378 162.441 87.1905 162.019 87.3546C161.6 87.5186 161.126 87.6006 160.599 87.6006ZM160.587 84.0555C160.934 84.0555 161.227 83.9748 161.467 83.8135C161.709 83.6495 161.891 83.4155 162.015 83.1117C162.141 82.8052 162.205 82.4382 162.205 82.0107C162.205 81.5939 162.143 81.2269 162.019 80.9096C161.895 80.5923 161.714 80.345 161.475 80.1675C161.235 79.9874 160.94 79.8973 160.587 79.8973C160.224 79.8973 159.922 79.9914 159.68 80.1796C159.438 80.3651 159.255 80.6179 159.131 80.9378C159.01 81.2578 158.95 81.6154 158.95 82.0107C158.95 82.4167 159.012 82.7729 159.135 83.0794C159.259 83.386 159.442 83.6253 159.684 83.7973C159.929 83.9694 160.23 84.0555 160.587 84.0555ZM166.815 85.2856C166.422 85.2856 166.067 85.213 165.75 85.0678C165.433 84.9199 165.181 84.7061 164.996 84.4265C164.813 84.1469 164.721 83.8041 164.721 83.3981C164.721 83.0485 164.789 82.7608 164.923 82.535C165.057 82.3091 165.239 82.1303 165.467 81.9986C165.696 81.8668 165.951 81.7673 166.234 81.7001C166.516 81.6329 166.804 81.5818 167.097 81.5468C167.468 81.5038 167.769 81.4689 168 81.442C168.232 81.4124 168.4 81.3654 168.504 81.3008C168.609 81.2363 168.662 81.1314 168.662 80.9862V80.958C168.662 80.6058 168.562 80.3329 168.363 80.1393C168.167 79.9457 167.874 79.8489 167.484 79.8489C167.078 79.8489 166.758 79.939 166.524 80.1191C166.293 80.2966 166.133 80.4942 166.044 80.712L164.911 80.4539C165.045 80.0774 165.242 79.7736 165.5 79.5424C165.761 79.3085 166.06 79.1391 166.399 79.0342C166.738 78.9267 167.094 78.8729 167.468 78.8729C167.715 78.8729 167.977 78.9025 168.254 78.9616C168.534 79.0181 168.795 79.1229 169.037 79.2762C169.281 79.4294 169.482 79.6486 169.638 79.9336C169.794 80.2159 169.872 80.5829 169.872 81.0346V85.1484H168.694V84.3015H168.646C168.568 84.4574 168.451 84.6107 168.295 84.7613C168.139 84.9118 167.938 85.0369 167.694 85.1363C167.449 85.2358 167.156 85.2856 166.815 85.2856ZM167.077 84.3176C167.41 84.3176 167.695 84.2517 167.932 84.12C168.171 83.9882 168.353 83.8162 168.476 83.6037C168.603 83.3886 168.666 83.1588 168.666 82.9141V82.1155C168.623 82.1585 168.539 82.1989 168.416 82.2365C168.295 82.2715 168.156 82.3024 168 82.3293C167.844 82.3535 167.692 82.3763 167.545 82.3978C167.397 82.4167 167.273 82.4328 167.173 82.4462C166.94 82.4758 166.726 82.5256 166.532 82.5955C166.341 82.6654 166.188 82.7662 166.072 82.8979C165.96 83.027 165.903 83.1991 165.903 83.4142C165.903 83.7126 166.013 83.9385 166.234 84.0918C166.454 84.2423 166.735 84.3176 167.077 84.3176ZM171.478 85.1484V78.9535H172.635V79.9618H172.712C172.841 79.6204 173.052 79.3542 173.345 79.1633C173.638 78.9697 173.989 78.8729 174.398 78.8729C174.812 78.8729 175.159 78.9697 175.438 79.1633C175.721 79.3569 175.929 79.623 176.064 79.9618H176.128C176.276 79.6311 176.511 79.3676 176.834 79.1713C177.157 78.9724 177.541 78.8729 177.987 78.8729C178.549 78.8729 179.008 79.049 179.363 79.4012C179.72 79.7534 179.899 80.2845 179.899 80.9943V85.1484H178.693V81.1072C178.693 80.6878 178.579 80.384 178.35 80.1957C178.122 80.0075 177.849 79.9134 177.532 79.9134C177.139 79.9134 176.834 80.0344 176.616 80.2764C176.398 80.5157 176.289 80.8236 176.289 81.2V85.1484H175.088V81.0306C175.088 80.6945 174.983 80.4243 174.773 80.2199C174.563 80.0156 174.29 79.9134 173.954 79.9134C173.726 79.9134 173.515 79.9739 173.321 80.0949C173.13 80.2132 172.976 80.3786 172.857 80.591C172.742 80.8034 172.684 81.0494 172.684 81.3291V85.1484H171.478ZM181.612 85.1484V76.8886H182.818V79.9578H182.891C182.961 79.8287 183.061 79.6795 183.193 79.5101C183.325 79.3407 183.508 79.1928 183.742 79.0665C183.976 78.9374 184.285 78.8729 184.669 78.8729C185.169 78.8729 185.616 78.9992 186.008 79.252C186.401 79.5047 186.709 79.8691 186.932 80.345C187.158 80.8209 187.271 81.3936 187.271 82.0631C187.271 82.7326 187.159 83.3066 186.936 83.7852C186.713 84.2611 186.406 84.6282 186.016 84.8863C185.626 85.1417 185.181 85.2694 184.681 85.2694C184.305 85.2694 183.997 85.2062 183.758 85.0799C183.521 84.9535 183.336 84.8056 183.201 84.6362C183.067 84.4668 182.963 84.3163 182.891 84.1845H182.79V85.1484H181.612ZM182.794 82.051C182.794 82.4866 182.857 82.8684 182.983 83.1964C183.11 83.5244 183.293 83.7812 183.532 83.9667C183.771 84.1496 184.064 84.241 184.411 84.241C184.771 84.241 185.073 84.1455 185.315 83.9546C185.557 83.761 185.739 83.4989 185.863 83.1682C185.989 82.8374 186.053 82.4651 186.053 82.051C186.053 81.6423 185.991 81.2753 185.867 80.9499C185.746 80.6246 185.563 80.3678 185.319 80.1796C185.077 79.9914 184.774 79.8973 184.411 79.8973C184.062 79.8973 183.766 79.9874 183.524 80.1675C183.285 80.3477 183.103 80.5991 182.979 80.9217C182.856 81.2444 182.794 81.6208 182.794 82.051ZM189.831 76.8886V85.1484H188.625V76.8886H189.831ZM191.453 85.1484V78.9535H192.659V85.1484H191.453ZM192.062 77.9977C191.852 77.9977 191.672 77.9278 191.522 77.788C191.374 77.6455 191.3 77.4761 191.3 77.2798C191.3 77.0808 191.374 76.9114 191.522 76.7716C191.672 76.6291 191.852 76.5579 192.062 76.5579C192.272 76.5579 192.451 76.6291 192.598 76.7716C192.749 76.9114 192.824 77.0808 192.824 77.2798C192.824 77.4761 192.749 77.6455 192.598 77.788C192.451 77.9278 192.272 77.9977 192.062 77.9977ZM195.487 81.4702V85.1484H194.281V78.9535H195.439V79.9618H195.515C195.658 79.6338 195.881 79.3703 196.185 79.1713C196.491 78.9724 196.877 78.8729 197.342 78.8729C197.765 78.8729 198.134 78.9616 198.451 79.1391C198.769 79.3138 199.015 79.5746 199.19 79.9215C199.364 80.2683 199.452 80.6972 199.452 81.2081V85.1484H198.246V81.3533C198.246 80.9042 198.129 80.5533 197.895 80.3006C197.661 80.0452 197.34 79.9175 196.931 79.9175C196.651 79.9175 196.403 79.978 196.185 80.0989C195.97 80.2199 195.799 80.3974 195.673 80.6313C195.549 80.8626 195.487 81.1422 195.487 81.4702ZM203.666 87.6006C203.174 87.6006 202.751 87.5361 202.396 87.407C202.044 87.2779 201.756 87.1072 201.533 86.8948C201.31 86.6824 201.143 86.4498 201.033 86.1971L202.069 85.7695C202.142 85.8878 202.239 86.0129 202.36 86.1446C202.483 86.2791 202.65 86.3933 202.86 86.4874C203.072 86.5815 203.345 86.6286 203.678 86.6286C204.136 86.6286 204.513 86.517 204.812 86.2938C205.11 86.0734 205.259 85.7211 205.259 85.2372V84.0192H205.183C205.11 84.1509 205.005 84.2974 204.868 84.4588C204.734 84.6201 204.548 84.7599 204.312 84.8782C204.075 84.9965 203.767 85.0557 203.388 85.0557C202.899 85.0557 202.458 84.9414 202.065 84.7129C201.675 84.4816 201.366 84.1415 201.138 83.6925C200.912 83.2408 200.799 82.6855 200.799 82.0268C200.799 81.368 200.91 80.8034 201.134 80.3329C201.359 79.8623 201.669 79.502 202.061 79.252C202.454 78.9992 202.899 78.8729 203.396 78.8729C203.781 78.8729 204.091 78.9374 204.328 79.0665C204.564 79.1928 204.749 79.3407 204.88 79.5101C205.015 79.6795 205.118 79.8287 205.191 79.9578H205.28V78.9535H206.461V85.2856C206.461 85.8179 206.338 86.2549 206.09 86.5963C205.843 86.9378 205.508 87.1905 205.086 87.3546C204.667 87.5186 204.193 87.6006 203.666 87.6006ZM203.654 84.0555C204.001 84.0555 204.294 83.9748 204.533 83.8135C204.775 83.6495 204.958 83.4155 205.082 83.1117C205.208 82.8052 205.272 82.4382 205.272 82.0107C205.272 81.5939 205.21 81.2269 205.086 80.9096C204.962 80.5923 204.781 80.345 204.542 80.1675C204.302 79.9874 204.006 79.8973 203.654 79.8973C203.291 79.8973 202.989 79.9914 202.747 80.1796C202.505 80.3651 202.322 80.6179 202.198 80.9378C202.077 81.2578 202.017 81.6154 202.017 82.0107C202.017 82.4167 202.079 82.7729 202.202 83.0794C202.326 83.386 202.509 83.6253 202.751 83.7973C202.995 83.9694 203.297 84.0555 203.654 84.0555ZM208.873 85.2251C208.653 85.2251 208.463 85.1471 208.304 84.9911C208.146 84.8325 208.066 84.6416 208.066 84.4184C208.066 84.198 208.146 84.0097 208.304 83.8538C208.463 83.6952 208.653 83.6158 208.873 83.6158C209.094 83.6158 209.283 83.6952 209.442 83.8538C209.6 84.0097 209.68 84.198 209.68 84.4184C209.68 84.5663 209.642 84.7021 209.567 84.8258C209.494 84.9468 209.397 85.0436 209.276 85.1162C209.155 85.1888 209.021 85.2251 208.873 85.2251ZM213.904 85.2735C213.305 85.2735 212.789 85.1377 212.356 84.8661C211.926 84.5919 211.595 84.2141 211.364 83.7328C211.132 83.2515 211.017 82.7003 211.017 82.0792C211.017 81.4501 211.135 80.8948 211.372 80.4135C211.608 79.9296 211.942 79.5518 212.372 79.2802C212.802 79.0087 213.309 78.8729 213.892 78.8729C214.363 78.8729 214.782 78.9603 215.151 79.135C215.519 79.3071 215.816 79.5491 216.042 79.861C216.271 80.1729 216.406 80.5372 216.449 80.954H215.276C215.211 80.6636 215.063 80.4135 214.832 80.2038C214.604 79.9941 214.297 79.8892 213.913 79.8892C213.576 79.8892 213.282 79.978 213.029 80.1554C212.779 80.3302 212.584 80.5802 212.444 80.9056C212.305 81.2282 212.235 81.61 212.235 82.051C212.235 82.5027 212.303 82.8926 212.44 83.2206C212.578 83.5486 212.771 83.8027 213.021 83.9829C213.274 84.163 213.571 84.2531 213.913 84.2531C214.141 84.2531 214.348 84.2114 214.534 84.1281C214.722 84.042 214.879 83.9197 215.005 83.761C215.135 83.6024 215.225 83.4115 215.276 83.1883H216.449C216.406 83.589 216.276 83.9466 216.058 84.2611C215.84 84.5757 215.549 84.8231 215.183 85.0032C214.82 85.1834 214.394 85.2735 213.904 85.2735ZM220.348 85.2735C219.768 85.2735 219.261 85.1404 218.828 84.8742C218.395 84.608 218.059 84.2356 217.82 83.757C217.58 83.2784 217.461 82.7191 217.461 82.0792C217.461 81.4366 217.58 80.8747 217.82 80.3934C218.059 79.9121 218.395 79.5383 218.828 79.2722C219.261 79.006 219.768 78.8729 220.348 78.8729C220.929 78.8729 221.436 79.006 221.869 79.2722C222.302 79.5383 222.638 79.9121 222.877 80.3934C223.116 80.8747 223.236 81.4366 223.236 82.0792C223.236 82.7191 223.116 83.2784 222.877 83.757C222.638 84.2356 222.302 84.608 221.869 84.8742C221.436 85.1404 220.929 85.2735 220.348 85.2735ZM220.352 84.2611C220.729 84.2611 221.041 84.1617 221.288 83.9627C221.535 83.7637 221.718 83.4989 221.837 83.1682C221.958 82.8374 222.018 82.4731 222.018 82.0752C222.018 81.6799 221.958 81.317 221.837 80.9862C221.718 80.6528 221.535 80.3853 221.288 80.1836C221.041 79.982 220.729 79.8812 220.352 79.8812C219.973 79.8812 219.659 79.982 219.409 80.1836C219.161 80.3853 218.977 80.6528 218.856 80.9862C218.738 81.317 218.679 81.6799 218.679 82.0752C218.679 82.4731 218.738 82.8374 218.856 83.1682C218.977 83.4989 219.161 83.7637 219.409 83.9627C219.659 84.1617 219.973 84.2611 220.352 84.2611ZM224.582 85.1484V78.9535H225.74V79.9618H225.816C225.945 79.6204 226.156 79.3542 226.45 79.1633C226.743 78.9697 227.093 78.8729 227.502 78.8729C227.916 78.8729 228.263 78.9697 228.543 79.1633C228.825 79.3569 229.033 79.623 229.168 79.9618H229.232C229.38 79.6311 229.616 79.3676 229.938 79.1713C230.261 78.9724 230.645 78.8729 231.092 78.8729C231.654 78.8729 232.112 79.049 232.467 79.4012C232.825 79.7534 233.003 80.2845 233.003 80.9943V85.1484H231.797V81.1072C231.797 80.6878 231.683 80.384 231.455 80.1957C231.226 80.0075 230.953 79.9134 230.636 79.9134C230.243 79.9134 229.938 80.0344 229.72 80.2764C229.503 80.5157 229.394 80.8236 229.394 81.2V85.1484H228.192V81.0306C228.192 80.6945 228.087 80.4243 227.877 80.2199C227.668 80.0156 227.395 79.9134 227.059 79.9134C226.83 79.9134 226.619 79.9739 226.425 80.0949C226.234 80.2132 226.08 80.3786 225.962 80.591C225.846 80.8034 225.788 81.0494 225.788 81.3291V85.1484H224.582Z" fill="white"/>
<path d="M19.6096 9.32966C19.6096 11.8567 17.5511 13.9152 15.0241 13.9152C12.4971 13.9152 10.4386 11.8567 10.4386 9.32966C10.4386 6.80265 12.4971 4.74414 15.0241 4.74414C17.5511 4.74414 19.6096 6.80265 19.6096 9.32966Z" fill="#ED534F"/>
<path d="M36.1203 9.32966C36.1203 11.8567 34.0618 13.9152 31.5348 13.9152C29.0078 13.9152 26.9493 11.8567 26.9493 9.32966C26.9493 6.80265 29.0078 4.74414 31.5348 4.74414C34.0618 4.74414 36.1203 6.80265 36.1203 9.32966Z" fill="#FFD54F"/>
<path d="M52.6453 9.32966C52.6453 11.8567 50.5868 13.9152 48.0598 13.9152C45.5328 13.9152 43.4742 11.8567 43.4742 9.32966C43.4742 6.80265 45.5328 4.74414 48.0598 4.74414C50.5868 4.74414 52.6453 6.80265 52.6453 9.32966Z" fill="#4CAF50"/>
</svg>
