<svg width="258" height="272" viewBox="0 0 258 272" fill="none" xmlns="http://www.w3.org/2000/svg">
<path d="M138.329 85.0096C137.879 83.4081 140.496 81.414 141.32 80.375C142.902 78.3787 143.796 76.0649 144.512 73.6491C145.422 70.5843 145.059 67.1943 145.058 64.0208C145.057 61.9747 145.305 59.9785 144.512 58.0572C142.98 54.3459 138.752 50.2954 135.52 47.962C130.374 44.2473 125.061 44.6772 119.043 44.639C115.644 44.6174 112.206 45.8248 109.187 47.427C106.847 48.669 104.432 49.6235 103.162 52.0591C101.708 54.849 101.194 58.5296 100.91 61.6675C100.685 64.1558 100.922 66.8199 100.934 69.3286C100.95 72.522 102.709 75.6274 104.672 78.1321C107.757 82.0677 112.903 84.3632 115.692 88.6346C114.509 88.9031 113.25 88.6838 112.011 88.8993C109.976 89.2534 108.125 90.2211 106.165 90.8068C104.274 91.3719 102.811 92.4461 100.988 93.0696C98.653 93.8678 96.4163 94.4619 94.2843 95.8232C88.4739 99.5333 82.2884 104.569 79.8137 111.325C79.0039 113.535 78.3636 117.391 80.6717 118.688C83.5114 120.283 88.0492 120.9 91.2102 120.912C95.0073 120.926 98.8115 120.812 102.608 120.877C104.494 120.91 106.009 121.447 107.841 121.681C109.769 121.927 111.863 121.573 113.813 121.614C115.711 121.655 117.394 122.311 119.252 122.418C120.884 122.511 122.579 122.39 124.217 122.39C125.617 122.39 127.042 122.317 128.441 122.373C130.126 122.439 131.595 123.074 133.28 123.155C136.135 123.291 139.04 123.137 141.898 123.137C144.081 123.137 146.692 123.538 148.798 122.971C151.77 122.172 154.717 122.756 157.82 122.407C160.156 122.144 162.442 121.421 164.799 120.966C167.377 120.468 170.448 120.377 172.35 118.275C173.554 116.943 174.162 115.177 174.265 113.416C174.437 110.463 174.295 108.66 172.208 106.526C170.441 104.72 168.872 102.744 167.047 100.984C165.167 99.1709 162.886 97.8789 160.743 96.3953C157.894 94.4233 154.282 92.4657 151.038 91.7407C148.026 91.0673 144.848 90.0986 141.757 89.5604C139.496 89.1666 136.896 89.4953 134.591 89.4953" fill="#45D88E"/>
<path d="M141.545 85.0102C141.536 84.8847 141.54 84.7662 141.556 84.6414L141.439 85.513C141.463 85.388 141.497 85.2708 141.542 85.1515L141.205 85.9501C141.3 85.7278 141.422 85.5301 141.566 85.3357L141.024 86.037C141.311 85.6699 141.649 85.3538 142.005 85.0541C141.755 85.2472 141.506 85.4402 141.256 85.6333C141.807 85.3989 142.286 84.814 142.762 84.4239C143.055 84.1842 143.353 83.9517 143.646 83.712C144.532 82.9862 145.224 82.0843 145.862 81.1367C147.152 79.2206 148.034 77.0025 148.767 74.8226C149.571 72.4277 149.736 69.8158 149.794 67.3052C149.819 66.239 149.821 65.1722 149.863 64.1065C149.905 63.04 150.018 61.9756 150.015 60.9076C150.012 60.0063 149.886 59.1182 149.753 58.2274C149.67 57.6669 149.543 57.1233 149.342 56.5926C148.894 55.4075 148.379 54.2396 147.725 53.1523C146.553 51.2033 145.087 49.3948 143.539 47.7322C142.287 46.3871 140.934 45.1295 139.49 43.992C138.373 43.1117 137.261 42.2465 136.007 41.57C134.804 40.9207 133.522 40.3703 132.228 39.929C131.36 39.6326 130.439 39.4442 129.535 39.2943C128.147 39.0643 126.745 38.8839 125.341 38.7833C123.457 38.6483 121.567 38.6493 119.68 38.6142C117.073 38.5657 114.434 38.8807 111.935 39.6389C109.514 40.3733 107.208 41.4665 104.961 42.6163C104.189 43.011 103.416 43.4088 102.69 43.8835C101.575 44.6121 100.425 45.4369 99.5588 46.465C98.9782 47.1541 98.3848 47.8721 97.9288 48.6571C97.4364 49.5046 97.0735 50.4727 96.7062 51.3652C96.3356 52.2655 96.0387 53.1892 95.8046 54.1342C95.2067 56.5471 94.9193 59.0473 94.6907 61.5184C94.4855 63.7365 94.6232 65.9605 94.6779 68.182C94.7158 69.7228 94.8004 71.2023 95.0926 72.7323C95.3763 74.2173 96.002 75.6198 96.6158 76.9903C97.6185 79.2291 99.1493 81.3028 100.748 83.1431C103.106 85.8574 106.245 87.7212 108.832 90.1913C109.467 90.7976 110.064 91.4408 110.607 92.131C110.281 91.7091 109.955 91.2872 109.629 90.8652C109.861 91.1664 110.082 91.4746 110.292 91.7921L114.03 82.604C113.859 82.6392 113.69 82.6679 113.518 82.6916C114.072 82.6171 114.626 82.5426 115.181 82.4681C114.539 82.5378 113.897 82.5239 113.253 82.539C112.14 82.5651 111.013 82.7151 109.926 82.9487C108.726 83.207 107.581 83.6612 106.435 84.0952C104.869 84.6887 103.308 85.1858 101.765 85.8563C100.689 86.3243 99.6669 86.9072 98.5875 87.3692C99.0863 87.1587 99.5851 86.9482 100.084 86.7377C99.0004 87.1856 97.8638 87.5002 96.756 87.8815C95.2191 88.4105 93.6872 89.014 92.2432 89.7598C90.41 90.7066 88.6903 91.974 87.045 93.2124C85.0242 94.7336 83.0354 96.2998 81.2446 98.0909C79.4724 99.8634 77.8606 101.849 76.4947 103.949C75.933 104.812 75.4269 105.713 74.9929 106.647C74.4157 107.89 73.841 109.172 73.4585 110.494C72.7294 113.015 72.5008 115.809 73.1574 118.372C73.5633 119.957 74.4773 121.657 75.6898 122.778C77.1505 124.129 78.72 124.798 80.561 125.506C82.9168 126.413 85.455 126.75 87.9463 127.039C90.3939 127.323 92.8616 127.249 95.3206 127.227C96.7846 127.214 98.2486 127.199 99.7126 127.199C101.125 127.198 102.56 127.149 103.964 127.331C103.401 127.255 102.839 127.18 102.277 127.104C104.6 127.433 106.857 128.096 109.226 128.122C111.164 128.144 113.099 127.82 115.032 128.079C114.468 128.003 113.904 127.928 113.34 127.852C114.468 128.018 115.573 128.304 116.7 128.471C118.465 128.733 120.14 128.846 121.917 128.806C123.142 128.778 124.367 128.771 125.592 128.75C126.823 128.729 128.073 128.67 129.296 128.833L127.599 128.605C128.485 128.739 129.349 128.976 130.229 129.142C131.603 129.401 132.981 129.546 134.375 129.582C136.273 129.631 138.171 129.577 140.068 129.55C141.817 129.525 143.548 129.618 145.294 129.668C146.11 129.691 146.922 129.675 147.734 129.583C148.652 129.479 149.598 129.373 150.501 129.15C150.965 129.036 151.427 128.939 151.899 128.869C151.332 128.945 150.764 129.021 150.196 129.098C151.653 128.902 153.119 128.934 154.585 128.945C156.554 128.961 158.447 128.785 160.401 128.48C161.809 128.261 163.191 127.908 164.577 127.584C165.835 127.29 167.097 127.06 168.373 126.855C171.503 126.352 174.708 125.238 176.904 122.829C178.438 121.145 179.568 119.181 180.178 116.977C180.644 115.293 180.784 113.467 180.766 111.718C180.756 110.722 180.6 109.745 180.457 108.757C180.384 108.255 180.278 107.762 180.098 107.286C179.751 106.371 179.386 105.396 178.842 104.564C178.267 103.684 177.603 102.838 176.88 102.071C174.932 100.007 173.147 97.7224 171.008 95.8489C168.647 93.781 165.96 92.0897 163.353 90.3542C160.671 88.5696 157.757 87.1085 154.714 86.0461C153.292 85.5493 151.806 85.2661 150.348 84.8957C148.766 84.4939 147.188 84.0722 145.595 83.7145C143.565 83.2586 141.492 82.8894 139.407 82.8609C137.8 82.8389 136.197 82.9758 134.591 82.9811C132.917 82.9867 131.17 83.704 129.985 84.8892C128.855 86.0192 128.004 87.873 128.076 89.4958C128.152 91.1807 128.705 92.9282 129.985 94.1024C131.257 95.2703 132.828 96.0164 134.591 96.0105C136.871 96.003 139.16 95.7102 141.432 96.015C140.855 95.9376 140.279 95.8601 139.703 95.7827C142.014 96.1272 144.282 96.7628 146.545 97.3347C148.663 97.8699 150.77 98.2999 152.791 99.1523C152.275 98.9344 151.758 98.7164 151.241 98.4984C153.238 99.3554 155.14 100.426 156.947 101.632C158.732 102.823 160.571 103.963 162.272 105.272L160.963 104.261C162.394 105.379 163.631 106.7 164.844 108.046C165.453 108.721 166.055 109.403 166.672 110.071C167.251 110.697 167.875 111.286 168.4 111.96L167.391 110.653C167.717 111.087 167.996 111.545 168.215 112.042C167.998 111.528 167.782 111.014 167.565 110.5C167.791 111.044 167.934 111.604 168.016 112.187L167.785 110.472C167.938 111.691 167.904 112.977 167.74 114.193L167.971 112.479C167.86 113.205 167.672 113.905 167.391 114.584L168.04 113.045C167.787 113.623 167.476 114.161 167.094 114.662L168.101 113.359C167.797 113.738 167.466 114.078 167.086 114.38C167.521 114.045 167.955 113.709 168.389 113.374C167.92 113.729 167.413 114.01 166.871 114.239L168.409 113.591C166.751 114.261 164.962 114.414 163.219 114.743C160.956 115.169 158.749 115.86 156.464 116.175C157.032 116.098 157.601 116.022 158.17 115.945C156.362 116.177 154.55 116.09 152.733 116.11C151.329 116.126 149.973 116.296 148.579 116.497C147.719 116.621 146.89 116.882 146.031 117.001C146.598 116.924 147.166 116.848 147.734 116.772C146.538 116.917 145.334 116.874 144.134 116.817C142.93 116.76 141.732 116.735 140.527 116.752C139.21 116.771 137.893 116.808 136.576 116.819C135.256 116.83 133.907 116.865 132.594 116.708C133.16 116.784 133.725 116.86 134.291 116.936C133.18 116.784 132.101 116.468 130.992 116.3C129.883 116.132 128.822 115.988 127.709 115.976C127.065 115.969 126.421 115.982 125.776 115.995C124.552 116.019 123.327 116.027 122.102 116.06C120.866 116.092 119.621 116.126 118.392 115.967L120.085 116.194C117.79 115.866 115.546 115.218 113.206 115.255C111.358 115.284 109.514 115.55 107.67 115.307C108.233 115.383 108.796 115.458 109.359 115.534C107.215 115.228 105.135 114.65 102.957 114.545C101.072 114.453 99.1693 114.515 97.2831 114.535C93.9797 114.57 90.649 114.744 87.3635 114.318C87.9239 114.393 88.4843 114.468 89.0447 114.543C87.1234 114.285 85.203 113.873 83.4112 113.118C83.9142 113.33 84.4171 113.542 84.9201 113.754C84.431 113.542 83.9282 113.32 83.5007 112.997C83.9267 113.326 84.3526 113.655 84.7786 113.985C84.5886 113.829 84.4246 113.66 84.2744 113.466C84.6035 113.892 84.9326 114.318 85.2616 114.744C85.1189 114.545 85.0017 114.339 84.9004 114.116L85.5367 115.624C85.3662 115.218 85.2649 114.797 85.2062 114.361L85.4316 116.039C85.3504 115.335 85.3799 114.63 85.4709 113.929L85.2456 115.606C85.4128 114.418 85.7577 113.284 86.215 112.177L85.5796 113.682C86.3461 111.866 87.3688 110.181 88.5655 108.617C88.2374 109.042 87.9094 109.466 87.5812 109.891C89.4739 107.446 91.7491 105.333 94.1856 103.44C93.7617 103.767 93.3379 104.095 92.9141 104.422C95.0712 102.756 97.3532 101.059 99.8726 99.9881C99.3732 100.199 98.8739 100.41 98.3745 100.62C99.8248 100.018 101.334 99.5915 102.808 99.057C104.692 98.3742 106.402 97.3856 108.236 96.6068C107.737 96.8172 107.238 97.0277 106.74 97.2381C107.885 96.7679 109.085 96.4257 110.243 95.9842C111.418 95.5364 112.605 95.1029 113.852 94.9055C113.297 94.98 112.743 95.0545 112.188 95.129C112.807 95.0497 113.426 95.0505 114.049 95.0412C115.155 95.0247 116.273 94.8915 117.355 94.6665C118.415 94.3694 119.335 93.8332 120.115 93.058C120.725 92.4915 121.156 91.8205 121.408 91.0451C121.8 90.2997 121.979 89.4964 121.947 88.6353C121.943 87.5063 121.659 86.454 121.093 85.4784C120.123 84.0138 118.996 82.6163 117.726 81.3986C116.773 80.486 115.746 79.6564 114.712 78.8389C112.679 77.2309 110.596 75.6497 108.99 73.5915C109.315 74.0128 109.641 74.434 109.966 74.8553C108.9 73.4724 107.955 71.9977 107.263 70.3901C107.473 70.8871 107.683 71.3841 107.893 71.881C107.477 70.8844 107.17 69.8554 107.025 68.784L107.248 70.4426C107.137 69.5165 107.167 68.5784 107.138 67.6473C107.107 66.6588 107.066 65.6705 107.053 64.6814C107.028 62.8409 107.174 61.0196 107.415 59.1959L107.192 60.8525C107.477 58.7478 107.899 56.645 108.717 54.6763C108.507 55.1722 108.298 55.6681 108.089 56.164C108.382 55.4792 108.712 54.8243 109.162 54.228C108.837 54.6481 108.513 55.0681 108.188 55.4881C108.589 54.9789 109.049 54.536 109.56 54.1365L108.3 55.1099C109.25 54.3875 110.311 53.8404 111.37 53.2973C112.598 52.6673 113.793 51.9943 115.066 51.4531C114.576 51.6601 114.085 51.8671 113.595 52.0741C115.272 51.374 117.013 50.8446 118.817 50.5955L117.203 50.8123C119.042 50.5776 120.935 50.6363 122.787 50.6208C124.518 50.6064 126.251 50.6416 127.969 50.8625C127.447 50.7923 126.926 50.7222 126.404 50.6521C128.104 50.8818 129.795 51.2941 131.381 51.9533C130.924 51.7604 130.467 51.5676 130.01 51.3747C131.713 52.1015 133.237 53.1314 134.699 54.2563L133.583 53.3942C135.638 54.9879 137.572 56.773 139.179 58.8243C138.908 58.4739 138.637 58.1236 138.367 57.7732C139.086 58.7057 139.739 59.6923 140.219 60.7708L139.71 59.5648C139.974 60.205 140.142 60.8638 140.244 61.5481L140.067 60.2285C140.196 61.1973 140.205 62.1721 140.224 63.1477C140.244 64.1577 140.307 65.1651 140.374 66.1729C140.505 68.1629 140.631 70.1629 140.384 72.1492L140.544 70.9595C140.294 72.7939 139.726 74.6299 139.011 76.335C139.154 75.997 139.297 75.6589 139.439 75.3209C138.891 76.5983 138.075 77.7337 137.579 79.0263C137.716 78.7006 137.853 78.375 137.991 78.0493C137.797 78.377 137.585 78.6829 137.353 78.9847C137.559 78.7179 137.766 78.451 137.972 78.1842C137.438 78.873 136.89 79.5512 136.381 80.2581C136.577 80.0041 136.773 79.7502 136.97 79.4963C136.475 80.0969 136.015 80.6798 135.815 81.4506L136.188 80.5658C135.759 81.2937 135.353 82.0967 135.161 82.9201C135.045 83.4175 134.958 83.9408 134.977 84.4532C135.009 85.3598 135.2 85.819 135.553 86.6332C135.72 86.8502 135.888 87.0671 136.055 87.284C136.347 87.5976 136.692 87.8192 137.09 87.9489C137.729 88.2186 138.505 88.3306 139.184 88.111C140.468 87.6956 141.647 86.4506 141.545 85.0102Z" fill="#45D88E"/>
<path d="M208.551 193.043C208.1 191.441 210.717 189.447 211.541 188.408C213.124 186.412 214.017 184.098 214.734 181.682C215.643 178.618 215.28 175.228 215.279 172.054C215.278 170.008 215.527 168.012 214.734 166.09C213.202 162.379 208.973 158.329 205.741 155.995C200.595 152.281 195.282 152.71 189.265 152.672C185.865 152.651 182.427 153.858 179.409 155.46C177.069 156.702 174.654 157.657 173.384 160.092C171.929 162.882 171.416 166.563 171.132 169.701C170.906 172.189 171.143 174.853 171.156 177.362C171.172 180.555 172.93 183.661 174.894 186.165C177.979 190.101 183.124 192.396 185.914 196.668C184.73 196.936 183.471 196.717 182.233 196.932C180.197 197.287 178.347 198.254 176.386 198.84C174.495 199.405 173.032 200.479 171.209 201.103C168.874 201.901 166.638 202.495 164.506 203.856C158.695 207.567 152.51 212.603 150.035 219.358C149.225 221.569 148.585 225.424 150.893 226.721C153.733 228.316 158.271 228.933 161.432 228.945C165.229 228.959 169.033 228.845 172.829 228.911C174.716 228.943 176.23 229.481 178.063 229.714C179.991 229.96 182.085 229.606 184.034 229.648C185.933 229.688 187.615 230.344 189.473 230.451C191.105 230.545 192.8 230.423 194.438 230.423C195.838 230.423 197.263 230.35 198.663 230.406C200.348 230.472 201.817 231.107 203.501 231.188C206.356 231.324 209.261 231.171 212.12 231.171C214.302 231.171 216.914 231.571 219.02 231.004C221.992 230.205 224.939 230.789 228.042 230.44C230.378 230.177 232.664 229.454 235.021 228.999C237.598 228.501 240.669 228.411 242.571 226.308C243.776 224.976 244.383 223.211 244.486 221.449C244.659 218.497 244.516 216.693 242.43 214.56C240.663 212.753 239.093 210.778 237.268 209.017C235.389 207.204 233.107 205.912 230.964 204.428C228.116 202.457 224.503 200.499 221.26 199.774C218.247 199.1 215.069 198.132 211.979 197.594C209.718 197.2 207.118 197.528 204.813 197.528" fill="white"/>
<path d="M211.766 193.043C211.757 192.918 211.762 192.799 211.778 192.675C211.739 192.965 211.7 193.256 211.661 193.546C211.685 193.421 211.719 193.304 211.763 193.185L211.426 193.983C211.521 193.761 211.644 193.563 211.787 193.369L211.245 194.07C211.533 193.703 211.871 193.387 212.227 193.087C211.977 193.28 211.727 193.473 211.477 193.666C212.028 193.432 212.507 192.847 212.984 192.457C213.276 192.217 213.575 191.985 213.867 191.745C214.754 191.019 215.445 190.118 216.084 189.17C217.374 187.254 218.256 185.036 218.988 182.856C219.793 180.461 219.957 177.849 220.016 175.338C220.04 174.272 220.043 173.205 220.084 172.14C220.126 171.073 220.239 170.009 220.236 168.941C220.234 168.04 220.107 167.151 219.975 166.261C219.891 165.7 219.765 165.157 219.564 164.626C219.115 163.441 218.601 162.273 217.947 161.186C216.775 159.236 215.309 157.428 213.761 155.765C212.508 154.42 211.156 153.163 209.712 152.025C208.594 151.145 207.483 150.28 206.229 149.603C205.025 148.954 203.743 148.403 202.45 147.962C201.581 147.666 200.661 147.477 199.756 147.328C198.369 147.098 196.966 146.917 195.562 146.816C193.679 146.682 191.788 146.682 189.901 146.647C187.295 146.599 184.656 146.914 182.156 147.672C179.735 148.407 177.43 149.5 175.182 150.649C174.411 151.044 173.638 151.442 172.911 151.917C171.796 152.645 170.647 153.47 169.78 154.498C169.2 155.187 168.606 155.905 168.15 156.69C167.658 157.538 167.295 158.506 166.928 159.398C166.557 160.299 166.26 161.222 166.026 162.167C165.428 164.58 165.141 167.08 164.912 169.552C164.707 171.77 164.845 173.994 164.899 176.215C164.937 177.756 165.022 179.236 165.314 180.766C165.598 182.25 166.224 183.653 166.837 185.023C167.84 187.262 169.371 189.336 170.969 191.176C173.327 193.891 176.467 195.754 179.054 198.225C179.689 198.831 180.285 199.474 180.828 200.164C180.502 199.742 180.176 199.32 179.85 198.898C180.083 199.2 180.304 199.508 180.513 199.825L184.251 190.637C184.08 190.672 183.912 190.701 183.739 190.725C184.294 190.65 184.848 190.576 185.402 190.501C184.761 190.571 184.118 190.557 183.475 190.572C182.362 190.598 181.234 190.748 180.148 190.982C178.947 191.24 177.802 191.694 176.657 192.128C175.091 192.722 173.529 193.219 171.987 193.889C170.91 194.357 169.888 194.94 168.809 195.402C169.308 195.192 169.807 194.981 170.305 194.771C169.222 195.219 168.085 195.533 166.978 195.915C165.441 196.444 163.909 197.047 162.465 197.793C160.632 198.74 158.912 200.007 157.267 201.246C155.246 202.767 153.257 204.333 151.466 206.124C149.694 207.897 148.082 209.882 146.716 211.982C146.155 212.845 145.648 213.746 145.214 214.68C144.637 215.923 144.063 217.205 143.68 218.527C142.951 221.048 142.722 223.842 143.379 226.405C143.785 227.99 144.699 229.69 145.911 230.811C147.372 232.162 148.942 232.831 150.783 233.539C153.138 234.446 155.677 234.783 158.168 235.072C160.615 235.356 163.083 235.282 165.542 235.26C167.006 235.248 168.47 235.232 169.934 235.232C171.347 235.232 172.782 235.182 174.185 235.364L172.498 235.137C174.822 235.466 177.079 236.129 179.447 236.155C181.385 236.177 183.321 235.853 185.253 236.112C184.69 236.037 184.126 235.961 183.562 235.885C184.689 236.051 185.794 236.337 186.922 236.505C188.687 236.767 190.362 236.88 192.139 236.839C193.364 236.811 194.589 236.804 195.814 236.783C197.044 236.762 198.294 236.703 199.517 236.867L197.821 236.639C198.707 236.772 199.571 237.009 200.45 237.175C201.825 237.434 203.202 237.579 204.597 237.615C206.494 237.664 208.392 237.61 210.29 237.583C212.038 237.558 213.769 237.651 215.515 237.701C216.331 237.724 217.144 237.709 217.955 237.616C218.874 237.512 219.819 237.406 220.723 237.183C221.186 237.069 221.649 236.972 222.121 236.902C221.553 236.978 220.985 237.055 220.417 237.131C221.874 236.935 223.34 236.967 224.807 236.978C226.776 236.994 228.669 236.818 230.622 236.513C232.03 236.294 233.412 235.941 234.798 235.617C236.057 235.323 237.319 235.094 238.594 234.889C241.724 234.385 244.929 233.271 247.125 230.862C248.66 229.178 249.789 227.214 250.399 225.01C250.865 223.326 251.005 221.501 250.988 219.752C250.978 218.755 250.822 217.778 250.678 216.79C250.605 216.288 250.5 215.796 250.319 215.32C249.972 214.405 249.607 213.429 249.063 212.597C248.488 211.717 247.825 210.871 247.102 210.105C245.154 208.04 243.368 205.756 241.229 203.882C238.868 201.814 236.182 200.123 233.574 198.387C230.893 196.603 227.979 195.142 224.936 194.079C223.513 193.583 222.028 193.299 220.569 192.929C218.987 192.527 217.41 192.105 215.817 191.748C213.787 191.292 211.713 190.923 209.628 190.894C208.022 190.872 206.419 191.009 204.813 191.014C203.139 191.02 201.391 191.737 200.206 192.922C199.076 194.052 198.225 195.906 198.298 197.529C198.373 199.214 198.927 200.961 200.206 202.136C201.478 203.303 203.05 204.05 204.813 204.044C207.092 204.036 209.382 203.743 211.654 204.048C211.077 203.971 210.501 203.893 209.924 203.816C212.236 204.16 214.504 204.796 216.766 205.368C218.884 205.903 220.992 206.333 223.013 207.186C222.496 206.968 221.98 206.75 221.463 206.532C223.46 207.389 225.362 208.459 227.168 209.665C228.953 210.856 230.792 211.996 232.494 213.306C232.057 212.968 231.621 212.631 231.184 212.294C232.616 213.412 233.853 214.733 235.066 216.079C235.675 216.755 236.277 217.436 236.894 218.104C237.473 218.73 238.097 219.319 238.622 219.993C238.285 219.557 237.949 219.122 237.612 218.686C237.939 219.12 238.218 219.578 238.437 220.075C238.22 219.561 238.003 219.048 237.786 218.534C238.013 219.077 238.156 219.638 238.237 220.22L238.007 218.505C238.159 219.724 238.125 221.01 237.962 222.226C238.039 221.655 238.116 221.083 238.192 220.512C238.082 221.238 237.893 221.938 237.612 222.618C237.829 222.104 238.045 221.591 238.262 221.078C238.009 221.656 237.698 222.194 237.315 222.696C237.651 222.261 237.987 221.827 238.322 221.392C238.019 221.771 237.688 222.111 237.308 222.413C237.742 222.078 238.177 221.742 238.611 221.407C238.142 221.762 237.634 222.043 237.093 222.273C237.605 222.056 238.118 221.84 238.63 221.624C236.972 222.295 235.183 222.447 233.441 222.776C231.178 223.202 228.971 223.893 226.685 224.208C227.254 224.131 227.823 224.055 228.392 223.978C226.584 224.211 224.771 224.123 222.954 224.144C221.55 224.16 220.194 224.329 218.801 224.53C217.941 224.654 217.112 224.915 216.252 225.034C216.82 224.958 217.387 224.881 217.955 224.805C216.759 224.95 215.556 224.907 214.356 224.851C213.151 224.794 211.954 224.768 210.748 224.785C209.431 224.804 208.115 224.841 206.798 224.852C205.477 224.863 204.128 224.898 202.815 224.741C203.381 224.817 203.947 224.893 204.513 224.969C203.402 224.817 202.322 224.501 201.213 224.333C200.104 224.165 199.044 224.022 197.931 224.009C197.286 224.002 196.642 224.015 195.998 224.028C194.773 224.052 193.548 224.06 192.324 224.093C191.088 224.126 189.843 224.159 188.614 224L190.306 224.227C188.012 223.899 185.767 223.251 183.428 223.288C181.58 223.317 179.736 223.583 177.892 223.34C178.455 223.416 179.017 223.492 179.58 223.567C177.437 223.261 175.357 222.684 173.179 222.578C171.294 222.486 169.391 222.548 167.505 222.568C164.201 222.603 160.871 222.777 157.585 222.351C158.145 222.426 158.706 222.501 159.266 222.577C157.345 222.318 155.425 221.906 153.633 221.151C154.136 221.363 154.639 221.575 155.142 221.788C154.653 221.575 154.15 221.353 153.722 221.03C154.148 221.36 154.574 221.689 155 222.018C154.81 221.862 154.646 221.693 154.496 221.499C154.825 221.925 155.154 222.351 155.483 222.777C155.34 222.578 155.223 222.372 155.122 222.149L155.758 223.657C155.588 223.251 155.486 222.83 155.428 222.394L155.653 224.072C155.572 223.368 155.601 222.664 155.692 221.962L155.467 223.639C155.634 222.451 155.979 221.317 156.437 220.21L155.801 221.716C156.568 219.899 157.59 218.214 158.787 216.65C158.459 217.075 158.131 217.5 157.803 217.924C159.695 215.479 161.971 213.367 164.407 211.473C163.983 211.8 163.559 212.128 163.136 212.455C165.293 210.789 167.575 209.092 170.094 208.021C169.595 208.232 169.095 208.443 168.596 208.653C170.046 208.051 171.555 207.625 173.03 207.09C174.914 206.407 176.623 205.419 178.457 204.64C177.959 204.85 177.46 205.061 176.961 205.271C178.107 204.801 179.307 204.459 180.465 204.017C181.64 203.57 182.826 203.136 184.073 202.939C183.519 203.013 182.964 203.088 182.41 203.162C183.028 203.083 183.648 203.084 184.27 203.074C185.377 203.058 186.494 202.925 187.577 202.7C188.636 202.403 189.556 201.866 190.337 201.091C190.946 200.525 191.378 199.854 191.63 199.078C192.021 198.333 192.201 197.53 192.168 196.668C192.165 195.539 191.88 194.487 191.314 193.512C190.345 192.047 189.218 190.65 187.947 189.432C186.995 188.519 185.967 187.69 184.934 186.872C182.9 185.264 180.818 183.683 179.211 181.625C179.537 182.046 179.862 182.467 180.188 182.889C179.121 181.506 178.176 180.031 177.485 178.423C177.695 178.92 177.904 179.417 178.114 179.914C177.699 178.918 177.392 177.889 177.246 176.817L177.469 178.476C177.359 177.55 177.388 176.612 177.359 175.681C177.329 174.692 177.287 173.704 177.274 172.715C177.25 170.874 177.395 169.053 177.636 167.229L177.414 168.886C177.699 166.781 178.121 164.678 178.938 162.71C178.729 163.205 178.52 163.701 178.31 164.197C178.603 163.512 178.933 162.858 179.383 162.261C179.059 162.681 178.734 163.101 178.41 163.521C178.811 163.012 179.271 162.569 179.781 162.17L178.521 163.143C179.472 162.421 180.532 161.874 181.591 161.331C182.82 160.7 184.015 160.027 185.288 159.486C184.797 159.693 184.307 159.9 183.816 160.107C185.494 159.407 187.235 158.878 189.038 158.629C188.5 158.701 187.962 158.773 187.425 158.845C189.263 158.611 191.157 158.67 193.009 158.654C194.739 158.64 196.472 158.675 198.191 158.896C197.669 158.826 197.147 158.755 196.625 158.685C198.326 158.915 200.016 159.327 201.603 159.986C201.146 159.794 200.689 159.601 200.232 159.408C201.934 160.135 203.458 161.165 204.921 162.289C204.549 162.002 204.177 161.715 203.805 161.427C205.86 163.021 207.794 164.806 209.4 166.857C209.13 166.507 208.859 166.157 208.588 165.806C209.308 166.739 209.96 167.726 210.44 168.804C210.27 168.402 210.101 168 209.931 167.598C210.196 168.238 210.363 168.897 210.466 169.581C210.407 169.141 210.348 168.702 210.289 168.262C210.418 169.23 210.427 170.205 210.446 171.181C210.466 172.191 210.529 173.198 210.595 174.206C210.727 176.196 210.853 178.196 210.605 180.182C210.659 179.786 210.712 179.389 210.765 178.993C210.515 180.827 209.947 182.663 209.233 184.368L209.661 183.354C209.112 184.631 208.296 185.767 207.8 187.059C207.938 186.734 208.075 186.408 208.212 186.083C208.018 186.41 207.807 186.716 207.575 187.018C207.781 186.751 207.987 186.484 208.193 186.217C207.66 186.906 207.112 187.584 206.603 188.291L207.191 187.529C206.697 188.13 206.236 188.713 206.036 189.484C206.161 189.189 206.285 188.894 206.41 188.599C205.981 189.327 205.574 190.13 205.383 190.953C205.267 191.451 205.18 191.974 205.198 192.486C205.23 193.393 205.422 193.852 205.774 194.666C205.942 194.883 206.109 195.1 206.277 195.317C206.568 195.631 206.913 195.852 207.312 195.982C207.951 196.252 208.727 196.364 209.406 196.144C210.689 195.729 211.868 194.484 211.766 193.043Z" fill="white"/>
<path d="M68.7751 193.043C68.7662 192.918 68.7704 192.799 68.7864 192.675L68.6693 193.546C68.6934 193.421 68.7276 193.304 68.772 193.185L68.435 193.983C68.5303 193.761 68.6528 193.563 68.7962 193.369L68.2543 194.07C68.5417 193.703 68.8796 193.387 69.2356 193.087C68.9857 193.28 68.7359 193.473 68.486 193.666C69.0372 193.432 69.5162 192.847 69.9924 192.457C70.2851 192.217 70.5836 191.985 70.8763 191.745C71.7624 191.019 72.4542 190.118 73.0924 189.17C74.3828 187.254 75.2648 185.036 75.997 182.856C76.8015 180.461 76.9661 177.849 77.0243 175.338C77.0491 174.272 77.0516 173.205 77.0932 172.14C77.1349 171.073 77.2482 170.009 77.2451 168.941C77.2426 168.04 77.1159 167.151 76.9834 166.261C76.9 165.7 76.7735 165.157 76.5726 164.626C76.124 163.441 75.6095 162.273 74.9556 161.186C73.7836 159.236 72.3178 157.428 70.7697 155.765C69.5171 154.42 68.1648 153.163 66.7207 152.025C65.6033 151.145 64.4913 150.28 63.2376 149.603C62.034 148.954 60.752 148.403 59.4587 147.962C58.5899 147.666 57.6694 147.477 56.7653 147.328C55.3777 147.098 53.9749 146.917 52.5711 146.816C50.6873 146.682 48.7972 146.682 46.9099 146.647C44.3038 146.599 41.6646 146.914 39.1651 147.672C36.7443 148.407 34.4387 149.5 32.1912 150.649C31.4195 151.044 30.6465 151.442 29.92 151.917C28.8052 152.645 27.6555 153.47 26.7892 154.498C26.2085 155.187 25.6151 155.905 25.1591 156.69C24.6667 157.538 24.3039 158.506 23.9366 159.398C23.566 160.299 23.2691 161.222 23.0349 162.167C22.437 164.58 22.1496 167.08 21.921 169.552C21.7158 171.77 21.8536 173.994 21.9082 176.215C21.9461 177.756 22.0308 179.236 22.323 180.766C22.6066 182.25 23.2323 183.653 23.8461 185.023C24.8489 187.262 26.3796 189.336 27.9782 191.176C30.336 193.891 33.4758 195.754 36.0625 198.225C36.6974 198.831 37.294 199.474 37.8371 200.164C37.5111 199.742 37.1851 199.32 36.8592 198.898C37.0914 199.2 37.3124 199.508 37.5219 199.825C38.7679 196.763 40.0139 193.7 41.2599 190.637C41.0893 190.672 40.9208 190.701 40.7482 190.725C41.3025 190.65 41.8568 190.576 42.4111 190.501C41.7697 190.571 41.1273 190.557 40.4834 190.572C39.3705 190.598 38.2429 190.748 37.1568 190.982C35.9559 191.24 34.811 191.694 33.6657 192.128C32.0995 192.722 30.5379 193.219 28.9956 193.889C27.919 194.357 26.8973 194.94 25.8179 195.402C26.3167 195.192 26.8155 194.981 27.3142 194.771C26.2308 195.219 25.0941 195.533 23.9863 195.915C22.4494 196.444 20.9175 197.047 19.4735 197.793C17.6404 198.74 15.9207 200.007 14.2754 201.246C12.2545 202.767 10.2658 204.333 8.47499 206.124C6.70271 207.897 5.09099 209.882 3.72503 211.982C3.16337 212.845 2.65724 213.746 2.22327 214.68C1.64608 215.923 1.07134 217.205 0.688872 218.527C-0.0402607 221.048 -0.268867 223.842 0.38778 226.405C0.793645 227.99 1.70766 229.69 2.92014 230.811C4.38084 232.162 5.95039 232.831 7.79138 233.539C10.1471 234.446 12.6853 234.783 15.1766 235.072C17.6242 235.356 20.0919 235.282 22.5509 235.26C24.0149 235.248 25.4789 235.232 26.943 235.232C28.3558 235.232 29.7904 235.182 31.1941 235.364L29.507 235.137C31.8308 235.466 34.0876 236.129 36.4559 236.155C38.3939 236.177 40.3294 235.853 42.262 236.112C41.6983 236.037 41.1346 235.961 40.5709 235.885C41.6982 236.051 42.8032 236.337 43.9304 236.505C45.6958 236.767 47.3705 236.88 49.1475 236.839C50.3727 236.811 51.5975 236.804 52.8228 236.783C54.0531 236.762 55.3032 236.703 56.5261 236.867L54.8298 236.639C55.7157 236.772 56.5794 237.009 57.4589 237.175C58.8337 237.434 60.2109 237.579 61.6055 237.615C63.5031 237.664 65.4011 237.61 67.2985 237.583C69.047 237.558 70.7779 237.651 72.5242 237.701C73.3402 237.724 74.1523 237.709 74.9639 237.616C75.8823 237.512 76.8281 237.406 77.7318 237.183C78.1952 237.069 78.6575 236.972 79.1298 236.902C78.5619 236.978 77.9939 237.055 77.426 237.131C78.883 236.935 80.3493 236.967 81.8155 236.978C83.7848 236.994 85.6776 236.818 87.6312 236.513C89.0389 236.294 90.421 235.941 91.807 235.617C93.0657 235.323 94.3277 235.094 95.6032 234.889C98.733 234.385 101.938 233.271 104.134 230.862C105.669 229.178 106.798 227.214 107.408 225.01C107.874 223.326 108.014 221.501 107.997 219.752C107.987 218.755 107.831 217.778 107.687 216.79C107.614 216.288 107.508 215.796 107.328 215.32C106.981 214.405 106.616 213.429 106.072 212.597C105.497 211.717 104.834 210.871 104.111 210.105C102.162 208.04 100.377 205.756 98.2381 203.882C95.8769 201.814 93.1905 200.123 90.5829 198.387C87.9013 196.603 84.9873 195.142 81.9447 194.079C80.5219 193.583 79.0367 193.299 77.5783 192.929C75.9962 192.527 74.4187 192.105 72.8258 191.748C70.7956 191.292 68.7219 190.923 66.637 190.894C65.0307 190.872 63.4274 191.009 61.8215 191.014C60.1477 191.02 58.4002 191.737 57.2149 192.922C56.085 194.052 55.2341 195.906 55.3068 197.529C55.3823 199.214 55.9357 200.961 57.2149 202.136C58.4871 203.303 60.0584 204.05 61.8215 204.044C64.1012 204.036 66.3903 203.743 68.6623 204.048C68.0858 203.971 67.5094 203.893 66.9329 203.816C69.2444 204.16 71.5127 204.796 73.7752 205.368C75.893 205.903 78.0005 206.333 80.0214 207.186C79.5049 206.968 78.9883 206.75 78.4717 206.532C80.4688 207.389 82.3705 208.459 84.177 209.665C85.962 210.856 87.8011 211.996 89.5024 213.306C89.0659 212.968 88.6295 212.631 88.193 212.294C89.6246 213.412 90.8614 214.733 92.0747 216.079C92.6835 216.755 93.2858 217.436 93.9028 218.104C94.4815 218.73 95.1057 219.319 95.6307 219.993C95.2942 219.557 94.9577 219.122 94.6213 218.686C94.9477 219.12 95.2264 219.578 95.4457 220.075C95.2288 219.561 95.012 219.048 94.7951 218.534C95.0218 219.077 95.1645 219.638 95.2462 220.22L95.0157 218.505C95.1681 219.724 95.1341 221.01 94.9708 222.226L95.2011 220.512C95.0907 221.238 94.9019 221.938 94.6209 222.618L95.2704 221.078C95.0177 221.656 94.7066 222.194 94.324 222.696L95.3311 221.392C95.0278 221.771 94.6968 222.111 94.3167 222.413C94.7511 222.078 95.1854 221.742 95.6198 221.407C95.1504 221.762 94.6432 222.043 94.1017 222.273L95.6392 221.624C93.9812 222.295 92.1922 222.447 90.4498 222.776C88.1863 223.202 85.9794 223.893 83.6939 224.208C84.2628 224.131 84.8317 224.055 85.4006 223.978C83.5927 224.211 81.7799 224.123 79.9631 224.144C78.5592 224.16 77.2031 224.329 75.8095 224.53C74.9495 224.654 74.1208 224.915 73.261 225.034C73.8286 224.958 74.3962 224.881 74.9639 224.805C73.7682 224.95 72.5645 224.907 71.3644 224.851C70.1601 224.794 68.9627 224.768 67.7569 224.785C66.4401 224.804 65.1236 224.841 63.8067 224.852C62.4863 224.863 61.1373 224.898 59.8241 224.741C60.3899 224.817 60.9557 224.893 61.5215 224.969C60.4104 224.817 59.3309 224.501 58.2223 224.333C57.1131 224.165 56.0525 224.022 54.9394 224.009C54.2951 224.002 53.6509 224.015 53.0068 224.028C51.7819 224.052 50.5572 224.06 49.3324 224.093C48.0965 224.126 46.8515 224.159 45.6227 224L47.315 224.227C45.0205 223.899 42.7762 223.251 40.4365 223.288C38.5887 223.317 36.7446 223.583 34.9005 223.34C35.4634 223.416 36.0262 223.492 36.5891 223.567C34.4454 223.261 32.3657 222.684 30.1877 222.578C28.3028 222.486 26.3997 222.548 24.5134 222.568C21.2101 222.603 17.8793 222.777 14.5938 222.351C15.1542 222.426 15.7146 222.501 16.2751 222.577C14.3537 222.318 12.4334 221.906 10.6416 221.151C11.1445 221.363 11.6475 221.575 12.1504 221.788C11.6614 221.575 11.1586 221.353 10.731 221.03C11.157 221.36 11.583 221.689 12.009 222.018C11.819 221.862 11.655 221.693 11.5048 221.499C11.8338 221.925 12.1629 222.351 12.4919 222.777C12.3492 222.578 12.2321 222.372 12.1308 222.149L12.7671 223.657C12.5966 223.251 12.4953 222.83 12.4365 222.394L12.662 224.072C12.5808 223.368 12.6103 222.664 12.7013 221.962L12.476 223.639C12.6431 222.451 12.988 221.317 13.4453 220.21L12.8099 221.716C13.5764 219.899 14.5991 218.214 15.7959 216.65C15.4678 217.075 15.1397 217.5 14.8116 217.924C16.7042 215.479 18.9794 213.367 21.4159 211.473C20.9921 211.8 20.5683 212.128 20.1444 212.455C22.3016 210.789 24.5836 209.092 27.103 208.021C26.6036 208.232 26.1042 208.443 25.6048 208.653C27.0552 208.051 28.5642 207.625 30.0388 207.09C31.9226 206.407 33.6319 205.419 35.466 204.64C34.9674 204.85 34.4688 205.061 33.9701 205.271C35.1153 204.801 36.3154 204.459 37.4737 204.017C38.6488 203.57 39.8351 203.136 41.0821 202.939C40.5276 203.013 39.9732 203.088 39.4187 203.162C40.0373 203.083 40.6565 203.084 41.2789 203.074C42.3857 203.058 43.503 202.925 44.5853 202.7C45.6449 202.403 46.5649 201.866 47.3453 201.091C47.9552 200.525 48.3863 199.854 48.6385 199.078C49.0301 198.333 49.2097 197.53 49.1772 196.668C49.1737 195.539 48.8891 194.487 48.3233 193.512C47.3536 192.047 46.2265 190.65 44.956 189.432C44.0038 188.519 42.9763 187.69 41.9425 186.872C39.909 185.264 37.8265 183.683 36.2202 181.625C36.5457 182.046 36.8711 182.467 37.1966 182.889C36.13 181.506 35.1852 180.031 34.4938 178.423C34.7035 178.92 34.9132 179.417 35.1229 179.914C34.7073 178.918 34.4007 177.889 34.2551 176.817L34.478 178.476C34.3677 177.55 34.397 176.612 34.3681 175.681C34.3374 174.692 34.2961 173.704 34.283 172.715C34.2587 170.874 34.4043 169.053 34.6449 167.229L34.4223 168.886C34.7078 166.781 35.1293 164.678 35.9469 162.71C35.7377 163.205 35.5284 163.701 35.3191 164.197C35.6121 163.512 35.9422 162.858 36.3919 162.261C36.0674 162.681 35.7429 163.101 35.4184 163.521C35.8198 163.012 36.2798 162.569 36.7899 162.17L35.5301 163.143C36.4807 162.421 37.541 161.874 38.6 161.331C39.8284 160.7 41.0238 160.027 42.2968 159.486C41.8063 159.693 41.3157 159.9 40.8252 160.107C42.5027 159.407 44.2435 158.878 46.0469 158.629C45.509 158.701 44.9712 158.773 44.4334 158.845C46.2721 158.611 48.1658 158.67 50.0175 158.654C51.7482 158.64 53.4811 158.675 55.1997 158.896C54.6778 158.826 54.1559 158.755 53.6341 158.685C55.3348 158.915 57.0251 159.327 58.6118 159.986C58.1548 159.794 57.6977 159.601 57.2407 159.408C58.9433 160.135 60.4672 161.165 61.9293 162.289L60.8135 161.427C62.8684 163.021 64.8027 164.806 66.4092 166.857C66.1385 166.507 65.8678 166.157 65.5972 165.806C66.3167 166.739 66.9689 167.726 67.4489 168.804L66.9399 167.598C67.2045 168.238 67.3722 168.897 67.4747 169.581L67.2974 168.262C67.4264 169.23 67.4355 170.205 67.4547 171.181C67.4747 172.191 67.5377 173.198 67.6042 174.206C67.7353 176.196 67.8616 178.196 67.6142 180.182L67.7741 178.993C67.5239 180.827 66.9561 182.663 66.2417 184.368L66.6696 183.354C66.1211 184.631 65.3049 185.767 64.8089 187.059L65.2212 186.083C65.0272 186.41 64.8154 186.716 64.5836 187.018L65.2021 186.217C64.6688 186.906 64.1207 187.584 63.6114 188.291C63.8076 188.037 64.0038 187.783 64.1999 187.529C63.7055 188.13 63.245 188.713 63.045 189.484L63.4184 188.599C62.9895 189.327 62.583 190.13 62.3914 190.953C62.2755 191.451 62.1887 191.974 62.2069 192.486C62.239 193.393 62.4308 193.852 62.7829 194.666C62.9505 194.883 63.1181 195.1 63.2857 195.317C63.577 195.631 63.9219 195.852 64.3206 195.982C64.9595 196.252 65.7358 196.364 66.4143 196.144C67.698 195.729 68.8769 194.484 68.7751 193.043Z" fill="white"/>
<path d="M72.8017 114.71C72.646 116.437 72.9062 118.072 73.8553 119.554C74.3153 120.273 74.89 120.922 75.4706 121.544C75.9581 122.067 76.433 122.601 76.9785 123.066C77.1682 123.227 77.3654 123.378 77.5625 123.53C78.5111 124.263 76.8473 122.98 77.8093 123.723C77.955 123.836 78.0834 123.931 78.2285 124.033C78.511 124.232 78.7994 124.42 79.1003 124.591C79.9964 125.099 80.9672 125.497 81.9404 125.829C83.5473 126.377 85.1861 126.846 86.8168 127.318C89.0461 127.964 91.3572 128.251 93.6549 128.534C93.257 128.481 92.859 128.427 92.4611 128.374C93.9874 128.58 95.5232 128.637 97.0491 128.837L95.8154 128.671C97.0315 128.842 98.2305 129.1 99.4235 129.389C101.026 129.777 102.606 130.076 104.243 130.287C106.695 130.604 109.163 130.735 111.626 130.927C114.136 131.122 116.629 131.453 119.149 131.513C121.651 131.573 124.181 131.526 126.675 131.766C128.069 131.9 129.446 132.01 130.848 132.021C132.262 132.031 133.688 132.004 135.099 132.13C134.614 132.065 134.129 132 133.644 131.935C134.177 132.007 134.686 132.159 135.205 132.295C136.162 132.545 137.17 132.68 138.158 132.724C139.301 132.775 140.453 132.743 141.597 132.764C142.745 132.785 143.895 132.799 145.042 132.744C146.219 132.688 147.388 132.578 148.567 132.566C150.885 132.542 153.202 132.686 155.519 132.659C156.695 132.645 157.857 132.519 159.029 132.424C160.666 132.291 162.31 132.152 163.926 131.847C165.113 131.622 166.268 131.262 167.428 130.929C169.042 130.467 170.544 129.665 172.084 129.009C171.598 129.214 171.111 129.419 170.624 129.625C171.579 129.229 172.546 128.872 173.473 128.411C173 128.61 172.526 128.81 172.052 129.01C172.772 128.71 173.535 128.481 174.224 128.116C175.305 127.543 176.025 126.702 176.702 125.717C177.049 125.213 177.339 124.685 177.714 124.198C177.435 124.56 177.155 124.922 176.875 125.283C177.509 124.495 178.241 123.769 178.74 122.881C179.044 122.339 179.349 121.794 179.648 121.25L178.923 122.188C179.084 121.995 179.239 121.798 179.387 121.596C179.794 121.151 180.069 120.629 180.211 120.029C180.251 119.93 180.294 119.832 180.327 119.73C180.502 119.182 180.549 118.562 180.569 117.99L180.423 119.076C180.566 118.377 180.725 117.653 180.73 116.942C180.736 116.018 180.373 115.236 179.85 114.52L180.141 116.741C180.332 115.69 180.5 114.711 179.898 113.741C178.797 111.966 176.067 112.296 175.471 114.32L176.347 113.205C176.291 113.243 176.233 113.279 176.174 113.313C176.08 113.364 175.993 113.422 175.908 113.487C176.393 113.356 176.877 113.224 177.362 113.093C176.639 113.12 175.725 113.344 175.099 113.711C174.467 114.081 174.065 114.577 173.597 115.102L174.424 114.464C174.302 114.554 174.191 114.614 174.052 114.674C174.395 114.529 174.738 114.384 175.081 114.239C174.324 114.479 173.537 114.689 172.879 115.156C172.189 115.645 171.544 116.194 170.88 116.717C171.22 116.455 171.559 116.193 171.898 115.931C171.416 116.299 170.892 116.548 170.377 116.861C169.531 117.374 168.774 118.019 168.003 118.635C168.384 118.341 168.765 118.047 169.146 117.753C168.991 117.869 168.84 117.967 168.664 118.045C169.121 117.852 169.579 117.659 170.036 117.466L169.918 117.499L171.452 117.292C170.889 117.368 170.306 117.35 169.738 117.405C168.471 117.526 167.642 117.72 166.53 118.164C165.97 118.388 165.412 118.616 164.837 118.798C164.212 118.995 163.566 119.111 162.934 119.283C161.646 119.634 160.436 120.135 159.115 120.387C157.739 120.65 156.351 120.914 154.964 121.107L156.523 120.897C153.309 121.321 150.079 121.068 146.856 121.324C145.234 121.454 143.632 121.575 142.003 121.586C141.225 121.592 140.447 121.589 139.669 121.6C138.884 121.611 138.1 121.679 137.318 121.592L138.786 121.789C137.257 121.563 135.781 121.169 134.219 121.172C133.061 121.174 131.905 121.23 130.749 121.273C128.419 121.36 126.101 121.135 123.771 121.191C121.439 121.247 119.093 121.374 116.763 121.251C114.483 121.13 112.211 120.919 109.93 120.809C107.304 120.682 104.676 120.531 102.068 120.184C102.498 120.242 102.928 120.3 103.358 120.357C101.259 120.065 99.1692 119.668 97.0491 119.556C95.2455 119.46 93.4413 119.592 91.6381 119.616C89.854 119.641 88.1153 119.48 86.3481 119.257C85.4984 119.149 84.6824 119.105 83.8263 119.127C82.9401 119.149 82.0624 119.151 81.1816 119.037C81.4584 119.074 81.7353 119.112 82.0121 119.149C81.5808 119.087 81.1529 119.008 80.7318 118.895C80.5556 118.847 80.383 118.792 80.2108 118.732C80.1362 118.711 80.0631 118.685 79.9914 118.655C79.7257 118.549 79.798 118.581 80.2084 118.751C79.8751 118.498 79.3847 118.345 79.017 118.133C78.6865 117.941 78.354 117.753 78.0253 117.559C77.7483 117.395 77.2466 117.193 77.0508 116.926C77.2657 117.094 77.2813 117.102 77.0975 116.95C77.0153 116.879 76.9356 116.805 76.8584 116.728C76.7117 116.57 76.7093 116.573 76.8515 116.738C76.7905 116.644 76.7339 116.547 76.6814 116.448C76.454 116.093 76.7215 116.688 76.6233 116.316C76.5687 116.11 76.5148 115.904 76.4631 115.697C76.4274 115.481 76.4257 115.487 76.4578 115.715C76.4454 115.605 76.435 115.495 76.4268 115.385C76.4093 115.16 76.4008 114.935 76.3932 114.71C76.3616 113.772 75.5899 112.869 74.5974 112.914C73.5522 112.961 72.8924 113.705 72.8017 114.71Z" fill="white"/>
<path d="M116.542 67.2497C117.008 67.2673 117.442 67.1702 117.845 66.9584C118.265 66.822 118.628 66.5888 118.934 66.259C119.264 65.9526 119.497 65.5897 119.633 65.1703C119.845 64.7672 119.942 64.3328 119.925 63.8671L119.804 62.9678C119.643 62.3948 119.353 61.8973 118.934 61.4752L118.249 60.9463C117.722 60.6403 117.153 60.4863 116.542 60.4844C116.076 60.4669 115.642 60.564 115.239 60.7758C114.82 60.9122 114.457 61.1453 114.15 61.4752C113.82 61.7816 113.587 62.1445 113.451 62.5638C113.239 62.9669 113.142 63.4014 113.159 63.8671L113.28 64.7663C113.441 65.3394 113.731 65.8369 114.15 66.259C114.378 66.4353 114.607 66.6116 114.835 66.7879C115.362 67.0939 115.932 67.2478 116.542 67.2497Z" fill="white"/>
<path d="M131.795 66.8296C132.238 66.8463 132.65 66.754 133.034 66.5527C133.432 66.423 133.777 66.2014 134.069 65.8878C134.382 65.5965 134.604 65.2515 134.733 64.8529C134.935 64.4697 135.027 64.0567 135.01 63.614L134.896 62.7592C134.743 62.2144 134.467 61.7415 134.069 61.3402C133.439 60.7627 132.666 60.3984 131.795 60.3984C131.352 60.3817 130.939 60.474 130.556 60.6753C130.157 60.805 129.812 61.0266 129.521 61.3402C129.207 61.6315 128.986 61.9764 128.856 62.3751C128.655 62.7583 128.562 63.1713 128.579 63.614L128.694 64.4688C128.847 65.0136 129.122 65.4865 129.521 65.8878C130.15 66.4653 130.924 66.8296 131.795 66.8296Z" fill="white"/>
<path d="M48.6175 175.355C48.7269 175.15 48.8363 174.946 48.9457 174.741L49.1562 174.242C49.2432 173.965 49.2556 173.687 49.1934 173.41C49.1929 173.221 49.1453 173.046 49.0509 172.883C48.9667 172.624 48.8228 172.4 48.6192 172.211L48.1966 171.884L47.6978 171.674C47.4202 171.587 47.1427 171.574 46.8651 171.637C46.5872 171.649 46.3285 171.732 46.0888 171.884C45.8842 171.994 45.6796 172.103 45.475 172.212C45.1298 172.417 44.8552 172.691 44.651 173.036C44.4432 173.395 44.3387 173.781 44.3374 174.196L44.4194 174.806C44.5286 175.195 44.7255 175.533 45.0101 175.82C45.2182 176.044 45.4646 176.202 45.7493 176.295C46.023 176.439 46.318 176.504 46.6342 176.493C47.0488 176.491 47.4352 176.387 47.7935 176.179C48.1386 175.975 48.4133 175.7 48.6175 175.355Z" fill="#45D88E"/>
<path d="M58.0738 170.945L57.7672 170.968L57.6177 170.979L57.5429 170.985L57.5205 170.986L56.5322 171.119L55.6442 171.494C55.3443 171.641 55.0912 171.838 54.8849 172.083C54.5235 172.419 54.2681 172.816 54.1186 173.276C53.8866 173.718 53.7802 174.194 53.7995 174.704L53.9318 175.689C54.1079 176.317 54.4256 176.862 54.8849 177.324C54.9889 177.449 55.1166 177.548 55.268 177.623C55.4999 177.854 55.7733 178.013 56.0882 178.101C56.5312 178.334 57.0086 178.441 57.5205 178.421L57.5354 178.422C57.5603 178.424 57.5853 178.426 57.6102 178.428L57.7672 178.44L58.0737 178.462C58.5912 178.482 59.0739 178.374 59.5218 178.139C59.9878 177.987 60.391 177.728 60.7314 177.361C61.0979 177.021 61.3569 176.618 61.5085 176.152C61.7438 175.704 61.8517 175.221 61.8322 174.704L61.698 173.705C61.5194 173.068 61.1972 172.515 60.7314 172.046L59.9707 171.458C59.3845 171.118 58.7522 170.947 58.0738 170.945Z" fill="#45D88E"/>
<path d="M186.838 175.796C187.304 175.813 187.738 175.716 188.141 175.504C188.56 175.368 188.923 175.135 189.229 174.805C189.559 174.499 189.792 174.136 189.928 173.717C190.14 173.314 190.237 172.88 190.219 172.414L190.098 171.516C189.938 170.943 189.648 170.445 189.229 170.024C189.001 169.847 188.773 169.671 188.545 169.495C188.017 169.189 187.448 169.035 186.838 169.033C186.373 169.016 185.938 169.113 185.535 169.324C185.116 169.461 184.753 169.694 184.447 170.024C184.117 170.33 183.884 170.693 183.748 171.112C183.536 171.515 183.439 171.949 183.457 172.414L183.578 173.313C183.738 173.886 184.028 174.383 184.447 174.805L185.132 175.334C185.659 175.64 186.228 175.794 186.838 175.796Z" fill="#45D88E"/>
<path d="M200.94 174.954C201.36 174.97 201.751 174.883 202.115 174.692C202.492 174.569 202.82 174.359 203.096 174.062C203.393 173.785 203.603 173.458 203.726 173.08C203.917 172.717 204.004 172.326 203.989 171.906L203.88 171.095C203.735 170.579 203.473 170.131 203.096 169.75C202.499 169.203 201.766 168.857 200.94 168.857C200.52 168.841 200.129 168.929 199.765 169.12C199.388 169.243 199.061 169.453 198.784 169.75C198.487 170.026 198.277 170.353 198.154 170.731C197.963 171.095 197.876 171.486 197.891 171.906L198 172.716C198.145 173.233 198.407 173.681 198.784 174.062C199.381 174.609 200.114 174.954 200.94 174.954Z" fill="#45D88E"/>
<path d="M93.8097 178.858C94.2594 178.732 94.7093 178.606 95.1592 178.481C95.5877 178.362 96.0142 178.222 96.4537 178.152C97.3577 178.008 98.2614 177.863 99.1641 177.711C99.6148 177.636 100.066 177.561 100.515 177.479C100.957 177.399 101.397 177.233 101.828 177.105C102.683 176.85 103.536 176.586 104.381 176.297C106.028 175.734 107.651 175.103 109.286 174.507C110.097 174.212 110.914 173.931 111.74 173.68C112.966 173.308 114.141 172.818 115.287 172.24C115.716 172.024 116.143 171.805 116.577 171.599C117.014 171.392 117.458 171.203 117.887 170.98C119.116 170.339 120.13 169.391 121.219 168.548C120.862 168.823 120.505 169.099 120.148 169.375C120.514 169.096 120.909 168.879 121.307 168.652C121.487 168.55 121.663 168.442 121.831 168.32C122.255 168.013 122.676 167.696 123.075 167.356C123.167 167.278 123.254 167.194 123.333 167.102C123.731 166.642 124.166 166.134 124.468 165.585C124.784 165.009 125.02 164.387 125.246 163.771C125.384 163.394 125.486 163 125.563 162.607C125.64 162.208 125.71 161.807 125.819 161.415C125.947 160.956 126.077 160.499 126.192 160.037C126.547 158.608 126.759 157.166 126.935 155.703C127 155.164 127.034 154.625 127.046 154.083C127.06 153.503 127.117 152.926 127.193 152.351L127 153.789C127.074 153.245 127.165 152.703 127.254 152.161C127.42 151.154 127.563 150.143 127.685 149.129C127.82 148.01 127.805 146.887 127.794 145.762C127.787 145.1 127.778 144.438 127.776 143.776C127.804 143.034 127.65 142.342 127.312 141.7C127.095 141.032 126.724 140.454 126.199 139.966C125.711 139.441 125.133 139.069 124.465 138.852C123.823 138.515 123.131 138.36 122.389 138.388L120.957 138.58C120.044 138.836 119.252 139.298 118.579 139.966C118.299 140.329 118.018 140.693 117.737 141.056C117.25 141.897 117.004 142.803 117.001 143.776L117.002 143.943C116.974 144.685 117.128 145.376 117.466 146.018C117.683 146.686 118.054 147.264 118.58 147.752C119.068 148.278 119.645 148.649 120.313 148.866C120.955 149.203 121.647 149.358 122.389 149.33C122.866 149.266 123.344 149.202 123.821 149.138C124.734 148.882 125.526 148.42 126.198 147.752C126.479 147.389 126.76 147.025 127.041 146.662C127.528 145.822 127.773 144.915 127.776 143.943L127.776 143.776H117.001C116.998 145.609 117.105 147.46 116.865 149.283L117.058 147.847C116.983 148.401 116.89 148.952 116.796 149.502C116.623 150.522 116.482 151.541 116.349 152.567C116.206 153.67 116.227 154.782 116.08 155.884L116.274 154.445C116.098 155.726 115.799 156.988 115.442 158.23C115.296 158.74 115.188 159.251 115.084 159.77C114.979 160.292 114.896 160.814 114.691 161.31C114.872 160.881 115.052 160.452 115.233 160.023C115.145 160.228 115.04 160.422 114.906 160.6C115.186 160.238 115.465 159.876 115.745 159.514C115.606 159.691 115.445 159.844 115.269 159.984C115.63 159.705 115.99 159.427 116.351 159.148C116.124 159.323 115.882 159.475 115.641 159.628C115.018 160.023 114.435 160.486 113.868 160.954C113.379 161.358 112.946 161.824 112.444 162.213L113.505 161.394C112.861 161.884 112.149 162.249 111.44 162.633C110.738 163.014 110.058 163.434 109.359 163.819C109.01 164.011 108.679 164.235 108.329 164.426C107.982 164.617 107.631 164.8 107.286 164.995C106.583 165.391 105.891 165.808 105.205 166.233C103.81 167.096 102.453 168.017 101.052 168.871C100.339 169.305 99.6144 169.719 98.8862 170.128C98.5269 170.329 98.1596 170.519 97.8042 170.727C97.4422 170.939 97.1036 171.205 96.7568 171.442C95.9818 171.971 95.2029 172.494 94.4229 173.016C94.0354 173.275 93.6221 173.477 93.2075 173.689C92.7752 173.91 92.343 174.132 91.9111 174.354C91.624 174.509 91.3936 174.721 91.2198 174.989C91.0021 175.227 90.8551 175.506 90.7788 175.827L90.6908 176.482C90.678 176.821 90.7487 177.137 90.903 177.431C90.9615 177.64 91.0671 177.821 91.2198 177.975C91.3936 178.243 91.624 178.454 91.9111 178.609C92.4964 178.918 93.159 179.04 93.8097 178.858Z" fill="#45D88E"/>
<path d="M151.274 173.928C150.047 173.282 148.824 172.626 147.604 171.965C146.384 171.305 145.146 170.668 143.951 169.967C142.745 169.26 141.539 168.555 140.328 167.858C139.142 167.176 137.935 166.526 136.761 165.823C135.487 165.06 134.24 164.235 133.033 163.369C133.388 163.643 133.743 163.918 134.098 164.192C133.319 163.559 132.543 162.922 131.755 162.3C131.021 161.721 130.45 160.983 129.791 160.324C129.704 160.237 129.615 160.152 129.523 160.07C129.015 159.621 128.458 159.224 127.918 158.817C127.707 158.657 127.481 158.519 127.271 158.357C127.738 158.718 128.205 159.078 128.672 159.439C128.495 159.3 128.329 159.149 128.17 158.99C127.556 158.375 126.853 157.989 126.187 157.482C126.67 157.855 127.154 158.228 127.637 158.602C127.258 158.309 126.912 157.98 126.596 157.621C127.215 159.961 127.834 162.302 128.452 164.642C128.46 164.603 128.469 164.569 128.483 164.532C128.241 165.107 127.998 165.682 127.755 166.257C127.764 166.238 127.776 166.22 127.789 166.203C127.413 166.69 127.036 167.178 126.66 167.665L126.681 167.644C127.385 166.989 127.883 166.214 128.175 165.319C128.627 164.458 128.834 163.53 128.797 162.535C128.834 161.541 128.627 160.613 128.175 159.752C127.883 158.856 127.385 158.081 126.681 157.427L125.219 156.297C124.092 155.643 122.876 155.315 121.572 155.311L119.652 155.569C118.428 155.912 117.365 156.531 116.464 157.427C116.259 157.67 116.065 157.922 115.88 158.181C115.659 158.414 115.465 158.667 115.299 158.938C114.957 159.472 114.697 160.09 114.552 160.71C114.546 160.727 114.541 160.746 114.539 160.764C114.453 161.404 114.367 162.043 114.281 162.683C114.24 163.017 114.281 163.35 114.405 163.683C114.449 164.643 114.734 165.538 115.262 166.366C115.638 166.853 116.014 167.34 116.39 167.826C116.409 167.845 116.428 167.863 116.446 167.881C116.478 167.912 116.509 167.942 116.541 167.972C116.612 168.038 116.684 168.103 116.758 168.166C117.348 168.676 117.983 169.141 118.607 169.607C118.763 169.724 118.925 169.835 119.091 169.938C119.167 169.986 119.244 170.031 119.321 170.075C119.368 170.101 119.414 170.127 119.462 170.152C120.03 170.392 120.599 170.632 121.168 170.872C121.192 170.879 121.217 170.885 121.243 170.891C121.42 170.934 121.6 170.964 121.78 170.99C122.467 171.089 123.351 171.257 124.12 171.277C124.31 171.282 124.498 171.291 124.687 171.314C124.097 171.235 123.508 171.156 122.918 171.077C123.4 171.142 123.866 171.274 124.333 171.405C124.583 171.475 124.834 171.542 125.088 171.598C125.348 171.656 125.621 171.697 125.872 171.786C126.919 172.153 127.945 172.585 128.977 172.99C128.558 172.813 128.139 172.636 127.72 172.459C128.472 172.808 129.216 173.174 129.972 173.515C131.099 174.023 132.236 174.51 133.389 174.955C134.999 175.577 136.626 176.159 138.238 176.78C139.148 177.13 140.057 177.484 140.966 177.838L139.958 177.413C140.33 177.573 140.704 177.734 141.08 177.886C140.745 177.744 140.409 177.603 140.074 177.461C142.816 178.635 145.556 179.814 148.314 180.95C148.825 181.111 149.335 181.133 149.846 181.019C150.357 180.996 150.833 180.844 151.274 180.563L152.052 179.962C152.427 179.614 152.691 179.202 152.846 178.726C153.02 178.426 153.108 178.103 153.109 177.756C153.223 177.246 153.2 176.735 153.04 176.224L152.653 175.307C152.311 174.729 151.852 174.27 151.274 173.928Z" fill="#45D88E"/>
<path d="M184.269 211.682C185.892 211.204 187.519 210.739 189.13 210.225C190.881 209.666 192.603 209.035 194.29 208.305C195.867 207.623 197.376 206.801 198.897 206.004C200.405 205.213 201.914 204.431 203.397 203.594C203.814 203.358 204.23 203.122 204.646 202.885C205.064 202.647 205.463 202.387 205.865 202.123C206.265 201.86 206.667 201.598 207.07 201.338C207.271 201.209 207.473 201.08 207.676 200.952C207.985 200.756 208.271 200.532 208.561 200.308L208.217 200.573C208.805 200.12 209.399 199.675 210.003 199.244C210.28 199.046 210.538 198.793 210.617 198.445C210.686 198.146 210.67 197.859 210.55 197.575C210.299 196.979 209.617 196.609 208.974 196.801C208.392 196.975 207.814 197.16 207.239 197.353C206.823 197.492 206.419 197.636 206.02 197.824C205.739 197.956 205.459 198.089 205.18 198.224C204.63 198.488 204.083 198.758 203.536 199.029C202.981 199.304 202.453 199.626 201.918 199.938C199.785 201.18 197.608 202.336 195.435 203.506C194.203 204.169 192.957 204.798 191.667 205.343L192.118 205.152C189.884 206.091 187.573 206.827 185.258 207.537C184.603 207.738 183.947 207.937 183.292 208.139C182.842 208.277 182.434 208.572 182.194 208.983C181.964 209.377 181.866 209.957 182.009 210.399C182.153 210.844 182.428 211.273 182.853 211.497C183.286 211.726 183.788 211.824 184.269 211.682Z" fill="#45D88E"/>
<path d="M197.694 218.778C200.753 217.379 203.75 215.851 206.771 214.375C208.232 213.661 209.724 213.006 211.165 212.251C211.755 211.941 212.346 211.619 212.901 211.249C213.158 211.079 213.41 210.901 213.665 210.728C214.509 210.156 215.376 209.586 216.317 209.187C216.113 209.273 215.91 209.358 215.706 209.444C215.981 209.329 216.267 209.227 216.564 209.187C216.334 209.218 216.105 209.249 215.876 209.28C216.163 209.245 216.45 209.202 216.737 209.162L216.051 209.254C216.128 209.245 216.205 209.242 216.283 209.251L215.603 209.16C215.632 209.164 215.66 209.171 215.689 209.177C215.845 209.207 216.223 209.264 216.383 209.272C216.734 209.285 217.061 209.212 217.365 209.052C217.481 209.029 217.585 208.985 217.677 208.918L218.19 208.522C218.437 208.292 218.612 208.021 218.714 207.707C218.828 207.509 218.886 207.296 218.887 207.068C218.962 206.731 218.947 206.394 218.841 206.058C218.782 205.655 218.602 205.463 218.384 205.181C218.14 204.865 218.066 204.757 217.654 204.516C217.448 204.395 217.216 204.31 216.988 204.235C216.822 204.18 216.647 204.172 216.474 204.148C216.297 204.125 216.122 204.089 215.943 204.094C215.702 204.101 215.426 204.152 215.188 204.198C215.146 204.207 215.103 204.217 215.061 204.228C214.689 204.326 214.327 204.501 213.979 204.655C213.8 204.734 213.625 204.823 213.454 204.918C212.698 205.338 211.998 205.855 211.314 206.382C210.875 206.72 210.441 207.063 210.003 207.402C210.167 207.275 210.331 207.149 210.495 207.022C209.757 207.591 208.95 208.078 208.145 208.546C207.185 209.105 206.203 209.626 205.236 210.173C203.223 211.309 201.232 212.485 199.224 213.629C198.088 214.276 196.948 214.914 195.797 215.533C195.39 215.752 195.055 216.217 194.934 216.656C194.81 217.106 194.866 217.705 195.123 218.104C195.382 218.505 195.767 218.859 196.246 218.968C196.413 218.99 196.579 219.013 196.746 219.035C197.085 219.034 197.401 218.948 197.694 218.778Z" fill="#45D88E"/>
<path d="M214.667 225.96C215.145 225.978 215.59 225.878 216.003 225.661C216.432 225.521 216.804 225.283 217.118 224.945C217.456 224.631 217.695 224.259 217.835 223.829C218.052 223.416 218.151 222.971 218.133 222.494L218.01 221.572C217.845 220.985 217.548 220.475 217.118 220.043C216.884 219.862 216.651 219.681 216.417 219.501C215.876 219.187 215.293 219.029 214.667 219.027C214.19 219.009 213.745 219.109 213.332 219.326C212.902 219.466 212.53 219.705 212.216 220.043C211.878 220.357 211.639 220.728 211.5 221.158C211.283 221.571 211.183 222.016 211.201 222.494C211.242 222.801 211.284 223.108 211.325 223.415C211.49 224.002 211.787 224.512 212.216 224.945C212.45 225.125 212.684 225.306 212.918 225.487C213.458 225.8 214.042 225.958 214.667 225.96Z" fill="#45D88E"/>
<path d="M111.706 102.892C111.853 102.823 112.001 102.757 112.15 102.693L111.541 102.95C112.505 102.544 113.514 102.258 114.537 102.044C115.057 101.935 115.583 101.856 116.102 101.736C116.612 101.618 117.125 101.509 117.639 101.403C118.162 101.294 118.687 101.188 119.21 101.076C119.728 100.965 120.229 100.83 120.733 100.668C121.966 100.27 123.184 99.7943 124.342 99.2136C125.374 98.6955 126.342 98.0453 127.318 97.4302C128.335 96.7898 129.346 96.1403 130.347 95.4757C131.35 94.8095 132.344 94.1282 133.323 93.4266C133.962 92.9685 134.588 92.5 135.249 92.0738C135.88 91.6667 136.512 91.2579 137.109 90.8012C137.515 90.4902 137.933 90.1828 138.296 89.819C138.516 89.5981 138.706 89.3417 138.835 89.0575C138.947 88.8123 139.081 88.5508 139.142 88.2823C139.188 88.0766 139.218 87.8578 139.23 87.6481C139.231 87.6262 139.231 87.6045 139.231 87.5825C139.231 87.5702 139.23 87.5579 139.229 87.5456C139.226 87.4749 139.183 87.1007 139.157 87.0389V88.0158L139.159 87.9977C139.236 87.7535 139.247 87.5092 139.192 87.265C139.181 87.0204 139.108 86.7927 138.974 86.5818C138.751 86.2007 138.314 85.8371 137.876 85.7374C137.406 85.6302 136.878 85.6534 136.46 85.9226L136.088 86.2099C135.86 86.4392 135.703 86.7095 135.616 87.0207L135.613 87.0389C135.771 86.7686 135.928 86.4984 136.086 86.2281C135.943 86.3806 135.839 86.561 135.714 86.7251L136.008 86.3436C135.948 86.4185 135.877 86.4824 135.802 86.5418L136.2 86.2343C136.11 86.3029 136.015 86.3625 135.917 86.4185C135.653 86.569 135.434 86.7846 135.195 86.9703C135.337 86.8608 135.479 86.7512 135.621 86.6417C134.513 87.4928 133.205 88.0038 132.016 88.7202C129.905 89.993 127.736 91.167 125.543 92.2915C124.921 92.6104 124.297 92.9255 123.672 93.238C123.072 93.5377 122.476 93.8475 121.858 94.1102C122.084 94.0147 122.31 93.9193 122.537 93.8239C121.713 94.1708 120.86 94.4416 119.994 94.6625C119.561 94.7728 119.126 94.8711 118.689 94.9619C118.252 95.0527 117.822 95.1673 117.389 95.2765C116.545 95.4896 115.697 95.6909 114.855 95.9142C113.781 96.1989 112.755 96.6366 111.744 97.0952C110.844 97.5037 109.978 97.9857 109.176 98.5646C108.884 98.7221 108.65 98.9372 108.473 99.21C108.252 99.452 108.102 99.736 108.025 100.062C107.921 100.395 107.906 100.728 107.98 101.061C107.995 101.395 108.094 101.705 108.278 101.993C108.622 102.528 109.136 102.999 109.775 103.144L110.441 103.234C110.893 103.232 111.315 103.118 111.706 102.892Z" fill="white"/>
<path d="M121.495 113.428C124.235 112.161 127.038 111.04 129.806 109.836C132.56 108.637 135.294 107.363 137.829 105.742C138.532 105.292 139.229 104.83 139.918 104.358C140.189 104.172 140.447 103.969 140.71 103.772C140.966 103.579 141.246 103.405 141.473 103.179C141.58 103.074 141.691 102.973 141.808 102.88C141.674 102.984 141.539 103.088 141.405 103.192C141.568 103.067 141.74 102.959 141.929 102.877L141.479 103.067C141.63 103.004 141.783 102.969 141.939 102.924C141.78 102.945 141.621 102.966 141.462 102.988C141.732 102.952 141.993 102.903 142.261 102.864L141.806 102.925C141.858 102.918 141.91 102.912 141.963 102.907L142.407 102.847C142.625 102.796 142.814 102.696 142.975 102.548C143.251 102.335 143.494 102.031 143.574 101.681C143.641 101.387 143.641 101.086 143.574 100.793C143.492 100.433 143.15 99.952 142.806 99.7943C142.596 99.6978 142.383 99.6049 142.166 99.5255C141.937 99.4416 141.71 99.4296 141.462 99.3964C141.621 99.4178 141.78 99.4392 141.939 99.4606C141.468 99.3433 141.032 99.3514 140.562 99.4146C140.247 99.4569 139.957 99.509 139.662 99.6265C139.411 99.7262 139.143 99.8211 138.904 99.9519C138.656 100.088 138.442 100.297 138.22 100.473C138.015 100.636 137.814 100.803 137.608 100.964L138.027 100.64C136.972 101.449 135.862 102.208 134.743 102.925C133.61 103.652 132.426 104.302 131.232 104.924C128.822 106.179 126.341 107.291 123.873 108.426C122.482 109.066 121.094 109.714 119.724 110.399C119.346 110.588 119.028 111.05 118.918 111.447C118.802 111.867 118.855 112.426 119.095 112.799C119.336 113.173 119.696 113.503 120.143 113.605C120.299 113.626 120.454 113.647 120.609 113.667C120.926 113.666 121.221 113.587 121.495 113.428Z" fill="white"/>
<path d="M143.997 115.277C144.468 115.277 144.963 115.072 145.296 114.738C145.615 114.42 145.855 113.897 145.834 113.439C145.813 112.964 145.657 112.471 145.296 112.14C144.937 111.81 144.495 111.602 143.997 111.602C143.526 111.602 143.031 111.807 142.698 112.14C142.379 112.458 142.139 112.981 142.159 113.439C142.181 113.914 142.337 114.407 142.698 114.738C143.057 115.068 143.499 115.277 143.997 115.277Z" fill="white"/>
<circle cx="165.308" cy="33.911" r="33.745" fill="#FF3232"/>
<path d="M172.018 38.4492C170.189 38.4492 168.507 38.8697 167.193 39.5705C165.746 40.3414 164.012 40.3414 162.564 39.5705C161.25 38.8697 159.569 38.4492 157.739 38.4492C153.524 38.4492 150.108 40.6813 150.108 43.4319C150.108 46.1825 153.528 48.4145 157.743 48.4145C159.572 48.4145 161.254 47.9941 162.568 47.2933C164.015 46.5224 165.75 46.5224 167.197 47.2933C168.511 47.9941 170.193 48.4145 172.022 48.4145C176.237 48.4145 179.653 46.1825 179.653 43.4319C179.653 40.6813 176.233 38.4492 172.018 38.4492ZM157.743 45.5763C155.746 45.5763 154.123 44.6162 154.123 43.4319C154.123 42.2475 155.742 41.2874 157.743 41.2874C159.744 41.2874 161.363 42.2475 161.363 43.4319C161.363 44.6162 159.74 45.5763 157.743 45.5763ZM172.018 45.5763C170.021 45.5763 168.399 44.6162 168.399 43.4319C168.399 42.2475 170.017 41.2874 172.018 41.2874C174.019 41.2874 175.638 42.2475 175.638 43.4319C175.638 44.6162 174.015 45.5763 172.018 45.5763Z" fill="#EEEEEE"/>
<path d="M172.018 38.0985C170.634 38.102 169.233 38.3263 167.943 38.8414C167.344 39.0796 166.79 39.43 166.17 39.6122C165.56 39.7909 164.919 39.8435 164.288 39.7629C163.966 39.7209 163.647 39.6403 163.339 39.5316C163.037 39.4265 162.764 39.2724 162.48 39.1357C161.892 38.8484 161.275 38.6241 160.644 38.4594C159.313 38.116 157.908 38.0179 156.541 38.1616C154.372 38.3858 152.021 39.2023 150.644 40.9893C150.083 41.7146 149.736 42.6046 149.764 43.5297C149.792 44.4653 150.185 45.3272 150.774 46.042C152.21 47.7835 154.617 48.5544 156.793 48.7296C158.167 48.8417 159.576 48.7191 160.9 48.3372C161.52 48.1585 162.126 47.9202 162.698 47.6223C163.269 47.3245 163.885 47.1248 164.534 47.0792C165.185 47.0337 165.834 47.1213 166.45 47.342C166.748 47.4506 167.022 47.6048 167.305 47.7415C167.6 47.8816 167.901 48.0113 168.206 48.1199C169.502 48.5929 170.904 48.7892 172.281 48.7611C174.541 48.7121 177.011 48.0428 178.655 46.4065C179.303 45.7582 179.811 44.9313 179.951 44.0167C180.091 43.1022 179.888 42.1877 179.405 41.3993C178.262 39.5422 175.995 38.5821 173.924 38.2527C173.294 38.1511 172.656 38.102 172.018 38.0985C171.566 38.0985 171.566 38.7993 172.018 38.7993C174.142 38.8028 176.489 39.3635 178.07 40.8632C178.69 41.4518 179.117 42.1386 179.268 42.9761C179.324 43.2949 179.303 43.7539 179.226 44.0868C179.128 44.5038 178.984 44.8297 178.746 45.1941C178.262 45.9369 177.509 46.5326 176.714 46.9636C175.736 47.4927 174.643 47.8116 173.542 47.9657C172.263 48.1409 170.939 48.0954 169.678 47.8221C169.082 47.6924 168.486 47.5137 167.926 47.2649C167.333 47.0056 166.787 46.6833 166.153 46.5256C164.853 46.2032 163.518 46.403 162.337 47.0197C161.236 47.5943 160 47.9167 158.766 48.0218C156.506 48.2215 154.039 47.7975 152.186 46.424C151.832 46.1612 151.502 45.8458 151.226 45.4989C151.001 45.2186 150.767 44.8121 150.651 44.4898C150.504 44.0798 150.448 43.7469 150.462 43.3195C150.476 42.962 150.574 42.5381 150.714 42.2157C151.506 40.4357 153.524 39.4686 155.353 39.0586C156.594 38.7818 157.883 38.7327 159.145 38.8869C159.779 38.964 160.41 39.1042 161.016 39.3004C161.3 39.3915 161.58 39.4931 161.853 39.6157C162.126 39.7384 162.386 39.8855 162.656 40.0082C163.864 40.5618 165.256 40.6599 166.52 40.2395C167.106 40.0467 167.631 39.7139 168.202 39.4896C168.795 39.2583 169.408 39.0901 170.031 38.9745C170.687 38.8554 171.349 38.8028 172.011 38.7993C172.47 38.7993 172.47 38.0985 172.018 38.0985Z" fill="#EEEEEE"/>
<path d="M157.743 45.2248C157.077 45.2212 156.408 45.1196 155.791 44.8603C155.35 44.6781 154.898 44.3838 154.66 44.0089C154.631 43.9633 154.603 43.9143 154.579 43.8652C154.568 43.8442 154.558 43.8232 154.547 43.7986C154.568 43.8442 154.544 43.7881 154.544 43.7846C154.502 43.662 154.484 43.5779 154.477 43.5008C154.47 43.3817 154.477 43.3116 154.495 43.245C154.505 43.1994 154.516 43.1539 154.533 43.1083C154.558 43.0313 154.544 43.0663 154.579 42.9927C154.793 42.5687 155.203 42.2779 155.651 42.0607C156.804 41.5105 158.265 41.5 159.46 41.91C159.954 42.0782 160.438 42.341 160.76 42.7509C160.865 42.8876 160.953 43.0558 160.995 43.2415C161.012 43.3151 161.019 43.3746 161.012 43.4973C161.012 43.5218 161.009 43.5428 161.005 43.5674C161.012 43.5113 161.005 43.5674 161.002 43.5779C160.988 43.641 160.97 43.704 160.953 43.7636C160.935 43.8197 160.942 43.8021 160.904 43.8757C160.872 43.9353 160.837 43.9949 160.798 44.0509C160.742 44.1315 160.665 44.2156 160.574 44.3067C160.371 44.5029 160.122 44.6536 159.859 44.7833C159.204 45.1021 158.461 45.2212 157.743 45.2248C157.291 45.2283 157.291 45.9291 157.743 45.9255C158.535 45.922 159.327 45.7819 160.056 45.463C160.609 45.2213 161.145 44.8463 161.461 44.3172C161.755 43.8197 161.783 43.231 161.545 42.7054C161.293 42.1518 160.767 41.7418 160.231 41.479C158.878 40.8132 157.154 40.7502 155.742 41.2688C154.674 41.6612 153.423 42.6388 153.854 43.9353C154.067 44.5835 154.617 45.0566 155.21 45.3579C155.988 45.7539 156.871 45.9185 157.74 45.922C158.195 45.9255 158.195 45.2248 157.743 45.2248ZM172.018 45.2248C171.352 45.2212 170.683 45.1196 170.067 44.8603C169.625 44.6781 169.173 44.3838 168.935 44.0089C168.907 43.9633 168.879 43.9143 168.854 43.8652C168.844 43.8442 168.833 43.8232 168.823 43.7986C168.844 43.8442 168.819 43.7881 168.819 43.7846C168.777 43.662 168.76 43.5779 168.753 43.5008C168.746 43.3817 168.753 43.3116 168.77 43.245C168.781 43.1994 168.791 43.1539 168.809 43.1083C168.833 43.0313 168.819 43.0663 168.854 42.9927C169.068 42.5687 169.478 42.2779 169.926 42.0607C171.079 41.5105 172.54 41.5 173.735 41.91C174.229 42.0782 174.713 42.341 175.035 42.7509C175.14 42.8876 175.228 43.0558 175.27 43.2415C175.287 43.3151 175.294 43.3746 175.287 43.4973C175.287 43.5218 175.284 43.5428 175.28 43.5674C175.287 43.5113 175.28 43.5674 175.277 43.5779C175.263 43.641 175.245 43.704 175.228 43.7636C175.21 43.8197 175.217 43.8021 175.179 43.8757C175.147 43.9353 175.112 43.9949 175.074 44.0509C175.018 44.1315 174.941 44.2156 174.849 44.3067C174.646 44.5029 174.397 44.6536 174.135 44.7833C173.479 45.1021 172.737 45.2212 172.018 45.2248C171.566 45.2283 171.566 45.9291 172.018 45.9255C172.81 45.922 173.602 45.7819 174.331 45.463C174.885 45.2213 175.421 44.8463 175.736 44.3172C176.03 43.8197 176.058 43.231 175.82 42.7054C175.568 42.1518 175.042 41.7418 174.506 41.479C173.154 40.8132 171.43 40.7502 170.017 41.2688C168.949 41.6612 167.698 42.6388 168.129 43.9353C168.343 44.5835 168.893 45.0566 169.485 45.3579C170.263 45.7539 171.146 45.9185 172.015 45.922C172.47 45.9255 172.47 45.2248 172.018 45.2248Z" fill="#EEEEEE"/>
<path d="M178.056 31.7258V32.0446H151.706V31.7258C151.706 24.4795 157.634 18.5508 164.881 18.5508C168.504 18.5508 171.797 20.033 174.184 22.4227C176.57 24.8124 178.056 28.1026 178.056 31.7258Z" fill="#EEEEEE"/>
<path d="M177.705 31.7259C177.705 31.831 177.705 31.9361 177.705 32.0412C177.821 31.9256 177.94 31.8065 178.056 31.6908C177.821 31.6908 177.586 31.6908 177.351 31.6908C176.714 31.6908 176.076 31.6908 175.438 31.6908C174.489 31.6908 173.542 31.6908 172.593 31.6908C171.44 31.6908 170.287 31.6908 169.138 31.6908C167.877 31.6908 166.615 31.6908 165.354 31.6908C164.078 31.6908 162.806 31.6908 161.531 31.6908C160.339 31.6908 159.145 31.6908 157.953 31.6908C156.951 31.6908 155.945 31.6908 154.943 31.6908C154.221 31.6908 153.5 31.6908 152.778 31.6908C152.438 31.6908 152.091 31.6698 151.751 31.6908C151.737 31.6908 151.723 31.6908 151.706 31.6908C151.821 31.8065 151.94 31.9256 152.056 32.0412C152.056 30.8779 152.158 29.7391 152.441 28.6108C152.739 27.4265 153.209 26.2912 153.829 25.24C155.059 23.1551 156.874 21.4417 159.025 20.3239C161.328 19.129 163.98 18.67 166.548 19.0064C169.425 19.3813 172.123 20.7724 174.128 22.8643C176.132 24.9527 177.407 27.7103 177.656 30.5976C177.688 30.9725 177.705 31.3509 177.705 31.7259C177.705 32.1779 178.406 32.1779 178.406 31.7259C178.399 28.6143 177.309 25.5939 175.347 23.1832C173.448 20.8495 170.753 19.1746 167.813 18.5229C165.063 17.9132 162.169 18.1865 159.579 19.2937C157.228 20.2994 155.192 21.9848 153.738 24.0872C152.249 26.2386 151.418 28.8176 151.359 31.4315C151.355 31.6348 151.355 31.838 151.355 32.0447C151.355 32.2339 151.516 32.3951 151.706 32.3951C151.94 32.3951 152.175 32.3951 152.41 32.3951C153.048 32.3951 153.685 32.3951 154.323 32.3951C155.273 32.3951 156.219 32.3951 157.168 32.3951C158.321 32.3951 159.474 32.3951 160.623 32.3951C161.885 32.3951 163.146 32.3951 164.408 32.3951C165.683 32.3951 166.955 32.3951 168.23 32.3951C169.422 32.3951 170.617 32.3951 171.808 32.3951C172.81 32.3951 173.816 32.3951 174.818 32.3951C175.54 32.3951 176.262 32.3951 176.983 32.3951C177.327 32.3951 177.67 32.4021 178.01 32.3951C178.024 32.3951 178.038 32.3951 178.056 32.3951C178.245 32.3951 178.406 32.2339 178.406 32.0447C178.406 31.9396 178.406 31.8345 178.406 31.7294C178.406 31.2739 177.705 31.2739 177.705 31.7259Z" fill="#EEEEEE"/>
<path d="M180.291 33.8904C180.291 34.3985 180.085 34.854 179.748 35.1904C179.415 35.5232 178.953 35.73 178.445 35.73H151.317C150.304 35.73 149.474 34.903 149.474 33.8904C149.474 33.3823 149.68 32.9268 150.017 32.5904C150.35 32.2575 150.812 32.0508 151.32 32.0508H178.452C179.461 32.0473 180.291 32.8742 180.291 33.8904Z" fill="#EEEEEE"/>
<path d="M179.941 33.8865C179.927 34.7134 179.258 35.3651 178.434 35.3721C178.326 35.3721 178.213 35.3721 178.105 35.3721C177.502 35.3721 176.899 35.3721 176.297 35.3721C175.295 35.3721 174.289 35.3721 173.287 35.3721C172.011 35.3721 170.739 35.3721 169.464 35.3721C168.055 35.3721 166.647 35.3721 165.238 35.3721C163.812 35.3721 162.389 35.3721 160.963 35.3721C159.66 35.3721 158.353 35.3721 157.049 35.3721C155.995 35.3721 154.94 35.3721 153.885 35.3721C153.209 35.3721 152.536 35.3721 151.86 35.3721C151.313 35.3721 150.781 35.4002 150.336 34.9972C149.568 34.3034 149.719 33.0525 150.637 32.5619C150.896 32.4253 151.173 32.3938 151.457 32.3938C151.944 32.3938 152.428 32.3938 152.915 32.3938C153.833 32.3938 154.751 32.3938 155.669 32.3938C156.888 32.3938 158.111 32.3938 159.33 32.3938C160.718 32.3938 162.106 32.3938 163.49 32.3938C164.923 32.3938 166.359 32.3938 167.793 32.3938C169.138 32.3938 170.484 32.3938 171.833 32.3938C172.961 32.3938 174.089 32.3938 175.217 32.3938C175.995 32.3938 176.777 32.3938 177.555 32.3938C177.856 32.3938 178.154 32.3903 178.455 32.3938C179.265 32.4043 179.927 33.0665 179.941 33.8865C179.948 34.3385 180.649 34.3385 180.642 33.8865C180.628 32.7757 179.794 31.8401 178.69 31.707C178.543 31.6895 178.399 31.6895 178.252 31.6895C177.712 31.6895 177.173 31.6895 176.633 31.6895C175.655 31.6895 174.678 31.6895 173.7 31.6895C172.428 31.6895 171.16 31.6895 169.888 31.6895C168.451 31.6895 167.018 31.6895 165.582 31.6895C164.131 31.6895 162.68 31.6895 161.226 31.6895C159.884 31.6895 158.542 31.6895 157.2 31.6895C156.117 31.6895 155.031 31.6895 153.948 31.6895C153.251 31.6895 152.554 31.6895 151.86 31.6895C151.702 31.6895 151.545 31.6895 151.387 31.6895C150.805 31.6895 150.255 31.8787 149.824 32.2746C148.934 33.0875 148.906 34.5032 149.719 35.3756C150.143 35.8312 150.742 36.0659 151.362 36.0659C151.776 36.0659 152.189 36.0659 152.606 36.0659C153.489 36.0659 154.376 36.0659 155.259 36.0659C156.471 36.0659 157.68 36.0659 158.892 36.0659C160.301 36.0659 161.71 36.0659 163.118 36.0659C164.576 36.0659 166.037 36.0659 167.495 36.0659C168.875 36.0659 170.259 36.0659 171.64 36.0659C172.796 36.0659 173.956 36.0659 175.112 36.0659C175.915 36.0659 176.721 36.0659 177.523 36.0659C177.831 36.0659 178.136 36.0694 178.445 36.0659C179.647 36.0519 180.621 35.0813 180.638 33.8794C180.649 33.4344 179.948 33.4344 179.941 33.8865Z" fill="#EEEEEE"/>
<circle cx="224.255" cy="149.243" r="33.745" fill="#FF3232"/>
<g clip-path="url(#clip0_15035_4967)">
<path d="M232.047 143.91V139.038C232.076 137.178 231.421 135.372 230.207 133.962C228.992 132.552 227.303 131.638 225.459 131.391C225.473 131.57 225.438 131.75 225.358 131.912L224.674 133.325C226.157 133.359 227.567 133.979 228.593 135.05C229.62 136.121 230.18 137.555 230.152 139.038V143.73H224.388L223.604 145.485L226.805 150.155L223.301 155.257L225.958 159.675L223.968 163.807L226.07 165.55C226.178 165.641 226.265 165.754 226.326 165.88C226.388 166.006 226.423 166.144 226.429 166.285H230.965C231.462 166.274 231.953 166.166 232.409 165.966C232.865 165.766 233.277 165.479 233.622 165.119C233.966 164.76 234.237 164.337 234.418 163.873C234.599 163.409 234.687 162.914 234.676 162.416V147.599C234.685 146.785 234.435 145.989 233.962 145.326C233.49 144.663 232.819 144.167 232.047 143.91Z" fill="white"/>
<path d="M221.428 164.348L223.632 159.779L220.868 155.182L224.321 150.136L221.277 145.69L222.146 143.728H217.504V139.036C217.483 137.657 217.967 136.318 218.866 135.271C219.764 134.225 221.015 133.544 222.381 133.356L223.357 131.344H222.992C218.922 131.344 215.609 134.797 215.609 139.036V143.908C214.842 144.17 214.177 144.668 213.71 145.33C213.243 145.993 212.997 146.786 213.007 147.597V162.414C212.997 162.912 213.085 163.407 213.266 163.871C213.447 164.335 213.717 164.758 214.062 165.117C214.406 165.477 214.818 165.764 215.274 165.964C215.73 166.164 216.221 166.272 216.719 166.283H223.727L221.428 164.348Z" fill="white"/>
</g>
<circle cx="67.9173" cy="238.091" r="33.745" fill="#FF3232"/>
<g clip-path="url(#clip1_15035_4967)">
<path d="M71.79 223.717C71.3579 222.958 70.7324 222.327 69.9772 221.887C69.222 221.448 68.3639 221.217 67.4903 221.217C66.6166 221.217 65.7585 221.448 65.0033 221.887C64.2481 222.327 63.6226 222.958 63.1905 223.717L50.1688 246.917C49.7553 247.645 49.5415 248.47 49.5491 249.307C49.5568 250.144 49.7855 250.964 50.2122 251.685C50.6451 252.428 51.2668 253.044 52.0143 253.469C52.7617 253.895 53.6084 254.115 54.4685 254.108H80.512C81.3721 254.115 82.2188 253.895 82.9662 253.469C83.7137 253.044 84.3354 252.428 84.7683 251.685C85.195 250.964 85.4237 250.144 85.4314 249.307C85.439 248.47 85.2252 247.645 84.8117 246.917L71.79 223.717ZM67.4903 248.128C67.1946 248.128 66.9055 248.04 66.6597 247.876C66.4138 247.712 66.2222 247.478 66.109 247.205C65.9959 246.932 65.9663 246.631 66.0239 246.341C66.0816 246.051 66.224 245.785 66.4331 245.576C66.6422 245.367 66.9086 245.224 67.1986 245.167C67.4886 245.109 67.7892 245.139 68.0624 245.252C68.3356 245.365 68.569 245.557 68.7333 245.803C68.8976 246.048 68.9853 246.337 68.9853 246.633C68.9853 247.03 68.8278 247.41 68.5474 247.69C68.267 247.971 67.8868 248.128 67.4903 248.128ZM68.9853 240.653C68.9853 241.049 68.8278 241.43 68.5474 241.71C68.267 241.991 67.8868 242.148 67.4903 242.148C67.0937 242.148 66.7135 241.991 66.4331 241.71C66.1527 241.43 65.9952 241.049 65.9952 240.653V231.683C65.9952 231.286 66.1527 230.906 66.4331 230.626C66.7135 230.345 67.0937 230.188 67.4903 230.188C67.8868 230.188 68.267 230.345 68.5474 230.626C68.8278 230.906 68.9853 231.286 68.9853 231.683V240.653Z" fill="white"/>
</g>
<defs>
<clipPath id="clip0_15035_4967">
<rect width="35.8808" height="35.8808" fill="white" transform="translate(205.887 130.875)"/>
</clipPath>
<clipPath id="clip1_15035_4967">
<rect width="35.8808" height="35.8808" fill="white" transform="translate(49.5497 219.723)"/>
</clipPath>
</defs>
</svg>
