<svg width="421" height="242" viewBox="0 0 421 242" fill="none" xmlns="http://www.w3.org/2000/svg">
<path d="M199.296 139.805H142.243V240.405H199.296V139.805Z" fill="#1656A2"/>
<path d="M142.243 140.791H196.947C197.698 140.835 198.45 140.835 199.2 140.791C199.232 140.789 199.264 140.789 199.296 140.791L198.309 139.805V236.302C198.309 237.599 198.207 238.942 198.309 240.235C198.314 240.291 198.309 240.349 198.309 240.405L199.296 239.418H144.591C143.841 239.375 143.089 239.375 142.339 239.418C142.307 239.42 142.275 239.42 142.243 239.418L143.229 240.405V143.907C143.229 142.598 143.266 141.283 143.229 139.974C143.228 139.918 143.229 139.861 143.229 139.805C143.221 139.549 143.113 139.306 142.929 139.128C142.745 138.951 142.499 138.851 142.243 138.851C141.987 138.851 141.741 138.951 141.557 139.128C141.373 139.306 141.265 139.549 141.257 139.805V236.302C141.257 237.612 141.22 238.927 141.257 240.235C141.258 240.292 141.257 240.348 141.257 240.405C141.26 240.665 141.366 240.914 141.55 241.098C141.734 241.282 141.983 241.387 142.243 241.391H192.283C194.581 241.391 196.904 241.487 199.201 241.391C199.232 241.39 199.264 241.391 199.296 241.391C199.557 241.387 199.805 241.282 199.99 241.098C200.174 240.914 200.279 240.665 200.283 240.405V143.907C200.283 142.598 200.319 141.283 200.283 139.974C200.281 139.918 200.283 139.861 200.283 139.805C200.279 139.544 200.174 139.295 199.99 139.111C199.805 138.927 199.557 138.822 199.296 138.818H149.256C146.958 138.818 144.636 138.722 142.338 138.818C142.307 138.819 142.275 138.818 142.243 138.818C141.987 138.827 141.745 138.935 141.567 139.119C141.39 139.303 141.29 139.549 141.29 139.805C141.29 140.06 141.39 140.306 141.567 140.49C141.745 140.674 141.987 140.782 142.243 140.791Z" fill="white"/>
<path d="M170.847 139.805H113.794V240.405H170.847V139.805Z" fill="white"/>
<path d="M113.794 140.791H168.498C169.249 140.835 170.001 140.835 170.751 140.791C170.783 140.789 170.815 140.789 170.847 140.791L169.86 139.805V236.302C169.86 237.599 169.758 238.942 169.86 240.235C169.865 240.291 169.86 240.349 169.86 240.405L170.847 239.418H116.142C115.392 239.375 114.64 239.375 113.889 239.418C113.858 239.42 113.826 239.42 113.794 239.418L114.78 240.405V143.907C114.78 142.598 114.817 141.283 114.78 139.974C114.779 139.918 114.78 139.861 114.78 139.805C114.771 139.549 114.664 139.307 114.48 139.129C114.296 138.951 114.05 138.852 113.794 138.852C113.538 138.852 113.292 138.951 113.108 139.129C112.924 139.307 112.816 139.549 112.808 139.805V236.302C112.808 237.612 112.771 238.927 112.808 240.235C112.809 240.292 112.808 240.348 112.808 240.405C112.811 240.665 112.916 240.914 113.101 241.098C113.285 241.282 113.533 241.387 113.794 241.391H163.834C166.132 241.391 168.454 241.487 170.751 241.391C170.783 241.39 170.815 241.391 170.847 241.391C171.107 241.387 171.356 241.282 171.54 241.098C171.724 240.914 171.83 240.665 171.833 240.405V143.907C171.833 142.598 171.87 141.283 171.833 139.974C171.832 139.918 171.833 139.861 171.833 139.805C171.83 139.544 171.724 139.295 171.54 139.111C171.356 138.927 171.107 138.822 170.847 138.818H120.807C118.508 138.818 116.186 138.722 113.889 138.818C113.858 138.819 113.826 138.818 113.794 138.818C113.538 138.827 113.296 138.935 113.118 139.119C112.941 139.303 112.841 139.549 112.841 139.805C112.841 140.06 112.941 140.306 113.118 140.49C113.296 140.674 113.538 140.782 113.794 140.791Z" fill="white"/>
<path d="M86.5281 190.191H29.475V240.406H86.5281V190.191Z" fill="#1656A2"/>
<path d="M29.475 191.176H84.1795C84.9298 191.219 85.682 191.219 86.4323 191.176C86.4641 191.174 86.496 191.174 86.5278 191.176L85.5414 190.189V238.349C85.5012 239.004 85.5012 239.661 85.5414 240.316C85.5432 240.345 85.5432 240.374 85.5414 240.404L86.5278 239.417H31.8234C31.0731 239.374 30.3209 239.374 29.5706 239.417C29.5387 239.419 29.5069 239.419 29.4751 239.417L30.4615 240.404V196.376C30.4615 194.35 30.5504 192.302 30.4615 190.277C30.4602 190.248 30.4615 190.219 30.4615 190.189C30.4528 189.933 30.345 189.691 30.161 189.513C29.977 189.335 29.731 189.236 29.4751 189.236C29.2191 189.236 28.9732 189.335 28.7892 189.513C28.6051 189.691 28.4974 189.933 28.4887 190.189V234.217C28.4887 236.243 28.3997 238.291 28.4887 240.316C28.49 240.345 28.4887 240.374 28.4887 240.404C28.4924 240.664 28.5975 240.913 28.7817 241.097C28.9659 241.281 29.2146 241.386 29.4751 241.39H79.5149C81.8134 241.39 84.1355 241.486 86.4326 241.39C86.4644 241.389 86.4964 241.39 86.5281 241.39C86.7886 241.386 87.0373 241.281 87.2215 241.097C87.4057 240.913 87.5108 240.664 87.5145 240.404V196.376C87.5145 194.35 87.6035 192.302 87.5145 190.277C87.5132 190.248 87.5145 190.219 87.5145 190.189C87.5108 189.929 87.4057 189.68 87.2215 189.496C87.0373 189.312 86.7886 189.207 86.5281 189.203H36.4882C34.1896 189.203 31.8675 189.107 29.5704 189.203C29.5387 189.204 29.5067 189.203 29.4749 189.203C29.2191 189.212 28.9767 189.319 28.7988 189.503C28.621 189.687 28.5215 189.933 28.5215 190.189C28.5216 190.445 28.621 190.691 28.7989 190.875C28.9767 191.059 29.2192 191.167 29.475 191.176Z" fill="white"/>
<path d="M58.079 190.191H1.02594V240.406H58.079V190.191Z" fill="white"/>
<path d="M1.0259 191.176H55.7303C56.4806 191.219 57.2328 191.219 57.9831 191.176C58.015 191.174 58.0468 191.174 58.0787 191.176L57.0923 190.189V238.349C57.0521 239.004 57.0521 239.661 57.0923 240.316C57.0941 240.345 57.0941 240.374 57.0923 240.404L58.0787 239.417H3.37424C2.62393 239.374 1.87171 239.374 1.1214 239.417C1.08961 239.419 1.05774 239.419 1.02595 239.417L2.01231 240.404V196.376C2.01231 194.35 2.10128 192.302 2.01231 190.277C2.011 190.248 2.01231 190.219 2.01231 190.189C2.0036 189.933 1.89586 189.691 1.71183 189.513C1.5278 189.335 1.28187 189.236 1.02593 189.236C0.769984 189.236 0.524055 189.335 0.340023 189.513C0.155992 189.691 0.0482505 189.933 0.0395427 190.189V234.217C0.0395427 236.243 -0.0494284 238.291 0.0395427 240.316C0.0408487 240.345 0.0395427 240.374 0.0395427 240.404C0.0432417 240.664 0.148358 240.913 0.33255 241.097C0.516742 241.281 0.765491 241.386 1.02595 241.39H51.0657C53.3643 241.39 55.6863 241.486 57.9835 241.39C58.0152 241.389 58.0472 241.39 58.079 241.39C58.3394 241.386 58.5882 241.281 58.7723 241.097C58.9565 240.913 59.0616 240.664 59.0653 240.404V196.376C59.0653 194.35 59.1543 192.302 59.0653 190.277C59.064 190.248 59.0653 190.219 59.0653 190.189C59.0616 189.929 58.9565 189.68 58.7723 189.496C58.5882 189.312 58.3394 189.207 58.079 189.203H8.03901C5.74045 189.203 3.41838 189.107 1.12124 189.203C1.08957 189.204 1.05752 189.203 1.02579 189.203C0.77 189.212 0.527593 189.319 0.34973 189.503C0.171866 189.687 0.0724512 189.933 0.0724654 190.189C0.0724795 190.445 0.171921 190.691 0.349804 190.875C0.527688 191.059 0.770107 191.167 1.0259 191.176Z" fill="white"/>
<path d="M419.691 0.984375H362.638V240.402H419.691V0.984375Z" fill="#1656A2"/>
<path d="M362.638 1.9726H419.691L418.704 0.986234V230.686C418.704 233.754 418.461 236.936 418.704 239.997C418.715 240.131 418.704 240.27 418.704 240.404L419.691 239.418H362.638L363.624 240.404V10.7049C363.624 7.60314 363.682 4.4948 363.624 1.39333C363.622 1.25772 363.624 1.12184 363.624 0.986234C363.615 0.730584 363.507 0.488381 363.323 0.310677C363.139 0.132972 362.894 0.0336616 362.638 0.0336616C362.382 0.0336616 362.136 0.132972 361.952 0.310677C361.768 0.488381 361.66 0.730584 361.651 0.986234V230.686C361.651 233.787 361.593 236.896 361.651 239.997C361.654 240.133 361.651 240.269 361.651 240.404C361.655 240.665 361.76 240.913 361.944 241.098C362.129 241.282 362.377 241.387 362.638 241.391H419.691C419.951 241.387 420.2 241.282 420.384 241.098C420.568 240.913 420.673 240.665 420.677 240.404V10.7049C420.677 7.60314 420.735 4.4948 420.677 1.39333C420.675 1.25772 420.677 1.12184 420.677 0.986234C420.673 0.725807 420.568 0.477099 420.384 0.292941C420.2 0.108782 419.951 0.00369835 419.691 0H362.638C362.382 0.0092942 362.141 0.117276 361.963 0.301228C361.786 0.485179 361.687 0.73076 361.687 0.986301C361.687 1.24184 361.786 1.48742 361.963 1.67137C362.141 1.85533 362.382 1.96331 362.638 1.9726Z" fill="white"/>
<path d="M391.242 0.984375H334.189V240.402H391.242V0.984375Z" fill="white"/>
<path d="M334.189 1.9726H391.242L390.255 0.986234V230.686C390.255 233.754 390.012 236.936 390.255 239.997C390.266 240.131 390.255 240.27 390.255 240.404L391.242 239.418H334.189L335.175 240.404V10.7049C335.175 7.60314 335.233 4.4948 335.175 1.39333C335.172 1.25772 335.175 1.12184 335.175 0.986234C335.166 0.730584 335.058 0.488381 334.874 0.310677C334.69 0.132972 334.444 0.0336616 334.189 0.0336616C333.933 0.0336616 333.687 0.132972 333.503 0.310677C333.319 0.488381 333.211 0.730584 333.202 0.986234V230.686C333.202 233.787 333.144 236.896 333.202 239.997C333.205 240.133 333.202 240.269 333.202 240.404C333.206 240.665 333.311 240.913 333.495 241.098C333.679 241.282 333.928 241.387 334.189 241.391H391.242C391.502 241.387 391.751 241.282 391.935 241.098C392.119 240.913 392.224 240.665 392.228 240.404V10.7049C392.228 7.60314 392.286 4.4948 392.228 1.39333C392.226 1.25772 392.228 1.12184 392.228 0.986234C392.224 0.725807 392.119 0.477099 391.935 0.292941C391.751 0.108782 391.502 0.00369835 391.242 0H334.189C333.933 0.0092942 333.691 0.117276 333.514 0.301228C333.337 0.485179 333.238 0.73076 333.238 0.986301C333.238 1.24184 333.337 1.48742 333.514 1.67137C333.691 1.85533 333.933 1.96331 334.189 1.9726Z" fill="white"/>
<path d="M311.721 71.5957H254.668V240.405H311.721V71.5957Z" fill="#1656A2"/>
<path d="M254.668 72.5841H311.721L310.735 71.5977V233.555C310.735 235.728 310.6 237.95 310.735 240.12C310.741 240.215 310.735 240.312 310.735 240.407L311.721 239.421H254.668L255.655 240.407V78.4502C255.655 76.2632 255.697 74.0715 255.655 71.8847C255.653 71.7891 255.655 71.6934 255.655 71.5977C255.646 71.342 255.538 71.0998 255.354 70.9221C255.17 70.7444 254.924 70.6451 254.668 70.6451C254.413 70.6451 254.167 70.7444 253.983 70.9221C253.799 71.0998 253.691 71.342 253.682 71.5977V233.555C253.682 235.742 253.64 237.933 253.682 240.12C253.684 240.216 253.682 240.312 253.682 240.407C253.686 240.668 253.791 240.916 253.975 241.101C254.159 241.285 254.408 241.39 254.668 241.394H311.721C311.982 241.39 312.231 241.285 312.415 241.101C312.599 240.916 312.704 240.668 312.708 240.407V78.4502C312.708 76.2632 312.75 74.0715 312.708 71.8847C312.706 71.7891 312.708 71.6934 312.708 71.5977C312.704 71.3372 312.599 71.0885 312.415 70.9043C312.231 70.7202 311.982 70.615 311.721 70.6113H254.668C254.413 70.62 254.17 70.7278 253.992 70.9118C253.814 71.0958 253.715 71.3418 253.715 71.5977C253.715 71.8537 253.814 72.0996 253.992 72.2836C254.17 72.4676 254.413 72.5754 254.668 72.5841Z" fill="white"/>
<path d="M283.272 71.5957H226.219V240.405H283.272V71.5957Z" fill="white"/>
<path d="M226.219 72.5841H283.272L282.286 71.5977V233.555C282.286 235.728 282.151 237.95 282.286 240.12C282.292 240.215 282.286 240.312 282.286 240.407L283.272 239.421H226.219L227.206 240.407V78.4502C227.206 76.2632 227.247 74.0715 227.206 71.8847C227.204 71.7891 227.206 71.6934 227.206 71.5977C227.197 71.342 227.089 71.0998 226.905 70.9221C226.721 70.7444 226.475 70.6451 226.219 70.6451C225.963 70.6451 225.718 70.7444 225.534 70.9221C225.35 71.0998 225.242 71.342 225.233 71.5977V233.555C225.233 235.742 225.191 237.933 225.233 240.12C225.235 240.216 225.233 240.312 225.233 240.407C225.237 240.668 225.342 240.916 225.526 241.101C225.71 241.285 225.959 241.39 226.219 241.394H283.272C283.533 241.39 283.781 241.285 283.966 241.101C284.15 240.916 284.255 240.668 284.259 240.407V78.4502C284.259 76.2632 284.3 74.0715 284.259 71.8847C284.257 71.7891 284.259 71.6934 284.259 71.5977C284.255 71.3372 284.15 71.0885 283.966 70.9043C283.781 70.7202 283.533 70.615 283.272 70.6113H226.219C225.963 70.62 225.721 70.7278 225.543 70.9118C225.365 71.0958 225.266 71.3418 225.266 71.5977C225.266 71.8537 225.365 72.0996 225.543 72.2836C225.721 72.4676 225.963 72.5754 226.219 72.5841Z" fill="white"/>
<path d="M15.0469 52.2031H12.6094C12.5156 51.6823 12.3411 51.224 12.0859 50.8281C11.8307 50.4323 11.5182 50.0964 11.1484 49.8203C10.7786 49.5443 10.3646 49.3359 9.90625 49.1953C9.45313 49.0547 8.97135 48.9844 8.46094 48.9844C7.53906 48.9844 6.71354 49.2161 5.98438 49.6797C5.26042 50.1432 4.6875 50.8229 4.26563 51.7187C3.84896 52.6146 3.64062 53.7083 3.64062 55C3.64062 56.3021 3.84896 57.401 4.26563 58.2969C4.6875 59.1927 5.26302 59.8698 5.99219 60.3281C6.72135 60.7865 7.54167 61.0156 8.45313 61.0156C8.95833 61.0156 9.4375 60.9479 9.89063 60.8125C10.349 60.6719 10.763 60.4661 11.1328 60.1953C11.5026 59.9245 11.8151 59.5937 12.0703 59.2031C12.3307 58.8073 12.5104 58.3542 12.6094 57.8438L15.0469 57.8516C14.9167 58.638 14.6641 59.362 14.2891 60.0234C13.9193 60.6797 13.4427 61.2474 12.8594 61.7266C12.2813 62.2005 11.6198 62.5677 10.875 62.8281C10.1302 63.0885 9.31771 63.2187 8.4375 63.2187C7.05208 63.2187 5.81771 62.8906 4.73438 62.2344C3.65104 61.5729 2.79688 60.6276 2.17188 59.3984C1.55208 58.1693 1.24219 56.7031 1.24219 55C1.24219 53.2917 1.55469 51.8255 2.17969 50.6016C2.80469 49.3724 3.65885 48.4297 4.74219 47.7734C5.82552 47.112 7.05729 46.7812 8.4375 46.7812C9.28646 46.7812 10.0781 46.9036 10.8125 47.1484C11.5521 47.388 12.2161 47.7422 12.8047 48.2109C13.3932 48.6745 13.8802 49.2422 14.2656 49.9141C14.651 50.5807 14.9115 51.3437 15.0469 52.2031ZM18.116 63V51H20.3739V52.9062H20.4989C20.7176 52.2604 21.103 51.7526 21.6551 51.3828C22.2124 51.0078 22.8426 50.8203 23.5457 50.8203C23.6916 50.8203 23.8634 50.8255 24.0614 50.8359C24.2645 50.8464 24.4233 50.8594 24.5379 50.875V53.1094C24.4442 53.0833 24.2775 53.0547 24.0379 53.0234C23.7983 52.987 23.5588 52.9687 23.3192 52.9687C22.7671 52.9687 22.2749 53.0859 21.8426 53.3203C21.4155 53.5495 21.077 53.8698 20.827 54.2812C20.577 54.6875 20.452 55.151 20.452 55.6719V63H18.116ZM28.7692 67.5C28.4202 67.5 28.1025 67.4714 27.8161 67.4141C27.5296 67.362 27.3161 67.3047 27.1755 67.2422L27.738 65.3281C28.165 65.4427 28.5452 65.4922 28.8786 65.4766C29.2119 65.4609 29.5062 65.3359 29.7614 65.1016C30.0218 64.8672 30.251 64.4844 30.4489 63.9531L30.738 63.1563L26.3473 51H28.8473L31.8864 60.3125H32.0114L35.0505 51H37.5583L32.613 64.6016C32.3838 65.2266 32.0921 65.7552 31.738 66.1875C31.3838 66.625 30.9619 66.9531 30.4723 67.1719C29.9827 67.3906 29.415 67.5 28.7692 67.5ZM40.1216 67.5V51H42.4028V52.9453H42.5981C42.7336 52.6953 42.9289 52.4062 43.1841 52.0781C43.4393 51.75 43.7935 51.4635 44.2466 51.2187C44.6997 50.9688 45.2987 50.8438 46.0435 50.8438C47.0122 50.8438 47.8768 51.0885 48.6372 51.5781C49.3976 52.0677 49.994 52.7734 50.4263 53.6953C50.8638 54.6172 51.0825 55.7266 51.0825 57.0234C51.0825 58.3203 50.8664 59.4323 50.4341 60.3594C50.0018 61.2812 49.408 61.9922 48.6528 62.4922C47.8976 62.987 47.0356 63.2344 46.0669 63.2344C45.3377 63.2344 44.7414 63.112 44.2778 62.8672C43.8195 62.6224 43.4601 62.3359 43.1997 62.0078C42.9393 61.6797 42.7388 61.388 42.5981 61.1328H42.4575V67.5H40.1216ZM42.4106 57C42.4106 57.8437 42.533 58.5833 42.7778 59.2188C43.0226 59.8542 43.3768 60.3516 43.8403 60.7109C44.3039 61.0651 44.8716 61.2422 45.5435 61.2422C46.2414 61.2422 46.8247 61.0573 47.2935 60.6875C47.7622 60.3125 48.1164 59.8047 48.356 59.1641C48.6007 58.5234 48.7231 57.8021 48.7231 57C48.7231 56.2083 48.6033 55.4974 48.3638 54.8672C48.1294 54.237 47.7752 53.7396 47.3013 53.375C46.8325 53.0104 46.2466 52.8281 45.5435 52.8281C44.8664 52.8281 44.2935 53.0026 43.8247 53.3516C43.3612 53.7005 43.0096 54.1875 42.77 54.8125C42.5304 55.4375 42.4106 56.1667 42.4106 57ZM59.6693 51V52.875H53.1146V51H59.6693ZM54.8724 48.125H57.2083V59.4766C57.2083 59.9297 57.276 60.2708 57.4115 60.5C57.5469 60.724 57.7213 60.8776 57.9349 60.9609C58.1536 61.0391 58.3906 61.0781 58.6458 61.0781C58.8333 61.0781 58.9974 61.0651 59.138 61.0391C59.2786 61.013 59.388 60.9922 59.4661 60.9766L59.888 62.9062C59.7526 62.9583 59.5599 63.0104 59.3099 63.0625C59.0599 63.1198 58.7474 63.151 58.3724 63.1563C57.7578 63.1667 57.1849 63.0573 56.6536 62.8281C56.1224 62.599 55.6927 62.2448 55.3646 61.7656C55.0365 61.2865 54.8724 60.6849 54.8724 59.9609V48.125ZM67.547 63.2422C66.422 63.2422 65.4403 62.9844 64.6017 62.4687C63.7632 61.9531 63.1121 61.2318 62.6486 60.3047C62.1851 59.3776 61.9533 58.2943 61.9533 57.0547C61.9533 55.8099 62.1851 54.7214 62.6486 53.7891C63.1121 52.8568 63.7632 52.1328 64.6017 51.6172C65.4403 51.1016 66.422 50.8438 67.547 50.8438C68.672 50.8438 69.6538 51.1016 70.4923 51.6172C71.3309 52.1328 71.9819 52.8568 72.4455 53.7891C72.909 54.7214 73.1408 55.8099 73.1408 57.0547C73.1408 58.2943 72.909 59.3776 72.4455 60.3047C71.9819 61.2318 71.3309 61.9531 70.4923 62.4687C69.6538 62.9844 68.672 63.2422 67.547 63.2422ZM67.5548 61.2812C68.284 61.2812 68.8882 61.0885 69.3673 60.7031C69.8465 60.3177 70.2007 59.8047 70.4298 59.1641C70.6642 58.5234 70.7814 57.8177 70.7814 57.0469C70.7814 56.2812 70.6642 55.5781 70.4298 54.9375C70.2007 54.2917 69.8465 53.7734 69.3673 53.3828C68.8882 52.9922 68.284 52.7969 67.5548 52.7969C66.8205 52.7969 66.2111 52.9922 65.7267 53.3828C65.2476 53.7734 64.8908 54.2917 64.6564 54.9375C64.4272 55.5781 64.3127 56.2812 64.3127 57.0469C64.3127 57.8177 64.4272 58.5234 64.6564 59.1641C64.8908 59.8047 65.2476 60.3177 65.7267 60.7031C66.2111 61.0885 66.8205 61.2812 67.5548 61.2812ZM82.494 63V47H92.5252V49.0781H84.908V53.9531H92.0018V56.0234H84.908V60.9219H92.619V63H82.494ZM98.2663 55.875V63H95.9303V51H98.1725V52.9531H98.321C98.597 52.3177 99.0293 51.8073 99.6178 51.4219C100.212 51.0365 100.959 50.8438 101.86 50.8438C102.678 50.8438 103.394 51.0156 104.008 51.3594C104.623 51.6979 105.1 52.2031 105.438 52.875C105.777 53.5469 105.946 54.3776 105.946 55.3672V63H103.61V55.6484C103.61 54.7786 103.383 54.099 102.93 53.6094C102.477 53.1146 101.855 52.8672 101.063 52.8672C100.521 52.8672 100.04 52.9844 99.6178 53.2187C99.2012 53.4531 98.8704 53.7969 98.6256 54.25C98.3861 54.6979 98.2663 55.2396 98.2663 55.875ZM115.048 51V52.875H108.494V51H115.048ZM110.251 48.125H112.587V59.4766C112.587 59.9297 112.655 60.2708 112.791 60.5C112.926 60.724 113.1 60.8776 113.314 60.9609C113.533 61.0391 113.77 61.0781 114.025 61.0781C114.212 61.0781 114.376 61.0651 114.517 61.0391C114.658 61.013 114.767 60.9922 114.845 60.9766L115.267 62.9062C115.132 62.9583 114.939 63.0104 114.689 63.0625C114.439 63.1198 114.126 63.151 113.751 63.1563C113.137 63.1667 112.564 63.0573 112.033 62.8281C111.501 62.599 111.072 62.2448 110.744 61.7656C110.416 61.2865 110.251 60.6849 110.251 59.9609V48.125ZM120.594 55.875V63H118.258V47H120.563V52.9531H120.711C120.993 52.3073 121.422 51.7943 122 51.4141C122.578 51.0339 123.334 50.8438 124.266 50.8438C125.089 50.8438 125.808 51.013 126.422 51.3516C127.042 51.6901 127.521 52.1953 127.86 52.8672C128.203 53.5339 128.375 54.3672 128.375 55.3672V63H126.039V55.6484C126.039 54.7682 125.813 54.0859 125.36 53.6016C124.907 53.112 124.276 52.8672 123.469 52.8672C122.917 52.8672 122.422 52.9844 121.985 53.2187C121.552 53.4531 121.211 53.7969 120.961 54.25C120.716 54.6979 120.594 55.2396 120.594 55.875ZM139.462 58.0234V51H141.806V63H139.509V60.9219H139.384C139.108 61.5625 138.665 62.0964 138.056 62.5234C137.452 62.9453 136.699 63.1563 135.798 63.1563C135.027 63.1563 134.345 62.987 133.751 62.6484C133.163 62.3047 132.699 61.7969 132.361 61.125C132.027 60.4531 131.861 59.6224 131.861 58.6328V51H134.196V58.3516C134.196 59.1693 134.423 59.8203 134.876 60.3047C135.329 60.7891 135.918 61.0312 136.642 61.0312C137.079 61.0312 137.514 60.9219 137.946 60.7031C138.384 60.4844 138.746 60.1536 139.032 59.7109C139.324 59.2682 139.467 58.7057 139.462 58.0234ZM154.305 53.9297L152.187 54.3047C152.099 54.0339 151.958 53.776 151.766 53.5312C151.578 53.2865 151.323 53.0859 151 52.9297C150.677 52.7734 150.273 52.6953 149.789 52.6953C149.128 52.6953 148.576 52.8437 148.133 53.1406C147.69 53.4323 147.469 53.8099 147.469 54.2734C147.469 54.6745 147.617 54.9974 147.914 55.2422C148.211 55.487 148.69 55.6875 149.352 55.8437L151.258 56.2812C152.362 56.5365 153.185 56.9297 153.727 57.4609C154.268 57.9922 154.539 58.6823 154.539 59.5313C154.539 60.25 154.331 60.8906 153.914 61.4531C153.503 62.0104 152.927 62.4479 152.187 62.7656C151.453 63.0833 150.602 63.2422 149.633 63.2422C148.289 63.2422 147.193 62.9557 146.344 62.3828C145.495 61.8047 144.974 60.9844 144.781 59.9219L147.039 59.5781C147.18 60.1667 147.469 60.612 147.906 60.9141C148.344 61.2109 148.914 61.3594 149.617 61.3594C150.383 61.3594 150.995 61.2005 151.453 60.8828C151.911 60.5599 152.141 60.1667 152.141 59.7031C152.141 59.3281 152 59.013 151.719 58.7578C151.443 58.5026 151.018 58.3099 150.445 58.1797L148.414 57.7344C147.294 57.4792 146.466 57.0729 145.93 56.5156C145.398 55.9583 145.133 55.2526 145.133 54.3984C145.133 53.6901 145.331 53.0703 145.727 52.5391C146.122 52.0078 146.669 51.5937 147.367 51.2969C148.065 50.9948 148.865 50.8438 149.766 50.8438C151.062 50.8438 152.083 51.125 152.828 51.6875C153.573 52.2448 154.065 52.9922 154.305 53.9297ZM157.475 63V51H159.811V63H157.475ZM158.655 49.1484C158.249 49.1484 157.9 49.013 157.608 48.7422C157.322 48.4661 157.179 48.138 157.179 47.7578C157.179 47.3724 157.322 47.0443 157.608 46.7734C157.9 46.4974 158.249 46.3594 158.655 46.3594C159.061 46.3594 159.408 46.4974 159.694 46.7734C159.986 47.0443 160.132 47.3724 160.132 47.7578C160.132 48.138 159.986 48.4661 159.694 48.7422C159.408 49.013 159.061 49.1484 158.655 49.1484ZM166.814 63.2656C166.054 63.2656 165.366 63.125 164.752 62.8437C164.137 62.5573 163.65 62.1432 163.291 61.6016C162.936 61.0599 162.759 60.3958 162.759 59.6094C162.759 58.9323 162.89 58.375 163.15 57.9375C163.41 57.5 163.762 57.1536 164.205 56.8984C164.647 56.6432 165.142 56.4505 165.689 56.3203C166.236 56.1901 166.793 56.0911 167.361 56.0234C168.08 55.9401 168.663 55.8724 169.111 55.8203C169.559 55.763 169.884 55.6719 170.088 55.5469C170.291 55.4219 170.392 55.2187 170.392 54.9375V54.8828C170.392 54.2005 170.2 53.6719 169.814 53.2969C169.434 52.9219 168.866 52.7344 168.111 52.7344C167.325 52.7344 166.705 52.9089 166.252 53.2578C165.804 53.6016 165.494 53.9844 165.322 54.4062L163.127 53.9062C163.387 53.1771 163.767 52.5885 164.267 52.1406C164.772 51.6875 165.353 51.3594 166.009 51.1562C166.666 50.9479 167.356 50.8438 168.08 50.8438C168.559 50.8438 169.067 50.901 169.603 51.0156C170.145 51.125 170.65 51.3281 171.119 51.625C171.593 51.9219 171.981 52.3464 172.283 52.8984C172.585 53.4453 172.736 54.1563 172.736 55.0313V63H170.455V61.3594H170.361C170.21 61.6615 169.983 61.9583 169.681 62.25C169.379 62.5417 168.991 62.7839 168.517 62.9766C168.043 63.1693 167.476 63.2656 166.814 63.2656ZM167.322 61.3906C167.968 61.3906 168.52 61.263 168.978 61.0078C169.442 60.7526 169.793 60.4193 170.033 60.0078C170.278 59.5911 170.4 59.1458 170.4 58.6719V57.125C170.317 57.2083 170.155 57.2865 169.916 57.3594C169.681 57.4271 169.413 57.487 169.111 57.5391C168.809 57.5859 168.515 57.6302 168.228 57.6719C167.942 57.7083 167.702 57.7396 167.509 57.7656C167.056 57.8229 166.642 57.9193 166.267 58.0547C165.897 58.1901 165.601 58.3854 165.377 58.6406C165.158 58.8906 165.048 59.224 165.048 59.6406C165.048 60.2187 165.262 60.6562 165.689 60.9531C166.116 61.2448 166.66 61.3906 167.322 61.3906ZM185.208 53.9297L183.09 54.3047C183.002 54.0339 182.861 53.776 182.668 53.5312C182.481 53.2865 182.226 53.0859 181.903 52.9297C181.58 52.7734 181.176 52.6953 180.692 52.6953C180.03 52.6953 179.478 52.8437 179.036 53.1406C178.593 53.4323 178.372 53.8099 178.372 54.2734C178.372 54.6745 178.52 54.9974 178.817 55.2422C179.114 55.487 179.593 55.6875 180.254 55.8437L182.161 56.2812C183.265 56.5365 184.088 56.9297 184.629 57.4609C185.171 57.9922 185.442 58.6823 185.442 59.5313C185.442 60.25 185.234 60.8906 184.817 61.4531C184.405 62.0104 183.83 62.4479 183.09 62.7656C182.356 63.0833 181.504 63.2422 180.536 63.2422C179.192 63.2422 178.096 62.9557 177.247 62.3828C176.398 61.8047 175.877 60.9844 175.684 59.9219L177.942 59.5781C178.083 60.1667 178.372 60.612 178.809 60.9141C179.247 61.2109 179.817 61.3594 180.52 61.3594C181.286 61.3594 181.898 61.2005 182.356 60.8828C182.814 60.5599 183.043 60.1667 183.043 59.7031C183.043 59.3281 182.903 59.013 182.622 58.7578C182.346 58.5026 181.921 58.3099 181.348 58.1797L179.317 57.7344C178.197 57.4792 177.369 57.0729 176.833 56.5156C176.301 55.9583 176.036 55.2526 176.036 54.3984C176.036 53.6901 176.234 53.0703 176.629 52.5391C177.025 52.0078 177.572 51.5937 178.27 51.2969C178.968 50.9948 179.767 50.8438 180.668 50.8438C181.965 50.8438 182.986 51.125 183.731 51.6875C184.476 52.2448 184.968 52.9922 185.208 53.9297ZM193.98 51V52.875H187.425V51H193.98ZM189.183 48.125H191.519V59.4766C191.519 59.9297 191.587 60.2708 191.722 60.5C191.857 60.724 192.032 60.8776 192.245 60.9609C192.464 61.0391 192.701 61.0781 192.956 61.0781C193.144 61.0781 193.308 61.0651 193.449 61.0391C193.589 61.013 193.699 60.9922 193.777 60.9766L194.199 62.9062C194.063 62.9583 193.87 63.0104 193.62 63.0625C193.37 63.1198 193.058 63.151 192.683 63.1563C192.068 63.1667 191.495 63.0573 190.964 62.8281C190.433 62.599 190.003 62.2448 189.675 61.7656C189.347 61.2865 189.183 60.6849 189.183 59.9609V48.125ZM205.731 53.9297L203.613 54.3047C203.525 54.0339 203.384 53.776 203.192 53.5312C203.004 53.2865 202.749 53.0859 202.426 52.9297C202.103 52.7734 201.699 52.6953 201.215 52.6953C200.554 52.6953 200.001 52.8437 199.559 53.1406C199.116 53.4323 198.895 53.8099 198.895 54.2734C198.895 54.6745 199.043 54.9974 199.34 55.2422C199.637 55.487 200.116 55.6875 200.777 55.8437L202.684 56.2812C203.788 56.5365 204.611 56.9297 205.152 57.4609C205.694 57.9922 205.965 58.6823 205.965 59.5313C205.965 60.25 205.757 60.8906 205.34 61.4531C204.929 62.0104 204.353 62.4479 203.613 62.7656C202.879 63.0833 202.027 63.2422 201.059 63.2422C199.715 63.2422 198.619 62.9557 197.77 62.3828C196.921 61.8047 196.4 60.9844 196.207 59.9219L198.465 59.5781C198.606 60.1667 198.895 60.612 199.332 60.9141C199.77 61.2109 200.34 61.3594 201.043 61.3594C201.809 61.3594 202.421 61.2005 202.879 60.8828C203.337 60.5599 203.567 60.1667 203.567 59.7031C203.567 59.3281 203.426 59.013 203.145 58.7578C202.869 58.5026 202.444 58.3099 201.871 58.1797L199.84 57.7344C198.72 57.4792 197.892 57.0729 197.356 56.5156C196.824 55.9583 196.559 55.2526 196.559 54.3984C196.559 53.6901 196.757 53.0703 197.152 52.5391C197.548 52.0078 198.095 51.5937 198.793 51.2969C199.491 50.9948 200.291 50.8438 201.192 50.8438C202.488 50.8438 203.509 51.125 204.254 51.6875C204.999 52.2448 205.491 52.9922 205.731 53.9297ZM12.5859 76.0547C12.4349 75.5807 12.2318 75.1562 11.9766 74.7812C11.7266 74.401 11.4271 74.0781 11.0781 73.8125C10.7292 73.5417 10.3307 73.3359 9.88281 73.1953C9.4401 73.0547 8.95313 72.9844 8.42188 72.9844C7.52083 72.9844 6.70833 73.2161 5.98438 73.6797C5.26042 74.1432 4.6875 74.8229 4.26563 75.7187C3.84896 76.6094 3.64062 77.7005 3.64062 78.9922C3.64062 80.2891 3.85156 81.3854 4.27344 82.2812C4.69531 83.1771 5.27344 83.8568 6.00781 84.3203C6.74219 84.7839 7.57813 85.0156 8.51563 85.0156C9.38542 85.0156 10.1432 84.8385 10.7891 84.4844C11.4401 84.1302 11.9427 83.6302 12.2969 82.9844C12.6563 82.3333 12.8359 81.5677 12.8359 80.6875L13.4609 80.8047H8.88281V78.8125H15.1719V80.6328C15.1719 81.9766 14.8854 83.1432 14.3125 84.1328C13.7448 85.1172 12.9583 85.8776 11.9531 86.4141C10.9531 86.9505 9.80729 87.2187 8.51563 87.2187C7.06771 87.2187 5.79688 86.8854 4.70313 86.2188C3.61458 85.5521 2.76562 84.6068 2.15625 83.3828C1.54688 82.1536 1.24219 80.6953 1.24219 79.0078C1.24219 77.7318 1.41927 76.5859 1.77344 75.5703C2.1276 74.5547 2.625 73.6927 3.26562 72.9844C3.91146 72.2708 4.66927 71.7266 5.53906 71.3516C6.41406 70.9714 7.36979 70.7812 8.40625 70.7812C9.27083 70.7812 10.0755 70.9089 10.8203 71.1641C11.5703 71.4193 12.237 71.7812 12.8203 72.25C13.4089 72.7187 13.8958 73.276 14.2813 73.9219C14.6667 74.5625 14.9271 75.2734 15.0625 76.0547H12.5859ZM18.4168 87V75H20.6746V76.9062H20.7996C21.0184 76.2604 21.4038 75.7526 21.9559 75.3828C22.5132 75.0078 23.1434 74.8203 23.8465 74.8203C23.9923 74.8203 24.1642 74.8255 24.3621 74.8359C24.5653 74.8464 24.7241 74.8594 24.8387 74.875V77.1094C24.745 77.0833 24.5783 77.0547 24.3387 77.0234C24.0991 76.987 23.8595 76.9687 23.62 76.9687C23.0679 76.9687 22.5757 77.0859 22.1434 77.3203C21.7163 77.5495 21.3778 77.8698 21.1278 78.2812C20.8778 78.6875 20.7528 79.151 20.7528 79.6719V87H18.4168ZM31.8532 87.2422C30.7282 87.2422 29.7464 86.9844 28.9079 86.4687C28.0693 85.9531 27.4183 85.2318 26.9548 84.3047C26.4912 83.3776 26.2594 82.2943 26.2594 81.0547C26.2594 79.8099 26.4912 78.7214 26.9548 77.7891C27.4183 76.8568 28.0693 76.1328 28.9079 75.6172C29.7464 75.1016 30.7282 74.8438 31.8532 74.8438C32.9782 74.8438 33.96 75.1016 34.7985 75.6172C35.637 76.1328 36.2881 76.8568 36.7516 77.7891C37.2152 78.7214 37.4469 79.8099 37.4469 81.0547C37.4469 82.2943 37.2152 83.3776 36.7516 84.3047C36.2881 85.2318 35.637 85.9531 34.7985 86.4687C33.96 86.9844 32.9782 87.2422 31.8532 87.2422ZM31.861 85.2812C32.5902 85.2812 33.1943 85.0885 33.6735 84.7031C34.1527 84.3177 34.5068 83.8047 34.736 83.1641C34.9704 82.5234 35.0876 81.8177 35.0876 81.0469C35.0876 80.2812 34.9704 79.5781 34.736 78.9375C34.5068 78.2917 34.1527 77.7734 33.6735 77.3828C33.1943 76.9922 32.5902 76.7969 31.861 76.7969C31.1266 76.7969 30.5173 76.9922 30.0329 77.3828C29.5537 77.7734 29.1969 78.2917 28.9626 78.9375C28.7334 79.5781 28.6188 80.2812 28.6188 81.0469C28.6188 81.8177 28.7334 82.5234 28.9626 83.1641C29.1969 83.8047 29.5537 84.3177 30.0329 84.7031C30.5173 85.0885 31.1266 85.2812 31.861 85.2812ZM42.6587 87L39.1274 75H41.5415L43.8931 83.8125H44.0103L46.3696 75H48.7837L51.1274 83.7734H51.2446L53.5806 75H55.9946L52.4712 87H50.0884L47.6509 78.3359H47.4712L45.0337 87H42.6587ZM58.5794 87V75H60.9154V87H58.5794ZM59.7591 73.1484C59.3529 73.1484 59.0039 73.013 58.7122 72.7422C58.4258 72.4661 58.2825 72.138 58.2825 71.7578C58.2825 71.3724 58.4258 71.0443 58.7122 70.7734C59.0039 70.4974 59.3529 70.3594 59.7591 70.3594C60.1654 70.3594 60.5117 70.4974 60.7982 70.7734C61.0898 71.0443 61.2357 71.3724 61.2357 71.7578C61.2357 72.138 61.0898 72.4661 60.7982 72.7422C60.5117 73.013 60.1654 73.1484 59.7591 73.1484ZM66.7619 79.875V87H64.4259V75H66.6681V76.9531H66.8166C67.0926 76.3177 67.5249 75.8073 68.1134 75.4219C68.7072 75.0365 69.4546 74.8438 70.3556 74.8438C71.1733 74.8438 71.8895 75.0156 72.5041 75.3594C73.1186 75.6979 73.5952 76.2031 73.9337 76.875C74.2723 77.5469 74.4416 78.3776 74.4416 79.3672V87H72.1056V79.6484C72.1056 78.7786 71.8791 78.099 71.4259 77.6094C70.9728 77.1146 70.3504 76.8672 69.5588 76.8672C69.0171 76.8672 68.5353 76.9844 68.1134 77.2187C67.6968 77.4531 67.366 77.7969 67.1213 78.25C66.8817 78.6979 66.7619 79.2396 66.7619 79.875ZM82.9736 91.75C82.0205 91.75 81.2002 91.625 80.5127 91.375C79.8304 91.125 79.2731 90.7943 78.8408 90.3828C78.4085 89.9714 78.0856 89.5208 77.8721 89.0313L79.8799 88.2031C80.0205 88.4323 80.208 88.6745 80.4424 88.9297C80.682 89.1901 81.0049 89.4115 81.4111 89.5938C81.8226 89.776 82.3512 89.8672 82.9971 89.8672C83.8825 89.8672 84.6143 89.651 85.1924 89.2188C85.7705 88.7917 86.0596 88.1094 86.0596 87.1719V84.8125H85.9111C85.7705 85.0677 85.5674 85.3516 85.3018 85.6641C85.0413 85.9766 84.682 86.2474 84.2236 86.4766C83.7653 86.7057 83.1689 86.8203 82.4346 86.8203C81.4866 86.8203 80.6325 86.599 79.8721 86.1562C79.1169 85.7083 78.5179 85.0495 78.0752 84.1797C77.6377 83.3047 77.4189 82.2292 77.4189 80.9531C77.4189 79.6771 77.6351 78.5833 78.0674 77.6719C78.5049 76.7604 79.1038 76.0625 79.8643 75.5781C80.6247 75.0885 81.4866 74.8438 82.4502 74.8438C83.195 74.8438 83.7965 74.9688 84.2549 75.2187C84.7132 75.4635 85.07 75.75 85.3252 76.0781C85.5856 76.4062 85.7861 76.6953 85.9268 76.9453H86.0986V75H88.3877V87.2656C88.3877 88.2969 88.1481 89.1432 87.6689 89.8047C87.1898 90.4661 86.5413 90.9557 85.7236 91.2734C84.9111 91.5911 83.9945 91.75 82.9736 91.75ZM82.9502 84.8828C83.6221 84.8828 84.1898 84.7266 84.6533 84.4141C85.1221 84.0964 85.4762 83.6432 85.7158 83.0547C85.9606 82.4609 86.083 81.75 86.083 80.9219C86.083 80.1146 85.9632 79.4036 85.7236 78.7891C85.484 78.1745 85.1325 77.6953 84.6689 77.3516C84.2054 77.0026 83.6325 76.8281 82.9502 76.8281C82.2471 76.8281 81.6611 77.0104 81.1924 77.375C80.7236 77.7344 80.3695 78.224 80.1299 78.8437C79.8955 79.4635 79.7783 80.1562 79.7783 80.9219C79.7783 81.7083 79.8981 82.3984 80.1377 82.9922C80.3773 83.5859 80.7314 84.0495 81.2002 84.3828C81.6741 84.7161 82.2575 84.8828 82.9502 84.8828ZM98.2663 87V71H108.188V73.0781H100.68V77.9531H107.477V80.0234H100.68V87H98.2663ZM114.787 87.2656C114.026 87.2656 113.339 87.125 112.724 86.8437C112.11 86.5573 111.623 86.1432 111.263 85.6016C110.909 85.0599 110.732 84.3958 110.732 83.6094C110.732 82.9323 110.862 82.375 111.123 81.9375C111.383 81.5 111.735 81.1536 112.177 80.8984C112.62 80.6432 113.115 80.4505 113.662 80.3203C114.208 80.1901 114.766 80.0911 115.333 80.0234C116.052 79.9401 116.636 79.8724 117.083 79.8203C117.531 79.763 117.857 79.6719 118.06 79.5469C118.263 79.4219 118.365 79.2187 118.365 78.9375V78.8828C118.365 78.2005 118.172 77.6719 117.787 77.2969C117.406 76.9219 116.839 76.7344 116.083 76.7344C115.297 76.7344 114.677 76.9089 114.224 77.2578C113.776 77.6016 113.466 77.9844 113.294 78.4062L111.099 77.9062C111.36 77.1771 111.74 76.5885 112.24 76.1406C112.745 75.6875 113.326 75.3594 113.982 75.1562C114.638 74.9479 115.328 74.8438 116.052 74.8438C116.531 74.8438 117.039 74.901 117.576 75.0156C118.117 75.125 118.623 75.3281 119.091 75.625C119.565 75.9219 119.953 76.3464 120.255 76.8984C120.557 77.4453 120.708 78.1563 120.708 79.0313V87H118.427V85.3594H118.333C118.182 85.6615 117.956 85.9583 117.654 86.25C117.352 86.5417 116.964 86.7839 116.49 86.9766C116.016 87.1693 115.448 87.2656 114.787 87.2656ZM115.294 85.3906C115.94 85.3906 116.492 85.263 116.951 85.0078C117.414 84.7526 117.766 84.4193 118.005 84.0078C118.25 83.5911 118.373 83.1458 118.373 82.6719V81.125C118.289 81.2083 118.128 81.2865 117.888 81.3594C117.654 81.4271 117.386 81.487 117.083 81.5391C116.781 81.5859 116.487 81.6302 116.201 81.6719C115.914 81.7083 115.675 81.7396 115.482 81.7656C115.029 81.8229 114.615 81.9193 114.24 82.0547C113.87 82.1901 113.573 82.3854 113.349 82.6406C113.13 82.8906 113.021 83.224 113.021 83.6406C113.021 84.2187 113.235 84.6562 113.662 84.9531C114.089 85.2448 114.633 85.3906 115.294 85.3906ZM133.18 77.9297L131.063 78.3047C130.974 78.0339 130.834 77.776 130.641 77.5312C130.453 77.2865 130.198 77.0859 129.875 76.9297C129.552 76.7734 129.149 76.6953 128.664 76.6953C128.003 76.6953 127.451 76.8437 127.008 77.1406C126.565 77.4323 126.344 77.8099 126.344 78.2734C126.344 78.6745 126.493 78.9974 126.789 79.2422C127.086 79.487 127.565 79.6875 128.227 79.8437L130.133 80.2812C131.237 80.5365 132.06 80.9297 132.602 81.4609C133.144 81.9922 133.414 82.6823 133.414 83.5313C133.414 84.25 133.206 84.8906 132.789 85.4531C132.378 86.0104 131.802 86.4479 131.063 86.7656C130.328 87.0833 129.477 87.2422 128.508 87.2422C127.164 87.2422 126.068 86.9557 125.219 86.3828C124.37 85.8047 123.849 84.9844 123.657 83.9219L125.914 83.5781C126.055 84.1667 126.344 84.612 126.782 84.9141C127.219 85.2109 127.789 85.3594 128.493 85.3594C129.258 85.3594 129.87 85.2005 130.328 84.8828C130.787 84.5599 131.016 84.1667 131.016 83.7031C131.016 83.3281 130.875 83.013 130.594 82.7578C130.318 82.5026 129.894 82.3099 129.321 82.1797L127.289 81.7344C126.17 81.4792 125.341 81.0729 124.805 80.5156C124.274 79.9583 124.008 79.2526 124.008 78.3984C124.008 77.6901 124.206 77.0703 124.602 76.5391C124.998 76.0078 125.545 75.5937 126.243 75.2969C126.94 74.9948 127.74 74.8438 128.641 74.8438C129.938 74.8438 130.959 75.125 131.703 75.6875C132.448 76.2448 132.94 76.9922 133.18 77.9297ZM141.952 75V76.875H135.398V75H141.952ZM137.155 72.125H139.491V83.4766C139.491 83.9297 139.559 84.2708 139.694 84.5C139.83 84.724 140.004 84.8776 140.218 84.9609C140.437 85.0391 140.674 85.0781 140.929 85.0781C141.116 85.0781 141.28 85.0651 141.421 85.0391C141.562 85.013 141.671 84.9922 141.749 84.9766L142.171 86.9062C142.036 86.9583 141.843 87.0104 141.593 87.0625C141.343 87.1198 141.03 87.151 140.655 87.1563C140.041 87.1667 139.468 87.0573 138.937 86.8281C138.405 86.599 137.976 86.2448 137.648 85.7656C137.319 85.2865 137.155 84.6849 137.155 83.9609V72.125Z" fill="white"/>
</svg>
