<svg width="341" height="190" viewBox="0 0 341 190" fill="none" xmlns="http://www.w3.org/2000/svg">
<path d="M340.914 13.6383C340.914 6.52339 335.131 0.740234 328.016 0.740234H13.4449C6.32997 0.740234 0.546814 6.52339 0.546814 13.6383V23.6539H340.914V13.6383Z" fill="#E1E1E1"/>
<path d="M0.309631 23.6562V176.189C0.309631 183.304 6.09279 189.087 13.2077 189.087H327.779C334.894 189.087 340.677 183.304 340.677 176.189V23.6562H0.309631Z" fill="#F2F2F2"/>
<path d="M25.3942 12.125C25.3942 15.3724 22.749 18.0177 19.5016 18.0177C16.2543 18.0177 13.609 15.3724 13.609 12.125C13.609 8.87771 16.2543 6.23242 19.5016 6.23242C22.749 6.23242 25.3942 8.87771 25.3942 12.125Z" fill="#ED534F"/>
<path d="M46.6114 12.125C46.6114 15.3724 43.9661 18.0177 40.7188 18.0177C37.4715 18.0177 34.8262 15.3724 34.8262 12.125C34.8262 8.87771 37.4715 6.23242 40.7188 6.23242C43.9661 6.23242 46.6114 8.87771 46.6114 12.125Z" fill="#EDBB1A"/>
<path d="M67.8468 12.125C67.8468 15.3724 65.2015 18.0177 61.9541 18.0177C58.7068 18.0177 56.0615 15.3724 56.0615 12.125C56.0615 8.87771 58.7068 6.23242 61.9541 6.23242C65.2015 6.23242 67.8468 8.87771 67.8468 12.125Z" fill="#4CAF50"/>
<rect x="22.6082" y="87.3516" width="294.73" height="40.1355" rx="10.946" fill="#34A930"/>
<path fill-rule="evenodd" clip-rule="evenodd" d="M43.5882 104.377C43.5882 101.858 45.6301 99.8164 48.149 99.8164C50.6679 99.8164 52.7099 101.858 52.7099 104.377V105.252C52.9247 105.299 53.1309 105.367 53.3301 105.469C53.9022 105.76 54.3674 106.225 54.6589 106.798C54.8469 107.167 54.9218 107.559 54.9567 107.987C54.9903 108.398 54.9903 108.903 54.9903 109.515V110.642C54.9903 111.254 54.9903 111.759 54.9567 112.17C54.9218 112.597 54.8469 112.99 54.6589 113.359C54.3674 113.931 53.9022 114.396 53.3301 114.688C52.9612 114.876 52.5684 114.951 52.1411 114.986C51.7297 115.019 51.2248 115.019 50.6129 115.019H45.6852C45.0733 115.019 44.5683 115.019 44.1569 114.986C43.7296 114.951 43.3368 114.876 42.9679 114.688C42.3958 114.396 41.9307 113.931 41.6391 113.359C41.4512 112.99 41.3762 112.597 41.3413 112.17C41.3077 111.759 41.3077 111.254 41.3077 110.642V109.515C41.3077 108.903 41.3077 108.398 41.3413 107.987C41.3762 107.559 41.4512 107.167 41.6391 106.798C41.9307 106.225 42.3958 105.76 42.9679 105.469C43.1672 105.367 43.3733 105.299 43.5882 105.252V104.377ZM51.1896 104.377V105.139H45.1084V104.377C45.1084 102.698 46.4698 101.337 48.149 101.337C49.8282 101.337 51.1896 102.698 51.1896 104.377ZM48.9092 109.318C48.9092 108.898 48.5688 108.558 48.149 108.558C47.7292 108.558 47.3889 108.898 47.3889 109.318V110.838C47.3889 111.258 47.7292 111.599 48.149 111.599C48.5688 111.599 48.9092 111.258 48.9092 110.838V109.318Z" fill="white"/>
<path d="M63.5108 108.193V112.92H61.9611V102.306H63.49V106.255H63.5885C63.7751 105.826 64.0601 105.486 64.4437 105.234C64.8272 104.982 65.3282 104.856 65.9467 104.856C66.4926 104.856 66.9694 104.968 67.3771 105.192C67.7883 105.417 68.1062 105.752 68.3308 106.198C68.5588 106.64 68.6728 107.193 68.6728 107.856V112.92H67.1232V108.043C67.1232 107.459 66.9729 107.006 66.6723 106.685C66.3717 106.36 65.9536 106.198 65.418 106.198C65.0518 106.198 64.7235 106.276 64.4333 106.431C64.1465 106.587 63.9202 106.815 63.7544 107.115C63.592 107.412 63.5108 107.772 63.5108 108.193ZM74.4568 104.959V106.203H70.1085V104.959H74.4568ZM71.2746 103.052H72.8242V110.582C72.8242 110.883 72.8691 111.109 72.959 111.261C73.0488 111.41 73.1646 111.512 73.3062 111.567C73.4513 111.619 73.6086 111.645 73.7779 111.645C73.9022 111.645 74.0111 111.636 74.1044 111.619C74.1977 111.602 74.2702 111.588 74.3221 111.578L74.6019 112.858C74.5121 112.892 74.3842 112.927 74.2184 112.961C74.0526 112.999 73.8452 113.02 73.5965 113.024C73.1888 113.03 72.8087 112.958 72.4563 112.806C72.1038 112.654 71.8188 112.419 71.6011 112.101C71.3834 111.783 71.2746 111.384 71.2746 110.904V103.052ZM79.8871 104.959V106.203H75.5387V104.959H79.8871ZM76.7048 103.052H78.2545V110.582C78.2545 110.883 78.2994 111.109 78.3892 111.261C78.4791 111.41 78.5948 111.512 78.7365 111.567C78.8816 111.619 79.0388 111.645 79.2081 111.645C79.3325 111.645 79.4414 111.636 79.5346 111.619C79.6279 111.602 79.7005 111.588 79.7523 111.578L80.0322 112.858C79.9424 112.892 79.8145 112.927 79.6487 112.961C79.4828 112.999 79.2755 113.02 79.0267 113.024C78.619 113.03 78.2389 112.958 77.8865 112.806C77.5341 112.654 77.249 112.419 77.0314 112.101C76.8137 111.783 76.7048 111.384 76.7048 110.904V103.052ZM81.6013 115.905V104.959H83.1147V106.25H83.2442C83.3341 106.084 83.4636 105.892 83.6329 105.674C83.8022 105.457 84.0372 105.267 84.3378 105.104C84.6384 104.938 85.0357 104.856 85.5298 104.856C86.1725 104.856 86.7461 105.018 87.2505 105.343C87.755 105.667 88.1506 106.136 88.4374 106.747C88.7276 107.359 88.8727 108.095 88.8727 108.955C88.8727 109.815 88.7293 110.553 88.4426 111.168C88.1558 111.78 87.7619 112.251 87.2609 112.583C86.7599 112.911 86.188 113.075 85.5454 113.075C85.0617 113.075 84.666 112.994 84.3585 112.832C84.0545 112.669 83.8161 112.479 83.6433 112.262C83.4705 112.044 83.3375 111.851 83.2442 111.681H83.1509V115.905H81.6013ZM83.1198 108.94C83.1198 109.499 83.201 109.99 83.3634 110.411C83.5258 110.833 83.7608 111.163 84.0683 111.401C84.3758 111.636 84.7524 111.754 85.1981 111.754C85.6611 111.754 86.0481 111.631 86.3591 111.386C86.67 111.137 86.905 110.8 87.0639 110.375C87.2263 109.95 87.3075 109.472 87.3075 108.94C87.3075 108.414 87.2281 107.943 87.0691 107.525C86.9136 107.107 86.6787 106.777 86.3643 106.535C86.0533 106.293 85.6646 106.172 85.1981 106.172C84.749 106.172 84.3689 106.288 84.0579 106.519C83.7504 106.751 83.5172 107.074 83.3582 107.488C83.1993 107.903 83.1198 108.387 83.1198 108.94ZM96.5743 106.903L95.1698 107.151C95.1111 106.972 95.0178 106.801 94.8899 106.638C94.7656 106.476 94.5962 106.343 94.382 106.239C94.1678 106.136 93.9 106.084 93.5787 106.084C93.1399 106.084 92.7736 106.182 92.4799 106.379C92.1863 106.573 92.0394 106.823 92.0394 107.131C92.0394 107.397 92.1379 107.611 92.3348 107.773C92.5318 107.936 92.8496 108.069 93.2885 108.172L94.5531 108.463C95.2856 108.632 95.8315 108.893 96.1908 109.245C96.5502 109.598 96.7298 110.056 96.7298 110.619C96.7298 111.096 96.5916 111.521 96.3152 111.894C96.0422 112.263 95.6604 112.554 95.1698 112.764C94.6826 112.975 94.1177 113.081 93.475 113.081C92.5836 113.081 91.8563 112.891 91.2931 112.51C90.7299 112.127 90.3844 111.583 90.2565 110.878L91.7544 110.65C91.8476 111.04 92.0394 111.336 92.3296 111.536C92.6199 111.733 92.9982 111.832 93.4647 111.832C93.9726 111.832 94.3786 111.726 94.6826 111.515C94.9867 111.301 95.1387 111.04 95.1387 110.733C95.1387 110.484 95.0454 110.275 94.8588 110.106C94.6757 109.936 94.3941 109.809 94.014 109.722L92.6665 109.427C91.9237 109.257 91.3743 108.988 91.0184 108.618C90.666 108.249 90.4898 107.78 90.4898 107.214C90.4898 106.744 90.6211 106.333 90.8836 105.98C91.1462 105.628 91.509 105.353 91.972 105.156C92.435 104.956 92.9654 104.856 93.5631 104.856C94.4235 104.856 95.1007 105.042 95.5948 105.415C96.0889 105.785 96.4154 106.281 96.5743 106.903ZM99.4547 113.018C99.1714 113.018 98.9278 112.918 98.7239 112.718C98.52 112.514 98.4181 112.269 98.4181 111.982C98.4181 111.699 98.52 111.457 98.7239 111.256C98.9278 111.052 99.1714 110.95 99.4547 110.95C99.738 110.95 99.9816 111.052 100.185 111.256C100.389 111.457 100.491 111.699 100.491 111.982C100.491 112.172 100.443 112.346 100.346 112.505C100.253 112.661 100.128 112.785 99.973 112.878C99.8175 112.972 99.6447 113.018 99.4547 113.018ZM99.4547 107.224C99.1714 107.224 98.9278 107.122 98.7239 106.918C98.52 106.714 98.4181 106.471 98.4181 106.187C98.4181 105.904 98.52 105.662 98.7239 105.462C98.9278 105.258 99.1714 105.156 99.4547 105.156C99.738 105.156 99.9816 105.258 100.185 105.462C100.389 105.662 100.491 105.904 100.491 106.187C100.491 106.378 100.443 106.552 100.346 106.711C100.253 106.866 100.128 106.991 99.973 107.084C99.8175 107.177 99.6447 107.224 99.4547 107.224ZM106.61 101.808L103.189 114.516H101.805L105.226 101.808H106.61ZM111.969 101.808L108.548 114.516H107.164L110.585 101.808H111.969ZM115.011 112.92L112.668 104.959H114.27L115.83 110.805H115.907L117.473 104.959H119.074L120.629 110.779H120.707L122.256 104.959H123.858L121.52 112.92H119.94L118.323 107.172H118.203L116.586 112.92H115.011ZM127.054 112.92L124.712 104.959H126.313L127.873 110.805H127.951L129.516 104.959H131.118L132.672 110.779H132.75L134.3 104.959H135.901L133.564 112.92H131.983L130.366 107.172H130.247L128.63 112.92H127.054ZM139.098 112.92L136.755 104.959H138.357L139.917 110.805H139.994L141.56 104.959H143.161L144.716 110.779H144.794L146.343 104.959H147.945L145.607 112.92H144.027L142.41 107.172H142.29L140.673 112.92H139.098ZM149.353 113.018C149.07 113.018 148.826 112.918 148.622 112.718C148.419 112.514 148.317 112.269 148.317 111.982C148.317 111.699 148.419 111.457 148.622 111.256C148.826 111.052 149.07 110.95 149.353 110.95C149.637 110.95 149.88 111.052 150.084 111.256C150.288 111.457 150.39 111.699 150.39 111.982C150.39 112.172 150.341 112.346 150.245 112.505C150.151 112.661 150.027 112.785 149.872 112.878C149.716 112.972 149.543 113.018 149.353 113.018ZM156.182 104.959V106.203H151.833V104.959H156.182ZM152.999 103.052H154.549V110.582C154.549 110.883 154.594 111.109 154.684 111.261C154.774 111.41 154.889 111.512 155.031 111.567C155.176 111.619 155.333 111.645 155.503 111.645C155.627 111.645 155.736 111.636 155.829 111.619C155.922 111.602 155.995 111.588 156.047 111.578L156.327 112.858C156.237 112.892 156.109 112.927 155.943 112.961C155.777 112.999 155.57 113.02 155.321 113.024C154.914 113.03 154.533 112.958 154.181 112.806C153.829 112.654 153.544 112.419 153.326 112.101C153.108 111.783 152.999 111.384 152.999 110.904V103.052ZM157.896 112.92V104.959H159.394V106.224H159.477C159.622 105.795 159.877 105.458 160.244 105.213C160.613 104.964 161.031 104.84 161.498 104.84C161.595 104.84 161.709 104.843 161.84 104.85C161.975 104.857 162.08 104.866 162.156 104.876V106.359C162.094 106.341 161.983 106.322 161.824 106.302C161.665 106.277 161.506 106.265 161.348 106.265C160.981 106.265 160.655 106.343 160.368 106.498C160.085 106.65 159.86 106.863 159.694 107.136C159.528 107.405 159.445 107.713 159.445 108.058V112.92H157.896ZM168.54 109.618V104.959H170.095V112.92H168.571V111.541H168.488C168.305 111.966 168.011 112.32 167.607 112.604C167.206 112.884 166.707 113.024 166.109 113.024C165.598 113.024 165.145 112.911 164.751 112.687C164.361 112.459 164.053 112.122 163.829 111.676C163.608 111.23 163.497 110.679 163.497 110.023V104.959H165.047V109.836C165.047 110.379 165.197 110.811 165.498 111.132C165.798 111.453 166.189 111.614 166.669 111.614C166.959 111.614 167.248 111.541 167.534 111.396C167.825 111.251 168.065 111.032 168.255 110.738C168.448 110.444 168.543 110.071 168.54 109.618ZM178.142 106.903L176.738 107.151C176.679 106.972 176.586 106.801 176.458 106.638C176.334 106.476 176.164 106.343 175.95 106.239C175.736 106.136 175.468 106.084 175.147 106.084C174.708 106.084 174.342 106.182 174.048 106.379C173.754 106.573 173.607 106.823 173.607 107.131C173.607 107.397 173.706 107.611 173.903 107.773C174.1 107.936 174.418 108.069 174.856 108.172L176.121 108.463C176.854 108.632 177.399 108.893 177.759 109.245C178.118 109.598 178.298 110.056 178.298 110.619C178.298 111.096 178.16 111.521 177.883 111.894C177.61 112.263 177.228 112.554 176.738 112.764C176.251 112.975 175.686 113.081 175.043 113.081C174.152 113.081 173.424 112.891 172.861 112.51C172.298 112.127 171.952 111.583 171.825 110.878L173.322 110.65C173.416 111.04 173.607 111.336 173.898 111.536C174.188 111.733 174.566 111.832 175.033 111.832C175.541 111.832 175.947 111.726 176.251 111.515C176.555 111.301 176.707 111.04 176.707 110.733C176.707 110.484 176.613 110.275 176.427 110.106C176.244 109.936 175.962 109.809 175.582 109.722L174.234 109.427C173.492 109.257 172.942 108.988 172.586 108.618C172.234 108.249 172.058 107.78 172.058 107.214C172.058 106.744 172.189 106.333 172.452 105.98C172.714 105.628 173.077 105.353 173.54 105.156C174.003 104.956 174.533 104.856 175.131 104.856C175.991 104.856 176.669 105.042 177.163 105.415C177.657 105.785 177.983 106.281 178.142 106.903ZM183.718 104.959V106.203H179.369V104.959H183.718ZM180.535 103.052H182.085V110.582C182.085 110.883 182.13 111.109 182.22 111.261C182.31 111.41 182.425 111.512 182.567 111.567C182.712 111.619 182.869 111.645 183.039 111.645C183.163 111.645 183.272 111.636 183.365 111.619C183.459 111.602 183.531 111.588 183.583 111.578L183.863 112.858C183.773 112.892 183.645 112.927 183.479 112.961C183.313 112.999 183.106 113.02 182.857 113.024C182.45 113.03 182.07 112.958 181.717 112.806C181.365 112.654 181.08 112.419 180.862 112.101C180.644 111.783 180.535 111.384 180.535 110.904V103.052ZM188.777 113.081C187.993 113.081 187.318 112.913 186.751 112.578C186.188 112.239 185.752 111.764 185.445 111.153C185.141 110.538 184.989 109.817 184.989 108.991C184.989 108.176 185.141 107.457 185.445 106.835C185.752 106.213 186.181 105.728 186.73 105.379C187.283 105.03 187.929 104.856 188.669 104.856C189.118 104.856 189.553 104.93 189.975 105.078C190.396 105.227 190.774 105.46 191.11 105.778C191.445 106.096 191.709 106.509 191.903 107.017C192.096 107.521 192.193 108.134 192.193 108.857V109.406H185.865V108.245H190.674C190.674 107.837 190.591 107.476 190.426 107.162C190.26 106.844 190.026 106.593 189.726 106.41C189.429 106.227 189.08 106.136 188.679 106.136C188.244 106.136 187.863 106.243 187.539 106.457C187.217 106.668 186.969 106.944 186.792 107.286C186.62 107.625 186.533 107.993 186.533 108.39V109.297C186.533 109.829 186.627 110.282 186.813 110.655C187.003 111.028 187.267 111.313 187.606 111.51C187.945 111.704 188.34 111.8 188.793 111.8C189.087 111.8 189.354 111.759 189.596 111.676C189.838 111.59 190.047 111.462 190.223 111.293C190.4 111.123 190.534 110.914 190.628 110.665L192.094 110.93C191.977 111.362 191.766 111.74 191.462 112.065C191.161 112.386 190.783 112.637 190.327 112.816C189.874 112.992 189.358 113.081 188.777 113.081ZM196.892 113.075C196.25 113.075 195.676 112.911 195.172 112.583C194.671 112.251 194.277 111.78 193.99 111.168C193.707 110.553 193.565 109.815 193.565 108.955C193.565 108.095 193.708 107.359 193.995 106.747C194.285 106.136 194.683 105.667 195.187 105.343C195.692 105.018 196.263 104.856 196.903 104.856C197.397 104.856 197.794 104.938 198.095 105.104C198.399 105.267 198.634 105.457 198.8 105.674C198.969 105.892 199.1 106.084 199.193 106.25H199.287V102.306H200.836V112.92H199.323V111.681H199.193C199.1 111.851 198.965 112.044 198.789 112.262C198.616 112.479 198.378 112.669 198.074 112.832C197.77 112.994 197.376 113.075 196.892 113.075ZM197.234 111.754C197.68 111.754 198.057 111.636 198.364 111.401C198.675 111.163 198.91 110.833 199.069 110.411C199.232 109.99 199.313 109.499 199.313 108.94C199.313 108.387 199.233 107.903 199.074 107.488C198.915 107.074 198.682 106.751 198.375 106.519C198.067 106.288 197.687 106.172 197.234 106.172C196.768 106.172 196.379 106.293 196.068 106.535C195.757 106.777 195.522 107.107 195.363 107.525C195.208 107.943 195.13 108.414 195.13 108.94C195.13 109.472 195.21 109.95 195.369 110.375C195.528 110.8 195.762 111.137 196.073 111.386C196.388 111.631 196.775 111.754 197.234 111.754ZM206.386 116.071C205.754 116.071 205.209 115.988 204.753 115.822C204.301 115.656 203.931 115.437 203.644 115.164C203.357 114.891 203.143 114.592 203.002 114.267L204.334 113.718C204.427 113.87 204.551 114.031 204.707 114.2C204.866 114.373 205.08 114.52 205.349 114.641C205.622 114.762 205.973 114.822 206.401 114.822C206.989 114.822 207.474 114.679 207.858 114.392C208.241 114.109 208.433 113.656 208.433 113.034V111.469H208.335C208.241 111.638 208.107 111.826 207.93 112.034C207.758 112.241 207.519 112.421 207.215 112.573C206.911 112.725 206.515 112.801 206.028 112.801C205.399 112.801 204.833 112.654 204.328 112.36C203.827 112.063 203.43 111.626 203.136 111.049C202.846 110.468 202.701 109.755 202.701 108.908C202.701 108.062 202.844 107.336 203.131 106.732C203.421 106.127 203.819 105.664 204.323 105.343C204.828 105.018 205.399 104.856 206.039 104.856C206.533 104.856 206.932 104.938 207.236 105.104C207.54 105.267 207.777 105.457 207.946 105.674C208.119 105.892 208.252 106.084 208.345 106.25H208.459V104.959H209.978V113.096C209.978 113.78 209.819 114.342 209.501 114.781C209.183 115.219 208.753 115.544 208.21 115.755C207.671 115.966 207.063 116.071 206.386 116.071ZM206.37 111.515C206.816 111.515 207.193 111.412 207.5 111.204C207.811 110.994 208.046 110.693 208.205 110.303C208.367 109.909 208.449 109.437 208.449 108.888C208.449 108.352 208.369 107.881 208.21 107.473C208.051 107.065 207.818 106.747 207.511 106.519C207.203 106.288 206.823 106.172 206.37 106.172C205.904 106.172 205.515 106.293 205.204 106.535C204.893 106.773 204.658 107.098 204.499 107.509C204.344 107.92 204.266 108.38 204.266 108.888C204.266 109.409 204.346 109.867 204.505 110.261C204.663 110.655 204.898 110.963 205.209 111.184C205.524 111.405 205.911 111.515 206.37 111.515ZM214.373 113.096C213.868 113.096 213.412 113.003 213.004 112.816C212.597 112.626 212.274 112.352 212.035 111.992C211.8 111.633 211.683 111.192 211.683 110.671C211.683 110.221 211.769 109.852 211.942 109.561C212.115 109.271 212.348 109.041 212.642 108.872C212.935 108.703 213.263 108.575 213.626 108.489C213.989 108.402 214.359 108.337 214.735 108.292C215.212 108.236 215.599 108.191 215.896 108.157C216.193 108.119 216.409 108.058 216.544 107.976C216.679 107.893 216.746 107.758 216.746 107.571V107.535C216.746 107.082 216.618 106.732 216.363 106.483C216.111 106.234 215.734 106.11 215.233 106.11C214.711 106.11 214.3 106.225 213.999 106.457C213.702 106.685 213.497 106.939 213.383 107.219L211.926 106.887C212.099 106.403 212.351 106.013 212.683 105.716C213.018 105.415 213.403 105.198 213.839 105.063C214.274 104.925 214.732 104.856 215.212 104.856C215.53 104.856 215.867 104.894 216.223 104.97C216.582 105.042 216.917 105.177 217.228 105.374C217.543 105.571 217.8 105.852 218.001 106.219C218.201 106.581 218.301 107.053 218.301 107.633V112.92H216.788V111.832H216.726C216.625 112.032 216.475 112.229 216.275 112.422C216.074 112.616 215.817 112.777 215.502 112.904C215.188 113.032 214.811 113.096 214.373 113.096ZM214.709 111.852C215.138 111.852 215.504 111.768 215.808 111.598C216.116 111.429 216.349 111.208 216.508 110.935C216.67 110.658 216.751 110.363 216.751 110.049V109.022C216.696 109.078 216.589 109.13 216.43 109.178C216.275 109.223 216.097 109.263 215.896 109.297C215.696 109.328 215.501 109.358 215.311 109.385C215.121 109.409 214.962 109.43 214.834 109.447C214.533 109.485 214.259 109.549 214.01 109.639C213.764 109.729 213.568 109.859 213.419 110.028C213.274 110.194 213.201 110.415 213.201 110.691C213.201 111.075 213.343 111.365 213.626 111.562C213.91 111.756 214.271 111.852 214.709 111.852ZM220.365 112.92V104.959H221.853V106.255H221.951C222.117 105.816 222.388 105.474 222.765 105.229C223.141 104.98 223.592 104.856 224.118 104.856C224.65 104.856 225.095 104.98 225.455 105.229C225.817 105.477 226.085 105.82 226.258 106.255H226.341C226.531 105.83 226.833 105.491 227.248 105.239C227.663 104.983 228.157 104.856 228.73 104.856C229.452 104.856 230.041 105.082 230.498 105.534C230.957 105.987 231.187 106.669 231.187 107.582V112.92H229.637V107.727C229.637 107.188 229.49 106.797 229.197 106.555C228.903 106.314 228.552 106.193 228.145 106.193C227.64 106.193 227.248 106.348 226.968 106.659C226.688 106.967 226.548 107.362 226.548 107.846V112.92H225.004V107.628C225.004 107.196 224.869 106.849 224.6 106.587C224.33 106.324 223.979 106.193 223.547 106.193C223.254 106.193 222.982 106.27 222.734 106.426C222.488 106.578 222.29 106.79 222.138 107.063C221.989 107.336 221.915 107.652 221.915 108.012V112.92H220.365ZM233.388 112.92V102.306H234.938V106.25H235.031C235.121 106.084 235.251 105.892 235.42 105.674C235.589 105.457 235.824 105.267 236.125 105.104C236.425 104.938 236.823 104.856 237.317 104.856C237.959 104.856 238.533 105.018 239.037 105.343C239.542 105.667 239.938 106.136 240.224 106.747C240.515 107.359 240.66 108.095 240.66 108.955C240.66 109.815 240.516 110.553 240.229 111.168C239.943 111.78 239.549 112.251 239.048 112.583C238.547 112.911 237.975 113.075 237.332 113.075C236.849 113.075 236.453 112.994 236.145 112.832C235.841 112.669 235.603 112.479 235.43 112.262C235.257 112.044 235.124 111.851 235.031 111.681H234.902V112.92H233.388ZM234.907 108.94C234.907 109.499 234.988 109.99 235.15 110.411C235.313 110.833 235.548 111.163 235.855 111.401C236.163 111.636 236.539 111.754 236.985 111.754C237.448 111.754 237.835 111.631 238.146 111.386C238.457 111.137 238.692 110.8 238.851 110.375C239.013 109.95 239.094 109.472 239.094 108.94C239.094 108.414 239.015 107.943 238.856 107.525C238.701 107.107 238.466 106.777 238.151 106.535C237.84 106.293 237.452 106.172 236.985 106.172C236.536 106.172 236.156 106.288 235.845 106.519C235.537 106.751 235.304 107.074 235.145 107.488C234.986 107.903 234.907 108.387 234.907 108.94ZM243.949 102.306V112.92H242.4V102.306H243.949ZM246.034 112.92V104.959H247.584V112.92H246.034ZM246.817 103.731C246.547 103.731 246.316 103.641 246.122 103.461C245.932 103.278 245.837 103.061 245.837 102.808C245.837 102.553 245.932 102.335 246.122 102.155C246.316 101.972 246.547 101.881 246.817 101.881C247.086 101.881 247.316 101.972 247.506 102.155C247.7 102.335 247.796 102.553 247.796 102.808C247.796 103.061 247.7 103.278 247.506 103.461C247.316 103.641 247.086 103.731 246.817 103.731ZM251.218 108.193V112.92H249.669V104.959H251.156V106.255H251.255C251.438 105.833 251.724 105.495 252.115 105.239C252.509 104.983 253.005 104.856 253.602 104.856C254.145 104.856 254.62 104.97 255.028 105.198C255.435 105.422 255.752 105.757 255.976 106.203C256.201 106.649 256.313 107.2 256.313 107.856V112.92H254.763V108.043C254.763 107.466 254.613 107.015 254.312 106.69C254.012 106.362 253.599 106.198 253.074 106.198C252.714 106.198 252.395 106.276 252.115 106.431C251.839 106.587 251.619 106.815 251.457 107.115C251.298 107.412 251.218 107.772 251.218 108.193ZM261.729 116.071C261.097 116.071 260.552 115.988 260.096 115.822C259.644 115.656 259.274 115.437 258.987 115.164C258.701 114.891 258.486 114.592 258.345 114.267L259.677 113.718C259.77 113.87 259.894 114.031 260.05 114.2C260.209 114.373 260.423 114.52 260.692 114.641C260.965 114.762 261.316 114.822 261.745 114.822C262.332 114.822 262.817 114.679 263.201 114.392C263.584 114.109 263.776 113.656 263.776 113.034V111.469H263.678C263.584 111.638 263.45 111.826 263.273 112.034C263.101 112.241 262.862 112.421 262.558 112.573C262.254 112.725 261.859 112.801 261.371 112.801C260.743 112.801 260.176 112.654 259.671 112.36C259.17 112.063 258.773 111.626 258.479 111.049C258.189 110.468 258.044 109.755 258.044 108.908C258.044 108.062 258.187 107.336 258.474 106.732C258.764 106.127 259.162 105.664 259.666 105.343C260.171 105.018 260.743 104.856 261.382 104.856C261.876 104.856 262.275 104.938 262.579 105.104C262.883 105.267 263.12 105.457 263.289 105.674C263.462 105.892 263.595 106.084 263.688 106.25H263.802V104.959H265.321V113.096C265.321 113.78 265.162 114.342 264.844 114.781C264.526 115.219 264.096 115.544 263.553 115.755C263.014 115.966 262.406 116.071 261.729 116.071ZM261.713 111.515C262.159 111.515 262.536 111.412 262.843 111.204C263.154 110.994 263.389 110.693 263.548 110.303C263.711 109.909 263.792 109.437 263.792 108.888C263.792 108.352 263.712 107.881 263.553 107.473C263.394 107.065 263.161 106.747 262.854 106.519C262.546 106.288 262.166 106.172 261.713 106.172C261.247 106.172 260.858 106.293 260.547 106.535C260.236 106.773 260.001 107.098 259.842 107.509C259.687 107.92 259.609 108.38 259.609 108.888C259.609 109.409 259.689 109.867 259.848 110.261C260.007 110.655 260.242 110.963 260.552 111.184C260.867 111.405 261.254 111.515 261.713 111.515ZM268.42 113.018C268.137 113.018 267.893 112.918 267.689 112.718C267.485 112.514 267.383 112.269 267.383 111.982C267.383 111.699 267.485 111.457 267.689 111.256C267.893 111.052 268.137 110.95 268.42 110.95C268.703 110.95 268.947 111.052 269.151 111.256C269.355 111.457 269.457 111.699 269.457 111.982C269.457 112.172 269.408 112.346 269.311 112.505C269.218 112.661 269.094 112.785 268.938 112.878C268.783 112.972 268.61 113.018 268.42 113.018ZM274.885 113.081C274.115 113.081 273.452 112.906 272.895 112.557C272.342 112.205 271.917 111.719 271.62 111.101C271.323 110.482 271.175 109.774 271.175 108.976C271.175 108.167 271.327 107.454 271.631 106.835C271.935 106.213 272.363 105.728 272.916 105.379C273.469 105.03 274.12 104.856 274.87 104.856C275.475 104.856 276.014 104.968 276.487 105.192C276.96 105.414 277.342 105.724 277.632 106.125C277.926 106.526 278.101 106.994 278.156 107.53H276.648C276.565 107.157 276.375 106.835 276.078 106.566C275.784 106.296 275.39 106.162 274.896 106.162C274.464 106.162 274.086 106.276 273.761 106.504C273.439 106.728 273.189 107.05 273.009 107.468C272.83 107.882 272.74 108.373 272.74 108.94C272.74 109.52 272.828 110.021 273.004 110.443C273.18 110.864 273.429 111.191 273.75 111.422C274.075 111.654 274.457 111.769 274.896 111.769C275.19 111.769 275.456 111.716 275.694 111.609C275.936 111.498 276.138 111.341 276.3 111.137C276.466 110.933 276.582 110.688 276.648 110.401H278.156C278.101 110.916 277.933 111.375 277.653 111.78C277.373 112.184 276.998 112.502 276.528 112.733C276.062 112.965 275.514 113.081 274.885 113.081ZM283.166 113.081C282.42 113.081 281.769 112.91 281.212 112.567C280.656 112.225 280.224 111.747 279.917 111.132C279.609 110.517 279.455 109.798 279.455 108.976C279.455 108.15 279.609 107.428 279.917 106.809C280.224 106.191 280.656 105.711 281.212 105.369C281.769 105.027 282.42 104.856 283.166 104.856C283.913 104.856 284.564 105.027 285.12 105.369C285.676 105.711 286.108 106.191 286.416 106.809C286.723 107.428 286.877 108.15 286.877 108.976C286.877 109.798 286.723 110.517 286.416 111.132C286.108 111.747 285.676 112.225 285.12 112.567C284.564 112.91 283.913 113.081 283.166 113.081ZM283.171 111.78C283.655 111.78 284.056 111.652 284.374 111.396C284.692 111.14 284.927 110.8 285.079 110.375C285.234 109.95 285.312 109.482 285.312 108.971C285.312 108.463 285.234 107.996 285.079 107.571C284.927 107.143 284.692 106.799 284.374 106.54C284.056 106.281 283.655 106.151 283.171 106.151C282.684 106.151 282.28 106.281 281.959 106.54C281.641 106.799 281.404 107.143 281.249 107.571C281.097 107.996 281.021 108.463 281.021 108.971C281.021 109.482 281.097 109.95 281.249 110.375C281.404 110.8 281.641 111.14 281.959 111.396C282.28 111.652 282.684 111.78 283.171 111.78ZM288.607 112.92V104.959H290.094V106.255H290.193C290.359 105.816 290.63 105.474 291.007 105.229C291.383 104.98 291.834 104.856 292.359 104.856C292.891 104.856 293.337 104.98 293.696 105.229C294.059 105.477 294.327 105.82 294.5 106.255H294.583C294.773 105.83 295.075 105.491 295.49 105.239C295.904 104.983 296.398 104.856 296.972 104.856C297.694 104.856 298.283 105.082 298.739 105.534C299.199 105.987 299.429 106.669 299.429 107.582V112.92H297.879V107.727C297.879 107.188 297.732 106.797 297.438 106.555C297.145 106.314 296.794 106.193 296.386 106.193C295.882 106.193 295.49 106.348 295.21 106.659C294.93 106.967 294.79 107.362 294.79 107.846V112.92H293.246V107.628C293.246 107.196 293.111 106.849 292.841 106.587C292.572 106.324 292.221 106.193 291.789 106.193C291.495 106.193 291.224 106.27 290.975 106.426C290.73 106.578 290.531 106.79 290.379 107.063C290.231 107.336 290.157 107.652 290.157 108.012V112.92H288.607Z" fill="white"/>
</svg>
