<svg width="338" height="125" viewBox="0 0 338 125" fill="none" xmlns="http://www.w3.org/2000/svg">
<path d="M42.384 68.525C42.384 68.525 22.2622 54.3415 17.9506 37.3332C15.5245 27.766 10.75 23.4682 7.03636 21.5369C6.62794 21.3207 6.28476 20.9992 6.04239 20.6057C5.80002 20.2123 5.66729 19.7612 5.65794 19.2992C5.64859 18.8372 5.76297 18.3811 5.98923 17.9781C6.21548 17.5752 6.54538 17.2401 6.94472 17.0076L34.9818 0.544557C35.5684 0.197577 36.2686 0.097081 36.9291 0.265057C40.1526 1.08523 49.4769 4.88139 51.9236 21.5712C54.9019 41.835 82.8657 55.8879 82.8657 55.8879" fill="#78A6FF"/>
<path d="M65.6879 43.8828H20.3905C27.2108 57.8303 42.384 68.5224 42.384 68.5224L82.8657 55.8761C76.6759 52.5876 70.9078 48.5604 65.6879 43.8828Z" fill="#78A6FF"/>
<path d="M87.7548 17.582H54.4392C52.8994 17.582 51.6511 18.8303 51.6511 20.3702V37.1975C51.6511 38.7373 52.8994 39.9856 54.4392 39.9856H87.7548C89.2946 39.9856 90.5429 38.7373 90.5429 37.1975V20.3702C90.5429 18.8303 89.2946 17.582 87.7548 17.582Z" fill="#1A54C4"/>
<path d="M82.2292 46.7422H14.9315C8.66839 46.7422 3.59113 51.8194 3.59113 58.0826V113.499C3.59113 119.762 8.66839 124.84 14.9315 124.84H82.2292C88.4923 124.84 93.5696 119.762 93.5696 113.499V58.0826C93.5696 51.8194 88.4923 46.7422 82.2292 46.7422Z" fill="#1A54C4"/>
<path d="M35.4448 73.8851H37.5102L39.9798 78.3511H40.0784L42.548 73.8851H44.6134L40.941 80.2144V83.9805H39.1172V80.2144L35.4448 73.8851ZM47.7226 84.1284C46.9832 84.1284 46.3424 83.9657 45.8002 83.6403C45.2579 83.315 44.8373 82.8599 44.5382 82.2749C44.2425 81.69 44.0946 81.0064 44.0946 80.2243C44.0946 79.4422 44.2425 78.757 44.5382 78.1687C44.8373 77.5805 45.2579 77.1237 45.8002 76.7984C46.3424 76.473 46.9832 76.3104 47.7226 76.3104C48.462 76.3104 49.1028 76.473 49.6451 76.7984C50.1873 77.1237 50.6063 77.5805 50.9021 78.1687C51.2011 78.757 51.3506 79.4422 51.3506 80.2243C51.3506 81.0064 51.2011 81.69 50.9021 82.2749C50.6063 82.8599 50.1873 83.315 49.6451 83.6403C49.1028 83.9657 48.462 84.1284 47.7226 84.1284ZM47.7325 82.6988C48.1334 82.6988 48.4686 82.5887 48.7381 82.3686C49.0075 82.1451 49.208 81.846 49.3395 81.4714C49.4742 81.0968 49.5416 80.6794 49.5416 80.2194C49.5416 79.756 49.4742 79.337 49.3395 78.9624C49.208 78.5844 49.0075 78.2838 48.7381 78.0603C48.4686 77.8368 48.1334 77.7251 47.7325 77.7251C47.3217 77.7251 46.9799 77.8368 46.7072 78.0603C46.4377 78.2838 46.2356 78.5844 46.1009 78.9624C45.9694 79.337 45.9037 79.756 45.9037 80.2194C45.9037 80.6794 45.9694 81.0968 46.1009 81.4714C46.2356 81.846 46.4377 82.1451 46.7072 82.3686C46.9799 82.5887 47.3217 82.6988 47.7325 82.6988ZM57.6911 80.7961V76.4089H59.4755V83.9805H57.7453V82.6347H57.6664C57.4955 83.0587 57.2145 83.4054 56.8235 83.6748C56.4357 83.9443 55.9576 84.0791 55.389 84.0791C54.8928 84.0791 54.4541 83.969 54.0729 83.7488C53.695 83.5253 53.3992 83.2016 53.1856 82.7777C52.972 82.3505 52.8652 81.8345 52.8652 81.2299V76.4089H54.6496V80.9538C54.6496 81.4336 54.7811 81.8148 55.044 82.0974C55.3069 82.3801 55.6519 82.5214 56.0791 82.5214C56.342 82.5214 56.5967 82.4573 56.8432 82.3291C57.0897 82.201 57.2918 82.0104 57.4495 81.7573C57.6105 81.501 57.6911 81.1806 57.6911 80.7961ZM61.3104 83.9805V76.4089H63.0407V77.6709H63.1195C63.2576 77.2338 63.4942 76.897 63.8294 76.6603C64.1678 76.4204 64.554 76.3005 64.9878 76.3005C65.0864 76.3005 65.1964 76.3054 65.318 76.3153C65.4429 76.3219 65.5464 76.3334 65.6286 76.3498V77.9913C65.553 77.965 65.4331 77.942 65.2687 77.9223C65.1077 77.8993 64.9516 77.8878 64.8004 77.8878C64.4751 77.8878 64.1826 77.9584 63.923 78.0997C63.6667 78.2377 63.4646 78.43 63.3167 78.6765C63.1688 78.9229 63.0949 79.2072 63.0949 79.5292V83.9805H61.3104ZM38.2595 97.9805L35.4103 87.8851H37.3771L39.196 95.3038H39.2897L41.2319 87.8851H43.0212L44.9683 95.3087H45.0571L46.876 87.8851H48.8428L45.9936 97.9805H44.1895L42.1685 90.897H42.0896L40.0636 97.9805H38.2595ZM51.4381 98.1333C50.9583 98.1333 50.5262 98.0478 50.1417 97.877C49.7605 97.7028 49.4582 97.4465 49.2347 97.108C49.0145 96.7695 48.9044 96.3521 48.9044 95.8559C48.9044 95.4287 48.9833 95.0754 49.1411 94.7961C49.2988 94.5168 49.514 94.2933 49.7868 94.1257C50.0596 93.9581 50.3668 93.8316 50.7086 93.7461C51.0537 93.6574 51.4102 93.5933 51.7783 93.5539C52.2219 93.5079 52.5818 93.4668 52.8578 93.4307C53.1338 93.3912 53.3343 93.3321 53.4592 93.2532C53.5874 93.171 53.6514 93.0445 53.6514 92.8736V92.8441C53.6514 92.4727 53.5413 92.1852 53.3212 91.9814C53.101 91.7777 52.7839 91.6758 52.3698 91.6758C51.9327 91.6758 51.586 91.7711 51.3297 91.9617C51.0767 92.1523 50.9058 92.3774 50.817 92.637L49.1509 92.4004C49.2824 91.9403 49.4993 91.5558 49.8016 91.2469C50.1039 90.9347 50.4736 90.7014 50.9107 90.547C51.3478 90.3892 51.8308 90.3104 52.3599 90.3104C52.7247 90.3104 53.0878 90.3531 53.4493 90.4385C53.8108 90.524 54.1411 90.6653 54.4401 90.8624C54.7392 91.0563 54.9791 91.3209 55.1598 91.6561C55.3439 91.9913 55.4359 92.4103 55.4359 92.9131V97.9805H53.7204V96.9404H53.6613C53.5528 97.1507 53.4 97.3479 53.2029 97.5319C53.009 97.7126 52.7641 97.8589 52.4684 97.9706C52.1759 98.0791 51.8325 98.1333 51.4381 98.1333ZM51.9015 96.8221C52.2597 96.8221 52.5703 96.7514 52.8332 96.6101C53.0961 96.4655 53.2982 96.2749 53.4395 96.0383C53.5841 95.8017 53.6564 95.5437 53.6564 95.2644V94.3722C53.6005 94.4182 53.5052 94.4609 53.3705 94.5003C53.239 94.5398 53.0911 94.5743 52.9268 94.6038C52.7625 94.6334 52.5998 94.6597 52.4388 94.6827C52.2778 94.7057 52.1381 94.7254 52.0198 94.7419C51.7536 94.778 51.5154 94.8372 51.305 94.9193C51.0947 95.0015 50.9288 95.1165 50.8072 95.2644C50.6856 95.409 50.6248 95.5963 50.6248 95.8263C50.6248 96.155 50.7447 96.4031 50.9846 96.5707C51.2245 96.7383 51.5302 96.8221 51.9015 96.8221ZM59.0146 87.8851V97.9805H57.2302V87.8851H59.0146ZM62.634 87.8851V97.9805H60.8496V87.8851H62.634ZM67.8209 98.1284C67.0618 98.1284 66.4062 97.9706 65.8541 97.6551C65.3053 97.3364 64.883 96.8861 64.5873 96.3045C64.2915 95.7195 64.1436 95.0311 64.1436 94.2391C64.1436 93.4602 64.2915 92.7767 64.5873 92.1885C64.8863 91.5969 65.3037 91.1369 65.8393 90.8082C66.375 90.4763 67.0043 90.3104 67.7273 90.3104C68.1939 90.3104 68.6343 90.3859 69.0483 90.5371C69.4657 90.685 69.8338 90.915 70.1525 91.2272C70.4746 91.5394 70.7276 91.9371 70.9116 92.4201C71.0957 92.8999 71.1877 93.4717 71.1877 94.1356V94.6827H64.9816V93.4799H69.4772C69.4739 93.1382 69.4 92.8342 69.2554 92.568C69.1108 92.2985 68.9087 92.0866 68.6491 91.9321C68.3927 91.7777 68.0937 91.7004 67.7519 91.7004C67.3871 91.7004 67.0667 91.7892 66.7907 91.9666C66.5146 92.1408 66.2994 92.3708 66.1449 92.6567C65.9938 92.9394 65.9165 93.2499 65.9133 93.5884V94.6384C65.9133 95.0787 65.9938 95.4566 66.1548 95.7721C66.3158 96.0843 66.5409 96.3242 66.8301 96.4918C67.1193 96.6561 67.4578 96.7383 67.8456 96.7383C68.1052 96.7383 68.3402 96.7021 68.5505 96.6298C68.7608 96.5542 68.9432 96.4441 69.0976 96.2996C69.2521 96.155 69.3687 95.9759 69.4476 95.7622L71.1137 95.9496C71.0086 96.3899 70.8081 96.7744 70.5124 97.103C70.2199 97.4284 69.8453 97.6814 69.3885 97.8622C68.9317 98.0396 68.4092 98.1284 67.8209 98.1284ZM76.4781 90.4089V91.7892H72.1255V90.4089H76.4781ZM73.2001 88.5949H74.9845V95.7031C74.9845 95.943 75.0207 96.127 75.093 96.2552C75.1686 96.3801 75.2672 96.4655 75.3887 96.5115C75.5103 96.5575 75.6451 96.5805 75.793 96.5805C75.9047 96.5805 76.0066 96.5723 76.0986 96.5559C76.1939 96.5394 76.2662 96.5247 76.3155 96.5115L76.6162 97.9065C76.5209 97.9394 76.3845 97.9755 76.207 98.015C76.0329 98.0544 75.8192 98.0774 75.5662 98.084C75.1193 98.0971 74.7167 98.0298 74.3585 97.8819C74.0003 97.7307 73.716 97.4974 73.5057 97.1819C73.2987 96.8664 73.1968 96.4721 73.2001 95.9989V88.5949Z" fill="white"/>
<path d="M28.535 77.5488H3.13255C1.81286 77.5488 0.743042 78.6186 0.743042 79.9383V92.722C0.743042 94.0417 1.81286 95.1115 3.13255 95.1115H28.535C29.8547 95.1115 30.9245 94.0417 30.9245 92.722V79.9383C30.9245 78.6186 29.8547 77.5488 28.535 77.5488Z" fill="#3A7BFA"/>
<path d="M22.2303 89.726C24.1054 89.726 25.6255 88.2059 25.6255 86.3308C25.6255 84.4556 24.1054 82.9355 22.2303 82.9355C20.3551 82.9355 18.835 84.4556 18.835 86.3308C18.835 88.2059 20.3551 89.726 22.2303 89.726Z" fill="#F8F8F8"/>
<path d="M74.4188 0.0507812H41.1033C39.5635 0.0507812 38.3152 1.29907 38.3152 2.83891V19.6662C38.3152 21.206 39.5635 22.4543 41.1033 22.4543H74.4188C75.9587 22.4543 77.207 21.206 77.207 19.6662V2.83891C77.207 1.29907 75.9587 0.0507812 74.4188 0.0507812Z" fill="#B8D0FF"/>
<path d="M274.577 68.525C274.577 68.525 254.456 54.3415 250.144 37.3332C247.718 27.766 242.943 23.4682 239.23 21.5369C238.821 21.3207 238.478 20.9992 238.236 20.6057C237.993 20.2123 237.861 19.7612 237.851 19.2992C237.842 18.8372 237.956 18.3811 238.183 17.9781C238.409 17.5752 238.739 17.2401 239.138 17.0076L267.175 0.544557C267.762 0.197577 268.462 0.097081 269.123 0.265057C272.346 1.08523 281.67 4.88139 284.117 21.5712C287.095 41.835 315.059 55.8879 315.059 55.8879" fill="#78A6FF"/>
<path d="M319.948 17.582H286.633C285.093 17.582 283.844 18.8303 283.844 20.3702V37.1975C283.844 38.7373 285.093 39.9856 286.633 39.9856H319.948C321.488 39.9856 322.736 38.7373 322.736 37.1975V20.3702C322.736 18.8303 321.488 17.582 319.948 17.582Z" fill="#B8D0FF"/>
<path d="M314.175 46.7422H246.877C240.614 46.7422 235.537 51.8194 235.537 58.0826V113.499C235.537 119.762 240.614 124.84 246.877 124.84H314.175C320.438 124.84 325.515 119.762 325.515 113.499V58.0826C325.515 51.8194 320.438 46.7422 314.175 46.7422Z" fill="#D13333"/>
<path d="M268.328 83.9805V73.8851H270.157V78.1589H274.835V73.8851H276.669V83.9805H274.835V79.6919H270.157V83.9805H268.328ZM280.758 84.1333C280.278 84.1333 279.846 84.0478 279.461 83.877C279.08 83.7028 278.778 83.4465 278.554 83.108C278.334 82.7695 278.224 82.3521 278.224 81.8559C278.224 81.4287 278.303 81.0754 278.461 80.7961C278.618 80.5168 278.834 80.2933 279.106 80.1257C279.379 79.9581 279.686 79.8316 280.028 79.7461C280.373 79.6574 280.73 79.5933 281.098 79.5539C281.541 79.5079 281.901 79.4668 282.177 79.4307C282.453 79.3912 282.654 79.3321 282.779 79.2532C282.907 79.171 282.971 79.0445 282.971 78.8736V78.8441C282.971 78.4727 282.861 78.1852 282.641 77.9814C282.421 77.7777 282.103 77.6758 281.689 77.6758C281.252 77.6758 280.906 77.7711 280.649 77.9617C280.396 78.1523 280.225 78.3774 280.137 78.637L278.47 78.4004C278.602 77.9403 278.819 77.5558 279.121 77.2469C279.423 76.9347 279.793 76.7014 280.23 76.547C280.667 76.3892 281.15 76.3104 281.679 76.3104C282.044 76.3104 282.407 76.3531 282.769 76.4385C283.13 76.524 283.461 76.6653 283.76 76.8624C284.059 77.0563 284.299 77.3209 284.479 77.6561C284.663 77.9913 284.755 78.4103 284.755 78.9131V83.9805H283.04V82.9404H282.981C282.872 83.1507 282.72 83.3479 282.522 83.5319C282.329 83.7126 282.084 83.8589 281.788 83.9706C281.495 84.0791 281.152 84.1333 280.758 84.1333ZM281.221 82.8221C281.579 82.8221 281.89 82.7514 282.153 82.6101C282.416 82.4655 282.618 82.2749 282.759 82.0383C282.904 81.8017 282.976 81.5437 282.976 81.2644V80.3722C282.92 80.4182 282.825 80.4609 282.69 80.5003C282.559 80.5398 282.411 80.5743 282.246 80.6038C282.082 80.6334 281.919 80.6597 281.758 80.6827C281.597 80.7057 281.458 80.7254 281.339 80.7419C281.073 80.778 280.835 80.8372 280.625 80.9193C280.414 81.0015 280.248 81.1165 280.127 81.2644C280.005 81.409 279.944 81.5963 279.944 81.8263C279.944 82.155 280.064 82.4031 280.304 82.5707C280.544 82.7383 280.85 82.8221 281.221 82.8221ZM289.852 84.1284C289.097 84.1284 288.448 83.9624 287.905 83.6305C287.366 83.2986 286.951 82.8401 286.658 82.2552C286.369 81.6669 286.224 80.99 286.224 80.2243C286.224 79.4553 286.372 78.7767 286.668 78.1885C286.964 77.5969 287.381 77.1369 287.92 76.8082C288.462 76.4763 289.103 76.3104 289.843 76.3104C290.457 76.3104 291.001 76.4237 291.474 76.6505C291.951 76.874 292.33 77.1911 292.613 77.6019C292.895 78.0094 293.056 78.4859 293.096 79.0314H291.39C291.321 78.6666 291.157 78.3626 290.897 78.1194C290.641 77.873 290.298 77.7497 289.867 77.7497C289.502 77.7497 289.182 77.8483 288.906 78.0455C288.63 78.2394 288.415 78.5187 288.26 78.8835C288.109 79.2483 288.033 79.6853 288.033 80.1947C288.033 80.7106 288.109 81.1543 288.26 81.5256C288.411 81.8937 288.623 82.178 288.896 82.3784C289.172 82.5756 289.496 82.6742 289.867 82.6742C290.13 82.6742 290.365 82.6249 290.572 82.5263C290.782 82.4244 290.958 82.2782 291.1 82.0876C291.241 81.897 291.338 81.6653 291.39 81.3925H293.096C293.053 81.9282 292.895 82.4031 292.623 82.8171C292.35 83.2279 291.979 83.55 291.509 83.7833C291.039 84.0133 290.487 84.1284 289.852 84.1284ZM296.188 81.6045L296.183 79.4504H296.469L299.19 76.4089H301.275L297.928 80.1356H297.558L296.188 81.6045ZM294.561 83.9805V73.8851H296.346V83.9805H294.561ZM299.313 83.9805L296.848 80.5348L298.051 79.2778L301.447 83.9805H299.313ZM305.504 84.1284C304.745 84.1284 304.09 83.9706 303.538 83.6551C302.989 83.3364 302.566 82.8861 302.271 82.3045C301.975 81.7195 301.827 81.0311 301.827 80.2391C301.827 79.4602 301.975 78.7767 302.271 78.1885C302.57 77.5969 302.987 77.1369 303.523 76.8082C304.058 76.4763 304.688 76.3104 305.411 76.3104C305.877 76.3104 306.318 76.3859 306.732 76.5371C307.149 76.685 307.517 76.915 307.836 77.2272C308.158 77.5394 308.411 77.9371 308.595 78.4201C308.779 78.8999 308.871 79.4717 308.871 80.1356V80.6827H302.665V79.4799H307.161C307.157 79.1382 307.083 78.8342 306.939 78.568C306.794 78.2985 306.592 78.0866 306.333 77.9321C306.076 77.7777 305.777 77.7004 305.435 77.7004C305.071 77.7004 304.75 77.7892 304.474 77.9666C304.198 78.1408 303.983 78.3708 303.828 78.6567C303.677 78.9394 303.6 79.2499 303.597 79.5884V80.6384C303.597 81.0787 303.677 81.4566 303.838 81.7721C303.999 82.0843 304.224 82.3242 304.514 82.4918C304.803 82.6561 305.141 82.7383 305.529 82.7383C305.789 82.7383 306.024 82.7021 306.234 82.6298C306.444 82.5542 306.627 82.4441 306.781 82.2996C306.936 82.155 307.052 81.9759 307.131 81.7622L308.797 81.9496C308.692 82.3899 308.492 82.7744 308.196 83.103C307.903 83.4284 307.529 83.6814 307.072 83.8622C306.615 84.0396 306.093 84.1284 305.504 84.1284ZM310.381 83.9805V76.4089H312.111V77.6709H312.19C312.328 77.2338 312.564 76.897 312.9 76.6603C313.238 76.4204 313.624 76.3005 314.058 76.3005C314.157 76.3005 314.267 76.3054 314.388 76.3153C314.513 76.3219 314.617 76.3334 314.699 76.3498V77.9913C314.623 77.965 314.503 77.942 314.339 77.9223C314.178 77.8993 314.022 77.8878 313.871 77.8878C313.545 77.8878 313.253 77.9584 312.993 78.0997C312.737 78.2377 312.535 78.43 312.387 78.6765C312.239 78.9229 312.165 79.2072 312.165 79.5292V83.9805H310.381ZM270.453 97.9805L267.604 87.8851H269.57L271.389 95.3038H271.483L273.425 87.8851H275.215L277.162 95.3087H277.25L279.069 87.8851H281.036L278.187 97.9805H276.383L274.362 90.897H274.283L272.257 97.9805H270.453ZM283.632 98.1333C283.152 98.1333 282.72 98.0478 282.335 97.877C281.954 97.7028 281.652 97.4465 281.428 97.108C281.208 96.7695 281.098 96.3521 281.098 95.8559C281.098 95.4287 281.177 95.0754 281.334 94.7961C281.492 94.5168 281.707 94.2933 281.98 94.1257C282.253 93.9581 282.56 93.8316 282.902 93.7461C283.247 93.6574 283.604 93.5933 283.972 93.5539C284.415 93.5079 284.775 93.4668 285.051 93.4307C285.327 93.3912 285.528 93.3321 285.653 93.2532C285.781 93.171 285.845 93.0445 285.845 92.8736V92.8441C285.845 92.4727 285.735 92.1852 285.515 91.9814C285.294 91.7777 284.977 91.6758 284.563 91.6758C284.126 91.6758 283.779 91.7711 283.523 91.9617C283.27 92.1523 283.099 92.3774 283.01 92.637L281.344 92.4004C281.476 91.9403 281.693 91.5558 281.995 91.2469C282.297 90.9347 282.667 90.7014 283.104 90.547C283.541 90.3892 284.024 90.3104 284.553 90.3104C284.918 90.3104 285.281 90.3531 285.643 90.4385C286.004 90.524 286.334 90.6653 286.633 90.8624C286.933 91.0563 287.172 91.3209 287.353 91.6561C287.537 91.9913 287.629 92.4103 287.629 92.9131V97.9805H285.914V96.9404H285.855C285.746 97.1507 285.593 97.3479 285.396 97.5319C285.202 97.7126 284.958 97.8589 284.662 97.9706C284.369 98.0791 284.026 98.1333 283.632 98.1333ZM284.095 96.8221C284.453 96.8221 284.764 96.7514 285.027 96.6101C285.289 96.4655 285.492 96.2749 285.633 96.0383C285.777 95.8017 285.85 95.5437 285.85 95.2644V94.3722C285.794 94.4182 285.699 94.4609 285.564 94.5003C285.432 94.5398 285.284 94.5743 285.12 94.6038C284.956 94.6334 284.793 94.6597 284.632 94.6827C284.471 94.7057 284.331 94.7254 284.213 94.7419C283.947 94.778 283.709 94.8372 283.498 94.9193C283.288 95.0015 283.122 95.1165 283.001 95.2644C282.879 95.409 282.818 95.5963 282.818 95.8263C282.818 96.155 282.938 96.4031 283.178 96.5707C283.418 96.7383 283.724 96.8221 284.095 96.8221ZM291.208 87.8851V97.9805H289.424V87.8851H291.208ZM294.827 87.8851V97.9805H293.043V87.8851H294.827ZM300.014 98.1284C299.255 98.1284 298.6 97.9706 298.047 97.6551C297.499 97.3364 297.076 96.8861 296.781 96.3045C296.485 95.7195 296.337 95.0311 296.337 94.2391C296.337 93.4602 296.485 92.7767 296.781 92.1885C297.08 91.5969 297.497 91.1369 298.033 90.8082C298.568 90.4763 299.198 90.3104 299.921 90.3104C300.387 90.3104 300.828 90.3859 301.242 90.5371C301.659 90.685 302.027 90.915 302.346 91.2272C302.668 91.5394 302.921 91.9371 303.105 92.4201C303.289 92.8999 303.381 93.4717 303.381 94.1356V94.6827H297.175V93.4799H301.671C301.667 93.1382 301.593 92.8342 301.449 92.568C301.304 92.2985 301.102 92.0866 300.842 91.9321C300.586 91.7777 300.287 91.7004 299.945 91.7004C299.58 91.7004 299.26 91.7892 298.984 91.9666C298.708 92.1408 298.493 92.3708 298.338 92.6567C298.187 92.9394 298.11 93.2499 298.107 93.5884V94.6384C298.107 95.0787 298.187 95.4566 298.348 95.7721C298.509 96.0843 298.734 96.3242 299.023 96.4918C299.313 96.6561 299.651 96.7383 300.039 96.7383C300.299 96.7383 300.534 96.7021 300.744 96.6298C300.954 96.5542 301.137 96.4441 301.291 96.2996C301.445 96.155 301.562 95.9759 301.641 95.7622L303.307 95.9496C303.202 96.3899 303.001 96.7744 302.706 97.103C302.413 97.4284 302.039 97.6814 301.582 97.8622C301.125 98.0396 300.603 98.1284 300.014 98.1284ZM308.671 90.4089V91.7892H304.319V90.4089H308.671ZM305.393 88.5949H307.178V95.7031C307.178 95.943 307.214 96.127 307.286 96.2552C307.362 96.3801 307.461 96.4655 307.582 96.5115C307.704 96.5575 307.838 96.5805 307.986 96.5805C308.098 96.5805 308.2 96.5723 308.292 96.5559C308.387 96.5394 308.46 96.5247 308.509 96.5115L308.81 97.9065C308.714 97.9394 308.578 97.9755 308.4 98.015C308.226 98.0544 308.013 98.0774 307.76 98.084C307.313 98.0971 306.91 98.0298 306.552 97.8819C306.194 97.7307 305.909 97.4974 305.699 97.1819C305.492 96.8664 305.39 96.4721 305.393 95.9989V88.5949Z" fill="white"/>
<path d="M260.728 77.5488H235.326C234.006 77.5488 232.936 78.6186 232.936 79.9383V92.722C232.936 94.0417 234.006 95.1115 235.326 95.1115H260.728C262.048 95.1115 263.118 94.0417 263.118 92.722V79.9383C263.118 78.6186 262.048 77.5488 260.728 77.5488Z" fill="#F97171"/>
<path d="M254.424 89.726C256.299 89.726 257.819 88.2059 257.819 86.3308C257.819 84.4556 256.299 82.9355 254.424 82.9355C252.548 82.9355 251.028 84.4556 251.028 86.3308C251.028 88.2059 252.548 89.726 254.424 89.726Z" fill="#FFE2D9"/>
<path d="M306.612 0.0507812H273.297C271.757 0.0507812 270.509 1.29907 270.509 2.83891V19.6662C270.509 21.206 271.757 22.4543 273.297 22.4543H306.612C308.152 22.4543 309.4 21.206 309.4 19.6662V2.83891C309.4 1.29907 308.152 0.0507812 306.612 0.0507812Z" fill="#1A54C4"/>
<path d="M102.652 59.9912C122.632 39.3798 174.96 10.5239 224.427 59.9912" stroke="#F8F8F8" stroke-width="3.78576" stroke-linecap="round"/>
<path d="M102.652 59.9914C109.009 53.4333 118.641 46.0405 130.414 40.6016" stroke="#1A54C4" stroke-width="3.78576" stroke-linecap="round"/>
</svg>
