<svg width="266" height="148" viewBox="0 0 266 148" fill="none" xmlns="http://www.w3.org/2000/svg">
<path d="M265.409 10.5077C265.409 4.97104 260.908 0.470703 255.372 0.470703H10.5789C5.04221 0.470703 0.54187 4.97104 0.54187 10.5077V18.3017H265.409V10.5077Z" fill="#E1E1E1"/>
<path d="M0.3573 18.3027V137.001C0.3573 142.538 4.85764 147.038 10.3943 147.038H255.187C260.724 147.038 265.224 142.538 265.224 137.001V18.3027H0.3573Z" fill="#F2F2F2"/>
<path d="M19.8776 9.32966C19.8776 11.8567 17.8191 13.9152 15.2921 13.9152C12.7651 13.9152 10.7066 11.8567 10.7066 9.32966C10.7066 6.80265 12.7651 4.74414 15.2921 4.74414C17.8191 4.74414 19.8776 6.80265 19.8776 9.32966Z" fill="#ED534F"/>
<path d="M36.3884 9.32966C36.3884 11.8567 34.3299 13.9152 31.8029 13.9152C29.2759 13.9152 27.2173 11.8567 27.2173 9.32966C27.2173 6.80265 29.2759 4.74414 31.8029 4.74414C34.3299 4.74414 36.3884 6.80265 36.3884 9.32966Z" fill="#FFD54F"/>
<path d="M52.9133 9.32966C52.9133 11.8567 50.8548 13.9152 48.3278 13.9152C45.8008 13.9152 43.7422 11.8567 43.7422 9.32966C43.7422 6.80265 45.8008 4.74414 48.3278 4.74414C50.8548 4.74414 52.9133 6.80265 52.9133 9.32966Z" fill="#4CAF50"/>
<rect x="10.5911" y="67.8691" width="243.59" height="31.2326" rx="8.51799" fill="#45D640"/>
<path fill-rule="evenodd" clip-rule="evenodd" d="M26.9173 81.1195C26.9173 79.1593 28.5063 77.5703 30.4664 77.5703C32.4266 77.5703 34.0156 79.1593 34.0156 81.1195V81.7999C34.1828 81.8366 34.3432 81.8899 34.4983 81.9689C34.9435 82.1957 35.3054 82.5577 35.5323 83.0029C35.6786 83.29 35.7369 83.5957 35.764 83.9282C35.7902 84.2483 35.7902 84.6412 35.7902 85.1174V85.9944C35.7902 86.4706 35.7902 86.8636 35.764 87.1837C35.7369 87.5162 35.6786 87.8218 35.5323 88.109C35.3054 88.5541 34.9435 88.9161 34.4983 89.1429C34.2112 89.2892 33.9055 89.3476 33.573 89.3747C33.2529 89.4008 32.8599 89.4008 32.3838 89.4008H28.5491C28.073 89.4008 27.68 89.4008 27.3598 89.3747C27.0274 89.3476 26.7217 89.2892 26.4346 89.1429C25.9894 88.9161 25.6274 88.5541 25.4006 88.109C25.2543 87.8218 25.196 87.5162 25.1688 87.1837C25.1427 86.8636 25.1427 86.4706 25.1427 85.9944V85.1174C25.1427 84.6412 25.1427 84.2483 25.1688 83.9282C25.196 83.5957 25.2543 83.29 25.4006 83.0029C25.6274 82.5577 25.9894 82.1957 26.4346 81.9689C26.5897 81.8899 26.7501 81.8366 26.9173 81.7999V81.1195ZM32.8325 81.1195V81.712H28.1003V81.1195C28.1003 79.8127 29.1597 78.7534 30.4664 78.7534C31.7732 78.7534 32.8325 79.8127 32.8325 81.1195ZM31.058 84.9644C31.058 84.6377 30.7931 84.3729 30.4664 84.3729C30.1397 84.3729 29.8749 84.6377 29.8749 84.9644V86.1475C29.8749 86.4742 30.1397 86.739 30.4664 86.739C30.7931 86.739 31.058 86.4742 31.058 86.1475V84.9644Z" fill="white"/>
<path d="M41.2559 86.9863V78.5819H42.5506V81.4553C42.9822 80.9329 43.6863 80.6262 44.4927 80.6262C45.8896 80.6262 46.9799 81.5462 46.9799 83.2952V86.9863H45.6966V83.4883C45.6966 82.3412 45.0719 81.7506 44.1293 81.7506C43.1752 81.7506 42.5506 82.3412 42.5506 83.4883V86.9863H41.2559ZM48.8359 85.2487V81.7847H48.0977V80.7284H48.8359V79.1725H50.142V80.7284H51.6639V81.7847H50.142V85.2487C50.142 85.7143 50.3237 85.9074 50.8688 85.9074H51.6639V86.9863H50.6417C49.5287 86.9863 48.8359 86.5207 48.8359 85.2487ZM53.0616 85.2487V81.7847H52.3234V80.7284H53.0616V79.1725H54.3677V80.7284H55.8896V81.7847H54.3677V85.2487C54.3677 85.7143 54.5494 85.9074 55.0946 85.9074H55.8896V86.9863H54.8674C53.7544 86.9863 53.0616 86.5207 53.0616 85.2487ZM58.3776 81.6484C58.7751 81.126 59.5361 80.6262 60.5582 80.6262C62.205 80.6262 63.4998 81.8983 63.4998 83.829C63.4998 85.7597 62.205 87.0885 60.5582 87.0885C59.5247 87.0885 58.7865 86.5661 58.3776 86.0777V89.9619H57.0829V80.7284H58.3776V81.6484ZM62.1823 83.829C62.1823 82.4775 61.251 81.7506 60.2743 81.7506C59.3089 81.7506 58.3776 82.5115 58.3776 83.8517C58.3776 85.2032 59.3089 85.9642 60.2743 85.9642C61.251 85.9642 62.1823 85.1805 62.1823 83.829ZM69.448 85.2373C69.448 86.2935 68.528 87.0885 67.0516 87.0885C65.5524 87.0885 64.4962 86.2027 64.4394 85.0669H65.7796C65.825 85.578 66.3134 85.9982 67.0289 85.9982C67.7785 85.9982 68.176 85.6802 68.176 85.2487C68.176 84.0221 64.5416 84.7262 64.5416 82.432C64.5416 81.4326 65.4729 80.6262 66.9494 80.6262C68.369 80.6262 69.3003 81.3872 69.3685 82.6365H68.0738C68.0283 82.0913 67.6081 81.7165 66.9039 81.7165C66.2112 81.7165 65.8477 82.0005 65.8477 82.4207C65.8477 83.6813 69.3798 82.9772 69.448 85.2373ZM72.1871 86.2367C72.1871 86.7024 71.8237 87.0658 71.3694 87.0658C70.9038 87.0658 70.5403 86.7024 70.5403 86.2367C70.5403 85.7711 70.9038 85.4077 71.3694 85.4077C71.8237 85.4077 72.1871 85.7711 72.1871 86.2367ZM72.1871 81.4667C72.1871 81.9323 71.8237 82.2958 71.3694 82.2958C70.9038 82.2958 70.5403 81.9323 70.5403 81.4667C70.5403 81.001 70.9038 80.6376 71.3694 80.6376C71.8237 80.6376 72.1871 81.001 72.1871 81.4667ZM73.4718 88.9739L76.5497 76.265H77.8331L74.7439 88.9739H73.4718ZM79.3058 88.9739L82.3836 76.265H83.667L80.5778 88.9739H79.3058ZM86.5139 86.9863L84.5605 80.7284H85.8779L87.184 85.7597L88.5128 80.7284H89.8644L91.1364 85.737L92.4311 80.7284H93.7031L91.761 86.9863H90.3982L89.1375 82.3639L87.8768 86.9863H86.5139ZM95.886 86.9863L93.9325 80.7284H95.2499L96.556 85.7597L97.8848 80.7284H99.2364L100.508 85.737L101.803 80.7284H103.075L101.133 86.9863H99.7702L98.5095 82.3639L97.2488 86.9863H95.886ZM105.258 86.9863L103.304 80.7284H104.622L105.928 85.7597L107.257 80.7284H108.608L109.88 85.737L111.175 80.7284H112.447L110.505 86.9863H109.142L107.881 82.3639L106.621 86.9863H105.258ZM114.755 86.2367C114.755 86.7024 114.391 87.0658 113.937 87.0658C113.472 87.0658 113.108 86.7024 113.108 86.2367C113.108 85.7711 113.472 85.4077 113.937 85.4077C114.391 85.4077 114.755 85.7711 114.755 86.2367ZM116.359 85.2487V81.7847H115.62V80.7284H116.359V79.1725H117.665V80.7284H119.187V81.7847H117.665V85.2487C117.665 85.7143 117.846 85.9074 118.392 85.9074H119.187V86.9863H118.164C117.051 86.9863 116.359 86.5207 116.359 85.2487ZM121.675 83.6927V86.9863H120.38V80.7284H121.675V81.637C122.038 81.0124 122.663 80.6262 123.549 80.6262V81.9664H123.219C122.265 81.9664 121.675 82.3639 121.675 83.6927ZM130.406 80.7284V86.9863H129.111V86.2367C128.702 86.7705 127.998 87.0772 127.26 87.0772C125.795 87.0772 124.682 86.1572 124.682 84.4082V80.7284H125.965V84.2151C125.965 85.3622 126.59 85.9528 127.533 85.9528C128.487 85.9528 129.111 85.3622 129.111 84.2151V80.7284H130.406ZM136.782 85.2373C136.782 86.2935 135.862 87.0885 134.386 87.0885C132.887 87.0885 131.83 86.2027 131.774 85.0669H133.114C133.159 85.578 133.648 85.9982 134.363 85.9982C135.113 85.9982 135.51 85.6802 135.51 85.2487C135.51 84.0221 131.876 84.7262 131.876 82.432C131.876 81.4326 132.807 80.6262 134.284 80.6262C135.703 80.6262 136.635 81.3872 136.703 82.6365H135.408C135.363 82.0913 134.942 81.7165 134.238 81.7165C133.545 81.7165 133.182 82.0005 133.182 82.4207C133.182 83.6813 136.714 82.9772 136.782 85.2373ZM138.386 85.2487V81.7847H137.647V80.7284H138.386V79.1725H139.692V80.7284H141.214V81.7847H139.692V85.2487C139.692 85.7143 139.873 85.9074 140.419 85.9074H141.214V86.9863H140.191C139.078 86.9863 138.386 86.5207 138.386 85.2487ZM145.042 81.7165C144.167 81.7165 143.463 82.3071 143.327 83.2952H146.791C146.768 82.3298 146.007 81.7165 145.042 81.7165ZM147.972 85.1237C147.62 86.214 146.632 87.0885 145.099 87.0885C143.304 87.0885 141.975 85.8165 141.975 83.8517C141.975 81.8869 143.247 80.6262 145.099 80.6262C146.882 80.6262 148.142 81.8642 148.142 83.7041C148.142 83.9199 148.131 84.1243 148.097 84.3401H143.316C143.406 85.3736 144.145 85.9982 145.099 85.9982C145.894 85.9982 146.337 85.6121 146.575 85.1237H147.972ZM148.985 83.829C148.985 81.8983 150.291 80.6262 151.949 80.6262C152.767 80.6262 153.63 81.0124 154.107 81.603V78.5819H155.413V86.9863H154.107V86.0437C153.71 86.6115 152.96 87.0885 151.938 87.0885C150.291 87.0885 148.985 85.7597 148.985 83.829ZM154.107 83.8517C154.107 82.5115 153.187 81.7506 152.21 81.7506C151.245 81.7506 150.314 82.4775 150.314 83.829C150.314 85.1805 151.245 85.9642 152.21 85.9642C153.187 85.9642 154.107 85.2032 154.107 83.8517ZM156.682 83.829C156.682 81.8983 157.988 80.6262 159.635 80.6262C160.657 80.6262 161.418 81.1032 161.804 81.637V80.7284H163.11V87.0885C163.11 88.7921 162.009 90.0755 160.055 90.0755C158.386 90.0755 157.148 89.2464 156.989 87.8608H158.272C158.465 88.5082 159.158 88.9511 160.055 88.9511C161.055 88.9511 161.804 88.3378 161.804 87.0885V86.0437C161.407 86.5775 160.657 87.0885 159.635 87.0885C157.988 87.0885 156.682 85.7597 156.682 83.829ZM161.804 83.8517C161.804 82.5115 160.884 81.7506 159.908 81.7506C158.942 81.7506 158.011 82.4775 158.011 83.829C158.011 85.1805 158.942 85.9642 159.908 85.9642C160.884 85.9642 161.804 85.2032 161.804 83.8517ZM164.379 83.829C164.379 81.8983 165.686 80.6262 167.332 80.6262C168.389 80.6262 169.115 81.126 169.502 81.637V80.7284H170.808V86.9863H169.502V86.055C169.104 86.5888 168.354 87.0885 167.31 87.0885C165.686 87.0885 164.379 85.7597 164.379 83.829ZM169.502 83.8517C169.502 82.5115 168.582 81.7506 167.605 81.7506C166.64 81.7506 165.708 82.4775 165.708 83.829C165.708 85.1805 166.64 85.9642 167.605 85.9642C168.582 85.9642 169.502 85.2032 169.502 83.8517ZM181.378 86.9863V83.4883C181.378 82.3412 180.754 81.7506 179.811 81.7506C178.857 81.7506 178.232 82.3412 178.232 83.4883V86.9863H176.949V83.4883C176.949 82.3412 176.324 81.7506 175.382 81.7506C174.428 81.7506 173.803 82.3412 173.803 83.4883V86.9863H172.508V80.7284H173.803V81.444C174.223 80.9329 174.905 80.6262 175.654 80.6262C176.642 80.6262 177.471 81.0465 177.903 81.8642C178.289 81.1032 179.175 80.6262 180.084 80.6262C181.549 80.6262 182.662 81.5462 182.662 83.2952V86.9863H181.378ZM185.604 81.6597C186.013 81.0919 186.796 80.6262 187.785 80.6262C189.443 80.6262 190.726 81.8983 190.726 83.829C190.726 85.7597 189.431 87.0885 187.785 87.0885C186.751 87.0885 186.013 86.6229 185.604 86.0777V86.9863H184.309V78.5819H185.604V81.6597ZM189.409 83.829C189.409 82.4775 188.477 81.7506 187.501 81.7506C186.535 81.7506 185.604 82.5115 185.604 83.8517C185.604 85.2032 186.535 85.9642 187.501 85.9642C188.477 85.9642 189.409 85.1805 189.409 83.829ZM192.006 86.9863V78.5819H193.301V86.9863H192.006ZM195.001 86.9863V80.7284H196.296V86.9863H195.001ZM195.66 79.8994C195.194 79.8994 194.831 79.5359 194.831 79.0703C194.831 78.6046 195.194 78.2412 195.66 78.2412C196.114 78.2412 196.478 78.6046 196.478 79.0703C196.478 79.5359 196.114 79.8994 195.66 79.8994ZM202.436 86.9863V83.4883C202.436 82.3412 201.812 81.7506 200.869 81.7506C199.915 81.7506 199.29 82.3412 199.29 83.4883V86.9863H197.996V80.7284H199.29V81.444C199.711 80.9329 200.403 80.6262 201.153 80.6262C202.618 80.6262 203.72 81.5462 203.72 83.2952V86.9863H202.436ZM204.94 83.829C204.94 81.8983 206.246 80.6262 207.893 80.6262C208.915 80.6262 209.676 81.1032 210.062 81.637V80.7284H211.368V87.0885C211.368 88.7921 210.266 90.0755 208.313 90.0755C206.643 90.0755 205.405 89.2464 205.246 87.8608H206.53C206.723 88.5082 207.416 88.9511 208.313 88.9511C209.312 88.9511 210.062 88.3378 210.062 87.0885V86.0437C209.664 86.5775 208.915 87.0885 207.893 87.0885C206.246 87.0885 204.94 85.7597 204.94 83.829ZM210.062 83.8517C210.062 82.5115 209.142 81.7506 208.165 81.7506C207.2 81.7506 206.268 82.4775 206.268 83.829C206.268 85.1805 207.2 85.9642 208.165 85.9642C209.142 85.9642 210.062 85.2032 210.062 83.8517ZM214.409 86.2367C214.409 86.7024 214.045 87.0658 213.591 87.0658C213.125 87.0658 212.762 86.7024 212.762 86.2367C212.762 85.7711 213.125 85.4077 213.591 85.4077C214.045 85.4077 214.409 85.7711 214.409 86.2367ZM215.376 83.8517C215.376 81.8983 216.648 80.6262 218.443 80.6262C219.976 80.6262 220.976 81.3872 221.328 82.7046H219.931C219.715 82.1027 219.215 81.7165 218.443 81.7165C217.398 81.7165 216.705 82.4888 216.705 83.8517C216.705 85.2259 217.398 85.9982 218.443 85.9982C219.215 85.9982 219.692 85.6575 219.931 85.0102H221.328C220.976 86.2367 219.976 87.0885 218.443 87.0885C216.648 87.0885 215.376 85.8165 215.376 83.8517ZM228.581 83.8517C228.581 85.8165 227.127 87.0885 225.332 87.0885C223.549 87.0885 222.198 85.8165 222.198 83.8517C222.198 81.8869 223.606 80.6262 225.389 80.6262C227.172 80.6262 228.581 81.8869 228.581 83.8517ZM223.515 83.8517C223.515 85.2714 224.356 85.9642 225.332 85.9642C226.298 85.9642 227.252 85.2714 227.252 83.8517C227.252 82.432 226.332 81.7506 225.366 81.7506C224.39 81.7506 223.515 82.432 223.515 83.8517ZM238.731 86.9863V83.4883C238.731 82.3412 238.106 81.7506 237.163 81.7506C236.209 81.7506 235.585 82.3412 235.585 83.4883V86.9863H234.301V83.4883C234.301 82.3412 233.677 81.7506 232.734 81.7506C231.78 81.7506 231.155 82.3412 231.155 83.4883V86.9863H229.86V80.7284H231.155V81.444C231.575 80.9329 232.257 80.6262 233.006 80.6262C233.995 80.6262 234.824 81.0465 235.255 81.8642C235.641 81.1032 236.527 80.6262 237.436 80.6262C238.901 80.6262 240.014 81.5462 240.014 83.2952V86.9863H238.731Z" fill="white"/>
</svg>
