<svg width="217" height="110" viewBox="0 0 217 110" fill="none" xmlns="http://www.w3.org/2000/svg">
<path d="M217 7.52563C217 3.37429 213.626 0 209.474 0H25.9319C21.7806 0 18.4063 3.37429 18.4063 7.52563V13.3694H217V7.52563Z" fill="#E1E1E1"/>
<path d="M18 13.3711V102.369C18 106.521 21.3743 109.895 25.5256 109.895H209.068C213.219 109.895 216.594 106.521 216.594 102.369V13.3711H18Z" fill="#1D242B"/>
<path d="M32.904 6.64324C32.904 8.53795 31.3605 10.0814 29.4658 10.0814C27.5711 10.0814 26.0276 8.53795 26.0276 6.64324C26.0276 4.74852 27.5711 3.20508 29.4658 3.20508C31.3605 3.20508 32.904 4.74852 32.904 6.64324Z" fill="#ED534F"/>
<path d="M45.2836 6.64324C45.2836 8.53795 43.7401 10.0814 41.8454 10.0814C39.9507 10.0814 38.4072 8.53795 38.4072 6.64324C38.4072 4.74852 39.9507 3.20508 41.8454 3.20508C43.7401 3.20508 45.2836 4.74852 45.2836 6.64324Z" fill="#FFD54F"/>
<path d="M57.6737 6.64324C57.6737 8.53795 56.1302 10.0814 54.2355 10.0814C52.3408 10.0814 50.7974 8.53795 50.7974 6.64324C50.7974 4.74852 52.3408 3.20508 54.2355 3.20508C56.1302 3.20508 57.6737 4.74852 57.6737 6.64324Z" fill="#4CAF50"/>
<g clip-path="url(#clip0_15093_5043)">
<path d="M149.135 50.7309C143.254 51.0891 145.895 58.5934 152.396 58.1973C158.756 57.8099 155.401 50.3494 149.135 50.7309Z" fill="#F19021"/>
<path d="M146.653 46.0952C142.905 46.0952 139.242 47.1839 136.126 49.2237C133.011 51.2635 130.582 54.1627 129.148 57.5547C127.714 60.9468 127.339 64.6793 128.07 68.2803C128.801 71.8812 130.605 75.1889 133.255 77.7851C135.905 80.3812 139.281 82.1492 142.956 82.8655C146.632 83.5818 150.441 83.2142 153.903 81.8091C157.366 80.4041 160.325 78.0248 162.407 74.972C164.489 71.9193 165.6 68.3302 165.6 64.6587C165.6 59.7353 163.604 55.0136 160.05 51.5323C156.497 48.051 151.678 46.0952 146.653 46.0952ZM146.653 81.2767C143.299 81.2773 140.02 80.3034 137.231 78.4782C134.442 76.653 132.268 74.0585 130.985 71.0229C129.701 67.9872 129.364 64.6466 130.018 61.4237C130.672 58.2008 132.287 55.2403 134.658 52.9165C137.03 50.5928 140.051 49.0102 143.341 48.3689C146.63 47.7276 150.04 48.0565 153.138 49.3138C156.237 50.5712 158.885 52.7006 160.749 55.4327C162.612 58.1649 163.607 61.3771 163.607 64.6631C163.607 69.0688 161.82 73.2941 158.641 76.4096C155.462 79.5252 151.149 81.2759 146.653 81.2767ZM146.081 33.1358C141.583 36.467 142.365 41.5756 142.365 41.5756C142.365 41.5756 139.538 34.3855 135.866 29.9902C135.371 35.6485 137.181 43.1455 137.181 43.1455C137.181 43.1455 134.882 38.4973 129.248 38.2371C133.921 40.8682 135.734 45.6084 136.148 46.8801C138.933 45.1961 142.117 44.252 145.388 44.1409C145.019 42.9569 143.709 37.9682 146.081 33.1358Z" fill="#F19021"/>
<path d="M48.8892 66.4782V70.3634H47.2391V60.3537H50.7123C51.8898 60.3537 52.775 60.628 53.3678 61.1766C53.9606 61.7252 54.259 62.4766 54.2629 63.4306C54.2629 64.3768 53.9591 65.1212 53.3514 65.664C52.7437 66.2068 51.866 66.4782 50.7182 66.4782H48.8892ZM52.5786 63.4306C52.5786 62.8634 52.417 62.4308 52.0937 62.1326C51.7705 61.8344 51.2523 61.6858 50.5392 61.6868H48.8892V65.1597H50.5392C51.8978 65.1597 52.5776 64.5833 52.5786 63.4306ZM61.0734 70.3634L58.5268 66.3656H57.3541V70.3634H55.7041V60.3537H59.3085C60.4752 60.3537 61.3604 60.6324 61.9641 61.1898C62.5678 61.7472 62.8692 62.4848 62.8682 63.4028C62.8682 64.1824 62.6439 64.825 62.1953 65.3308C61.7468 65.8365 61.1003 66.1576 60.2559 66.294L62.9413 70.3634H61.0734ZM57.3541 65.2167H59.1742C60.507 65.2167 61.1729 64.6403 61.1719 63.4876C61.1719 62.9399 61.0103 62.5121 60.687 62.2042C60.3633 61.8972 59.8605 61.7438 59.1742 61.7438H57.3541V65.2167ZM70.4514 68.1942H66.1384L65.3566 70.3634H63.5917L67.3543 60.5101H69.2505L72.9981 70.3634H71.2317L70.4514 68.1942ZM69.9874 66.9474L68.2942 62.27L66.6009 66.9474H69.9874ZM81.3333 61.1474C82.1432 61.7334 82.713 62.5835 82.94 63.5446H81.2035C80.9871 63.0121 80.6043 62.5603 80.1099 62.2539C79.571 61.9234 78.9448 61.7556 78.3092 61.7715C77.7072 61.7619 77.114 61.9135 76.5935 62.21C76.0844 62.5056 75.6727 62.9384 75.4075 63.4569C75.1126 64.0497 74.9687 64.7037 74.9883 65.3629C74.9689 66.0448 75.1179 66.7213 75.4224 67.3347C75.6925 67.8631 76.1181 68.3 76.6443 68.5889C77.2055 68.8876 77.8362 69.0387 78.4748 69.0274C79.2764 69.0411 80.0546 68.7618 80.6574 68.2439C81.2641 67.7294 81.6306 67.0229 81.757 66.1245H78.0049V64.9332H83.1414V66.4782C83.0331 67.1982 82.7586 67.8846 82.3388 68.4851C81.913 69.0912 81.3418 69.5856 80.6753 69.9249C79.944 70.2928 79.1311 70.4776 78.3092 70.4628C77.3872 70.4813 76.477 70.2561 75.6745 69.8108C74.9219 69.3859 74.3094 68.7584 73.9096 68.0027C73.5002 67.179 73.2875 66.2748 73.2875 65.3585C73.2875 64.4423 73.5002 63.5381 73.9096 62.7143C74.3077 61.9618 74.9176 61.3368 75.6671 60.9135C76.4684 60.4728 77.3755 60.2503 78.2943 60.2689C79.5107 60.2689 80.5237 60.5617 81.3333 61.1474ZM94.7916 60.5101V70.3634H93.1266V62.9774L90.2189 70.3634H88.7718L85.8477 62.9774V70.3634H84.1992V60.5101H86.1953L89.5237 68.3784L92.7939 60.5101H94.7916ZM102.866 68.1942H98.5601L97.7784 70.3634H96.0075L99.77 60.5101H101.665L105.414 70.3634H103.647L102.866 68.1942ZM102.403 66.9474L100.71 62.27L99.0166 66.9474H102.403ZM112.475 60.3537V61.6575H109.624V70.3634H107.959V61.6575H105.124V60.3537H112.475ZM115.007 60.3537V70.3634H113.358V60.3537H115.007ZM124.341 61.1898C125.179 61.8252 125.77 62.7204 126.02 63.7287H124.268C124.045 63.1446 123.643 62.642 123.118 62.289C122.545 61.9212 121.871 61.7354 121.186 61.7569C120.612 61.7479 120.047 61.9001 119.558 62.1954C119.07 62.5019 118.679 62.9363 118.429 63.4496C118.158 64.0477 118.017 64.6951 118.017 65.3498C118.017 66.0044 118.158 66.6518 118.429 67.25C118.678 67.7639 119.069 68.1989 119.558 68.5056C120.047 68.801 120.612 68.9531 121.186 68.9441C121.87 68.966 122.545 68.7807 123.118 68.4135C123.64 68.0638 124.041 67.5668 124.268 66.9883H126.02C125.772 67.9948 125.18 68.8878 124.341 69.5185C123.512 70.1383 122.47 70.4481 121.216 70.4481C120.318 70.4648 119.432 70.2414 118.654 69.8021C117.916 69.3767 117.318 68.7514 116.933 68.0013C116.532 67.1751 116.324 66.2718 116.324 65.3571C116.324 64.4423 116.532 63.539 116.933 62.7129C117.319 61.9618 117.916 61.3345 118.654 60.9047C119.431 60.4615 120.317 60.236 121.216 60.2528C122.469 60.2538 123.511 60.5661 124.341 61.1898ZM133.803 66.4782V70.3634H132.154V60.3537H135.628C136.803 60.3537 137.688 60.628 138.283 61.1766C138.878 61.7252 139.176 62.4766 139.178 63.4306C139.178 64.3768 138.874 65.1212 138.267 65.664C137.659 66.2068 136.781 66.4782 135.634 66.4782H133.803ZM137.498 63.4306C137.498 62.8634 137.337 62.4308 137.014 62.1326C136.69 61.8344 136.172 61.6858 135.457 61.6868H133.803V65.1597H135.453C136.817 65.1597 137.498 64.5833 137.498 63.4306ZM142.008 69.1019H145.54V70.3634H140.358V60.3537H142.008V69.1019ZM153.093 68.1942H148.782L148 70.3634H146.233L149.997 60.5101H151.892L155.641 70.3634H153.875L153.093 68.1942ZM152.631 66.9474L150.937 62.27L149.244 66.9474H152.631ZM162.264 60.3537L158.864 66.7194V70.3634H157.203V66.7194L153.788 60.3537H155.699L158.045 64.9902L160.388 60.3537H162.264Z" fill="white"/>
</g>
<circle cx="18" cy="37" r="18" fill="#4CAF50"/>
<path d="M23.92 31.9624C24.0053 31.8754 24.1071 31.8062 24.2195 31.759C24.3318 31.7118 24.4525 31.6875 24.5743 31.6875C24.6962 31.6875 24.8169 31.7118 24.9292 31.759C25.0416 31.8062 25.1434 31.8754 25.2287 31.9624C25.5862 32.3237 25.5912 32.9074 25.2412 33.2749L17.85 42.0124C17.7661 42.1046 17.6642 42.1786 17.5507 42.2301C17.4372 42.2815 17.3143 42.3093 17.1897 42.3116C17.0651 42.3139 16.9413 42.2908 16.826 42.2437C16.7106 42.1965 16.606 42.1264 16.5187 42.0374L12.0212 37.4799C11.8478 37.303 11.7506 37.0652 11.7506 36.8174C11.7506 36.5697 11.8478 36.3318 12.0212 36.1549C12.1065 36.0679 12.2083 35.9987 12.3207 35.9515C12.4331 35.9043 12.5537 35.88 12.6756 35.88C12.7975 35.88 12.9181 35.9043 13.0305 35.9515C13.1429 35.9987 13.2447 36.0679 13.33 36.1549L17.145 40.0212L23.895 31.9899C23.9027 31.9803 23.9111 31.9711 23.92 31.9624Z" fill="white"/>
<circle cx="18" cy="78" r="18" fill="#4CAF50"/>
<g clip-path="url(#clip1_15093_5043)">
<path d="M9.66669 84.666H11.3334C11.7917 84.666 12.1667 84.291 12.1667 83.8327V76.3327C12.1667 75.8743 11.7917 75.4993 11.3334 75.4993H9.66669V84.666ZM26.1917 78.7327C26.2834 78.5243 26.3334 78.2993 26.3334 78.066V77.166C26.3334 76.2493 25.5834 75.4993 24.6667 75.4993H20.0834L20.85 71.6243C20.8917 71.441 20.8667 71.241 20.7834 71.0743C20.5917 70.6993 20.35 70.3577 20.05 70.0577L19.6667 69.666L14.325 75.0077C14.0084 75.3243 13.8334 75.7493 13.8334 76.191V82.7243C13.8334 83.791 14.7084 84.666 15.7834 84.666H22.5417C23.125 84.666 23.675 84.3577 23.975 83.8577L26.1917 78.7327Z" fill="white"/>
</g>
<defs>
<clipPath id="clip0_15093_5043">
<rect width="118.466" height="53.2349" fill="white" transform="translate(47.2391 29.9902)"/>
</clipPath>
<clipPath id="clip1_15093_5043">
<rect width="20" height="20" fill="white" transform="translate(8 68)"/>
</clipPath>
</defs>
</svg>
