<svg width="273" height="273" viewBox="0 0 273 273" fill="none" xmlns="http://www.w3.org/2000/svg">
<path d="M100.018 198.027C154.15 198.027 198.032 154.145 198.032 100.014C198.032 45.8821 154.15 2 100.018 2C45.8868 2 2.00464 45.8821 2.00464 100.014C2.00464 154.145 45.8868 198.027 100.018 198.027Z" stroke="#F8F8F8" stroke-width="4" stroke-miterlimit="10"/>
<circle cx="53" cy="111" r="18" fill="#D13333"/>
<g clip-path="url(#clip0_11941_3488)">
<path d="M42 120H64L53 101L42 120ZM54 117H52V115H54V117ZM54 113H52V109H54V113Z" fill="white"/>
</g>
<circle cx="115" cy="71" r="18" fill="#E6B830"/>
<path fill-rule="evenodd" clip-rule="evenodd" d="M109.5 68C109.5 65.1005 111.962 62.75 115 62.75C118.038 62.75 120.5 65.1005 120.5 68V69.0065C120.759 69.0607 121.008 69.1396 121.248 69.2565C121.938 69.592 122.499 70.1275 122.85 70.786C123.077 71.2107 123.167 71.6628 123.209 72.1547C123.25 72.6282 123.25 73.2095 123.25 73.9139V75.2111C123.25 75.9155 123.25 76.4968 123.209 76.9703C123.167 77.4622 123.077 77.9143 122.85 78.339C122.499 78.9975 121.938 79.5329 121.248 79.8685C120.803 80.0849 120.329 80.1712 119.814 80.2113C119.318 80.25 118.709 80.25 117.971 80.25H112.029C111.291 80.25 110.682 80.25 110.186 80.2113C109.671 80.1712 109.197 80.0849 108.752 79.8685C108.062 79.5329 107.501 78.9975 107.15 78.339C106.923 77.9143 106.833 77.4622 106.791 76.9703C106.75 76.4968 106.75 75.9155 106.75 75.2111V73.9139C106.75 73.2095 106.75 72.6282 106.791 72.1547C106.833 71.6628 106.923 71.2107 107.15 70.786C107.501 70.1275 108.062 69.592 108.752 69.2565C108.992 69.1396 109.241 69.0607 109.5 69.0065V68ZM118.667 68V68.8764H111.333V68C111.333 66.067 112.975 64.5 115 64.5C117.025 64.5 118.667 66.067 118.667 68ZM115.917 73.6875C115.917 73.2042 115.506 72.8125 115 72.8125C114.494 72.8125 114.083 73.2042 114.083 73.6875V75.4375C114.083 75.9208 114.494 76.3125 115 76.3125C115.506 76.3125 115.917 75.9208 115.917 75.4375V73.6875Z" fill="white"/>
<circle cx="119" cy="133" r="18" fill="#4CAF50"/>
<path d="M124.92 127.962C125.005 127.875 125.107 127.806 125.219 127.759C125.332 127.712 125.452 127.688 125.574 127.688C125.696 127.688 125.817 127.712 125.929 127.759C126.042 127.806 126.143 127.875 126.229 127.962C126.586 128.324 126.591 128.907 126.241 129.275L118.85 138.012C118.766 138.105 118.664 138.179 118.551 138.23C118.437 138.282 118.314 138.309 118.19 138.312C118.065 138.314 117.941 138.291 117.826 138.244C117.711 138.197 117.606 138.126 117.519 138.037L113.021 133.48C112.848 133.303 112.751 133.065 112.751 132.817C112.751 132.57 112.848 132.332 113.021 132.155C113.107 132.068 113.208 131.999 113.321 131.952C113.433 131.904 113.554 131.88 113.676 131.88C113.797 131.88 113.918 131.904 114.03 131.952C114.143 131.999 114.245 132.068 114.33 132.155L118.145 136.021L124.895 127.99C124.903 127.98 124.911 127.971 124.92 127.962Z" fill="white"/>
<path d="M271.414 271.424L167.37 167.381" stroke="#F8F8F8" stroke-width="4" stroke-miterlimit="10"/>
<defs>
<clipPath id="clip0_11941_3488">
<rect width="24" height="24" fill="white" transform="translate(41 99)"/>
</clipPath>
</defs>
</svg>
