<svg width="30" height="19" viewBox="0 0 30 19" fill="none" xmlns="http://www.w3.org/2000/svg">
<path d="M29.7915 3.45056H0.208496V15.4571H29.7915V3.45056Z" fill="#FFC943"/>
<path d="M29.7915 0H0.208496V4.60847H29.7915V0Z" fill="#EF2B2D"/>
<path d="M29.7915 14.3015H0.208496V18.91H29.7915V14.3015Z" fill="#EF2B2D"/>
<path d="M10.8676 11.854H10.8398C10.8228 11.8531 10.8062 11.8489 10.7908 11.8416C10.7754 11.8342 10.7617 11.8239 10.7503 11.8113C10.7389 11.7986 10.7301 11.7838 10.7245 11.7677C10.7188 11.7517 10.7164 11.7347 10.7173 11.7177C10.7197 11.6831 10.7356 11.6509 10.7615 11.628C10.7875 11.605 10.8214 11.5933 10.856 11.5952C10.8815 11.591 10.9057 11.5811 10.9269 11.5663C10.9481 11.5515 10.9657 11.5321 10.9785 11.5097C10.9854 11.4973 10.989 11.4834 10.989 11.4692C10.989 11.4551 10.9854 11.4411 10.9785 11.4288C10.9161 11.3294 10.7705 11.297 10.6272 11.2624C10.5653 11.2503 10.5043 11.2341 10.4446 11.2138H10.4053C10.1904 11.1399 9.79286 11.0012 9.7813 10.7054C9.77912 10.6631 9.78557 10.6207 9.80028 10.581C9.81498 10.5413 9.83762 10.505 9.86682 10.4743C9.91914 10.4306 9.97955 10.3978 10.0446 10.3775C10.1096 10.3573 10.178 10.3501 10.2458 10.3564C10.3116 10.3579 10.3772 10.3633 10.4423 10.3726C10.5925 10.3887 10.8421 10.4142 10.9207 10.3471C10.9285 10.3402 10.9346 10.3316 10.9386 10.322C10.9426 10.3124 10.9444 10.3021 10.9438 10.2917C10.9451 10.2804 10.9439 10.269 10.9403 10.2582C10.9367 10.2474 10.9308 10.2375 10.923 10.2293C10.8375 10.1391 10.544 10.1345 10.3845 10.1322H10.269C10.1139 10.1302 9.95897 10.1441 9.80673 10.1738L9.68424 10.1715C9.18502 10.2431 9.014 10.3702 8.95622 10.4627C8.94726 10.4779 8.93541 10.4911 8.92133 10.5017C8.90725 10.5123 8.89122 10.52 8.87416 10.5244C8.8571 10.5288 8.83934 10.5298 8.82189 10.5274C8.80444 10.5249 8.78765 10.519 8.77248 10.5101C8.7573 10.5011 8.74404 10.4893 8.73345 10.4752C8.72285 10.4611 8.71513 10.4451 8.71073 10.428C8.70634 10.411 8.70534 10.3932 8.7078 10.3757C8.71027 10.3583 8.71615 10.3415 8.7251 10.3263C8.85221 10.1206 9.15035 9.98659 9.64957 9.91495L9.7813 9.89415C9.95247 9.86021 10.1269 9.84549 10.3013 9.85023H10.4099C10.6411 9.85023 10.9739 9.85023 11.1333 10.0305C11.1956 10.0993 11.2281 10.1899 11.2237 10.2826C11.2194 10.3752 11.1786 10.4624 11.1102 10.5251C10.9461 10.6638 10.6642 10.6337 10.4354 10.6083C10.3683 10.6083 10.3036 10.5944 10.262 10.5944C10.1257 10.5944 10.0841 10.6222 10.0725 10.636C10.061 10.6499 10.0725 10.636 10.0725 10.6799C10.0725 10.7978 10.4123 10.9111 10.5232 10.9504L10.5648 10.9665C10.6064 10.9804 10.6595 10.992 10.7173 11.0058C10.8176 11.015 10.915 11.0448 11.0033 11.0933C11.0915 11.1418 11.1689 11.208 11.2304 11.2878C11.2632 11.3405 11.2805 11.4014 11.2805 11.4634C11.2805 11.5255 11.2632 11.5864 11.2304 11.6391C11.194 11.7035 11.1414 11.7573 11.0777 11.795C11.014 11.8327 10.9416 11.8531 10.8676 11.854ZM4.36854 11.854H4.38472C4.41935 11.8519 4.45171 11.8361 4.47469 11.8101C4.49766 11.784 4.50936 11.75 4.50721 11.7153C4.50507 11.6807 4.48925 11.6484 4.46325 11.6254C4.43724 11.6024 4.40317 11.5907 4.36854 11.5929C4.34304 11.5886 4.3188 11.5788 4.29761 11.564C4.27642 11.5492 4.2588 11.5298 4.24605 11.5073C4.23733 11.496 4.23168 11.4826 4.22966 11.4684C4.22763 11.4542 4.2293 11.4398 4.23449 11.4265C4.29458 11.3271 4.4425 11.2947 4.58579 11.26C4.64699 11.2483 4.70724 11.2321 4.76606 11.2115H4.80766C5.02029 11.1376 5.42012 10.9989 5.43168 10.7031C5.43347 10.6608 5.42683 10.6186 5.41215 10.5789C5.39747 10.5392 5.37504 10.5029 5.34617 10.4719C5.24038 10.3841 5.10409 10.3417 4.96714 10.3541C4.90139 10.3555 4.83578 10.3609 4.77069 10.3702C4.62046 10.3864 4.37085 10.4118 4.29227 10.3448C4.28451 10.3379 4.2784 10.3293 4.2744 10.3197C4.2704 10.3101 4.26861 10.2997 4.26916 10.2894C4.26739 10.2781 4.26836 10.2665 4.27198 10.2556C4.2756 10.2448 4.28176 10.2349 4.28996 10.227C4.37316 10.1368 4.66899 10.1322 4.82846 10.1299H4.94402C5.09912 10.1279 5.25401 10.1418 5.40626 10.1715L5.54262 10.1923C6.04183 10.2639 6.21286 10.391 6.27064 10.4835C6.28875 10.5126 6.31766 10.5333 6.35102 10.5411C6.38438 10.5489 6.41947 10.5431 6.4486 10.5251C6.46323 10.5163 6.47595 10.5047 6.48601 10.491C6.49607 10.4772 6.50325 10.4615 6.50713 10.4449C6.51101 10.4283 6.51151 10.4111 6.5086 10.3943C6.50569 10.3775 6.49943 10.3615 6.4902 10.3471C6.36539 10.1414 6.06725 10.0074 5.5796 9.93575L5.44786 9.91495C5.27669 9.88101 5.10228 9.86629 4.92785 9.87104H4.83078C4.59966 9.87104 4.26685 9.87104 4.10738 10.0513C4.04515 10.1201 4.01266 10.2107 4.01699 10.3034C4.02132 10.396 4.06212 10.4832 4.13049 10.5459C4.29458 10.6846 4.57655 10.6545 4.80535 10.6291C4.87238 10.6291 4.93709 10.6152 4.97869 10.6152C5.11505 10.6152 5.15665 10.643 5.16821 10.6568C5.17976 10.6707 5.17976 10.6568 5.16821 10.7007C5.16821 10.8186 4.83078 10.9319 4.71984 10.9712L4.67824 10.9873C4.63664 11.0012 4.58348 11.0128 4.5257 11.0266C4.42512 11.0361 4.32753 11.0659 4.23891 11.1144C4.15028 11.1629 4.07249 11.229 4.01031 11.3086C3.97977 11.3625 3.9647 11.4239 3.96674 11.4859C3.96877 11.5478 3.98785 11.608 4.02187 11.6599C4.05933 11.7182 4.11054 11.7663 4.17099 11.8002C4.23144 11.834 4.29928 11.8525 4.36854 11.854Z" fill="#EF2B2D" stroke="#2F3A5A" stroke-width="0.0577793" stroke-miterlimit="10"/>
<path d="M10.0842 8.56982H10.8631V8.8541L10.7221 9.05286H10.2275L10.0842 8.8125V8.56982Z" fill="#F7B521" stroke="#2F3A5A" stroke-width="0.0577793" stroke-linecap="round" stroke-linejoin="round"/>
<path d="M10.8631 12.7831H10.0842V12.4988L10.2252 12.3024H10.7198L10.8631 12.5427V12.7831Z" fill="#F7B521" stroke="#2F3A5A" stroke-width="0.0577793" stroke-linecap="round" stroke-linejoin="round"/>
<path d="M10.7221 9.05286H10.2275V12.3024H10.7221V9.05286Z" fill="#D9E2E9" stroke="#2F3A5A" stroke-width="0.0577793" stroke-linecap="round" stroke-linejoin="round"/>
<path d="M4.37329 8.56982H5.15216V8.8541L5.01117 9.05286H4.51658L4.37329 8.8125V8.56982Z" fill="#F7B521" stroke="#2F3A5A" stroke-width="0.0577793" stroke-linecap="round" stroke-linejoin="round"/>
<path d="M5.15216 12.7831H4.37329V12.4988L4.51427 12.3024H5.00886L5.15216 12.5427V12.7831Z" fill="#F7B521" stroke="#2F3A5A" stroke-width="0.0577793" stroke-linecap="round" stroke-linejoin="round"/>
<path d="M5.01119 9.05286H4.5166V12.3024H5.01119V9.05286Z" fill="#D9E2E9" stroke="#2F3A5A" stroke-width="0.0577793" stroke-linecap="round" stroke-linejoin="round"/>
<path d="M7.60418 8.46582H5.64893V11.9973C5.64893 11.9973 5.67897 13.2523 7.60418 13.2361C9.52938 13.2199 9.55943 11.9973 9.55943 11.9973V8.46582H7.60418Z" fill="#C1CDD3" stroke="#2F3A5A" stroke-width="0.0577793" stroke-linecap="round" stroke-linejoin="round"/>
<path d="M9.5595 8.46582H7.60425V10.7539H9.5595V8.46582Z" fill="#D9E2E9" stroke="#2F3A5A" stroke-width="0.0577793" stroke-linecap="round" stroke-linejoin="round"/>
<path d="M7.60418 8.46582H5.64893V10.7539H7.60418V8.46582Z" fill="#EF2B2D" stroke="#2F3A5A" stroke-width="0.0577793" stroke-miterlimit="10"/>
<path d="M7.60425 10.7539V12.0643C7.60425 12.3236 7.70725 12.5723 7.89059 12.7556C8.07393 12.939 8.32259 13.042 8.58187 13.042C8.84116 13.042 9.08982 12.939 9.27316 12.7556C9.4565 12.5723 9.5595 12.3236 9.5595 12.0643V10.7539H7.60425Z" fill="#EF2B2D" stroke="#2F3A5A" stroke-width="0.0577793" stroke-miterlimit="10"/>
<path d="M5.64893 10.7539V12.0643C5.64893 12.3236 5.75193 12.5723 5.93527 12.7556C6.11861 12.939 6.36727 13.042 6.62655 13.042C6.88583 13.042 7.1345 12.939 7.31784 12.7556C7.50118 12.5723 7.60418 12.3236 7.60418 12.0643V10.7539H5.64893Z" fill="#F7B521" stroke="#2F3A5A" stroke-width="0.0577793" stroke-linecap="round" stroke-linejoin="round"/>
<path d="M8.75992 6.39736C8.61585 6.29411 8.44734 6.2302 8.27103 6.21196C8.09473 6.19372 7.91671 6.22178 7.75456 6.29336L7.71295 5.67859H7.56966L7.52806 6.29336C7.36631 6.22175 7.18865 6.19368 7.0127 6.21192C6.83675 6.23017 6.66863 6.29409 6.52501 6.39736C6.52501 6.39736 5.53121 6.30492 5.55663 7.11614C5.57974 7.85802 6.30083 8.04061 6.41639 8.05447C7.23527 7.86493 8.08663 7.86493 8.90552 8.05447C9.12562 8.01404 9.32582 7.90101 9.47413 7.73343C9.62244 7.56584 9.7103 7.35339 9.72367 7.13C9.75834 6.30492 8.75992 6.39736 8.75992 6.39736ZM6.37941 6.93124C6.32251 6.91371 6.26266 6.90786 6.20345 6.91405C6.14423 6.92024 6.08689 6.93835 6.03485 6.96728C5.98282 6.99621 5.93717 7.03537 5.90067 7.0824C5.86416 7.12943 5.83754 7.18336 5.82242 7.24094C5.76798 7.21323 5.72673 7.1651 5.70768 7.10707C5.68862 7.04904 5.69331 6.98583 5.72073 6.93124C5.74615 6.52217 6.37941 6.64928 6.37941 6.64928V6.93124ZM7.44717 6.7972C7.31073 6.74954 7.16236 6.74841 7.02521 6.79398C6.88807 6.83956 6.76988 6.92927 6.68911 7.04911C6.6307 6.99375 6.59484 6.91873 6.58844 6.83851C6.58203 6.75829 6.60555 6.67854 6.65444 6.61461C6.8116 6.33034 7.44717 6.54066 7.44717 6.54066V6.7972ZM8.60276 7.04911C8.52151 6.92729 8.40174 6.83626 8.26263 6.79058C8.12351 6.74491 7.97309 6.74724 7.83545 6.7972V6.54066C7.83545 6.54066 8.47102 6.33034 8.62818 6.61461C8.67794 6.67771 8.70264 6.75698 8.69752 6.83717C8.6924 6.91737 8.65783 6.99285 8.60044 7.04911H8.60276ZM9.47176 7.24094C9.45637 7.18327 9.4295 7.1293 9.39277 7.08225C9.35603 7.03521 9.31019 6.99606 9.25797 6.96714C9.20575 6.93823 9.14824 6.92015 9.08887 6.91398C9.0295 6.90781 8.9695 6.91368 8.91245 6.93124V6.64928C8.91245 6.64928 9.54571 6.52217 9.57114 6.93124C9.59855 6.98583 9.60324 7.04904 9.58419 7.10707C9.56513 7.1651 9.52388 7.21323 9.46944 7.24094H9.47176ZM6.67986 8.29946L6.8324 8.46586H7.61357H7.7014H8.47102L8.64205 8.29252C7.99351 8.16984 7.32751 8.1722 6.67986 8.29946Z" fill="#EF2B2D" stroke="#2F3A5A" stroke-width="0.0577793" stroke-linecap="round" stroke-linejoin="round"/>
</svg>
