<svg width="30" height="20" viewBox="0 0 30 20" fill="none" xmlns="http://www.w3.org/2000/svg">
<path d="M29.4366 12.2611C28.3717 12.2611 28.0772 11.0581 28.5711 10.4056C28.5394 10.0567 28.5077 9.70774 28.5031 9.35657C28.5038 9.29809 28.5091 9.23976 28.519 9.18212C28.5054 8.6361 28.8316 7.9111 29.5 7.85446V3.35493L28.4012 2.59821C28.2652 2.57556 29.2327 2.20173 29.1103 2.14509C28.8478 1.98931 28.5991 1.81118 28.3672 1.61267L28.2471 1.51978C28.1452 1.44501 28.0432 1.37251 27.9345 1.29321C27.7079 1.15274 26.8016 1.68743 26.7155 1.46313L27.1913 0.729072H17.0391C17.0193 0.999888 16.8955 1.25256 16.6937 1.43416C16.4918 1.61576 16.2275 1.7122 15.9561 1.70329C15.7379 1.70762 15.5234 1.64689 15.3398 1.52884C15.0609 1.55263 14.7805 1.55263 14.5016 1.52884C14.339 1.61188 14.1585 1.65389 13.9759 1.65118C13.7133 1.66036 13.4567 1.57038 13.2574 1.39912C13.058 1.22786 12.9303 0.98786 12.8998 0.726807H3.94148C3.909 0.982659 3.79454 1.22111 3.61523 1.40649C3.50984 1.51162 3.38476 1.59495 3.24714 1.65171C3.10952 1.70846 2.96207 1.73754 2.8132 1.73728C2.72234 1.72477 2.63078 1.71796 2.53906 1.71688C2.4424 1.7136 2.34652 1.69838 2.25359 1.67157C2.11582 1.78472 1.95249 1.8625 1.77781 1.89813C1.68385 2.06129 1.54691 2.19552 1.38192 2.2862C1.21693 2.37689 1.03021 2.42055 0.842109 2.41243C0.726796 2.41658 0.611505 2.4036 0.5 2.37392V7.97454H0.53625C1.57617 7.97454 1.87523 9.12321 1.4425 9.78704V10.58C1.50399 10.745 1.53097 10.9208 1.5218 11.0966C1.53773 11.2429 1.52353 11.391 1.48006 11.5317C1.43659 11.6724 1.36478 11.8026 1.26905 11.9145C1.17332 12.0264 1.0557 12.1174 0.923441 12.1821C0.791177 12.2468 0.64707 12.2837 0.5 12.2906V16.7788C0.551295 16.7753 0.602768 16.7753 0.654062 16.7788C1.61016 16.7788 1.93867 17.7507 1.64188 18.4213C1.85282 18.4682 2.04664 18.5726 2.20181 18.723C2.35699 18.8734 2.46746 19.0638 2.52094 19.2732H13.0629C13.0718 18.9928 13.1915 18.7273 13.3957 18.5349C13.6 18.3425 13.8722 18.239 14.1527 18.2469C14.3765 18.2419 14.5964 18.306 14.7825 18.4304C14.8731 18.4304 14.9637 18.4168 15.0544 18.41C15.2175 18.281 15.4135 18.2004 15.6202 18.1773C15.8269 18.1543 16.0359 18.1898 16.2234 18.2798C16.4109 18.3697 16.5694 18.5106 16.6807 18.6862C16.7921 18.8619 16.8519 19.0652 16.8533 19.2732H26.4822C26.4527 18.6842 26.8152 18.0702 27.5742 18.0702C27.7844 18.0659 27.9914 18.1226 28.1701 18.2333L28.263 18.2016C28.3557 18.0362 28.4925 17.8998 28.658 17.8074C28.8236 17.715 29.0115 17.6703 29.2009 17.6782C29.3011 17.6729 29.4015 17.6798 29.5 17.6986V12.3925C29.4796 12.3925 29.457 12.2611 29.4366 12.2611Z" fill="#00247D"/>
<path d="M29.5 17.5445V19.2642H26.054L15.7499 12.7709L16.4228 12.4809L16.0195 12.2271L15 11.5859L14.5673 11.3118L13.1173 10.3988L12.9111 10.2696L12.4784 9.99548L10.1606 8.53642L9.43109 8.07423L0.5 2.45095V0.726807H3.94375L14.2501 7.22235L13.5772 7.51235L14.4721 8.07423L15 8.40728L15.4305 8.67915L16.8827 9.5922L17.0889 9.7236L17.5216 9.99548L20.3333 11.7672L21.0628 12.2271L29.5 17.5445Z" fill="#F0F5F9"/>
<path d="M29.5 18.0883V19.2642H28.0523L16.885 12.2271H16.8827L16.4228 11.9371L15.4327 11.3118L15 11.0399L13.3438 9.99548L13.1173 9.85501L12.9111 9.7236L11.0261 8.53642L10.2966 8.07423L0.5 1.90493V0.726807H1.94547L13.1173 7.76384L13.5772 8.05384L13.6112 8.07423L14.5673 8.67915L14.9977 8.95103H15L16.6562 9.99548L16.8827 10.1382L17.0889 10.2696L19.4701 11.7672L20.1996 12.2271L29.5 18.0883Z" fill="#EF2B2D"/>
<path d="M29.5 0.726807V3.35493L20.5689 8.98048L19.8371 8.53642L17.5216 9.99548L17.0889 10.2696L16.8827 10.3988L15.4327 11.3118L15 11.5859L13.9782 12.2271L13.5772 12.4809L13.1173 12.7709L2.81094 19.2642H0.5V16.636L8.93492 11.3209L9.66445 11.7672L12.4784 9.99548L12.9111 9.7236L13.1173 9.5922L14.5673 8.67915L15 8.40728L15.5256 8.07423L16.4228 7.51009L16.8827 7.22009L27.1891 0.726807H29.5Z" fill="#F0F5F9"/>
<path d="M29.5 0.726807V1.90493L19.7057 8.07423L18.9762 8.53642L17.0889 9.7236L16.8827 9.85275L16.6562 9.99548L15 11.0399L14.5673 11.3118L13.5772 11.9349L13.1173 12.2249V12.2271H13.115L1.94547 19.2642H0.5V18.0883L9.80039 12.2271L10.5299 11.7672L12.9111 10.2696L13.1173 10.1382L13.3438 9.99548L14.9977 8.95103H15L15.4305 8.67915L16.3911 8.07423L16.4228 8.05384L16.8827 7.76384L28.0523 0.726807H29.5Z" fill="#EF2B2D"/>
<path d="M29.5 12.4515V7.84998L0.5 7.84998V12.4515L29.5 12.4515Z" fill="#F0F5F9"/>
<path d="M17.1909 19.2642V0.726807L12.8092 0.726807V19.2642H17.1909Z" fill="#F0F5F9"/>
<path d="M29.5 8.53415H16.4228V0.726807H13.5772V8.53415H0.5V11.7672H13.5772V19.2642H16.4228V11.7672H29.5V8.53415Z" fill="#EF2B2D"/>
</svg>
