<svg width="150" height="31" viewBox="0 0 150 31" fill="none" xmlns="http://www.w3.org/2000/svg">
<path d="M56.3307 11.1583L53.5657 13.1095H53.5559C52.2812 11.1093 50.5751 10.0993 48.4277 10.0993C46.2804 10.0993 45.3587 10.6484 44.2703 11.7564C43.182 12.8742 42.6427 14.2862 42.6427 16.0217C42.6427 17.7572 43.182 19.1496 44.2703 20.2575C45.3587 21.3459 46.7413 21.8852 48.4277 21.8852C50.1142 21.8852 52.2812 20.8851 53.5559 18.8848C53.5559 18.8848 53.5559 18.8848 53.5657 18.8848L56.3307 20.836C54.7815 23.6305 51.8498 25.2876 48.3983 25.2876C44.9469 25.2876 43.4565 24.3953 41.6131 22.6304C39.7894 20.836 38.8677 18.6397 38.8677 16.0021C38.8677 13.3645 39.7894 11.1681 41.6327 9.40318C43.4761 7.60883 45.7313 6.71655 48.4179 6.71655C51.1046 6.71655 54.7129 8.37363 56.3209 11.1681L56.3307 11.1583Z" fill="black"/>
<path d="M77.1273 9.717C75.48 9.717 74.2151 8.14817 75.0093 6.38323C75.8036 4.6183 75.5682 5.59881 75.9997 5.41252C77.7842 4.65752 79.4609 5.79492 79.4609 7.452C79.4609 9.10908 78.4314 9.70719 77.1273 9.70719V9.717Z" fill="black"/>
<path d="M78.9516 11.5114H75.2844V24.9543H78.9516V11.5114Z" fill="black"/>
<path d="M94.4827 16.6296V24.964H90.8547V17.1199C90.8547 15.5706 89.8546 14.5117 88.3544 14.5117C86.8542 14.5117 85.8051 15.5706 85.8051 17.1199V24.964H82.1477V11.5309H85.5011V12.7467C86.5012 11.7368 87.8347 11.2269 89.433 11.2269C92.5608 11.2269 94.4827 13.3743 94.4827 16.6296Z" fill="black"/>
<path d="M126.605 19.5123H117.153C117.614 21.2184 118.996 22.1695 120.957 22.1695C122.918 22.1695 123.526 21.7087 124.693 20.8262C124.693 20.8262 124.703 20.8262 124.713 20.8262L126.223 23.3167C124.624 24.6502 122.83 25.3268 120.849 25.3268C118.869 25.3268 116.966 24.6502 115.584 23.3167C114.201 21.9538 113.515 20.2771 113.495 18.2965C113.378 9.21685 126.86 8.89328 126.86 17.5121C126.86 18.1592 126.781 18.8358 126.615 19.5221L126.605 19.5123ZM117.153 16.9335H123.291C123.232 13.6586 117.947 13.0115 117.153 16.9335Z" fill="black"/>
<path d="M137.067 21.9244V24.9836C136.194 25.1993 135.36 25.3072 134.547 25.3072C131.154 25.3072 129.173 23.6207 129.173 20.2575V8.14807H132.831V11.5309H136.625V14.6195H132.831V19.9045C132.831 21.4243 133.595 21.993 135.331 21.993C137.067 21.993 136.115 21.9636 137.067 21.8852V21.9244Z" fill="black"/>
<path d="M149.814 13.2664L147.97 15.5118C147.97 15.5118 147.97 15.5118 147.96 15.5118C147.068 14.6686 146.068 14.2372 144.95 14.2372C143.832 14.2372 143.509 14.5607 143.509 15.1883C143.509 15.8158 143.862 15.9727 144.921 16.3845L146.225 16.9238C148.833 17.9828 150 19.0417 150 21.0224C150 23.003 149.51 23.4148 148.51 24.1698C147.529 24.9248 146.284 25.3072 144.764 25.3072C142.371 25.3072 140.528 24.4444 139.195 22.6991L141.038 20.4831C141.038 20.4831 141.038 20.4831 141.048 20.4831C142.215 21.6989 143.489 22.297 144.813 22.297C146.137 22.297 146.519 21.9146 146.519 21.1891C146.519 20.4635 146.137 20.4046 145.137 19.9634L143.695 19.3653C141.224 18.3554 140.028 17.2474 140.028 15.2667C140.028 13.2861 142.038 11.2172 144.97 11.2172C147.902 11.2172 148.578 11.8937 149.804 13.2566L149.814 13.2664Z" fill="black"/>
<path d="M111.593 19.7378C111.593 17.8356 110.652 16.4531 109.034 15.6392L109.308 15.3059C110.201 14.4626 110.642 13.3742 110.642 12.08C110.642 10.7857 110.103 9.42275 109.044 8.50106C107.985 7.54996 106.632 7.08911 104.975 7.08911H97.7383V25.0032H105.72C107.455 25.0032 108.867 24.513 109.956 23.5324C111.073 22.5519 111.613 21.2772 111.613 19.728L111.593 19.7378ZM101.249 10.2268H104.661C106.151 10.2268 106.994 10.9916 106.994 12.2663C106.994 13.5409 106.151 14.3254 104.661 14.3254H101.249V10.2268ZM105.435 21.8459H101.249V17.3355H105.435C107.034 17.3355 107.985 18.1984 107.985 19.5907C107.985 20.9831 107.034 21.8459 105.435 21.8459Z" fill="black"/>
<path d="M70.7153 13.2566C69.3327 11.8937 67.6168 11.2172 65.6068 11.2172C63.5967 11.2172 65.6068 11.2172 65.597 11.2172C65.5871 11.2172 65.597 11.2172 65.5872 11.2172C63.5771 11.2172 61.871 11.8937 60.4786 13.2566C59.0961 14.5902 58.3901 16.2472 58.3901 18.2279C58.3901 20.2085 59.0667 21.895 60.459 23.2481C61.8416 24.5817 63.5575 25.2582 65.5675 25.2582C67.5776 25.2582 65.597 25.2582 65.6068 25.2582C65.6166 25.2582 65.6362 25.2582 65.646 25.2582C67.656 25.2582 69.3622 24.5817 70.7545 23.2481C72.137 21.8852 72.8234 20.2085 72.8234 18.2279C72.8234 16.2472 72.1174 14.5902 70.7349 13.2566H70.7153ZM65.6166 21.8852C65.6166 21.8852 65.6166 21.8852 65.6068 21.8852C65.597 21.8852 65.6068 21.8852 65.597 21.8852C63.5575 21.8852 62.1259 20.3948 62.1259 18.2475C62.1259 16.1002 63.5673 14.5509 65.597 14.5509C67.6266 14.5509 65.597 14.5509 65.6068 14.5509C65.6166 14.5509 65.6068 14.5509 65.6166 14.5509C67.6561 14.5509 69.0876 16.1002 69.0876 18.2475C69.0876 20.3948 67.6462 21.8852 65.6166 21.8852Z" fill="black"/>
<path d="M30.0039 8.18734C29.6411 6.15767 28.6312 4.34371 27.18 3.0004C25.8857 1.79436 24.2483 0.951107 22.4343 0.627535C20.1203 0.215717 17.7474 0 15.3157 0C12.884 0 10.5112 0.215717 8.19715 0.627535C6.27533 0.970717 4.54961 1.8924 3.22591 3.21611C1.90221 4.53981 0.970715 6.26553 0.627532 8.19715C0.215714 10.5112 0 12.884 0 15.3157C0 17.7474 0.215714 20.1203 0.627532 22.4343C0.970715 24.3561 1.8924 26.072 3.2063 27.3957C4.53 28.7292 6.25572 29.6607 8.18734 30.0039C10.5014 30.4157 12.8742 30.6314 15.3059 30.6314C17.7376 30.6314 20.1105 30.4157 22.4245 30.0039C24.5522 29.6215 26.4348 28.5233 27.8076 26.9643C28.9155 25.7092 29.6902 24.1502 29.9941 22.4343C30.4059 20.1203 30.6216 17.7474 30.6216 15.3157C30.6216 12.884 30.4059 10.5112 29.9941 8.19715L30.0039 8.18734Z" fill="#E6B830"/>
<path d="M7.28516 7.97156C7.92249 9.0011 8.80496 9.87377 9.84431 10.4915C10.9327 11.1386 12.178 11.5014 13.4526 11.5308C14.0606 10.4131 14.3645 9.15799 14.3547 7.88331C14.3449 6.66747 14.0311 5.47123 13.4526 4.40247C10.9425 4.4711 8.59905 5.82422 7.28516 7.96175V7.97156Z" fill="white"/>
<path d="M21.7575 20.3262C20.5809 19.5418 19.218 19.1104 17.8158 19.0712C17.1491 20.3066 16.8353 21.7088 16.9334 23.1207C17.002 24.1895 17.306 25.2582 17.8158 26.1995C20.326 26.1309 22.6694 24.7778 23.9833 22.6403C23.4146 21.7186 22.6498 20.9243 21.7575 20.336V20.3262Z" fill="white"/>
<path d="M8.2164 18.0612C9.48127 17.4435 10.5402 16.4826 11.2854 15.2863C10.55 14.0803 9.50089 13.1194 8.23601 12.482C7.2751 12.0016 6.20634 11.727 5.12776 11.6976C3.92172 13.9038 3.91192 16.61 5.09835 18.826C6.17692 18.7966 7.24569 18.5417 8.2164 18.071V18.0612Z" fill="white"/>
<path d="M17.8059 4.40247C17.2176 5.49084 16.9038 6.7263 16.9038 7.96175C16.9038 9.19721 17.2176 10.4327 17.8059 11.521C19.4237 11.472 21.0122 10.8935 22.2771 9.88357C22.9536 9.34428 23.5223 8.69714 23.9734 7.96175C22.6595 5.82422 20.316 4.4711 17.8059 4.40247Z" fill="white"/>
<path d="M9.2462 20.5125C8.46178 21.091 7.79503 21.7969 7.28516 22.6304C8.59905 24.7679 10.9425 26.121 13.4526 26.1897C13.8644 25.4249 14.139 24.611 14.2665 23.758C14.5116 22.1499 14.2272 20.4928 13.4526 19.0613C11.9328 19.1005 10.4718 19.6006 9.23639 20.5027L9.2462 20.5125Z" fill="white"/>
</svg>
