<svg width="16" height="16" viewBox="0 0 16 16" fill="none" xmlns="http://www.w3.org/2000/svg">
<path fill-rule="evenodd" clip-rule="evenodd" d="M13.2546 -0.610351H2.74531C2.2709 -0.610369 1.86159 -0.610378 1.52447 -0.582838C1.16867 -0.553768 0.81477 -0.48958 0.474228 -0.316069C-0.0338132 -0.0572106 -0.446859 0.355835 -0.705717 0.863876C-0.879228 1.20442 -0.943416 1.55832 -0.972486 1.91412C-1.00003 2.25123 -1.00002 2.66051 -0.999999 3.13493V13.6443C-1.00002 14.1188 -1.00003 14.5281 -0.972486 14.8651C-0.943416 15.221 -0.879228 15.5749 -0.705717 15.9154C-0.446859 16.4235 -0.0338132 16.8365 0.474228 17.0953C0.81477 17.2689 1.16867 17.333 1.52447 17.3621C1.86159 17.3896 2.27087 17.3896 2.7453 17.3896H13.2547C13.7291 17.3896 14.1384 17.3896 14.4755 17.3621C14.8314 17.333 15.1852 17.2689 15.5258 17.0953C16.0338 16.8365 16.4469 16.4235 16.7057 15.9154C16.8792 15.5749 16.9434 15.221 16.9725 14.8651C17 14.5281 17 14.1188 17 13.6444V3.13494C17 2.66052 17 2.25123 16.9725 1.91412C16.9434 1.55832 16.8792 1.20442 16.7057 0.863876C16.4469 0.355835 16.0338 -0.0572106 15.5258 -0.316069C15.1852 -0.48958 14.8314 -0.553768 14.4755 -0.582838C14.1384 -0.610378 13.7291 -0.610369 13.2546 -0.610351ZM4.4 7.48965C3.90295 7.48965 3.5 7.89258 3.5 8.38965C3.5 8.88672 3.90295 9.28965 4.4 9.28965H11.6C12.0971 9.28965 12.5 8.88672 12.5 8.38965C12.5 7.89258 12.0971 7.48965 11.6 7.48965H4.4Z" fill="#EEBB44"/>
</svg>
