<svg width="42" height="43" viewBox="0 0 42 43" fill="none" xmlns="http://www.w3.org/2000/svg">
<path d="M39.9397 33.5112C39.6069 31.29 38.1044 29.3516 36.0496 28.4316V24.1587C36.4025 23.9509 36.6774 23.6329 36.832 23.2536C36.9866 22.8744 37.0122 22.4548 36.9051 22.0595C36.7979 21.6642 36.5639 21.3151 36.2389 21.0658C35.914 20.8165 35.5161 20.6809 35.1066 20.6798H31.5326C31.123 20.6809 30.7252 20.8165 30.4002 21.0658C30.0753 21.3151 29.8412 21.6642 29.7341 22.0595C29.6269 22.4548 29.6526 22.8744 29.8072 23.2536C29.9617 23.6329 30.2366 23.9509 30.5896 24.1587V28.4229C29.4081 28.9506 28.4045 29.8089 27.7 30.8943C26.9956 31.9797 26.6202 33.2458 26.6194 34.5398C26.6194 36.6438 27.5822 38.5861 29.2741 39.8794C29.8228 40.2766 30.4828 40.4906 31.1601 40.4911H35.479C36.174 40.4911 36.846 40.27 37.3714 39.8691C38.3322 39.1387 39.0779 38.1624 39.5298 37.0434C39.9817 35.9243 40.1231 34.7039 39.9389 33.5112H39.9397ZM28.4238 33.088C28.6537 32.3099 29.0656 31.5977 29.6253 31.0102C30.1851 30.4228 30.8766 29.977 31.6427 29.7098C31.7982 29.6557 31.9329 29.5545 32.0282 29.4203C32.1235 29.2861 32.1746 29.1255 32.1745 28.9609V23.6119C32.1743 23.4204 32.1048 23.2354 31.9788 23.0911C31.8528 22.9469 31.6788 22.8532 31.489 22.8274C31.4232 22.8171 31.3633 22.7833 31.3203 22.7324C31.2773 22.6814 31.2542 22.6166 31.2552 22.55C31.2552 22.3899 31.3773 22.2647 31.5326 22.2647H35.1066C35.2619 22.2647 35.3839 22.3899 35.3839 22.55C35.3849 22.6166 35.3618 22.6814 35.3188 22.7324C35.2759 22.7833 35.216 22.8171 35.1501 22.8274C34.9604 22.8532 34.7864 22.9469 34.6604 23.0911C34.5343 23.2354 34.4648 23.4204 34.4647 23.6119V28.9689C34.4647 29.1336 34.516 29.2943 34.6116 29.4285C34.7072 29.5628 34.8423 29.6639 34.998 29.7177C36.7731 30.3327 38.0973 31.9136 38.373 33.7482C38.3754 33.7656 38.3746 33.783 38.377 33.8012C34.4734 34.5794 31.0904 32.0468 28.4238 33.088Z" fill="#060D17"/>
<path d="M28.6487 27.701L27.7453 27.2255L25.0272 25.0304C24.9609 24.9659 24.8829 24.9148 24.7974 24.8798L23.8702 24.4915C23.4502 24.3172 23.0302 23.8734 22.7212 23.287C22.5917 23.0377 22.4856 22.7769 22.4042 22.508C24.6436 20.6941 26.2 17.5061 26.2 14.0311V13.9915C28.3872 10.3542 27.983 8.42058 27.5155 7.5885C27.2461 7.09718 26.8419 6.7485 26.3744 6.57416C26.0019 4.59303 24.211 2.50888 18.331 2.50888H18.323C12.4351 2.50888 10.6442 4.59303 10.2717 6.57416C9.79625 6.7485 9.3921 7.10511 9.12267 7.5885C8.65512 8.4285 8.24304 10.3621 10.4461 14.0153V14.0311C10.4461 17.5029 12.0032 20.6885 14.2387 22.5033C13.9931 23.3298 13.4518 24.2094 12.76 24.4915L11.8408 24.8798C11.7695 24.9115 11.7061 24.9511 11.6427 25.0066L8.87701 27.2413L5.76267 28.8817C4.61371 29.5591 3.66095 30.5241 2.99816 31.6815C2.33536 32.839 1.98539 34.1491 1.98267 35.4828V39.6987C1.98267 40.1345 2.33927 40.4911 2.77512 40.4911H27.571C25.9385 38.9221 25.0351 36.8062 25.0351 34.5398C25.0351 31.7742 26.414 29.2304 28.6487 27.701ZM12.2291 15.9964H13.8378V16.1232C13.8378 16.9077 14.4796 17.5496 15.2721 17.5496H15.9774C17.277 17.5496 18.323 16.5036 18.323 15.204C18.323 14.4194 17.6812 13.7776 16.8966 13.7776H15.2721C14.757 13.7776 14.3053 14.047 14.0517 14.4591C13.9804 14.4353 13.917 14.4115 13.8378 14.4115H12.0706C12.0944 14.364 12.1261 14.3164 12.1419 14.261C12.1498 14.2451 12.5461 12.993 13.5683 12.3749C13.8061 12.2323 13.9487 11.9787 13.9487 11.7013V10.8851C13.9487 10.4176 14.1706 10.0055 14.5589 9.74398C14.5668 9.73605 14.5827 9.72813 14.5985 9.7202C14.6778 9.66473 14.7649 9.61718 14.8521 9.58548C14.8679 9.58548 14.8759 9.57756 14.8917 9.57756C14.9868 9.54586 15.074 9.52209 15.1691 9.50624H15.2087C15.3038 9.49831 15.3989 9.49831 15.494 9.51416C15.5178 9.51416 15.5336 9.52209 15.5495 9.52209C15.6446 9.53794 15.7396 9.56171 15.8347 9.59341C15.8427 9.60133 15.8585 9.60133 15.8664 9.60926C15.8823 9.60926 15.8981 9.61718 15.914 9.62511C17.3642 10.0451 18.8698 10.0768 20.3755 9.70435C20.5181 9.67265 20.6608 9.64096 20.8034 9.59341C21.2393 9.42699 21.6989 9.48247 22.0872 9.74398C22.4676 10.0055 22.6895 10.4176 22.6895 10.8772V11.7013C22.689 11.8379 22.7246 11.9722 22.7928 12.0905C22.861 12.2088 22.9593 12.3069 23.0778 12.3749C23.1966 12.4542 23.3155 12.5413 23.4264 12.6285C23.7355 12.8979 23.9653 13.2149 24.1317 13.4923C24.1396 13.5081 24.1555 13.524 24.1634 13.5398C24.1793 13.5794 24.1951 13.6032 24.2189 13.6428C24.4012 13.9836 24.4883 14.253 24.4963 14.253C24.5042 14.2847 24.52 14.3085 24.5279 14.3323C24.5438 14.364 24.5517 14.3877 24.5676 14.4115H22.8162C22.737 14.4115 22.6657 14.4353 22.5944 14.4591C22.3487 14.047 21.897 13.7776 21.3819 13.7776H19.7574C18.9649 13.7776 18.323 14.4194 18.323 15.204C18.323 15.512 18.3837 15.817 18.5016 16.1016C18.6195 16.3862 18.7923 16.6448 19.0101 16.8626C19.2279 17.0804 19.4865 17.2532 19.7711 17.3711C20.0556 17.489 20.3607 17.5496 20.6687 17.5496H21.3819C22.1744 17.5496 22.8162 16.9077 22.8162 16.1232V15.9964H24.417C23.8884 18.6496 22.1458 21.4533 19.6353 22.2671C16.0186 23.3742 12.9772 19.7107 12.2291 15.9964ZM15.597 23.4138C15.7396 23.4851 15.887 23.5406 16.0329 23.6L16.0447 23.6048C16.8432 23.9292 17.7013 24.0806 18.5626 24.049C19.4238 24.0175 20.2686 23.8037 21.0412 23.4217C21.1204 23.6198 21.2155 23.8179 21.3185 24.0161C21.6751 24.7134 22.1506 25.2681 22.6895 25.6406L18.3151 27.8674L13.9487 25.6406C14.7015 25.1176 15.2642 24.2696 15.597 23.4138ZM14.8759 32.1466L10.5253 27.9466L12.2449 26.5519L15.6366 28.2794L17.1264 29.0481L14.8759 32.1466ZM16.754 38.9062L17.4751 36.1564H19.1551L19.8842 38.9062H16.754ZM19.4246 34.5715H17.2057L16.0091 33.2878L18.3151 30.0942L20.6291 33.2878L19.4246 34.5715ZM19.5117 29.0402L24.3932 26.5519L26.1129 27.9466L21.7623 32.1466L19.5117 29.0402Z" fill="#060D17"/>
</svg>
