<svg width="26" height="26" viewBox="0 0 26 26" fill="none" xmlns="http://www.w3.org/2000/svg">
<path d="M22.7761 3.38001L21.8401 19.188C21.7881 19.916 21.3721 20.54 20.7481 20.904L18.5121 5.72001C18.3041 4.21201 16.9521 3.06801 15.3921 3.06801C15.2361 3.06801 15.0801 3.06801 14.9241 3.12001L10.5041 3.79601L10.7121 3.48401V3.43201L10.2441 2.49601C10.2441 2.44401 10.1921 2.44401 10.1401 2.49601L9.56807 3.38001V3.43201L9.77607 3.95201L8.32007 4.05601L8.42407 2.54801C8.47607 1.40401 9.46407 0.520006 10.6601 0.572006L20.8001 1.14401C21.9441 1.24801 22.8281 2.23601 22.7761 3.38001Z" fill="#313339" fill-opacity="0.5"/>
<path d="M19.8119 21.476L17.4719 5.82398C17.3159 4.67998 16.2239 3.89998 15.0799 4.05598L5.04395 5.61598C3.89995 5.77198 3.11995 6.86398 3.27595 8.00798L5.61595 23.66C5.77195 24.804 6.86395 25.584 8.00795 25.428L18.0439 23.92C19.1879 23.712 19.9679 22.62 19.8119 21.476ZM5.25195 9.35998C5.25195 9.41198 5.19995 9.41198 5.14795 9.35998L4.52395 8.52798V8.47598L4.88795 7.48798C4.88795 7.43598 4.93995 7.43598 4.99195 7.48798L5.61595 8.31998V8.37198L5.25195 9.35998ZM13.3639 15.08L12.1159 18.512C12.0639 18.668 11.8559 18.668 11.8039 18.564L9.61995 15.652C9.56795 15.6 9.56795 15.548 9.56795 15.496L10.8159 12.064C10.8679 11.908 11.0759 11.908 11.1279 12.012L13.3119 14.924C13.4159 14.976 13.4159 15.028 13.3639 15.08ZM17.8879 22.412C17.8879 22.464 17.8359 22.464 17.7839 22.412L17.1599 21.58V21.528L17.5239 20.54C17.5239 20.488 17.5759 20.488 17.6279 20.54L18.2519 21.372V21.424L17.8879 22.412Z" fill="#313339" fill-opacity="0.5"/>
</svg>
