<svg width="42" height="43" viewBox="0 0 42 43" fill="none" xmlns="http://www.w3.org/2000/svg">
<path d="M39.9395 33.5112C39.6067 31.29 38.1042 29.3516 36.0493 28.4316V24.1587C36.4023 23.9509 36.6772 23.6329 36.8317 23.2536C36.9863 22.8744 37.012 22.4548 36.9048 22.0595C36.7977 21.6642 36.5636 21.3151 36.2387 21.0658C35.9137 20.8165 35.5159 20.6809 35.1063 20.6798H31.5323C31.1228 20.6809 30.7249 20.8165 30.4 21.0658C30.075 21.3151 29.841 21.6642 29.7338 22.0595C29.6267 22.4548 29.6523 22.8744 29.8069 23.2536C29.9615 23.6329 30.2364 23.9509 30.5893 24.1587V28.4229C29.4078 28.9506 28.4043 29.8089 27.6998 30.8943C26.9953 31.9797 26.62 33.2458 26.6191 34.5398C26.6191 36.6438 27.582 38.5861 29.2739 39.8794C29.8226 40.2766 30.4825 40.4906 31.1599 40.4911H35.4788C36.1737 40.4911 36.8457 40.27 37.3711 39.8691C38.3319 39.1387 39.0777 38.1624 39.5296 37.0434C39.9815 35.9243 40.1228 34.7039 39.9387 33.5112H39.9395ZM28.4236 33.088C28.6535 32.3099 29.0654 31.5977 29.6251 31.0102C30.1848 30.4228 30.8764 29.977 31.6425 29.7098C31.7979 29.6557 31.9326 29.5545 32.0279 29.4203C32.1232 29.2861 32.1743 29.1255 32.1742 28.9609V23.6119C32.1741 23.4204 32.1046 23.2354 31.9785 23.0911C31.8525 22.9469 31.6785 22.8532 31.4888 22.8274C31.4229 22.8171 31.363 22.7833 31.3201 22.7324C31.2771 22.6814 31.254 22.6166 31.255 22.55C31.255 22.3899 31.377 22.2647 31.5323 22.2647H35.1063C35.2616 22.2647 35.3837 22.3899 35.3837 22.55C35.3847 22.6166 35.3616 22.6814 35.3186 22.7324C35.2757 22.7833 35.2157 22.8171 35.1499 22.8274C34.9601 22.8532 34.7861 22.9469 34.6601 23.0911C34.5341 23.2354 34.4646 23.4204 34.4644 23.6119V28.9689C34.4644 29.1336 34.5158 29.2943 34.6114 29.4285C34.707 29.5628 34.842 29.6639 34.9977 29.7177C36.7728 30.3327 38.097 31.9136 38.3728 33.7482C38.3752 33.7656 38.3744 33.783 38.3768 33.8012C34.4731 34.5794 31.0902 32.0468 28.4236 33.088Z" fill="#060D17"/>
<path d="M28.6485 27.7018L27.7451 27.2264L25.0269 25.0313C24.9607 24.9668 24.8827 24.9157 24.7971 24.8807L23.87 24.4924C23.45 24.3181 23.03 23.8743 22.7209 23.2879C22.5915 23.0385 22.4854 22.7778 22.4039 22.5089C24.6434 20.695 26.1998 17.5069 26.1998 14.032V13.9924C28.3869 10.355 27.9828 8.42146 27.5153 7.58939C27.2458 7.09807 26.8417 6.74939 26.3741 6.57505C26.0017 4.59392 24.2107 2.50977 18.3307 2.50977H18.3228C12.4349 2.50977 10.6439 4.59392 10.2715 6.57505C9.79601 6.74939 9.39186 7.10599 9.12242 7.58939C8.65487 8.42939 8.2428 10.363 10.4458 14.0162V14.032C10.4458 17.5038 12.003 20.6894 14.2385 22.5041C13.9928 23.3307 13.4516 24.2103 12.7598 24.4924L11.8405 24.8807C11.7692 24.9124 11.7058 24.952 11.6424 25.0075L8.87676 27.2422L5.76242 28.8826C4.61347 29.56 3.6607 30.5249 2.99791 31.6824C2.33512 32.8398 1.98514 34.1499 1.98242 35.4837V39.6996C1.98242 40.1354 2.33903 40.492 2.77487 40.492H27.5707C25.9383 38.923 25.0349 36.8071 25.0349 34.5407C25.0349 31.7751 26.4137 29.2313 28.6485 27.7018ZM12.2288 15.9973H13.8375V16.1241C13.8375 16.9086 14.4794 17.5505 15.2719 17.5505H15.9771C17.2768 17.5505 18.3228 16.5045 18.3228 15.2049C18.3228 14.4203 17.6809 13.7784 16.8964 13.7784H15.2719C14.7568 13.7784 14.3051 14.0479 14.0515 14.46C13.9802 14.4362 13.9168 14.4124 13.8375 14.4124H12.0703C12.0941 14.3649 12.1258 14.3173 12.1417 14.2618C12.1496 14.246 12.5458 12.9939 13.5681 12.3758C13.8058 12.2332 13.9485 11.9796 13.9485 11.7022V10.886C13.9485 10.4184 14.1703 10.0064 14.5586 9.74486C14.5666 9.73694 14.5824 9.72901 14.5983 9.72109C14.6775 9.66562 14.7647 9.61807 14.8519 9.58637C14.8677 9.58637 14.8756 9.57845 14.8915 9.57845C14.9866 9.54675 15.0737 9.52297 15.1688 9.50712H15.2085C15.3036 9.4992 15.3986 9.4992 15.4937 9.51505C15.5175 9.51505 15.5334 9.52297 15.5492 9.52297C15.6443 9.53882 15.7394 9.5626 15.8345 9.59429C15.8424 9.60222 15.8583 9.60222 15.8662 9.61014C15.882 9.61014 15.8979 9.61807 15.9137 9.62599C17.3639 10.046 18.8696 10.0777 20.3753 9.70524C20.5179 9.67354 20.6605 9.64184 20.8032 9.59429C21.239 9.42788 21.6986 9.48335 22.0869 9.74486C22.4673 10.0064 22.6892 10.4184 22.6892 10.8781V11.7022C22.6887 11.8388 22.7244 11.973 22.7926 12.0913C22.8608 12.2097 22.9591 12.3078 23.0775 12.3758C23.1964 12.455 23.3153 12.5422 23.4262 12.6294C23.7353 12.8988 23.9651 13.2158 24.1315 13.4932C24.1394 13.509 24.1553 13.5249 24.1632 13.5407C24.179 13.5803 24.1949 13.6041 24.2186 13.6437C24.4009 13.9845 24.4881 14.2539 24.496 14.2539C24.5039 14.2856 24.5198 14.3094 24.5277 14.3332C24.5436 14.3649 24.5515 14.3886 24.5673 14.4124H22.816C22.7368 14.4124 22.6654 14.4362 22.5941 14.46C22.3485 14.0479 21.8968 13.7784 21.3817 13.7784H19.7571C18.9647 13.7784 18.3228 14.4203 18.3228 15.2049C18.3228 15.5129 18.3835 15.8179 18.5014 16.1025C18.6192 16.3871 18.792 16.6457 19.0098 16.8635C19.2276 17.0813 19.4862 17.2541 19.7708 17.372C20.0554 17.4899 20.3604 17.5505 20.6685 17.5505H21.3817C22.1741 17.5505 22.816 16.9086 22.816 16.1241V15.9973H24.4168C23.8882 18.6504 22.1456 21.4541 19.6351 22.268C16.0183 23.375 12.9769 19.7115 12.2288 15.9973ZM15.5968 23.4147C15.7394 23.486 15.8868 23.5415 16.0326 23.6009L16.0445 23.6057C16.8429 23.93 17.7011 24.0814 18.5623 24.0499C19.4236 24.0183 20.2683 23.8045 21.0409 23.4226C21.1202 23.6207 21.2153 23.8188 21.3183 24.0169C21.6749 24.7143 22.1503 25.269 22.6892 25.6415L18.3149 27.8683L13.9485 25.6415C14.7013 25.1184 15.2639 24.2705 15.5968 23.4147ZM14.8756 32.1475L10.5251 27.9475L12.2447 26.5528L15.6364 28.2803L17.1262 29.049L14.8756 32.1475ZM16.7537 38.9071L17.4749 36.1573H19.1549L19.8839 38.9071H16.7537ZM19.4243 34.5724H17.2054L16.0088 33.2886L18.3149 30.0951L20.6288 33.2886L19.4243 34.5724ZM19.5115 29.0411L24.393 26.5528L26.1126 27.9475L21.762 32.1475L19.5115 29.0411Z" fill="#060D17"/>
</svg>
