<svg width="27" height="27" viewBox="0 0 27 27" fill="none" xmlns="http://www.w3.org/2000/svg">
<g clip-path="url(#clip0_12124_7900)">
<path d="M26.1189 7.18626C26.0778 7.03121 26.0063 6.88588 25.9086 6.7587C25.8108 6.63153 25.6888 6.52505 25.5495 6.44546L21.7878 4.28076V5.21818L25.1445 7.14929C25.1909 7.17594 25.2315 7.21147 25.2641 7.25386C25.2967 7.29625 25.3206 7.34466 25.3345 7.39631C25.3483 7.44796 25.3518 7.50184 25.3448 7.55486C25.3378 7.60787 25.3204 7.65898 25.2936 7.70525L21.7878 13.7561V15.3769L25.9966 8.11251C26.0774 7.97391 26.1298 7.82063 26.1508 7.66158C26.1719 7.50253 26.1611 7.3409 26.1191 7.18606L26.1189 7.18626ZM5.9443 15.0265V13.4055L2.64169 7.70545C2.61487 7.65918 2.59746 7.60807 2.59044 7.55506C2.58342 7.50204 2.58694 7.44816 2.60079 7.39651C2.61464 7.34486 2.63855 7.29645 2.67116 7.25406C2.70376 7.21167 2.74441 7.17614 2.79078 7.1495L5.94409 5.33518V4.39776L2.38534 6.44526C2.24633 6.52522 2.12446 6.63183 2.02672 6.75898C1.92899 6.88613 1.85731 7.03132 1.81579 7.18623C1.77428 7.34114 1.76375 7.50271 1.7848 7.6617C1.80585 7.82068 1.85807 7.97395 1.93847 8.11272L5.9443 15.0265ZM22.4894 15.7864C22.8076 15.8243 23.1222 15.8883 23.4299 15.9777L26.387 13.7186C26.5149 13.6206 26.6221 13.4984 26.7025 13.3589C26.783 13.2194 26.835 13.0653 26.8557 12.9056C26.8764 12.7459 26.8653 12.5837 26.823 12.4283C26.7807 12.2729 26.7081 12.1274 26.6094 12.0001L25.5065 10.5787L22.4894 15.7864ZM21.7878 16.5556C20.7835 16.5556 19.8017 16.8534 18.9666 17.4114C18.1315 17.9694 17.4806 18.7625 17.0963 19.6904C16.7119 20.6183 16.6114 21.6394 16.8073 22.6244C17.0032 23.6095 17.4869 24.5143 18.1971 25.2245C18.9073 25.9347 19.8121 26.4183 20.7971 26.6143C21.7822 26.8102 22.8033 26.7097 23.7312 26.3253C24.6591 25.941 25.4522 25.2901 26.0102 24.455C26.5681 23.6199 26.866 22.6381 26.866 21.6337C26.8645 20.2874 26.329 18.9966 25.377 18.0446C24.425 17.0926 23.1342 16.5571 21.7878 16.5556ZM25.1995 19.0839L24.475 19.8084C24.2441 19.4698 23.9518 19.1774 23.6131 18.9466L24.3377 18.2222C24.6645 18.467 24.9547 18.7572 25.1995 19.0839ZM21.7876 17.3681C22.4229 17.3688 23.0499 17.5125 23.6221 17.7886L22.8463 18.5643C22.1611 18.3235 21.4142 18.3235 20.729 18.5643L19.9532 17.7886C20.5254 17.5125 21.1523 17.3688 21.7876 17.3681ZM20.9565 22.9404C20.869 22.8785 20.8096 22.7846 20.791 22.6791C20.7725 22.5736 20.7964 22.4651 20.8575 22.3771C20.9186 22.2891 21.012 22.2288 21.1174 22.2094C21.2227 22.1899 21.3315 22.2128 21.42 22.2732C21.4843 22.3182 21.5576 22.3487 21.6349 22.3625C21.7279 22.3869 21.8252 22.3902 21.9197 22.3722C22.0142 22.3542 22.1035 22.3154 22.1811 22.2585C22.2107 22.2189 22.1805 22.1692 22.1705 22.1549C22.1045 22.0601 21.8734 22.0028 21.6694 21.9524C21.304 21.8618 20.8035 21.7379 20.6193 21.2391C20.4535 20.7847 20.7184 20.2986 21.2347 20.1068C21.3219 20.0754 21.4119 20.0526 21.5035 20.0388V20.0087C21.5035 19.901 21.5463 19.7977 21.6225 19.7215C21.6986 19.6453 21.802 19.6025 21.9097 19.6025C22.0175 19.6025 22.1208 19.6453 22.197 19.7215C22.2732 19.7977 22.316 19.901 22.316 20.0087V20.1231C22.3894 20.1498 22.4607 20.1822 22.5292 20.2198C22.6231 20.2727 22.6922 20.3607 22.7212 20.4644C22.7502 20.5682 22.7368 20.6793 22.6839 20.7732C22.6311 20.8671 22.543 20.9361 22.4393 20.9651C22.3355 20.9942 22.2244 20.9807 22.1305 20.9279C22.0378 20.8766 21.9355 20.8448 21.8301 20.8346C21.7246 20.8243 21.6181 20.8358 21.5173 20.8684C21.4616 20.8844 21.4132 20.9194 21.3806 20.9673C21.4165 21.0526 21.6548 21.1115 21.8648 21.1637C22.1908 21.2445 22.5965 21.3449 22.837 21.6904C22.9476 21.8446 23.0065 22.0298 23.0054 22.2195C23.0042 22.4093 22.9431 22.5938 22.8307 22.7467C22.6744 22.9457 22.454 23.0844 22.2069 23.1391V23.2587C22.2069 23.3665 22.1641 23.4698 22.0879 23.546C22.0117 23.6222 21.9084 23.665 21.8006 23.665C21.6929 23.665 21.5896 23.6222 21.5134 23.546C21.4372 23.4698 21.3944 23.3665 21.3944 23.2587V23.1397C21.2377 23.0999 21.0894 23.0323 20.9565 22.9404ZM19.238 18.2222L19.9624 18.9466C19.6238 19.1775 19.3315 19.4698 19.1007 19.8084L18.3762 19.0839C18.621 18.7572 18.9112 18.467 19.238 18.2222ZM17.9427 23.4679C17.666 22.896 17.5222 22.2689 17.5222 21.6335C17.5222 20.9982 17.666 20.371 17.9427 19.7991L18.7184 20.5748C18.4776 21.2601 18.4776 22.007 18.7184 22.6922L17.9427 23.4679ZM18.3762 24.1834L19.1007 23.4588C19.3315 23.7975 19.6238 24.0898 19.9624 24.3207L19.238 25.045C18.9112 24.8002 18.621 24.5101 18.3762 24.1834ZM21.7878 25.8994C21.1526 25.8986 20.5257 25.7549 19.9536 25.4789L20.7294 24.7032C21.4146 24.9439 22.1615 24.9439 22.8467 24.7032L23.6225 25.4789C23.0502 25.755 22.4232 25.8987 21.7878 25.8994ZM24.3377 25.0452L23.6131 24.3209C23.9518 24.09 24.2441 23.7977 24.475 23.459L25.1995 24.1836C24.9547 24.5103 24.6645 24.8004 24.3377 25.0452ZM24.8573 22.6924C25.098 22.0072 25.098 21.2603 24.8573 20.575L25.6332 19.7993C25.9099 20.3712 26.0537 20.9984 26.0537 21.6337C26.0537 22.2691 25.9099 22.8962 25.6332 23.4682L24.8573 22.6924ZM1.34392 13.5122L4.49886 15.9233C4.80585 15.8459 5.1186 15.7935 5.43405 15.7667L2.27566 10.3148L1.1213 11.8029C1.02306 11.9295 0.950857 12.0743 0.908864 12.229C0.866872 12.3836 0.855917 12.545 0.876633 12.704C0.897349 12.8629 0.949324 13.0161 1.02956 13.1548C1.1098 13.2935 1.21671 13.415 1.34413 13.5122H1.34392ZM11.0222 21.6337C11.0222 20.6294 10.7244 19.6476 10.1664 18.8125C9.60841 17.9774 8.81531 17.3265 7.88741 16.9422C6.9595 16.5578 5.93846 16.4572 4.9534 16.6532C3.96834 16.8491 3.06351 17.3328 2.35332 18.043C1.64313 18.7531 1.15948 19.658 0.963544 20.643C0.767603 21.6281 0.868167 22.6491 1.25252 23.577C1.63687 24.505 2.28775 25.298 3.12284 25.856C3.95793 26.414 4.93974 26.7119 5.94409 26.7119C7.29043 26.7104 8.5812 26.1749 9.53321 25.2228C10.4852 24.2708 11.0207 22.9801 11.0222 21.6337ZM9.78925 19.7993C10.066 20.3712 10.2097 20.9984 10.2097 21.6337C10.2097 22.2691 10.066 22.8962 9.78925 23.4682L9.01352 22.6924C9.2543 22.0072 9.2543 21.2603 9.01352 20.575L9.78925 19.7993ZM9.35578 19.0839L8.63123 19.8084C8.40046 19.4698 8.10818 19.1775 7.76958 18.9466L8.49392 18.2222C8.82071 18.467 9.11092 18.7572 9.35578 19.0839ZM5.94409 17.3681C6.57931 17.3688 7.20621 17.5125 7.77831 17.7886L7.00258 18.5643C6.31738 18.3236 5.5706 18.3236 4.88541 18.5643L4.10947 17.7886C4.68182 17.5124 5.30901 17.3687 5.9445 17.3681H5.94409ZM5.1127 22.9404C5.02527 22.8785 4.96582 22.7846 4.94729 22.6791C4.92876 22.5736 4.95266 22.4651 5.01377 22.3771C5.07489 22.2891 5.16828 22.2288 5.27362 22.2094C5.37896 22.1899 5.48772 22.2128 5.57623 22.2732C5.64054 22.3182 5.71387 22.3487 5.79114 22.3625C5.88422 22.3869 5.98156 22.3902 6.07609 22.3722C6.17061 22.3542 6.25993 22.3154 6.33755 22.2585C6.367 22.2189 6.33673 22.1692 6.32678 22.1549C6.26077 22.0601 6.02961 22.0028 5.82588 21.9524C5.46025 21.8618 4.95975 21.7379 4.77572 21.2391C4.60977 20.7847 4.87464 20.2986 5.39078 20.1068C5.47797 20.0754 5.56805 20.0526 5.65972 20.0388V20.0087C5.65972 19.901 5.70252 19.7977 5.77871 19.7215C5.85489 19.6453 5.95822 19.6025 6.06597 19.6025C6.17371 19.6025 6.27704 19.6453 6.35323 19.7215C6.42942 19.7977 6.47222 19.901 6.47222 20.0087V20.1231C6.54568 20.1498 6.61698 20.1822 6.6855 20.2198C6.73199 20.2459 6.77288 20.281 6.80582 20.323C6.83876 20.365 6.86311 20.413 6.87749 20.4644C6.89186 20.5158 6.89597 20.5695 6.88959 20.6224C6.8832 20.6754 6.86645 20.7266 6.84028 20.7731C6.81411 20.8196 6.77904 20.8605 6.73708 20.8934C6.69511 20.9264 6.64706 20.9507 6.59568 20.9651C6.5443 20.9794 6.49059 20.9836 6.43762 20.9772C6.38466 20.9708 6.33346 20.954 6.28697 20.9279C6.19422 20.8765 6.09193 20.8448 5.98642 20.8345C5.88091 20.8243 5.77442 20.8358 5.67353 20.8684C5.61781 20.8844 5.56945 20.9194 5.53683 20.9673C5.57278 21.0526 5.81105 21.1115 6.02108 21.1637C6.34709 21.2445 6.75274 21.3449 6.99324 21.6904C7.1038 21.8446 7.16274 22.0298 7.16161 22.2195C7.16048 22.4093 7.09934 22.5938 6.98694 22.7467C6.83067 22.9457 6.61021 23.0844 6.36314 23.1391V23.2587C6.36314 23.3665 6.32034 23.4698 6.24415 23.546C6.16797 23.6222 6.06464 23.665 5.95689 23.665C5.84915 23.665 5.74582 23.6222 5.66963 23.546C5.59344 23.4698 5.55064 23.3665 5.55064 23.2587V23.1397C5.39399 23.0999 5.24569 23.0323 5.1127 22.9404ZM3.39427 18.2222L4.11881 18.9466C3.78014 19.1774 3.48779 19.4698 3.25695 19.8084L2.53241 19.0839C2.77726 18.7572 3.06747 18.467 3.39427 18.2222ZM2.09914 23.4679C1.82243 22.896 1.67869 22.2689 1.67869 21.6335C1.67869 20.9982 1.82243 20.371 2.09914 19.7991L2.87488 20.5748C2.63409 21.2601 2.63409 22.007 2.87488 22.6922L2.09914 23.4679ZM2.53261 24.1834L3.25716 23.4588C3.488 23.7975 3.78034 24.0898 4.11902 24.3207L3.39447 25.045C3.06767 24.8002 2.77747 24.5101 2.53261 24.1834ZM5.9443 25.8994C5.30902 25.8987 4.68204 25.7549 4.10988 25.4789L4.88561 24.7032C5.57087 24.9439 6.31773 24.9439 7.00298 24.7032L7.77872 25.4789C7.20649 25.755 6.57965 25.8987 5.9443 25.8994ZM8.49392 25.0452L7.76958 24.3209C8.10818 24.09 8.40046 23.7977 8.63123 23.459L9.35578 24.1836C9.11092 24.5103 8.82071 24.8004 8.49392 25.0452ZM15.0847 10.2587H12.6472V15.1337H15.0847V10.2587ZM14.2722 13.1451C14.2722 13.2529 14.2294 13.3562 14.1532 13.4324C14.077 13.5086 13.9737 13.5514 13.866 13.5514C13.7582 13.5514 13.6549 13.5086 13.5787 13.4324C13.5025 13.3562 13.4597 13.2529 13.4597 13.1451V12.2473C13.4597 12.1396 13.5025 12.0362 13.5787 11.9601C13.6549 11.8839 13.7582 11.8411 13.866 11.8411C13.9737 11.8411 14.077 11.8839 14.1532 11.9601C14.2294 12.0362 14.2722 12.1396 14.2722 12.2473V13.1451ZM18.3347 10.2587H15.8972V15.1337H18.3347V10.2587ZM17.5222 13.1451C17.5222 13.2529 17.4794 13.3562 17.4032 13.4324C17.327 13.5086 17.2237 13.5514 17.116 13.5514C17.0082 13.5514 16.9049 13.5086 16.8287 13.4324C16.7525 13.3562 16.7097 13.2529 16.7097 13.1451V12.2473C16.7097 12.1396 16.7525 12.0362 16.8287 11.9601C16.9049 11.8839 17.0082 11.8411 17.116 11.8411C17.2237 11.8411 17.327 11.8839 17.4032 11.9601C17.4794 12.0362 17.5222 12.1396 17.5222 12.2473V13.1451ZM11.8347 10.2587H9.39722V15.1337H11.8347V10.2587ZM11.0222 13.1451C11.0222 13.2529 10.9794 13.3562 10.9032 13.4324C10.827 13.5086 10.7237 13.5514 10.616 13.5514C10.5082 13.5514 10.4049 13.5086 10.3287 13.4324C10.2525 13.3562 10.2097 13.2529 10.2097 13.1451V12.2473C10.2097 12.1396 10.2525 12.0362 10.3287 11.9601C10.4049 11.8839 10.5082 11.8411 10.616 11.8411C10.7237 11.8411 10.827 11.8839 10.9032 11.9601C10.9794 12.0362 11.0222 12.1396 11.0222 12.2473V13.1451Z" fill="#313339" fill-opacity="0.5"/>
<path d="M18.485 16.7587C19.2301 16.2514 20.0824 15.9233 20.9753 15.8V2.33685C20.9748 1.90604 20.8034 1.49303 20.4988 1.1884C20.1942 0.883768 19.7812 0.712391 19.3503 0.711853L8.38159 0.711853C7.95078 0.712391 7.53777 0.883768 7.23314 1.1884C6.92851 1.49303 6.75713 1.90604 6.75659 2.33685V15.8C7.64951 15.9233 8.50182 16.2514 9.2469 16.7587H18.485ZM13.866 2.33685C13.9463 2.33685 14.0249 2.36068 14.0917 2.40532C14.1585 2.44996 14.2105 2.51341 14.2413 2.58764C14.272 2.66187 14.2801 2.74355 14.2644 2.82236C14.2487 2.90116 14.21 2.97355 14.1532 3.03036C14.0964 3.08718 14.024 3.12587 13.9452 3.14155C13.8664 3.15722 13.7847 3.14918 13.7105 3.11843C13.6363 3.08768 13.5728 3.03561 13.5282 2.9688C13.4835 2.902 13.4597 2.82345 13.4597 2.7431C13.46 2.63546 13.5029 2.53231 13.5791 2.4562C13.6552 2.38008 13.7583 2.33717 13.866 2.33685ZM8.99097 7.82123H18.741C18.8487 7.82123 18.952 7.86403 19.0282 7.94022C19.1044 8.0164 19.1472 8.11973 19.1472 8.22748C19.1472 8.33522 19.1044 8.43855 19.0282 8.51474C18.952 8.59093 18.8487 8.63373 18.741 8.63373H8.99097C8.88322 8.63373 8.77989 8.59093 8.7037 8.51474C8.62752 8.43855 8.58472 8.33522 8.58472 8.22748C8.58472 8.11973 8.62752 8.0164 8.7037 7.94022C8.77989 7.86403 8.88322 7.82123 8.99097 7.82123ZM8.58472 15.1337V10.2587C8.58469 10.152 8.60569 10.0464 8.64651 9.94777C8.68733 9.84918 8.74718 9.7596 8.82263 9.68414C8.89809 9.60869 8.98767 9.54884 9.08626 9.50802C9.18484 9.4672 9.29051 9.4462 9.39722 9.44623H18.3347C18.4414 9.4462 18.5471 9.4672 18.6457 9.50802C18.7443 9.54884 18.8338 9.60869 18.9093 9.68414C18.9848 9.7596 19.0446 9.84918 19.0854 9.94777C19.1262 10.0464 19.1472 10.152 19.1472 10.2587V15.1337C19.1472 15.2404 19.1262 15.3461 19.0854 15.4447C19.0446 15.5433 18.9848 15.6329 18.9093 15.7083C18.8338 15.7838 18.7443 15.8436 18.6457 15.8844C18.5471 15.9253 18.4414 15.9463 18.3347 15.9462H9.39722C9.29051 15.9463 9.18484 15.9253 9.08626 15.8844C8.98767 15.8436 8.89809 15.7838 8.82263 15.7083C8.74718 15.6329 8.68733 15.5433 8.64651 15.4447C8.60569 15.3461 8.58469 15.2404 8.58472 15.1337ZM18.2453 26.3361C18.156 26.269 18.0666 26.1979 17.9813 26.1248C17.896 26.0517 17.8127 25.9765 17.7314 25.8994H17.7111C17.7137 25.895 17.7151 25.8901 17.7152 25.8851C17.1568 25.3517 16.7091 24.7134 16.3974 24.0069C16.0857 23.3003 15.9163 22.5393 15.8988 21.7673C15.8812 20.9953 16.0159 20.2274 16.2952 19.5074C16.5744 18.7874 16.9928 18.1295 17.5263 17.5712H10.2057C10.7392 18.1295 11.1575 18.7874 11.4368 19.5074C11.716 20.2274 11.8507 20.9953 11.8332 21.7673C11.8156 22.5393 11.6462 23.3003 11.3345 24.0069C11.0229 24.7134 10.5751 25.3517 10.0167 25.8851C10.0169 25.8901 10.0183 25.895 10.0208 25.8994H10.0005C9.91925 25.9765 9.83597 26.0517 9.75065 26.1248C9.66534 26.1979 9.57597 26.269 9.48659 26.3361C9.39722 26.4031 9.30378 26.4681 9.21034 26.5311C9.1169 26.594 9.02347 26.6529 8.92597 26.7119H18.806C18.7085 26.655 18.613 26.5961 18.5216 26.5311C18.4282 26.4681 18.3347 26.4031 18.2453 26.3361ZM14.8816 25.0869H12.8503C12.7426 25.0869 12.6393 25.0441 12.5631 24.9679C12.4869 24.8917 12.4441 24.7883 12.4441 24.6806C12.4441 24.5729 12.4869 24.4695 12.5631 24.3933C12.6393 24.3172 12.7426 24.2744 12.8503 24.2744H14.8816C14.9893 24.2744 15.0927 24.3172 15.1689 24.3933C15.245 24.4695 15.2878 24.5729 15.2878 24.6806C15.2878 24.7883 15.245 24.8917 15.1689 24.9679C15.0927 25.0441 14.9893 25.0869 14.8816 25.0869Z" fill="#313339" fill-opacity="0.5"/>
</g>
<defs>
<clipPath id="clip0_12124_7900">
<rect width="26" height="26" fill="white" transform="translate(0.865967 0.711853)"/>
</clipPath>
</defs>
</svg>
