<svg width="17" height="16" viewBox="0 0 17 16" fill="none" xmlns="http://www.w3.org/2000/svg">
<path d="M15.1666 6H1.83325V4C1.83325 3.46957 2.04397 2.96086 2.41904 2.58579C2.79411 2.21071 3.30282 2 3.83325 2H13.1666C13.697 2 14.2057 2.21071 14.5808 2.58579C14.9559 2.96086 15.1666 3.46957 15.1666 4V6Z" fill="#BCBCBC"/>
<path d="M1.83325 12.6667C1.83378 13.1969 2.04467 13.7053 2.41962 14.0803C2.79458 14.4553 3.30298 14.6661 3.83325 14.6667H13.1666C13.6969 14.6661 14.2053 14.4553 14.5802 14.0803C14.9552 13.7053 15.1661 13.1969 15.1666 12.6667V6H1.83325V12.6667Z" fill="#BCBCBC"/>
<path d="M5.16667 4.66724C4.98986 4.66724 4.82029 4.597 4.69526 4.47197C4.57024 4.34695 4.5 4.17738 4.5 4.00057V1.3339C4.5 1.15709 4.57024 0.987523 4.69526 0.862498C4.82029 0.737474 4.98986 0.667236 5.16667 0.667236C5.34348 0.667236 5.51305 0.737474 5.63807 0.862498C5.7631 0.987523 5.83333 1.15709 5.83333 1.3339V4.00057C5.83333 4.17738 5.7631 4.34695 5.63807 4.47197C5.51305 4.597 5.34348 4.66724 5.16667 4.66724ZM11.8333 4.66724C11.6565 4.66724 11.487 4.597 11.3619 4.47197C11.2369 4.34695 11.1667 4.17738 11.1667 4.00057V1.3339C11.1667 1.15709 11.2369 0.987523 11.3619 0.862498C11.487 0.737474 11.6565 0.667236 11.8333 0.667236C12.0101 0.667236 12.1797 0.737474 12.3047 0.862498C12.4298 0.987523 12.5 1.15709 12.5 1.3339V4.00057C12.5 4.17738 12.4298 4.34695 12.3047 4.47197C12.1797 4.597 12.0101 4.66724 11.8333 4.66724Z" fill="#313339"/>
<path d="M5.16667 9.33333C5.53486 9.33333 5.83333 9.03486 5.83333 8.66667C5.83333 8.29848 5.53486 8 5.16667 8C4.79848 8 4.5 8.29848 4.5 8.66667C4.5 9.03486 4.79848 9.33333 5.16667 9.33333Z" fill="#313339"/>
<path d="M11.8337 9.33333C12.2018 9.33333 12.5003 9.03486 12.5003 8.66667C12.5003 8.29848 12.2018 8 11.8337 8C11.4655 8 11.167 8.29848 11.167 8.66667C11.167 9.03486 11.4655 9.33333 11.8337 9.33333Z" fill="#313339"/>
<path d="M8.49992 9.33333C8.86811 9.33333 9.16658 9.03486 9.16658 8.66667C9.16658 8.29848 8.86811 8 8.49992 8C8.13173 8 7.83325 8.29848 7.83325 8.66667C7.83325 9.03486 8.13173 9.33333 8.49992 9.33333Z" fill="#313339"/>
<path d="M8.49992 12.0006C8.86811 12.0006 9.16658 11.7021 9.16658 11.3339C9.16658 10.9657 8.86811 10.6672 8.49992 10.6672C8.13173 10.6672 7.83325 10.9657 7.83325 11.3339C7.83325 11.7021 8.13173 12.0006 8.49992 12.0006Z" fill="#313339"/>
<path d="M5.16667 12.0006C5.53486 12.0006 5.83333 11.7021 5.83333 11.3339C5.83333 10.9657 5.53486 10.6672 5.16667 10.6672C4.79848 10.6672 4.5 10.9657 4.5 11.3339C4.5 11.7021 4.79848 12.0006 5.16667 12.0006Z" fill="#313339"/>
<path d="M11.8337 12.0006C12.2018 12.0006 12.5003 11.7021 12.5003 11.3339C12.5003 10.9657 12.2018 10.6672 11.8337 10.6672C11.4655 10.6672 11.167 10.9657 11.167 11.3339C11.167 11.7021 11.4655 12.0006 11.8337 12.0006Z" fill="#313339"/>
</svg>
