<svg width="46" height="46" viewBox="0 0 46 46" fill="none" xmlns="http://www.w3.org/2000/svg">
<path d="M10.0483 11.4662L6.63481 8.05262C3.1297 11.8756 1.08092 16.8097 0.847114 21.9911H5.67758C5.90284 18.0896 7.44354 14.3795 10.0483 11.4662ZM5.67665 24.008H0.846191C1.07677 29.191 3.12557 34.1272 6.63296 37.9502L10.0456 34.5375C7.4386 31.6239 5.89821 27.9114 5.67665 24.008ZM22.0003 5.67754V0.847076C16.82 1.07908 11.8861 3.12516 8.06188 6.62738L11.4745 10.04C14.3893 7.43808 18.0995 5.90036 22.0003 5.67754ZM8.05911 39.3754C11.8847 42.8769 16.8194 44.9223 22.0003 45.1538V40.3225C18.0993 40.0998 14.3886 38.5629 11.4727 35.9618L8.05911 39.3754ZM37.9502 6.632C34.1293 3.12734 29.1968 1.07937 24.0173 0.847076V5.67754C27.917 5.9011 31.6256 7.44101 34.5367 10.0455L37.9502 6.632ZM40.3216 21.992H45.1539C44.9205 16.8139 42.8752 11.8825 39.3754 8.05908L35.9619 11.4726C38.5608 14.3865 40.0974 18.094 40.3216 21.992ZM40.3216 24.008C40.1011 27.9075 38.5652 31.6171 35.9647 34.5311L39.3782 37.9446C42.8797 34.1211 44.9243 29.1875 45.1539 24.008H40.3216ZM24.0182 40.3225V45.1529C29.198 44.9209 34.131 42.8736 37.953 39.3698L34.5385 35.9563C31.6263 38.5599 27.9173 40.0991 24.0173 40.3225H24.0182ZM33.8554 33.8462C33.8647 33.8462 33.8647 33.8462 33.8757 33.8369C35.3014 32.4115 36.431 30.7181 37.1993 28.8543C37.9677 26.9904 38.3597 24.9929 38.3527 22.9769C38.3527 18.8748 36.7077 15.02 33.8554 12.1474C30.9979 9.27553 27.1178 7.65452 23.0665 7.64C23.0462 7.64923 23.0259 7.66031 23.0056 7.66031C22.9853 7.66031 22.9751 7.65015 22.9548 7.64C18.9126 7.65494 15.0394 9.26366 12.176 12.1169C12.176 12.1271 12.1668 12.1372 12.1557 12.1474L12.1262 12.1778C9.38281 14.9305 7.66865 18.7215 7.64927 22.9058C7.64927 22.9465 7.66865 22.9668 7.66865 22.9972C7.66865 23.0268 7.64927 23.0572 7.64927 23.0877C7.66523 27.1131 9.27065 30.9692 12.116 33.8166C12.1253 33.8258 12.1456 33.836 12.1557 33.8462C12.176 33.8563 12.176 33.8766 12.1862 33.8969C15.0515 36.7386 18.9194 38.3393 22.9548 38.3535C22.9751 38.3535 22.9853 38.3443 23.0056 38.3443C23.0259 38.3443 23.0462 38.3535 23.0665 38.3535C27.1112 38.3419 30.9867 36.7289 33.8453 33.8674C33.8545 33.8563 33.8554 33.8563 33.8554 33.8462ZM15.1585 15.1538C15.3489 14.9644 15.6066 14.858 15.8753 14.858C16.1439 14.858 16.4016 14.9644 16.592 15.1538C16.781 15.3444 16.887 15.6018 16.887 15.8702C16.887 16.1385 16.781 16.3959 16.592 16.5865C16.4016 16.7759 16.1439 16.8823 15.8753 16.8823C15.6066 16.8823 15.3489 16.7759 15.1585 16.5865C14.9693 16.3959 14.8631 16.1382 14.8631 15.8697C14.8631 15.6011 14.9693 15.3444 15.1585 15.1538ZM16.592 30.8434C16.4016 31.0328 16.1439 31.1392 15.8753 31.1392C15.6066 31.1392 15.3489 31.0328 15.1585 30.8434C14.9695 30.6529 14.8635 30.3954 14.8635 30.1271C14.8635 29.8587 14.9695 29.6013 15.1585 29.4108C15.3489 29.2213 15.6066 29.115 15.8753 29.115C16.1439 29.115 16.4016 29.2213 16.592 29.4108C16.781 29.6013 16.887 29.8587 16.887 30.1271C16.887 30.3954 16.781 30.6529 16.592 30.8434ZM23.0056 31.0742L14.9287 22.9972L23.0056 14.9203L31.0825 22.9972L23.0056 31.0742ZM30.849 30.8434C30.6586 31.0326 30.4011 31.1387 30.1327 31.1387C29.8643 31.1387 29.6067 31.0326 29.4163 30.8434C29.2274 30.6529 29.1214 30.3954 29.1214 30.1271C29.1214 29.8587 29.2274 29.6013 29.4163 29.4108C29.6066 29.2214 29.8642 29.115 30.1327 29.115C30.4011 29.115 30.6587 29.2214 30.849 29.4108C31.0379 29.6013 31.1439 29.8587 31.1439 30.1271C31.1439 30.3954 31.0379 30.6529 30.849 30.8434ZM30.849 16.5865C30.6586 16.7756 30.4011 16.8818 30.1327 16.8818C29.8643 16.8818 29.6067 16.7756 29.4163 16.5865C29.2271 16.3959 29.1209 16.1382 29.1209 15.8697C29.1209 15.6011 29.2271 15.3435 29.4163 15.1529C29.6066 14.9635 29.8642 14.8572 30.1327 14.8572C30.4011 14.8572 30.6587 14.9635 30.849 15.1529C31.0382 15.3435 31.1444 15.6011 31.1444 15.8697C31.1444 16.1382 31.0382 16.3959 30.849 16.5865Z" fill="#060D17"/>
</svg>
