<svg width="47" height="28" viewBox="0 0 47 28" fill="none" xmlns="http://www.w3.org/2000/svg">
<path d="M9.60026 10.1668C12.2466 10.1668 14.3919 8.02153 14.3919 5.37516C14.3919 2.7288 12.2466 0.583496 9.60026 0.583496C6.9539 0.583496 4.80859 2.7288 4.80859 5.37516C4.80859 8.02153 6.9539 10.1668 9.60026 10.1668Z" fill="white"/>
<path d="M16.1546 13.103C14.6213 12.1983 12.2427 11.125 9.59961 11.125C6.95653 11.125 4.57603 12.2002 3.04461 13.103C1.76811 13.8562 0.974609 15.3187 0.974609 16.9191V19.75H18.2246V16.9191C18.2246 15.3187 17.4311 13.8562 16.1546 13.103Z" fill="white"/>
<path opacity="0.1" d="M0.974609 19.271H18.2246V19.7502H0.974609V19.271Z" fill="#010101"/>
<path d="M38.3503 10.1668C40.9966 10.1668 43.1419 8.02153 43.1419 5.37516C43.1419 2.7288 40.9966 0.583496 38.3503 0.583496C35.7039 0.583496 33.5586 2.7288 33.5586 5.37516C33.5586 8.02153 35.7039 10.1668 38.3503 10.1668Z" fill="white"/>
<path d="M44.9046 13.103C43.3732 12.2002 40.9927 11.125 38.3496 11.125C35.7065 11.125 33.326 12.2002 31.7946 13.103C30.5181 13.8562 29.7246 15.3187 29.7246 16.9191V19.75H46.9746V16.9191C46.9746 15.3187 46.1811 13.8562 44.9046 13.103Z" fill="white"/>
<path opacity="0.1" d="M29.7246 19.271H46.9746V19.7502H29.7246V19.271Z" fill="#010101"/>
<path opacity="0.2" d="M38.3502 1.06266C40.3857 1.06266 42.1433 2.23758 42.9349 3.97983C42.3484 1.998 40.5199 0.583496 38.3502 0.583496C36.1806 0.583496 34.3482 2.0095 33.7617 3.99325C34.1638 3.1153 34.8105 2.37191 35.6243 1.85214C36.4382 1.33237 37.3846 1.05826 38.3502 1.06266Z" fill="white"/>
<path opacity="0.1" d="M38.3502 9.68738C37.3844 9.69162 36.4378 9.41723 35.624 8.8971C34.8101 8.37698 34.1635 7.63319 33.7617 6.75488C34.3482 8.74055 36.1786 10.1665 38.3502 10.1665C40.5218 10.1665 42.3503 8.74438 42.9368 6.76255C42.5346 7.63956 41.8879 8.38195 41.0744 8.90073C40.2609 9.4195 39.3151 9.69263 38.3502 9.68738Z" fill="#010101"/>
<path opacity="0.2" d="M44.9046 13.103C43.3732 12.2002 40.9927 11.125 38.3496 11.125C35.7065 11.125 33.326 12.2002 31.7946 13.103C30.5181 13.8562 29.7246 15.3187 29.7246 16.9191V17.3982C29.7246 15.7978 30.5181 14.3354 31.7946 13.5822C33.326 12.6794 35.7065 11.6042 38.3496 11.6042C40.9927 11.6042 43.3732 12.6794 44.9046 13.5822C46.1811 14.3354 46.9746 15.7978 46.9746 17.3982V16.9191C46.9746 15.3187 46.1811 13.8562 44.9046 13.103Z" fill="white"/>
<path d="M23.9749 14.0002C27.6798 14.0002 30.6833 10.9967 30.6833 7.29183C30.6833 3.58692 27.6798 0.583496 23.9749 0.583496C20.27 0.583496 17.2666 3.58692 17.2666 7.29183C17.2666 10.9967 20.27 14.0002 23.9749 14.0002Z" fill="white"/>
<path d="M34.2774 18.6597C31.8643 17.4082 28.1191 15.917 23.9753 15.917C19.8314 15.917 16.0863 17.4082 13.6732 18.6597C12.7329 19.1449 11.9446 19.88 11.3951 20.7843C10.8456 21.6885 10.5561 22.7268 10.5586 23.7849V27.417H37.3919V23.7849C37.3919 21.6191 36.1979 19.6564 34.2774 18.6597Z" fill="white"/>
<path opacity="0.2" d="M9.60022 1.06266C11.6357 1.06266 13.3933 2.23758 14.1849 3.97983C13.5984 1.998 11.7699 0.583496 9.60022 0.583496C7.43055 0.583496 5.59822 2.0095 5.01172 3.99325C5.41381 3.1153 6.06052 2.37191 6.87434 1.85214C7.68816 1.33237 8.63458 1.05826 9.60022 1.06266Z" fill="white"/>
<path opacity="0.1" d="M9.60022 9.68738C8.63438 9.69162 7.6878 9.41723 6.87396 8.8971C6.06011 8.37698 5.41353 7.63319 5.01172 6.75488C5.59822 8.74055 7.42864 10.1665 9.60022 10.1665C11.7718 10.1665 13.6003 8.74438 14.1868 6.76255C13.7846 7.63956 13.138 8.38195 12.3244 8.90073C11.5109 9.4195 10.5651 9.69263 9.60022 9.68738Z" fill="#010101"/>
<path opacity="0.2" d="M16.1546 13.1032C14.6213 12.1985 12.2427 11.1252 9.59961 11.1252C6.95653 11.1252 4.57603 12.2004 3.04461 13.1032C1.76811 13.8564 0.974609 15.3188 0.974609 16.9192V17.3984C0.974609 15.798 1.76811 14.3356 3.04461 13.5823C4.57603 12.6796 6.95653 11.6043 9.59961 11.6043C12.2427 11.6043 14.6232 12.6796 16.1546 13.5823C17.4311 14.3356 18.2246 15.798 18.2246 17.3984V16.9192C18.2246 15.3188 17.4311 13.8564 16.1546 13.1032ZM23.9746 1.06266C26.8017 1.06266 29.2301 2.76658 30.3149 5.19691C29.4294 2.527 26.9378 0.583496 23.9746 0.583496C21.0114 0.583496 18.5198 2.527 17.6343 5.19691C18.1785 3.96876 19.067 2.92464 20.1922 2.19091C21.3175 1.45719 22.6313 1.0653 23.9746 1.06266Z" fill="white"/>
<path opacity="0.1" d="M23.9751 13.521C22.6318 13.5183 21.318 13.1264 20.1927 12.3927C19.0675 11.659 18.179 10.6149 17.6348 9.38672C18.5203 12.0566 21.0119 14.0001 23.9751 14.0001C26.9383 14.0001 29.4299 12.0566 30.3154 9.38672C29.7712 10.6149 28.8827 11.659 27.7575 12.3927C26.6322 13.1264 25.3184 13.5183 23.9751 13.521Z" fill="#010101"/>
<path opacity="0.2" d="M34.2774 18.6597C31.8643 17.4082 28.1191 15.917 23.9753 15.917C19.8314 15.917 16.0863 17.4082 13.6732 18.6597C12.7329 19.1449 11.9446 19.88 11.3951 20.7843C10.8456 21.6885 10.5561 22.7268 10.5586 23.7849V24.2641C10.5586 22.0982 11.7527 20.1356 13.6732 19.1389C16.0863 17.8873 19.8314 16.3962 23.9753 16.3962C28.1191 16.3962 31.8643 17.8873 34.2774 19.1389C35.2177 19.6241 36.006 20.3592 36.5555 21.2634C37.105 22.1677 37.3944 23.206 37.3919 24.2641V23.7849C37.3919 21.6191 36.1979 19.6564 34.2774 18.6597Z" fill="white"/>
</svg>
