<svg width="36" height="44" viewBox="0 0 36 44" fill="none" xmlns="http://www.w3.org/2000/svg">
<path d="M1.60905 33.5361L16.0923 42.9023C16.671 43.282 17.3398 43.4628 18.009 43.4628C18.6597 43.4628 19.329 43.282 19.9077 42.9023L34.3909 33.5361C35.4032 32.8852 36 31.7823 36 30.5707V3.9187C36 1.98397 34.4271 0.392792 32.4742 0.392792H3.52579C1.59096 0.392792 0 1.98397 0 3.9187V30.5707C0 31.7823 0.596388 32.8852 1.60905 33.5361ZM9.69361 11.6444C11.2404 13.4746 12.2319 15.6904 12.5683 18.0754H6.4477C6.82513 15.634 7.94771 13.3934 9.69361 11.6444ZM12.5687 21.6917C12.2332 24.0762 11.2426 26.2918 9.69715 28.1222C7.94992 26.3649 6.82689 24.1242 6.44858 21.6917H12.5687ZM18.009 31.5833C16.1042 31.5833 14.2802 31.1256 12.6279 30.2677C14.6289 27.8249 15.8782 24.8637 16.2234 21.6917H20.1346C20.4639 24.7809 21.6368 27.7061 23.4993 30.1646C21.8147 31.0675 19.9408 31.5833 18.009 31.5833ZM26.3978 11.7627C28.0827 13.4994 29.1762 15.701 29.5501 18.0754H23.7906C24.1031 15.7752 24.9993 13.6013 26.3978 11.7627ZM29.5505 21.6917C29.1771 24.0662 28.0841 26.2682 26.3991 28.0054C24.9997 26.1667 24.1031 23.9927 23.7906 21.6917H29.5505ZM23.4975 9.60391C21.6364 12.0625 20.4639 14.9873 20.1346 18.0754H16.2234C15.8773 14.9042 14.628 11.9439 12.6274 9.50183C14.2798 8.64366 16.1038 8.18589 18.009 8.18589C19.9404 8.18589 21.8138 8.7016 23.4975 9.60391Z" fill="#060D17"/>
</svg>
