<svg width="20" height="20" viewBox="0 0 20 20" fill="none" xmlns="http://www.w3.org/2000/svg">
<path d="M16.0193 2.33672L16.0796 1.7582C16.0993 1.57851 16.0808 1.39668 16.0255 1.22458C15.9702 1.05248 15.8792 0.893982 15.7585 0.759425C15.6378 0.624868 15.4901 0.517278 15.3249 0.443676C15.1598 0.370075 14.9811 0.332115 14.8003 0.332276H4.25659C3.88178 0.332276 3.53141 0.487091 3.28696 0.764128C3.04252 1.03302 2.92844 1.39968 2.96918 1.7582L3.03111 2.34731C2.21931 2.37433 1.44967 2.71533 0.884275 3.2985C0.318885 3.88168 0.0018725 4.66151 0 5.47376V5.67746C0 8.13005 1.71926 10.2673 4.05778 10.8572C4.81311 13.2006 6.96667 14.8604 9.52844 14.8604C12.2092 14.8604 14.2584 13.0858 14.9779 10.9053C17.3841 10.3545 19.1481 8.18383 19.1481 5.67746V5.47376C19.1475 4.64337 18.8179 3.84706 18.2315 3.25912C17.6451 2.67119 16.8496 2.33952 16.0193 2.33672ZM1.62963 5.67746V5.47376C1.62963 4.64265 2.30593 3.96635 3.13704 3.96635H3.19L3.69518 9.01657C2.46563 8.39731 1.62963 7.10991 1.62963 5.67746ZM11.6551 6.22339L11.1581 6.70413C11.0359 6.82635 10.987 6.99746 11.0114 7.16857L11.1255 7.84487C11.1825 8.16265 10.9544 8.42339 10.6692 8.44783C10.5714 8.46413 10.4736 8.44783 10.3759 8.39079L9.76474 8.07302C9.61807 7.99153 9.43881 7.99153 9.284 8.07302L8.67289 8.39079C8.58752 8.43647 8.491 8.45715 8.39441 8.45046C8.29782 8.44378 8.20507 8.41 8.12681 8.353C8.04854 8.29601 7.98793 8.2181 7.95193 8.12822C7.91592 8.03834 7.90599 7.94014 7.92326 7.84487L7.97215 7.56783L8.03733 7.16857C8.05289 7.08507 8.04764 6.99901 8.02207 6.91801C7.99649 6.83701 7.95136 6.76356 7.89067 6.70413L7.39363 6.22339C7.09215 5.9219 7.25511 5.40857 7.67881 5.34339L8.36326 5.24561C8.53437 5.22116 8.68104 5.11524 8.75437 4.96042L9.05585 4.34116C9.25141 3.95005 9.80548 3.95005 9.98474 4.34116L10.2944 4.96042C10.3677 5.11524 10.5144 5.22116 10.6855 5.24561L11.3699 5.34339C11.7936 5.40857 11.9647 5.9219 11.6551 6.22339ZM17.5185 5.67746C17.516 6.38944 17.311 7.08602 16.9275 7.68591C16.544 8.2858 15.9979 8.76426 15.3527 9.06546L15.8612 3.96635H16.0111C16.8422 3.96635 17.5185 4.64265 17.5185 5.47376V5.67746ZM15.1205 19.8878C15.3366 19.8878 15.5439 19.802 15.6967 19.6492C15.8495 19.4964 15.9353 19.2891 15.9353 19.073C15.9353 18.8569 15.8495 18.6497 15.6967 18.4969C15.5439 18.344 15.3366 18.2582 15.1205 18.2582H13.301C12.8146 17.4882 12.3224 16.926 12.0299 16.0501C11.1923 16.3295 10.5021 16.4901 9.52844 16.4901C8.68126 16.4914 7.84031 16.3453 7.04326 16.0582C7.03511 16.0582 7.03511 16.0582 7.02696 16.0501C6.88029 16.4656 6.68474 16.8567 6.43215 17.2315L5.7477 18.2582H3.93067C3.71456 18.2582 3.50731 18.344 3.35451 18.4969C3.2017 18.6497 3.11585 18.8569 3.11585 19.073C3.11585 19.2891 3.2017 19.4964 3.35451 19.6492C3.50731 19.802 3.71456 19.8878 3.93067 19.8878H15.1205Z" fill="#1C1C1C"/>
</svg>
