<svg width="26" height="25" viewBox="0 0 26 25" fill="none" xmlns="http://www.w3.org/2000/svg">
<path d="M13.5658 22.8699H3.25707C1.80854 22.8699 0.63208 21.6745 0.63208 20.2027V4.65482C0.63208 3.18296 1.80854 1.98755 3.25707 1.98755H13.5658C15.0144 1.98755 16.1908 3.18296 16.1908 4.65482V20.2101C16.1908 21.682 15.0144 22.8699 13.5658 22.8699Z" fill="#E6E7E8"/>
<path d="M13.5661 23.5124H3.25734C1.46323 23.5124 0 22.0256 0 20.2026V4.65471C0 2.83171 1.46323 1.34491 3.25734 1.34491H13.5661C15.3602 1.34491 16.8235 2.83171 16.8235 4.65471V20.21C16.8235 22.033 15.3602 23.5124 13.5661 23.5124ZM3.25734 2.62998C2.16175 2.62998 1.27205 3.53401 1.27205 4.64724V20.2026C1.27205 21.3158 2.16175 22.2198 3.25734 22.2198H13.5661C14.6617 22.2198 15.5514 21.3158 15.5514 20.2026V4.65471C15.5514 3.54148 14.6617 2.63745 13.5661 2.63745H3.25734V2.62998Z" fill="#313339" fill-opacity="0.5"/>
<path d="M4.13206 8.00931C3.485 8.00931 2.95559 7.47138 2.95559 6.8139V6.25355H2.57324V5.6932H3.97029V6.25355H3.57324C3.57324 6.25355 3.56588 6.32826 3.57324 6.7616C3.57324 7.07539 3.83059 7.33689 4.13941 7.33689C4.33794 7.33689 4.52176 7.23229 4.6247 7.06045C4.70559 6.92597 4.70558 6.77654 4.70558 6.64206V5.484V4.11675H4.17618V3.5564H6.08058V4.11675H5.50705V6.64953C5.50705 6.82884 5.4997 6.97827 5.47764 7.09034C5.35999 7.71793 4.78647 8.00931 4.30853 8.00931H4.19088C4.17618 8.00931 4.16147 8.00931 4.15412 8.00931C4.13206 8.00931 4.13206 8.00931 4.13206 8.00931Z" fill="#313339" fill-opacity="0.5"/>
<path d="M13.0141 13.9715C13.5215 13.4261 13.8156 12.6565 13.7715 11.8197C13.698 10.3778 12.5877 9.21972 11.2347 9.145C9.88181 9.07029 8.74211 10.064 8.47005 11.3939C8.20534 10.064 7.05829 9.07776 5.71271 9.145C4.36713 9.21224 3.26419 10.3554 3.17596 11.7824C3.12449 12.5445 3.35978 13.2468 3.77154 13.7772L7.69064 19.6273C8.08034 20.1652 8.84505 20.1652 9.2274 19.6273L13.0141 13.9715Z" fill="#313339" fill-opacity="0.5"/>
<path d="M16.4848 24.0429L6.82311 20.3819C5.46282 19.8664 4.779 18.3348 5.279 16.9526L10.6246 2.376C11.1319 0.993806 12.6393 0.298972 13.9995 0.807023L23.6613 4.46798C25.0215 4.9835 25.7054 6.51512 25.2054 7.89732L19.8598 22.4739C19.3525 23.8561 17.8378 24.5584 16.4848 24.0429Z" fill="#E6E7E8"/>
<path d="M17.3967 24.8571C17.007 24.8571 16.6247 24.7899 16.257 24.6479L6.5953 20.987C5.77913 20.6806 5.13207 20.068 4.77178 19.2611C4.41149 18.4542 4.38207 17.5576 4.68354 16.7283L10.0291 2.15174C10.4997 0.866675 11.7276 0 13.0806 0C13.4703 0 13.8526 0.0672419 14.2203 0.209197L23.882 3.87015C24.6982 4.17648 25.3452 4.78912 25.7055 5.59603C26.0658 6.40293 26.0952 7.29949 25.7937 8.12881L20.4482 22.7054C19.9776 23.9904 18.7497 24.8571 17.3967 24.8571ZM13.0879 1.29254C12.2644 1.29254 11.5144 1.82301 11.2276 2.6075L5.87471 17.1841C5.69089 17.6921 5.7056 18.2375 5.92618 18.7306C6.14677 19.2237 6.54383 19.5973 7.04383 19.7841L16.7055 23.445C16.9335 23.5272 17.1614 23.5721 17.3967 23.5721C18.2202 23.5721 18.9702 23.0416 19.257 22.2571L24.6026 7.68053C24.7864 7.17248 24.7717 6.62707 24.5511 6.13396C24.3305 5.64086 23.9335 5.26729 23.4335 5.08051L13.7791 1.41955C13.5511 1.33737 13.3232 1.29254 13.0879 1.29254Z" fill="#313339" fill-opacity="0.5"/>
<path d="M18.8017 14.4123C18.8017 14.4123 17.5075 11.6853 17.0811 9.25712C16.9855 8.69677 16.3237 8.44275 15.8826 8.80137C14.0002 10.3554 11.2649 11.5508 11.2649 11.5508C10.3164 11.9468 9.61787 12.9554 9.8017 14.3003C9.85317 14.6738 10.0149 15.0325 10.2649 15.3164C11.3237 16.5267 12.8605 16.4595 13.787 15.6078C13.4561 16.3026 12.8237 17.4308 11.9414 18.1107C11.6693 18.3198 11.7282 18.7457 12.0443 18.8653L12.7723 19.1417L13.5002 19.4181C13.8164 19.5377 14.1326 19.2538 14.0664 18.9176C13.8384 17.8193 14.0884 16.5491 14.287 15.802C14.434 17.0572 15.5517 18.1331 17.1325 17.9239C17.5002 17.8716 17.8531 17.7147 18.1325 17.4606C19.1399 16.5716 19.2649 15.3463 18.8017 14.4123ZM13.6473 7.12779L13.8826 6.47778L14.2796 6.62721L14.2649 5.36456L13.2208 4.96857L12.412 5.92491L12.8899 6.10422L12.6546 6.75422L11.0296 6.14157L11.2649 5.49157L11.7282 5.67088L12.537 4.71455L12.2355 4.60248L12.4708 3.95247L13.0149 4.1542L14.3679 2.56281L14.9193 2.772L14.9414 4.88639L15.5076 5.10306L15.2723 5.75306L14.9561 5.63352L14.9708 6.89618L15.5076 7.0979L15.2723 7.74791L13.6473 7.12779ZM14.2576 4.62489L14.2502 3.76569L13.6987 4.4157L14.2576 4.62489Z" fill="#313339" fill-opacity="0.5"/>
<path d="M14.867 6.96345L14.8523 5.47665L15.2126 5.61114L15.3817 5.15538L14.8449 4.95366L14.8229 2.83927L14.4038 2.68237L13.0508 4.27377L12.5361 4.07951L12.367 4.53526L12.7126 4.66975L11.7641 5.79045L11.3302 5.62608L11.1611 6.08183L12.595 6.62724L12.7641 6.17149L12.2494 5.97723L13.1979 4.85653L14.3744 5.29734L14.3891 6.78414L13.9479 6.61977L13.7788 7.07552L15.2126 7.62092L15.3817 7.16517L14.867 6.96345ZM13.5288 4.45308L14.3523 3.48181L14.367 4.76688L13.5288 4.45308Z" fill="#313339" fill-opacity="0.5"/>
</svg>
