<svg width="24" height="24" xmlns="http://www.w3.org/2000/svg">
  <path d="m2.386,8.14879c-0.236,0.184 -0.386,0.469 -0.386,0.789l0,11c0,0.828 0.337,1.58 0.879,2.121s1.293,0.879 2.121,0.879l14,0c0.828,0 1.58,-0.337 2.121,-0.879s0.879,-1.293 0.879,-2.121l0,-11c-0.001,-0.3 -0.134,-0.593 -0.386,-0.789l-9,-7c-0.358,-0.275 -0.861,-0.285 -1.228,0l-9,7zm13.614,12.789l-8,0l-3,0c-0.276,0 -0.525,-0.111 -0.707,-0.293s-0.293,-0.431 -0.293,-0.707l0,-10.511l8,-6.222l8,6.222l0,10.511c0,0.276 -0.111,0.525 -0.293,0.707s-0.431,0.293 -0.707,0.293l-3,0zm-6,0l4,0l-4,0z" fill="#fff"/>
</svg>