<svg width="26" height="26" viewBox="0 0 26 26" fill="none" xmlns="http://www.w3.org/2000/svg">
<path d="M0.500488 12.6333C0.500488 5.72975 6.09694 0.133301 13.0005 0.133301C19.904 0.133301 25.5005 5.72975 25.5005 12.6333C25.5005 19.5369 19.904 25.1333 13.0005 25.1333C6.09694 25.1333 0.500488 19.5369 0.500488 12.6333ZM18.8844 10.3922C19.3725 9.90403 19.3725 9.11258 18.8844 8.62443C18.3962 8.13625 17.6048 8.13625 17.1166 8.62443L11.7505 13.9905L8.88437 11.1244C8.39621 10.6363 7.60476 10.6363 7.11661 11.1244C6.62844 11.6126 6.62844 12.404 7.11661 12.8922L10.8666 16.6422C11.3548 17.1304 12.1462 17.1304 12.6344 16.6422L18.8844 10.3922Z" fill="#1A8918"/>
</svg>
