<svg width="19" height="20" viewBox="0 0 19 20" fill="none" xmlns="http://www.w3.org/2000/svg">
<path d="M18.2505 8.99743L16.4641 7.20343V4.67343C16.4641 3.82243 15.7741 3.13243 14.9231 3.13243H12.3778L10.5915 1.3461C10.0126 0.735066 8.97534 0.754233 8.40647 1.33843L6.62014 3.13243H4.08247C3.23147 3.13243 2.54147 3.82243 2.54147 4.67343V7.20343L0.755141 8.98976C0.157141 9.59543 0.157141 10.5691 0.755141 11.1671L2.54147 12.9611V15.5064C2.54147 16.3574 3.23147 17.0474 4.08247 17.0474H6.62014L8.42181 18.8568C8.71309 19.1395 9.10386 19.2964 9.50978 19.2935C9.9157 19.2906 10.3042 19.1283 10.5915 18.8414L12.3778 17.0474H14.9231C15.7741 17.0474 16.4641 16.3574 16.4641 15.5064V12.9611L18.2505 11.1671H18.2581C18.8408 10.5691 18.8408 9.59543 18.2505 8.99743ZM10.2695 13.0224C10.2695 13.4441 9.92447 13.7891 9.50281 13.7891C9.07347 13.7891 8.73614 13.4441 8.73614 13.0224V10.3928C8.73614 9.9711 9.07347 9.6261 9.50281 9.6261C9.92447 9.6261 10.2695 9.9711 10.2695 10.3928V13.0224ZM9.50281 8.0621C8.96614 8.0621 8.54447 7.63276 8.54447 7.10376C8.54447 6.57476 8.96614 6.14543 9.50281 6.14543C10.0241 6.14543 10.4611 6.57476 10.4611 7.10376C10.4611 7.63276 10.0241 8.0621 9.50281 8.0621Z" fill="#385A46"/>
</svg>
