<svg width="19" height="18" viewBox="0 0 19 18" fill="none" xmlns="http://www.w3.org/2000/svg">
<path d="M4.08178 17.5155C3.86748 17.3595 3.76067 17.0956 3.80557 16.8347L4.73116 11.443L0.956687 7.76262L0.807695 7.61329C0.621285 7.42688 0.555973 7.15135 0.638973 6.90115C0.722314 6.65096 0.939339 6.46914 1.20025 6.43122L6.61091 5.6468L9.0356 0.738897C9.15296 0.501122 9.39516 0.350769 9.66015 0.350769C9.92514 0.350939 10.1677 0.501462 10.285 0.739237L12.705 5.64612L18.1201 6.43122C18.381 6.46914 18.598 6.65079 18.681 6.90098C18.7643 7.15101 18.6994 7.42654 18.5129 7.61312L18.3701 7.75616L14.5847 11.4432L15.5151 16.834C15.5606 17.0974 15.4515 17.3634 15.2341 17.5191C15.0181 17.6733 14.7312 17.6931 14.4949 17.5641L14.435 17.5313C14.3924 17.5127 14.7003 17.6721 9.66015 15.0199L4.81416 17.5701C4.58258 17.6913 4.29794 17.6732 4.08178 17.5155Z" fill="#003EB6"/>
<path d="M18.0206 7.12081C16.8501 6.95098 21.0234 7.5565 12.2425 6.28243L9.66067 1.04739L7.07412 6.28243L7.01693 6.29197L1.30078 7.12081L1.43893 7.25893C7.30608 12.9808 4.8638 10.599 5.47835 11.1983L5.46408 11.2936L4.49231 16.9526C11.5607 13.2327 9.14085 14.5062 9.66067 14.2327L14.7195 16.8954H14.7242L14.829 16.9526L13.8525 11.2936L13.8382 11.1983L17.8777 7.26372L18.0206 7.12081Z" fill="#F4BC5F"/>
<path d="M18.0202 7.12076L17.8771 7.26378L9.66016 9.93133L12.3039 6.29208L18.0202 7.12076Z" fill="#3F83D3"/>
<path d="M12.3039 6.29207L9.66016 9.93132V1.04755L12.242 6.28226L12.3039 6.29207Z" fill="#3F83D3"/>
<path d="M9.66 1.04755V9.93132L7.0166 6.29207L7.07358 6.28226L9.66 1.04755Z" fill="#1758A6"/>
<path d="M9.6604 9.93133L1.44342 7.26378L1.43889 7.25888L1.30078 7.12076L7.01701 6.29208L9.6604 9.93133Z" fill="#3F83D3"/>
<path d="M5.46374 11.2936L5.47808 11.1985L1.44336 7.26379L9.66034 9.93134L5.46374 11.2936Z" fill="#1758A6"/>
<path d="M9.66049 9.93134L4.602 16.8955L4.49219 16.9525L5.46389 11.2936L9.66049 9.93134Z" fill="#3F83D3"/>
<path d="M9.66005 9.93134V14.2328L4.60156 16.8955L9.66005 9.93134Z" fill="#1758A6"/>
<path d="M14.719 16.8955L9.66016 14.2328V9.93134L14.719 16.8955Z" fill="#1758A6"/>
<path d="M14.8288 16.9525L14.7239 16.8955H14.719L9.66016 9.93134L13.8522 11.2936L14.8288 16.9525Z" fill="#3F83D3"/>
<path d="M13.8379 11.1985L13.8522 11.2936L9.66016 9.93134L17.8771 7.26379L13.8379 11.1985Z" fill="#1758A6"/>
</svg>
