<svg width="26" height="27" viewBox="0 0 26 27" fill="none" xmlns="http://www.w3.org/2000/svg">
<path d="M6.34719 6.39337H3.9589C3.53176 6.39337 3.18262 6.74436 3.18262 7.18216V12.2885C3.18262 12.7263 3.53176 13.0811 3.9589 13.0811H6.34719C6.77433 13.0811 7.12719 12.7263 7.12719 12.2885V7.18216C7.12719 6.74436 6.77433 6.39337 6.34719 6.39337ZM6.1949 8.82767L5.0769 11.0355C4.99259 11.2023 4.7961 11.3016 4.57176 11.2016C4.48441 11.1542 4.41878 11.074 4.38893 10.978C4.35908 10.8821 4.36737 10.7781 4.41205 10.6883L5.25147 9.03147H4.44547C4.23747 9.03147 4.07405 8.86164 4.07405 8.65406C4.07405 8.44271 4.23747 8.27288 4.44547 8.27288H5.86433C5.99433 8.27288 6.11319 8.34081 6.18004 8.45403C6.25062 8.56726 6.25805 8.71067 6.1949 8.82767ZM11.3875 6.39337H8.99547C8.56833 6.39337 8.21919 6.74436 8.21919 7.18216V12.2885C8.21919 12.7263 8.56833 13.0811 8.99547 13.0811H11.3875C11.8183 13.0811 12.1638 12.7263 12.1638 12.2885V7.18216C12.1638 6.74436 11.8183 6.39337 11.3875 6.39337ZM11.302 8.82767L10.1878 11.0355C10.102 11.2054 9.89433 11.3024 9.68262 11.2016C9.4969 11.1035 9.42633 10.8732 9.51919 10.6883L10.3586 9.03147H9.5489C9.4499 9.03147 9.35495 8.99151 9.28495 8.92038C9.21494 8.84925 9.17562 8.75277 9.17562 8.65218C9.17562 8.55158 9.21494 8.4551 9.28495 8.38397C9.35495 8.31284 9.4499 8.27288 9.5489 8.27288H10.9678C11.0978 8.27288 11.224 8.34081 11.2909 8.45403C11.3578 8.56726 11.3615 8.71067 11.302 8.82767ZM16.424 6.39337H14.0395C13.6049 6.39337 13.2558 6.74436 13.2558 7.18216V12.2885C13.2558 12.7263 13.6049 13.0811 14.0395 13.0811H16.424C16.8549 13.0811 17.2003 12.7263 17.2003 12.2885V7.18216C17.2003 6.74436 16.8549 6.39337 16.424 6.39337ZM16.4092 8.82767L15.2949 11.0355C15.208 11.2072 15.0015 11.3024 14.7898 11.2016C14.6078 11.1035 14.5298 10.8732 14.63 10.6883L15.462 9.03147H14.6598C14.5608 9.03147 14.4658 8.99151 14.3958 8.92038C14.3258 8.84925 14.2865 8.75277 14.2865 8.65218C14.2865 8.55158 14.3258 8.4551 14.3958 8.38397C14.4658 8.31284 14.5608 8.27288 14.6598 8.27288H16.0749C16.2086 8.27288 16.3275 8.34081 16.398 8.45403C16.4649 8.56726 16.4686 8.71067 16.4092 8.82767Z" fill="#313339" fill-opacity="0.5"/>
<path d="M23.0363 10.8129V6.47151C23.3943 6.38108 23.7072 6.16047 23.9159 5.85143C24.1246 5.54239 24.2146 5.16634 24.1688 4.79444C24.1231 4.42253 23.9447 4.08056 23.6676 3.83322C23.3905 3.58589 23.0337 3.45034 22.6649 3.45222C22.296 3.45034 21.9393 3.58589 21.6621 3.83322C21.385 4.08056 21.2067 4.42253 21.1609 4.79444C21.1152 5.16634 21.2052 5.54239 21.4139 5.85143C21.6225 6.16047 21.9355 6.38108 22.2934 6.47151V10.76H21.3797V9.89953C21.3797 9.1032 20.7372 8.45027 19.9497 8.45027H19.1512V7.41994C19.1512 5.80463 17.8994 4.48746 16.332 4.40821V3.43449C16.332 2.45699 15.5483 1.66443 14.5863 1.66443H5.76858C4.80658 1.66443 4.02286 2.45699 4.02286 3.43449V4.41575C2.50001 4.54407 1.30029 5.83859 1.30029 7.41994V17.9761C1.30029 19.6405 2.63001 20.9916 4.26801 20.9916H5.77601C6.24029 23.1429 8.13086 24.7544 10.3854 24.7544C12.64 24.7544 14.5306 23.1429 14.9949 20.9916H16.1834C17.8177 20.9916 19.1512 19.6405 19.1512 17.9761V16.9458H19.9497C20.3283 16.9458 20.6915 16.7932 20.9596 16.5215C21.2276 16.2499 21.3787 15.8812 21.3797 15.4965V15.0587H22.5832C23.7602 15.0587 24.7003 14.0945 24.7003 12.9075C24.7003 11.8809 23.9872 11.0204 23.0363 10.8129ZM20.6369 15.4965C20.6369 15.8777 20.3286 16.191 19.9497 16.191H19.1586V9.2051H19.9497C20.3286 9.2051 20.6369 9.51835 20.6369 9.89953C20.635 9.83047 20.6294 11.2748 20.6369 15.4965ZM16.1834 20.2368H15.0952C15.136 19.7409 15.0729 19.0933 14.876 18.4781C15.2704 18.4113 15.6286 18.2042 15.8865 17.8938C16.1444 17.5833 16.2852 17.1898 16.2837 16.7835C16.2837 15.8324 15.526 15.0625 14.59 15.0587H6.18086C5.95813 15.0587 5.73758 15.1034 5.53185 15.1901C5.32612 15.2768 5.13924 15.4039 4.98191 15.5641C4.82459 15.7243 4.69991 15.9145 4.61501 16.1238C4.53011 16.333 4.48666 16.5572 4.48715 16.7835C4.48681 17.1895 4.62802 17.5824 4.88572 17.8926C5.14342 18.2029 5.50095 18.4103 5.89487 18.4781C5.69875 19.091 5.63486 19.7367 5.67572 20.2368H4.26801C3.03858 20.2368 2.04315 19.2216 2.04315 17.9761V7.41994C2.04315 6.17449 3.03858 5.15925 4.26801 5.15925C5.59846 5.15963 16.9007 5.16039 16.1834 5.15925C16.7732 5.16025 17.3385 5.39875 17.7556 5.8225C18.1726 6.24624 18.4073 6.82068 18.4083 7.41994V17.9761C18.4083 19.2216 17.4092 20.2368 16.1834 20.2368ZM10.3854 23.9996C8.23486 23.9996 6.53595 22.2635 6.41858 20.2368C6.23621 17.9856 8.03652 15.9155 10.3854 15.9155C12.7485 15.9155 14.5354 18.0041 14.3523 20.2368C14.2349 22.2628 12.5371 23.9996 10.3854 23.9996Z" fill="#313339" fill-opacity="0.5"/>
<path d="M11.2805 19.9349C11.0948 19.8557 10.8645 19.784 10.5823 19.7161V18.3083C10.8868 18.3196 11.1691 18.3725 11.4328 18.4668C11.5528 18.5114 11.639 18.4823 11.6965 18.414C11.7972 18.2943 11.7913 18.0724 11.5963 18.0064C11.3028 17.8894 10.9648 17.8252 10.5823 17.8101V17.4025C10.5823 17.2901 10.4968 17.2176 10.404 17.2176C10.3052 17.2176 10.2294 17.2916 10.2294 17.4025V17.8177C9.35134 17.8894 8.9294 18.4366 8.9294 19.0254C8.9294 19.7613 9.53966 19.9991 10.2294 20.184V21.5465C9.88397 21.5314 9.5534 21.4521 9.23769 21.3087C9.14 21.2691 9.02709 21.277 8.9554 21.3616C8.91083 21.4106 8.88854 21.4672 8.88854 21.5352C8.88854 21.6416 8.95986 21.7409 9.05197 21.7767C9.41597 21.9352 9.80969 22.0296 10.2294 22.056V22.4749C10.2294 22.5897 10.2992 22.6523 10.404 22.6523C10.5147 22.6523 10.5823 22.5798 10.5823 22.4749V22.056C11.6442 21.996 12.0832 21.2487 11.8934 20.6143C11.8303 20.3029 11.5677 20.064 11.2805 19.9349ZM9.46054 18.9839C9.46054 18.5744 9.83086 18.3789 10.2294 18.3272V19.6292C9.84609 19.5262 9.46054 19.3869 9.46054 18.9839ZM10.5823 21.5465V20.2746C10.9455 20.3746 11.4068 20.4958 11.4068 20.8709C11.4068 21.3434 11.0465 21.5148 10.5823 21.5465ZM13.1377 19.5047C12.5805 19.5047 12.5835 20.3539 13.1377 20.3539C13.2455 20.3493 13.3473 20.3025 13.422 20.2234C13.4966 20.1443 13.5383 20.0389 13.5383 19.9293C13.5383 19.8197 13.4966 19.7143 13.422 19.6352C13.3473 19.5561 13.2455 19.5093 13.1377 19.5047ZM7.63311 19.5613C7.57819 19.5615 7.52385 19.5727 7.47319 19.5943C7.42253 19.6159 7.37655 19.6474 7.33787 19.687C7.29919 19.7266 7.26857 19.7736 7.24775 19.8252C7.22694 19.8769 7.21634 19.9322 7.21656 19.988C7.21678 20.0438 7.22781 20.099 7.24903 20.1505C7.27025 20.2019 7.30124 20.2487 7.34023 20.288C7.37923 20.3273 7.42545 20.3584 7.47628 20.3795C7.52711 20.4007 7.58153 20.4115 7.63646 20.4112C7.74738 20.4107 7.85356 20.3655 7.93164 20.2854C8.00973 20.2054 8.05332 20.0971 8.05283 19.9844C8.05234 19.8717 8.0078 19.7638 7.92902 19.6844C7.85024 19.6051 7.74403 19.5608 7.63311 19.5613Z" fill="#313339" fill-opacity="0.5"/>
</svg>
