<svg width="43" height="42" viewBox="0 0 43 42" fill="none" xmlns="http://www.w3.org/2000/svg">
<path d="M41.9243 16.6684C39.5319 5.34899 28.4171 -1.88726 17.0977 0.505114C5.77839 2.89749 -1.45787 14.0123 0.934511 25.3317C3.32689 36.651 14.4417 43.8873 25.7611 41.4949C37.0804 39.1025 44.3174 27.9866 41.9243 16.6684ZM21.2724 25.4545L17.0703 31.9089L18.5385 34.3182C18.9407 34.7805 19.026 35.5251 18.7288 35.9816L18.191 36.8076L13.7273 32.8099L8.27626 30.3527L8.81406 29.5266C9.11124 29.0701 9.82952 28.8377 10.4182 29.0064L13.2273 29.385L17.4201 22.9449L5.10662 17.6267L5.77188 16.6049C6.10631 16.0912 6.85466 15.8126 7.44405 15.9802L20.751 17.8262L25.7358 10.1696C27.0119 8.2095 28.024 7.37902 29.62 8.41809C31.216 9.45716 30.8661 10.7187 29.59 12.6788L24.6045 20.3365L31.6733 31.7546C32.0755 32.2169 32.13 33.0088 31.7963 33.5214L31.1189 34.5619L21.2724 25.4545Z" fill="#060D17"/>
</svg>
