<svg width="24" height="25" viewBox="0 0 24 25" fill="none" xmlns="http://www.w3.org/2000/svg">
<g clip-path="url(#clip0_12124_7851)">
<path d="M23.0767 4.40568C23.0767 2.50165 21.5444 0.954041 19.6705 0.954041H4.31977C2.44593 0.954041 0.922852 2.50165 0.922852 4.40568V20.0037C0.922852 21.9077 2.44593 23.4647 4.31977 23.4647H19.6705C20.5732 23.4622 21.4381 23.0968 22.0764 22.4483C22.7146 21.7997 23.0743 20.9208 23.0767 20.0037V4.40568ZM10.6059 17.9777C10.6059 18.6718 10.0521 19.244 9.369 19.244H6.31362C5.63054 19.244 5.06747 18.6718 5.06747 17.9777V14.7981C5.06747 14.104 5.63054 13.5319 6.31362 13.5319H9.369C10.0521 13.5319 10.6059 14.104 10.6059 14.7981V17.9777ZM10.6059 9.45182C10.6059 10.1459 10.0521 10.718 9.369 10.718H6.31362C5.63054 10.718 5.06747 10.1459 5.06747 9.45182V6.44101C5.06747 5.74694 5.63054 5.17479 6.31362 5.17479H9.369C10.0521 5.17479 10.6059 5.74694 10.6059 6.44101V9.45182ZM18.9136 17.9777C18.9136 18.6718 18.3598 19.244 17.6767 19.244H14.6213C13.9382 19.244 13.3752 18.6718 13.3752 17.9777V14.7981C13.3752 14.104 13.9382 13.5319 14.6213 13.5319H17.6767C18.3598 13.5319 18.9136 14.104 18.9136 14.7981V17.9777ZM18.9136 9.45182C18.9136 10.1459 18.3598 10.718 17.6767 10.718H14.6213C13.9382 10.718 13.3752 10.1459 13.3752 9.45182V6.44101C13.3752 5.74694 13.9382 5.17479 14.6213 5.17479H17.6767C18.3598 5.17479 18.9136 5.74694 18.9136 6.44101V9.45182Z" fill="#313339" fill-opacity="0.5"/>
</g>
<defs>
<clipPath id="clip0_12124_7851">
<rect width="24" height="24.3865" fill="white" transform="translate(0 0.0161133)"/>
</clipPath>
</defs>
</svg>
