<svg width="10" height="12" viewBox="0 0 10 12" fill="none" xmlns="http://www.w3.org/2000/svg">
<path d="M7.6413 9.6C6.668 9.6 6.02522 9.3552 5.60035 9.0708C5.91078 10.0086 6.60956 10.8 7.26087 10.8C7.34159 10.8 7.419 10.8316 7.47608 10.8879C7.53315 10.9441 7.56522 11.0204 7.56522 11.1C7.56522 11.1796 7.53315 11.2559 7.47608 11.3121C7.419 11.3684 7.34159 11.4 7.26087 11.4H3C2.91928 11.4 2.84187 11.3684 2.78479 11.3121C2.72772 11.2559 2.69565 11.1796 2.69565 11.1C2.69565 11.0204 2.72772 10.9441 2.78479 10.8879C2.84187 10.8316 2.91928 10.8 3 10.8C3.6513 10.8 4.35009 10.008 4.66052 9.0708C4.23565 9.3552 3.59287 9.6 2.61957 9.6C1.27496 9.6 0.26087 8.478 0.26087 6.99C0.26087 6.3 0.501305 5.6502 0.937739 5.1588L4.90156 0.702C4.93093 0.671197 4.96639 0.646648 5.00576 0.629868C5.04512 0.613087 5.08755 0.60443 5.13043 0.60443C5.17332 0.60443 5.21575 0.613087 5.25511 0.629868C5.29447 0.646648 5.32993 0.671197 5.3593 0.702L9.32313 5.1588C9.75957 5.6502 10 6.3 10 6.99C10 8.478 8.98591 9.6 7.6413 9.6Z" fill="white"/>
</svg>
