<svg width="26" height="25" viewBox="0 0 26 25" fill="none" xmlns="http://www.w3.org/2000/svg">
<path d="M13.6272 22.8961L3.27433 22.9045C1.82725 22.9045 0.653044 21.7114 0.653044 20.241L0.644775 4.62125C0.644775 3.15086 1.81898 1.95774 3.26606 1.95774L13.6189 1.94934C15.066 1.94934 16.2402 3.14246 16.2402 4.61285L16.2485 20.2242C16.2567 21.703 15.0825 22.8961 13.6272 22.8961Z" fill="#E6E7E8"/>
<path d="M3.26627 23.5683C1.47189 23.5683 0.00826955 22.0811 0.00826955 20.2578L0 4.64648C0 3.76424 0.339031 2.93242 0.95094 2.30225C1.56285 1.68049 2.38149 1.336 3.24974 1.336H13.6109C15.4052 1.336 16.8689 2.82319 16.8689 4.64648L16.8771 20.2578C16.8771 21.1401 16.5381 21.9719 15.9262 22.602C15.3143 23.2238 14.4956 23.5683 13.6274 23.5683H3.26627ZM13.6109 2.62994L3.25801 2.63834C2.72879 2.63834 2.22437 2.8484 1.85227 3.2349C1.48016 3.613 1.27343 4.12554 1.27343 4.66328L1.2817 20.2746C1.2817 21.3921 2.17476 22.2912 3.27454 22.2912L13.6274 22.2828C14.1566 22.2828 14.661 22.0727 15.0331 21.6862C15.4052 21.3081 15.612 20.7956 15.612 20.2578L15.6037 4.64648C15.6037 3.52898 14.7106 2.62994 13.6109 2.62994Z" fill="#313339" fill-opacity="0.5"/>
<path d="M12.8832 13.1999L9.13736 8.78032C8.76526 8.34341 8.09546 8.34341 7.73162 8.78032L3.99402 13.1999C3.69633 13.5528 3.69633 14.0737 3.99402 14.435L7.73989 18.8546C8.112 19.2915 8.78179 19.2915 9.14563 18.8546L12.8832 14.435C13.1892 14.0737 13.1892 13.5528 12.8832 13.1999Z" fill="#313339" fill-opacity="0.5"/>
<path d="M16.5298 24.0724L6.81365 20.4343C5.45753 19.9217 4.76293 18.3925 5.25907 17.0146L10.5761 2.36947C11.0805 0.991506 12.5854 0.285718 13.9416 0.789852L23.6577 4.42802C25.0138 4.94055 25.7084 6.46976 25.2123 7.84773L19.8953 22.4928C19.3991 23.8708 17.8942 24.5766 16.5298 24.0724Z" fill="#E6E7E8"/>
<path d="M17.4224 24.9043C17.042 24.9043 16.6616 24.837 16.2978 24.7026L6.58166 21.0644C4.89477 20.4343 4.03479 18.527 4.65497 16.8129L9.97197 2.16784C10.4433 0.873893 11.6671 6.10352e-05 13.0315 6.10352e-05C13.4119 6.10352e-05 13.7923 0.067279 14.1561 0.201715L23.8722 3.83988C24.6909 4.14236 25.3359 4.75572 25.6997 5.56234C26.0635 6.36895 26.0966 7.26799 25.7989 8.09141L20.4819 22.7365C20.0106 24.0304 18.7785 24.9043 17.4224 24.9043ZM13.0232 1.2856C12.1963 1.2856 11.4439 1.81494 11.1544 2.60475L5.83744 17.2498C5.45707 18.2917 5.98628 19.4596 7.01165 19.8461L16.7278 23.4843C16.951 23.5683 17.1826 23.6103 17.4141 23.6103C18.241 23.6103 18.9935 23.081 19.2829 22.2912L24.5999 7.64609C24.7818 7.14196 24.7653 6.58741 24.542 6.10008C24.3188 5.61275 23.9219 5.23465 23.4257 5.0498L13.7096 1.41164C13.4863 1.32761 13.2548 1.2856 13.0232 1.2856Z" fill="#313339" fill-opacity="0.5"/>
<path d="M2.99298 8.4527L4.22507 6.90669L4.04315 6.88148C3.6297 6.83107 3.29066 6.68823 3.02606 6.46137C2.71183 6.1925 2.56299 5.83961 2.56299 5.37748C2.56299 4.81454 2.7201 4.37762 3.05913 4.04993C3.22451 3.89029 3.40643 3.76426 3.62143 3.68864C3.81161 3.61302 4.02661 3.57941 4.26641 3.57941C4.74602 3.57941 5.13466 3.73065 5.44889 4.04993C5.77965 4.38602 5.93676 4.81453 5.93676 5.36068C5.93676 5.66316 5.87061 5.96564 5.7383 6.25132C5.61427 6.50338 5.39927 6.83107 5.08505 7.21757L4.10103 8.4611L2.99298 8.4527ZM4.0018 4.57927C3.90257 4.61288 3.81161 4.6801 3.72892 4.75572C3.58008 4.90696 3.51393 5.08341 3.51393 5.28506C3.51393 5.48671 3.58835 5.66316 3.73719 5.8144C3.88604 5.95724 4.05969 6.03286 4.25814 6.03286C4.3491 6.03286 4.43179 6.01605 4.50621 5.99085C4.60544 5.95724 4.6964 5.89002 4.77909 5.8144C4.92794 5.66316 4.99409 5.48671 4.99409 5.28506C4.99409 5.08341 4.91967 4.90696 4.77082 4.76412C4.62198 4.62128 4.44833 4.54566 4.24987 4.54566C4.15892 4.52886 4.07622 4.54566 4.0018 4.57927Z" fill="#313339" fill-opacity="0.5"/>
<path d="M17.8856 12.8975C17.8773 12.8975 17.869 12.8891 17.8608 12.8891C18.0758 12.637 18.2494 12.343 18.3652 12.0069C18.8696 10.5617 18.1171 8.98207 16.7031 8.46954C15.2808 7.957 13.7263 8.7216 13.2218 10.1584C13.1061 10.4945 13.0565 10.8306 13.073 11.1583C13.0647 11.1583 13.0565 11.1498 13.0482 11.1498C11.6259 10.6373 10.0713 11.4019 9.56692 12.8387C9.06251 14.2839 9.815 15.8635 11.229 16.376C12.1221 16.6953 13.0647 16.5105 13.7676 15.9727C13.412 16.7289 12.7836 17.838 11.9153 18.5354C11.6259 18.7623 11.7003 19.2244 12.0394 19.342L12.8249 19.6277L13.6105 19.9134C13.9495 20.0394 14.2885 19.7285 14.2059 19.3672C13.9578 18.2665 14.1562 17.0062 14.3382 16.1912C14.5532 17.0566 15.1733 17.8044 16.0664 18.1237C17.4887 18.6362 19.0433 17.8716 19.5477 16.4349C20.0521 14.9897 19.3079 13.41 17.8856 12.8975ZM15.8101 4.05837L16.1656 4.1928L16.4054 3.51222L14.7764 2.90726L14.5284 3.58784L14.8095 3.68867L12.982 4.43647L13.4286 3.18453L13.9743 3.38619L14.2141 2.70561L12.5769 2.10065L12.3371 2.78123L12.7588 2.94087L11.7169 5.86485L11.2869 5.71361L11.0471 6.38579L12.6844 6.99075L12.9242 6.31016L12.3867 6.11691L12.6595 5.34391L13.2549 5.10024L13.8172 6.64625L13.4865 6.52022L13.2384 7.2008L14.8757 7.79736L15.1155 7.12518L14.6937 6.96554L13.9164 4.83137L15.8101 4.05837Z" fill="#313339" fill-opacity="0.5"/>
</svg>
