<svg width="26" height="27" viewBox="0 0 26 27" fill="none" xmlns="http://www.w3.org/2000/svg">
<path d="M19.6038 7.02294C19.3438 6.38889 18.7198 5.91335 17.9918 5.91335H12.9998V4.69809C12.9998 4.64525 12.9998 4.59242 12.9478 4.53958C12.8958 4.38107 12.7398 4.27539 12.5318 4.27539H8.94382C8.78782 4.27539 8.63182 4.38107 8.52782 4.53958C8.52782 4.59242 8.47582 4.64525 8.47582 4.69809V5.91335H3.53582C2.80782 5.91335 2.18382 6.33605 1.92382 7.02294C1.87182 7.18145 1.81982 7.33997 1.76782 7.49848H19.7078C19.7078 7.33997 19.6558 7.18145 19.6038 7.02294ZM1.81982 18.2773H1.76782V23.0855C1.76782 24.0895 2.54782 24.882 3.53582 24.882H5.35582V22.1345C5.35582 21.8703 5.40782 21.6061 5.51182 21.3419C5.82382 20.655 6.49982 20.1795 7.22782 20.1795H14.2998C15.0798 20.1795 15.7558 20.655 16.0158 21.3419C16.1198 21.6061 16.1718 21.8174 16.1718 22.1345V24.882H17.9398C18.9278 24.882 19.7078 24.0895 19.7078 23.0855V18.2773H19.6558H1.81982Z" fill="#313339" fill-opacity="0.5"/>
<path d="M14.2995 21.289H7.22753C6.86353 21.289 6.55153 21.5003 6.44753 21.8174C6.39553 21.923 6.39553 22.0287 6.39553 22.1344V24.8819H15.1835V22.1344C15.1835 22.0287 15.1835 21.923 15.1315 21.8174C14.9235 21.5003 14.6635 21.289 14.2995 21.289ZM25.4795 4.06395C25.4795 2.74301 24.3875 1.63342 23.0875 1.63342C21.7355 1.63342 20.6955 2.74301 20.6955 4.06395C20.6955 5.06786 21.2675 5.91326 22.0995 6.28312V12.0424H21.0075V9.87608C21.0075 9.13635 20.4355 8.55514 19.7075 8.55514H1.81953C1.09153 8.55514 0.519531 9.13635 0.519531 9.87608V15.8996C0.519531 16.6393 1.09153 17.2205 1.81953 17.2205H19.6555C20.3835 17.2205 20.9555 16.6393 20.9555 15.8996V14.1031H22.5675C22.5675 14.1031 22.5675 14.1031 22.6195 14.1031H23.5035C23.5035 14.1031 23.5035 14.1031 23.5555 14.1031H23.6075C23.9195 14.1031 24.1795 13.8389 24.1795 13.5219V12.6236C24.1795 12.518 24.1275 12.4123 24.0755 12.3594V6.28312C24.9075 5.91326 25.4795 5.06786 25.4795 4.06395ZM6.60353 15.0542C6.60353 15.2655 6.44753 15.4769 6.18753 15.4769H2.75553C2.54753 15.4769 2.33953 15.3183 2.33953 15.0542V10.6158C2.33953 10.4045 2.49553 10.2459 2.75553 10.2459H6.23953C6.44753 10.2459 6.65553 10.4045 6.65553 10.6158V15.0542H6.60353ZM12.8435 15.0542C12.8435 15.2655 12.6875 15.4769 12.4275 15.4769H8.94353C8.73553 15.4769 8.52753 15.3183 8.52753 15.0542V10.6158C8.52753 10.4045 8.68353 10.2459 8.94353 10.2459H12.4795C12.6875 10.2459 12.8955 10.4045 12.8955 10.6158V15.0542H12.8435ZM19.1355 15.0542C19.1355 15.2655 18.9795 15.4769 18.7715 15.4769H15.2875C15.0795 15.4769 14.9235 15.3183 14.9235 15.0542V10.6158C14.9235 10.4045 15.0795 10.2459 15.2875 10.2459H18.7195C18.9275 10.2459 19.0835 10.4045 19.0835 10.6158V15.0542H19.1355Z" fill="#313339" fill-opacity="0.5"/>
</svg>
