<svg width="15" height="16" viewBox="0 0 15 16" fill="none" xmlns="http://www.w3.org/2000/svg">
<path d="M7.68882 0.666748C7.20875 0.666748 6.77382 0.949435 6.57885 1.38807L4.33834 6.4292C4.28399 6.5515 4.2556 6.61458 4.23234 6.65898L4.23027 6.6629L4.22585 6.6632C4.17582 6.66643 4.10666 6.66675 3.97282 6.66675H3.44032C3.08889 6.66673 2.78572 6.66673 2.536 6.68715C2.27244 6.70868 2.01029 6.75621 1.75804 6.88475C1.38171 7.07648 1.07575 7.38241 0.884003 7.75875C0.755476 8.01101 0.707929 8.27315 0.686396 8.53675C0.665995 8.78642 0.666005 9.08961 0.666016 9.44102V12.5591C0.666005 12.9105 0.665995 13.2137 0.686396 13.4634C0.707929 13.727 0.755476 13.9891 0.884003 14.2414C1.07575 14.6177 1.38171 14.9237 1.75804 15.1154C2.01029 15.2439 2.27244 15.2915 2.536 15.313C2.78571 15.3334 3.08888 15.3334 3.44031 15.3334C3.74906 15.3334 3.99935 15.0831 3.99935 14.7743V9.33342C3.99935 8.96521 4.29783 8.66675 4.66602 8.66675C5.03421 8.66675 5.33268 8.96521 5.33268 9.33342V14.2667C5.33268 14.6401 5.33268 14.8268 5.40534 14.9694C5.46926 15.0949 5.57125 15.1968 5.69669 15.2607C5.8393 15.3334 6.02598 15.3334 6.39935 15.3334H10.6124C11.0783 15.3334 11.465 15.3334 11.7832 15.3092C12.1155 15.2839 12.4217 15.2297 12.7174 15.0957C13.1798 14.8861 13.5728 14.549 13.8502 14.1239C14.0275 13.852 14.1277 13.5575 14.2033 13.233C14.2756 12.9222 14.3344 12.5399 14.4052 12.0795L14.7623 9.75855C14.8561 9.14855 14.9331 8.64848 14.9603 8.24035C14.9884 7.81928 14.97 7.42635 14.8263 7.04975C14.6058 6.47147 14.1909 5.98791 13.6529 5.68197C13.3025 5.48273 12.917 5.40483 12.4965 5.36856C12.089 5.3334 11.5831 5.33341 10.9659 5.33342H10.3993C10.2017 5.33342 10.0935 5.33289 10.0157 5.32655L10.007 5.32578L10.0062 5.31699C9.99988 5.23927 9.99935 5.1311 9.99935 4.93341V2.97731C9.99935 1.70122 8.96488 0.666748 7.68882 0.666748Z" fill="#464623"/>
</svg>
