<svg width="22" height="22" viewBox="0 0 22 22" fill="none" xmlns="http://www.w3.org/2000/svg">
<g clip-path="url(#clip0_10770_16669)">
<path d="M5.70024 8.3402H1.28204C0.786124 8.3402 0.380371 8.74596 0.380371 9.24188V19.9267C0.380371 20.4226 0.786124 20.8284 1.28204 20.8284H5.70024V8.3402ZM20.7582 11.8116C21.209 11.451 21.5697 10.91 21.5697 10.2788C21.5697 9.15171 20.668 8.20495 19.5409 8.20495H17.2867L14.1309 8.3402C14.4014 7.16803 14.8522 5.77044 15.0325 5.13927C15.0776 4.91385 15.1227 4.55318 15.1227 4.46301C15.1227 2.70475 14.5817 1.53258 13.4546 1.26207C13.0489 1.17191 12.5079 1.08174 11.7865 2.70475C11.6964 2.88508 11.6062 3.24575 11.4259 3.78676C11.3357 4.14743 11.2004 4.55318 11.1103 4.73351C10.7947 5.49994 9.57743 7.48361 9.35201 7.84428C8.99134 8.38529 8.40526 8.79104 7.81917 8.92629H7.4585V20.1972C9.89301 20.5128 11.8767 20.6029 13.2292 20.6029C14.3563 20.6029 15.0325 20.5579 15.2129 20.5579H17.6023C18.8196 20.5579 19.7663 19.566 19.7663 18.3037C19.7663 17.943 19.6762 17.8078 19.4958 17.4922C20.127 17.1315 20.668 16.32 20.668 15.5987C20.668 15.1478 20.5327 14.7421 20.3073 14.3814C20.7131 13.9757 20.9836 13.4797 20.9836 12.8936C21.0287 12.4879 20.9385 12.1272 20.7582 11.8116Z" fill="white"/>
<path d="M5.70024 8.34007H1.28204C0.786124 8.34007 0.380371 8.74582 0.380371 9.24174V19.9266C0.380371 20.4225 0.786124 20.8282 1.28204 20.8282H5.70024V8.34007Z" fill="#E6B830"/>
</g>
<defs>
<clipPath id="clip0_10770_16669">
<rect width="21.6401" height="21.6401" fill="white" transform="translate(0.155029 0.179688)"/>
</clipPath>
</defs>
</svg>
