<svg width="43" height="42" viewBox="0 0 43 42" fill="none" xmlns="http://www.w3.org/2000/svg">
<g id="open-board">
<path id="Vector" d="M36.3232 16.2028H34.1919L24.2097 6.22132C24.225 6.10525 24.2448 5.99223 24.2448 5.87234C24.2327 5.14362 23.9348 4.44883 23.4151 3.93776C22.8955 3.4267 22.1959 3.14029 21.4671 3.14029C20.7383 3.14029 20.0386 3.4267 19.519 3.93776C18.9994 4.44883 18.7014 5.14362 18.6894 5.87234C18.6894 5.99147 18.71 6.10525 18.7245 6.22132L8.74222 16.2028H6.10615C4.47197 16.2028 3.15088 17.5239 3.15088 19.1504V35.9505C3.15088 37.5846 4.47197 38.9057 6.10615 38.9057H36.3232C37.9574 38.9057 39.2785 37.5846 39.2785 35.9505V19.1504C39.2785 17.5239 37.9574 16.2028 36.3232 16.2028ZM19.5156 7.8471C20.0173 8.34347 20.7061 8.64969 21.4667 8.64969C22.2273 8.64969 22.9161 8.3427 23.4178 7.84787L31.7743 16.2028H11.1599L19.5156 7.8471ZM7.05306 19.1199H19.6607C20.1342 19.1199 20.516 19.5017 20.516 19.9752C20.516 20.4486 20.1342 20.8304 19.6607 20.8304H7.05306C6.58724 20.8304 6.19779 20.4486 6.19779 19.9752C6.19779 19.5017 6.58724 19.1199 7.05306 19.1199ZM36.5141 36.2865H5.91524V27.5504H36.5141V36.2865ZM35.6589 24.4883H7.03015C6.5567 24.4883 6.17488 24.1064 6.17488 23.633C6.17488 23.1595 6.5567 22.7777 7.03015 22.7777H35.6589C36.1323 22.7777 36.5141 23.1595 36.5141 23.633C36.5141 24.1064 36.1323 24.4883 35.6589 24.4883Z" fill="black"/>
<path id="Vector_2" d="M11.612 34.2094C12.0015 34.4308 12.452 34.5454 12.956 34.5454C13.46 34.5454 13.9182 34.4308 14.3 34.2094C14.6818 33.9803 14.9873 33.6672 15.2011 33.2625C15.4149 32.873 15.5218 32.4225 15.5295 31.9108C15.5218 31.4145 15.4149 30.9639 15.2011 30.5745C14.9873 30.1774 14.6818 29.8566 14.3 29.6276C13.5288 29.177 12.3833 29.177 11.612 29.6276C11.2226 29.8566 10.9171 30.1774 10.7109 30.5745C10.4971 30.9639 10.3902 31.4145 10.3826 31.9261C10.3902 32.4225 10.4971 32.873 10.7109 33.2701C10.9171 33.6672 11.2226 33.9803 11.612 34.2094ZM11.7037 31.1243C11.8106 30.8952 11.9709 30.7272 12.1848 30.5897C12.3986 30.4599 12.6506 30.3988 12.956 30.3988C13.2538 30.3988 13.5135 30.4676 13.7273 30.5974C13.9411 30.7272 14.1015 30.8952 14.2084 31.1243C14.3306 31.3534 14.384 31.6206 14.384 31.9185C14.384 32.2163 14.3306 32.4836 14.2084 32.7126C14.1015 32.9417 13.9411 33.1097 13.7273 33.2472C13.292 33.5068 12.6048 33.4992 12.1848 33.2472C11.9709 33.1174 11.8106 32.9417 11.7037 32.7126C11.5891 32.4836 11.528 32.2163 11.528 31.9185C11.528 31.6206 11.5891 31.3534 11.7037 31.1243ZM17.0644 34.5148C17.2171 34.5148 17.3622 34.4614 17.4691 34.3545C17.5837 34.2476 17.6448 34.1025 17.6448 33.9421V32.8196H18.5611C19.0193 32.8196 19.4088 32.7356 19.7066 32.5752C20.0197 32.4072 20.2488 32.1857 20.3862 31.9261C20.5165 31.6666 20.5844 31.3803 20.5844 31.0899C20.5844 30.7996 20.5165 30.5132 20.3862 30.2537C20.2488 29.9865 20.0197 29.765 19.7066 29.597C19.4088 29.4366 19.0193 29.3603 18.5611 29.3603H17.0644C16.904 29.3603 16.7666 29.4137 16.6597 29.5283C16.5528 29.6428 16.4993 29.7803 16.4993 29.933V33.9421C16.4993 34.1025 16.5528 34.2399 16.6597 34.3468C16.7742 34.4614 16.9117 34.5148 17.0644 34.5148ZM17.6448 30.4676H18.5C18.9658 30.4676 19.1644 30.5668 19.256 30.6508C19.3782 30.773 19.4393 30.9105 19.4393 31.0861C19.4393 31.2617 19.3782 31.4068 19.256 31.5214C19.1644 31.6054 18.9658 31.7046 18.5 31.7046H17.6448V30.4676ZM21.9769 34.4827H24.6053C24.7542 34.4827 24.8886 34.4293 24.997 34.327C25.0504 34.2761 25.0928 34.2149 25.1214 34.1469C25.1501 34.079 25.1644 34.0059 25.1635 33.9322C25.1642 33.8591 25.1502 33.7867 25.1224 33.7191C25.0946 33.6516 25.0535 33.5903 25.0016 33.5389L24.9993 33.5366C24.9477 33.4848 24.8863 33.4439 24.8186 33.4162C24.7509 33.3886 24.6784 33.3747 24.6053 33.3755H22.5542V32.4698H24.3701C24.4429 32.4708 24.5153 32.4573 24.5828 32.4302C24.6504 32.403 24.712 32.3627 24.7638 32.3115C24.8157 32.2603 24.8569 32.1994 24.885 32.1322C24.9131 32.065 24.9276 31.9928 24.9276 31.92C24.9276 31.7673 24.8703 31.6298 24.7649 31.526C24.7135 31.4735 24.6521 31.4319 24.5842 31.4038C24.5164 31.3757 24.4435 31.3617 24.3701 31.3625H22.5542V30.4645H24.6053C24.7521 30.4645 24.8929 30.4062 24.9968 30.3023C25.1006 30.1985 25.1589 30.0577 25.1589 29.9109C25.1589 29.764 25.1006 29.6232 24.9968 29.5194C24.8929 29.4156 24.7521 29.3572 24.6053 29.3572H21.9769C21.9015 29.3575 21.827 29.3727 21.7575 29.4018C21.688 29.431 21.625 29.4736 21.572 29.5271C21.519 29.5807 21.4771 29.6442 21.4487 29.714C21.4203 29.7837 21.4059 29.8584 21.4064 29.9338V33.9123C21.4064 34.0689 21.4645 34.2086 21.5729 34.317C21.6258 34.3704 21.6888 34.4126 21.7584 34.4411C21.8279 34.4696 21.9025 34.4838 21.9776 34.4827H21.9769ZM27.0863 34.3537C27.1418 34.3014 27.1859 34.2381 27.2157 34.168C27.2456 34.0978 27.2605 34.0222 27.2597 33.9459V31.2785L29.3017 34.2269C29.3643 34.3109 29.4452 34.3804 29.5437 34.4339C29.6461 34.4873 29.756 34.5148 29.869 34.5148H29.9477C30.0396 34.5156 30.1308 34.4981 30.216 34.4635C30.3012 34.4289 30.3787 34.3779 30.4441 34.3132C30.5119 34.2491 30.5658 34.1716 30.6023 34.0857C30.6389 33.9997 30.6573 33.9072 30.6563 33.8138V29.9002C30.6569 29.8245 30.6424 29.7496 30.6135 29.6797C30.5847 29.6098 30.5421 29.5464 30.4884 29.4932L30.4861 29.4916C30.377 29.3851 30.2303 29.3258 30.0779 29.3265C29.9254 29.3272 29.7793 29.3879 29.6713 29.4954C29.5658 29.6036 29.5073 29.7491 29.5086 29.9002V32.5599L27.4789 29.6276C27.2857 29.3756 27.0573 29.3236 26.8993 29.3236H26.8145C26.7215 29.3226 26.6294 29.3408 26.5437 29.3769C26.4581 29.413 26.3808 29.4664 26.3166 29.5336C26.2515 29.5991 26.2 29.6768 26.1652 29.7622C26.1303 29.8477 26.1127 29.9392 26.1135 30.0315V33.9452C26.1135 34.1009 26.1708 34.2407 26.2792 34.3491C26.3878 34.4526 26.5319 34.5107 26.682 34.5114C26.8321 34.5121 26.9767 34.4562 27.0863 34.3537Z" fill="black"/>
</g>
</svg>
