<svg width="17" height="16" viewBox="0 0 17 16" fill="none" xmlns="http://www.w3.org/2000/svg">
<path d="M8.88965 11.9631C10.4725 10.806 12.4592 10.3456 14.3896 10.6884C14.7529 10.7492 15.0967 10.504 15.1575 10.1407C15.1636 10.1044 15.1667 10.0677 15.1667 10.0309V2.03085C15.1665 1.70528 14.9314 1.42735 14.6104 1.3733C14.1336 1.2902 13.6506 1.24708 13.1667 1.24439C11.5115 1.2423 9.89091 1.71854 8.5 2.61581V12.0888C8.63985 12.0888 8.77617 12.0449 8.88965 11.9631Z" fill="#BCBCBC"/>
<path d="M3.83325 1.24439C3.34927 1.24708 2.86637 1.2902 2.38957 1.3733C2.06851 1.42735 1.83338 1.70528 1.83325 2.03085V10.0309C1.83337 10.3992 2.13207 10.6977 2.50039 10.6976C2.53721 10.6975 2.57396 10.6945 2.61027 10.6884C3.01413 10.6174 3.42322 10.5804 3.83325 10.5777C5.36941 10.5765 6.86655 11.0615 8.11027 11.9631C8.22375 12.0449 8.36007 12.0888 8.49992 12.0888V2.61581C7.10901 1.71854 5.48846 1.2423 3.83325 1.24439Z" fill="#BCBCBC"/>
<path d="M14.6104 12.04C14.1336 11.9569 13.6506 11.9138 13.1667 11.9111C11.5115 11.9091 9.89091 12.3853 8.5 13.2826V14.7555C8.63985 14.7556 8.77617 14.7116 8.88965 14.6299C10.4725 13.4728 12.4592 13.0123 14.3896 13.3551C14.7527 13.4166 15.0969 13.1722 15.1584 12.8091C15.2199 12.4461 14.9754 12.1019 14.6124 12.0404L14.6104 12.04Z" fill="#BCBCBC"/>
<path d="M3.83324 11.9111C3.34927 11.9138 2.86636 11.957 2.38955 12.04L2.38752 12.0404C2.02444 12.1019 1.78002 12.4461 1.8415 12.8091C1.90302 13.1722 2.24718 13.4166 2.61026 13.3552C3.0141 13.2841 3.4232 13.2471 3.83324 13.2445C5.36941 13.2433 6.86652 13.7282 8.11026 14.6299C8.22374 14.7116 8.36005 14.7556 8.4999 14.7555V13.2826C7.109 12.3853 5.48843 11.9091 3.83324 11.9111Z" fill="#313339"/>
</svg>
