<svg width="49" height="48" viewBox="0 0 49 48" fill="none" xmlns="http://www.w3.org/2000/svg">
<path d="M43.8528 6.336C43.8528 2.88 40.9728 0 37.5168 0C9.10078 0 10.4448 0 10.2528 0C6.98878 0.192 4.30078 2.88 4.30078 6.336V41.664C4.30078 45.12 7.18078 48 10.6368 48H41.7408C42.8928 48 43.6608 47.04 43.6608 46.08C43.8528 42.048 43.6608 60.864 43.8528 6.336ZM39.8208 44.16H10.6368C9.29278 44.16 8.14078 43.008 8.14078 41.664C8.14078 40.32 9.29278 39.168 10.6368 39.168H39.8208V44.16Z" fill="#060D17"/>
<path d="M22.9849 12.8456C22.7036 13.0041 22.4694 13.2342 22.306 13.5126C22.1427 13.7911 22.056 14.1078 22.0549 14.4306C22.0573 14.5687 22.0741 14.7061 22.1049 14.8406C22.1215 14.9104 22.1228 14.983 22.1086 15.0534C22.0945 15.1238 22.0653 15.1902 22.023 15.2482C21.9807 15.3062 21.9263 15.3543 21.8636 15.3892C21.801 15.4242 21.7314 15.4451 21.6599 15.4506C21.3361 15.4777 21.0256 15.5913 20.7609 15.7795C20.4961 15.9678 20.2868 16.2237 20.1549 16.5206C20.0181 16.8636 19.9757 17.2369 20.032 17.6018C20.0882 17.9666 20.2412 18.3098 20.4749 18.5956C20.7239 18.795 21.0143 18.9361 21.3248 19.0088C21.6354 19.0815 21.9583 19.0838 22.2699 19.0156C22.4484 18.9686 22.6364 18.9722 22.813 19.026C22.9896 19.0799 23.1477 19.1817 23.2696 19.3203C23.3916 19.4588 23.4726 19.6286 23.5035 19.8106C23.5345 19.9925 23.5142 20.1795 23.4449 20.3506L23.0299 21.3856H24.9699L24.5549 20.3506C24.4856 20.1795 24.4653 19.9925 24.4963 19.8106C24.5272 19.6286 24.6082 19.4588 24.7301 19.3203C24.8521 19.1817 25.0102 19.0799 25.1868 19.026C25.3633 18.9722 25.5514 18.9686 25.7299 19.0156C26.0415 19.0838 26.3644 19.0815 26.6749 19.0088C26.9855 18.9361 27.2759 18.795 27.5249 18.5956C27.769 18.3019 27.9253 17.9453 27.9757 17.5667C28.0261 17.1881 27.9687 16.803 27.8099 16.4556C27.663 16.1513 27.4328 15.8949 27.1461 15.7162C26.8593 15.5374 26.5278 15.4436 26.1899 15.4456H26.1249C26.0501 15.4452 25.9764 15.428 25.9091 15.3954C25.8419 15.3627 25.7828 15.3153 25.7363 15.2568C25.6897 15.1983 25.6569 15.1301 25.6402 15.0572C25.6236 14.9843 25.6234 14.9086 25.6399 14.8356C25.7349 14.4106 25.7699 13.7556 24.9599 12.9256C24.6677 12.7375 24.3305 12.6309 23.9833 12.6168C23.636 12.6028 23.2913 12.6818 22.9849 12.8456ZM24.4999 9.52062C26.1411 9.62625 27.7009 10.2734 28.9349 11.3606L29.9949 10.2956L30.7049 9.58562C28.9978 8.03431 26.8039 7.12564 24.4999 7.01562V9.52062Z" fill="white"/>
<path d="M23.9987 10.5006C23.8317 10.4989 23.6647 10.5072 23.4987 10.5256C22.1227 10.6271 20.8155 11.1668 19.7687 12.0656C19.5189 12.2854 19.2834 12.5209 19.0637 12.7706C18.1649 13.8174 17.6252 15.1247 17.5237 16.5006C17.4903 16.8331 17.4903 17.1681 17.5237 17.5006C17.6252 18.8766 18.1649 20.1838 19.0637 21.2306C19.2834 21.4804 19.5189 21.7159 19.7687 21.9356C20.8162 22.8339 22.1227 23.3751 23.4987 23.4806C23.6637 23.4956 23.8287 23.5006 23.9987 23.5006C24.1687 23.5006 24.3337 23.4956 24.4987 23.4806C25.8746 23.3751 27.1811 22.8339 28.2287 21.9356L28.9337 21.2306C29.832 20.1831 30.3731 18.8765 30.4787 17.5006C30.4937 17.3356 30.4987 17.1706 30.4987 17.0006C30.4987 16.8306 30.4937 16.6656 30.4787 16.5006C30.3731 15.1247 29.832 13.8182 28.9337 12.7706C28.7139 12.5209 28.4784 12.2854 28.2287 12.0656C27.1819 11.1668 25.8746 10.6271 24.4987 10.5256C24.3327 10.5072 24.1657 10.4989 23.9987 10.5006ZM25.6187 12.1756C25.9478 12.4648 26.2127 12.8198 26.3962 13.2177C26.5796 13.6156 26.6775 14.0475 26.6837 14.4856C27.1172 14.563 27.5264 14.7414 27.8782 15.0064C28.23 15.2713 28.5145 15.6153 28.7087 16.0106C28.9517 16.5367 29.0404 17.121 28.9642 17.6955C28.8881 18.27 28.6504 18.811 28.2787 19.2556C28.2509 19.2909 28.219 19.3228 28.1837 19.3506C27.8116 19.6566 27.374 19.8726 26.9048 19.9819C26.4357 20.0911 25.9476 20.0907 25.4787 19.9806L26.1687 21.7006C26.1987 21.7761 26.21 21.8578 26.2013 21.9386C26.1927 22.0194 26.1646 22.0969 26.1193 22.1644C26.0739 22.2319 26.0129 22.2873 25.9413 22.3258C25.8698 22.3644 25.7899 22.3849 25.7087 22.3856H22.2887C22.2074 22.3849 22.1275 22.3644 22.056 22.3258C21.9845 22.2873 21.9234 22.2319 21.8781 22.1644C21.8328 22.0969 21.8046 22.0194 21.796 21.9386C21.7874 21.8578 21.7986 21.7761 21.8287 21.7006L22.5137 19.9806C22.0455 20.0904 21.5583 20.0907 21.09 19.9814C20.6217 19.8722 20.1849 19.6563 19.8137 19.3506C19.7784 19.3228 19.7465 19.2909 19.7187 19.2556C19.3589 18.8263 19.124 18.3065 19.0393 17.7528C18.9547 17.1991 19.0236 16.6328 19.2387 16.1156C19.4083 15.7365 19.6593 15.3993 19.9738 15.128C20.2884 14.8566 20.6587 14.6578 21.0587 14.5456C21.0587 14.5056 21.0537 14.4706 21.0537 14.4306C21.0541 13.9304 21.1877 13.4394 21.4408 13.0079C21.6939 12.5764 22.0573 12.2201 22.4937 11.9756C22.9631 11.7178 23.4942 11.5936 24.0293 11.6165C24.5644 11.6394 25.083 11.8086 25.5287 12.1056C25.5619 12.1245 25.5922 12.1481 25.6187 12.1756ZM16.5837 23.7056L17.2937 22.9956L18.3587 21.9356C17.2714 20.7017 16.6243 19.1418 16.5187 17.5006H14.0137C14.1237 19.8047 15.0324 21.9985 16.5837 23.7056ZM33.9837 17.5006H31.4787C31.373 19.1418 30.7259 20.7017 29.6387 21.9356L30.7037 22.9956L31.4137 23.7056C32.9626 21.997 33.8709 19.804 33.9837 17.5006ZM31.4137 10.2956L30.7037 11.0056L29.6387 12.0656C30.7259 13.2996 31.373 14.8594 31.4787 16.5006H33.9837C33.8737 14.1966 32.965 12.0027 31.4137 10.2956ZM18.3587 12.0656L17.2937 11.0056L16.5837 10.2956C15.0324 12.0027 14.1237 14.1966 14.0137 16.5006H16.5187C16.6243 14.8594 17.2714 13.2996 18.3587 12.0656ZM28.9337 22.6406C27.6997 23.7279 26.1399 24.375 24.4987 24.4806V26.9856C26.8027 26.8756 28.9966 25.9669 30.7037 24.4156L29.9937 23.7056L28.9337 22.6406ZM23.4987 24.4806C21.8574 24.375 20.2976 23.7279 19.0637 22.6406L18.0037 23.7056L17.2937 24.4156C19.0008 25.9669 21.1946 26.8756 23.4987 26.9856V24.4806ZM18.0037 10.2956L19.0637 11.3606C20.2976 10.2734 21.8574 9.62625 23.4987 9.52062V7.01562C21.1946 7.12564 19.0008 8.03431 17.2937 9.58562L18.0037 10.2956Z" fill="white"/>
</svg>
