<svg width="39" height="39" viewBox="0 0 39 39" fill="none" xmlns="http://www.w3.org/2000/svg">
<path d="M19.5641 0.641602C9.02246 0.641602 0.397461 9.2666 0.397461 19.8083C0.397461 30.3499 9.02246 38.9749 19.5641 38.9749C30.1058 38.9749 38.7308 30.3499 38.7308 19.8083C38.7308 9.2666 30.1058 0.641602 19.5641 0.641602ZM10.1725 13.2916C10.7475 12.3333 11.8975 11.9499 12.6641 12.3333L16.4975 14.2499C17.4558 14.6333 17.8391 15.7833 17.2641 16.7416C16.8808 17.6999 15.7308 18.0833 14.7725 17.5083L10.9391 15.5916C10.1725 15.3999 9.78913 14.2499 10.1725 13.2916ZM26.8475 29.0083C26.0808 29.7749 24.9308 29.9666 24.1641 29.1999C21.4808 27.0916 17.8391 27.0916 15.1558 29.1999C14.3891 29.9666 13.0475 29.7749 12.4725 29.0083C11.8975 28.2416 11.8975 26.8999 12.6641 26.3249C16.6891 23.0666 22.6308 23.0666 26.6558 26.3249C27.4225 26.8999 27.4225 28.2416 26.8475 29.0083ZM27.9975 15.7833L24.1641 17.6999C23.2058 18.0833 22.0558 17.6999 21.6725 16.7416C21.2891 15.7833 21.6725 14.6333 22.4391 14.2499L26.2725 12.3333C27.2308 11.9499 28.3808 12.3333 28.7641 13.2916C29.3391 14.2499 28.9558 15.3999 27.9975 15.7833Z" fill="white"/>
</svg>
