<svg width="13" height="13" viewBox="0 0 13 13" xmlns="http://www.w3.org/2000/svg">
<path d="M6.87628 0.646216C6.63804 0.532641 6.36131 0.532641 6.12313 0.646216C5.91716 0.744403 5.80364 0.914876 5.74642 1.0084C5.68721 1.10508 5.62642 1.22824 5.56722 1.34828L4.3097 3.89586L1.49684 4.307C1.36443 4.32633 1.22856 4.34615 1.11837 4.37265C1.01176 4.39829 0.814643 4.45374 0.657773 4.61931C0.476304 4.81086 0.390962 5.07407 0.425507 5.33566C0.455368 5.56176 0.582447 5.72235 0.65373 5.80565C0.727411 5.89175 0.82579 5.98753 0.921673 6.08092L2.95622 8.06256L2.47616 10.8616C2.45349 10.9935 2.43024 11.1289 2.42129 11.242C2.41264 11.3513 2.40427 11.556 2.51318 11.7565C2.63915 11.9884 2.86308 12.1511 3.12259 12.1992C3.34694 12.2407 3.53903 12.1695 3.64031 12.1275C3.74505 12.0841 3.86663 12.0201 3.98514 11.9577L6.49967 10.6354L9.01425 11.9577C9.13278 12.0201 9.25435 12.0841 9.35906 12.1275C9.46038 12.1695 9.65242 12.2407 9.87677 12.1992C10.1363 12.1511 10.3602 11.9884 10.4862 11.7565C10.5951 11.556 10.5867 11.3513 10.5781 11.242C10.5691 11.1289 10.5459 10.9935 10.5232 10.8616L10.0431 8.06256L12.0777 6.08086C12.1736 5.98753 12.272 5.89175 12.3457 5.80565C12.417 5.72235 12.544 5.56176 12.5739 5.33566C12.6084 5.07407 12.5231 4.81086 12.3416 4.61931C12.1847 4.45374 11.9876 4.39829 11.881 4.37265C11.7708 4.34615 11.6349 4.32633 11.5025 4.307L8.68968 3.89586L7.43219 1.34832C7.37298 1.22827 7.3122 1.10508 7.25299 1.0084C7.19571 0.914876 7.08219 0.744403 6.87628 0.646216Z"/>
</svg>
