<svg width="19" height="19" viewBox="0 0 19 19" fill="none" xmlns="http://www.w3.org/2000/svg">
<path d="M9.48043 4.36255C10.8079 4.36255 11.9967 4.82005 12.9342 5.71255L15.5029 3.1438C13.9429 1.69255 11.9067 0.800049 9.48043 0.800049C5.96293 0.800049 2.92168 2.81755 1.44043 5.75755L4.43293 8.0788C5.14168 5.94505 7.13293 4.36255 9.48043 4.36255Z" fill="#EA4335"/>
<path d="M18.098 10.0063C18.098 9.41755 18.0417 8.84755 17.9555 8.30005H9.48047V11.6825H14.333C14.1155 12.7925 13.4855 13.7375 12.5405 14.375L15.4392 16.625C17.1305 15.0575 18.098 12.74 18.098 10.0063Z" fill="#4285F4"/>
<path d="M4.42922 11.5213C4.24922 10.9776 4.14422 10.4001 4.14422 9.80007C4.14422 9.20007 4.24547 8.62257 4.42922 8.07882L1.43672 5.75757C0.825469 6.97257 0.480469 8.34507 0.480469 9.80007C0.480469 11.2551 0.825469 12.6276 1.44047 13.8426L4.42922 11.5213Z" fill="#FBBC05"/>
<path d="M9.48052 18.8001C11.9105 18.8001 13.9543 18.0013 15.4393 16.6213L12.5405 14.3713C11.7343 14.9151 10.6955 15.2338 9.48052 15.2338C7.13302 15.2338 5.14177 13.6513 4.42927 11.5176L1.43677 13.8388C2.92177 16.7826 5.96302 18.8001 9.48052 18.8001Z" fill="#34A853"/>
</svg>
