<svg width="27" height="28" viewBox="0 0 27 28" fill="none" xmlns="http://www.w3.org/2000/svg">
<path d="M13.4993 0.533203C6.16602 0.533203 0.166016 6.5332 0.166016 13.8665C0.166016 21.1999 6.16602 27.1999 13.4993 27.1999C20.8327 27.1999 26.8327 21.1999 26.8327 13.8665C26.8327 6.5332 20.8327 0.533203 13.4993 0.533203ZM6.96601 9.3332C7.36601 8.66654 8.16601 8.39987 8.69935 8.66654L11.366 9.99987C12.0327 10.2665 12.2993 11.0665 11.8993 11.7332C11.6327 12.3999 10.8327 12.6665 10.166 12.2665L7.49935 10.9332C6.96602 10.7999 6.69935 9.99987 6.96601 9.3332ZM18.566 20.2665C18.0327 20.7999 17.2327 20.9332 16.6993 20.3999C14.8327 18.9332 12.2993 18.9332 10.4327 20.3999C9.89935 20.9332 8.96602 20.7999 8.56602 20.2665C8.16602 19.7332 8.16601 18.7999 8.69935 18.3999C11.4993 16.1332 15.6327 16.1332 18.4327 18.3999C18.966 18.7999 18.966 19.7332 18.566 20.2665ZM19.366 11.0665L16.6993 12.3999C16.0327 12.6665 15.2327 12.3999 14.966 11.7332C14.6993 11.0665 14.966 10.2665 15.4993 9.99987L18.166 8.66654C18.8327 8.39987 19.6327 8.66654 19.8993 9.3332C20.2993 9.99987 20.0327 10.7999 19.366 11.0665Z" fill="white"/>
</svg>
