<svg width="12" height="13" viewBox="0 0 12 13" fill="none" xmlns="http://www.w3.org/2000/svg">
<path d="M5.99999 0.5C2.69153 0.5 0 3.19153 0 6.49999C0 9.80845 2.69153 12.5 5.99999 12.5C9.30846 12.5 12 9.80845 12 6.49999C12 3.19153 9.30846 0.5 5.99999 0.5ZM5.82718 12.0122C5.82833 12.0063 5.83052 12.0005 5.83134 11.9947C5.8471 11.8885 5.90216 11.8019 5.96907 11.7193C5.9848 11.6957 6.01234 11.676 6.02022 11.6484C6.05955 11.5265 6.15399 11.4832 6.27202 11.4517C6.31532 11.4399 6.35859 11.3966 6.37826 11.3573C6.41368 11.2943 6.44908 11.2392 6.51595 11.2078C6.54744 11.192 6.57104 11.1605 6.59859 11.133C6.71269 11.0071 6.83466 10.8851 6.93302 10.7474C7.03926 10.6058 7.16519 10.5074 7.32258 10.4248C7.39733 10.3894 7.46815 10.3067 7.5193 10.232C7.63733 10.0313 7.73965 9.81492 7.86555 9.61818C7.94816 9.48442 8.01113 9.3467 8.04258 9.19717C8.04652 9.1775 8.02686 9.13423 8.00719 9.12241C7.88128 9.04372 7.75537 8.96111 7.62159 8.89423C7.5193 8.84307 7.40912 8.79978 7.29897 8.78405C7.21634 8.76831 7.16911 8.73683 7.1337 8.6778C7.08648 8.59519 7.03926 8.50862 6.99205 8.42992C6.9173 8.30795 6.80715 8.25288 6.66548 8.2568C6.63007 8.2568 6.5868 8.24106 6.56711 8.21746C6.29956 7.91058 5.92971 7.82795 5.56379 7.74137C5.52839 7.72957 5.48509 7.73745 5.4497 7.74137C5.27658 7.76498 5.17034 7.87122 5.11132 8.02467C5.04442 8.005 4.98148 7.97746 4.91851 7.96564C4.82015 7.94991 4.74933 7.91843 4.70606 7.86728C4.65491 7.8122 4.63129 7.73351 4.63523 7.62333C4.63523 7.47382 4.58408 7.41482 4.43062 7.40694C4.36768 7.39906 4.30866 7.39512 4.24572 7.39121C4.28505 7.23774 4.32441 7.10002 4.35981 6.96232C4.20241 6.87969 4.14734 6.89151 4.05683 7.02135C4.0411 7.04102 4.02537 7.06463 4.00961 7.08429C3.89159 7.20232 3.76174 7.19053 3.67126 7.05281C3.56109 6.87969 3.56894 6.4705 3.69092 6.30524C3.77356 6.18721 3.88371 6.15573 4.02143 6.20294C4.06864 6.21867 4.11979 6.23049 4.17488 6.24621C4.17488 6.19506 4.17095 6.15179 4.16701 6.11246C4.40702 6.08491 4.54865 6.15967 4.65491 6.36426C4.69424 6.44295 4.74539 6.51771 4.78869 6.59247C4.80048 6.59247 4.8123 6.59247 4.82803 6.58853C4.83591 6.53347 4.85557 6.47838 4.85951 6.42329C4.85951 6.38001 4.84769 6.33673 4.83197 6.29738C4.74933 6.08885 4.80836 5.93934 4.98542 5.81342C5.16246 5.68751 5.2451 5.50257 5.28443 5.29405C5.30019 5.21929 5.33952 5.15635 5.41428 5.13272C5.55591 5.09732 5.65036 5.00684 5.71332 4.87305C5.76841 4.75895 5.87462 4.70386 5.99267 4.71174C5.97298 4.75895 5.94937 4.8101 5.92577 4.88093C6.06743 4.80616 6.1894 4.74321 6.30744 4.67631C6.34284 4.65271 6.37038 4.6055 6.39793 4.57007C6.29172 4.53074 6.2012 4.50319 6.11464 4.46386C6.09104 4.45598 6.05955 4.4245 6.06349 4.41271C6.06743 4.38123 6.0871 4.3458 6.11464 4.33008C6.1776 4.28679 6.24841 4.25138 6.31532 4.21203C6.39399 4.16876 6.47662 4.12546 6.55926 4.08219C6.56711 4.09007 6.57104 4.094 6.57892 4.10185C6.52383 4.19631 6.46874 4.29467 6.4058 4.40089C6.52383 4.44811 6.63007 4.50319 6.74418 4.53074C6.79533 4.54647 6.85827 4.51107 6.91336 4.49926C6.89369 4.45204 6.88581 4.40089 6.85827 4.35762C6.79533 4.23958 6.71269 4.1294 6.66154 4.00743C6.60647 3.88152 6.5435 3.77136 6.43335 3.68872C6.3035 3.5943 6.20908 3.46839 6.13431 3.32282C6.09498 3.25199 6.05561 3.18511 6.02022 3.1182C5.97692 3.17329 5.94937 3.24018 5.89825 3.27559C5.85495 3.30314 5.79201 3.30314 5.73692 3.2992C5.72119 3.2992 5.70938 3.23232 5.70151 3.1969C5.69757 3.13396 5.69757 3.06314 5.62282 3.0356C5.51264 3.00017 5.39855 2.96084 5.28443 2.9333C5.18607 2.90969 5.12705 2.9569 5.12705 3.05526C5.13099 3.20084 5.13885 3.34643 5.14673 3.48806C5.1546 3.55103 5.15066 3.59824 5.0877 3.63363C4.96572 3.70448 4.95393 3.73987 4.98933 3.87367C5.01296 3.9681 4.99721 3.9917 4.87918 4.0271C4.86345 3.95234 4.83197 3.87367 4.83591 3.80284C4.83984 3.71627 4.81624 3.66512 4.7336 3.63757C4.66671 3.61397 4.59982 3.59036 4.53293 3.56282C4.4385 3.52742 4.3362 3.50382 4.25357 3.44873C4.08831 3.33855 4.06864 3.25593 4.16308 3.11429C4.20635 3.04345 4.25357 2.97657 4.30866 2.90969C4.40308 2.78377 4.50144 2.76016 4.63917 2.8428C4.69424 2.87427 4.73754 2.87821 4.78082 2.82312C4.8123 2.78377 4.85951 2.77196 4.8949 2.81525C4.93821 2.8664 4.9736 2.8428 5.02081 2.80739C4.95393 2.74836 4.8949 2.68934 4.82409 2.63032C4.90672 2.49656 4.98542 2.36671 5.05623 2.23291C5.0877 2.17391 5.12311 2.16603 5.18214 2.1857C5.24116 2.20931 5.29625 2.229 5.28052 2.31162C5.27264 2.3549 5.2687 2.40212 5.26082 2.46114C5.33167 2.42574 5.38673 2.39426 5.44182 2.36277C5.49297 2.41392 5.48115 2.44147 5.43788 2.47295C5.34346 2.54377 5.25297 2.61459 5.14279 2.70113C5.21361 2.72868 5.26476 2.76016 5.31197 2.7641C5.43394 2.7759 5.52839 2.82705 5.61888 2.89395C5.66216 2.92542 5.70151 2.95296 5.7448 2.96869C5.83922 3.00805 5.96119 2.97263 6.00052 2.89787C6.04383 2.81919 6.02022 2.76016 5.92577 2.68147C5.89431 2.65392 5.87462 2.61459 5.8471 2.5831C5.85495 2.57916 5.86283 2.56738 5.87071 2.56344C5.92971 2.60671 5.98874 2.65392 6.04774 2.69722C6.07922 2.64998 6.10282 2.60277 6.13037 2.5595C6.1776 2.49656 6.15793 2.45326 6.09104 2.4218C6.02413 2.39032 5.95725 2.35883 5.89037 2.32737C5.83134 2.30376 5.79201 2.26834 5.80774 2.2054C5.8274 2.13849 5.79201 2.11094 5.74874 2.07949C5.61888 1.99686 5.48903 1.91031 5.35528 1.8316C5.29625 1.80012 5.22937 1.76865 5.16246 1.76471C5.04836 1.75684 4.93821 1.76078 4.82409 1.77257C4.71786 1.78439 4.6431 1.86307 4.6195 1.95752C4.60374 2.00473 4.66671 2.07949 4.70212 2.13849C4.71 2.15425 4.72572 2.16603 4.73754 2.17785C4.79654 2.24867 4.78475 2.28014 4.68638 2.33917C4.61162 2.23685 4.5408 2.13064 4.46999 2.0244C4.42668 1.96537 4.44244 1.91816 4.4975 1.87883C4.62342 1.78831 4.74933 1.69781 4.91851 1.7293C4.95393 1.73324 4.99721 1.72536 5.03657 1.7293C5.10739 1.73324 5.15066 1.70175 5.18214 1.64272C5.20575 1.59945 5.22149 1.5483 5.25297 1.51685C5.37888 1.40273 5.5087 1.29256 5.63462 1.17844C5.68971 1.12729 5.75265 1.13123 5.81562 1.14305C5.81562 1.15484 5.8235 1.16272 5.8274 1.17059C5.72512 1.21387 5.62676 1.2532 5.52839 1.29649C5.63068 1.47748 5.77235 1.57585 5.97692 1.55618C6.01628 1.55224 6.05561 1.5483 6.09104 1.56406C6.13825 1.57979 6.19726 1.60339 6.22087 1.64272C6.30744 1.78439 6.39399 1.92998 6.46874 2.07555C6.51989 2.17785 6.57498 2.25653 6.72057 2.24867C6.59073 2.33917 6.60253 2.44147 6.64188 2.55162C6.74418 2.86248 6.95272 3.06314 7.25567 3.17329C7.30288 3.19296 7.36191 3.19296 7.42094 3.20478C7.43273 3.08281 7.44846 2.97657 7.45239 2.87033C7.45633 2.70507 7.53109 2.57916 7.67274 2.49656C7.71995 2.46901 7.76719 2.43753 7.8144 2.40212C7.88916 2.35883 7.96392 2.30768 8.03473 2.26046C8.10555 2.21325 8.15276 2.15425 8.12129 2.06373C8.08195 1.95752 8.05046 1.84734 7.99537 1.74897C7.96392 1.69388 7.92455 1.63882 7.88522 1.58372C7.79205 1.43982 7.69879 1.34404 7.65384 1.23703C8.32529 1.44849 8.9414 1.78545 9.47535 2.21983C9.4672 2.27492 9.47637 2.32993 9.51031 2.36741C9.66136 2.53622 9.6584 2.71687 9.58435 2.91533C9.56065 2.97456 9.56065 3.05748 9.58435 3.11376C9.64062 3.23813 9.71763 3.35069 9.87756 3.36255C9.93087 3.36549 9.95456 3.39511 9.95456 3.4514C9.95456 3.55504 9.95456 3.65871 10.0256 3.74756C10.0345 3.76236 10.0286 3.80087 10.0168 3.81864C9.96641 3.89564 9.91014 3.97266 9.85092 4.05261C9.68209 3.80975 9.50438 3.55208 9.32076 3.29145C9.26449 3.32701 9.21117 3.35959 9.15787 3.39511C9.19044 3.4573 9.22007 3.51357 9.24671 3.56985C9.25561 3.59058 9.25857 3.62909 9.24671 3.64095C9.13122 3.75941 9.16971 3.89268 9.19934 4.02596C9.35039 4.04669 9.38593 4.02893 9.45404 3.90749C9.47774 4.00523 9.50438 4.09704 9.52808 4.19477C9.61102 4.17701 9.68506 4.15628 9.75614 4.14442C9.77983 4.1385 9.80648 4.15331 9.83314 4.15628C9.81833 4.17701 9.80648 4.20069 9.78871 4.21255C9.71763 4.26289 9.64062 4.30733 9.55474 4.3636C9.7354 4.46726 9.83017 4.61237 9.84202 4.81672C9.76501 4.81672 9.68801 4.81969 9.61102 4.81672C9.47181 4.80786 9.43627 4.84633 9.457 4.97962C9.4807 5.10994 9.50143 5.24024 9.51921 5.37352C9.52808 5.43573 9.54881 5.47127 9.61989 5.4831C9.74428 5.50088 9.75317 5.53049 9.6969 5.64303C9.6347 5.75853 9.5577 5.87109 9.52808 5.99253C9.46293 6.2561 9.33852 6.48713 9.2023 6.71516C9.12529 6.84548 9.08383 6.98172 9.11346 7.13574C9.12529 7.18311 9.11639 7.23345 9.11346 7.28085C9.09271 7.63329 9.19934 7.94426 9.40072 8.23156C9.50143 8.37668 9.63175 8.4211 9.7976 8.37075C9.88941 8.34409 9.98122 8.31744 10.076 8.30561C10.2833 8.27893 10.4048 8.41518 10.3396 8.6136C10.2833 8.77946 10.2655 8.94236 10.2833 9.1171C10.307 9.39254 10.1826 9.63243 10.0523 9.86641C9.99603 9.97301 9.93383 10.0797 9.88646 10.1892C9.83613 10.3095 9.78848 10.4304 9.73917 10.5513C8.75536 11.46 7.44167 12.0165 5.99999 12.0165C5.94204 12.0165 5.88471 12.0139 5.82718 12.0122Z" fill="white"/>
</svg>
