<svg width="48" height="48" viewBox="0 0 48 48" fill="none" xmlns="http://www.w3.org/2000/svg">
<path d="M11.0483 12.4662L7.63481 9.05271C4.1297 12.8757 2.08092 17.8098 1.84711 22.9912H6.67758C6.90284 19.0896 8.44354 15.3796 11.0483 12.4662ZM6.67665 25.0081H1.84619C2.07677 30.1911 4.12557 35.1273 7.63296 38.9502L11.0456 35.5376C8.4386 32.624 6.89821 28.9115 6.67665 25.0081ZM23.0003 6.67763V1.84717C17.82 2.07917 12.8861 4.12526 9.06188 7.62748L12.4745 11.0401C15.3893 8.43818 19.0995 6.90045 23.0003 6.67763ZM9.05911 40.3755C12.8847 43.877 17.8194 45.9224 23.0003 46.1539V41.3226C19.0993 41.0999 15.3886 39.5629 12.4727 36.9619L9.05911 40.3755ZM38.9502 7.63209C35.1293 4.12743 30.1968 2.07946 25.0173 1.84717V6.67763C28.917 6.90119 32.6256 8.44111 35.5367 11.0456L38.9502 7.63209ZM41.3216 22.9921H46.1539C45.9205 17.814 43.8752 12.8825 40.3754 9.05917L36.9619 12.4727C39.5608 15.3866 41.0974 19.0941 41.3216 22.9921ZM41.3216 25.0081C41.1011 28.9076 39.5652 32.6171 36.9647 35.5312L40.3782 38.9447C43.8797 35.1212 45.9243 30.1876 46.1539 25.0081H41.3216ZM25.0182 41.3226V46.153C30.198 45.921 35.131 43.8737 38.953 40.3699L35.5385 36.9564C32.6263 39.56 28.9173 41.0992 25.0173 41.3226H25.0182ZM34.8554 34.8462C34.8647 34.8462 34.8647 34.8462 34.8757 34.837C36.3014 33.4116 37.431 31.7182 38.1993 29.8544C38.9677 27.9905 39.3597 25.993 39.3527 23.977C39.3527 19.8749 37.7077 16.0201 34.8554 13.1475C31.9979 10.2756 28.1178 8.65461 24.0665 8.64009C24.0462 8.64932 24.0259 8.6604 24.0056 8.6604C23.9853 8.6604 23.9751 8.65024 23.9548 8.64009C19.9126 8.65503 16.0394 10.2637 13.176 13.117C13.176 13.1272 13.1668 13.1373 13.1557 13.1475L13.1262 13.1779C10.3828 15.9306 8.66865 19.7216 8.64927 23.9059C8.64927 23.9466 8.66865 23.9669 8.66865 23.9973C8.66865 24.0269 8.64927 24.0573 8.64927 24.0878C8.66523 28.1132 10.2706 31.9693 13.116 34.8167C13.1253 34.8259 13.1456 34.8361 13.1557 34.8462C13.176 34.8564 13.176 34.8767 13.1862 34.897C16.0515 37.7387 19.9194 39.3394 23.9548 39.3536C23.9751 39.3536 23.9853 39.3444 24.0056 39.3444C24.0259 39.3444 24.0462 39.3536 24.0665 39.3536C28.1112 39.342 31.9867 37.729 34.8453 34.8675C34.8545 34.8564 34.8554 34.8564 34.8554 34.8462ZM16.1585 16.1539C16.3489 15.9645 16.6066 15.8581 16.8753 15.8581C17.1439 15.8581 17.4016 15.9645 17.592 16.1539C17.781 16.3445 17.887 16.6019 17.887 16.8702C17.887 17.1386 17.781 17.396 17.592 17.5866C17.4016 17.776 17.1439 17.8824 16.8753 17.8824C16.6066 17.8824 16.3489 17.776 16.1585 17.5866C15.9693 17.396 15.8631 17.1383 15.8631 16.8698C15.8631 16.6012 15.9693 16.3445 16.1585 16.1539ZM17.592 31.8435C17.4016 32.0329 17.1439 32.1393 16.8753 32.1393C16.6066 32.1393 16.3489 32.0329 16.1585 31.8435C15.9695 31.653 15.8635 31.3955 15.8635 31.1272C15.8635 30.8588 15.9695 30.6014 16.1585 30.4109C16.3489 30.2214 16.6066 30.1151 16.8753 30.1151C17.1439 30.1151 17.4016 30.2214 17.592 30.4109C17.781 30.6014 17.887 30.8588 17.887 31.1272C17.887 31.3955 17.781 31.653 17.592 31.8435ZM24.0056 32.0742L15.9287 23.9973L24.0056 15.9204L32.0825 23.9973L24.0056 32.0742ZM31.849 31.8435C31.6586 32.0327 31.4011 32.1388 31.1327 32.1388C30.8643 32.1388 30.6067 32.0327 30.4163 31.8435C30.2274 31.653 30.1214 31.3955 30.1214 31.1272C30.1214 30.8588 30.2274 30.6014 30.4163 30.4109C30.6066 30.2215 30.8642 30.1151 31.1327 30.1151C31.4011 30.1151 31.6587 30.2215 31.849 30.4109C32.0379 30.6014 32.1439 30.8588 32.1439 31.1272C32.1439 31.3955 32.0379 31.653 31.849 31.8435ZM31.849 17.5866C31.6586 17.7757 31.4011 17.8819 31.1327 17.8819C30.8643 17.8819 30.6067 17.7757 30.4163 17.5866C30.2271 17.396 30.1209 17.1383 30.1209 16.8698C30.1209 16.6012 30.2271 16.3436 30.4163 16.153C30.6066 15.9636 30.8642 15.8573 31.1327 15.8573C31.4011 15.8573 31.6587 15.9636 31.849 16.153C32.0382 16.3436 32.1444 16.6012 32.1444 16.8698C32.1444 17.1383 32.0382 17.396 31.849 17.5866Z" fill="#060D17"/>
</svg>
