<svg xmlns="http://www.w3.org/2000/svg" width="16" height="16" viewBox="0 0 16 16" fill="none">
<path fill-rule="evenodd" clip-rule="evenodd" d="M2.0295 12.8344C2.06012 13.2091 2.12583 13.5536 2.29069 13.8772C2.54635 14.3789 2.9543 14.7868 3.45606 15.0425C3.77962 15.2074 4.12409 15.2731 4.49882 15.3037C4.85962 15.3332 5.30252 15.3332 5.83916 15.3332H11.2257C11.5772 15.3332 11.8803 15.3332 12.1301 15.3128C12.3936 15.2912 12.6558 15.2437 12.908 15.1152C13.2843 14.9234 13.5903 14.6175 13.7821 14.2412C13.9106 13.9889 13.9581 13.7268 13.9797 13.4632C13.9979 13.2394 14.0001 12.9727 14.0001 12.6665C14.0001 9.59124 14.0001 6.51603 14.0001 3.4408C14.0001 3.08937 14.0001 2.7862 13.9797 2.53648C13.9581 2.27292 13.9106 2.01078 13.7821 1.75852C13.5903 1.3822 13.2843 1.07624 12.908 0.884491C12.6558 0.755964 12.3936 0.708418 12.1301 0.686884C11.8803 0.666484 11.5772 0.666494 11.2258 0.666504H5.83918C5.30254 0.666497 4.85961 0.666491 4.49882 0.695971C4.12409 0.726584 3.77962 0.792298 3.45606 0.957158C2.9543 1.21282 2.54635 1.62076 2.29069 2.12253C2.12583 2.44609 2.06012 2.79056 2.0295 3.16529C2.00002 3.52608 2.00003 3.96898 2.00004 4.50563V11.494C2.00004 11.9414 1.9931 12.3888 2.0295 12.8344ZM12.6507 13.3546C12.6359 13.5357 12.6109 13.6028 12.5941 13.6358C12.5301 13.7613 12.4281 13.8632 12.3027 13.9272C12.2697 13.944 12.2026 13.9691 12.0215 13.9839C11.8326 13.9993 11.5844 13.9998 11.2001 13.9998H5.86671C5.29566 13.9998 4.90746 13.9993 4.6074 13.9748C4.31512 13.9509 4.16566 13.9076 4.06139 13.8545C3.8105 13.7267 3.60653 13.5227 3.4787 13.2718C3.35925 13.0374 3.30018 12.8344 3.34457 12.493C3.42964 11.8386 3.98915 11.3332 4.66671 11.3332H12.6667C12.6667 12.0032 12.7054 12.6862 12.6507 13.3546Z" fill="white"/>
</svg>
