<svg width="150" height="32" viewBox="0 0 150 32" fill="none" xmlns="http://www.w3.org/2000/svg">
<path d="M56.3307 11.8426L53.5657 13.7939H53.5559C52.2812 11.7936 50.5751 10.7837 48.4277 10.7837C46.2804 10.7837 45.3587 11.3328 44.2703 12.4408C43.182 13.5585 42.6427 14.9705 42.6427 16.706C42.6427 18.4415 43.182 19.8339 44.2703 20.9419C45.3587 22.0302 46.7413 22.5695 48.4277 22.5695C50.1142 22.5695 52.2812 21.5694 53.5559 19.5691C53.5559 19.5691 53.5559 19.5691 53.5657 19.5691L56.3307 21.5204C54.7815 24.3149 51.8498 25.9719 48.3983 25.9719C44.9469 25.9719 43.4565 25.0797 41.6131 23.3147C39.7894 21.5204 38.8677 19.324 38.8677 16.6864C38.8677 14.0488 39.7894 11.8524 41.6327 10.0875C43.4761 8.29315 45.7313 7.40088 48.4179 7.40088C51.1046 7.40088 54.7129 9.05796 56.3209 11.8524L56.3307 11.8426Z" fill="white"/>
<path d="M77.1275 10.4011C75.4802 10.4011 74.2154 8.83225 75.0096 7.06732C75.8038 5.30238 75.5685 6.2829 75.9999 6.0966C77.7845 5.3416 79.4612 6.479 79.4612 8.13608C79.4612 9.79316 78.4316 10.3913 77.1275 10.3913V10.4011Z" fill="white"/>
<path d="M78.9513 12.1953H75.2842V25.6382H78.9513V12.1953Z" fill="white"/>
<path d="M94.4829 17.3138V25.6482H90.855V17.8041C90.855 16.2548 89.8548 15.1959 88.3546 15.1959C86.8545 15.1959 85.8053 16.2548 85.8053 17.8041V25.6482H82.1479V12.2151H85.5013V13.4309C86.5015 12.421 87.835 11.9111 89.4332 11.9111C92.5611 11.9111 94.4829 14.0585 94.4829 17.3138Z" fill="white"/>
<path d="M126.605 20.1968H117.152C117.613 21.9029 118.996 22.854 120.957 22.854C122.918 22.854 123.526 22.3931 124.693 21.5107C124.693 21.5107 124.702 21.5107 124.712 21.5107L126.222 24.0012C124.624 25.3347 122.83 26.0112 120.849 26.0112C118.868 26.0112 116.966 25.3347 115.584 24.0012C114.201 22.6383 113.515 20.9616 113.495 18.9809C113.377 9.9013 126.86 9.57773 126.86 18.1965C126.86 18.8436 126.781 19.5202 126.615 20.2066L126.605 20.1968ZM117.152 17.618H123.291C123.232 14.3431 117.947 13.6959 117.152 17.618Z" fill="white"/>
<path d="M137.067 22.6083V25.6676C136.194 25.8833 135.361 25.9911 134.547 25.9911C131.154 25.9911 129.174 24.3046 129.174 20.9415V8.83203H132.831V12.2148H136.626V15.3035H132.831V20.5885C132.831 22.1083 133.596 22.677 135.331 22.677C137.067 22.677 136.116 22.6476 137.067 22.5691V22.6083Z" fill="white"/>
<path d="M149.814 13.9507L147.97 16.196C147.97 16.196 147.97 16.196 147.96 16.196C147.068 15.3528 146.068 14.9214 144.95 14.9214C143.832 14.9214 143.509 15.2449 143.509 15.8725C143.509 16.5 143.862 16.6569 144.921 17.0687L146.225 17.608C148.833 18.667 150 19.7259 150 21.7066C150 23.6872 149.51 24.099 148.51 24.854C147.529 25.609 146.284 25.9914 144.764 25.9914C142.371 25.9914 140.528 25.1286 139.195 23.3833L141.038 21.1673C141.038 21.1673 141.038 21.1673 141.048 21.1673C142.215 22.3831 143.489 22.9812 144.813 22.9812C146.137 22.9812 146.519 22.5988 146.519 21.8733C146.519 21.1477 146.137 21.0888 145.137 20.6476L143.695 20.0495C141.224 19.0396 140.028 17.9316 140.028 15.9509C140.028 13.9703 142.038 11.9014 144.97 11.9014C147.902 11.9014 148.578 12.5779 149.804 13.9408L149.814 13.9507Z" fill="white"/>
<path d="M111.593 20.4217C111.593 18.5195 110.651 17.1369 109.034 16.3231L109.308 15.9897C110.2 15.1465 110.642 14.0581 110.642 12.7638C110.642 11.4695 110.102 10.1066 109.043 9.1849C107.984 8.2338 106.631 7.77295 104.974 7.77295H97.738V25.6871H105.719C107.455 25.6871 108.867 25.1968 109.955 24.2163C111.073 23.2358 111.612 21.9611 111.612 20.4119L111.593 20.4217ZM101.248 10.9106H104.661C106.151 10.9106 106.994 11.6754 106.994 12.9501C106.994 14.2248 106.151 15.0092 104.661 15.0092H101.248V10.9106ZM105.435 22.5298H101.248V18.0194H105.435C107.033 18.0194 107.984 18.8822 107.984 20.2746C107.984 21.6669 107.033 22.5298 105.435 22.5298Z" fill="white"/>
<path d="M70.715 13.9408C69.3325 12.5779 67.6166 11.9014 65.6065 11.9014C63.5965 11.9014 65.6065 11.9014 65.5967 11.9014C65.5869 11.9014 65.5967 11.9014 65.5869 11.9014C63.5768 11.9014 61.8707 12.5779 60.4784 13.9408C59.0959 15.2744 58.3899 16.9314 58.3899 18.9121C58.3899 20.8927 59.0664 22.5792 60.4588 23.9324C61.8413 25.2659 63.5572 25.9424 65.5673 25.9424C67.5774 25.9424 65.5967 25.9424 65.6065 25.9424C65.6163 25.9424 65.6359 25.9424 65.6457 25.9424C67.6558 25.9424 69.3619 25.2659 70.7543 23.9324C72.1368 22.5694 72.8232 20.8927 72.8232 18.9121C72.8232 16.9314 72.1172 15.2744 70.7346 13.9408H70.715ZM65.6163 22.5694C65.6163 22.5694 65.6163 22.5694 65.6065 22.5694C65.5967 22.5694 65.6065 22.5694 65.5967 22.5694C63.5572 22.5694 62.1257 21.079 62.1257 18.9317C62.1257 16.7844 63.567 15.2351 65.5967 15.2351C67.6264 15.2351 65.5967 15.2351 65.6065 15.2351C65.6163 15.2351 65.6065 15.2351 65.6163 15.2351C67.6558 15.2351 69.0874 16.7844 69.0874 18.9317C69.0874 21.079 67.646 22.5694 65.6163 22.5694Z" fill="white"/>
<path d="M30.0039 8.87143C29.6411 6.84175 28.6312 5.02779 27.18 3.68448C25.8857 2.47844 24.2483 1.63519 22.4343 1.31162C20.1203 0.899799 17.7474 0.684082 15.3157 0.684082C12.884 0.684082 10.5112 0.899799 8.19715 1.31162C6.27533 1.6548 4.54961 2.57648 3.22591 3.90019C1.90221 5.22389 0.970715 6.94961 0.627532 8.88124C0.215714 11.1953 0 13.5681 0 15.9998C0 18.4315 0.215714 20.8044 0.627532 23.1184C0.970715 25.0402 1.8924 26.7561 3.2063 28.0798C4.53 29.4133 6.25572 30.3448 8.18734 30.688C10.5014 31.0998 12.8742 31.3155 15.3059 31.3155C17.7376 31.3155 20.1105 31.0998 22.4245 30.688C24.5522 30.3056 26.4348 29.2074 27.8076 27.6484C28.9155 26.3933 29.6902 24.8343 29.9941 23.1184C30.4059 20.8044 30.6216 18.4315 30.6216 15.9998C30.6216 13.5681 30.4059 11.1953 29.9941 8.88124L30.0039 8.87143Z" fill="#E6B830"/>
<path d="M7.28516 8.65552C7.92249 9.68506 8.80496 10.5577 9.84431 11.1755C10.9327 11.8226 12.178 12.1854 13.4526 12.2148C14.0606 11.097 14.3645 9.84195 14.3547 8.56727C14.3449 7.35143 14.0311 6.15519 13.4526 5.08643C10.9425 5.15506 8.59905 6.50818 7.28516 8.64571V8.65552Z" fill="white"/>
<path d="M21.7575 21.0104C20.5809 20.226 19.218 19.7946 17.8158 19.7554C17.1491 20.9908 16.8353 22.393 16.9334 23.8049C17.002 24.8737 17.306 25.9424 17.8158 26.8837C20.326 26.8151 22.6694 25.462 23.9833 23.3245C23.4146 22.4028 22.6498 21.6085 21.7575 21.0202V21.0104Z" fill="white"/>
<path d="M8.21665 18.7454C9.48152 18.1277 10.5405 17.1668 11.2857 15.9705C10.5503 14.7645 9.50113 13.8036 8.23626 13.1663C7.27535 12.6858 6.20658 12.4113 5.12801 12.3818C3.92197 14.588 3.91216 17.2942 5.09859 19.5102C6.17717 19.4808 7.24593 19.2259 8.21665 18.7552V18.7454Z" fill="white"/>
<path d="M17.8061 5.08643C17.2178 6.1748 16.9041 7.41026 16.9041 8.64571C16.9041 9.88117 17.2178 11.1166 17.8061 12.205C19.424 12.156 21.0124 11.5775 22.2773 10.5675C22.9539 10.0282 23.5226 9.3811 23.9736 8.64571C22.6597 6.50818 20.3163 5.15506 17.8061 5.08643Z" fill="white"/>
<path d="M9.2462 21.1963C8.46178 21.7748 7.79503 22.4808 7.28516 23.3142C8.59905 25.4517 10.9425 26.8049 13.4526 26.8735C13.8644 26.1087 14.139 25.2949 14.2665 24.4418C14.5116 22.8338 14.2272 21.1767 13.4526 19.7451C11.9328 19.7843 10.4718 20.2844 9.23639 21.1865L9.2462 21.1963Z" fill="white"/>
</svg>
