<svg width="161" height="30" viewBox="0 0 161 30" fill="none" xmlns="http://www.w3.org/2000/svg">
<path d="M74.4128 24.4623C72.0522 25.1968 69.7964 25.4328 67.8817 25.4328C61.1932 25.4328 57.7571 21.7082 57.7571 15.518C57.7571 9.59017 61.98 5.4459 68.9833 5.4459C70.4784 5.4459 72.0784 5.60328 73.8096 5.99672C74.0456 6.04918 74.1768 6.18033 74.1768 6.52131L74.2555 11.3738C74.2555 11.6623 74.0194 11.7935 73.7833 11.7935C73.521 11.7935 73.2325 11.6361 73.1014 11.3213C72.0784 8.9082 71.3178 7.07213 68.4063 7.07213C65.6784 7.07213 62.4259 8.98689 62.4259 15.2558C62.4259 20.5541 64.4456 23.623 68.7997 23.623C71.2915 23.623 72.8653 22.0492 73.8096 19.7672C73.9407 19.4525 74.2555 19.2426 74.544 19.2426C74.8063 19.2426 75.0948 19.4263 75.0686 19.8197L74.7801 23.9377C74.7538 24.2787 74.6489 24.3836 74.4128 24.4623Z" fill="black"/>
<path d="M82.904 25.4328C78.9434 25.4328 76.3729 23.0197 76.3729 18.9541C76.3729 13.6033 79.8876 11.5049 83.7172 11.5049C87.5991 11.5049 90.3008 13.9443 90.3008 18.0099C90.3008 23.1508 87.0221 25.4328 82.904 25.4328ZM83.5073 24.0689C85.4221 24.0689 85.9729 21.8656 85.9729 18.7967C85.9729 14.8099 85.2122 12.9738 83.1926 12.9738C81.2516 12.9738 80.6221 15.0459 80.6221 18.1148C80.6221 22.4426 81.5663 24.0689 83.5073 24.0689Z" fill="black"/>
<path d="M93.3649 7.38689C93.3649 6.07541 94.4403 5 95.7518 5C97.0371 5 98.0862 6.07541 98.0862 7.38689C98.0862 8.67214 97.0371 9.72132 95.7518 9.72132C94.4403 9.72132 93.3649 8.67214 93.3649 7.38689ZM97.0895 11.741C97.5879 11.741 97.9551 12.0557 97.9551 12.8426C97.9551 13.6295 97.8502 15.2295 97.8502 18.0361V22.3902C97.8502 23.8066 98.0338 23.964 99.6075 24.2C99.8698 24.2263 100.001 24.4623 100.001 24.6984C100.001 24.9345 99.8698 25.1705 99.5551 25.1705H91.8436C91.5289 25.1705 91.3715 24.9345 91.3715 24.6984C91.3715 24.4623 91.5026 24.2525 91.7649 24.2263C92.9452 24.0951 93.9944 23.8853 93.9944 20.9213V18.0623C93.9944 15.2558 93.8895 13.3935 92.2895 13.3935H91.7387C91.5026 13.3935 91.3715 13.1574 91.3715 12.9213C91.3715 12.7115 91.4764 12.4754 91.7387 12.3967C92.6567 12.1344 96.46 11.741 97.0895 11.741Z" fill="black"/>
<path d="M103.344 20.9213V18.0623C103.344 15.2558 103.239 13.3935 101.639 13.3935H101.193C100.904 13.3935 100.747 13.1574 100.747 12.8951C100.747 12.6853 100.852 12.4754 101.088 12.3967C102.006 12.1344 105.416 11.7672 106.045 11.7672C106.885 11.7672 107.173 12.3443 107.2 13.7082L108.065 13.1312C109.324 12.2918 110.741 11.5049 112.472 11.5049C114.203 11.5049 116.144 12.5279 116.144 15.9377V22.3902C116.144 23.8066 116.327 23.964 117.901 24.2C118.164 24.2263 118.295 24.4623 118.295 24.6984C118.295 24.9345 118.164 25.1705 117.849 25.1705H110.872C110.557 25.1705 110.4 24.9345 110.4 24.6984C110.4 24.4623 110.531 24.2525 110.793 24.2263C111.973 24.0951 112.236 23.7541 112.236 20.2131V16.6721C112.236 15.1508 111.632 14.3115 110.4 14.3115C109.482 14.3115 108.249 14.7312 107.2 15.282V22.3902C107.2 23.8066 107.383 23.964 108.957 24.2C109.219 24.2263 109.35 24.4623 109.35 24.6984C109.35 24.9345 109.219 25.1705 108.904 25.1705H101.193C100.878 25.1705 100.721 24.9345 100.721 24.6984C100.721 24.4623 100.852 24.2525 101.114 24.2263C102.295 24.0951 103.344 23.8853 103.344 20.9213Z" fill="black"/>
<path d="M127.852 25.1705H119.537C119.275 25.1705 119.144 24.9345 119.144 24.6722C119.144 24.4099 119.275 24.1738 119.564 24.1213C121.033 23.9115 121.505 23.6492 121.61 22.364C121.662 21.7345 121.741 20.5279 121.741 17.459V13.7607C121.741 10.6918 121.662 9.22296 121.61 8.61968C121.505 7.28197 121.137 6.99345 119.695 6.78361C119.406 6.75738 119.275 6.49509 119.275 6.23279C119.275 5.97049 119.406 5.73443 119.669 5.73443H127.301C131.105 5.73443 134.698 6.70492 134.698 10.5082C134.698 12.8951 133.229 14.4426 130.947 14.941C133.518 15.3607 136.036 16.9082 136.036 19.9771C136.036 23.8066 132.731 25.1705 127.852 25.1705ZM126.96 7.3082C126.41 7.3082 126.016 7.38689 125.623 7.49181V13.0525C125.623 20.0295 125.675 21.6558 125.806 22.6787C125.938 23.5181 126.331 23.7279 127.485 23.7279C129.898 23.7279 131.708 22.8361 131.708 19.6885C131.708 17.2754 130.344 15.8328 127.669 15.8328H127.328C126.777 15.8328 126.593 15.4918 126.593 15.1508C126.593 14.8623 126.751 14.5738 127.17 14.5738C128.639 14.5738 130.423 14.1017 130.423 10.9016C130.423 8.35738 129.269 7.3082 126.96 7.3082Z" fill="black"/>
<path d="M144.3 12.8951C142.91 12.8951 141.808 14.7049 141.651 16.8295L145.192 16.541C145.822 16.4885 146.031 16.2262 146.031 15.5705C146.031 13.7869 145.349 12.8951 144.3 12.8951ZM145.349 22.6787C147.894 22.6787 148.34 21.2361 148.995 21.2361C149.231 21.2361 149.415 21.3935 149.415 21.6558C149.415 23.3082 147.159 25.4066 143.933 25.4066C140.313 25.4066 137.874 23.1508 137.874 19.3476C137.874 14.5476 140.733 11.5049 144.982 11.5049C147.002 11.5049 149.782 12.7377 149.782 16.6721C149.782 17.5377 149.363 17.7738 148.392 17.8263L141.52 18.141C141.546 21 142.963 22.6787 145.349 22.6787Z" fill="black"/>
<path d="M156.488 13.2361V20.5017C156.488 22.2328 157.406 22.9935 158.692 22.9935C159.977 22.9935 160.265 22.4951 160.685 22.4951C160.869 22.4951 161 22.5738 161 22.8099C161 24.0164 158.823 25.4328 156.383 25.4328C154.18 25.4328 152.501 24.4361 152.501 21.8656C152.501 19.6623 152.659 15.3344 152.659 13.1836H151.216C150.849 13.1836 150.56 13 150.56 12.6328C150.56 12.0557 151.505 11.8721 153.026 10.5869C154.679 9.19673 155.256 8.51476 155.885 8.51476C156.305 8.51476 156.488 8.77706 156.488 9.27542V11.8459C157.852 11.8459 159.059 11.6623 159.741 11.6623C160.265 11.6623 160.528 12.1082 160.528 12.5017C160.528 12.8426 160.292 13.2361 159.688 13.2361H156.488Z" fill="black"/>
<path fill-rule="evenodd" clip-rule="evenodd" d="M41.5227 12.5127C42.1128 11.344 42.4523 10.021 42.4523 8.62466C42.4523 3.86876 38.5835 0 33.8276 0H21.2339V17.2493V29.0732L38.9499 29.3725C43.702 29.3725 47.5746 25.5037 47.5746 20.7478C47.5746 16.8829 45.0211 13.6081 41.515 12.5127H41.5227ZM33.8237 5.12619H26.3561V12.1231H33.8237C35.7522 12.1231 37.3221 10.5533 37.3221 8.62466C37.3221 6.69607 35.7522 5.12619 33.8237 5.12619ZM26.3561 24.2463H38.9537C40.8823 24.2463 42.4522 22.6764 42.4522 20.7478C42.4522 18.8192 40.8823 17.2493 38.9537 17.2493H26.3561V24.2463Z" fill="#E6B830"/>
<path fill-rule="evenodd" clip-rule="evenodd" d="M6.05179 12.5127C5.46164 11.344 5.12221 10.021 5.12221 8.62466C5.12221 3.86876 8.99097 0 13.7469 0H26.3406V17.2493V29.0732L8.62453 29.3725C3.87248 29.3725 -0.0001297 25.5037 -0.0001297 20.7478C-0.0001297 16.8829 2.55333 13.6081 6.05951 12.5127H6.05179ZM13.7508 5.12619H21.2183V12.1231H13.7508C11.8222 12.1231 10.2523 10.5533 10.2523 8.62466C10.2523 6.69607 11.8222 5.12619 13.7508 5.12619ZM21.2183 24.2463H8.62071C6.69212 24.2463 5.12224 22.6764 5.12224 20.7478C5.12224 18.8192 6.69212 17.2493 8.62071 17.2493H21.2183V24.2463Z" fill="#E6B830"/>
<path d="M13.1144 12.0653C7.32866 12.0653 6.04808 12.5128 6.04808 12.5128C5.97479 12.3662 5.90536 12.2158 5.83979 12.0653V12.0576C5.79736 11.9612 5.75879 11.8648 5.72021 11.7683C5.89765 9.93618 6.99694 5.20727 13.5657 5.13013C11.722 5.22656 10.2485 6.75786 10.2485 8.62474C10.2485 10.3412 11.4906 11.7722 13.1183 12.0653H13.1144Z" fill="#876D1F"/>
<path d="M34.4523 12.0653C40.238 12.0653 41.5186 12.5128 41.5186 12.5128C41.5919 12.3662 41.6613 12.2158 41.7269 12.0653V12.0576C41.7693 11.9612 41.8079 11.8648 41.8465 11.7683C41.6691 9.93618 40.5698 5.20727 34.001 5.13013C35.8447 5.22656 37.3182 6.75786 37.3182 8.62474C37.3182 10.3412 36.0761 11.7722 34.4484 12.0653H34.4523Z" fill="#876D1F"/>
</svg>
