<svg width="20" height="21" viewBox="0 0 20 21" fill="none" xmlns="http://www.w3.org/2000/svg">
<g clip-path="url(#clip0_11408_719)">
<path fill-rule="evenodd" clip-rule="evenodd" d="M9.99968 0.943359C4.93707 0.943359 0.833008 5.04742 0.833008 10.11C0.833008 15.1726 4.93707 19.2767 9.99968 19.2767C15.0623 19.2767 19.1663 15.1726 19.1663 10.11C19.1663 5.04742 15.0623 0.943359 9.99968 0.943359ZM14.3389 8.19929C14.6643 7.87384 14.6643 7.34621 14.3389 7.02077C14.0135 6.69533 13.4858 6.69533 13.1604 7.02077L8.74968 11.4315L6.83893 9.52078C6.51349 9.19536 5.98586 9.19536 5.66042 9.52078C5.33498 9.84619 5.33498 10.3739 5.66042 10.6993L8.16042 13.1993C8.48584 13.5247 9.01351 13.5247 9.33893 13.1993L14.3389 8.19929Z" fill="#02C002"/>
</g>
<defs>
<clipPath id="clip0_11408_719">
<rect width="20" height="20" fill="white" transform="translate(0 0.109863)"/>
</clipPath>
</defs>
</svg>
