<svg width="43" height="30" viewBox="0 0 43 30" fill="none" xmlns="http://www.w3.org/2000/svg">
<g clip-path="url(#clip0_10858_345)">
<path d="M39.0369 5.37561C33.2974 -4.05118 24.6501 2.51857 24.6501 2.51857C24.0881 2.94277 23.78 3.29084 23.0766 3.29084H20.7634C20.06 3.29084 19.7518 2.92827 19.1935 2.51857C19.1935 2.51857 10.5462 -4.04393 4.80673 5.38649C-0.932743 14.8169 1.38045 25.0812 1.38045 25.0812C1.78653 27.5938 3.12078 29.2725 5.64063 29.0695C8.16049 28.8665 13.6099 22.2931 13.6099 22.2931C14.1579 21.7154 14.9068 21.3702 15.7019 21.3287H28.1344C28.9335 21.3737 29.6843 21.7257 30.2301 22.3112C30.2301 22.3112 35.6686 28.8701 38.2066 29.0804C40.7446 29.2907 42.0607 27.6301 42.4632 25.0921C42.4595 25.0812 44.7908 14.8024 39.0369 5.37561ZM17.4278 13.0657H14.4511V15.9336C13.9766 16.2511 13.4157 16.4145 12.8449 16.4013C12.5876 16.414 12.3304 16.3754 12.0883 16.2876C11.8461 16.1998 11.6239 16.0647 11.4345 15.8901V13.0657H8.62095C8.33805 12.6871 8.18083 12.2294 8.17137 11.7568C8.12714 11.1605 8.26224 10.5645 8.55932 10.0455H11.536V7.06881C12.0026 6.84984 12.5147 6.74543 13.0298 6.76425C13.5578 6.78149 14.0769 6.9048 14.5562 7.12682V10.0455H17.3661C17.6664 10.4529 17.8506 10.934 17.8991 11.4378C17.877 12.0107 17.7152 12.5696 17.4278 13.0657ZM29.6318 16.3288C29.1657 16.3288 28.7101 16.1906 28.3225 15.9316C27.935 15.6727 27.6329 15.3046 27.4545 14.874C27.2761 14.4434 27.2295 13.9695 27.3204 13.5124C27.4113 13.0552 27.6358 12.6353 27.9654 12.3057C28.295 11.9761 28.7149 11.7516 29.1721 11.6607C29.6292 11.5698 30.1031 11.6164 30.5337 11.7948C30.9643 11.9732 31.3324 12.2753 31.5914 12.6628C31.8503 13.0504 31.9885 13.506 31.9885 13.9721C31.99 14.2824 31.93 14.5898 31.8122 14.8768C31.6944 15.1638 31.5209 15.4246 31.3019 15.6443C31.0829 15.864 30.8226 16.0382 30.5359 16.157C30.2493 16.2757 29.9421 16.3366 29.6318 16.3361V16.3288ZM29.6318 9.84609C29.1657 9.84609 28.7101 9.70787 28.3225 9.44891C27.935 9.18996 27.6329 8.82189 27.4545 8.39126C27.2761 7.96063 27.2295 7.48677 27.3204 7.02962C27.4113 6.57246 27.6358 6.15254 27.9654 5.82295C28.295 5.49336 28.7149 5.26891 29.1721 5.17797C29.6292 5.08704 30.1031 5.13371 30.5337 5.31208C30.9643 5.49046 31.3324 5.79252 31.5914 6.18008C31.8503 6.56763 31.9885 7.02328 31.9885 7.48939C31.9895 7.79931 31.9292 8.10637 31.8112 8.39294C31.6931 8.6795 31.5196 8.93992 31.3006 9.15924C31.0816 9.37856 30.8215 9.55246 30.5351 9.67095C30.2487 9.78944 29.9418 9.85019 29.6318 9.84971V9.84609ZM35.4982 13.3268C35.0321 13.3268 34.5764 13.1885 34.1889 12.9296C33.8013 12.6706 33.4993 12.3026 33.3209 11.8719C33.1425 11.4413 33.0958 10.9674 33.1868 10.5103C33.2777 10.0531 33.5022 9.6332 33.8318 9.30361C34.1613 8.97402 34.5813 8.74957 35.0384 8.65864C35.4956 8.5677 35.9694 8.61437 36.4001 8.79275C36.8307 8.97112 37.1988 9.27318 37.4577 9.66074C37.7167 10.0483 37.8549 10.5039 37.8549 10.9701C37.8559 11.2797 37.7957 11.5864 37.6779 11.8728C37.56 12.1591 37.3869 12.4193 37.1683 12.6386C36.9497 12.8579 36.6899 13.0319 36.404 13.1506C36.118 13.2693 35.8114 13.3304 35.5018 13.3304L35.4982 13.3268Z" fill="#010002"/>
</g>
<defs>
<clipPath id="clip0_10858_345">
<rect width="42" height="28.7807" fill="white" transform="translate(0.919922 0.299622)"/>
</clipPath>
</defs>
</svg>
