<svg width="12" height="13" viewBox="0 0 12 13" fill="none" xmlns="http://www.w3.org/2000/svg">
<path d="M6.26142 11.353H1.50352C0.834976 11.353 0.291992 10.8101 0.291992 10.1415V3.07933C0.291992 2.41078 0.834976 1.8678 1.50352 1.8678H6.26142C6.92997 1.8678 7.47295 2.41078 7.47295 3.07933V10.1449C7.47295 10.8135 6.92997 11.353 6.26142 11.353Z" fill="white"/>
<path d="M6.26128 11.6449H1.50339C0.675336 11.6449 0 10.9695 0 10.1415V3.07931C0 2.25126 0.675336 1.57593 1.50339 1.57593H6.26128C7.08933 1.57593 7.76467 2.25126 7.76467 3.07931V10.1449C7.76467 10.9729 7.08933 11.6449 6.26128 11.6449ZM1.50339 2.15964C0.997733 2.15964 0.587101 2.57027 0.587101 3.07592V10.1415C0.587101 10.6472 0.997733 11.0578 1.50339 11.0578H6.26128C6.76694 11.0578 7.17757 10.6472 7.17757 10.1415V3.07931C7.17757 2.57366 6.76694 2.16303 6.26128 2.16303H1.50339V2.15964Z" fill="white"/>
<path d="M1.90695 4.60306C1.60831 4.60306 1.36397 4.35872 1.36397 4.06008V3.80555H1.1875V3.55103H1.83229V3.80555H1.64904C1.64904 3.80555 1.64564 3.83949 1.64904 4.03632C1.64904 4.17885 1.76781 4.29763 1.91035 4.29763C2.00198 4.29763 2.08682 4.25012 2.13433 4.17207C2.17166 4.11098 2.17166 4.04311 2.17166 3.98202V3.45601V2.83497H1.92732V2.58044H2.80627V2.83497H2.54157V3.98542C2.54157 4.06686 2.53817 4.13474 2.52799 4.18564C2.47369 4.47071 2.20899 4.60306 1.9884 4.60306H1.9341C1.92732 4.60306 1.92053 4.60306 1.91713 4.60306C1.90695 4.60306 1.90695 4.60306 1.90695 4.60306Z" fill="#1C1C1C"/>
<path d="M6.00683 7.31116C6.24099 7.06342 6.37674 6.71388 6.35637 6.33379C6.32244 5.67881 5.81 5.1528 5.18557 5.11886C4.56113 5.08492 4.03512 5.53628 3.90955 6.14035C3.78738 5.53628 3.25797 5.08832 2.63694 5.11886C2.0159 5.1494 1.50685 5.66863 1.46613 6.31682C1.44237 6.66297 1.55097 6.98197 1.74101 7.22292L3.54983 9.88015C3.72969 10.1245 4.08263 10.1245 4.2591 9.88015L6.00683 7.31116Z" fill="#1C1C1C"/>
<path d="M7.60872 11.8858L3.14947 10.2229C2.52164 9.98877 2.20603 9.29307 2.4368 8.66525L4.90398 2.04424C5.13814 1.41642 5.83384 1.10081 6.46167 1.33157L10.9209 2.99446C11.5487 3.22862 11.8644 3.92432 11.6336 4.55215L9.16641 11.1732C8.93224 11.801 8.23315 12.12 7.60872 11.8858Z" fill="white"/>
<path d="M8.0291 12.2558C7.84924 12.2558 7.67277 12.2252 7.50309 12.1607L3.04383 10.4978C2.66714 10.3587 2.3685 10.0804 2.20221 9.71392C2.03592 9.3474 2.02235 8.94016 2.16149 8.56347L4.62867 1.94246C4.84586 1.35875 5.4126 0.965088 6.03703 0.965088C6.2169 0.965088 6.39336 0.995631 6.56305 1.06011L11.0223 2.723C11.399 2.86214 11.6976 3.14042 11.8639 3.50693C12.0302 3.87345 12.0438 4.28068 11.9047 4.65738L9.43747 11.2784C9.22028 11.8621 8.65354 12.2558 8.0291 12.2558ZM6.04043 1.55219C5.66034 1.55219 5.31419 1.79314 5.18183 2.14947L2.71126 8.77048C2.62641 9.00125 2.6332 9.24899 2.73501 9.47297C2.83682 9.69695 3.02008 9.86663 3.25085 9.95147L7.7101 11.6144C7.8153 11.6517 7.92051 11.6721 8.0291 11.6721C8.40919 11.6721 8.75534 11.4311 8.8877 11.0748L11.3549 4.45376C11.4397 4.22299 11.4329 3.97526 11.3311 3.75127C11.2293 3.52729 11.0461 3.35761 10.8153 3.27277L6.35943 1.60988C6.25423 1.57255 6.14902 1.55219 6.04043 1.55219Z" fill="white"/>
<path d="M8.6772 7.51136C8.6772 7.51136 8.07992 6.27267 7.88309 5.16974C7.83897 4.91521 7.53354 4.79983 7.32992 4.96273C6.46115 5.6686 5.19871 6.21159 5.19871 6.21159C4.76093 6.39145 4.43853 6.84959 4.52337 7.46045C4.54713 7.63013 4.62179 7.79303 4.73717 7.92199C5.22586 8.47176 5.93513 8.44122 6.36273 8.05434C6.21002 8.36995 5.91816 8.88239 5.51092 9.19121C5.38536 9.28623 5.41251 9.47967 5.55844 9.53397L5.89441 9.65954L6.23038 9.7851C6.3763 9.8394 6.52223 9.71044 6.49169 9.55773C6.38649 9.05886 6.50187 8.48194 6.5935 8.14257C6.66137 8.71271 7.17721 9.20139 7.90684 9.10637C8.07652 9.08262 8.23942 9.01135 8.36838 8.89597C8.83331 8.49212 8.891 7.93556 8.6772 7.51136ZM6.29825 4.20255L6.40685 3.9073L6.5901 3.97517L6.58332 3.40165L6.10142 3.22178L5.72812 3.65617L5.94871 3.73762L5.84011 4.03287L5.09011 3.75459L5.19871 3.45934L5.41251 3.54079L5.78581 3.1064L5.64667 3.05549L5.75527 2.76025L6.0064 2.85188L6.63083 2.12903L6.88535 2.22405L6.89553 3.18445L7.15684 3.28287L7.04825 3.57812L6.90232 3.52382L6.90911 4.09734L7.15684 4.18897L7.04825 4.48422L6.29825 4.20255ZM6.57992 3.06568L6.57653 2.67541L6.32201 2.97065L6.57992 3.06568Z" fill="#1C1C1C"/>
<path d="M6.86177 4.12791L6.85498 3.45257L7.02127 3.51366L7.09932 3.30665L6.85159 3.21502L6.8414 2.25462L6.64797 2.18335L6.02353 2.9062L5.78598 2.81796L5.70793 3.02497L5.86743 3.08606L5.42965 3.59511L5.22942 3.52045L5.15137 3.72746L5.81313 3.9752L5.89118 3.76818L5.65363 3.67995L6.09141 3.1709L6.63439 3.37113L6.64118 4.04646L6.43756 3.9718L6.35951 4.17882L7.02127 4.42655L7.09932 4.21954L6.86177 4.12791ZM6.24412 2.98764L6.62421 2.54647L6.631 3.13018L6.24412 2.98764Z" fill="#1C1C1C"/>
</svg>
