<svg width="14" height="16" viewBox="0 0 14 16" fill="none" xmlns="http://www.w3.org/2000/svg">
<path d="M10.1819 0.00800701C10.1479 -0.029993 8.92293 0.023007 7.85693 1.18001C6.79093 2.33601 6.95493 3.66201 6.97893 3.69601C7.00293 3.73001 8.49893 3.78301 9.45393 2.43801C10.4089 1.09301 10.2159 0.047007 10.1819 0.00800701ZM13.4959 11.741C13.4479 11.645 11.1709 10.507 11.3829 8.31901C11.5949 6.13001 13.0579 5.53001 13.0809 5.46501C13.1039 5.40001 12.4839 4.67501 11.8269 4.30801C11.3445 4.04926 10.8107 3.90102 10.2639 3.87401C10.1559 3.87101 9.78093 3.77901 9.00993 3.99001C8.50193 4.12901 7.35693 4.57901 7.04193 4.59701C6.72593 4.61501 5.78593 4.07501 4.77493 3.93201C4.12793 3.80701 3.44193 4.06301 2.95093 4.26001C2.46093 4.45601 1.52893 5.01401 0.876926 6.49701C0.224926 7.97901 0.565926 10.327 0.809926 11.057C1.05393 11.786 1.43493 12.981 2.08293 13.853C2.65893 14.837 3.42293 15.52 3.74193 15.752C4.06093 15.984 4.96093 16.138 5.58493 15.819C6.08693 15.511 6.99293 15.334 7.35093 15.347C7.70793 15.36 8.41193 15.501 9.13293 15.886C9.70393 16.083 10.2439 16.001 10.7849 15.781C11.3259 15.56 12.1089 14.722 13.0229 13.023C13.3699 12.233 13.5279 11.806 13.4959 11.741Z" fill="white"/>
<path d="M10.1819 0.00800701C10.1479 -0.029993 8.92293 0.023007 7.85693 1.18001C6.79093 2.33601 6.95493 3.66201 6.97893 3.69601C7.00293 3.73001 8.49893 3.78301 9.45393 2.43801C10.4089 1.09301 10.2159 0.047007 10.1819 0.00800701ZM13.4959 11.741C13.4479 11.645 11.1709 10.507 11.3829 8.31901C11.5949 6.13001 13.0579 5.53001 13.0809 5.46501C13.1039 5.40001 12.4839 4.67501 11.8269 4.30801C11.3445 4.04926 10.8107 3.90102 10.2639 3.87401C10.1559 3.87101 9.78093 3.77901 9.00993 3.99001C8.50193 4.12901 7.35693 4.57901 7.04193 4.59701C6.72593 4.61501 5.78593 4.07501 4.77493 3.93201C4.12793 3.80701 3.44193 4.06301 2.95093 4.26001C2.46093 4.45601 1.52893 5.01401 0.876926 6.49701C0.224926 7.97901 0.565926 10.327 0.809926 11.057C1.05393 11.786 1.43493 12.981 2.08293 13.853C2.65893 14.837 3.42293 15.52 3.74193 15.752C4.06093 15.984 4.96093 16.138 5.58493 15.819C6.08693 15.511 6.99293 15.334 7.35093 15.347C7.70793 15.36 8.41193 15.501 9.13293 15.886C9.70393 16.083 10.2439 16.001 10.7849 15.781C11.3259 15.56 12.1089 14.722 13.0229 13.023C13.3699 12.233 13.5279 11.806 13.4959 11.741Z" fill="white"/>
</svg>
