<svg width="24" height="24" viewBox="0 0 24 24" fill="none" xmlns="http://www.w3.org/2000/svg">
<path d="M6 21H3C2.73478 21 2.48043 20.8946 2.29289 20.7071C2.10536 20.5196 2 20.2652 2 20V14C2 13.7348 2.10536 13.4804 2.29289 13.2929C2.48043 13.1054 2.73478 13 3 13H6C6.79541 13.0008 7.55801 13.3171 8.12044 13.8796C8.68288 14.442 8.99921 15.2046 9 16V18C8.99921 18.7954 8.68288 19.558 8.12044 20.1204C7.55801 20.6829 6.79541 20.9992 6 21ZM21 21H18C17.2046 20.9992 16.442 20.6829 15.8796 20.1204C15.3171 19.558 15.0008 18.7954 15 18V16C15.0008 15.2046 15.3171 14.442 15.8796 13.8796C16.442 13.3171 17.2046 13.0008 18 13H21C21.2652 13 21.5196 13.1054 21.7071 13.2929C21.8946 13.4804 22 13.7348 22 14V20C22 20.2652 21.8946 20.5196 21.7071 20.7071C21.5196 20.8946 21.2652 21 21 21Z" fill="white"/>
<path d="M12 3C6.477 3 2 7.477 2 13V14C2 13.7348 2.10536 13.4804 2.29289 13.2929C2.48043 13.1054 2.73478 13 3 13H4C4 10.8783 4.84285 8.84344 6.34315 7.34315C7.84344 5.84285 9.87827 5 12 5C14.1217 5 16.1566 5.84285 17.6569 7.34315C19.1571 8.84344 20 10.8783 20 13H21C21.2652 13 21.5196 13.1054 21.7071 13.2929C21.8946 13.4804 22 13.7348 22 14V13C22 7.477 17.523 3 12 3Z" fill="white"/>
</svg>
