<svg width="29" height="28" viewBox="0 0 29 28" fill="none" xmlns="http://www.w3.org/2000/svg">
<path d="M26.7798 13.7321C26.7798 14.6958 26.671 15.632 26.4612 16.5335C26.1549 17.8728 25.6256 19.151 24.8954 20.3147C23.8915 21.919 22.5362 23.2743 20.9319 24.2783C19.7682 25.0084 18.4899 25.5377 17.1507 25.844C16.2492 26.0538 15.3088 26.1626 14.3451 26.1626C13.3814 26.1626 12.4447 26.0538 11.5432 25.844C10.2041 25.5377 8.92607 25.0084 7.7625 24.2783C6.15695 23.2745 4.80028 21.9192 3.79479 20.3147C3.06695 19.1513 2.53781 17.8748 2.22906 16.5377C2.01612 15.6177 1.90921 14.6764 1.91042 13.7321C1.90635 11.4028 2.55949 9.11958 3.79479 7.14481C4.80027 5.5403 6.15694 4.18505 7.7625 3.18125C8.92606 2.45113 10.2041 1.92184 11.5432 1.61551C12.4447 1.40568 13.3814 1.29688 14.3451 1.29688C15.3088 1.29688 16.2492 1.40568 17.1507 1.61551C18.5107 1.92638 19.7853 2.46263 20.9319 3.18125C22.5362 4.1852 23.8915 5.54049 24.8954 7.14481C25.6256 8.30853 26.1549 9.58675 26.4612 10.926C26.671 11.8275 26.7798 12.7684 26.7798 13.7321Z" fill="#E6B830"/>
<path d="M8.29887 23.2793L7.76263 24.2782C6.36174 23.4029 5.14911 22.2576 4.19542 20.9089C4.12548 20.8198 4.0633 20.7224 3.99699 20.6291C3.93119 20.5245 3.86124 20.4193 3.79492 20.3146L4.79747 19.7784C4.97838 19.6814 5.18572 19.6452 5.38878 19.6753C5.59184 19.7053 5.77982 19.8 5.92488 19.9452L8.13204 22.1487C8.27652 22.2949 8.37061 22.4833 8.40061 22.6867C8.43062 22.89 8.39498 23.0976 8.29887 23.2793ZM17.1508 25.8439C16.2493 26.0537 15.3089 26.1625 14.3452 26.1625C13.3816 26.1625 12.4448 26.0537 11.5433 25.8439L11.8697 24.76C11.9941 24.3559 12.3671 24.0797 12.7868 24.0797H15.9037C16.327 24.0797 16.7001 24.3559 16.8244 24.76L17.1508 25.8439ZM24.8956 20.3151C23.8916 21.9194 22.5363 23.2747 20.932 24.2787L20.3958 23.2798C20.2989 23.0983 20.2629 22.8905 20.2929 22.687C20.3229 22.4835 20.4175 22.295 20.5626 22.1493L22.7656 19.9457C22.9114 19.8004 23.1 19.7058 23.3036 19.6757C23.5072 19.6457 23.7151 19.6818 23.8967 19.7789L24.8956 20.3151ZM26.7799 13.732C26.7799 14.6957 26.6711 15.6319 26.4613 16.5334L25.3774 16.207C25.1809 16.1469 25.0089 16.0254 24.8864 15.8604C24.764 15.6954 24.6977 15.4954 24.6971 15.29V12.1704C24.6971 11.7507 24.9728 11.3777 25.3774 11.2533L26.4613 10.9269C26.6711 11.8285 26.7799 12.7683 26.7799 13.732ZM24.8956 7.14471L23.8967 7.68096C23.6324 7.82085 23.3252 7.82862 23.0609 7.71205C22.9508 7.66545 22.8506 7.59828 22.7656 7.51413L20.5626 5.31059C20.4175 5.16482 20.3229 4.97632 20.2929 4.77282C20.2629 4.56932 20.2989 4.36156 20.3958 4.18007L20.932 3.18115C21.033 3.24747 21.1377 3.30964 21.2387 3.37544V3.37959C21.2812 3.40653 21.3242 3.43762 21.3672 3.46508C22.5625 4.26194 23.7024 5.408 24.5339 6.60069C24.6583 6.77944 24.7785 6.95819 24.8956 7.14471Z" fill="white"/>
<path d="M17.1507 1.616L16.8243 2.69989C16.6999 3.10402 16.3269 3.38018 15.9036 3.38018H12.7866C12.367 3.38018 11.9939 3.10402 11.8696 2.69989L11.5432 1.616C12.4447 1.40617 13.3814 1.29736 14.3451 1.29736C15.3088 1.29736 16.2492 1.40617 17.1507 1.616ZM8.13191 5.31066L5.92475 7.5142C5.77968 7.65943 5.5917 7.75408 5.38864 7.78413C5.18558 7.81417 4.97824 7.77802 4.79733 7.68103L3.79479 7.14478C4.80026 5.54027 6.15693 4.18502 7.76249 3.18122L8.29874 4.18118C8.3946 4.36291 8.4301 4.57044 8.40011 4.77371C8.37011 4.97697 8.27617 5.1654 8.13191 5.3117V5.31066ZM3.99737 12.1705V15.2905C3.99737 15.7102 3.72121 16.0833 3.31709 16.2076L2.22905 16.5382C2.01611 15.6182 1.9092 14.6769 1.91041 13.7326C1.91041 12.7647 2.01921 11.8244 2.22905 10.9229L3.31709 11.2534C3.72121 11.3778 3.99737 11.7508 3.99737 12.1705Z" fill="white"/>
<path d="M20.6584 13.728C20.6584 17.2149 17.8316 20.0417 14.3452 20.0417C10.8625 20.0417 8.03564 17.2149 8.03564 13.728C8.03564 10.2453 10.8625 7.41846 14.3452 7.41846C17.8321 7.41846 20.6584 10.2453 20.6584 13.728Z" fill="white"/>
<path d="M14.3442 22.1663C9.69415 22.1663 5.91089 18.3805 5.91089 13.7273C5.91089 9.07671 9.69415 5.29346 14.3442 5.29346C18.9979 5.29346 22.7837 9.07671 22.7837 13.7273C22.7837 18.3805 18.9979 22.1663 14.3442 22.1663ZM14.3442 5.68204C9.90813 5.68204 6.29947 9.29121 6.29947 13.7273C6.29947 18.166 9.90813 21.7777 14.3442 21.7777C18.7834 21.7777 22.3952 18.1665 22.3952 13.7273C22.3952 9.29121 18.7839 5.68204 14.3442 5.68204Z" fill="white"/>
<path d="M16.8084 13.8075L14.5826 17.4343C14.5579 17.4745 14.5233 17.5077 14.4821 17.5307C14.4409 17.5537 14.3945 17.5658 14.3474 17.5658C14.3002 17.5658 14.2538 17.5537 14.2126 17.5307C14.1714 17.5077 14.1368 17.4745 14.1121 17.4343L11.8863 13.8075C11.8347 13.7234 11.8074 13.6265 11.8074 13.5278C11.8074 13.429 11.8347 13.3322 11.8863 13.248L14.1121 9.62171C14.1368 9.58153 14.1714 9.54835 14.2126 9.52534C14.2538 9.50232 14.3002 9.49023 14.3474 9.49023C14.3945 9.49023 14.4409 9.50232 14.4821 9.52534C14.5233 9.54835 14.5579 9.58153 14.5826 9.62171L16.8084 13.248C16.9136 13.4195 16.9136 13.6366 16.8084 13.8075Z" fill="#2D2C2C"/>
<path d="M16.8067 13.8078L14.584 17.4336C14.5588 17.4737 14.5239 17.5068 14.4824 17.5298C14.441 17.5527 14.3944 17.5647 14.347 17.5647C14.2996 17.5647 14.253 17.5527 14.2115 17.5298C14.1701 17.5068 14.1351 17.4737 14.1099 17.4336L13.7524 16.8507C13.8654 16.987 14.0908 16.9714 14.1918 16.8119L16.4181 13.1866C16.4696 13.1016 16.4968 13.0042 16.4968 12.9048C16.4968 12.8054 16.4696 12.7079 16.4181 12.6229L14.5493 9.58057C14.5648 9.59196 14.5726 9.60751 14.584 9.62305L16.8067 13.2488C16.9119 13.4198 16.9119 13.6369 16.8067 13.8078Z" fill="#1B1B1B"/>
</svg>
