<svg width="20" height="18" viewBox="0 0 20 18" fill="none" xmlns="http://www.w3.org/2000/svg">
<path d="M4.42175 17.5156C4.20744 17.3596 4.10063 17.0956 4.14553 16.8347L5.07112 11.4431L1.29665 7.76268L1.14766 7.61335C0.961251 7.42694 0.895939 7.15141 0.978939 6.90122C1.06228 6.65102 1.2793 6.46921 1.54021 6.43128L6.95087 5.64686L9.37557 0.738958C9.49293 0.501183 9.73513 0.35083 10.0001 0.35083C10.2651 0.351 10.5076 0.501523 10.625 0.739299L13.0449 5.64618L18.46 6.43128C18.7209 6.46921 18.9379 6.65085 19.0209 6.90105C19.1043 7.15107 19.0393 7.4266 18.8529 7.61318L18.71 7.75622L14.9247 11.4433L15.855 16.834C15.9006 17.0975 15.7914 17.3635 15.5741 17.5191C15.3581 17.6734 15.0712 17.6931 14.8349 17.5642L14.775 17.5314C14.7324 17.5127 15.0402 17.6721 10.0001 15.0199L5.15412 17.5701C4.92255 17.6914 4.6379 17.6733 4.42175 17.5156Z" fill="#AE6814"/>
<path d="M18.36 7.1209C17.1896 6.95107 21.3629 7.55659 12.582 6.28252L10.0002 1.04749L7.4136 6.28252L7.35641 6.29206L1.64026 7.1209L1.77841 7.25902C7.64556 12.9809 5.20328 10.5991 5.81782 11.1984L5.80356 11.2937L4.83179 16.9527C11.9002 13.2328 9.48033 14.5063 10.0002 14.2327L15.059 16.8955H15.0637L15.1685 16.9527L14.192 11.2937L14.1777 11.1984L18.2171 7.26381L18.36 7.1209Z" fill="#F4BC5F"/>
<path d="M18.3601 7.12079L18.2171 7.26381L10.0001 9.93136L12.6439 6.29211L18.3601 7.12079Z" fill="#AE6814"/>
<path d="M12.6439 6.29214L10.0001 9.93138V1.04761L12.582 6.28232L12.6439 6.29214Z" fill="#AE6814"/>
<path d="M10.0001 1.04761V9.93138L7.35669 6.29214L7.41367 6.28232L10.0001 1.04761Z" fill="#FFB257"/>
<path d="M10 9.93136L1.78302 7.26381L1.77849 7.25891L1.64038 7.12079L7.35661 6.29211L10 9.93136Z" fill="#AE6814"/>
<path d="M5.80346 11.2936L5.8178 11.1985L1.78308 7.26379L10.0001 9.93134L5.80346 11.2936Z" fill="#FFB257"/>
<path d="M10.0001 9.9314L4.9416 16.8955L4.83179 16.9525L5.80349 11.2937L10.0001 9.9314Z" fill="#AE6814"/>
<path d="M10.0001 9.9314V14.2329L4.94165 16.8955L10.0001 9.9314Z" fill="#FFB257"/>
<path d="M15.059 16.8955L10.0001 14.2329V9.9314L15.059 16.8955Z" fill="#FFB257"/>
<path d="M15.1688 16.9525L15.0639 16.8955H15.059L10.0001 9.9314L14.1922 11.2937L15.1688 16.9525Z" fill="#AE6814"/>
<path d="M14.1779 11.1985L14.1922 11.2936L10.0001 9.93134L18.2171 7.26379L14.1779 11.1985Z" fill="#FFB257"/>
</svg>
