<svg width="11" height="11" viewBox="0 0 11 11" fill="none" xmlns="http://www.w3.org/2000/svg">
<path d="M7.02429 0.0041782C6.72571 0.0355948 6.44286 0.239803 6.28571 0.538261C6.08143 0.946677 4.57286 3.97838 4.27429 4.27684C3.97571 4.5753 3.58286 4.71667 3.14286 4.71667V11H8.64286C8.97286 11 9.25571 10.7958 9.38143 10.513C9.38143 10.513 11 5.94192 11 5.50209C11 5.06226 10.6543 4.71667 10.2143 4.71667H7.85714C7.41714 4.71667 7.07143 4.32397 7.07143 3.93126C7.07143 3.53855 7.68429 1.44934 7.81 1.04093C7.87349 0.845037 7.85813 0.632126 7.76719 0.447367C7.67624 0.262608 7.51686 0.120539 7.32286 0.0513031C7.21286 0.0198865 7.13429 -0.0115301 7.02429 0.0041782ZM0 4.71667V11H1.57143V4.71667H0Z" fill="white"/>
</svg>
