<svg width="27" height="26" viewBox="0 0 27 26" fill="none" xmlns="http://www.w3.org/2000/svg">
<g clip-path="url(#clip0_10770_16651)">
<path d="M14.5027 0.8125C7.77112 0.8125 2.31519 6.26895 2.31519 13C2.31519 19.7311 7.77163 25.1875 14.5027 25.1875C21.2337 25.1875 26.6902 19.7311 26.6902 13C26.6902 6.26895 21.2337 0.8125 14.5027 0.8125ZM9.15948 17.3672C8.92676 17.3678 8.69817 17.3057 8.49769 17.1876C8.29721 17.0694 8.13225 16.8994 8.02011 16.6955C7.90797 16.4915 7.85278 16.2612 7.86035 16.0286C7.86792 15.796 7.93796 15.5697 8.06312 15.3735C6.51378 14.9165 5.45245 14.2294 5.39964 14.1949C5.27603 14.1103 5.19051 13.9806 5.16144 13.8337C5.13237 13.6867 5.16207 13.5342 5.24416 13.409C5.32624 13.2837 5.45418 13.1956 5.6005 13.1635C5.74682 13.1315 5.89987 13.1581 6.02679 13.2377C7.0228 13.8388 8.11557 14.2625 9.25647 14.4899C11.1186 14.8479 12.5532 14.6981 12.5679 14.6971C12.7187 14.6822 12.8692 14.7271 12.9873 14.8221C13.1053 14.917 13.1814 15.0545 13.1991 15.2049C13.2158 15.3556 13.172 15.5068 13.0772 15.6252C12.9824 15.7435 12.8446 15.8194 12.6939 15.8361C12.3806 15.8659 12.066 15.8795 11.7514 15.8768C11.3933 15.8768 10.9424 15.8585 10.4341 15.8112C10.4722 15.9999 10.4678 16.1947 10.4214 16.3815C10.375 16.5683 10.2876 16.7425 10.1656 16.8914C10.0437 17.0403 9.89011 17.1602 9.7161 17.2425C9.54209 17.3248 9.35197 17.3674 9.15948 17.3672ZM14.4189 20.9666C12.2785 20.9666 10.6504 20.8604 10.6504 20.3465C10.6504 19.8326 12.3856 19.4162 14.5266 19.4162C16.6675 19.4162 18.4022 19.8331 18.4022 20.3465C18.4022 20.8599 16.5593 20.9661 14.4189 20.9661V20.9666ZM23.6057 14.1944C23.555 14.2289 22.4916 14.915 20.9417 15.373C21.0554 15.5525 21.1233 15.7572 21.1395 15.969C21.1557 16.1809 21.1197 16.3935 21.0346 16.5882C20.9495 16.7829 20.818 16.9538 20.6515 17.0858C20.485 17.2178 20.2886 17.307 20.0797 17.3455C19.8707 17.384 19.6555 17.3706 19.4529 17.3066C19.2503 17.2426 19.0665 17.1298 18.9176 16.9782C18.7687 16.8266 18.6593 16.6408 18.5989 16.4371C18.5385 16.2334 18.529 16.018 18.5713 15.8097C18.0635 15.857 17.612 15.8752 17.254 15.8752C16.9394 15.878 16.6248 15.8644 16.3115 15.8346C16.2369 15.8264 16.1646 15.8035 16.0988 15.7674C16.033 15.7312 15.9749 15.6824 15.928 15.6238C15.8811 15.5651 15.8462 15.4978 15.8253 15.4257C15.8044 15.3536 15.7979 15.278 15.8062 15.2034C15.8239 15.0529 15.8999 14.9153 16.018 14.8204C16.136 14.7254 16.2867 14.6806 16.4375 14.6956C16.4517 14.6956 17.8867 14.8479 19.7489 14.4884C20.8897 14.261 21.9823 13.8373 22.9781 13.2361C23.105 13.1529 23.2598 13.1235 23.4084 13.1544C23.557 13.1853 23.6873 13.274 23.7705 13.4009C23.8538 13.5279 23.8831 13.6827 23.8522 13.8313C23.8213 13.9799 23.7327 14.1101 23.6057 14.1934V14.1944Z" fill="#E6B830"/>
<path d="M23.7703 13.402C23.7292 13.3391 23.6761 13.2849 23.614 13.2425C23.5519 13.2001 23.4821 13.1704 23.4085 13.1551C23.3349 13.1397 23.259 13.1391 23.1852 13.1531C23.1113 13.1672 23.041 13.1957 22.9782 13.237C21.9824 13.8382 20.8897 14.2619 19.749 14.4893C17.8868 14.8473 16.4517 14.6975 16.4375 14.6964C16.2867 14.6814 16.1361 14.7262 16.018 14.8212C15.9 14.9162 15.8239 15.0538 15.8063 15.2043C15.7898 15.3547 15.8337 15.5056 15.9283 15.6238C16.0229 15.742 16.1606 15.8177 16.3111 15.8344C16.6243 15.8642 16.9389 15.8778 17.2536 15.8751C17.6116 15.8751 18.0625 15.8568 18.5708 15.8096C18.5279 16.0182 18.5368 16.2343 18.5969 16.4387C18.657 16.6431 18.7664 16.8296 18.9155 16.9818C19.0646 17.134 19.2487 17.2473 19.4518 17.3116C19.6549 17.376 19.8707 17.3894 20.0803 17.3508C20.2898 17.3122 20.4866 17.2227 20.6535 17.0902C20.8203 16.9577 20.952 16.7863 21.0371 16.5909C21.1221 16.3956 21.1578 16.1823 21.1411 15.9699C21.1244 15.7576 21.0558 15.5525 20.9413 15.3728C22.4912 14.9158 23.5525 14.2287 23.6053 14.1942C23.6682 14.1531 23.7224 14.0999 23.7647 14.0378C23.807 13.9757 23.8367 13.9059 23.852 13.8323C23.8674 13.7588 23.868 13.6829 23.854 13.609C23.84 13.5352 23.8116 13.4649 23.7703 13.402ZM11.7514 15.8751C12.0661 15.8778 12.3807 15.8642 12.6939 15.8344C12.8446 15.8177 12.9825 15.7418 13.0773 15.6235C13.172 15.5051 13.2159 15.3539 13.1992 15.2032C13.1815 15.0528 13.1054 14.9153 12.9874 14.8204C12.8693 14.7254 12.7187 14.6805 12.568 14.6954C12.5533 14.6954 11.1187 14.8478 9.25655 14.4882C8.11565 14.2608 7.02287 13.8371 6.02686 13.236C5.89994 13.1564 5.7469 13.1298 5.60057 13.1618C5.45425 13.1939 5.32632 13.282 5.24423 13.4073C5.16214 13.5326 5.13245 13.685 5.16152 13.832C5.19059 13.9789 5.2761 14.1086 5.39971 14.1932C5.45049 14.2277 6.51385 14.9138 8.06319 15.3718C7.94963 15.5514 7.88184 15.756 7.86575 15.9678C7.84965 16.1796 7.88575 16.3922 7.97088 16.5868C8.05601 16.7814 8.18756 16.9522 8.35403 17.0841C8.52049 17.2161 8.71678 17.3052 8.92569 17.3437C9.1346 17.3822 9.34976 17.3689 9.55232 17.3049C9.75488 17.2409 9.93865 17.1282 10.0875 16.9767C10.2364 16.8251 10.3459 16.6394 10.4063 16.4358C10.4667 16.2321 10.4763 16.0168 10.4342 15.8086C10.9425 15.8568 11.3934 15.8751 11.7514 15.8751ZM14.5266 19.4155C12.3857 19.4155 10.6505 19.8325 10.6505 20.3459C10.6505 20.8593 12.2785 20.9659 14.419 20.9659C16.5594 20.9659 18.4023 20.8598 18.4023 20.3459C18.4023 19.8319 16.6665 19.4155 14.5266 19.4155Z" fill="#112030"/>
</g>
<defs>
<clipPath id="clip0_10770_16651">
<rect width="26" height="26" fill="white" transform="translate(0.975098)"/>
</clipPath>
</defs>
</svg>
