<svg width="26" height="27" viewBox="0 0 26 27" fill="none" xmlns="http://www.w3.org/2000/svg">
<path d="M18.0699 17.7452C16.4468 16.7413 14.7493 16.0393 14.1328 15.8015V14.9259C15.0316 14.0768 15.6148 12.8728 15.6928 11.5217C16.021 11.4714 16.3206 11.3033 16.5373 11.0478C16.754 10.7923 16.8734 10.4663 16.8739 10.129C16.8739 9.54027 16.5173 9.03454 16.0122 8.82319C16.7179 6.71724 16.7885 5.21515 16.235 4.24897C15.923 3.69795 15.4179 3.34319 14.7308 3.196C13.7205 1.04853 11.9265 1.10892 10.9459 1.14288L10.7528 1.14666C8.71732 1.18817 7.25018 1.85242 6.39961 3.12429C5.19989 4.91322 5.54532 7.423 5.88332 8.82319C5.3819 9.03454 5.02904 9.54027 5.02904 10.129C5.02904 10.8348 5.5379 11.4198 6.20275 11.5217C6.25067 12.8955 6.86872 14.156 7.77018 14.9561V15.8015C7.15732 16.0393 5.45618 16.7413 3.82932 17.7452C2.44018 18.6095 1.49675 20.0247 1.23675 21.6325C1.21075 21.7759 1.2739 21.9193 1.39275 22.0024C4.22192 23.9947 7.3917 25.2859 10.8605 25.2859C13.6982 25.2859 16.8784 24.4491 20.5028 22.0099C20.6253 21.9269 20.6885 21.7797 20.6625 21.6325C20.4025 20.0247 19.459 18.6095 18.0699 17.7452ZM16.079 23.512L16.9668 22.1081C17.1525 21.8137 17.1153 21.4325 16.8739 21.1834L15.9676 20.2663L16.9148 19.6511C17.3308 19.3801 17.3705 18.7872 17.0076 18.466L15.7448 17.33C16.3465 17.6244 17.0225 17.9792 17.6836 18.3906C18.8165 19.0963 19.6113 20.2248 19.8862 21.5155C18.6159 22.3534 17.3382 23.0214 16.079 23.512ZM6.9419 9.52895C7.01172 9.07342 7.16772 8.01629 7.32818 7.41923C7.59041 6.31681 8.16649 5.47556 9.18161 5.47556L12.3908 5.36988C13.1136 5.34384 13.8115 5.75182 14.1662 6.61911C14.4864 7.37696 14.8374 9.20438 14.9573 9.73275L14.961 9.73653L14.9573 11.4349C14.8366 13.6669 13.1644 15.3501 11.1465 15.443C8.90229 15.5524 7.00132 13.7778 6.9419 11.4349V9.52895ZM11.1799 16.1978C11.8058 16.1676 12.2782 16.0355 12.7399 15.843V16.2053L10.9533 17.3451L9.16304 16.194V15.8506C9.75138 16.0959 10.4675 16.2333 11.1799 16.1978ZM12.517 24.4254L11.971 19.7681L12.1976 19.4171L12.6359 19.7757C12.6843 19.8148 12.7416 19.8411 12.8025 19.8523C12.8634 19.8635 12.9261 19.8591 12.9849 19.8397C13.0438 19.8203 13.097 19.7863 13.1398 19.7409C13.1826 19.6955 13.2136 19.64 13.2302 19.5794L13.6239 18.0698C13.895 20.5607 13.9285 22.5043 12.6879 24.4027C12.6322 24.414 12.5765 24.4216 12.517 24.4254ZM9.23732 18.8208L8.73961 16.9073L10.3145 17.9414L9.23732 18.8208ZM12.6582 18.8208C12.621 18.7906 11.5476 17.9056 11.5848 17.9414L13.1559 16.9073L12.6582 18.8208ZM6.15075 17.3338L4.89161 18.466C4.80658 18.5424 4.74019 18.6378 4.6977 18.7448C4.65521 18.8517 4.63778 18.9672 4.64678 19.0821C4.65579 19.1971 4.69099 19.3083 4.7496 19.4071C4.8082 19.5058 4.88861 19.5894 4.98447 19.6511L5.93161 20.2474L5.02532 21.1834C4.7839 21.4325 4.74675 21.8137 4.93247 22.1081L5.86104 23.5724C4.5759 23.0856 3.28704 22.3949 2.01304 21.5231C2.2879 20.2285 3.07904 19.0963 4.21561 18.3906C4.87675 17.983 5.54904 17.6282 6.15075 17.3338ZM9.22989 24.4291H9.22618C7.97447 22.527 8.00418 20.5795 8.27532 18.0849L8.66532 19.5794C8.73552 19.8319 9.04047 19.9493 9.25961 19.7757L9.70161 19.4133L9.93189 19.7681L9.37847 24.448C9.33018 24.4442 9.28189 24.4405 9.22989 24.4291Z" fill="#313339" fill-opacity="0.5"/>
<path d="M8.31604 9.87617C8.35843 9.90112 8.40526 9.91731 8.45384 9.92379C8.50241 9.93028 8.55177 9.92693 8.59907 9.91395C8.64637 9.90097 8.69067 9.87862 8.72943 9.84816C8.76818 9.81771 8.80063 9.77977 8.8249 9.73653C8.8449 9.70091 8.87382 9.67131 8.90872 9.65072C8.94362 9.63012 8.98325 9.61928 9.02361 9.61928C9.06397 9.61928 9.1036 9.63012 9.1385 9.65072C9.1734 9.67131 9.20232 9.70091 9.22232 9.73653C9.32632 9.91466 9.54584 9.9875 9.72747 9.87617C9.81306 9.82701 9.87598 9.74538 9.90243 9.64917C9.92889 9.55295 9.91673 9.45001 9.86861 9.36289C9.49904 8.6994 8.55004 8.69638 8.17861 9.36289C8.15443 9.40575 8.13881 9.45304 8.13264 9.50204C8.12646 9.55104 8.12985 9.6008 8.14261 9.64847C8.15538 9.69615 8.17726 9.74079 8.20702 9.77986C8.23678 9.81893 8.27382 9.85166 8.31604 9.87617ZM12.1715 9.87617C12.3498 9.98184 12.5763 9.91768 12.6766 9.73653C12.6966 9.70091 12.7255 9.67131 12.7604 9.65072C12.7953 9.63012 12.835 9.61928 12.8753 9.61928C12.9157 9.61928 12.9553 9.63012 12.9902 9.65072C13.0251 9.67131 13.054 9.70091 13.074 9.73653C13.1702 9.9007 13.3786 9.99316 13.5829 9.87617C13.7612 9.77427 13.8206 9.54405 13.7203 9.36289C13.3534 8.70393 12.4129 8.6911 12.0303 9.36289C11.9822 9.45001 11.97 9.55295 11.9965 9.64917C12.023 9.74538 12.0859 9.82701 12.1715 9.87617ZM11.54 11.7481C11.6849 11.5972 11.6849 11.3594 11.54 11.2122C11.3952 11.065 11.1575 11.065 11.0126 11.2122C10.9718 11.2575 10.9309 11.2575 10.8863 11.2122C10.7415 11.065 10.5075 11.065 10.3589 11.2122C10.214 11.3594 10.214 11.5972 10.3589 11.7481C10.5164 11.9055 10.7285 11.9937 10.9495 11.9937C11.1704 11.9937 11.3825 11.9055 11.54 11.7481ZM9.22975 12.3897C9.07747 12.5294 9.06632 12.7709 9.20375 12.9256C10.1342 13.9616 11.7577 13.9703 12.6952 12.9256C12.8326 12.7709 12.8215 12.5294 12.6729 12.3897C12.5206 12.2501 12.2829 12.2614 12.1455 12.4161C11.5114 13.1457 10.3611 13.1144 9.75347 12.4161C9.72082 12.3794 9.68136 12.3496 9.63736 12.3284C9.59335 12.3072 9.54565 12.295 9.497 12.2925C9.44836 12.2901 9.39971 12.2974 9.35385 12.3141C9.30799 12.3308 9.26582 12.3565 9.22975 12.3897ZM21.108 8.16272C20.0866 8.13253 19.1098 8.51749 18.378 9.24212C18.0159 9.59867 17.7283 10.0258 17.5324 10.4978C17.3365 10.9699 17.2363 11.4773 17.2378 11.9897C17.2378 12.6954 17.4235 13.3785 17.7838 13.9786L17.3603 15.2618C17.3009 15.4468 17.3529 15.6468 17.4866 15.7864C17.6233 15.9196 17.7949 15.9702 17.9992 15.911L19.3809 15.443C19.8823 15.6883 20.4395 15.8166 21.0003 15.8166C22.0255 15.8166 22.9875 15.4052 23.7006 14.6542C24.0536 14.2891 24.3301 13.855 24.5133 13.3782C24.6966 12.9014 24.7827 12.3918 24.7666 11.8802C24.7109 9.88749 23.0692 8.21933 21.108 8.16272ZM19.2175 12.3784C18.9352 12.3784 18.7086 12.1444 18.7086 11.8576C18.7086 11.5707 18.9352 11.3405 19.2175 11.3405C19.3529 11.3405 19.4828 11.3952 19.5786 11.4925C19.6744 11.5898 19.7282 11.7218 19.7282 11.8595C19.7282 11.9971 19.6744 12.1291 19.5786 12.2264C19.4828 12.3237 19.3529 12.3784 19.2175 12.3784ZM21.0003 12.3784C20.718 12.3784 20.4915 12.1444 20.4915 11.8576C20.4915 11.5707 20.718 11.3405 21.0003 11.3405C21.1358 11.3405 21.2657 11.3952 21.3615 11.4925C21.4572 11.5898 21.511 11.7218 21.511 11.8595C21.511 11.9971 21.4572 12.1291 21.3615 12.2264C21.2657 12.3237 21.1358 12.3784 21.0003 12.3784ZM22.7869 12.3784C22.5046 12.3784 22.2743 12.1444 22.2743 11.8576C22.2743 11.5707 22.5046 11.3405 22.7869 11.3405C23.0692 11.3405 23.2958 11.5707 23.2958 11.8576C23.2958 12.1444 23.0692 12.3784 22.7869 12.3784Z" fill="#313339" fill-opacity="0.5"/>
</svg>
