<svg width="53" height="52" viewBox="0 0 53 52" fill="none" xmlns="http://www.w3.org/2000/svg">
<g clip-path="url(#clip0_10770_16486)">
<path d="M26.8987 52C11.732 45.63 7.39868 36.8333 7.39868 23.8333V6.5L26.8987 0L46.3987 6.5V23.8333C46.3987 36.8333 42.0653 45.63 26.8987 52Z" fill="#0377BD"/>
<path d="M46.351 26C46.3792 25.2893 46.3987 24.57 46.3987 23.8333V6.5L26.8987 0V26H46.351Z" fill="#3F83D3"/>
<path d="M26.8987 26V52C41.2052 45.9918 45.8679 37.8322 46.351 26H26.8987ZM26.8987 0L7.39868 6.5V23.8333C7.39868 24.57 7.41818 25.2893 7.44635 26H26.8987V0Z" fill="#1758A6"/>
<path d="M7.44653 26C7.9297 37.8322 12.5924 45.9918 26.8989 52V26H7.44653Z" fill="#3F83D3"/>
<path opacity="0.2" d="M26.8987 0L7.39868 6.5V7.04167L26.8987 0.541667L46.3987 7.04167V6.5L26.8987 0Z" fill="white"/>
<path opacity="0.1" d="M26.8986 51.4584C18.2601 47.8877 13.0579 43.55 10.1741 38.1399C10.2672 38.3284 10.3604 38.519 10.4579 38.7054C13.2984 44.1047 18.4074 48.4337 26.8986 52C35.2792 48.4792 40.3536 44.2217 43.2136 38.9177C43.3501 38.6642 43.4844 38.3977 43.6122 38.1377C40.7306 43.5479 35.5371 47.8877 26.8986 51.4584Z" fill="#010101"/>
<path d="M26.8987 10.8334L22.5654 19.5L13.9897 20.4924L20.3987 27.0834L18.2321 36.8334L26.8987 32.5L35.5654 36.8334L33.3987 27.0834L39.8987 20.5834L31.2321 19.5L26.8987 10.8334Z" fill="#E6B830"/>
<path opacity="0.1" d="M31.232 19.5L26.8987 10.8334V32.5L35.5653 36.8334L33.3987 27.0834L39.8987 20.5834L31.232 19.5Z" fill="#E6B830"/>
</g>
<defs>
<clipPath id="clip0_10770_16486">
<rect width="52" height="52" fill="white" transform="translate(0.898682)"/>
</clipPath>
</defs>
</svg>
