<svg width="27" height="27" viewBox="0 0 27 27" fill="none" xmlns="http://www.w3.org/2000/svg">
<g clip-path="url(#clip0_12124_7825)">
<path d="M22.423 25.9673H20.97L18.4465 22.6261C21.62 20.8778 23.7994 17.4589 23.7994 13.535C23.7994 8.83399 20.6259 4.75463 16.2671 3.58909V2.34586C16.2671 1.45228 15.5406 0.714111 14.6612 0.714111H12.7112C11.8318 0.714111 11.1053 1.45228 11.1053 2.34586V3.55024C6.74649 4.63807 3.45825 8.75629 3.45825 13.535C3.45825 17.4589 5.63766 20.9167 8.84943 22.6261L6.3259 25.9673H4.83472C4.60531 25.9673 4.45237 26.1227 4.45237 26.3559C4.45237 26.589 4.60531 26.7444 4.83472 26.7444H22.4612C22.6906 26.7444 22.8435 26.589 22.8435 26.3559C22.8435 26.1227 22.6141 25.9673 22.423 25.9673ZM11.8318 2.34586C11.8318 1.87964 12.2141 1.49113 12.673 1.49113H14.623C15.0818 1.49113 15.4641 1.87964 15.4641 2.34586V3.39484C15.2347 3.35599 15.0053 3.31714 14.7759 3.27829C14.7759 3.20058 14.7759 3.12288 14.7759 3.08403C14.7759 2.46241 14.2788 1.9185 13.6288 1.9185C12.9788 1.9185 12.4818 2.46241 12.4818 3.08403C12.4818 3.12288 12.4818 3.20058 12.4818 3.27829C12.2524 3.31714 12.023 3.31714 11.7935 3.35599V2.34586H11.8318ZM6.67002 16.0215L11.1435 14.7005C11.22 14.8948 11.3347 15.089 11.4877 15.2444L8.2759 18.6633C7.54943 17.8863 7.01413 16.9927 6.67002 16.0215ZM15.4259 13.4184C15.5024 14.584 14.5847 15.4775 13.5141 15.4775C12.4435 15.4775 11.6024 14.4286 11.6406 13.4961C11.6788 12.6414 12.3288 11.709 13.4377 11.6313C14.3935 11.5147 15.3877 12.3306 15.4259 13.4184ZM8.00825 8.67859L11.373 11.9809C11.2583 12.1752 11.1435 12.3306 11.0671 12.5637L6.55531 11.3982C6.86119 10.388 7.35825 9.45561 8.00825 8.67859ZM13.3612 16.2546C13.4377 16.2546 13.4759 16.2546 13.5524 16.2546C13.7053 16.2546 13.82 16.2546 13.973 16.2157C15.3112 20.839 15.2347 20.6836 15.273 20.8001C14.2788 21.0332 13.2465 21.0721 12.2141 20.8778C12.9788 17.7698 12.1377 21.2275 13.3612 16.2546ZM19.1347 18.3914L15.7318 15.089C15.8465 14.9336 15.923 14.7394 16.0377 14.5451L20.6259 15.6718C20.32 16.6819 19.823 17.6143 19.1347 18.3914ZM15.9612 12.4471C15.8847 12.2529 15.77 12.0586 15.6553 11.9032L18.9435 8.40663C19.6318 9.18365 20.2053 10.0772 20.5112 11.0485L15.9612 12.4471ZM13.8583 10.8543C13.7053 10.8543 13.5141 10.8543 13.3612 10.8543L12.023 6.23097C12.3671 6.15327 12.7494 6.07557 13.0935 6.07557C13.17 6.42523 13.2465 6.69718 13.2847 6.85259C13.323 7.04684 13.4759 7.1634 13.6671 7.1634C13.8583 7.1634 14.0112 7.04684 14.0494 6.85259C14.0877 6.69718 14.1641 6.42523 14.2406 6.07557C14.5083 6.11442 14.7759 6.11442 15.0435 6.19212L13.8583 10.8543ZM4.18472 13.535C4.18472 8.60089 8.00825 4.44382 12.6347 4.05531C12.7112 4.44382 12.8259 4.91003 12.9024 5.33739C8.3906 5.76476 5.37002 9.61102 5.44649 13.7681C5.56119 18.1971 9.11707 21.8103 13.5524 21.8103C18.1788 21.8103 21.62 17.9252 21.6582 13.6127C21.6582 9.45561 18.523 5.68705 14.3553 5.37625C14.47 4.94888 14.5465 4.52152 14.623 4.13301C19.173 4.59922 22.9583 8.67859 22.9583 13.6127C22.9583 18.8964 18.7141 23.1701 13.5524 23.1701C8.42884 23.0924 4.18472 18.8187 4.18472 13.535Z" fill="#313339" fill-opacity="0.5"/>
</g>
<defs>
<clipPath id="clip0_12124_7825">
<rect width="26" height="26.4188" fill="white" transform="translate(0.59082 0.519897)"/>
</clipPath>
</defs>
</svg>
