<svg width="26" height="26" viewBox="0 0 26 26" fill="none" xmlns="http://www.w3.org/2000/svg">
<path d="M20.0417 15.7083C20.2246 15.7067 20.4069 15.7304 20.5833 15.7787V9.20831C20.582 8.77773 20.4104 8.36516 20.106 8.06069C19.8015 7.75622 19.3889 7.5846 18.9583 7.58331H4.875C4.44442 7.5846 4.03184 7.75622 3.72737 8.06069C3.4229 8.36516 3.25129 8.77773 3.25 9.20831V15.7787C3.42644 15.7304 3.60873 15.7067 3.79167 15.7083H20.0417ZM16.25 9.20831H18.4167C18.514 9.20839 18.6096 9.23456 18.6934 9.2841C18.7773 9.33363 18.8463 9.40473 18.8933 9.48998C18.9393 9.5766 18.9615 9.67386 18.9577 9.77186C18.9539 9.86986 18.9242 9.9651 18.8717 10.0479C18.4497 10.6897 18.1043 11.3787 17.8425 12.1008C17.5988 12.7668 17.4263 13.4568 17.3279 14.1591C17.3096 14.2884 17.2453 14.4067 17.1468 14.4922C17.0483 14.5778 16.9222 14.625 16.7917 14.625C16.7663 14.6257 16.7409 14.6239 16.7158 14.6196C16.5736 14.5994 16.4452 14.5236 16.3589 14.4089C16.2725 14.2941 16.2353 14.1497 16.2554 14.0075C16.3655 13.2315 16.5561 12.469 16.8242 11.7325C17.0044 11.2374 17.2198 10.7559 17.4688 10.2916H16.25C16.1063 10.2916 15.9686 10.2346 15.867 10.133C15.7654 10.0314 15.7083 9.89364 15.7083 9.74998C15.7083 9.60632 15.7654 9.46855 15.867 9.36696C15.9686 9.26538 16.1063 9.20831 16.25 9.20831ZM10.8333 9.20831H13C13.0974 9.20839 13.1929 9.23456 13.2768 9.2841C13.3606 9.33363 13.4296 9.40473 13.4767 9.48998C13.5227 9.5766 13.5449 9.67386 13.5411 9.77186C13.5373 9.86986 13.5076 9.9651 13.455 10.0479C13.033 10.6897 12.6876 11.3787 12.4258 12.1008C12.1821 12.7668 12.0097 13.4568 11.9113 14.1591C11.893 14.2884 11.8287 14.4067 11.7301 14.4922C11.6316 14.5778 11.5055 14.625 11.375 14.625C11.3496 14.6257 11.3242 14.6239 11.2992 14.6196C11.157 14.5994 11.0286 14.5236 10.9422 14.4089C10.8559 14.2941 10.8187 14.1497 10.8388 14.0075C10.9488 13.2315 11.1394 12.469 11.4075 11.7325C11.5877 11.2374 11.8031 10.7559 12.0521 10.2916H10.8333C10.6897 10.2916 10.5519 10.2346 10.4503 10.133C10.3487 10.0314 10.2917 9.89364 10.2917 9.74998C10.2917 9.60632 10.3487 9.46855 10.4503 9.36696C10.5519 9.26538 10.6897 9.20831 10.8333 9.20831ZM5.41667 9.20831H7.58333C7.6807 9.20839 7.77628 9.23456 7.86011 9.2841C7.94393 9.33363 8.01296 9.40473 8.06 9.48998C8.10599 9.5766 8.12821 9.67386 8.1244 9.77186C8.12059 9.86986 8.0909 9.9651 8.03833 10.0479C7.61633 10.6897 7.27093 11.3787 7.00917 12.1008C6.76547 12.7668 6.59299 13.4568 6.49458 14.1591C6.47631 14.2884 6.412 14.4067 6.31348 14.4922C6.21495 14.5778 6.08884 14.625 5.95833 14.625C5.93294 14.6257 5.90754 14.6239 5.8825 14.6196C5.74029 14.5994 5.61189 14.5236 5.52555 14.4089C5.43921 14.2941 5.40199 14.1497 5.42208 14.0075C5.53213 13.2315 5.72275 12.469 5.99083 11.7325C6.17103 11.2374 6.38645 10.7559 6.63542 10.2916H5.41667C5.27301 10.2916 5.13523 10.2346 5.03365 10.133C4.93207 10.0314 4.875 9.89364 4.875 9.74998C4.875 9.60632 4.93207 9.46855 5.03365 9.36696C5.13523 9.26538 5.27301 9.20831 5.41667 9.20831ZM15.4429 3.75915L13.5471 4.83165L12.4042 2.46998C12.3607 2.38128 12.2939 2.30614 12.2108 2.25269C12.1278 2.19924 12.0317 2.16951 11.933 2.16672C11.8343 2.16393 11.7366 2.18819 11.6507 2.23686C11.5648 2.28554 11.4938 2.35679 11.4454 2.4429L10.1075 4.85331L8.37958 3.92706C8.28302 3.8745 8.17274 3.85257 8.06341 3.86418C7.95408 3.87579 7.85087 3.92039 7.7675 3.99206C7.68558 4.06604 7.62744 4.16265 7.60044 4.26968C7.57345 4.3767 7.5788 4.48933 7.61583 4.59331L8.53667 7.04165H15.275L16.2175 4.41456C16.2547 4.3107 16.2594 4.19794 16.2308 4.09137C16.2022 3.9848 16.1417 3.8895 16.0575 3.81823C15.9733 3.74696 15.8693 3.70311 15.7595 3.69255C15.6496 3.68199 15.5392 3.70523 15.4429 3.75915Z" fill="#313339" fill-opacity="0.5"/>
<path d="M22.2084 3.79169C21.7774 3.79169 21.3641 3.96289 21.0594 4.26764C20.7546 4.57239 20.5834 4.98571 20.5834 5.41669V6.50002C20.5848 6.83491 20.6896 7.16119 20.8835 7.43423C21.0775 7.70727 21.351 7.91372 21.6667 8.02535V17.875C21.6655 17.4444 21.4938 17.0319 21.1894 16.7274C20.8849 16.4229 20.4723 16.2513 20.0417 16.25H3.79175C3.36117 16.2513 2.94859 16.4229 2.64412 16.7274C2.33965 17.0319 2.16803 17.4444 2.16675 17.875V22.2084C2.16803 22.6389 2.33965 23.0515 2.64412 23.356C2.94859 23.6604 3.36117 23.8321 3.79175 23.8334H20.0417C20.4723 23.8321 20.8849 23.6604 21.1894 23.356C21.4938 23.0515 21.6655 22.6389 21.6667 22.2084V21.6667H23.2917C23.4354 21.6667 23.5732 21.6096 23.6748 21.508C23.7763 21.4065 23.8334 21.2687 23.8334 21.125V18.9584C23.8334 18.8147 23.7763 18.6769 23.6748 18.5753C23.5732 18.4738 23.4354 18.4167 23.2917 18.4167H22.7501V8.02535C23.0658 7.91372 23.3394 7.70727 23.5333 7.43423C23.7272 7.16119 23.832 6.83491 23.8334 6.50002V5.41669C23.8334 4.98571 23.6622 4.57239 23.3575 4.26764C23.0527 3.96289 22.6394 3.79169 22.2084 3.79169ZM17.3334 21.6667H6.50008C6.0691 21.6667 5.65578 21.4955 5.35103 21.1907C5.04629 20.886 4.87508 20.4727 4.87508 20.0417C4.87508 19.6107 5.04629 19.1974 5.35103 18.8926C5.65578 18.5879 6.0691 18.4167 6.50008 18.4167H17.3334C17.7644 18.4167 18.1777 18.5879 18.4825 18.8926C18.7872 19.1974 18.9584 19.6107 18.9584 20.0417C18.9584 20.4727 18.7872 20.886 18.4825 21.1907C18.1777 21.4955 17.7644 21.6667 17.3334 21.6667Z" fill="#313339" fill-opacity="0.5"/>
<path d="M17.3333 19.5H6.49992C6.35626 19.5 6.21848 19.5571 6.1169 19.6587C6.01532 19.7602 5.95825 19.898 5.95825 20.0417C5.95825 20.1853 6.01532 20.3231 6.1169 20.4247C6.21848 20.5263 6.35626 20.5833 6.49992 20.5833H17.3333C17.4769 20.5833 17.6147 20.5263 17.7163 20.4247C17.8179 20.3231 17.8749 20.1853 17.8749 20.0417C17.8749 19.898 17.8179 19.7602 17.7163 19.6587C17.6147 19.5571 17.4769 19.5 17.3333 19.5Z" fill="#313339" fill-opacity="0.5"/>
</svg>
