<svg width="26" height="26" viewBox="0 0 26 26" fill="none" xmlns="http://www.w3.org/2000/svg">
<g clip-path="url(#clip0_12124_7882)">
<path d="M20.7351 5.83028C21.5031 5.83028 22.1257 5.20769 22.1257 4.43968C22.1257 3.67167 21.5031 3.04907 20.7351 3.04907C19.9671 3.04907 19.3445 3.67167 19.3445 4.43968C19.3445 5.20769 19.9671 5.83028 20.7351 5.83028Z" fill="#313339" fill-opacity="0.5"/>
<path d="M23.2956 0.393921H8.71191C7.57737 0.393921 6.65161 1.31574 6.65161 2.45028V6.12574H17.288C18.8559 6.12574 20.1322 7.4021 20.1322 8.96998V19.0863H23.2956C24.4262 19.0863 25.348 18.1645 25.348 17.03V2.45028C25.348 1.31574 24.4262 0.393921 23.2956 0.393921ZM20.7349 6.61816C19.5334 6.61816 18.5565 5.64119 18.5565 4.43968C18.5565 3.23816 19.5334 2.26119 20.7349 2.26119C21.9365 2.26119 22.9134 3.23816 22.9134 4.43968C22.9134 5.64119 21.9365 6.61816 20.7349 6.61816Z" fill="#313339" fill-opacity="0.5"/>
<path d="M14.7305 22.3836C15.499 22.3836 16.1219 21.7607 16.1219 20.9922C16.1219 20.2238 15.499 19.6008 14.7305 19.6008C13.9621 19.6008 13.3391 20.2238 13.3391 20.9922C13.3391 21.7607 13.9621 22.3836 14.7305 22.3836Z" fill="#313339" fill-opacity="0.5"/>
<path d="M5.2642 12.9172C6.03264 12.9172 6.65559 12.2943 6.65559 11.5259C6.65559 10.7574 6.03264 10.1345 5.2642 10.1345C4.49575 10.1345 3.8728 10.7574 3.8728 11.5259C3.8728 12.2943 4.49575 12.9172 5.2642 12.9172Z" fill="#313339" fill-opacity="0.5"/>
<path d="M5.2642 22.3836C6.03264 22.3836 6.65559 21.7607 6.65559 20.9922C6.65559 20.2238 6.03264 19.6008 5.2642 19.6008C4.49575 19.6008 3.8728 20.2238 3.8728 20.9922C3.8728 21.7607 4.49575 22.3836 5.2642 22.3836Z" fill="#313339" fill-opacity="0.5"/>
<path d="M9.99735 17.6505C10.7658 17.6505 11.3887 17.0275 11.3887 16.2591C11.3887 15.4906 10.7658 14.8677 9.99735 14.8677C9.22891 14.8677 8.60596 15.4906 8.60596 16.2591C8.60596 17.0275 9.22891 17.6505 9.99735 17.6505Z" fill="#313339" fill-opacity="0.5"/>
<path d="M14.7305 12.9172C15.499 12.9172 16.1219 12.2943 16.1219 11.5259C16.1219 10.7574 15.499 10.1345 14.7305 10.1345C13.9621 10.1345 13.3391 10.7574 13.3391 11.5259C13.3391 12.2943 13.9621 12.9172 14.7305 12.9172Z" fill="#313339" fill-opacity="0.5"/>
<path d="M17.2879 6.91364H2.70822C1.57367 6.91364 0.651855 7.83545 0.651855 8.97V23.5497C0.651855 24.6842 1.57367 25.6061 2.70822 25.6061H17.2879C18.4225 25.6061 19.3443 24.6842 19.3443 23.5497V8.97C19.3443 7.83545 18.4225 6.91364 17.2879 6.91364ZM5.2641 23.1715C4.06258 23.1715 3.08483 22.1942 3.08483 20.9922C3.08483 19.7903 4.06258 18.813 5.2641 18.813C6.46561 18.813 7.44337 19.7903 7.44337 20.9922C7.44337 22.1942 6.46561 23.1715 5.2641 23.1715ZM5.2641 13.7052C4.06258 13.7052 3.08483 12.7278 3.08483 11.5259C3.08483 10.324 4.06258 9.34661 5.2641 9.34661C6.46561 9.34661 7.44337 10.324 7.44337 11.5259C7.44337 12.7278 6.46561 13.7052 5.2641 13.7052ZM9.99728 18.4383C8.79576 18.4383 7.81801 17.461 7.81801 16.2591C7.81801 15.0572 8.79576 14.0798 9.99728 14.0798C11.1988 14.0798 12.1766 15.0572 12.1766 16.2591C12.1766 17.461 11.1988 18.4383 9.99728 18.4383ZM14.7301 23.1715C13.5286 23.1715 12.5508 22.1942 12.5508 20.9922C12.5508 19.7903 13.5282 18.813 14.7301 18.813C15.932 18.813 16.9093 19.7903 16.9093 20.9922C16.9093 22.1942 15.932 23.1715 14.7301 23.1715ZM14.7301 13.7052C13.5286 13.7052 12.5508 12.7278 12.5508 11.5259C12.5508 10.324 13.5282 9.34661 14.7301 9.34661C15.932 9.34661 16.9093 10.324 16.9093 11.5259C16.9093 12.7278 15.932 13.7052 14.7301 13.7052Z" fill="#313339" fill-opacity="0.5"/>
</g>
<defs>
<clipPath id="clip0_12124_7882">
<rect width="26" height="26" fill="white"/>
</clipPath>
</defs>
</svg>
