<svg width="23" height="22" viewBox="0 0 23 22" fill="none" xmlns="http://www.w3.org/2000/svg">
<path d="M21.0585 20.7254H16.3329V18.7364C16.3329 18.1296 15.841 17.6376 15.2341 17.6376H7.17584C6.56899 17.6376 6.07704 18.1296 6.07704 18.7364V20.7254H1.35156C1.17816 20.7254 1.03784 20.8659 1.03784 21.0391C1.03784 21.2124 1.17816 21.3529 1.35156 21.3529H21.0585C21.2319 21.3529 21.3722 21.2124 21.3722 21.0391C21.3722 20.8659 21.2319 20.7254 21.0585 20.7254ZM5.25617 9.79501C5.98813 11.8998 7.80551 13.4985 10.0355 13.92C9.88054 14.952 9.64621 15.9811 9.32399 17.01H13.086C12.7673 15.9807 12.5332 14.9513 12.3783 13.9189C14.6059 13.4959 16.4214 11.8981 17.1555 9.79501C19.317 9.65383 21.0331 7.85621 21.0331 5.66018V2.3285C21.0331 2.15596 20.8919 2.01478 20.7193 2.01478H17.51V0.960689C17.51 0.788151 17.3688 0.646973 17.1963 0.646973H5.21224C5.0397 0.646973 4.89852 0.788151 4.89852 0.960689V2.01478H1.68919C1.51663 2.01478 1.37548 2.15596 1.37548 2.32849V5.65706C1.37547 7.85309 3.0915 9.65383 5.25617 9.79501ZM17.51 7.72759V2.64222H20.4056V5.66018C20.4056 7.44524 19.0692 8.91972 17.3437 9.14561C17.4473 8.68757 17.51 8.21386 17.51 7.72759ZM8.62393 5.6395L10.1952 5.41239L10.8989 3.98632C11.0255 3.73313 11.3867 3.73313 11.5133 3.98632L12.2133 5.41239L13.7883 5.6395C14.0675 5.68046 14.1793 6.02675 13.9745 6.22409L12.8388 7.33365L13.1069 8.89749C13.1553 9.17674 12.8612 9.39271 12.6117 9.25867L11.2042 8.52142L9.80053 9.25867C9.54735 9.39271 9.25319 9.17674 9.30159 8.89749L9.56968 7.33365L8.43402 6.22409C8.22923 6.02675 8.34094 5.68046 8.62393 5.6395ZM2.00291 2.64222H4.89852V7.72759C4.89852 8.21386 4.96127 8.69071 5.06792 9.14561C3.33933 8.91972 2.00291 7.44212 2.00291 5.65706V2.64222Z" fill="#E6B830"/>
<path d="M5.25618 9.79501C5.98814 11.8998 7.80552 13.4985 10.0355 13.92C9.88056 14.952 9.64622 15.9811 9.32401 17.01H13.086C12.7673 15.9807 12.5332 14.9513 12.3783 13.9189C14.606 13.4959 16.4214 11.8981 17.1555 9.79501C19.317 9.65383 21.0331 7.85621 21.0331 5.66018V2.3285C21.0331 2.15596 20.8919 2.01478 20.7193 2.01478H17.51V0.960689C17.51 0.788151 17.3688 0.646973 17.1963 0.646973H5.21225C5.03971 0.646973 4.89853 0.788151 4.89853 0.960689V2.01478H1.68921C1.51664 2.01478 1.37549 2.15596 1.37549 2.32849V5.65706C1.37549 7.85309 3.09151 9.65383 5.25618 9.79501ZM17.51 7.72759V2.64222H20.4056V5.66018C20.4056 7.44524 19.0692 8.91972 17.3437 9.14561C17.4473 8.68757 17.51 8.21386 17.51 7.72759ZM8.62394 5.6395L10.1952 5.41239L10.8989 3.98632C11.0255 3.73313 11.3867 3.73313 11.5133 3.98632L12.2133 5.41239L13.7883 5.6395C14.0676 5.68046 14.1793 6.02675 13.9745 6.22409L12.8388 7.33365L13.1069 8.89749C13.1553 9.17674 12.8612 9.39271 12.6117 9.25867L11.2042 8.52142L9.80054 9.25867C9.54737 9.39271 9.2532 9.17674 9.3016 8.89749L9.56969 7.33365L8.43403 6.22409C8.22925 6.02675 8.34095 5.68046 8.62394 5.6395ZM2.00292 2.64222H4.89854V7.72759C4.89854 8.21386 4.96128 8.69071 5.06794 9.14561C3.33934 8.91972 2.00292 7.44212 2.00292 5.65706V2.64222Z" fill="white"/>
</svg>
