<svg width="48" height="48" viewBox="0 0 48 48" fill="none" xmlns="http://www.w3.org/2000/svg">
<g clip-path="url(#clip0_11901_8353)">
<path d="M43.7747 6.336C43.7747 2.88 40.8947 0 37.4387 0C9.02265 0 10.3667 0 10.1747 0C6.91066 0.192 4.22266 2.88 4.22266 6.336V41.664C4.22266 45.12 7.10266 48 10.5587 48H41.6627C42.8147 48 43.5827 47.04 43.5827 46.08C43.7747 42.048 43.5827 60.864 43.7747 6.336ZM39.7427 44.16H10.5587C9.21466 44.16 8.06266 43.008 8.06266 41.664C8.06266 40.32 9.21466 39.168 10.5587 39.168H39.7427V44.16Z" fill="#060D17"/>
<path d="M24 6.5C18.2016 6.5 13.5 11.2016 13.5 17C13.5 22.7984 18.2016 27.5 24 27.5C29.7984 27.5 34.5 22.7984 34.5 17C34.5 11.2016 29.7984 6.5 24 6.5ZM24.9469 21.8141C24.9234 22.6484 24.3047 23.1641 23.5031 23.1406C22.7344 23.1172 22.1297 22.5688 22.1531 21.7297C22.1766 20.8953 22.8141 20.3656 23.5828 20.3891C24.3891 20.4125 24.975 20.9797 24.9469 21.8141ZM27.2297 15.8469C27.0328 16.1234 26.5922 16.4797 26.0391 16.9109L25.425 17.3328C25.125 17.5625 24.9375 17.8344 24.8391 18.1437C24.7875 18.3078 24.75 18.7344 24.7406 19.0203C24.7359 19.0766 24.7031 19.2031 24.5297 19.2031H22.6969C22.5047 19.2031 22.4812 19.0906 22.4859 19.0344C22.5141 18.2562 22.6266 17.6141 22.95 17.0984C23.3859 16.4047 24.6141 15.6734 24.6141 15.6734C24.8016 15.5328 24.9469 15.3828 25.0594 15.2188C25.2656 14.9375 25.4344 14.6234 25.4344 14.2859C25.4344 13.8969 25.3406 13.5266 25.0922 13.2172C24.8016 12.8563 24.4875 12.6828 23.8828 12.6828C23.2875 12.6828 22.9406 12.9828 22.6922 13.3766C22.4438 13.7703 22.4859 14.2344 22.4859 14.6562H20.2031C20.2031 13.0625 20.6203 12.0453 21.5016 11.4453C22.0969 11.0375 22.8562 10.8594 23.7422 10.8594C24.9047 10.8594 25.8281 11.075 26.6437 11.6938C27.3984 12.2656 27.7969 13.0719 27.7969 14.1594C27.7969 14.8297 27.5625 15.3922 27.2297 15.8469Z" fill="white"/>
</g>
<defs>
<clipPath id="clip0_11901_8353">
<rect width="48" height="48" fill="white"/>
</clipPath>
</defs>
</svg>
