<svg width="21" height="21" viewBox="0 0 21 21" fill="none" xmlns="http://www.w3.org/2000/svg">
<path d="M14.1629 8.04978V15.5612C14.163 15.7978 14.1164 16.0321 14.0259 16.2507C13.9354 16.4693 13.8027 16.6679 13.6354 16.8352C13.4682 17.0025 13.2696 17.1352 13.051 17.2258C12.8324 17.3163 12.5981 17.363 12.3615 17.363H4.63255C4.16176 17.363 3.70985 17.548 3.37419 17.8781L1.39034 19.8131C0.899469 20.2931 0.0722656 19.9427 0.0722656 19.2592V8.04978C0.0722656 7.05425 0.882078 6.24805 1.87761 6.24805H12.3612C12.5978 6.248 12.8321 6.29457 13.0507 6.38508C13.2693 6.47559 13.4679 6.60827 13.6352 6.77555C13.8025 6.94283 13.9352 7.14143 14.0258 7.36001C14.1163 7.57859 14.1629 7.81319 14.1629 8.04978Z" fill="#E6B830"/>
<path opacity="0.1" d="M14.163 8.04978V12.3541H7.83639C6.26238 12.3541 4.97974 11.0744 4.97974 9.50075V6.24805H12.3616C12.8393 6.24805 13.2975 6.43784 13.6354 6.77567C13.9732 7.1135 14.163 7.57202 14.163 8.04978Z" fill="#2B3642"/>
<path d="M6.03255 1.98974V9.49953C6.03299 9.97777 6.22316 10.4363 6.56133 10.7745C6.89949 11.1126 7.35802 11.3028 7.83626 11.3032H15.5646C16.0348 11.3032 16.4886 11.4893 16.822 11.8171L18.8058 13.752C19.298 14.2331 20.1232 13.8833 20.1232 13.2001V1.98974C20.1228 1.5115 19.9326 1.05297 19.5945 0.714807C19.2563 0.376641 18.7978 0.18647 18.3195 0.186035H7.8356C7.35742 0.186556 6.89898 0.376767 6.56088 0.714924C6.22279 1.05308 6.03299 1.51156 6.03255 1.98974Z" fill="white"/>
<path d="M18.3364 3.41875C18.3364 3.50147 18.3201 3.58338 18.2884 3.65979C18.2566 3.73619 18.2102 3.80559 18.1516 3.86399C18.093 3.9224 18.0234 3.96866 17.9469 4.00014C17.8704 4.03162 17.7885 4.04769 17.7057 4.04743H8.25574C8.173 4.04769 8.09102 4.03162 8.0145 4.00015C7.93798 3.96867 7.86842 3.92241 7.8098 3.86401C7.75119 3.80561 7.70468 3.73622 7.67292 3.65981C7.64117 3.58341 7.6248 3.50149 7.62476 3.41875C7.62454 3.33584 7.64072 3.25371 7.67235 3.17707C7.70399 3.10044 7.75047 3.03081 7.80911 2.9722C7.86775 2.9136 7.93739 2.86716 8.01404 2.83556C8.09069 2.80396 8.17283 2.78783 8.25574 2.78809H17.7057C18.0536 2.78809 18.3364 3.07028 18.3364 3.41875ZM18.3364 5.94006C18.3364 6.02278 18.3201 6.1047 18.2884 6.1811C18.2566 6.25751 18.2102 6.3269 18.1516 6.38531C18.093 6.44371 18.0234 6.48998 17.9469 6.52146C17.8704 6.55293 17.7885 6.569 17.7057 6.56875H8.25574C8.173 6.569 8.09102 6.55294 8.0145 6.52146C7.93798 6.48999 7.86842 6.44372 7.8098 6.38532C7.75119 6.32692 7.70468 6.25753 7.67292 6.18113C7.64117 6.10472 7.6248 6.0228 7.62476 5.94006C7.62454 5.85715 7.64072 5.77502 7.67235 5.69838C7.70399 5.62175 7.75047 5.55213 7.80911 5.49352C7.86775 5.43491 7.93739 5.38847 8.01404 5.35687C8.09069 5.32527 8.17283 5.30914 8.25574 5.3094H17.7057C18.0536 5.3094 18.3364 5.59192 18.3364 5.94006ZM14.2161 8.62576C14.2161 8.70849 14.1998 8.7904 14.1681 8.86681C14.1364 8.94321 14.0899 9.0126 14.0313 9.07101C13.9727 9.12941 13.9032 9.17568 13.8267 9.20716C13.7502 9.23864 13.6682 9.25471 13.5855 9.25445H8.25574C8.173 9.25471 8.09102 9.23864 8.0145 9.20717C7.93798 9.17569 7.86842 9.12943 7.8098 9.07103C7.75119 9.01263 7.70468 8.94324 7.67292 8.86683C7.64117 8.79042 7.6248 8.7085 7.62476 8.62576C7.6245 8.54283 7.64064 8.46066 7.67226 8.38399C7.70388 8.30731 7.75035 8.23765 7.80899 8.17901C7.86763 8.12036 7.9373 8.0739 8.01397 8.04228C8.09064 8.01066 8.17281 7.99452 8.25574 7.99478H13.5855C13.9336 7.99478 14.2161 8.27729 14.2161 8.62576Z" fill="#112030"/>
</svg>
