<svg width="39" height="40" viewBox="0 0 39 40" fill="none" xmlns="http://www.w3.org/2000/svg">
<path d="M34.7178 0.833008H4.05111C1.94277 0.833008 0.217773 2.55801 0.217773 4.66634V39.1663L7.88444 31.4997H34.7178C36.8261 31.4997 38.5511 29.7747 38.5511 27.6663V4.66634C38.5511 2.55801 36.8261 0.833008 34.7178 0.833008ZM7.88444 23.833V19.0988L21.0711 5.91217C21.4544 5.52884 22.0486 5.52884 22.4319 5.91217L25.8244 9.30467C26.2078 9.68801 26.2078 10.2822 25.8244 10.6655L12.6186 23.833H7.88444ZM28.9678 23.833H16.5094L20.3428 19.9997H28.9678C30.0219 19.9997 30.8844 20.8622 30.8844 21.9163C30.8844 22.9705 30.0219 23.833 28.9678 23.833Z" fill="white"/>
</svg>
