<svg width="30" height="24" viewBox="0 0 30 24" fill="none" xmlns="http://www.w3.org/2000/svg">
<path d="M27.0007 0H3.00065C1.53398 0 0.333984 1.2 0.333984 2.66667V6.66667H3.00065V2.66667H27.0007V21.3333H17.6673V24H27.0007C28.4673 24 29.6673 22.8 29.6673 21.3333V2.66667C29.6673 1.2 28.4673 0 27.0007 0ZM0.333984 20V24H4.33398C4.33398 21.7867 2.54732 20 0.333984 20ZM0.333984 14.6667V17.3333C4.01398 17.3333 7.00065 20.32 7.00065 24H9.66732C9.66732 18.84 5.49398 14.6667 0.333984 14.6667ZM0.333984 9.33333V12C6.96065 12 12.334 17.3733 12.334 24H15.0007C15.0007 15.8933 8.42732 9.33333 0.333984 9.33333ZM13.6673 10.7867V13.4533L18.334 16L23.0007 13.4533V10.7867L18.334 13.3333L13.6673 10.7867ZM18.334 4L11.0007 8L18.334 12L25.6673 8L18.334 4Z" fill="white"/>
</svg>
