<svg width="15" height="16" viewBox="0 0 15 16" fill="none" xmlns="http://www.w3.org/2000/svg">
<path d="M7.68882 15.3333C7.20875 15.3333 6.77382 15.0506 6.57885 14.6119L4.33834 9.5708C4.28399 9.4485 4.2556 9.38542 4.23234 9.34102L4.23027 9.3371L4.22585 9.3368C4.17582 9.33357 4.10666 9.33325 3.97282 9.33325H3.44032C3.08889 9.33327 2.78572 9.33327 2.536 9.31285C2.27244 9.29132 2.01029 9.24379 1.75804 9.11525C1.38171 8.92352 1.07575 8.61759 0.884003 8.24125C0.755476 7.98899 0.707929 7.72685 0.686396 7.46325C0.665995 7.21358 0.666005 6.91038 0.666016 6.55898V3.44092C0.666005 3.08945 0.665995 2.78625 0.686396 2.53658C0.707929 2.27298 0.755476 2.01085 0.884003 1.75858C1.07575 1.38225 1.38171 1.07632 1.75804 0.884584C2.01029 0.756051 2.27244 0.708518 2.536 0.686985C2.78571 0.666585 3.08888 0.666585 3.44031 0.666585C3.74906 0.666585 3.99935 0.916852 3.99935 1.22565V6.66658C3.99935 7.03478 4.29783 7.33325 4.66602 7.33325C5.03421 7.33325 5.33268 7.03478 5.33268 6.66658V1.73325C5.33268 1.35985 5.33268 1.17318 5.40534 1.03058C5.46926 0.905118 5.57125 0.803184 5.69669 0.739251C5.8393 0.666584 6.02598 0.666585 6.39935 0.666585H10.6124C11.0783 0.666585 11.465 0.666585 11.7832 0.690785C12.1155 0.716119 12.4217 0.770318 12.7174 0.904318C13.1798 1.11385 13.5728 1.45099 13.8502 1.87612C14.0275 2.14799 14.1277 2.44245 14.2033 2.76698C14.2756 3.07778 14.3344 3.46005 14.4052 3.92045L14.7623 6.24145C14.8561 6.85145 14.9331 7.35152 14.9603 7.75965C14.9884 8.18072 14.97 8.57365 14.8263 8.95025C14.6058 9.52853 14.1909 10.0121 13.6529 10.318C13.3025 10.5173 12.917 10.5952 12.4965 10.6314C12.089 10.6666 11.5831 10.6666 10.9659 10.6666H10.3993C10.2017 10.6666 10.0935 10.6671 10.0157 10.6735L10.007 10.6742L10.0062 10.683C9.99988 10.7607 9.99935 10.8689 9.99935 11.0666V13.0227C9.99935 14.2988 8.96488 15.3333 7.68882 15.3333Z" fill="#464623"/>
</svg>
