<svg width="18" height="19" viewBox="0 0 18 19" fill="none" xmlns="http://www.w3.org/2000/svg">
<path d="M17.7777 8.94223C17.4184 4.10224 13.187 0.457599 8.34697 0.816926C3.54619 1.17698 -0.131264 5.3521 0.221672 10.2476C0.567827 14.8608 4.40076 18.3949 8.97772 18.3949C9.20501 18.3949 9.42504 18.3876 9.64499 18.3729C14.5079 18.0082 18.1272 13.7898 17.7777 8.94223ZM12.0503 11.0616H5.94171C5.13506 11.0616 4.47504 10.4016 4.47504 9.5949C4.47504 8.78826 5.13506 8.12824 5.94171 8.12824H12.0503C12.8571 8.12824 13.5097 8.78826 13.5097 9.5949C13.5097 10.4016 12.8571 11.0616 12.0503 11.0616Z" fill="#BCBCBC"/>
</svg>
