<svg width="20" height="19" viewBox="0 0 20 19" fill="none" xmlns="http://www.w3.org/2000/svg">
<path d="M4.42163 18.1254C4.20732 17.9694 4.10051 17.7055 4.14541 17.4446L5.071 12.053L1.29653 8.37255L1.14754 8.22322C0.961128 8.0368 0.895817 7.76127 0.978817 7.51108C1.06216 7.26089 1.27918 7.07907 1.54009 7.04114L6.95075 6.25672L9.37545 1.34882C9.4928 1.11105 9.735 0.960693 9.99999 0.960693C10.265 0.960863 10.5075 1.11139 10.6249 1.34916L13.0448 6.25604L18.4599 7.04114C18.7208 7.07907 18.9378 7.26072 19.0208 7.51091C19.1042 7.76093 19.0392 8.03646 18.8528 8.22304L18.7099 8.36608L14.9246 12.0531L15.8549 17.4439C15.9005 17.7074 15.7913 17.9734 15.5739 18.129C15.3579 18.2832 15.0711 18.303 14.8348 18.1741L14.7749 18.1412C14.7323 18.1226 15.0401 18.282 9.99999 15.6298L5.154 18.18C4.92243 18.3012 4.63778 18.2831 4.42163 18.1254Z" fill="#003EB6"/>
<path d="M18.3599 7.73064C17.1895 7.56081 21.3627 8.16634 12.5818 6.89226L10 1.65723L7.41348 6.89226L7.35629 6.9018L1.64014 7.73064L1.77829 7.86877C7.64544 13.5907 5.20316 11.2088 5.8177 11.8082L5.80344 11.9034L4.83167 17.5624C11.9001 13.8425 9.4802 15.1161 10 14.8425L15.0588 17.5053H15.0636L15.1684 17.5624L14.1919 11.9034L14.1776 11.8082L18.217 7.87355L18.3599 7.73064Z" fill="#F4BC5F"/>
<path d="M18.36 7.73078L18.217 7.8738L10 10.5413L12.6438 6.9021L18.36 7.73078Z" fill="#E6B830"/>
<path d="M12.6438 6.902L10 10.5412V1.65747L12.5819 6.89219L12.6438 6.902Z" fill="#E6B830"/>
<path d="M9.99984 1.65747V10.5412L7.35645 6.902L7.41343 6.89219L9.99984 1.65747Z" fill="#786324"/>
<path d="M10 10.5413L1.78302 7.8738L1.77849 7.86889L1.64038 7.73078L7.35661 6.9021L10 10.5413Z" fill="#E6B830"/>
<path d="M5.80334 11.9036L5.81768 11.8085L1.78296 7.87378L9.99994 10.5413L5.80334 11.9036Z" fill="#786324"/>
<path d="M10.0001 10.5413L4.9416 17.5054L4.83179 17.5624L5.80349 11.9035L10.0001 10.5413Z" fill="#E6B830"/>
<path d="M10.0001 10.5413V14.8428L4.94165 17.5054L10.0001 10.5413Z" fill="#786324"/>
<path d="M15.0589 17.5054L10 14.8428V10.5413L15.0589 17.5054Z" fill="#786324"/>
<path d="M15.1687 17.5624L15.0638 17.5054H15.0589L10 10.5413L14.1921 11.9035L15.1687 17.5624Z" fill="#E6B830"/>
<path d="M14.1777 11.8085L14.1921 11.9036L10 10.5413L18.217 7.87378L14.1777 11.8085Z" fill="#786324"/>
</svg>
