<svg width="18" height="18" viewBox="0 0 18 18" fill="none" xmlns="http://www.w3.org/2000/svg">
<path d="M11.6976 0.665993C11.1488 0.353493 10.5247 0.170393 9.89392 0.136193C8.31682 0.0609934 6.87052 0.843694 6.10092 2.20159L1.55502 10.2075C1.04622 11.1025 0.817716 12.1191 0.892916 13.1474L1.10382 16.038C1.15172 16.6889 1.51982 17.2699 2.08722 17.5922C2.38702 17.7621 2.71902 17.8471 3.05112 17.8471C3.35092 17.8471 3.64972 17.7783 3.92612 17.6401L6.51692 16.3403C7.43782 15.8774 8.19272 15.1601 8.70152 14.2651L13.2454 6.25969C14.0169 4.90129 13.9524 3.24749 13.0755 1.94229C12.723 1.41799 12.2454 0.976093 11.6976 0.665993ZM11.5071 5.27149L11.5061 5.27199L6.96222 13.2774C6.64972 13.8277 6.18492 14.2686 5.61942 14.5528L3.09792 15.8917L2.88702 13.0016C2.84112 12.3698 2.98172 11.7453 3.29322 11.1954L7.84012 3.18909C8.21412 2.52849 8.90752 2.13049 9.66822 2.13049C9.70732 2.13049 9.74632 2.13149 9.78542 2.13339C10.1086 2.15099 10.428 2.24469 10.7112 2.40539C10.9915 2.56459 11.2356 2.79069 11.4163 3.05869C11.8665 3.72899 11.9017 4.57709 11.5071 5.27149ZM17.5003 17C17.5003 16.4478 17.053 16 16.5003 16H10.5003C9.94762 16 9.50032 16.4478 9.50032 17C9.50032 17.5522 9.94762 18 10.5003 18H16.5003C17.053 18 17.5003 17.5522 17.5003 17Z" fill="white"/>
</svg>
