<svg width="44" height="22" viewBox="0 0 44 22" fill="none" xmlns="http://www.w3.org/2000/svg">
<path d="M22 12.375C24.9883 12.375 27.6283 13.09 29.7733 14.025C31.7533 14.905 33 16.885 33 19.03V20.1667C33 21.175 32.175 22 31.1667 22H12.8333C11.825 22 11 21.175 11 20.1667V19.0483C11 16.885 12.2467 14.905 14.2267 14.0433C16.3717 13.09 19.0117 12.375 22 12.375ZM7.33333 12.8333C9.35 12.8333 11 11.1833 11 9.16667C11 7.15 9.35 5.5 7.33333 5.5C5.31667 5.5 3.66667 7.15 3.66667 9.16667C3.66667 11.1833 5.31667 12.8333 7.33333 12.8333ZM9.405 14.85C8.72667 14.74 8.04833 14.6667 7.33333 14.6667C5.51833 14.6667 3.795 15.0517 2.23667 15.73C0.88 16.3167 0 17.6367 0 19.1217V20.1667C0 21.175 0.825 22 1.83333 22H8.25V19.0483C8.25 17.5267 8.67167 16.0967 9.405 14.85ZM36.6667 12.8333C38.6833 12.8333 40.3333 11.1833 40.3333 9.16667C40.3333 7.15 38.6833 5.5 36.6667 5.5C34.65 5.5 33 7.15 33 9.16667C33 11.1833 34.65 12.8333 36.6667 12.8333ZM44 19.1217C44 17.6367 43.12 16.3167 41.7633 15.73C40.205 15.0517 38.4817 14.6667 36.6667 14.6667C35.9517 14.6667 35.2733 14.74 34.595 14.85C35.3283 16.0967 35.75 17.5267 35.75 19.0483V22H42.1667C43.175 22 44 21.175 44 20.1667V19.1217ZM22 0C25.0433 0 27.5 2.45667 27.5 5.5C27.5 8.54333 25.0433 11 22 11C18.9567 11 16.5 8.54333 16.5 5.5C16.5 2.45667 18.9567 0 22 0Z" fill="white"/>
</svg>
