<svg width="21" height="18" viewBox="0 0 21 18" fill="none" xmlns="http://www.w3.org/2000/svg">
<path d="M10.5 13.5V6.75M10.5 6.75L13.5 9.75M10.5 6.75L7.5 9.75M5.25 16.5C2.76472 16.5 0.75 14.4853 0.75 12C0.75 10.0071 2.04555 8.3167 3.8404 7.7252C3.78105 7.4092 3.75 7.0832 3.75 6.75C3.75 3.85051 6.10051 1.5 9 1.5C11.4312 1.5 13.4765 3.1526 14.0737 5.39575C14.3654 5.30113 14.6767 5.25 15 5.25C16.6569 5.25 18 6.59315 18 8.25C18 8.5981 17.9407 8.9324 17.8316 9.2433C19.2453 9.7805 20.25 11.1479 20.25 12.75C20.25 14.8211 18.5711 16.5 16.5 16.5H5.25Z" stroke="#1F2937" stroke-width="1.5" stroke-linecap="round" stroke-linejoin="round"/>
</svg>
