<svg width="11" height="11" viewBox="0 0 11 11" fill="none" xmlns="http://www.w3.org/2000/svg">
<path d="M5.3985 6.40718C5.3985 4.61607 6.85257 3.16199 8.64368 3.16199C8.80738 3.16199 8.96627 3.17644 9.12516 3.20533V1.65496C9.12516 0.78829 8.41738 0.0853271 7.55072 0.0853271H1.64775C1.23146 0.0853271 0.832221 0.250698 0.537859 0.545061C0.243496 0.839424 0.078125 1.23867 0.078125 1.65496V8.56422C0.078125 9.43088 0.781088 10.1338 1.64775 10.1338H6.48664V8.82422C6.14521 8.52074 5.87177 8.14854 5.68424 7.732C5.49672 7.31545 5.39934 6.86399 5.3985 6.40718ZM3.87701 7.92385H2.48553C2.22072 7.92385 2.00405 7.71199 2.00405 7.44236C2.00405 7.17755 2.22072 6.96088 2.48553 6.96088H3.87701C4.14664 6.96088 4.3585 7.17755 4.3585 7.44236C4.3585 7.71199 4.14664 7.92385 3.87701 7.92385ZM3.87701 5.59348H2.48553C2.22072 5.59348 2.00405 5.37681 2.00405 5.11199C2.00405 4.84236 2.22072 4.63051 2.48553 4.63051H3.87701C4.14664 4.63051 4.3585 4.84236 4.3585 5.11199C4.3585 5.37681 4.14664 5.59348 3.87701 5.59348ZM2.48553 3.25829C2.22072 3.25829 2.00405 3.04162 2.00405 2.77681C2.00405 2.50718 2.22072 2.29533 2.48553 2.29533H5.15775C5.42257 2.29533 5.63924 2.50718 5.63924 2.77681C5.63924 3.04162 5.42257 3.25829 5.15775 3.25829H2.48553Z" fill="white"/>
<path d="M8.64355 4.12488C7.38207 4.12488 6.36133 5.14562 6.36133 6.4071C6.36133 7.22562 6.79466 7.94784 7.44948 8.34266V10.7159C7.44948 10.8873 7.65266 10.9778 7.78025 10.8637L8.51114 10.2089C8.54759 10.1763 8.59477 10.1584 8.64364 10.1585C8.69251 10.1585 8.73963 10.1767 8.77596 10.2094L9.50203 10.8622C9.63011 10.9768 9.83281 10.8863 9.83281 10.7144V8.34747C10.2557 8.08779 10.5823 7.69721 10.7631 7.23503C10.9438 6.77286 10.9688 6.26432 10.8343 5.78664C10.6998 5.30896 10.413 4.88823 10.0176 4.58831C9.62226 4.2884 9.13981 4.12568 8.64355 4.12488Z" fill="white"/>
</svg>
