<svg width="23" height="28" viewBox="0 0 23 28" fill="none" xmlns="http://www.w3.org/2000/svg">
<path d="M3.00031 26C3.00031 26.7369 3.59671 27.3333 4.33365 27.3333H20.3336C21.0238 27.3333 21.5992 26.8073 21.6618 26.121L22.0967 21.3372C22.697 14.7421 19.598 8.43609 14.012 4.88143L7.71644 0.875028C7.25684 0.581962 6.66431 0.600228 6.22031 0.917961C5.77765 1.23689 5.57458 1.79423 5.70738 2.32289L6.80111 6.69796L0.980845 10.1901C0.668312 10.3776 0.445645 10.6849 0.366179 11.0404C0.286712 11.3972 0.355779 11.7696 0.557645 12.0729L3.22431 16.0729C3.52245 16.5208 4.05898 16.7513 4.59538 16.6406L7.55765 16.0482L5.87018 18.073C4.01978 20.2942 3.00031 23.1093 3.00031 26ZM7.91964 19.7812L12.0251 14.8541C12.3871 14.4192 12.4352 13.8033 12.1462 13.3177C11.8584 12.8333 11.2972 12.5781 10.7386 12.6926L4.94818 13.8502L3.55231 11.7578L9.01978 8.47663C9.52244 8.17449 9.76978 7.57943 9.62658 7.0105L9.10445 4.91929L12.5796 7.13156C17.1987 10.0709 19.7894 15.2278 19.4499 20.6666H7.28084C7.48058 20.3632 7.68525 20.0622 7.91964 19.7812ZM19.2372 23.3333L19.1162 24.6666H5.75938C5.82218 24.2152 5.91738 23.7698 6.04204 23.3333H19.2372Z" fill="white"/>
</svg>
