<svg width="26" height="27" viewBox="0 0 26 27" fill="none" xmlns="http://www.w3.org/2000/svg">
<path d="M8.13897 14.6147C8.49934 14.8231 8.91666 14.9067 9.32791 14.8529C9.73916 14.7991 10.122 14.6108 10.4187 14.3164C10.528 14.9367 10.4978 15.5952 10.332 16.2691C10.2985 16.4131 10.4349 16.5429 10.5619 16.4988L12.4685 15.9666C12.5 15.9583 12.5287 15.9418 12.5519 15.9187C12.575 15.8956 12.5918 15.8667 12.6006 15.8349C12.6094 15.8032 12.6098 15.7696 12.6018 15.7377C12.5939 15.7057 12.5778 15.6764 12.5552 15.6527C12.0804 15.1626 11.73 14.6151 11.5114 14.0293C11.9204 14.1352 12.3524 14.102 12.741 13.9346C13.1296 13.7673 13.4535 13.475 13.663 13.1027C13.7889 12.8798 13.8702 12.6339 13.9023 12.379C13.9345 12.1241 13.9168 11.8653 13.8503 11.6173C13.7837 11.3694 13.6697 11.1373 13.5147 10.9342C13.3598 10.7311 13.1669 10.5612 12.9471 10.434L9.60854 8.49663C9.58734 8.48373 9.56382 8.47528 9.53936 8.47176C9.5149 8.46825 9.48999 8.46975 9.46611 8.47617C9.44223 8.48259 9.41986 8.49381 9.40031 8.50916C9.38076 8.52451 9.36444 8.54369 9.3523 8.56555L7.43056 11.9808C7.18111 12.4257 7.11559 12.953 7.24841 13.4469C7.38124 13.9408 7.70153 14.3609 8.13897 14.6151V14.6147Z" fill="#313339" fill-opacity="0.5"/>
<path d="M3.59095 18.1258H2.07315C1.47402 18.1258 0.984168 18.6197 0.984168 19.2323V24.585C0.984168 25.1937 1.47402 25.6877 2.07315 25.6877H7.34098C7.62914 25.6877 7.90556 25.5716 8.10968 25.3649C8.3138 25.1582 8.42897 24.8778 8.42996 24.585V24.003H15.5253C16.0404 24.5426 16.6572 24.9713 17.339 25.2633C18.0207 25.5554 18.7533 25.7049 19.4932 25.703C22.5491 25.703 25.0511 23.1894 25.0511 20.0555C25.0511 17.7379 23.6584 15.6887 21.5958 14.8253V5.10017C21.5958 3.50011 20.3146 2.19793 18.7358 2.19793H16.4561C16.0027 1.15037 14.858 0.514024 13.6903 0.773617L2.87576 3.18576C1.55692 3.48058 0.716631 4.80956 1.00678 6.14964L3.5917 18.1261L3.59095 18.1258ZM3.07547 24.6393C2.84292 24.6383 2.62019 24.544 2.45575 24.3769C2.29131 24.2098 2.19849 23.9835 2.1975 23.7472C2.1975 23.2533 2.59315 22.8551 3.07547 22.8551C3.56156 22.8551 3.95344 23.2533 3.95344 23.7472C3.95344 24.2373 3.56156 24.6393 3.07547 24.6393ZM3.07547 21.2279C2.59315 21.2279 2.1975 20.8258 2.1975 20.3358C2.1975 19.8418 2.59315 19.4436 3.07547 19.4436C3.56156 19.4436 3.95344 19.8418 3.95344 20.3358C3.95344 20.8258 3.56156 21.2279 3.07547 21.2279ZM6.33866 24.6393C5.85257 24.6393 5.46069 24.2373 5.46069 23.7472C5.46069 23.2472 5.86011 22.8551 6.33866 22.8551C6.76144 22.8551 7.21663 23.1982 7.21663 23.7472C7.21663 24.222 6.83869 24.6393 6.33866 24.6393ZM6.33866 21.2279C6.22321 21.2284 6.1088 21.2057 6.00203 21.1611C5.89526 21.1165 5.79825 21.0508 5.71662 20.9678C5.63498 20.8849 5.57033 20.7863 5.5264 20.6778C5.48247 20.5693 5.46014 20.4531 5.46069 20.3358C5.46069 19.8265 5.86765 19.4436 6.33866 19.4436C6.82475 19.4436 7.21663 19.8418 7.21663 20.3358C7.21663 20.8258 6.82475 21.2279 6.33866 21.2279ZM10.6079 23.238L14.4326 22.388C14.5645 22.6866 14.7227 22.97 14.9036 23.238H10.6079ZM22.8694 16.5912L22.6584 16.7137C22.4775 16.8209 22.4172 17.0545 22.519 17.2382L23.4082 18.8004C23.51 18.9804 23.7436 19.0454 23.9207 18.9382L24.1355 18.8119C24.241 19.2139 24.2975 19.6274 24.2975 20.0562C24.2975 20.4774 24.2447 20.8986 24.1392 21.2968L23.9207 21.1704C23.8342 21.1203 23.7317 21.1071 23.6356 21.1336C23.5396 21.1602 23.4578 21.2244 23.4082 21.3121L22.519 22.8743C22.4698 22.9622 22.4569 23.0663 22.483 23.1638C22.5092 23.2614 22.5722 23.3445 22.6584 23.395L22.8694 23.5213C22.2841 24.117 21.5552 24.5461 20.7555 24.7657V24.513C20.7555 24.3024 20.5859 24.1301 20.3787 24.1301H18.6039C18.3966 24.1301 18.2271 24.3024 18.2271 24.513V24.7657C17.331 24.5153 16.5239 23.9769 16.1169 23.5175L16.3242 23.395C16.5096 23.2839 16.5653 23.0465 16.4636 22.8743L15.5781 21.3121C15.5277 21.2243 15.4452 21.1601 15.3486 21.1336C15.252 21.1071 15.1489 21.1203 15.0618 21.1704L14.8471 21.2968C14.7416 20.8986 14.6888 20.4774 14.6888 20.0562C14.6888 19.6313 14.7416 19.2139 14.8471 18.8119L15.0618 18.9382C15.2427 19.0454 15.4726 18.9804 15.5781 18.8004L16.4636 17.2382C16.5691 17.0545 16.505 16.8209 16.3242 16.7137L16.1169 16.5912C16.7047 15.9901 17.432 15.5612 18.2271 15.3468V15.5995C18.2271 15.8101 18.3966 15.9824 18.6039 15.9824H20.3787C20.5859 15.9824 20.7555 15.8101 20.7555 15.5995V15.3468C21.1798 15.402 22.1757 15.8859 22.8694 16.5912ZM18.7354 2.96369C19.8997 2.96369 20.8418 3.9209 20.8418 5.10017V14.5765C20.2954 14.4386 19.7151 14.385 19.1423 14.4195L16.6705 2.96369H18.7354ZM3.03741 3.93238L13.8519 1.52406C14.7171 1.33071 15.5317 1.8476 15.7925 2.58081C15.869 2.76192 15.6696 1.90197 18.3925 14.519C16.0412 14.9348 13.9348 17.1839 13.9348 20.0555C13.9348 20.7431 14.0818 21.4492 14.1647 21.6598L8.42959 22.9386V19.2323C8.42959 18.6197 7.93973 18.1258 7.3406 18.1258H4.36379L1.74118 5.98462C1.64581 5.53787 1.72872 5.07091 1.97172 4.68619C2.21472 4.30146 2.59797 4.03037 3.03741 3.93238Z" fill="#313339" fill-opacity="0.5"/>
<path d="M16.3123 20.0554C16.3123 21.9024 17.7932 23.2869 19.4926 23.2869C21.253 23.2869 22.6729 21.8331 22.6729 20.0554C22.6729 18.2972 21.2794 16.8239 19.4926 16.8239C17.7438 16.8239 16.3123 18.2662 16.3123 20.0554ZM19.6245 18.3975C19.6365 18.4358 19.6312 19.6679 20.8416 19.8908C20.932 19.9137 21.03 19.9214 21.1242 19.9214C21.1931 19.9214 21.2598 19.9758 21.2598 20.0554C21.2598 20.1354 21.1935 20.1894 21.1242 20.1894C21.03 20.1894 20.932 20.1971 20.8416 20.2204C20.1701 20.343 19.6245 20.954 19.6245 21.7137C19.6245 21.7492 19.6106 21.7833 19.5858 21.8084C19.5611 21.8336 19.5275 21.8477 19.4926 21.8477C19.4576 21.8477 19.424 21.8336 19.3993 21.8084C19.3746 21.7833 19.3607 21.7492 19.3607 21.7137C19.3607 20.892 18.699 20.1898 17.861 20.1898C17.826 20.1898 17.7925 20.1757 17.7677 20.1505C17.743 20.1254 17.7291 20.0913 17.7291 20.0558C17.7291 20.0202 17.743 19.9862 17.7677 19.961C17.7925 19.9359 17.826 19.9218 17.861 19.9218C18.058 19.922 18.2531 19.8827 18.4351 19.8062C18.6172 19.7297 18.7826 19.6174 18.9219 19.4759C19.0612 19.3344 19.1716 19.1663 19.2469 18.9813C19.3222 18.7963 19.3609 18.5981 19.3607 18.3979C19.3607 18.3213 19.4172 18.2601 19.4926 18.2601C19.5785 18.2601 19.6245 18.3393 19.6245 18.3975ZM3.83568 7.41997C4.15295 7.60451 4.54785 7.54517 4.79918 7.29323C4.84431 7.56818 4.83199 7.8497 4.76301 8.11949C4.75984 8.1332 4.76018 8.14752 4.764 8.16106C4.76783 8.1746 4.77501 8.18692 4.78487 8.19683C4.79989 8.21115 4.81966 8.21921 4.84026 8.21942C4.84727 8.21902 4.85421 8.21786 4.86098 8.21598L5.6666 7.99161C5.67996 7.98822 5.69215 7.98119 5.70184 7.97127C5.71154 7.96135 5.71838 7.94892 5.72162 7.93532C5.72536 7.92188 5.72559 7.90768 5.72229 7.89411C5.71899 7.88055 5.71226 7.8681 5.70278 7.85798C5.51016 7.66346 5.35995 7.42996 5.26191 7.17263C5.4346 7.2171 5.61688 7.20289 5.78088 7.13216C5.94487 7.06142 6.08155 6.93806 6.17002 6.78094C6.2793 6.58835 6.30794 6.36704 6.24915 6.1534C6.22148 6.04849 6.17359 5.9502 6.10826 5.86424C6.04293 5.77827 5.96146 5.70633 5.86858 5.65259L4.45629 4.83399C4.44739 4.8286 4.43752 4.82508 4.42726 4.82363C4.417 4.82218 4.40656 4.82283 4.39655 4.82554C4.38655 4.82825 4.37717 4.83297 4.36899 4.83942C4.3608 4.84587 4.35397 4.85392 4.34889 4.86309L3.53687 6.30617C3.48402 6.39899 3.44997 6.50161 3.4367 6.60799C3.42344 6.71438 3.43123 6.82239 3.45962 6.92567C3.51501 7.13625 3.64916 7.31276 3.83568 7.41997Z" fill="#313339" fill-opacity="0.5"/>
</svg>
