<svg width="8" height="12" viewBox="0 0 8 12" fill="none" xmlns="http://www.w3.org/2000/svg">
<path d="M7.15337 5.80645C7.67422 5.31408 8 4.62948 8 3.87097C8 2.50956 6.95332 1.39028 5.6 1.20042V0H4V1.16129H2.4V0H0.8V1.16129H0V2.70968H0.8V8.90323H0V10.4516H0.8V12H2.4V10.4516H4V12H5.6V10.4125C6.95332 10.2226 8 9.10334 8 7.74194C8 6.98343 7.67422 6.29883 7.15337 5.80645ZM6.4 3.87097C6.4 4.51134 5.86172 5.03226 5.2 5.03226H2.4V2.70968H5.2C5.86172 2.70968 6.4 3.23059 6.4 3.87097ZM5.2 8.90323H2.4V6.58065H5.2C5.86172 6.58065 6.4 7.10156 6.4 7.74194C6.4 8.38231 5.86172 8.90323 5.2 8.90323Z" fill="white"/>
</svg>
