<svg width="47" height="46" viewBox="0 0 47 46" fill="none" xmlns="http://www.w3.org/2000/svg">
<path d="M33.8651 0.0458984C28.2588 0.0458984 23.5151 3.65115 21.7297 8.65365H4.1347C2.28895 8.65365 0.793945 10.1486 0.793945 11.9886V19.685C0.793945 20.4038 1.0757 21.0363 1.4667 21.5825C1.0757 22.1288 0.793945 22.7613 0.793945 23.48V31.1764C0.793945 31.8951 1.0757 32.5276 1.4667 33.0739C1.0757 33.6201 0.793945 34.2526 0.793945 34.9714V42.6678C0.793945 44.5049 2.2947 45.9999 4.13182 45.9999H34.8081C36.6481 45.9999 38.1431 44.5049 38.1431 42.6649V34.9743C38.1431 34.2555 37.8642 33.6173 37.4732 33.071C37.8642 32.5248 38.1402 31.8951 38.1402 31.1735V25.1188C43.1599 23.3391 46.7939 18.5954 46.7939 12.9719C46.7894 9.54461 45.4257 6.25905 43.0019 3.83586C40.5782 1.41267 37.2924 0.0497018 33.8651 0.0458984ZM33.8651 2.91802C36.5311 2.92031 39.0873 3.98019 40.9727 5.86508C42.8582 7.74997 43.9188 10.3059 43.9218 12.9719C43.9195 15.6384 42.8593 18.1951 40.9737 20.0806C39.0882 21.9661 36.5316 23.0264 33.8651 23.0287C31.1991 23.0256 28.6431 21.965 26.7583 20.0796C24.8734 18.1941 23.8135 15.6379 23.8112 12.9719C23.8142 10.3064 24.8745 7.75091 26.7593 5.8661C28.6441 3.98129 31.1996 2.92107 33.8651 2.91802ZM32.3902 6.9919V14.8751L30.4553 13.0668L28.4917 15.1655L32.8444 19.2336C33.1127 19.4865 33.4679 19.6266 33.8366 19.625C34.2053 19.6234 34.5592 19.4802 34.8253 19.225L39.0688 15.1511L37.0764 13.0812L35.2652 14.8119V6.9919H32.3902ZM6.54107 14.3979H18.0324V17.2729H6.54107V14.3979ZM6.54107 25.8893H18.0324V28.7643H6.54107V25.8893ZM29.4548 25.8893H32.3729V28.7643H29.4577V25.8893H29.4548ZM6.54395 37.3806H18.0353V40.2556H6.54107V37.3806H6.54395ZM29.4577 37.3806H32.3758V40.2556H29.4577V37.3806Z" fill="white"/>
</svg>
