<svg width="52" height="52" viewBox="0 0 52 52" fill="none" xmlns="http://www.w3.org/2000/svg">
<g clip-path="url(#clip0_10770_16501)">
<path d="M26 0C11.6632 0 0 11.6632 0 26C0 40.3368 11.6632 52 26 52C40.3368 52 52 40.3368 52 26C52 11.6632 40.3368 0 26 0Z" fill="#1758A6"/>
<path opacity="0.2" d="M26 0.541667C40.2458 0.541667 51.8397 12.0597 51.987 26.2708C51.987 26.1798 52 26.091 52 26C52 11.6632 40.3368 0 26 0C11.6632 0 0 11.6632 0 26C0 26.091 0.013 26.1798 0.013 26.2708C0.160333 12.0597 11.7563 0.541667 26 0.541667Z" fill="white"/>
<path opacity="0.1" d="M26 51.4584C11.7542 51.4584 0.160333 39.9404 0.013 25.7292C0.013 25.8202 0 25.909 0 26C0 40.3369 11.6632 52 26 52C40.3368 52 52 40.3369 52 26C52 25.909 51.987 25.8202 51.987 25.7292C51.8397 39.9404 40.2437 51.4584 26 51.4584Z" fill="#010101"/>
<path d="M51.0748 32.7665L31.3624 13.0541L31.3603 13.0563C32.0655 13.7594 32.6249 14.5949 33.0064 15.5147C33.3879 16.4346 33.5839 17.4208 33.5833 18.4166C33.5833 22.5983 30.1816 26 25.9999 26C25.0041 26.0007 24.0179 25.8046 23.098 25.4231C22.1781 25.0417 21.3427 24.4822 20.6396 23.777L25.0661 28.2078C25.3781 28.1926 25.6836 28.1666 25.9999 28.1666C30.6821 28.1666 34.9179 29.8523 37.6458 31.2671C38.7087 31.8156 39.5998 32.6466 40.221 33.6688C40.8422 34.691 41.1694 35.8647 41.1666 37.0608V41.1666H10.8333L21.2051 51.5385C22.7608 51.8288 24.3598 52 25.9999 52C37.9924 52 48.0848 43.8273 51.0748 32.7665Z" fill="url(#paint0_linear_10770_16501)"/>
<path d="M26.0001 26C30.1882 26 33.5834 22.6048 33.5834 18.4166C33.5834 14.2285 30.1882 10.8333 26.0001 10.8333C21.8119 10.8333 18.4167 14.2285 18.4167 18.4166C18.4167 22.6048 21.8119 26 26.0001 26Z" fill="#E6B830"/>
<path opacity="0.2" d="M25.9999 11.375C29.1957 11.375 31.9777 13.2946 33.2019 16.042C32.2009 13.0216 29.3496 10.8333 25.9999 10.8333C22.6502 10.8333 19.8032 13.0108 18.8022 16.029C19.4254 14.6417 20.4364 13.4642 21.7134 12.6385C22.9905 11.8127 24.4791 11.3739 25.9999 11.375Z" fill="white"/>
<path opacity="0.1" d="M26.0001 25.4583C24.4776 25.4572 22.9878 25.0161 21.7101 24.1881C20.4324 23.3601 19.4211 22.1805 18.7981 20.7913C19.7991 23.8117 22.6504 26 26.0001 26C29.3498 26 32.1968 23.8225 33.1978 20.8043C32.5747 22.1916 31.5636 23.3691 30.2866 24.1948C29.0095 25.0206 27.5209 25.4594 26.0001 25.4583Z" fill="#010101"/>
<path d="M37.6458 31.2672C34.9158 29.8524 30.6799 28.1667 25.9999 28.1667C21.3199 28.1667 17.0819 29.8524 14.3541 31.2672C13.2911 31.8156 12.4 32.6467 11.7788 33.6688C11.1576 34.691 10.8305 35.8647 10.8333 37.0609V41.1667H41.1666V37.0609C41.1666 34.6125 39.8168 32.3939 37.6458 31.2672Z" fill="#E6B830"/>
<path opacity="0.1" d="M10.8333 40.625H41.1666V41.1667H10.8333V40.625Z" fill="#010101"/>
<path opacity="0.2" d="M37.6458 31.2672C34.9158 29.8524 30.6799 28.1667 25.9999 28.1667C21.3199 28.1667 17.0819 29.8524 14.3541 31.2672C13.2911 31.8156 12.4 32.6466 11.7788 33.6688C11.1576 34.691 10.8305 35.8647 10.8333 37.0609V37.6025C10.8333 35.1542 12.1831 32.9355 14.3541 31.8089C17.0841 30.394 21.3199 28.7084 25.9999 28.7084C30.6799 28.7084 34.9179 30.394 37.6458 31.8089C38.7088 32.3573 39.5999 33.1883 40.221 34.2105C40.8422 35.2327 41.1694 36.4064 41.1666 37.6025V37.0609C41.1666 34.6125 39.8168 32.3939 37.6458 31.2672Z" fill="white"/>
<path d="M39.5 52C46.4036 52 52 46.4036 52 39.5C52 32.5964 46.4036 27 39.5 27C32.5964 27 27 32.5964 27 39.5C27 46.4036 32.5964 52 39.5 52Z" fill="#3F83D3"/>
<path d="M39.5 49.7273C45.1483 49.7273 49.7273 45.1483 49.7273 39.5C49.7273 33.8516 45.1483 29.2727 39.5 29.2727C33.8516 29.2727 29.2727 33.8516 29.2727 39.5C29.2727 45.1483 33.8516 49.7273 39.5 49.7273Z" fill="#3F83D3"/>
<path d="M44.3776 35.2864L37.2276 42.4387L34.623 39.8319C34.4096 39.6185 34.1202 39.4986 33.8185 39.4986C33.5167 39.4986 33.2273 39.6185 33.0139 39.8319C32.8005 40.0453 32.6807 40.3347 32.6807 40.6364C32.6807 40.9382 32.8005 41.2276 33.0139 41.441L36.423 44.8501C36.5283 44.9564 36.6536 45.0409 36.7917 45.0985C36.9298 45.1562 37.0779 45.1858 37.2276 45.1858C37.3772 45.1858 37.5254 45.1562 37.6635 45.0985C37.8016 45.0409 37.9268 44.9564 38.0321 44.8501L45.9866 36.8955C46.2 36.6822 46.3199 36.3927 46.3199 36.091C46.3199 35.7892 46.2 35.4998 45.9866 35.2864C45.7733 35.0731 45.4839 34.9532 45.1821 34.9532C44.8803 34.9532 44.5909 35.0731 44.3776 35.2864Z" fill="white"/>
</g>
<defs>
<linearGradient id="paint0_linear_10770_16501" x1="20.3709" y1="26.3856" x2="37.9123" y2="43.9248" gradientUnits="userSpaceOnUse">
<stop stop-color="#010101" stop-opacity="0.1"/>
<stop offset="1" stop-color="#010101" stop-opacity="0"/>
</linearGradient>
<clipPath id="clip0_10770_16501">
<rect width="52" height="52" fill="white"/>
</clipPath>
</defs>
</svg>
