<svg width="18" height="18" viewBox="0 0 18 18" fill="none" xmlns="http://www.w3.org/2000/svg">
<path opacity="0.4" d="M5.25 8.24994V16.4999" stroke="black" stroke-width="1.5" stroke-linecap="round" stroke-linejoin="round"/>
<path d="M15.2935 14.5921C15.1246 15.6897 14.1802 16.4999 13.0696 16.4999H3C2.17157 16.4999 1.5 15.8284 1.5 14.9999V9.74994C1.5 8.92149 2.17157 8.24994 3 8.24994H4.7626C5.05899 8.24994 5.32758 8.07541 5.44795 7.80451L8.08732 1.86603C8.18625 1.64341 8.40697 1.49994 8.65065 1.49994C9.672 1.49994 10.5 2.32793 10.5 3.34932V5.99994C10.5 6.41415 10.8358 6.74994 11.25 6.74994H13.8774C15.2563 6.74994 16.3109 7.97911 16.1012 9.34209L15.2935 14.5921Z" stroke="black" stroke-width="1.5" stroke-linecap="round" stroke-linejoin="round"/>
</svg>
