<svg width="49" height="48" viewBox="0 0 49 48" fill="none" xmlns="http://www.w3.org/2000/svg">
<path d="M43.8528 6.336C43.8528 2.88 40.9728 0 37.5168 0C9.10078 0 10.4448 0 10.2528 0C6.98878 0.192 4.30078 2.88 4.30078 6.336V41.664C4.30078 45.12 7.18078 48 10.6368 48H41.7408C42.8928 48 43.6608 47.04 43.6608 46.08C43.8528 42.048 43.6608 60.864 43.8528 6.336ZM39.8208 44.16H10.6368C9.29278 44.16 8.14078 43.008 8.14078 41.664C8.14078 40.32 9.29278 39.168 10.6368 39.168H39.8208V44.16Z" fill="#060D17"/>
<path d="M33.5991 14.1C32.2991 9.9 28.3991 7 23.9991 7C23.3991 7 22.9991 7.4 22.9991 8C22.9991 8.6 23.3991 9 23.9991 9C24.5991 9 24.9991 9.4 24.9991 10C24.9991 10.6 24.5991 11 23.9991 11C22.3991 11 20.9991 9.7 20.9991 8C20.9991 7.8 20.9991 7.6 21.0991 7.4C15.7991 9.1 12.7991 14.7 14.3991 19.9C15.9991 25.1 21.5991 28.1 26.8991 26.5C32.1991 24.9 35.1991 19.3 33.5991 14.1ZM19.9991 15C19.9991 14.4 20.3991 14 20.9991 14C21.5991 14 21.9991 14.4 21.9991 15C21.9991 15.6 21.5991 16 20.9991 16C20.3991 16 19.9991 15.6 19.9991 15ZM26.8991 20.4C25.9991 22 23.9991 22.5 22.3991 21.6C21.8991 21.3 21.4991 20.9 21.1991 20.4C20.8991 19.9 21.0991 19.3 21.5991 19C22.0991 18.7 22.6991 18.9 22.9991 19.4C23.3991 20 24.1991 20.2 24.7991 19.9C24.9991 19.8 25.1991 19.6 25.2991 19.4C25.5991 18.9 26.1991 18.8 26.6991 19C26.9991 19.3 27.0991 19.9 26.8991 20.4ZM26.9991 16C26.3991 16 25.9991 15.6 25.9991 15C25.9991 14.4 26.3991 14 26.9991 14C27.5991 14 27.9991 14.4 27.9991 15C27.9991 15.6 27.5991 16 26.9991 16Z" fill="white"/>
</svg>
