<svg width="26" height="19" viewBox="0 0 26 19" fill="none" xmlns="http://www.w3.org/2000/svg">
<path d="M23.5961 3.49266C20.0431 -2.34298 14.69 1.72401 14.69 1.72401C14.3421 1.98662 14.1514 2.20209 13.7159 2.20209H12.284C11.8485 2.20209 11.6578 1.97764 11.3121 1.72401C11.3121 1.72401 5.95903 -2.33849 2.40602 3.49939C-1.14698 9.33727 0.284995 15.6914 0.284995 15.6914C0.536376 17.2468 1.36234 18.286 2.92225 18.1603C4.48216 18.0346 7.85561 13.9654 7.85561 13.9654C8.19486 13.6078 8.65843 13.3941 9.15067 13.3684H16.847C17.3417 13.3962 17.8065 13.6142 18.1443 13.9766C18.1443 13.9766 21.511 18.0369 23.0821 18.167C24.6533 18.2972 25.468 17.2692 25.7171 15.6981C25.7149 15.6914 27.1581 9.32829 23.5961 3.49266ZM10.219 8.25319H8.37633V10.0286C8.08259 10.2251 7.73536 10.3262 7.38203 10.3181C7.22277 10.326 7.06355 10.302 6.91364 10.2477C6.76374 10.1934 6.62616 10.1097 6.50892 10.0016V8.25319H4.76721C4.59208 8.01881 4.49476 7.73546 4.4889 7.44294C4.46152 7.07376 4.54515 6.70482 4.72906 6.38354H6.57177V4.54083C6.86061 4.40528 7.17764 4.34064 7.49649 4.35229C7.82334 4.36297 8.14469 4.4393 8.44142 4.57674V6.38354H10.1809C10.3668 6.63573 10.4808 6.93358 10.5108 7.24542C10.4972 7.60011 10.397 7.94608 10.219 8.25319ZM17.7739 10.2732C17.4854 10.2732 17.2033 10.1877 16.9634 10.0273C16.7235 9.86704 16.5365 9.63919 16.4261 9.37261C16.3157 9.10603 16.2868 8.81269 16.3431 8.52969C16.3994 8.24669 16.5383 7.98674 16.7423 7.78271C16.9464 7.57867 17.2063 7.43973 17.4893 7.38343C17.7723 7.32714 18.0657 7.35603 18.3322 7.46645C18.5988 7.57688 18.8267 7.76387 18.987 8.00378C19.1473 8.2437 19.2329 8.52577 19.2329 8.81431C19.2337 9.00636 19.1966 9.19668 19.1237 9.37434C19.0508 9.55199 18.9434 9.71347 18.8078 9.84948C18.6722 9.98549 18.5111 10.0933 18.3336 10.1668C18.1562 10.2403 17.966 10.278 17.7739 10.2777V10.2732ZM17.7739 6.2601C17.4854 6.2601 17.2033 6.17453 16.9634 6.01423C16.7235 5.85392 16.5365 5.62607 16.4261 5.35949C16.3157 5.09291 16.2868 4.79957 16.3431 4.51657C16.3994 4.23357 16.5383 3.97362 16.7423 3.76958C16.9464 3.56555 17.2063 3.4266 17.4893 3.37031C17.7723 3.31402 18.0657 3.34291 18.3322 3.45333C18.5988 3.56375 18.8267 3.75075 18.987 3.99066C19.1473 4.23058 19.2329 4.51264 19.2329 4.80119C19.2334 4.99305 19.1961 5.18313 19.1231 5.36053C19.05 5.53792 18.9426 5.69913 18.807 5.8349C18.6714 5.97067 18.5104 6.07833 18.3331 6.15168C18.1558 6.22503 17.9658 6.26264 17.7739 6.26234V6.2601ZM21.4055 8.41479C21.117 8.41479 20.8349 8.32923 20.595 8.16892C20.3551 8.00862 20.1681 7.78077 20.0577 7.51418C19.9472 7.2476 19.9183 6.95427 19.9746 6.67127C20.0309 6.38826 20.1699 6.12831 20.3739 5.92428C20.5779 5.72025 20.8379 5.5813 21.1209 5.52501C21.4039 5.46872 21.6972 5.49761 21.9638 5.60803C22.2304 5.71845 22.4582 5.90544 22.6185 6.14536C22.7789 6.38527 22.8644 6.66734 22.8644 6.95588C22.865 7.14755 22.8278 7.33746 22.7548 7.5147C22.6819 7.69195 22.5747 7.85307 22.4394 7.98881C22.304 8.12455 22.1433 8.23224 21.9662 8.30573C21.7892 8.37921 21.5994 8.41704 21.4078 8.41704L21.4055 8.41479Z" fill="#313339" fill-opacity="0.5"/>
</svg>
