<svg width="43" height="43" viewBox="0 0 43 43" fill="none" xmlns="http://www.w3.org/2000/svg">
<path d="M1.34009 19.316C1.34009 20.996 2.68409 22.34 4.19609 22.34V25.028C4.19609 25.868 4.70009 26.708 5.54009 27.044C6.21209 27.38 7.22009 27.212 7.89209 26.708L12.5961 22.34H21.8361C23.5161 22.34 24.8601 20.996 24.8601 19.316V7.05202C24.8601 5.37202 23.5161 4.02802 21.8361 4.02802H4.36409C2.68409 4.02802 1.34009 5.37202 1.34009 7.05202V19.316Z" fill="#060D17"/>
<path d="M41.66 29.732V14.612C41.66 12.764 40.148 11.252 38.3 11.252H28.22V22.004C28.22 24.188 26.54 25.868 24.356 25.868H13.94L13.436 26.204V29.732C13.436 31.58 14.948 33.092 16.796 33.092H28.22L34.1 38.468C34.772 39.14 35.78 39.308 36.62 38.972C37.46 38.636 37.964 37.796 37.964 36.956V33.26H38.132C40.148 33.092 41.66 31.58 41.66 29.732Z" fill="#060D17"/>
</svg>
