<svg width="26" height="27" viewBox="0 0 26 27" fill="none" xmlns="http://www.w3.org/2000/svg">
<g clip-path="url(#clip0_12124_7913)">
<path d="M4.26489 2.97961L1.66989 3.63045C1.37866 3.7042 1.12851 3.89031 0.974158 4.14804C0.819807 4.40578 0.773828 4.71416 0.846281 5.00571L4.26489 18.7168V2.97961ZM24.3299 3.63045L21.7348 2.97961V18.7168L25.1537 5.00571C25.2261 4.71414 25.1801 4.40576 25.0257 4.14803C24.8713 3.8903 24.6212 3.7042 24.3299 3.63045ZM17.469 2.78799H8.5308C8.42306 2.78799 8.31973 2.8308 8.24354 2.90698C8.16736 2.98317 8.12455 3.0865 8.12455 3.19424C8.12455 3.30199 8.16736 3.40532 8.24354 3.48151C8.31973 3.55769 8.42306 3.60049 8.5308 3.60049H17.469C17.5768 3.60049 17.6801 3.55769 17.7563 3.48151C17.8325 3.40532 17.8753 3.30199 17.8753 3.19424C17.8753 3.0865 17.8325 2.98317 17.7563 2.90698C17.6801 2.8308 17.5768 2.78799 17.469 2.78799ZM18.2875 24.0832C18.3864 24.1251 18.4979 24.1265 18.5979 24.0869C18.6978 24.0474 18.7782 23.9702 18.8217 23.8719C18.8217 23.8719 19.8758 21.4392 19.8779 21.4344C19.9034 21.3726 19.9135 21.3054 19.9072 21.2387C19.9009 21.1721 19.8784 21.108 19.8416 21.052C19.8049 20.996 19.755 20.9499 19.6964 20.9176C19.6377 20.8853 19.5721 20.8678 19.5051 20.8667H17.8801C17.3604 20.8667 17.3496 21.6792 17.8801 21.6792H18.8863L18.0762 23.549C18.055 23.5979 18.0436 23.6506 18.0427 23.7039C18.0419 23.7573 18.0515 23.8103 18.0711 23.8599C18.0908 23.9095 18.12 23.9547 18.1571 23.9931C18.1942 24.0314 18.2385 24.062 18.2875 24.0832ZM8.60521 21.8143C8.61231 21.4637 8.48015 21.1246 8.23768 20.8713C7.99522 20.618 7.66223 20.4711 7.31167 20.4628C7.11233 20.4633 6.91593 20.5109 6.73843 20.6016C6.56093 20.6923 6.40736 20.8237 6.29019 20.9849C6.11198 21.2246 6.0165 21.5157 6.01813 21.8143C6.01813 21.9221 6.06095 22.0255 6.13716 22.1017C6.21338 22.1779 6.31675 22.2207 6.42453 22.2207C6.53231 22.2207 6.63568 22.1779 6.7119 22.1017C6.78811 22.0255 6.83093 21.9221 6.83093 21.8143C6.82316 21.7466 6.82981 21.6779 6.85042 21.6129C6.87104 21.5479 6.90516 21.488 6.95055 21.4371C6.99595 21.3862 7.05158 21.3455 7.11382 21.3176C7.17605 21.2897 7.24347 21.2753 7.31166 21.2753C7.37986 21.2753 7.44728 21.2897 7.50951 21.3176C7.57175 21.3455 7.62738 21.3862 7.67277 21.4371C7.71817 21.488 7.75229 21.5479 7.7729 21.6129C7.79352 21.6779 7.80016 21.7466 7.7924 21.8143C7.7924 22.0464 7.58976 22.2368 7.28102 22.501L6.23693 23.3998C6.17407 23.4539 6.12927 23.526 6.10856 23.6063C6.08785 23.6866 6.09221 23.7713 6.12107 23.8491C6.14993 23.9268 6.20189 23.9939 6.26998 24.0412C6.33807 24.0886 6.41902 24.1139 6.50195 24.1139H8.19885C8.30659 24.1139 8.40992 24.0711 8.48611 23.995C8.5623 23.9188 8.6051 23.8154 8.6051 23.7077C8.6051 23.5999 8.5623 23.4966 8.48611 23.4204C8.40992 23.3442 8.30659 23.3014 8.19885 23.3014H7.59662L7.80927 23.1185C8.14509 22.8313 8.60521 22.438 8.60521 21.8143Z" fill="#313339" fill-opacity="0.5"/>
<path d="M18.2859 18.6321C17.4679 18.6322 16.6738 18.9081 16.032 19.4153C16.2319 19.5998 16.4147 19.8022 16.5781 20.0199C16.9853 19.7132 17.4676 19.5217 17.9743 19.4655C18.481 19.4093 18.9936 19.4905 19.4581 19.7004C19.9227 19.9104 20.3222 20.2415 20.6149 20.659C20.9075 21.0765 21.0824 21.565 21.1213 22.0734C21.1602 22.5817 21.0616 23.0911 20.8359 23.5483C20.6102 24.0054 20.2657 24.3935 19.8385 24.6717C19.4113 24.9499 18.9171 25.1081 18.4077 25.1296C17.8983 25.1512 17.3925 25.0353 16.9434 24.7941C16.8152 25.0336 16.6654 25.2609 16.4959 25.4731C16.9831 25.7471 17.5267 25.9056 18.0848 25.9366C18.6428 25.9676 19.2006 25.8701 19.7151 25.6518C20.2297 25.4334 20.6872 25.1 21.0527 24.6771C21.4182 24.2542 21.6818 23.7531 21.8233 23.2124C21.9648 22.6716 21.9804 22.1056 21.8688 21.5579C21.7573 21.0102 21.5217 20.4954 21.18 20.053C20.8384 19.6107 20.3998 19.2526 19.8981 19.0062C19.3964 18.7599 18.8448 18.6319 18.2859 18.6321Z" fill="#313339" fill-opacity="0.5"/>
<path d="M13 19.038C12.2769 19.038 11.57 19.2525 10.9688 19.6543C10.3676 20.0561 9.89895 20.6271 9.62225 21.2952C9.34555 21.9633 9.27317 22.6984 9.41427 23.4077C9.55537 24.1169 9.90361 24.7684 10.415 25.2797C10.9263 25.791 11.5778 26.1392 12.287 26.2803C12.9963 26.4213 13.7314 26.3489 14.3995 26.0722C15.0676 25.7954 15.6386 25.3268 16.0403 24.7255C16.4421 24.1243 16.6565 23.4174 16.6565 22.6942C16.6554 21.7249 16.2697 20.7955 15.5843 20.1101C14.8988 19.4246 13.9694 19.0391 13 19.038ZM12.9743 24.7255C12.6969 24.7269 12.4259 24.6425 12.1983 24.4838C11.9707 24.3252 11.7977 24.1001 11.703 23.8394C11.6675 23.738 11.6736 23.6266 11.7199 23.5297C11.7663 23.4327 11.8492 23.3581 11.9505 23.3222C12.0518 23.2862 12.1632 23.2919 12.2603 23.3379C12.3574 23.3839 12.4324 23.4665 12.4687 23.5676C12.5072 23.6703 12.5764 23.7585 12.6669 23.8203C12.7574 23.8821 12.8648 23.9145 12.9743 23.913C13.0433 23.916 13.1121 23.9051 13.1766 23.8808C13.2412 23.8566 13.3002 23.8195 13.3501 23.7718C13.3999 23.7241 13.4396 23.6668 13.4667 23.6034C13.4938 23.54 13.5077 23.4717 13.5077 23.4027C13.5077 23.3337 13.4938 23.2655 13.4667 23.202C13.4396 23.1386 13.3999 23.0813 13.3501 23.0336C13.3002 22.9859 13.2412 22.9488 13.1766 22.9246C13.1121 22.9003 13.0433 22.8894 12.9743 22.8924C12.8974 22.8844 12.8237 22.8573 12.76 22.8135C12.6962 22.7698 12.6444 22.7108 12.6093 22.6419C12.5742 22.573 12.5569 22.4964 12.5589 22.4191C12.5609 22.3418 12.5823 22.2663 12.621 22.1993L12.833 21.8817H12.1539C12.0462 21.8817 11.9428 21.8389 11.8667 21.7628C11.7905 21.6866 11.7477 21.5832 11.7477 21.4755C11.7477 21.3678 11.7905 21.2644 11.8667 21.1882C11.9428 21.112 12.0462 21.0692 12.1539 21.0692H13.5928C13.6663 21.0692 13.7385 21.0892 13.8016 21.127C13.8647 21.1648 13.9164 21.219 13.9511 21.2839C13.9858 21.3487 14.0022 21.4218 13.9986 21.4953C13.995 21.5688 13.9715 21.6399 13.9306 21.701L13.5815 22.2237C13.8022 22.332 13.9883 22.4997 14.1188 22.708C14.2494 22.9162 14.3192 23.1568 14.3205 23.4026C14.3169 23.7564 14.1732 24.0943 13.9209 24.3423C13.6685 24.5903 13.3281 24.7281 12.9743 24.7255Z" fill="#313339" fill-opacity="0.5"/>
<path d="M7.71824 25.1322C7.26705 25.1333 6.82208 25.027 6.42008 24.8221C6.01809 24.6172 5.67061 24.3197 5.40635 23.9539C5.1421 23.5882 4.96866 23.1649 4.90036 22.7189C4.83206 22.2729 4.87086 21.8171 5.01356 21.389C5.15625 20.961 5.39875 20.5731 5.72101 20.2573C6.04327 19.9415 6.43605 19.7069 6.86689 19.5729C7.29773 19.439 7.75426 19.4094 8.19878 19.4868C8.64329 19.5641 9.06302 19.7461 9.4233 20.0177C9.58684 19.8003 9.76965 19.598 9.9695 19.4133C9.44875 19.0046 8.82681 18.745 8.17004 18.6621C7.51327 18.5793 6.84633 18.6763 6.24041 18.9429C5.63448 19.2095 5.11231 19.6356 4.72963 20.1757C4.34695 20.7159 4.11812 21.3498 4.06756 22.0099C4.01701 22.6699 4.14662 23.3313 4.44258 23.9234C4.73854 24.5155 5.18972 25.0162 5.74798 25.3719C6.30624 25.7277 6.95062 25.9252 7.61235 25.9433C8.27407 25.9614 8.9283 25.7996 9.50521 25.4749C9.33562 25.2627 9.18573 25.0354 9.05741 24.7959C8.64566 25.017 8.18556 25.1325 7.71824 25.1322Z" fill="#313339" fill-opacity="0.5"/>
<path d="M7.10858 16.8119C7.10859 16.5965 7.1942 16.3898 7.34657 16.2374C7.49894 16.0851 7.7056 15.9995 7.92108 15.9994H9.13983C9.35532 15.9995 9.56197 16.0851 9.71434 16.2374C9.86671 16.3898 9.95232 16.5965 9.95233 16.8119V18.0307C9.95176 18.1506 9.92438 18.2689 9.87222 18.3769C10.082 18.4934 10.2823 18.6262 10.4713 18.7742C10.5241 18.8166 10.5714 18.8656 10.612 18.9198C10.946 18.7082 11.3067 18.5419 11.6845 18.4253C11.6156 18.3051 11.579 18.1692 11.5781 18.0307V16.8119C11.5781 16.5965 11.6637 16.3898 11.8161 16.2374C11.9685 16.0851 12.1751 15.9995 12.3906 15.9994H13.6094C13.8249 15.9995 14.0315 16.0851 14.1839 16.2374C14.3363 16.3898 14.4219 16.5965 14.4219 16.8119V18.0307C14.421 18.1692 14.3844 18.3052 14.3155 18.4253C14.6941 18.5422 15.0554 18.7089 15.39 18.9212C15.4304 18.8673 15.4775 18.8187 15.5299 18.7766C15.7186 18.6286 15.9186 18.4957 16.1282 18.3791C16.0753 18.2705 16.0475 18.1515 16.0469 18.0307V16.8119C16.0469 16.5965 16.1325 16.3898 16.2849 16.2374C16.4372 16.0851 16.6439 15.9995 16.8594 15.9994H18.0781C18.2936 15.9995 18.5003 16.0851 18.6526 16.2374C18.805 16.3898 18.8906 16.5965 18.8906 16.8119V17.8637C19.6254 17.9632 20.3237 18.2447 20.9219 18.6828V1.56924C20.9215 1.24611 20.7929 0.936334 20.5644 0.707856C20.3359 0.479378 20.0262 0.35086 19.703 0.350494L6.29698 0.350494C5.97384 0.350825 5.66403 0.479332 5.43552 0.707817C5.20702 0.936302 5.07848 1.2461 5.07812 1.56924V18.6858C5.67587 18.247 6.37386 17.9646 7.10858 17.8644V16.8119ZM9.95233 13.5576C9.95232 13.7731 9.86671 13.9797 9.71434 14.1321C9.56197 14.2845 9.35532 14.3701 9.13983 14.3701H7.92108C7.7056 14.3701 7.49894 14.2845 7.34657 14.1321C7.1942 13.9797 7.10859 13.7731 7.10858 13.5576V12.3388C7.10859 12.1233 7.1942 11.9167 7.34657 11.7643C7.49894 11.612 7.7056 11.5263 7.92108 11.5263H9.13983C9.35532 11.5263 9.56197 11.612 9.71434 11.7643C9.86671 11.9167 9.95232 12.1233 9.95233 12.3388V13.5576ZM9.95233 9.08447C9.95232 9.29996 9.86671 9.50661 9.71434 9.65898C9.56197 9.81135 9.35532 9.89696 9.13983 9.89697H7.92108C7.7056 9.89696 7.49894 9.81135 7.34657 9.65898C7.1942 9.50661 7.10859 9.29996 7.10858 9.08447V7.86572C7.10859 7.65024 7.1942 7.44358 7.34657 7.29121C7.49894 7.13884 7.7056 7.05323 7.92108 7.05322H9.13983C9.35532 7.05323 9.56197 7.13884 9.71434 7.29121C9.86671 7.44358 9.95232 7.65024 9.95233 7.86572V9.08447ZM14.4219 13.5576C14.4219 13.7731 14.3363 13.9797 14.1839 14.1321C14.0315 14.2845 13.8249 14.3701 13.6094 14.3701H12.3906C12.1751 14.3701 11.9685 14.2845 11.8161 14.1321C11.6637 13.9797 11.5781 13.7731 11.5781 13.5576V12.3388C11.5781 12.1233 11.6637 11.9167 11.8161 11.7643C11.9685 11.6119 12.1751 11.5263 12.3906 11.5263H13.6094C13.8249 11.5263 14.0315 11.6119 14.1839 11.7643C14.3363 11.9167 14.4219 12.1233 14.4219 12.3388V13.5576ZM14.4219 9.08446C14.4219 9.29995 14.3363 9.50661 14.1839 9.65898C14.0315 9.81135 13.8249 9.89695 13.6094 9.89696H12.3906C12.1751 9.89695 11.9685 9.81135 11.8161 9.65898C11.6637 9.50661 11.5781 9.29995 11.5781 9.08446V7.86571C11.5781 7.65023 11.6637 7.44357 11.8161 7.2912C11.9685 7.13883 12.1751 7.05323 12.3906 7.05321H13.6094C13.8249 7.05323 14.0315 7.13883 14.1839 7.2912C14.3363 7.44357 14.4219 7.65023 14.4219 7.86571V9.08446ZM18.8906 13.5576C18.8906 13.7731 18.805 13.9797 18.6526 14.1321C18.5003 14.2845 18.2936 14.3701 18.0781 14.3701H16.8594C16.6439 14.3701 16.4372 14.2845 16.2849 14.1321C16.1325 13.9797 16.0469 13.7731 16.0469 13.5576V12.3388C16.0469 12.1233 16.1325 11.9167 16.2849 11.7643C16.4372 11.6119 16.6439 11.5263 16.8594 11.5263H18.0781C18.2936 11.5263 18.5003 11.6119 18.6526 11.7643C18.805 11.9167 18.8906 12.1233 18.8906 12.3388V13.5576ZM18.8906 9.08446C18.8906 9.29995 18.805 9.50661 18.6526 9.65898C18.5003 9.81135 18.2936 9.89695 18.0781 9.89696H16.8594C16.6439 9.89695 16.4372 9.81135 16.2849 9.65898C16.1325 9.50661 16.0469 9.29995 16.0469 9.08446V7.86571C16.0469 7.65023 16.1325 7.44357 16.2849 7.2912C16.4372 7.13883 16.6439 7.05323 16.8594 7.05321H18.0781C18.2936 7.05323 18.5003 7.13883 18.6526 7.2912C18.805 7.44357 18.8906 7.65023 18.8906 7.86571V9.08446ZM5.89072 1.56924C5.89083 1.46153 5.93367 1.35826 6.00983 1.2821C6.08599 1.20594 6.18926 1.1631 6.29697 1.16299H19.703C19.8107 1.1631 19.914 1.20594 19.9902 1.2821C20.0663 1.35826 20.1092 1.46153 20.1093 1.56924V5.02237H5.89072V1.56924Z" fill="#313339" fill-opacity="0.5"/>
</g>
<defs>
<clipPath id="clip0_12124_7913">
<rect width="26" height="26" fill="white" transform="translate(0 0.350494)"/>
</clipPath>
</defs>
</svg>
