<svg width="52" height="52" viewBox="0 0 52 52" fill="none" xmlns="http://www.w3.org/2000/svg">
<path d="M9.74992 21.6666C12.7415 21.6666 15.1666 19.2415 15.1666 16.25C15.1666 13.2584 12.7415 10.8333 9.74992 10.8333C6.75838 10.8333 4.33325 13.2584 4.33325 16.25C4.33325 19.2415 6.75838 21.6666 9.74992 21.6666Z" fill="#1758A6"/>
<path d="M17.16 24.986C15.4267 23.9633 12.7378 22.75 9.75 22.75C6.76217 22.75 4.07117 23.9655 2.34 24.986C0.897 25.8375 0 27.4907 0 29.2998V32.5H19.5V29.2998C19.5 27.4907 18.603 25.8375 17.16 24.986Z" fill="#1758A6"/>
<path opacity="0.1" d="M0 31.9583H19.5V32.5H0V31.9583Z" fill="#010101"/>
<path d="M42.2499 21.6666C45.2415 21.6666 47.6666 19.2415 47.6666 16.25C47.6666 13.2584 45.2415 10.8333 42.2499 10.8333C39.2584 10.8333 36.8333 13.2584 36.8333 16.25C36.8333 19.2415 39.2584 21.6666 42.2499 21.6666Z" fill="#1758A6"/>
<path d="M49.66 24.986C47.9288 23.9655 45.2378 22.75 42.25 22.75C39.2622 22.75 36.5712 23.9655 34.84 24.986C33.397 25.8375 32.5 27.4907 32.5 29.2998V32.5H52V29.2998C52 27.4907 51.103 25.8375 49.66 24.986Z" fill="#1758A6"/>
<path opacity="0.1" d="M32.5 31.9583H52V32.5H32.5V31.9583Z" fill="#010101"/>
<path opacity="0.2" d="M42.25 11.375C44.551 11.375 46.5378 12.7031 47.4327 14.6726C46.7697 12.4323 44.7027 10.8333 42.25 10.8333C39.7973 10.8333 37.726 12.4453 37.063 14.6878C37.5175 13.6954 38.2486 12.855 39.1686 12.2674C40.0885 11.6799 41.1584 11.37 42.25 11.375Z" fill="white"/>
<path opacity="0.1" d="M42.25 21.125C41.1582 21.1298 40.0881 20.8196 39.1681 20.2316C38.2481 19.6437 37.5172 18.8029 37.063 17.81C37.726 20.0547 39.7952 21.6667 42.25 21.6667C44.7048 21.6667 46.7718 20.059 47.4348 17.8187C46.9801 18.8101 46.2492 19.6493 45.3295 20.2357C44.4099 20.8222 43.3407 21.1309 42.25 21.125Z" fill="#010101"/>
<path opacity="0.2" d="M49.66 24.986C47.9288 23.9655 45.2378 22.75 42.25 22.75C39.2622 22.75 36.5712 23.9655 34.84 24.986C33.397 25.8375 32.5 27.4907 32.5 29.2998V29.8415C32.5 28.0323 33.397 26.3792 34.84 25.5277C36.5712 24.5072 39.2622 23.2917 42.25 23.2917C45.2378 23.2917 47.9288 24.5072 49.66 25.5277C51.103 26.3792 52 28.0323 52 29.8415V29.2998C52 27.4907 51.103 25.8375 49.66 24.986Z" fill="white"/>
<path d="M26.0001 26C30.1882 26 33.5834 22.6048 33.5834 18.4166C33.5834 14.2285 30.1882 10.8333 26.0001 10.8333C21.8119 10.8333 18.4167 14.2285 18.4167 18.4166C18.4167 22.6048 21.8119 26 26.0001 26Z" fill="#E6B830"/>
<path d="M37.6458 31.2672C34.9179 29.8524 30.6843 28.1667 25.9999 28.1667C21.3156 28.1667 17.0819 29.8524 14.3541 31.2672C13.2911 31.8156 12.4 32.6467 11.7788 33.6688C11.1576 34.691 10.8305 35.8647 10.8333 37.0609V41.1667H41.1666V37.0609C41.1666 34.6125 39.8168 32.3939 37.6458 31.2672Z" fill="#E6B830"/>
<path opacity="0.2" d="M9.74999 11.375C12.051 11.375 14.0378 12.7031 14.9327 14.6726C14.2697 12.4323 12.2027 10.8333 9.74999 10.8333C7.29732 10.8333 5.22599 12.4453 4.56299 14.6878C5.01753 13.6954 5.74858 12.855 6.66856 12.2674C7.58853 11.6799 8.6584 11.37 9.74999 11.375Z" fill="white"/>
<path opacity="0.1" d="M9.74999 21.125C8.65817 21.1298 7.58812 20.8196 6.66813 20.2316C5.74813 19.6437 5.01721 18.8029 4.56299 17.81C5.22599 20.0547 7.29516 21.6667 9.74999 21.6667C12.2048 21.6667 14.2718 20.059 14.9348 17.8187C14.4801 18.8101 13.7492 19.6493 12.8295 20.2357C11.9099 20.8222 10.8407 21.1309 9.74999 21.125Z" fill="#010101"/>
<path opacity="0.2" d="M17.16 24.986C15.4267 23.9633 12.7378 22.75 9.75 22.75C6.76217 22.75 4.07117 23.9655 2.34 24.986C0.897 25.8375 0 27.4906 0 29.2998V29.8415C0 28.0323 0.897 26.3791 2.34 25.5276C4.07117 24.5071 6.76217 23.2916 9.75 23.2916C12.7378 23.2916 15.4288 24.5071 17.16 25.5276C18.603 26.3791 19.5 28.0323 19.5 29.8415V29.2998C19.5 27.4906 18.603 25.8375 17.16 24.986ZM26 11.375C29.1958 11.375 31.941 13.3011 33.1673 16.0485C32.1663 13.0303 29.3497 10.8333 26 10.8333C22.6503 10.8333 19.8337 13.0303 18.8327 16.0485C19.4479 14.6601 20.4523 13.4798 21.7243 12.6504C22.9963 11.821 24.4814 11.378 26 11.375Z" fill="white"/>
<path opacity="0.1" d="M26.0001 25.4583C24.4815 25.4554 22.9964 25.0124 21.7244 24.1829C20.4524 23.3535 19.448 22.1732 18.8328 20.7849C19.8338 23.803 22.6504 26 26.0001 26C29.3498 26 32.1664 23.803 33.1674 20.7849C32.5522 22.1732 31.5478 23.3535 30.2758 24.1829C29.0038 25.0124 27.5186 25.4554 26.0001 25.4583Z" fill="#010101"/>
<path opacity="0.2" d="M37.6458 31.2672C34.9179 29.8524 30.6843 28.1667 25.9999 28.1667C21.3156 28.1667 17.0819 29.8524 14.3541 31.2672C13.2911 31.8156 12.4 32.6466 11.7788 33.6688C11.1576 34.691 10.8305 35.8647 10.8333 37.0609V37.6025C10.8333 35.1542 12.1831 32.9355 14.3541 31.8089C17.0819 30.394 21.3156 28.7084 25.9999 28.7084C30.6843 28.7084 34.9179 30.394 37.6458 31.8089C38.7088 32.3573 39.5999 33.1883 40.221 34.2105C40.8422 35.2327 41.1694 36.4064 41.1666 37.6025V37.0609C41.1666 34.6125 39.8168 32.3939 37.6458 31.2672Z" fill="white"/>
<path opacity="0.1" d="M10.8333 40.625H41.1666V41.1667H10.8333V40.625Z" fill="#010101"/>
</svg>
