<?xml version="1.0" encoding="utf-8"?>
<svg xmlns="http://www.w3.org/2000/svg"
	xmlns:xlink="http://www.w3.org/1999/xlink">
	<symbol fill="currentColor" viewBox="0 0 24 24" id="facebook">
		<path d="M22.5 0H1.5C1.10218 0 0.720645 0.158035 0.43934 0.43934C0.158035 0.720645 0 1.10218 0 1.5V22.5C0 22.8978 0.158035 23.2794 0.43934 23.5607C0.720645 23.842 1.10218 24 1.5 24H12.54C12.5959 24 12.6495 23.9778 12.689 23.9383C12.7285 23.8988 12.7507 23.8452 12.7507 23.7893V15H9.96C9.93222 15.0002 9.90469 14.9949 9.87897 14.9843C9.85326 14.9738 9.82988 14.9584 9.81017 14.9388C9.79047 14.9192 9.77483 14.8959 9.76416 14.8703C9.75349 14.8446 9.748 14.8171 9.748 14.7893V11.4613C9.74782 11.4334 9.75319 11.4058 9.76378 11.38C9.77437 11.3542 9.78998 11.3308 9.8097 11.311C9.82942 11.2913 9.85286 11.2757 9.87866 11.2651C9.90446 11.2545 9.93211 11.2492 9.96 11.2493H12.748V9C12.748 5.91067 14.492 3.75067 17.2493 3.75067H20.0373C20.0651 3.75049 20.0926 3.75581 20.1184 3.76632C20.1441 3.77683 20.1675 3.79232 20.1872 3.8119C20.2069 3.83148 20.2225 3.85476 20.2332 3.88041C20.2438 3.90605 20.2493 3.93356 20.2493 3.96133V7.28933C20.2493 7.31711 20.2438 7.34461 20.2332 7.37026C20.2225 7.39591 20.2069 7.41919 20.1872 7.43877C20.1675 7.45835 20.1441 7.47384 20.1184 7.48435C20.0926 7.49486 20.0651 7.50018 20.0373 7.5H18.7493C18.4538 7.5 18.1611 7.55822 17.888 7.67132C17.615 7.78443 17.3669 7.95021 17.1579 8.15921C16.9489 8.3682 16.7831 8.61631 16.67 8.88937C16.5569 9.16244 16.4987 9.4551 16.4987 9.75067V11.2493H19.992C20.0233 11.2495 20.0541 11.2566 20.0823 11.2702C20.1104 11.2838 20.1351 11.3036 20.1547 11.328C20.1743 11.3521 20.1884 11.3803 20.196 11.4105C20.2036 11.4406 20.2045 11.4721 20.1987 11.5027L19.532 14.8307C19.5224 14.8784 19.4966 14.9214 19.4589 14.9523C19.4213 14.9832 19.374 15 19.3253 15H16.4987V23.7893C16.4987 23.8452 16.5209 23.8988 16.5604 23.9383C16.5999 23.9778 16.6535 24 16.7093 24H22.4987C22.6958 24.0002 22.891 23.9615 23.0731 23.8862C23.2552 23.8109 23.4208 23.7004 23.5602 23.5611C23.6996 23.4218 23.8102 23.2564 23.8857 23.0743C23.9612 22.8923 24 22.6971 24 22.5V1.5C24 1.10218 23.842 0.720645 23.5607 0.43934C23.2794 0.158035 22.8978 0 22.5 0Z"/>
	</symbol>
	<symbol fill="currentColor" viewBox="0 0 26 26" id="twitter">
		<path d="M8.73626 5.63201L19.7603 20.3696H17.2643L6.24026 5.63201H8.73626ZM25.2259 1.89601V24.1056C25.2259 24.7216 24.7219 25.2256 24.1059 25.2256H1.89466C1.27866 25.2256 0.774658 24.7216 0.774658 24.1056V1.89441C0.774658 1.27841 1.27866 0.774414 1.89466 0.774414H24.1059C24.7219 0.774414 25.2259 1.27841 25.2259 1.89441V1.89601ZM22.1299 21.5456L14.6835 11.5888L21.2867 4.45601H19.6899L13.9699 10.6352L9.34746 4.45601H3.91386L10.9651 13.8816L3.86906 21.5456H5.46586L11.6787 14.8352L16.6963 21.5456H22.1299Z"/>
	</symbol>
	<symbol fill="currentColor" viewBox="0 0 26 26" id="instagram">
		<path d="M16.1215 13.0527C16.1139 13.8725 15.7823 14.6557 15.1991 15.2317C14.6158 15.8075 13.8285 16.1293 13.0089 16.1266C11.277 16.1607 9.8668 14.7131 9.86658 12.9497C9.86639 11.2862 11.3271 9.85828 13.0154 9.87156C13.4287 9.87479 13.8373 9.95982 14.2175 10.1218C14.5979 10.2837 14.9423 10.5194 15.2311 10.8151C15.5199 11.1109 15.7473 11.4609 15.9001 11.8449C16.053 12.229 16.1282 12.6395 16.1215 13.0527ZM20.0114 9.61059C20.0269 11.8958 20.0287 14.1811 20.017 16.4666C20.0246 16.9307 19.9395 17.3917 19.7669 17.8226C19.5941 18.2534 19.3371 18.6455 19.011 18.9759C18.685 19.3062 18.2962 19.5682 17.8677 19.7466C17.4391 19.9249 16.9793 20.0159 16.515 20.0143C14.1665 20.0354 11.8177 20.0351 9.46865 20.0137C9.00704 20.0154 8.54974 19.925 8.12348 19.7478C7.69723 19.5706 7.31057 19.3102 6.98612 18.9818C6.66168 18.6534 6.40596 18.2637 6.23391 17.8354C6.06187 17.407 5.97695 16.9486 5.98412 16.4871C5.97412 14.1277 5.97385 11.7683 5.98332 9.40883C5.99909 8.52736 6.34909 7.68479 6.96252 7.05157C7.57595 6.41838 8.407 6.04181 9.28753 5.99809C10.5243 5.96117 11.763 5.99101 13.0009 5.99101V5.98312C14.1225 5.98312 15.2439 5.97949 16.3655 5.98399C18.0671 5.99076 19.2927 6.84963 19.839 8.45859C19.9567 8.83113 20.0149 9.21991 20.0114 9.61059ZM17.6511 13.075C17.6615 12.4583 17.549 11.8457 17.3202 11.273C17.0914 10.7002 16.7509 10.1788 16.3185 9.73902C15.8861 9.29926 15.3703 8.94999 14.8015 8.71157C14.2327 8.47316 13.6222 8.35039 13.0054 8.35039C10.4498 8.34808 8.34922 10.413 8.34716 12.9294C8.34499 15.5775 10.3795 17.6482 12.9886 17.6534C14.2119 17.6574 15.3874 17.179 16.2603 16.3219C17.1331 15.4647 17.6329 14.2981 17.6511 13.075ZM18.2731 8.42484C18.2766 8.29027 18.2401 8.15767 18.1681 8.04391C18.0961 7.93015 17.9919 7.84035 17.8687 7.78591C17.7457 7.73147 17.6091 7.71484 17.4765 7.73816C17.3439 7.76147 17.2213 7.82366 17.1241 7.91683C17.0269 8.00999 16.9595 8.12993 16.9307 8.26143C16.9018 8.39292 16.9127 8.53003 16.9619 8.65535C17.0111 8.78065 17.0965 8.88852 17.2071 8.96523C17.3177 9.04195 17.4486 9.08405 17.5833 9.08622C17.6727 9.09131 17.7623 9.07792 17.8465 9.04687C17.9306 9.0158 18.0074 8.96775 18.0722 8.90569C18.1369 8.84364 18.1881 8.76892 18.2227 8.6862C18.2573 8.60347 18.2745 8.51449 18.2731 8.42484ZM25.2254 1.89441V24.1054C25.2246 24.4022 25.1063 24.6866 24.8965 24.8965C24.6866 25.1063 24.4022 25.2246 24.1054 25.2254H1.89441C1.59764 25.2246 1.31327 25.1063 1.10341 24.8965C0.893561 24.6866 0.775281 24.4022 0.774414 24.1054V1.89441C0.775281 1.59764 0.893561 1.31327 1.10341 1.10341C1.31327 0.893561 1.59764 0.775281 1.89441 0.774414H24.1054C24.4022 0.775281 24.6866 0.893561 24.8965 1.10341C25.1063 1.31327 25.2246 1.59764 25.2254 1.89441ZM21.5574 16.4654C21.5607 14.1906 21.5603 11.9158 21.5562 9.64101C21.5657 8.95263 21.4407 8.26903 21.1887 7.62839C20.8127 6.685 20.1614 5.87671 19.3195 5.3088C18.4777 4.74091 17.4842 4.43975 16.4687 4.44455C15.3154 4.44199 14.1622 4.44409 13.0089 4.44405C11.9191 4.44405 10.8289 4.42379 9.73979 4.45269C9.20244 4.46279 8.66749 4.52727 8.14315 4.64517C6.09703 5.12513 4.44655 7.23053 4.44284 9.33035C4.43867 11.7215 4.44019 14.1127 4.44739 16.5038C4.44396 16.8637 4.48013 17.2226 4.55528 17.5745C4.80555 18.7149 5.44153 19.7339 6.35592 20.4599C7.27031 21.1858 8.40712 21.5742 9.57453 21.5593C11.8599 21.5611 14.1454 21.5691 16.4306 21.5515C16.8835 21.5465 17.3342 21.4859 17.7725 21.3711C18.8614 21.095 19.8262 20.4615 20.5123 19.5721C21.1986 18.6826 21.5666 17.5887 21.5574 16.4654Z"/>
	</symbol>
	<symbol fill="currentColor" viewBox="0 0 26 26" id="youtube">
		<path d="M11.2161 10.1225L15.8884 12.9997L11.2161 15.8767V10.1225ZM25.2422 1.89441V24.1054C25.2414 24.4022 25.1232 24.6866 24.9133 24.8965C24.7034 25.1063 24.419 25.2246 24.1222 25.2254H1.91126C1.61449 25.2246 1.33011 25.1063 1.12026 24.8965C0.910407 24.6866 0.792126 24.4022 0.79126 24.1054V1.89441C0.792126 1.59764 0.910407 1.31327 1.12026 1.10341C1.33011 0.893561 1.61449 0.775281 1.91126 0.774414H24.1222C24.419 0.775281 24.7034 0.893561 24.9133 1.10341C25.1232 1.31327 25.2414 1.59764 25.2422 1.89441ZM22.3797 12.9997C22.3797 12.9997 22.3678 9.99176 21.9754 8.54134C21.8684 8.14684 21.6592 7.78752 21.369 7.49952C21.079 7.21151 20.7182 7.00497 20.3229 6.90067C18.8606 6.52021 13.0113 6.52021 13.0113 6.52021C13.0113 6.52021 7.26893 6.49644 5.80661 6.87688C4.99815 7.09088 4.22538 7.74477 4.01138 8.54134C3.61905 9.99176 3.65471 12.9997 3.65471 12.9997C3.65471 12.9997 3.61905 16.0075 4.01138 17.4579C4.22538 18.2546 5.01005 18.9085 5.80661 19.1225C7.26893 19.5147 13.0113 19.4791 13.0113 19.4791C13.0113 19.4791 18.7536 19.5029 20.216 19.1225C21.0244 18.9085 21.7733 18.2546 21.9873 17.4579C22.3797 16.0194 22.3797 12.9997 22.3797 12.9997Z"/>
	</symbol>
	<symbol fill="currentColor" viewBox="0 0 25 25" id="tiktok">
		<path d="M23.3332 0H1.12009C0.50404 0 0 0.50404 0 1.12009V23.3332C0 23.9493 0.50404 24.4533 1.12009 24.4533H23.3332C23.9493 24.4533 24.4533 23.9493 24.4533 23.3332V1.12009C24.4533 0.50404 23.9493 0 23.3332 0ZM15.2461 4.514C15.5053 6.70139 16.7247 8.01029 18.8448 8.15111V10.6121C17.6112 10.7305 16.5311 10.3305 15.2749 9.5704V14.1756C15.2749 20.0289 8.89677 21.8627 6.33175 17.664C4.68361 14.9661 5.68849 10.2281 10.9801 10.0361V12.6379C10.5817 12.7051 10.1449 12.8075 9.7528 12.9339C8.57835 13.3324 7.91269 14.0796 8.09671 15.3885C8.45193 17.9088 13.078 18.648 12.6859 13.726V4.50599H15.2365L15.2445 4.514H15.2461Z"/>
	</symbol>
	<symbol fill="currentColor" viewBox="0 0 26 26" id="linkedin">
		<path d="M24.1222 0.774414H1.91126C1.61449 0.775281 1.33011 0.893561 1.12026 1.10341C0.910407 1.31327 0.792126 1.59764 0.79126 1.89441V24.1054C0.792126 24.4022 0.910407 24.6866 1.12026 24.8965C1.33011 25.1063 1.61449 25.2246 1.91126 25.2254H24.1222C24.419 25.2246 24.7034 25.1063 24.9133 24.8965C25.1232 24.6866 25.2414 24.4022 25.2422 24.1054V1.89441C25.2414 1.59764 25.1232 1.31327 24.9133 1.10341C24.7034 0.893561 24.419 0.775281 24.1222 0.774414ZM8.34685 21.0251H4.79473V10.3374H8.34685V21.0251ZM6.57143 8.87812H6.54798C5.3555 8.87812 4.58487 8.05739 4.58487 7.0316C4.58487 5.98311 5.37907 5.18512 6.5947 5.18512C7.80931 5.18512 8.55802 5.98311 8.58095 7.0316C8.58095 8.05739 7.80931 8.87812 6.57143 8.87812ZM21.1562 21.0251H17.6042V15.3073C17.6042 13.8707 17.0904 12.8903 15.8048 12.8903C14.8237 12.8903 14.2388 13.5511 13.9826 14.1897C13.8914 14.4693 13.8517 14.763 13.8654 15.0567V21.0251H10.3127C10.3127 21.0251 10.3598 11.3402 10.3127 10.3374H13.8654V11.8503C14.3373 11.1221 15.1816 10.0865 17.0666 10.0865C19.4041 10.0865 21.1562 11.6139 21.1562 14.8967V21.0251Z"/>
	</symbol>
	<symbol fill="currentColor" viewBox="0 0 16 16" id="chip">
		<path d="M3.68286 4.15542L2.54502 3.01757C1.37665 4.29191 0.69372 5.9366 0.615786 7.66372H2.22594C2.30103 6.36322 2.8146 5.12653 3.68286 4.15542ZM2.22563 8.33603H0.615479C0.69234 10.0637 1.37527 11.7091 2.5444 12.9834L3.68194 11.8459C2.81295 10.8747 2.29948 9.63716 2.22563 8.33603ZM7.66686 2.22588V0.615723C5.94007 0.693056 4.29545 1.37509 3.02071 2.54249L4.15825 3.68003C5.12984 2.81273 6.3666 2.30015 7.66686 2.22588ZM3.01979 13.4585C4.29498 14.6257 5.93988 15.3075 7.66686 15.3846V13.7742C6.36651 13.7 5.1296 13.1876 4.15763 12.3206L3.01979 13.4585ZM12.9835 2.54403C11.7099 1.37581 10.0657 0.693154 8.33917 0.615723V2.22588C9.63908 2.3004 10.8753 2.8137 11.8456 3.68188L12.9835 2.54403ZM13.7739 7.66403H15.3847C15.3069 5.93801 14.6252 4.29418 13.4586 3.01972L12.3207 4.15757C13.187 5.12885 13.6992 6.36468 13.7739 7.66403ZM13.7739 8.33603C13.7005 9.63586 13.1885 10.8724 12.3216 11.8437L13.4595 12.9816C14.6266 11.7071 15.3082 10.0625 15.3847 8.33603H13.7739ZM8.33948 13.7742V15.3843C10.0661 15.307 11.7104 14.6246 12.9844 13.4566L11.8462 12.3188C10.8755 13.1867 9.63948 13.6997 8.33948 13.7742ZM11.6186 11.6154C11.6216 11.6154 11.6216 11.6154 11.6253 11.6123C12.1006 11.1372 12.4771 10.5727 12.7332 9.95145C12.9893 9.33017 13.12 8.66434 13.1176 7.99234C13.1176 6.62495 12.5693 5.34003 11.6186 4.38249C10.666 3.42521 9.37268 2.88487 8.02225 2.88003C8.01548 2.88311 8.00871 2.8868 8.00194 2.8868C7.99517 2.8868 7.99179 2.88341 7.98502 2.88003C6.63761 2.88501 5.34654 3.42125 4.39209 4.37234C4.39209 4.37572 4.38902 4.37911 4.38532 4.38249L4.37548 4.39265C3.46102 5.31018 2.88963 6.57388 2.88317 7.96865C2.88317 7.98218 2.88963 7.98895 2.88963 7.99911C2.88963 8.00895 2.88317 8.01911 2.88317 8.02926C2.88849 9.37106 3.42363 10.6564 4.37209 11.6056C4.37517 11.6086 4.38194 11.612 4.38532 11.6154C4.39209 11.6188 4.39209 11.6256 4.39548 11.6323C5.35057 12.5796 6.63988 13.1131 7.98502 13.1179C7.99179 13.1179 7.99517 13.1148 8.00194 13.1148C8.00871 13.1148 8.01548 13.1179 8.02225 13.1179C9.37048 13.114 10.6623 12.5763 11.6152 11.6225C11.6182 11.6188 11.6186 11.6188 11.6186 11.6154ZM5.38625 5.38465C5.44973 5.32149 5.53563 5.28604 5.62517 5.28604C5.71471 5.28604 5.80061 5.32149 5.86409 5.38465C5.92708 5.44815 5.96242 5.53397 5.96242 5.62341C5.96242 5.71286 5.92708 5.79868 5.86409 5.86218C5.80061 5.92534 5.71471 5.96079 5.62517 5.96079C5.53563 5.96079 5.44973 5.92534 5.38625 5.86218C5.32317 5.79867 5.28777 5.71278 5.28777 5.62326C5.28777 5.53374 5.32317 5.44817 5.38625 5.38465ZM5.86409 10.6145C5.80061 10.6776 5.71471 10.7131 5.62517 10.7131C5.53563 10.7131 5.44973 10.6776 5.38625 10.6145C5.32326 10.551 5.28792 10.4652 5.28792 10.3757C5.28792 10.2863 5.32326 10.2005 5.38625 10.137C5.44973 10.0738 5.53563 10.0384 5.62517 10.0384C5.71471 10.0384 5.80061 10.0738 5.86409 10.137C5.92708 10.2005 5.96242 10.2863 5.96242 10.3757C5.96242 10.4652 5.92708 10.551 5.86409 10.6145ZM8.00194 10.6914L5.30963 7.99911L8.00194 5.3068L10.6942 7.99911L8.00194 10.6914ZM10.6164 10.6145C10.5529 10.6776 10.4671 10.7129 10.3776 10.7129C10.2882 10.7129 10.2023 10.6776 10.1389 10.6145C10.0759 10.551 10.0405 10.4652 10.0405 10.3757C10.0405 10.2863 10.0759 10.2005 10.1389 10.137C10.2023 10.0738 10.2881 10.0384 10.3776 10.0384C10.4671 10.0384 10.553 10.0738 10.6164 10.137C10.6794 10.2005 10.7147 10.2863 10.7147 10.3757C10.7147 10.4652 10.6794 10.551 10.6164 10.6145ZM10.6164 5.86218C10.5529 5.92524 10.4671 5.96063 10.3776 5.96063C10.2882 5.96063 10.2023 5.92524 10.1389 5.86218C10.0758 5.79867 10.0404 5.71278 10.0404 5.62326C10.0404 5.53374 10.0758 5.44786 10.1389 5.38434C10.2023 5.32121 10.2881 5.28576 10.3776 5.28576C10.4671 5.28576 10.553 5.32121 10.6164 5.38434C10.6795 5.44786 10.7149 5.53374 10.7149 5.62326C10.7149 5.71278 10.6795 5.79867 10.6164 5.86218Z"/>
	</symbol>
	<symbol fill="currentColor" viewBox="0 0 14 16" id="c-sports">
		<path d="M0.597745 12.3124L5.9781 15.7918C6.19309 15.9328 6.44154 16 6.69015 16C6.93187 16 7.18048 15.9328 7.39547 15.7918L12.7758 12.3124C13.1519 12.0705 13.3736 11.6608 13.3736 11.2107V1.30983C13.3736 0.591103 12.7893 0 12.0638 0H1.30979C0.591021 0 0 0.591103 0 1.30983V11.2107C0 11.6608 0.221551 12.0705 0.597745 12.3124ZM3.60106 4.17983C4.17569 4.85973 4.54401 5.68288 4.66897 6.56888H2.39524C2.53545 5.66193 2.95248 4.82956 3.60106 4.17983ZM4.66913 7.91229C4.5445 8.79812 4.17651 9.62119 3.60238 10.3011C2.9533 9.64833 2.53611 8.81595 2.39557 7.91229H4.66913ZM6.69015 11.5869C5.98253 11.5869 5.30492 11.4169 4.69111 11.0982C5.43447 10.1907 5.89857 9.09064 6.02681 7.91229H7.47976C7.6021 9.05989 8.03782 10.1466 8.7297 11.0599C8.10391 11.3953 7.40777 11.5869 6.69015 11.5869ZM9.80646 4.22377C10.4324 4.86895 10.8386 5.68681 10.9775 6.56888H8.83793C8.95403 5.71436 9.28693 4.90679 9.80646 4.22377ZM10.9777 7.91229C10.8389 8.79439 10.4329 9.61241 9.80695 10.2578C9.2871 9.5747 8.95403 8.76709 8.83793 7.91229H10.9777ZM8.72904 3.42182C8.03766 4.33517 7.6021 5.42168 7.47976 6.56888H6.02681C5.89824 5.39081 5.43415 4.29109 4.69094 3.3839C5.30476 3.0651 5.98237 2.89504 6.69015 2.89504C7.40761 2.89504 8.10358 3.08663 8.72904 3.42182Z"/>
	</symbol>
	<symbol fill="currentColor" viewBox="0 0 17 11" id="e-sports">
		<path d="M15.4405 1.93691C13.254 -1.65425 9.95985 0.84851 9.95985 0.84851C9.74576 1.01011 9.62836 1.14271 9.3604 1.14271H8.47919C8.21123 1.14271 8.09383 1.00459 7.88112 0.84851C7.88112 0.84851 4.58692 -1.65149 2.40046 1.94105C0.213994 5.53359 1.09521 9.44381 1.09521 9.44381C1.24991 10.401 1.75819 11.0405 2.71814 10.9632C3.67808 10.8858 5.75405 8.38166 5.75405 8.38166C5.96282 8.1616 6.24809 8.03009 6.55101 8.01426H11.2872C11.5916 8.03142 11.8776 8.16552 12.0855 8.38857C12.0855 8.38857 14.1574 10.8872 15.1242 10.9673C16.0911 11.0474 16.5924 10.4148 16.7458 9.44796C16.7444 9.44381 17.6325 5.52807 15.4405 1.93691ZM7.20847 4.86647H6.07449V5.95901C5.89373 6.07996 5.68005 6.14218 5.46261 6.13718C5.36461 6.14202 5.26663 6.12729 5.17438 6.09385C5.08213 6.06042 4.99746 6.00894 4.92532 5.94243V4.86647H3.8535C3.74573 4.72223 3.68583 4.54786 3.68223 4.36785C3.66538 4.14066 3.71684 3.91362 3.83002 3.71591H4.96399V2.58194C5.14174 2.49852 5.33684 2.45874 5.53305 2.46591C5.73419 2.47248 5.93194 2.51945 6.11455 2.60403V3.71591H7.18499C7.29937 3.8711 7.36954 4.0544 7.38803 4.2463C7.37962 4.46457 7.31798 4.67747 7.20847 4.86647ZM11.8576 6.10956C11.6801 6.10956 11.5065 6.05691 11.3589 5.95825C11.2112 5.8596 11.0961 5.71939 11.0282 5.55534C10.9602 5.39129 10.9425 5.21077 10.9771 5.03662C11.0117 4.86247 11.0972 4.70249 11.2228 4.57694C11.3484 4.45138 11.5083 4.36587 11.6825 4.33123C11.8566 4.29659 12.0372 4.31437 12.2012 4.38232C12.3653 4.45027 12.5055 4.56534 12.6041 4.71298C12.7028 4.86062 12.7554 5.0342 12.7554 5.21177C12.756 5.32995 12.7331 5.44708 12.6883 5.5564C12.6434 5.66573 12.5773 5.7651 12.4939 5.8488C12.4104 5.93249 12.3113 5.99886 12.2021 6.04409C12.0929 6.08932 11.9758 6.11251 11.8576 6.11232V6.10956ZM11.8576 3.63995C11.6801 3.63995 11.5065 3.58729 11.3589 3.48864C11.2112 3.38999 11.0961 3.24978 11.0282 3.08573C10.9602 2.92168 10.9425 2.74116 10.9771 2.56701C11.0117 2.39285 11.0972 2.23288 11.2228 2.10732C11.3484 1.98176 11.5083 1.89626 11.6825 1.86162C11.8566 1.82698 12.0372 1.84475 12.2012 1.91271C12.3653 1.98066 12.5055 2.09573 12.6041 2.24337C12.7028 2.39101 12.7554 2.56459 12.7554 2.74216C12.7558 2.86022 12.7328 2.9772 12.6879 3.08636C12.6429 3.19553 12.5768 3.29474 12.4934 3.37829C12.4099 3.46184 12.3108 3.52809 12.2017 3.57323C12.0926 3.61837 11.9757 3.64151 11.8576 3.64133V3.63995ZM14.0924 4.96591C13.9149 4.96591 13.7413 4.91326 13.5937 4.81461C13.446 4.71596 13.3309 4.57574 13.263 4.41169C13.195 4.24764 13.1773 4.06713 13.2119 3.89297C13.2465 3.71882 13.3321 3.55885 13.4576 3.43329C13.5832 3.30773 13.7431 3.22223 13.9173 3.18758C14.0915 3.15294 14.272 3.17072 14.436 3.23867C14.6001 3.30662 14.7403 3.4217 14.8389 3.56934C14.9376 3.71698 14.9902 3.89056 14.9902 4.06812C14.9906 4.18607 14.9677 4.30294 14.9228 4.41201C14.8779 4.52109 14.8119 4.62023 14.7287 4.70377C14.6454 4.7873 14.5464 4.85357 14.4375 4.8988C14.3286 4.94402 14.2118 4.96729 14.0938 4.96729L14.0924 4.96591Z"/>
	</symbol>
	<symbol fill="currentColor" viewBox="0 0 14 16" id="bonuses">
		<path d="M11.6875 2.34645L11.7313 1.92571C11.7457 1.79502 11.7323 1.66278 11.692 1.53762C11.6518 1.41246 11.5856 1.29719 11.4978 1.19933C11.41 1.10147 11.3026 1.02322 11.1825 0.969691C11.0624 0.916162 10.9324 0.888555 10.801 0.888672H3.13281C2.86022 0.888672 2.60541 1.00126 2.42763 1.20275C2.24985 1.3983 2.16689 1.66497 2.19652 1.92571L2.24155 2.35415C1.65115 2.3738 1.09141 2.6218 0.680219 3.04593C0.269026 3.47006 0.0384712 4.0372 0.0371094 4.62793V4.77608C0.0371094 6.55978 1.28748 8.11415 2.98822 8.54319C3.53755 10.2475 5.10378 11.4546 6.96689 11.4546C8.91652 11.4546 10.4069 10.1639 10.9301 8.57815C12.6801 8.17756 13.963 6.59889 13.963 4.77608V4.62793C13.9626 4.02401 13.7229 3.44488 13.2964 3.01729C12.8699 2.5897 12.2914 2.34849 11.6875 2.34645ZM1.22229 4.77608V4.62793C1.22229 4.02349 1.71415 3.53163 2.31859 3.53163H2.35711L2.72452 7.20452C1.83029 6.75415 1.22229 5.81786 1.22229 4.77608ZM8.51355 5.17312L8.15207 5.52275C8.06318 5.61163 8.02763 5.73608 8.0454 5.86052L8.12837 6.35238C8.16985 6.58349 8.00392 6.77312 7.79652 6.79089C7.7254 6.80275 7.65429 6.79089 7.58318 6.74941L7.13874 6.5183C7.03207 6.45904 6.9017 6.45904 6.78911 6.5183L6.34466 6.74941C6.28258 6.78263 6.21238 6.79767 6.14214 6.79281C6.07189 6.78795 6.00443 6.76338 5.94751 6.72193C5.89059 6.68048 5.84651 6.62382 5.82033 6.55845C5.79414 6.49308 5.78692 6.42166 5.79948 6.35238L5.83503 6.15089L5.88244 5.86052C5.89376 5.79979 5.88994 5.73721 5.87134 5.6783C5.85274 5.61939 5.81992 5.56597 5.77578 5.52275L5.41429 5.17312C5.19503 4.95386 5.31355 4.58052 5.6217 4.53312L6.11948 4.46201C6.24392 4.44423 6.35059 4.36719 6.40392 4.2546L6.62318 3.80423C6.76541 3.51978 7.16837 3.51978 7.29874 3.80423L7.52392 4.2546C7.57726 4.36719 7.68392 4.44423 7.80837 4.46201L8.30615 4.53312C8.61429 4.58052 8.73874 4.95386 8.51355 5.17312ZM12.7778 4.77608C12.776 5.29388 12.6269 5.80048 12.348 6.23677C12.0691 6.67305 11.6719 7.02102 11.2027 7.24008L11.5725 3.53163H11.6816C12.286 3.53163 12.7778 4.02349 12.7778 4.62793V4.77608ZM11.0338 15.1109C11.191 15.1109 11.3417 15.0485 11.4529 14.9373C11.564 14.8262 11.6264 14.6755 11.6264 14.5183C11.6264 14.3611 11.564 14.2104 11.4529 14.0993C11.3417 13.9881 11.191 13.9257 11.0338 13.9257H9.71059C9.35681 13.3657 8.99889 12.9568 8.78615 12.3198C8.17696 12.523 7.67503 12.6398 6.96689 12.6398C6.35076 12.6408 5.73915 12.5345 5.15948 12.3257C5.15355 12.3257 5.15355 12.3257 5.14763 12.3198C5.04096 12.622 4.89874 12.9064 4.71503 13.179L4.21726 13.9257H2.89578C2.73861 13.9257 2.58788 13.9881 2.47675 14.0993C2.36562 14.2104 2.30318 14.3611 2.30318 14.5183C2.30318 14.6755 2.36562 14.8262 2.47675 14.9373C2.58788 15.0485 2.73861 15.1109 2.89578 15.1109H11.0338Z"/>
	</symbol>
	<symbol fill="currentColor" viewBox="0 0 16 16" id="expert">
		<path d="M15.215 12.5757C15.0882 11.7295 14.5159 10.991 13.7331 10.6406V9.01278C13.8675 8.93363 13.9723 8.81249 14.0311 8.66801C14.09 8.52352 14.0998 8.36369 14.059 8.21311C14.0182 8.06252 13.929 7.92951 13.8052 7.83455C13.6814 7.73958 13.5299 7.68792 13.3738 7.6875H12.0123C11.8563 7.68792 11.7047 7.73958 11.5809 7.83455C11.4572 7.92951 11.368 8.06252 11.3272 8.21311C11.2863 8.36369 11.2961 8.52352 11.355 8.66801C11.4139 8.81249 11.5186 8.93363 11.6531 9.01278V10.6372C11.203 10.8383 10.8207 11.1652 10.5523 11.5787C10.2839 11.9922 10.141 12.4746 10.1406 12.9675C10.1406 13.769 10.5074 14.5089 11.1519 15.0016C11.361 15.1529 11.6124 15.2345 11.8704 15.2347H13.5157C13.7805 15.2347 14.0365 15.1504 14.2366 14.9977C14.6026 14.7195 14.8867 14.3475 15.0589 13.9212C15.231 13.4949 15.2849 13.03 15.2147 12.5757H15.215ZM10.828 12.4144C10.9156 12.118 11.0725 11.8467 11.2858 11.6229C11.499 11.3991 11.7624 11.2293 12.0543 11.1275C12.1135 11.1069 12.1648 11.0683 12.2011 11.0172C12.2374 10.9661 12.2569 10.9049 12.2569 10.8422V8.80448C12.2568 8.73152 12.2303 8.66105 12.1823 8.60611C12.1343 8.55116 12.068 8.51546 11.9957 8.50561C11.9706 8.50169 11.9478 8.48884 11.9314 8.46942C11.9151 8.45001 11.9063 8.42534 11.9067 8.39995C11.9067 8.33897 11.9532 8.29127 12.0123 8.29127H13.3738C13.433 8.29127 13.4795 8.33897 13.4795 8.39995C13.4799 8.42534 13.4711 8.45001 13.4547 8.46942C13.4383 8.48884 13.4155 8.50169 13.3904 8.50561C13.3181 8.51546 13.2519 8.55116 13.2039 8.60611C13.1558 8.66105 13.1294 8.73152 13.1293 8.80448V10.8452C13.1293 10.908 13.1489 10.9692 13.1853 11.0204C13.2217 11.0715 13.2732 11.11 13.3325 11.1305C14.0087 11.3648 14.5132 11.967 14.6182 12.6659C14.6191 12.6726 14.6188 12.6792 14.6197 12.6861C13.1326 12.9826 11.8439 12.0178 10.828 12.4144Z"/>
		<path d="M10.9139 10.3621L10.5697 10.181L9.53424 9.34476C9.509 9.32021 9.47928 9.30073 9.44669 9.2874L9.09348 9.13948C8.93348 9.07306 8.77348 8.904 8.65575 8.68061C8.60644 8.58562 8.56601 8.48628 8.53499 8.38385C9.38813 7.69283 9.98103 6.47834 9.98103 5.15457V5.13948C10.8142 3.75382 10.6603 3.01721 10.4822 2.70023C10.3795 2.51306 10.2256 2.38023 10.0474 2.31382C9.90556 1.5591 9.2233 0.765137 6.9833 0.765137H6.98028C4.73726 0.765137 4.05499 1.5591 3.91311 2.31382C3.73197 2.38023 3.57801 2.51608 3.47537 2.70023C3.29726 3.02023 3.14028 3.75683 3.97952 5.14853V5.15457C3.97952 6.47714 4.57273 7.69072 5.42435 8.38204C5.33077 8.69691 5.12458 9.032 4.86103 9.13948L4.51084 9.2874C4.48367 9.29948 4.45952 9.31457 4.43537 9.3357L3.38179 10.187L2.19537 10.8119C1.75767 11.07 1.39472 11.4376 1.14222 11.8785C0.889732 12.3195 0.756407 12.8185 0.755371 13.3266V14.9327C0.755371 15.0987 0.89122 15.2346 1.05726 15.2346H10.5033C9.88141 14.6368 9.53726 13.8308 9.53726 12.9674C9.53726 11.9138 10.0625 10.9448 10.9139 10.3621ZM4.65877 5.90325H5.2716V5.95155C5.2716 6.25042 5.51613 6.49495 5.81801 6.49495H6.08669C6.58179 6.49495 6.98028 6.09646 6.98028 5.60136C6.98028 5.3025 6.73575 5.05797 6.43688 5.05797H5.81801C5.62179 5.05797 5.44971 5.16061 5.35311 5.31759C5.32594 5.30853 5.30179 5.29948 5.2716 5.29948H4.59839C4.60745 5.28136 4.61952 5.26325 4.62556 5.24212C4.62858 5.23608 4.77952 4.7591 5.16896 4.52363C5.25952 4.46929 5.31386 4.37268 5.31386 4.26702V3.95608C5.31386 3.77797 5.39839 3.62099 5.54631 3.52136C5.54933 3.51834 5.55537 3.51533 5.56141 3.51231C5.5916 3.49117 5.6248 3.47306 5.65801 3.46099C5.66405 3.46099 5.66707 3.45797 5.67311 3.45797C5.70933 3.44589 5.74254 3.43683 5.77877 3.4308H5.79386C5.83009 3.42778 5.86631 3.42778 5.90254 3.43382C5.9116 3.43382 5.91763 3.43684 5.92367 3.43684C5.9599 3.44287 5.99613 3.45193 6.03235 3.464C6.03537 3.46702 6.04141 3.46702 6.04443 3.47004C6.05047 3.47004 6.0565 3.47306 6.06254 3.47608C6.61499 3.63608 7.18858 3.64816 7.76216 3.50627C7.8165 3.49419 7.87084 3.48212 7.92518 3.464C8.09122 3.40061 8.26631 3.42174 8.41424 3.52136C8.55914 3.62099 8.64367 3.77797 8.64367 3.95306V4.26702C8.64348 4.31905 8.65707 4.37019 8.68305 4.41526C8.70903 4.46033 8.74648 4.49772 8.7916 4.52363C8.83688 4.55382 8.88216 4.58702 8.92443 4.62023C9.04216 4.72287 9.12971 4.84363 9.19311 4.94929C9.19613 4.95533 9.20216 4.96136 9.20518 4.9674C9.21122 4.9825 9.21726 4.99155 9.22631 5.00665C9.29575 5.13646 9.32896 5.2391 9.33197 5.2391C9.33499 5.25117 9.34103 5.26023 9.34405 5.26929C9.35009 5.28136 9.35311 5.29042 9.35915 5.29948H8.69197C8.66179 5.29948 8.63462 5.30853 8.60745 5.31759C8.51386 5.16061 8.34179 5.05797 8.14556 5.05797H7.52669C7.2248 5.05797 6.98028 5.3025 6.98028 5.60136C6.98028 5.71871 7.00339 5.83491 7.0483 5.94332C7.0932 6.05174 7.15902 6.15025 7.242 6.23322C7.32498 6.3162 7.42349 6.38202 7.5319 6.42693C7.64032 6.47184 7.75651 6.49495 7.87386 6.49495H8.14556C8.44745 6.49495 8.69197 6.25042 8.69197 5.95155V5.90325H9.30179C9.10043 6.91397 8.43658 7.98204 7.4802 8.29208C6.10239 8.71382 4.94375 7.31819 4.65877 5.90325ZM5.94179 8.72891C5.99613 8.75608 6.05228 8.77721 6.10782 8.79985L6.11235 8.80167C6.41652 8.92524 6.74343 8.98292 7.07153 8.9709C7.39962 8.95888 7.72144 8.87743 8.01575 8.73193C8.04594 8.8074 8.08216 8.88287 8.12141 8.95834C8.25726 9.224 8.43839 9.43533 8.64367 9.57721L6.97726 10.4255L5.31386 9.57721C5.60065 9.37797 5.81499 9.05495 5.94179 8.72891ZM5.66707 12.0557L4.00971 10.4557L4.66481 9.92438L5.95688 10.5825L6.52443 10.8753L5.66707 12.0557ZM6.38254 14.6308L6.65726 13.5833H7.29726L7.57499 14.6308H6.38254ZM7.3999 12.9795H6.55462L6.09877 12.4904L6.97726 11.2738L7.85877 12.4904L7.3999 12.9795ZM7.43311 10.8723L9.29273 9.92438L9.94782 10.4557L8.29047 12.0557L7.43311 10.8723Z"/>
	</symbol>
	<symbol fill="currentColor" viewBox="0 0 14 14" id="user">
		<path d="M12.3333 0.333496H1.66659C0.933252 0.333496 0.333252 0.933496 0.333252 1.66683V13.6668L2.99992 11.0002H12.3333C13.0666 11.0002 13.6666 10.4002 13.6666 9.66683V1.66683C13.6666 0.933496 13.0666 0.333496 12.3333 0.333496ZM2.99992 8.3335V6.68683L7.58659 2.10016C7.71992 1.96683 7.92658 1.96683 8.05992 2.10016L9.23992 3.28016C9.37325 3.4135 9.37325 3.62016 9.23992 3.7535L4.64658 8.3335H2.99992ZM10.3333 8.3335H5.99992L7.33325 7.00016H10.3333C10.6999 7.00016 10.9999 7.30016 10.9999 7.66683C10.9999 8.0335 10.6999 8.3335 10.3333 8.3335Z" />
	</symbol>
	<symbol fill="currentColor" viewBox="0 0 17 14" id="forum">
		<path d="M0.820068 6.16824C0.820068 6.80824 1.33207 7.32024 1.90807 7.32024V8.34424C1.90807 8.66424 2.10007 8.98424 2.42007 9.11224C2.67607 9.24024 3.06007 9.17624 3.31607 8.98424L5.10807 7.32024H8.62807C9.26807 7.32024 9.78007 6.80824 9.78007 6.16824V1.49624C9.78007 0.856238 9.26807 0.344238 8.62807 0.344238H1.97207C1.33207 0.344238 0.820068 0.856238 0.820068 1.49624V6.16824Z"/>
		<path d="M16.18 10.1362V4.37619C16.18 3.67219 15.604 3.09619 14.9 3.09619H11.06V7.19219C11.06 8.02419 10.42 8.66419 9.58798 8.66419H5.61998L5.42798 8.79219V10.1362C5.42798 10.8402 6.00398 11.4162 6.70798 11.4162H11.06L13.3 13.4642C13.556 13.7202 13.94 13.7842 14.26 13.6562C14.58 13.5282 14.772 13.2082 14.772 12.8882V11.4802H14.836C15.604 11.4162 16.18 10.8402 16.18 10.1362Z"/>
	</symbol>
	<symbol fill="currentColor" viewBox="0 0 12 16" id="book">
		<path fill-rule="evenodd" clip-rule="evenodd" d="M0.0295045 12.8344C0.0601245 13.2091 0.125831 13.5536 0.290691 13.8772C0.546351 14.3789 0.954305 14.7868 1.45606 15.0425C1.77962 15.2074 2.12409 15.2731 2.49882 15.3037C2.85962 15.3332 3.30252 15.3332 3.83916 15.3332H9.22573C9.5772 15.3332 9.88033 15.3332 10.1301 15.3128C10.3936 15.2912 10.6558 15.2437 10.908 15.1152C11.2843 14.9234 11.5903 14.6175 11.7821 14.2412C11.9106 13.9889 11.9581 13.7268 11.9797 13.4632C11.9979 13.2394 12.0001 12.9727 12.0001 12.6665C12.0001 9.59124 12.0001 6.51603 12.0001 3.4408C12.0001 3.08937 12.0001 2.7862 11.9797 2.53648C11.9581 2.27292 11.9106 2.01078 11.7821 1.75852C11.5903 1.3822 11.2843 1.07624 10.908 0.884491C10.6558 0.755964 10.3936 0.708418 10.1301 0.686884C9.88033 0.666484 9.5772 0.666494 9.2258 0.666504H3.83918C3.30254 0.666497 2.85961 0.666491 2.49882 0.695971C2.12409 0.726584 1.77962 0.792298 1.45606 0.957158C0.954305 1.21282 0.546351 1.62076 0.290691 2.12253C0.125831 2.44609 0.0601245 2.79056 0.0295045 3.16529C2.45472e-05 3.52608 3.12607e-05 3.96898 4.4594e-05 4.50563V11.494C3.79273e-05 11.9414 -0.00690212 12.3888 0.0295045 12.8344ZM10.6507 13.3546C10.6359 13.5357 10.6109 13.6028 10.5941 13.6358C10.5301 13.7613 10.4281 13.8632 10.3027 13.9272C10.2697 13.944 10.2026 13.9691 10.0215 13.9839C9.8326 13.9993 9.5844 13.9998 9.20007 13.9998H3.86671C3.29566 13.9998 2.90746 13.9993 2.6074 13.9748C2.31512 13.9509 2.16566 13.9076 2.06139 13.8545C1.8105 13.7267 1.60653 13.5227 1.4787 13.2718C1.35925 13.0374 1.30018 12.8344 1.34457 12.493C1.42964 11.8386 1.98915 11.3332 2.66671 11.3332H10.6667C10.6667 12.0032 10.7054 12.6862 10.6507 13.3546Z"/>
	</symbol>
	<!-- <symbol fill="currentColor" viewBox="0 0 16 16" id=""></symbol> -->
	<!-- <symbol fill="currentColor" viewBox="0 0 16 16" id=""></symbol> -->
	<!-- <symbol fill="currentColor" viewBox="0 0 16 16" id=""></symbol> -->
</svg>
